<svg xmlns:xlink="http://www.w3.org/1999/xlink" class="ons-icon--logo" xmlns="http://www.w3.org/2000/svg" width="234" height="35" viewBox="0 0 234 35" focusable="false" aria-labelledby="poweredby-alt"><title id="poweredby-alt">Her Majesty’s Government</title><path fill="#222222" d="M3 0H0v35h3V0ZM63 8.887h2.313v7.487h9.16V8.887h2.314v17.409h-2.313v-7.974h-9.161v7.974H63V8.887ZM80.013 8.887h3.165l5.479 14.64 5.508-14.64h3.166v17.409h-2.192V11.809h-.03L89.66 26.296h-1.978l-5.448-14.487h-.03v14.487h-2.192V8.887ZM120.522 24.135c-1.339 1.826-3.531 2.587-5.6 2.587-5.205 0-8.278-4.23-8.278-8.796 0-5.082 2.769-9.465 8.278-9.465 3.804 0 6.817 1.704 7.487 5.782h-2.313c-.457-2.647-2.587-3.834-5.174-3.834-4.231 0-5.965 3.652-5.965 7.395 0 3.622 2.1 6.94 5.965 6.94 3.591 0 5.722-2.526 5.6-5.692h-5.57v-1.948h7.639v9.161h-1.46l-.609-2.13ZM130.687 13.391c3.987 0 6.117 2.892 6.117 6.605 0 3.682-2.13 6.574-6.117 6.574s-6.118-2.892-6.118-6.574c0-3.713 2.131-6.605 6.118-6.605Zm0 11.383c2.161 0 3.926-1.704 3.926-4.748 0-3.074-1.765-4.778-3.926-4.778-2.161 0-3.926 1.704-3.926 4.778 0 3.044 1.765 4.748 3.926 4.748ZM143.865 26.296h-2.222l-4.686-12.6h2.313l3.56 10.5h.031l3.439-10.5h2.191l-4.626 12.6ZM160.056 22.309c-.548 2.77-2.556 4.291-5.387 4.291-4.017 0-5.934-2.77-6.056-6.635 0-3.774 2.495-6.574 5.935-6.574 4.473 0 5.843 4.17 5.721 7.213h-9.434c-.061 2.192 1.156 4.14 3.926 4.14 1.704 0 2.891-.822 3.256-2.466h2.039v.03Zm-2.008-3.53c-.092-1.979-1.583-3.562-3.622-3.562-2.161 0-3.47 1.644-3.622 3.561h7.244ZM161.913 13.696h1.948v2.647h.061c1.004-2.039 2.404-3.012 4.626-2.952v2.192c-3.348 0-4.565 1.917-4.565 5.113v5.6h-2.07v-12.6ZM169.704 13.696h1.948v2.008h.061c.882-1.552 2.282-2.282 4.108-2.282 3.318 0 4.353 1.887 4.353 4.595v8.279h-2.07v-8.522c0-1.522-.974-2.526-2.556-2.526-2.527 0-3.744 1.674-3.744 3.957v7.121h-2.069v-12.63h-.031ZM182.639 13.696h1.948v1.856h.061c.913-1.4 2.343-2.16 4.078-2.16 1.552 0 2.952.608 3.47 2.16a4.687 4.687 0 0 1 3.956-2.16c2.526 0 4.2 1.034 4.2 3.652v9.252h-2.069v-8.279c0-1.552-.426-2.8-2.435-2.8s-3.287 1.279-3.287 3.226v7.853h-2.1v-8.279c0-1.643-.517-2.8-2.374-2.8-2.465 0-3.378 2.283-3.378 3.226v7.853h-2.07v-12.6ZM213.622 22.309c-.548 2.77-2.557 4.291-5.387 4.291-4.018 0-5.935-2.77-6.057-6.635 0-3.774 2.496-6.574 5.935-6.574 4.474 0 5.843 4.17 5.722 7.213H204.4c-.061 2.192 1.156 4.14 3.926 4.14 1.704 0 2.891-.822 3.257-2.466h2.039v.03Zm-2.009-3.53c-.091-1.979-1.583-3.562-3.622-3.562-2.161 0-3.469 1.644-3.621 3.561h7.243ZM215.509 13.696h1.948v2.008h.06c.883-1.552 2.283-2.282 4.109-2.282 3.318 0 4.352 1.887 4.352 4.595v8.279h-2.069v-8.522c0-1.522-.974-2.526-2.557-2.526-2.526 0-3.743 1.674-3.743 3.957v7.121h-2.07v-12.63h-.03ZM231.274 13.696h2.526v1.826h-2.526v7.821c0 .944.274 1.127 1.552 1.127h.944v1.826h-1.583c-2.161 0-3.013-.426-3.013-2.77v-8.035h-2.161v-1.826h2.161V9.891h2.07v3.805h.03ZM28.396 5.691c-.213.396-.365.61-.335.883.03.304.335.517.487.791.122-.334.365-.608.335-.882-.061-.213-.426-.579-.487-.792ZM33.509 5.691c.213.396.365.61.334.883-.03.304-.334.517-.487.791-.121-.334-.365-.608-.334-.882.03-.213.426-.579.487-.792ZM25.444 5.478a.338.338 0 0 0 .335-.335.338.338 0 0 0-.335-.334.338.338 0 0 0-.335.334c0 .183.152.335.335.335ZM25.687 5.965a.338.338 0 0 0-.335-.335.338.338 0 0 0-.334.335c0 .183.152.335.334.335.183.03.335-.122.335-.335ZM25.839 6.817a.338.338 0 0 0-.335-.334.338.338 0 0 0-.335.334c0 .183.153.335.335.335a.338.338 0 0 0 .335-.335ZM27.36 3.835a.338.338 0 0 0 .335-.335.338.338 0 0 0-.334-.335.338.338 0 0 0-.335.335c0 .183.152.335.335.335ZM26.509 4.109a.338.338 0 0 0 .334-.335.338.338 0 0 0-.334-.335.338.338 0 0 0-.335.335c-.03.183.122.335.335.335ZM25.84 4.687a.338.338 0 0 0 .334-.335.338.338 0 0 0-.335-.335.338.338 0 0 0-.335.335c-.03.183.122.335.335.335ZM28.274 3.926a.338.338 0 0 0 .334-.335.338.338 0 0 0-.334-.334.338.338 0 0 0-.335.334c-.03.183.122.335.335.335ZM29.126 4.17a.338.338 0 0 0 .335-.335.338.338 0 0 0-.335-.335.338.338 0 0 0-.335.335c-.03.182.122.335.335.335ZM29.917 4.535a.338.338 0 0 0 .335-.335.338.338 0 0 0-.335-.335.338.338 0 0 0-.335.335c0 .183.153.335.335.335ZM36.096 5.143c0 .183.152.335.335.335a.338.338 0 0 0 .334-.335.338.338 0 0 0-.334-.334c-.183-.03-.335.121-.335.334ZM36.552 5.63a.338.338 0 0 0-.335.335c0 .183.153.335.335.335a.338.338 0 0 0 .335-.335.338.338 0 0 0-.335-.335ZM36.37 6.452a.338.338 0 0 0-.335.335c0 .183.152.335.335.335a.338.338 0 0 0 .334-.335c.03-.152-.152-.335-.334-.335ZM34.513 3.835a.338.338 0 0 0 .335-.335.338.338 0 0 0-.335-.335.338.338 0 0 0-.335.335c0 .183.152.335.335.335ZM35.365 4.109a.338.338 0 0 0 .335-.335.338.338 0 0 0-.335-.335.338.338 0 0 0-.335.335c0 .183.152.335.335.335ZM36.065 4.687a.338.338 0 0 0 .335-.335.338.338 0 0 0-.335-.335.338.338 0 0 0-.335.335c-.03.183.122.335.335.335ZM33.63 3.926a.338.338 0 0 0 .335-.335.338.338 0 0 0-.334-.334.338.338 0 0 0-.335.334c-.03.183.122.335.335.335ZM32.748 4.17a.338.338 0 0 0 .335-.335.338.338 0 0 0-.335-.335.338.338 0 0 0-.335.335c0 .182.152.335.335.335ZM31.622 4.2c0 .183.152.335.334.335a.338.338 0 0 0 .335-.335.338.338 0 0 0-.335-.335.338.338 0 0 0-.334.335ZM30.343 6.057h.396V4.565c-.122-.03-.274-.06-.396-.121v1.613ZM31.53 4.474c-.121.06-.243.091-.395.122v1.49h.395V4.475ZM30.709 2.83v-.882c-.427.091-.761.426-.853.882h.853ZM31.165 2.83h.852a1.067 1.067 0 0 0-.852-.882v.882ZM29.887 3.257c.122.487.547.852 1.065.852.517 0 .943-.365 1.065-.852h-2.13ZM31.53 1.826c-.243-.183-.426-.487-.456-.76.274.06.608.243.791.486V.365c-.182.244-.517.457-.791.487.03-.274.213-.548.456-.852h-1.156c.243.304.426.578.456.852-.273-.06-.608-.243-.79-.487v1.187c.182-.243.517-.456.79-.487-.03.305-.213.578-.456.761h1.156ZM31.561 26.6a.416.416 0 0 1-.426-.426c0-.244.182-.426.426-.426s.426.182.426.426a.416.416 0 0 1-.426.426Zm-2.04-.64a.468.468 0 0 1-.456-.456c0-.243.213-.456.457-.456.243 0 .456.213.456.456 0 .274-.182.457-.456.457Zm-.7-2.038-.12-.091c-.214-.153-.396-.153-.58 0-.09.09-.182.182-.243.273l-.121.122.091.061c.213.183.243.365.183.487-.03.03-.061.06-.122.091-.122.03-.274 0-.426-.121l-.092-.061-.06.09c0 .031-.03.031-.03.062-.031.03-.031.06-.062.091-.091.152-.152.305-.152.396v.091c.03.122.122.183.213.213l.061.03c.091.061.244.153.335.214a.565.565 0 0 1-.579.03c-.304-.152-.486-.487-.486-.64 0-.243.121-.577.334-.912l.03-.061-.03-.06a1.423 1.423 0 0 1-.152-.305c.122.03.213.03.335.06h.06l.031-.03c.122-.152.578-.609 1.005-.609.182 0 .395.092.547.274a.811.811 0 0 1 .213.427c-.06-.03-.121-.092-.182-.122Zm3.988 1.613c-1.096-.274-2.374-.73-3.591-1.279a.971.971 0 0 0-.244-.73.91.91 0 0 0-.7-.335c-.122 0-.213.03-.335.061-.182-.152-.334-.335-.487-.517a5.91 5.91 0 0 1-1.065-1.857 5.943 5.943 0 0 1-.304-1.217c-.061.365-.457.822-1.126.822 0-.061 0-.244-.061-.274-.183.182-.457.426-1.065.182.09.487.213.944.395 1.4a8.4 8.4 0 0 0 1.552 2.618c.213.243.457.487.7.7v.152c0 .243.244.67.61.822.303.152.608.09.882-.092.517.274 1.187.548 1.917.761.822.213 1.613.365 2.222.365.517 0 1.217-.243 1.917-.67.274-.182.548-.364.73-.547l.062-.06c-.548.03-1.34-.123-2.01-.305ZM32.505 29.948c-.092-.152-.183-.244-.305-.244-.456 0-.274 1.157-.791 1.157-.244 0-.365-.152-.365-.304 0-.153.121-.213.121-.335 0-.122-.09-.183-.213-.183-.121 0-.213.061-.213.183 0 .121.122.182.122.335 0 .152-.122.304-.365.304-.517 0-.365-1.157-.791-1.157-.092 0-.213.092-.305.244a1.01 1.01 0 0 1-.152-.457c0-.213.152-.517.517-.517.579 0 .457.822.73.822a.208.208 0 0 0 .214-.213c0-.244-.426-.457-.426-.792 0-.334.304-.608.639-.882.335.274.64.548.64.882 0 .335-.427.548-.427.792 0 .121.091.213.213.213.274 0 .152-.822.73-.822.335 0 .518.304.518.517.03.122 0 .305-.091.457Zm-1.553 1.643a.273.273 0 0 1-.274-.274c0-.152.122-.273.274-.273.153 0 .305.121.305.273-.03.153-.152.274-.305.274Zm1.187-2.83c-.091 0-.152 0-.213.03v-1.308a10.862 10.862 0 0 1-1.887-.274v1.582c-.06-.03-.152-.03-.243-.03-.457 0-.73.396-.73.73 0 .335.182.64.365.852.091-.212.152-.365.274-.365.213 0 .121 1.126.79 1.157-.03.06-.03.122-.03.182 0 .274.244.518.518.518a.533.533 0 0 0 .517-.518c0-.06 0-.121-.03-.182.67-.03.548-1.157.791-1.157.122 0 .183.152.274.365.183-.182.365-.517.365-.852-.03-.365-.304-.73-.76-.73Z"></path><path fill="#222222" d="M47.387 30.313c-.03-.06-.092-.091-.183-.091-1.522.456-3.409-.822-5.235-2.04-1.552-1.034-2.982-1.978-4.23-1.978-.457 0-.883.092-1.217.274-.427.244-.761.609-.974 1.126a6.049 6.049 0 0 1-.61 1.126c-.212.335-.364.579-.364.883 0 .243.091.457.304.67.183.182.426.334.791.547.092.03.153.092.244.122.304.152.487.244.517.426-.608.274-1.37.487-2.252.64-1.004.182-2.1.273-3.256.273-1.157 0-2.253-.091-3.257-.274-.883-.152-1.674-.365-2.283-.639.03-.243.213-.365.548-.517a.913.913 0 0 0 .244-.122c.304-.152.578-.304.791-.487a.804.804 0 0 0 .304-.639c0-.304-.152-.548-.365-.883a7.238 7.238 0 0 1-.609-1.126 2.232 2.232 0 0 0-.974-1.126 2.67 2.67 0 0 0-1.217-.304c-1.248 0-2.709.974-4.23 1.978-1.826 1.217-3.713 2.465-5.235 2.04-.061-.031-.152.03-.183.09-.03.061 0 .153.061.183.457.213.883.518 1.278.822.548.426 1.066.822 1.644.822.548 0 1.126-.183 1.826-.548.609-.335 1.248-.761 1.857-1.187 1.217-.822 2.434-1.674 3.621-1.765-.121.121-.243.243-.365.334-.335.305-.64.579-.64 1.127 0 .426.153.73.366 1.156.061.122.122.274.183.426.121.304.182.517.274.852.03.152.06.305.121.487.061.274.213.791 1.066 1.248 1.004.517 2.739.76 5.143.76s4.14-.273 5.144-.76c.852-.426 1.004-.974 1.065-1.248.06-.182.091-.335.121-.487.092-.334.122-.548.274-.852.092-.213.183-.396.274-.548.183-.334.335-.608.335-1.004 0-.548-.304-.822-.67-1.157-.121-.09-.243-.213-.365-.334 1.187.09 2.435.943 3.622 1.765.609.426 1.248.852 1.857 1.187.7.365 1.278.548 1.826.548.578 0 1.095-.396 1.643-.822.396-.304.791-.64 1.278-.822.092 0 .122-.091.092-.152ZM31.165 18.504v-5.721a4.32 4.32 0 0 1 1.735.456c.578.304 1.126.7 1.583 1.248a5.91 5.91 0 0 1 1.065 1.856c.243.7.365 1.43.396 2.161h-4.779Zm-.213-8.126c-1.613 0-2.739.487-3.378.913-.365-.213-.548-.456-.548-.7 0-.913 2.587-1.004 3.926-1.004 1.309 0 3.926.091 3.926 1.004 0 .244-.152.487-.547.7-.64-.426-1.766-.913-3.379-.913Zm-.091 8.126h-4.87c0-.76.153-1.491.396-2.16a5.91 5.91 0 0 1 1.065-1.857 4.796 4.796 0 0 1 1.583-1.248 4.753 4.753 0 0 1 1.826-.456v5.721Zm7.396-.365c-.183-.122-.457-.396-.579-.67-.182-.365-.943-1.856-1.065-2.069a.906.906 0 0 1-.152-.457c0-.152.091-.274.152-.395.061-.061.213-.244.274-.335a.635.635 0 0 0 .122-.183c-.274-.487-.548-.821-.913-1.247a8.495 8.495 0 0 0-1.491-1.279c.304-.182.578-.456.578-.913a.81.81 0 0 0-.305-.639c.305-.974.853-2.16 1.31-2.678l-.975-.426c.244.395.274.852.213 1.095-.243-.182-.487-.426-.548-.73-.06.304-.213.76-.365 1.065.274-.122.518-.182.791-.06a1.156 1.156 0 0 1-1.217.425c-.335-.09-.7-.273-.67-.547 0-.153.122-.366.335-.335.213.03.213.335.152.487.274-.152.579-.974.122-1.096-.335-.091-.67.365-.76.73-.061-.426-.244-.852-.579-.821-.456.03-.304.852-.152 1.065.03-.304.183-.456.335-.426.121 0 .274.091.243.365-.03.274-.395.426-.852.426-.426 0-1.126-.121-1.217-.913.273.061.7.244.882.518a4.937 4.937 0 0 1 0-1.34 1.363 1.363 0 0 1-.852.518c.06-.335.365-.7.7-.913H30.01c.335.213.639.578.7.913a1.291 1.291 0 0 1-.852-.518c.06.487.06.853 0 1.34.182-.274.578-.457.852-.518-.061.792-.791.913-1.218.913-.426 0-.821-.152-.852-.426-.03-.274.122-.365.244-.365s.304.152.304.426c.152-.213.304-1.035-.152-1.065-.335-.03-.518.395-.609.822-.121-.366-.426-.822-.76-.73-.427.12-.153.943.121 1.095-.06-.152-.06-.457.152-.487.213-.03.335.182.335.335.03.274-.335.456-.67.547-.639.153-1.065-.182-1.217-.395.304-.122.517-.061.822.06-.152-.273-.305-.76-.365-1.065-.061.335-.305.579-.548.761-.061-.274-.03-.73.213-1.095l-.974.426c.456.517 1.004 1.704 1.309 2.678a.809.809 0 0 0-.305.64c0 .456.305.73.578.912a7.345 7.345 0 0 0-1.46 1.278 8.068 8.068 0 0 0-1.552 2.618c.121.152.73.791.852.943.243.305.395.609.395.852 0 .457.122.61.335.913.061.092.183.427.183.64h4.87v5.295a.647.647 0 0 0-.549.274c.548.213 1.096.426 1.644.609.06-.335.122-.548.304-.761 0 0-.7-.06-1.095-.091v-5.296h4.87c-.031.73-.153 1.43-.397 2.1a5.909 5.909 0 0 1-1.065 1.857 4.796 4.796 0 0 1-1.582 1.247c-.092.061-.092.122-.183.153-.091.09-.152.243-.243.426-.061.152-.092.274-.122.487.213.06.335.091.548.152 1.674.426 2.07.304 2.16.213.366-.274.731-.609 1.035-.974a8.403 8.403 0 0 0 1.553-2.617c.395-1.005.578-2.1.578-3.196.06-.304.06-.365.06-.548Z"></path><path fill="#222222" d="M33.813 15.096a.23.23 0 0 0-.061.121c.03.061.06.092.152.092-.06.03-.091.122-.122.213.092 0 .153 0 .214-.061-.031.091 0 .122.06.152.03.03.092.03.122 0 .365.578.609 1.248.7 1.918-.03-.03-.091-.061-.182-.061 0 .091.03.182.09.213H33.6c0-.061-.03-.152-.092-.152-.06-.03-.09 0-.152.06 0-.06-.03-.152-.091-.213a.33.33 0 0 0-.091.213c-.061-.06-.122-.06-.152-.06a.167.167 0 0 0-.092.152h-.974c.03-.061.061-.122.061-.213a.44.44 0 0 0-.213.06v-1.643c.091 0 .152-.03.152-.091.03-.061 0-.122-.06-.152.06 0 .152-.03.212-.092a.328.328 0 0 0-.212-.091c.06-.06.06-.122.06-.152a.167.167 0 0 0-.152-.091v-1.4c.03.03.091.06.183.06 0-.091 0-.152-.061-.213.304.092.609.244.913.457.365.335.7.639.974.974Zm1.339 2.465c.091.06.06.183-.06.183a5.281 5.281 0 0 0-.914-2.405.348.348 0 0 0 .213-.243c-.152-.03-.243.06-.304.121-.03-.06-.061-.09-.092-.121a4.48 4.48 0 0 0-1.034-.974 3.564 3.564 0 0 0-1.157-.518c0-.09.122-.121.183-.03 0-.152-.122-.213-.183-.183-.03 0-.091.061-.091.122a.491.491 0 0 0-.213-.122c0 .092.03.183.06.213-.06 0-.09.03-.121.061-.03.061 0 .213.152.213-.06-.06-.03-.182.061-.182v1.856c-.091-.03-.213-.03-.304.092.091.09.213.121.304.09v2.01c-.091 0-.122-.122-.06-.183-.153 0-.214.122-.183.213.03.06.06.091.152.06a.276.276 0 0 0-.092.214c.092 0 .153-.03.213-.091 0 .09.03.121.092.152.06.03.213-.03.213-.183-.061.091-.183.061-.183-.03h1.4c-.03.091 0 .213.091.304.092-.091.122-.213.092-.304h1.552c0 .091-.122.121-.183.06 0 .153.152.214.213.183.061-.03.092-.06.061-.152.061.03.122.06.213.06a.276.276 0 0 0-.091-.212c.091 0 .122-.03.152-.091.061-.061 0-.183-.152-.183Z"></path><path fill="#222222" d="M34.33 17.043c.061-.03.122-.06.122-.121-.06.03-.121 0-.121-.03.06-.031.09 0 .06-.092-.06-.091-.091-.091-.152-.03-.06.06-.426-.03-.426-.305.03.061.06.091.122.122 0 0 .03 0 .03.03h.061c.03 0 .061.03.122.03h.03c.092-.03.153-.06.153-.151 0-.153-.122-.213-.305-.366-.06-.06-.122-.09-.152-.152-.06-.121-.03-.213-.152-.426 0-.06-.03-.091-.061-.182-.061.121-.122.395.091.608.152.183.487.335.487.487 0 .03-.03.061-.091.061h-.091c-.03 0-.061 0-.061-.03-.03-.03-.061-.061-.122-.092-.152-.121-.274-.334-.335-.426-.152-.213-.091-.396-.06-.548.121-.152-.062-.456-.183-.547 0 0 .03-.061 0-.153-.03.03-.061 0-.092 0-.03-.06-.03-.06-.09-.06-.062 0-.062-.061-.062-.061-.03.03-.06.06-.091.06-.061 0-.091 0-.091.03-.03.031-.061.031-.122.031s-.061.03-.061.092c0 .03 0 .06.06.091h.031l.061.06.03-.06c.031-.03.122-.03.122.03 0 .03.03.061-.03.061h-.122c-.03 0-.03.061-.03.092 0 .03.03.06.122.03.09-.03.213-.03.213.03 0 .183-.183.153-.244.366a.238.238 0 0 1-.122-.122.406.406 0 0 0-.152-.183.663.663 0 0 0-.152-.121c-.06-.03-.06-.061-.06-.153 0-.06.03-.121.03-.182 0 0 0-.03-.03-.061 0-.03-.062-.06-.092-.06 0 0 .03.03.03.06l-.03.03s-.03.03 0 .061v.03c-.03-.03-.03-.09-.061-.121h-.03c0-.03-.061-.091-.092-.03 0 0 .03 0 .03.03v.03c0 .03.031.061.092.061v.03c-.091-.03-.122 0-.122.031v.03c-.03.031-.03.061.03.092v-.061l.031.03h.091c-.06.061-.03.092.03.122-.03.061-.121.03-.121-.06-.06.121.03.182.122.151v.122s0-.03.03-.03c0 .03 0 .06.061.06v-.03c0 .03.03.061.03.061.03.091.122.274.335.365-.091.061-.182.152-.243.213s-.152.122-.183.092l-.06-.061c-.031-.03-.062-.03-.062-.03h-.03c-.03 0-.091 0-.091.03h.06v.03c0 .03.031.061.122.03 0 0 .03 0 0 0 0 0-.03.031-.06 0-.061 0-.061-.06-.092 0 0 0 0 .031-.03.031s-.092.091-.03.122c0 0 0-.03.03-.061l.03.03c.03.03.061.061.122-.03 0 .06-.061.122 0 .122h.03c0 .06.092.06.122.06-.03 0-.06-.03-.06-.06h.03c.03-.03 0-.092 0-.122 0 .03.03.06.09.03.031-.03.031-.03.031-.06.061-.03.122-.061.183-.03 0-.031.03-.092.122-.123.06-.03.122 0 .122.03 0-.03.03-.09.06-.121 0 .304.396.304.487.457-.121-.061-.243-.092-.334-.061-.092.03-.274.121-.305.213-.03.091.092.243.183.304-.122.03-.152 0-.274 0-.091 0-.091-.152-.213-.122 0 0-.03 0-.03.03-.031 0-.092.062-.092.092 0 0 .03-.03.06-.03v.03c0 .03 0 .03.031.03h.03c0 .03-.12-.03-.12.092 0 0 0 .03.03.03 0 .03.03.061.09.061l-.03-.03h.03v-.03.06c0 .03.062.091.123.03-.03 0-.061 0-.061-.03h.03v-.03h.061c0 .03.03.06.091.03.03 0 .03-.03.03-.03.031 0 .031.03.062.03 0-.03.03-.091.121-.03l.061-.061s.092.03.122 0c.06-.061.03-.061.03-.091-.03-.092-.06-.092-.09-.153-.031-.152.182-.243.303-.213.03.092.153.335.366.426.121.061.182-.09.243-.09l.03.03v.152c0 .03-.09 0-.152 0-.03 0-.06.03-.06.03-.03 0-.092.03-.092.091.03 0 .03-.03.091-.03v.03c0 .061.061.092.122.03 0 0 .03 0 0 0-.03.031-.091.092-.03.092h.03c0 .03.03.061.061.091v-.06h.03c.031 0 .031-.061.061-.092 0 .03-.03.092.03.092h.031c0 .03.061.06.092.03 0 0-.03-.03-.061-.03l.03-.03c.03-.092-.06-.092-.06-.123 0-.03.09-.03.09-.09.031-.031.092-.062.092-.092 0 .213-.03.182-.03.182ZM29.887 19.691h-.06c-.062 0-.183.03-.183.122 0 .091.06.152.152.152h.06v.061c-.03.152-.06.396-.09.67l-.73-1.035c.334-.122.608-.274.76-.274.091 0 .122.06.091.304Zm-.274 1.796-1.156-1.643c.121-.03.243-.061.365-.122l.852 1.217c0 .213-.03.396-.06.548Zm-.121.76-1.614-2.312h.153c.091 0 .152 0 .243-.03l1.309 1.856c-.03.183-.061.335-.091.487Zm-1.826-2.312 1.765 2.556c-.944-.395-1.887-1.247-1.765-2.556Zm2.647-.213h-.091v-.091c0-.274-.152-.487-.457-.487-.273 0-.79.365-1.552.365-.304 0-.7-.152-.913-.305l-.091.213v-.03a.196.196 0 0 0-.183-.183.196.196 0 0 0-.182.183c0 .091.091.183.182.183.061 0 .122-.03.152-.061l-.09.213c.03 0 .06.03.09.03-.121 1.126.731 2.557 2.192 2.983.213-.061.426-.03.426.213 0 .152-.06.213-.213.213-.091 0-.152-.06-.152-.122 0-.091.182-.03.182-.122.03-.09-.03-.121-.121-.121-.092 0-.244.06-.244.243 0 .213.152.335.335.335.152 0 .517-.091.456-.487.092 0 .153 0 .183-.091l.03-.213h-.09l.06-2.557h.06c.092 0 .183-.03.183-.122 0-.121-.06-.182-.152-.182ZM29.005 14.304c0-.03.03-.03.03-.03.03 0 .03 0 .03-.03 0-.031 0-.031-.03-.061.03 0 .03 0 .03-.03h-.03s0-.031.03-.031h.03l.092.03s.03 0 .03.03v.031s0-.03-.03-.03v.03c-.03 0-.03-.03-.06 0v.091c0 .03-.031.061-.062.03-.06.031-.06 0-.06-.03Zm.121-.243c0 .03-.06.06-.06.03-.031-.03 0-.03-.031-.091.03.03.06.06.091.06Zm.061.06s.091.031.122.031c-.061 0-.03.03-.061.03-.06 0-.06-.03-.06-.06Zm.822.427c.335 0 .517-.122.517-.213 0-.396-.943-.152-.943-.396 0-.03.03-.06.06-.091.488-.03.488-.365.822-.426-.426-.061-.456.274-.639.274.091-.03.122-.153.122-.213-.091.121-.274.121-.365.243 0 .03-.03.06-.03.06a.167.167 0 0 0-.092.153c0 .365.974.122.974.365 0 .092-.152.152-.426.152-.213 0-.335-.152-.7-.06 0-.061.122-.183.06-.244.031 0 .062-.03.062-.06-.03-.031-.061-.031-.061-.031 0-.03 0-.03-.03-.061 0 0 0-.03-.031-.06 0 0-.03-.031-.091-.062-.03-.03-.061-.03-.092-.03h-.06c-.031 0-.061 0-.061.03-.03-.03-.03-.03-.061-.03 0 .03-.03.06 0 .091-.03 0-.061.091-.092.091 0 .03.03.03.03.03-.03.062-.03.123-.06.123l.03.03c-.03.091-.03.183-.06.213-.031-.03-.061-.03-.092-.06-.06-.031-.06-.062-.03-.123 0-.06.03-.09.03-.121v-.03c0-.031-.06-.062-.06-.062s.03.03.03.061l-.03.03s-.031.031 0 .062v.03c0-.03-.031-.091-.062-.091h-.03c0-.03-.03-.061-.091-.03h.03s0 .03-.03.03c0 .03.03.06.06.06v.031c-.06-.03-.09 0-.121.03v.03c-.03 0-.03.062 0 .062 0 0 0-.03.03-.03v.03h.091c-.06.03-.06.091 0 .091-.03.091-.121.06-.121 0-.091.091.03.152.121.122 0 .03 0 .03.031.03 0 0 0-.03.03-.03 0 .03 0 .06.03.06v-.03s.031.061.092.122c-.091.03-.213.06-.213.06h-.182c-.061.031-.183.092-.244.031 0-.03 0-.03-.03-.06 0-.031-.03-.031-.03-.031h-.031c-.03-.03-.061-.03-.092 0 .03 0 .03 0 .061.03v.03c0 .031 0 .031.092.062h-.061c-.03-.03-.03-.061-.092-.03h-.03c-.03 0-.091.03-.06.09 0 0 .03-.03.06-.03v.03c0 .031.03.092.122.031-.03.03-.092.06-.03.091h.03c0 .061.03.092.06.092 0 0-.03-.03-.03-.061h.03c.031-.03.031-.061.031-.092 0 .03 0 .061.06.061.062 0 .062-.06.062-.06.03 0 .03.03.03.06l.03-.03c0 .03 0 .06-.03.091.03 0 .061-.03.091-.091 0 0 0 .03.03.03h.092v.061s0-.03.03-.03c0 0 0 .06.031.091 0-.122.091-.091.152-.122l-.03.03c.03 0 .091-.03.091-.06 0 0 .03-.03.061-.03.03 0 .06 0 .091-.031 0 0 .03.06 0 .06.092 0 .183-.09.213-.09.183-.03-.121-.183.274-.153.03 0 .092-.03.122-.03-.03.06-.03.183.03.183.03 0 .061.03.092.03-.03 0-.061 0-.091.03-.092.061-.092-.121-.183-.09 0 0-.03 0-.03.03-.031 0-.092.03-.092.09 0 0 .03-.03.061-.03v.03s0 .031.03.031h.03c0 .03-.12-.03-.09.092 0 0 0 .03.03.03 0 .03.03.06.06.03l-.03-.03h.03v-.03.06c0 .03.062.061.092.03 0 0-.03 0-.06-.03h.03v-.03h.06c0 .03.031.03.061.03.061-.03 0-.06.061-.09h.152c0-.031 0-.123-.03-.153-.03 0 0-.06-.03-.091.06.03.121.03.182.03.122 0 0-.03.061-.06.061-.031.152-.031.152-.031.03 0 .03 0 .03.03v.122c0 .03-.06 0-.121 0-.03 0-.03 0-.03.03-.03 0-.061.03-.061.061 0 0 .03-.03.06-.03 0 .06.061.06.092.03 0 0 .03 0 0 0-.03.03-.091.061-.03.092h.03c0 .03.03.06.03.06v-.06h.03c.031 0 .031-.061.062-.061 0 .03-.03.06 0 .091h.03c0 .03.03.03.091.03 0 0-.03 0-.03-.03l.03-.03c.03-.061-.03-.061-.03-.092 0-.03.06 0 .06-.091 0 0 0-.03-.03-.03.03 0 .03 0 .061-.03-.06 0-.03-.031-.03-.062.03 0 .03-.03.03-.091-.03.03-.091.06-.091 0 0 0 0-.03-.061-.03.06-.03 0-.092-.152-.122-.03.03-.03.03 0 0ZM28.426 16.404s0-.03 0 0Zm-.274-.608c0-.03.03-.03.03-.03.031 0 .031 0 .031-.031 0-.03 0-.03-.03-.061.03 0 .03-.03.03-.03h-.03s0-.031.03-.031h.03l.092.06s.03 0 .03.031v.03s0-.03-.03-.03-.03.03 0 .03c-.03 0-.061-.03-.061 0v.122c0 .03-.03.061-.091.03-.03-.03-.03-.06-.03-.09Zm.122-.274c-.03.03-.06.06-.091.03-.03-.03 0-.03-.03-.091l.121.06Zm.091.03s.092.03.122.06c-.06 0-.03.031-.091.031-.03 0-.03-.03-.03-.09Zm2.13.304c0-.09-.121-.182-.456-.182s-1.096.122-1.096-.061c0-.091.153-.091.335-.06 0 0 .03.03.061.03.426.121.944-.092 1.218-.03-.305-.244-.579 0-.913-.062.182 0 .273-.06.273-.121-.152.09-.426-.061-.608.06 0 0-.03 0-.03.03-.244 0-.427 0-.427.153 0 .335.913.152 1.187.152s.335.03.335.091c0 .092-.274.092-.457.092-.243 0-1.004-.122-1.43-.03.03-.062.122-.153.06-.214.031-.03.062-.06.062-.091-.03-.03-.061-.03-.092-.03 0-.03 0-.03-.03-.061 0 0 0-.061-.03-.061s-.061-.03-.092-.061c-.06-.03-.091-.03-.091-.03h-.06c-.031 0-.062 0-.062.03-.03-.03-.06-.03-.091-.03-.03.03-.03.06 0 .121-.03 0-.091.122-.122.091 0 .03.03.03.03.03-.03.062-.06.123-.09.123.03.03.03.06.06.06v.122l-.06-.03h-.061.03-.03a.664.664 0 0 0-.153-.122c-.06-.03-.06-.06-.06-.152 0-.06.03-.122.03-.183v-.06c0-.031-.061-.061-.091-.061 0 0 .03.03.03.06l-.03.03c0 .031-.03.031 0 .062v.03a.23.23 0 0 0-.061-.121h-.03c0-.031-.031-.092-.092-.031 0 0 .03 0 .03.03v.03c0 .031.03.062.061.062v.03c-.06-.03-.122 0-.122.03v.031c-.03.03-.03.06 0 .091 0 0 0-.03.03-.06l.031.03h.091c-.06.06-.06.091.031.122 0 .091-.152.091-.122-.03-.06.121.03.182.153.151 0 .03 0 .03.03.03 0 0 0-.03.03-.03 0 .03 0 .061.03.061v-.03c.031 0 .062.06.123.122.06.03.121.09.152.06 0 .061.06.153.03.153h-.243c-.061.03-.213.09-.274.03-.03-.03 0-.03-.03-.091 0-.03-.031-.03-.061-.03h-.03a.093.093 0 0 0-.123 0c.03 0 .03 0 .061.03 0 0 0 .03-.03.03 0 .03 0 .061.091.091h-.06c-.031-.03-.031-.06-.092-.06 0 0-.03 0-.03.03-.031 0-.122.06-.092.091 0 0 .03-.03.061-.03v.03c0 .061.03.092.122.03-.03.031-.092.092-.03.122l.03.031c0 .06.06.091.091.091 0-.03-.03-.03-.03-.091h.03c.06-.03.03-.091.06-.091 0 .03 0 .091.062.06.06 0 .091-.06.091-.09.03 0 .03.03.03.06l.031-.03c0 .03 0 .06-.03.091.03 0 .09-.03.09-.091l.031.03h.122v.061l.03-.03c.03 0 0 .06.03.09 0-.151.092-.09.183-.151 0 .03-.03.03-.03.06.091.031.274-.121.304-.213h.092c.304.03.091-.273.578-.182a.23.23 0 0 0 .122-.061c-.03.06-.03.183.03.213.03 0 .091.03.122.06-.03 0-.091 0-.091.031-.092.061-.092-.152-.213-.121 0 0-.03 0-.03.03-.031 0-.092.06-.092.091 0 0 .03-.03.06-.03v.03s0 .03.031.03h.03c0 .031-.121-.03-.121.092 0 0 0 .03.03.03 0 .031.03.061.091.061l-.03-.03h.03v-.03.06c0 .03.061.092.122.03-.03 0-.06 0-.06-.03h.03v-.03h.06c0 .03.031.06.092.03.06-.03 0-.09.06-.09h.183c.03-.031 0-.123-.06-.153-.03-.03 0-.06-.03-.122.06.03.12.061.212.061.152 0 .183-.03.274-.06.091-.062.152-.031.183-.031.03 0 .03 0 .03.03-.03.091 0 .091 0 .122 0 .03-.091 0-.122 0-.03 0-.06 0-.06.03-.03 0-.092.03-.092.092 0 0 .03-.03.061-.03v.03c0 .06.061.06.091.03 0 0 .03 0 0 0-.03.03-.09.061-.03.091 0 0 .03 0 .03.03 0 .031.03.062.061.062v-.061h.03c.031 0 .031-.061.062-.091 0 .03-.03.09 0 .09h.03c0 .031.06.062.091.031l-.03-.03.03-.03c.03-.092-.06-.092-.06-.122s.09 0 .09-.092c0-.03 0-.03-.03-.06.03 0 .061 0 .061-.03-.06 0-.03-.062-.06-.092.03 0 .03-.03.03-.091-.03.03-.091.06-.091 0 0 0 0-.031-.061-.031-.092 0-.183 0-.366-.03.457.03.792-.03.792-.153ZM27.757 17.287c0-.03.03-.03.03-.03.03 0 .03 0 .03-.03 0-.031 0-.031-.03-.062.03 0 .03-.03.03-.03h-.03s0-.03.03-.03h.031l.091.06s.03 0 .03.03v.031s0-.03-.03-.03v.03c-.03 0-.06-.03-.06 0v.122c0 .03-.03.06-.061.03-.061-.03-.061-.06-.061-.091Zm.121-.243c-.03.03-.06.06-.09.03-.031-.03 0-.03-.031-.091l.121.06Zm.092.03s.091.03.122.06c-.061 0-.03.031-.092.031-.03 0-.03-.06-.03-.091Zm2.374.274c0-.091-.122-.152-.426-.152-.335 0-1.309.121-1.309-.061 0-.122.335-.061.578-.061 0 .03.03.03.061.06.426.122.852-.151 1.157-.06-.244-.213-.548.03-.853-.03.183 0 .366-.031.396-.092-.152.091-.548-.06-.73.03 0 0-.03 0-.03.031-.305 0-.67-.03-.67.152 0 .335 1.126.122 1.4.122s.334.03.334.091c0 .091-.273.091-.426.091-.243 0-1.308-.121-1.734 0 .03-.06.121-.182.09-.243.031-.03.062-.06.062-.091-.03-.03-.061-.03-.092-.03 0-.031 0-.031-.03-.061 0 0 0-.061-.03-.061s-.061-.03-.092-.061c-.06-.03-.091-.03-.091-.03h-.06c-.031 0-.062 0-.062.03-.03-.03-.03-.03-.06-.03-.031.03-.031.06 0 .121-.031 0-.092.091-.122.091 0 .03.03.03.03.03-.03.062-.03.122-.091.122 0 .03.03.03.03.03v.092h-.152c-.06 0-.091-.091-.183-.122-.06-.03-.06-.06-.06-.121s.03-.122.03-.152c0 0 0-.03-.03-.061 0-.03-.061-.061-.092-.061 0 0 .03.03.03.06l-.03.031s-.03.03 0 .061v.03c0-.03-.03-.09-.06-.09h-.031c0-.031-.061-.062-.091-.031 0 0 .03 0 .03.03v.03c0 .031.03.062.06.062v.03c-.06-.03-.09 0-.09.03v.03c-.03.031-.03.062 0 .092 0 0 0-.03.03-.03l.03.03h.091c-.06.06-.03.091.031.091 0 .092-.122.061-.122-.03-.06.091.061.183.153.122 0 .03 0 .03.03.03 0 0 0-.03.03-.03 0 .03 0 .06.031.06v-.03c.03 0 .091.122.213.183.03 0 .06 0 .06-.03 0 0 0 .03.031.03 0 .06.03.121.03.121h-.273c-.061.03-.213.092-.244.03 0-.03 0-.03-.03-.06 0-.03-.03-.03-.061-.03h-.03c-.03-.03-.092-.03-.092 0 .03 0 .03 0 .061.03 0 0 0 .03-.03.03 0 .03 0 .061.091.092h-.06c-.031-.03-.031-.061-.092-.03h-.03c-.031 0-.092.06-.092.09 0 0 .03-.03.061-.03v.03c0 .061.03.092.122.031-.03.03-.092.091-.03.122l.03.03c0 .061.06.091.091.091 0 0-.03-.03-.03-.09h.03c.06-.031.03-.062.06-.092 0 .03 0 .091.062.06.06 0 .091-.06.06-.09.031 0 .031.03.031.06l.03-.03c0 .03 0 .06-.03.091.03 0 .091-.03.091-.091l.03.03h.123v.061s0-.03.03-.03c0 0 0 .06.03.091 0-.152.183-.06.274-.122 0 .03-.03.03-.03.061.03 0 .091-.03.122-.06l.152-.062v-.03h.06c.092 0 .092-.06.122-.06.518.06.213-.214.853-.153.03 0 .03 0 .06-.03-.03.06-.03.152.03.182.031 0 .092.03.123.061-.03 0-.092 0-.092.03-.091.061-.091-.152-.213-.09 0 0-.03 0-.03.03-.03 0-.091.06-.091.09 0 0 .03-.03.06-.03v.03c0 .031 0 .031.03.031h.031c0 .03-.121-.03-.091.092 0 0 0 .03.03.03 0 .03.03.061.092.061l-.03-.03h.03v.06c0 .03.06.092.122.03 0 0-.061 0-.061-.03h.03v-.03h.06c0 .03.031.06.092.03s0-.09.061-.09h.183c0-.031 0-.123-.061-.153-.03-.03 0-.06-.03-.122.06.03.121.061.212.061.153 0 .183-.03.244-.06.06-.031.152-.031.183-.031.03 0 .03 0 .03.03-.03.091 0 .091 0 .122 0 .03-.091 0-.122 0-.03 0-.06.03-.06.03-.031 0-.092.03-.092.092 0 0 .03-.03.06-.03 0 .06.062.06.092.03 0 0 .03 0 0 0-.03.03-.091.06-.03.091h.03c0 .03.03.06.061.06v-.06h.03c.031 0 .031-.06.061-.091 0 .03-.03.091 0 .091h.03c0 .03.062.06.092.03 0 0-.03 0-.03-.03l.03-.03c.03-.092-.03-.092-.03-.122s.091 0 .091-.091c0 0 0-.03-.03-.061.03 0 .03 0 .06-.03-.06 0-.03-.031-.06-.092.03 0 .03-.03.03-.091-.03.03-.091.06-.091 0 0 0 0-.03-.061-.03-.091 0-.152 0-.365-.031.304-.122.639-.152.639-.274ZM32.413 19.448c0-.03.03-.03.03-.03.031 0 .031 0 .031-.031 0-.03 0-.03-.03-.061.03 0 .03-.03.03-.03h-.03s0-.03.03-.03h.03l.092.06s.03 0 .03.03v.03s0-.03-.03-.03-.03 0 0 .03c-.03 0-.061-.03-.061 0v.122c0 .031-.03.062-.061.031-.091-.03-.091-.06-.06-.091Zm.122-.244c-.03.03-.061.061-.091.03-.03-.03 0-.03-.03-.09.03 0 .09.06.12.06Zm.06.03s.092.031.123.062c-.061 0-.03.03-.092.03-.03 0-.03-.06-.03-.091Zm2.344.61s0-.031 0 0c.03-.031.03-.062.03-.092-.03.03-.09.061-.09 0 0 0 0-.03-.061-.03-.092 0-.183 0-.366-.03 0 0-.03 0 0 0 .183 0 .518-.031.518-.153 0-.091-.122-.152-.426-.152-.335 0-1.31.122-1.31-.061 0-.122.336-.06.58-.06 0 .03.03.03.06.03.426.121.883-.183 1.157-.122-.335-.122-.518.091-.853.03.183 0 .366-.03.396-.091-.152.091-.548-.06-.73.03 0 0-.03 0-.03.03-.305 0-.67-.03-.67.153 0 .335 1.126.122 1.4.122s.334.03.334.091c0 .091-.273.091-.426.091-.243 0-1.308-.152-1.734 0 .03-.06.121-.182.09-.243.031-.03.062-.061.062-.091-.03-.03-.061-.03-.092-.03 0-.031 0-.031-.03-.062 0 0 0-.06-.03-.06 0 0-.061-.031-.092-.061-.03-.03-.091-.03-.091-.03h-.061c-.03 0-.06 0-.06.03-.031-.03-.062-.03-.092-.03-.03.03-.03.06 0 .12-.03 0-.091.092-.122.092 0 .03.03.03.03.03-.03.061-.03.122-.09.122.03.03.03.061.06.061v.091l-.06-.03h-.122c-.061 0-.092-.091-.183-.152-.061-.03-.061-.061-.061-.122 0-.06.03-.091.03-.152 0 0 0-.03-.03-.06 0-.031-.06-.062-.091-.062 0 0 .03.03.03.061l-.03.03v.091c0-.03-.03-.09-.061-.09h-.03c0-.03-.031-.061-.092-.03 0 0 .03 0 .03.03v.03c0 .03.031.06.061.06v.031c-.06-.03-.09 0-.121.03v.031c-.03.03-.03.061.03.091 0 0 0-.03.03-.06h.122c-.06.06-.03.09.03.121 0 .092-.121.061-.121-.03-.06.091.06.183.152.122 0 .03 0 .03.03.03 0 0 0-.03.031-.03 0 .03 0 .06.03.06v-.03c.03 0 .092.122.213.213 0 0 .061-.03.092-.06 0 .03.03.06.03.06h.03c0 .061.062.122.062.122-.03 0-.153-.03-.183 0-.06.03-.213.091-.244.03 0-.03 0-.03-.03-.06 0-.031-.03-.031-.06-.031h-.031c-.03-.03-.092-.03-.092 0 .03 0 .03 0 .061.03v.03c0 .031 0 .062.092.092h-.061c-.03-.03-.03-.06-.092-.03h-.03c-.03 0-.091.06-.091.091 0 0 .03-.03.06-.03v.03c0 .06.031.091.122.03-.03.03-.091.092-.03.122l.03.03c0 .062.061.092.092.092 0 0-.03-.03-.03-.091h.03c.06-.03.03-.092.06-.092 0 .03 0 .092.061.061.061 0 .092-.06.061-.091.03 0 .03.03.03.06l.031-.03c0 .03 0 .061-.03.092.03 0 .091-.03.091-.092l.03.03h.122v.062s0-.03.03-.03c.031 0 0 .06.031.09 0-.152.091-.09.183-.152 0 .03-.03.03-.03.061.03.03.151-.06.151-.122 0 0 .061-.03.092-.03.091 0 .091-.06.121-.06.518.06.213-.214.853-.153.03 0 .03-.03.06-.06-.03.06-.03.182.03.182.031 0 .092.03.123.03-.03 0-.061 0-.092.03-.091.061-.091-.152-.213-.121l-.03.03c-.03 0-.092.061-.092.092 0 0 .031-.03.061-.03v.03c0 .03 0 .03.03.03h.031c0 .03-.122-.03-.091.091 0 0 0 .03.03.03 0 .031.03.062.092.031l-.03-.03h.03v-.03.06c0 .03.06.091.121.03-.03 0-.06 0-.06-.03h.03v-.03h.06c0 .03.031.03.092.03.061-.03 0-.091.061-.091h.183c0-.03 0-.122-.061-.152-.03-.03 0-.061-.03-.122.06.03.121.06.212.06.153 0 .183-.03.274-.06.092-.06.153-.03.183-.03s.03 0 .03.03c-.03.091 0 .091-.03.122 0 .03-.091 0-.122 0-.03 0-.03.03-.03.03-.03 0-.092.03-.092.091 0 0 .03-.03.061-.03v.03c0 .061.061.061.092.03 0 0 .03 0 0 0-.03.031-.092.062-.03.092h.03c0 .03 0 .061.03.061v-.06h.03c.03 0 .03-.062.061-.092 0 .03-.03.091 0 .091h.03c0 .03.031.061.092.03 0 0-.03 0-.03-.03l.03-.03c.03-.092-.03-.092-.03-.122s.091 0 .091-.091c0 0 0-.03-.03-.061.03 0 .03 0 .06-.03.03.06.061.03.061 0ZM32.596 20.757c-.03 0-.061-.061-.03-.092 0 0 .09.03.121.061-.06 0-.06.03-.091.03Zm-.061.06s0-.03-.03-.03 0 0 0 .03c-.03 0-.03-.03-.061 0v.122c0 .03-.03.061-.061.03-.03-.03-.03-.06-.03-.06 0-.03.03-.03.03-.03.03 0 .03 0 .03-.031 0-.03 0-.03-.03-.061.03 0 .03-.03.03-.03h-.03s0-.03.03-.03h.03l.092.03s.03 0 .03.03c-.03 0 0 .03-.03.03Zm-.06-.182c-.031.03-.062.06-.092.03s0-.03-.03-.091l.121.06Zm1.003.03c0 .03.03.03.061.061.396.122.852-.182 1.096-.122-.304-.121-.517.092-.822.03.183 0 .365-.03.365-.09-.121.09-.517-.061-.67.03 0 0-.03 0-.03.03-.213 0-.395 0-.395.153 0 .304.822.121 1.095.121.244 0 .214.03.214.092 0 .06-.305.09-.427.09-.213 0-.882-.12-1.308-.03.03-.06.121-.152.06-.213.031 0 .061-.03.061-.09-.03-.031-.06-.031-.06-.031 0-.03 0-.03-.03-.061 0 0 0-.03-.031-.061 0 0-.061-.03-.092-.06-.06-.031-.06-.031-.09-.031h-.062c-.03 0-.06 0-.06.03-.031-.03-.031-.03-.062-.03-.03.03-.03.06 0 .121-.03 0-.06.092-.121.092 0 .03.03.03.03.03-.03.061-.03.122-.091.122 0 .03.03.03.03.03 0 .03-.03.092-.03.122h-.061c-.06 0-.091 0-.152-.06-.061-.031-.061-.062-.061-.123 0-.06.03-.09.03-.152v-.06c0-.031-.06-.061-.09-.061 0 0 .03.03.03.06l-.03.03c0 .031-.031.031 0 .062v.03c0-.03-.031-.091-.062-.091h-.03c0-.03-.03-.061-.091-.03 0 0 .03 0 .03.03v.03c0 .03.03.061.06.061v.03c-.06-.03-.09 0-.09.031v.03c-.031.03-.031.061 0 .092v-.03l.03.03h.06l.031.03c-.06.03-.03.091.03.091v.03c0 .092-.121.062-.121-.03-.061.092.06.183.122.122 0 .03 0 .03.03.03 0 0 0-.03.03-.03 0 .03 0 .061.03.061v-.03c.031 0 0-.03.123.03 0 .03.03.03.03.03h.091v.153h-.182c-.061.03-.213.091-.244.03 0-.03 0-.03-.03-.06 0-.031-.03-.031-.061-.031h.091c-.03-.03-.06-.03-.091 0 .03 0 .03 0 .06.03v.03c0 .031 0 .062.092.092h-.06c-.031-.03-.031-.06-.092-.03h-.03c-.03 0-.092.06-.061.09 0 0 .03-.03.06-.03v.03c0 .062.031.092.122.031-.03.03-.091.092-.03.122h.03c0 .06.061.091.092.091 0 0-.03-.03-.03-.09h.03c.03-.031.03-.062.06-.092 0 .03 0 .06.061.06s.061-.06.061-.06c.03 0 .03.03.03.06l.031-.03c0 .03 0 .061-.03.091.03 0 .06-.03.091-.09l.03.03h.092v.06s0-.03.03-.03c0 0 0 .06.03.091 0-.121.122-.09.214-.152 0 .03-.03.03-.03.03.09.061.182-.06.212-.121l.03-.03s0 .03-.03.03c.092 0 .092-.061.122-.061.274.03.06-.213.487-.152.03 0 .091-.03.122-.061-.03.06-.03.183.03.183.03 0 .091.03.091.03-.03 0-.06 0-.09.03-.092.061-.092-.152-.183-.09 0 0-.03 0-.03.03-.031 0-.092.06-.092.09 0 0 .03-.03.06-.03v.03s0 .031.031.031h.03c0 .03-.121-.03-.09.092 0 0 0 .03.03.03 0 .03.03.06.06.03l-.03-.03h.03v.06c0 .031.061.062.092.031-.03 0-.061 0-.061-.03h.03v-.03h.061c0 .03.03.03.061.03.061-.03 0-.091.061-.091h.183c0-.03 0-.122-.061-.153-.03 0 0-.06-.03-.09.06.03.121.06.182.06.152 0 .213-.03.274-.06.091-.031.152-.031.182-.031s.03 0 .03.03c-.03.061 0 .091-.03.122-.03.03-.06 0-.121 0-.03 0-.061.03-.061.03-.03 0-.092.03-.092.092 0 0 .03-.03.061-.03v.03c0 .06.03.06.092.03 0 0 .03 0 0 0-.03.03-.092.06-.061.091h.03c0 .03 0 .061.03.061 0-.03 0-.03.031-.06h.03c.031 0 .031-.062.061-.092-.03.03-.03.091 0 .091h.03c0 .03.031.061.092.03l-.03-.03.03-.03c.03-.091-.03-.091-.03-.122 0-.03.091 0 .091-.091 0 0 0-.03-.03-.061.03 0 .03 0 .06-.03-.06 0-.03-.03-.03-.061.03 0 .03-.03.03-.092-.03.03-.09.061-.09 0 0 0 0-.03-.062-.03-.091 0-.243 0-.395-.03 0 0-.03 0 0 0 .182 0 .547-.03.547-.153 0-.09-.03-.152-.334-.152-.305 0-1.005.122-1.005-.06.122-.244.274-.244.426-.214ZM32.23 22.309c0-.03.03-.03.03-.03.031 0 .031 0 .031-.031 0-.03 0-.03-.03-.03.03 0 .03-.031.03-.031h-.03s0-.03.03-.03h.03l.092.03s.03 0 .03.03v.03s0-.03-.03-.03v.03c-.03 0-.03-.03-.061 0v.122c0 .03-.03.061-.06.03-.062-.03-.062-.06-.062-.09Zm.122-.244c-.03.03-.06.061-.06.03-.031-.03 0-.03-.031-.09 0 .03.06.06.091.06Zm.06.061s.092.03.123.03c-.061 0-.03.03-.061.03-.061 0-.061-.03-.061-.06Zm.731-.06c0 .03.03.03.061.06.396.122.852-.183 1.096-.122-.304-.122-.518.091-.822.03.183 0 .365-.03.365-.09-.121.09-.517-.061-.67.03l-.03.03c-.121.03-.213.091-.213.183 0 .274 1.005.06 1.005.152 0 .06-.213.122-.457.122-.213 0-.548-.122-1.004-.03.03-.062.122-.183.091-.244.03 0 .06-.03.06-.061-.03-.03-.06-.03-.06-.03 0-.03 0-.03-.03-.061 0 0 0-.03-.03-.061 0 0-.031-.03-.092-.061-.03-.03-.061-.03-.091-.03h-.061c-.03 0-.061 0-.061.03-.03-.03-.03-.03-.061-.03-.03.03-.03.06 0 .09-.03 0-.06.092-.091.092 0 .03.03.03.03.03-.03.061-.03.122-.06.122 0 .03.03.03.03.03-.03.092-.03.183-.03.244-.062-.06-.153-.213-.214-.243-.06-.03-.06-.061-.06-.122 0-.06.03-.091.03-.152v-.061c0-.03-.061-.06-.092-.06 0 0 .03.03.03.06l-.03.03s-.03.03 0 .061v.03c0-.03-.03-.09-.06-.09h-.03c0-.031-.031-.061-.092-.031 0 0 .03 0 .03.03v.03c0 .031.03.062.061.062v.03c-.06-.03-.091 0-.091.03v.031c-.03.03-.03.06 0 .091v-.03l.03.03h.061c-.03.03-.03.092.03.092 0 .09-.121.06-.121-.03-.061.09.06.182.122.12 0 0 0 .031.03.031 0 0 0-.03.03-.03 0 .03 0 .06.03.06v-.03s0 .122.123.183c.03.06.09.122.152.091.03.061.06.091.03.091h-.182c-.03.031-.092.031-.122.031s-.091 0-.091-.03 0-.03-.03-.061c0-.03-.031-.03-.031-.03h-.03c-.031-.031-.062-.031-.092 0 .03 0 .03 0 .06.03v.03c0 .03 0 .061.092.061h-.06c-.031-.03-.031-.06-.092-.03h-.03c-.03 0-.092.03-.061.09l.03-.03v.03c0 .031.03.092.122.031-.03.03-.091.061-.03.092h.03c0 .06.06.09.06.09s-.03-.03-.03-.06h.03c.031-.03.031-.06.031-.091 0 .03 0 .06.061.06.06 0 .06-.06.06-.06.031 0 .031.03.031.06l.03-.03c0 .03 0 .061-.03.091.03 0 .061-.03.092-.09l.03.03h.091v.06s0-.03.03-.03c0 0 0 .06.031.091 0-.121.091-.091.152-.121l-.03.03c.03 0 .122-.03.122-.091 0-.03.06-.061.06-.213h.031c.122 0 .152-.092.274-.092-.03.03-.03.092-.03.152 0 .061.09.122.09.153-.03 0-.06 0-.09.03-.092.061-.092-.122-.183-.091 0 0-.03 0-.03.03-.031 0-.092.03-.092.092 0 0 .03-.03.061-.03v.03c0 .03 0 .03.03.03h.03c0 .03-.12-.03-.09.091v.03c0 .031.03.062.06.031l-.03-.03h.03v-.03.06c0 .03.03.061.092.03 0 0-.061 0-.061-.03h.03v-.03h.061c0 .03.03.03.061.03.06-.03 0-.06.06-.091h.031c.061 0 .092.03.092 0s0-.122-.061-.152c-.03-.03.03-.213-.091-.305.06.03.304.061.334 0 .061.03.152.061.152.061v.03c-.06.031-.06.061-.09.061-.031-.03-.031-.06-.062-.06h-.06c-.031 0-.092 0-.092.03h.061v.03c-.03 0-.091 0-.091.031v.03c-.03.03-.03.061 0 .061 0-.03 0-.03.03-.03v.03c.03.03.061-.03.091-.03-.03 0-.06.03-.06.06v.031c0 .03 0 .061.03.091v-.06h.03c.061-.03.03-.092.061-.092.03-.03.061.03.122 0 0 0 .03-.03 0-.06 0 0 .03.03.06.03-.03-.03 0-.061.031-.091.03 0 .03 0 .061-.03-.03 0-.122-.031-.06-.062.06-.03.09-.06.06-.091-.06-.06-.152-.091-.152-.152h.091c.335 0 .548-.092.548-.213 0-.244-1.035.03-1.035-.152.366.06.426 0 .487-.03ZM16.556 4.23a.262.262 0 0 0-.243-.243.262.262 0 0 0-.244.244c0 .121.122.243.244.243a.24.24 0 0 0 .243-.243ZM16.465 3.56a.262.262 0 0 0-.244-.243.262.262 0 0 0-.243.244c0 .122.122.243.243.243.153 0 .244-.091.244-.243ZM16.617 3.256a.24.24 0 0 0 .244-.243.262.262 0 0 0-.244-.243.262.262 0 0 0-.243.243.24.24 0 0 0 .244.243ZM17.287 3.226a.24.24 0 0 0 .243-.244.262.262 0 0 0-.243-.243.262.262 0 0 0-.243.243.24.24 0 0 0 .243.244ZM20.087 2.77c.091.09.244.09.365 0a.239.239 0 0 0 0-.335c-.091-.092-.243-.092-.365 0-.091.06-.091.243 0 .334ZM20.057 2.222c.091-.092.091-.244 0-.365-.092-.092-.244-.092-.365 0-.092.09-.092.243 0 .365.09.122.243.122.365 0ZM19.387 2.13c.091-.09.091-.243 0-.365-.091-.091-.244-.091-.365 0-.092.092-.092.244 0 .365.121.092.274.092.365 0ZM18.809 2.557c.091-.092.091-.244 0-.366-.092-.091-.244-.091-.366 0-.09.092-.09.244 0 .366.122.09.274.09.366 0ZM17.226 2.191l.213.426.244-.304h.03c.03.152.03.396.03.548a.305.305 0 0 0 .61 0c0-.122-.062-.213-.183-.274a1.91 1.91 0 0 1-.366-.335v-.03l.426.03-.152-.456-.304.274h-.03l-.031-.457-.426.152.304.335s0 .03-.03.03l-.335.061Z"></path><path fill="#222222" d="M20.117 2.983c.092.152.122.213.153.334a.894.894 0 0 1-.244-.243l.061.578c.06-.091.122-.182.213-.213-.03.365-.183.517-.304.548a.253.253 0 0 1-.305-.183c-.03-.182.122-.274.274-.121.03-.335-.243-.335-.365-.183.152-.335.091-.548-.213-.73-.183.304-.122.517.122.76-.244-.121-.426.092-.244.335.03-.213.244-.182.274 0 .03.152-.122.335-.365.426-.365.122-.456-.121-.548-.304.091-.061.274-.03.457.091L18.9 3.5c-.091.213-.213.274-.335.335 0-.152.122-.487.122-.487l-.67.274s.305.152.427.274a.544.544 0 0 1-.487 0l.274.517c.06-.243.182-.365.273-.396.061.213.153.457-.182.609-.244.122-.457.091-.548-.06-.091-.153 0-.336.213-.214-.03-.335-.304-.335-.396-.091 0-.335-.09-.548-.426-.64-.091.335.03.549.366.67-.183-.03-.396.183-.122.396 0-.213.182-.244.274-.091.06.09.06.243-.092.334-.121.061-.334.061-.608-.182a.516.516 0 0 1 .304 0l-.365-.457a.54.54 0 0 1-.03.335c-.092-.091-.092-.152-.153-.335l-.274.244c.274.152.579.426.944.913.396-.244 1.096-.578 1.521-.761a9.959 9.959 0 0 1 1.614-.517c-.092-.61-.061-1.005.03-1.31l-.457.123ZM20.909 6.27c-.335.274-.822.03-1.005-.335a10.085 10.085 0 0 0 1.4-.64c-.365.518-.121.762-.395.975Zm-.091 3.59c-.457.184-.792-.212-.883-.456-.091-.274-.152-.487-.061-.578.183-.182.244-.335.122-.578-.122-.274-.426-.152-.73-.061.152-.274.152-.457-.031-.426-.244.03-.244.426-.365.365-.122-.03-.061-.274-.061-.396 0-.152.122-.213.274-.304l1.308-.487c.153-.06.274-.091.396.03.091.092.304.183.213.305-.06.122-.335-.152-.517 0-.152.122-.03.243.274.335-.274.152-.579.274-.487.548.091.243.213.304.487.304.152 0 .243.213.365.456.152.274.183.761-.305.944Zm-2.466-2.586c-.335.03-.335-.304-.943-.457.426-.09.974-.304 1.46-.487.092.396-.06.883-.517.944Zm7.213 11.504c.092-.274-.395-.578-.456-.943-.061-.396 0-.73-.457-1.248-.426-.487-1.917-2.1-2.374-2.587.122 0 .366-.06.64.183.152.152.486.456.76.73a7.72 7.72 0 0 1 1.583-2.526c.091-.091.183-.213.274-.304-.244.09-.64.152-.883.304-.03-.426.03-.791-.274-1.065.122-.609 0-1.34-1.339-2.252.7.182 1.126.79 1.644.304-.487 0-.487-1.065-2.222-1.917.67 0 1.187 1.065 1.948.456-.73-.091-.974-1.37-2.252-1.765.456.06.913.274 1.308-.244-.456.122-.73-.304-1.217-.334.183-.548.152-.913-.06-1.34-.336.03-.7.122-.944.335-.03-.304-.366-.335-.64-.304 0 .122.092.335-.06.365-.244.03-1.005.244-1.613.487-.61.244-1.279.67-1.492.791-.122.092-.213-.121-.304-.213-.213.183-.426.426-.274.64-.335.03-.7.121-1.004.365 0 .395.334.76.79.974-.79.79-.09 1.552-.79 2.221 1.004.03.821-1.339 1.339-1.552-.061.974-.609 1.157-.609 2.191 0 .548.335 1.157.03 1.553.822-.244.61-2.07 1.127-2.618.09.305.03.609-.061.944-.305.852.03 2.039-.426 2.404.852-.091.943-1.46 1.643-1.948-.609 1.218-1.217 3.835-2.1 5.144-1.46 1.947-2.313 4.352-3.622 4.352-.578 0-1.034-.365-1.034-1.096 0-2.221 3.804-3.743 3.804-6.117 0-1.065-.852-1.461-1.4-1.461-.365 0-.791.183-1.157.487a1.222 1.222 0 0 0-.456-.091c-1.34 0-1.004 2.434-2.161 2.404.457.274 1.278-.244 1.735-.913-.183 1.582-2.465 1.156-2.283 3.043.305-1.49 3.926-1.247 3.926-3.5 0-.243-.121-.456-.304-.639.274-.182.517-.243.76-.243.427 0 .823.335.823.943 0 1.979-3.805 3.652-3.805 6.087 0 .426.122.761.305 1.035-.274.122-.548.06-.761-.213-.03.64.882 1.035 1.43.7.122.03.244.06.396.091-.183.457-.761.609-1.065.579.943.73 2.556-.244 2.465-1.066.73-.608 1.217-1.613 1.735-2.282l-.092.456c-.548.974-1.065 1.887-1.187 3.165-.121 1.096-.67 2.07-1.43 2.07-.183 0-.457-.213-.578-.122-.244.213 0 .426 0 .609 0 .304-.61.609-.61 1.583 0 .426.244.943.153 1.217.244-.122.578-.548.7-1.065.274 1.278-.548 1.217.03 2.343.061-.365.457-.517.67-.365.213.152.122.274-.06.426-.183.152-.336 1.005.456.944-.152-.092-.152-.305.213-.396.517-.091.67.122 1.248.122.334 0 .456-.457.73-.457.274 0 .274.213.183.365.456-.121.517-.365.517-.608 0-.244-.213-.396-.06-.487.151-.092.669 0 .456.426.274-.061.395-.244.395-.548 0-.304-.365-.517-.73-.456-.061-.214-.365-.305-.64-.305-.608 0-.517.487-.943.487-.67 0-1.339-.883-1.339-2.374 0-.791.852-1.004 1.461-1.278.609-.274 1.674-.913 2.313-2.009.518-.852.518-1.765.457-2.86.852.486.974 1.186.974 1.704 0 .67-.335.943-.61 1.065-.243.122-.303.06-.334.213-.03.183.091.274.183.335.304.152.243.456.334.791.092.335.366.822.853 1.187.06-.213.03-.517 0-.944.67.335.121 1.644 1.4 1.644-.244-.122-.183-.487-.03-.517.12-.061.303.09.547.426.244.334.183.304.791.304.609 0 .335-.213.64-.213.334 0 .304.365.121.64.548-.153.7-.58.518-1.005.486-.244.73.122.79.365.457-.456 0-1.035-.364-1.065 0-.183-.152-.365-.335-.365-.183 0-.396-.03-.609 0-.213 0-.335.334-.608.334-.792 0-2.405-1.46-2.405-2.1 0-.639 1.522-1.004 1.522-1.978 0-1.278-1.248-1.704-2.313-2.526.365-.426 1.491-.517 2.1-.213.06-.365.304-.274.395-.883.213.548 0 1.005.213 1.248.183-.274.64-.213.61-.882.151.426-.183 1.065.151 1.339.061-.335.274-.396.396-.396s.244.091.244.304c0 .518-.64.274-.64.853 0 .243.305.334.305.486 0 .153-.244.396-.548.183.091.213.304.426.578.426.274 0 .578-.213.7-.517.152.365.03.76-.243.822.274.152.943 0 .852-.853.365.061.578.305.335.761.304-.06.578-.213.578-.548.183-.243-.091-.304.03-.639ZM50.126 24.895c0-.425.365-.79.791-.79.426 0 .792.364.792.79a.806.806 0 0 1-.792.792c-.426.03-.791-.335-.791-.792Zm-.274 0c0 .579.487 1.066 1.065 1.066s1.066-.487 1.066-1.066c0-.578-.487-1.065-1.066-1.065-.578 0-1.065.487-1.065 1.066ZM46.352 26.843c-.304-.06-.517-.273-.487-.517.03-.122.091-.183.152-.213.122-.091.305-.122.487-.091.274.06.487.243.487.456v.061c-.06.213-.334.365-.639.304Zm-.487-.943a.597.597 0 0 0-.274.396c-.03.182.03.365.152.547.122.153.335.244.548.305.213.03.426 0 .609-.092a.585.585 0 0 0 .335-.456c.06-.365-.244-.73-.7-.822-.244-.06-.487-.03-.67.122ZM39.9 11.474a.52.52 0 0 1 .213-.396c.122-.091.274-.152.396-.121.06 0 .152.03.213.121.06.061.06.152.06.213-.03.122-.09.274-.212.366-.213.152-.487.182-.61.03-.03-.091-.06-.152-.06-.213Zm.06-.609c-.334.274-.425.7-.212.974s.67.274 1.004.03c.183-.152.305-.334.335-.547.03-.152-.03-.305-.122-.426-.091-.122-.213-.183-.395-.213a.767.767 0 0 0-.61.182ZM45.013 25.322c-.121 0-.182-.061-.243-.122a.747.747 0 0 1-.152-.457.62.62 0 0 1 .182-.456c.061-.061.122-.122.244-.122.213 0 .395.274.395.578a.62.62 0 0 1-.182.457c-.03.06-.122.122-.244.122Zm-.395-1.218c-.153.152-.244.396-.274.64v.03c0 .243.091.487.243.639a.6.6 0 0 0 .426.183.6.6 0 0 0 .426-.183c.153-.152.244-.396.274-.64a.937.937 0 0 0-.182-.577.585.585 0 0 0-.487-.274.601.601 0 0 0-.426.182ZM39.565 16.496c-.274-.122-.426-.396-.334-.609a.409.409 0 0 1 .213-.183c.152-.06.304-.03.487.03a.88.88 0 0 1 .334.336c.03.06.03.182 0 .273a.57.57 0 0 1-.213.183.555.555 0 0 1-.487-.03Zm-.213-1.035c-.152.06-.304.182-.365.304-.152.335.03.791.457.974a.95.95 0 0 0 .7.061c.152-.06.304-.152.365-.304.06-.152.06-.305.03-.487-.06-.213-.243-.396-.487-.518-.243-.091-.487-.121-.7-.03Z"></path><path fill="#222222" d="M47.113 20.33c-.182.244-.487.335-.67.183-.182-.152-.212-.456-.03-.7.183-.243.487-.335.67-.213.213.183.213.487.03.73Zm-1.248 2.01c-.182.243-.486.334-.67.212-.182-.152-.212-.456-.03-.7.183-.243.487-.335.67-.213.183.122.213.426.03.7Zm-4.321-10.927c.152-.456.426-1.4.426-1.4l.487.183c-.152.06-.305.182-.457.335a.43.43 0 0 0 .426-.031l-.182.487a.544.544 0 0 0-.305-.274c-.091.396.153.548.335.64.304.151.487.182.578.03.092-.183-.09-.396-.365-.305-.03-.243.122-.395.274-.395.122 0 .244.121.274.274-.03-.427.183-.73.548-.853.152.396.03.67-.274.974.152-.06.335-.06.426.061.091.152.06.335-.152.457-.061-.274-.365-.274-.457-.122-.091.183.03.335.305.487.304.182.578.06.73-.213-.091-.03-.274 0-.456.091l.334-.609c.03.092.061.244.213.366.061-.122.122-.366.03-.579l.7.396c-.243.03-.395.213-.486.304a.56.56 0 0 0 .395 0l-.365.579c0-.213-.06-.365-.152-.426-.152.274-.122.547.183.73.274.152.487.183.578.03.091-.152-.06-.426-.335-.334 0-.244.152-.396.305-.365.121 0 .243.152.274.334.09-.395.273-.639.7-.73.09.396-.092.7-.457.913.152-.061.335-.03.396.091.09.152.03.335-.183.457-.03-.274-.335-.335-.426-.152-.091.152.03.304.335.487.182.121.426.243.7-.031-.092-.122-.305-.122-.396-.122l.335-.426c0 .152.091.335.182.396.061-.213.092-.426.061-.578l.396.334s-.67.7-.974 1.066l-4.504-2.557Zm5.235 5.965c0-.06.03-.182.09-.243a.486.486 0 0 1 .244-.091c.152 0 .305.09.426.213a.67.67 0 0 1 .183.456c0 .06-.03.152-.091.244a.487.487 0 0 1-.244.09c-.152 0-.304-.09-.426-.212a.801.801 0 0 1-.182-.457Zm1.917 8.826a.597.597 0 0 1 .274-.395c.152-.092.335-.152.487-.122.06.03.152.06.213.152.06.091.06.183.03.274a.597.597 0 0 1-.274.396c-.274.182-.578.152-.7-.03-.06-.122-.03-.214-.03-.275Zm-9.13-13.3c0 .153-.061.305-.153.366a.348.348 0 0 1-.213.09c-.182 0-.335-.212-.335-.456v-.03c0-.152.061-.304.153-.365a.348.348 0 0 1 .213-.092c.091 0 .152.061.182.092.122.091.152.243.152.395Zm2.83-5.813c.152-.274 0-.73.517-.73.244 0 .487.243.792.365-.487.03-.944.152-1.31.365Zm8.217 7.274c.335.944 1.035 1.309 1.583 1.066-1.187-.153-.213-2.161-1.735-2.161-.091 0-.182 0-.243.03-.274-.274-.548-.396-1.005-.396-.639 0-1.765.61-1.765 1.918 0 2.77 3.226 3.013 3.226 5.448 0 .73-.548 1.156-1.156 1.156-.548 0-.974-.609-1.43-1.552-.214-.457-.67-1.065-1.188-1.704a.92.92 0 0 0 .487.152c.183 0 .335-.061.457-.152a.601.601 0 0 0 .182-.427v-.03a.811.811 0 0 0-.274-.609c-.182-.182-.395-.304-.639-.304a.748.748 0 0 0-.456.152.601.601 0 0 0-.183.426v.03c0 .092.03.183.061.275-.7-.913-1.34-1.796-1.34-2.283 0-.426.305-.791.67-1.248.03 0 .122.061.122.061l.091-.122c.122-.152.396-.426.944-1.034l.03-.03.122-.153-.335-.274c.092-.213.183-.426.244-.67.122.457.335.73.639.64-.213-.457.213-1.066-.06-2.192.273.426.638.67.912.579-.7-.64.213-1.522-.7-2.861.304.091.517.03.64-.122-.853-.122-.457-1.187-1.949-1.583.366-.06.579-.274.518-.487-.396.274-.73-.517-2.009-.517-.091-.487-.517-.974-1.035-1.217.092.365 0 .7-.091.974l-4.2-4.11c-.122-.12-.183-.151-.213-.09-.03.03-.03.121.06.213l3.592 4.504c-.274.091-.548.213-.822.304a.468.468 0 0 0-.304.457c-.67.335-1.248.73-1.552 1.004-.213.213-.396.244-.213.7.06.183-.152.609.365.274.335-.213 1.126-.64 1.218-.365.06.152-.335.335-.579.426-.274.091-.548.304-.517.396.03.09.243 0 .274.09 0 .123.091.214.213.214.091 0 .243-.213.335-.152.09.06-.03.578-.122.7.396-.061.67-.426.67-.73 0-.305.09-.366.152-.427.06-.03.121.335.06.548.213-.03.426-.335.396-.852.122-.091.213-.152.304-.152.122 0 .396.365.792.365.7 0 1.095-.578 1.156-.852.03-.213.03-.426-.091-.579.243.214.335.518.335.761 0 1.005-1.796 1.492-2.526 2.192-.03.03-.061.06-.092.06l-.852-.334-.06.182s0 .03-.062.152c-.09.274-.273.883-.395 1.218l-.03.122.06.03c-.487.67-.882 1.4-.974 2.16-.213-.212-.395-.364-.608-.547.03-.06.03-.152.03-.243a.936.936 0 0 0-.183-.579.49.49 0 0 0-.395-.182c-.152 0-.305.03-.396.152-.03.03-.06.06-.06.091-.031-.03-.062-.06-.092-.06-.274-.214-.609-.457-.822-.7a.456.456 0 0 0-.365-.153h-.365c-.122 0-.183.091-.335.213-.06.061-.274.213-.487.366.091.09.213.213.304.334.061.061.092.122.153.183a.664.664 0 0 0 .152-.122.588.588 0 0 1 .304-.091c.122 0 .274.091.365.243.061.122.761 1.005 1.309 1.613-.06.03-.122.03-.183.061-.243.091-.79.091-1.034.061s-.274-.091-.457.183c-.06.091-.152.213-.213.304-.091.091-.152.213.03.487.244.426.853 1.522 1.066 2.009.213.487.456.578.821.73.396.152 1.066.548 1.127.64l.03-.366c-.122-.122-.487-.243-.64-.304-.151-.061-.182-.122 0-.122.153 0 .64.183.975.304-.092-.365-.457-.791-.67-1.004-.274-.091-.578-.091-.67 0 0 .091-.03.183-.152.183-.121 0-.182-.092-.152-.183.03-.122.213-.152.152-.365-.03-.213-.304-.244-.456-.274-.244-.335-.517-.852-.64-1.065-.121-.213-.06-.335.031-.396.213-.152.64.091 1.492.152.304.03.67.03 1.065.061.121.974.517 1.917 1.887 2.283.67.152 1.37.67 1.613 1.308-2.74-.06-3.196 1.035-3.196 2.04 0 1.156.974 1.095.974 1.947 0 .761-2.313 1.066-3.013 1.157-.578.091-.944.213-1.217.517-.274.274-.579.548-1.096 1.065 0 0 .213.061.426.03l.396-.517c.121-.182.182-.304.274-.304.09 0 .03.152-.061.335l-.335.548c1.37.091 1.43-.426 1.43-.609 0-.213-.334-.335-.152-.487.183-.122.365-.03.518.152.152.183.213.335.578.183 0 0 2.952-1.218 3.317-1.4.335-.152.244-.304.03-.457-.212-.182-.243-.487-.243-.791 0-.883.548-1.187 1.491-1.157-.03.153-.03.305-.03.427 0 1.4 2.1 2.77 2.678 2.77.244 0 .609-.183.609.638.03.609.152 1.066.03 1.766-.121.7-.304.821-.76 1.126-.427.304-.822 1.247-1.005 1.43.183.122.396.152.548-.304.122-.396.274-.64.457-.73-.153.425-.305 1.034-.366 1.217.548.09 1.4-.396 1.4-.792 0-.365-.304-.334-.304-.608 0-.122.122-.244.304-.244.213 0 .396.183.396.244.243-.122.396-.366.396-.913 0-.213 0-.457-.03-.67 0 .03.03.06.06.091.091.152.274.244.487.274.183.03.396-.03.578-.152.213-.152.365-.335.396-.578 0-.03.03-.091.03-.122a.613.613 0 0 0-.09-.335.927.927 0 0 0-.397-.274c-.213-.06-.456 0-.67.152a.958.958 0 0 0-.395.518c-.03-.761-.091-1.491-.091-1.765.03-.426.06-.609-.091-.67-.153-.06-.305.183-.518.183-.213 0-.822-.578-.822-1.187 0-.609.64-1.37.61-2.222 0-.243.151-.396.243-.152.121.274.304.67.578.974-.183 1.035.974 2.039 1.917 1.308-.456.061-.791-.334-1.004-.76.091 0 .152.03.243.03h.153c.334.396 1.37.365 1.643-.64-.183.214-.548.366-.822.336.396-.305.609-.822.609-1.34 0-2.647-3.196-2.952-3.196-5.326 0-.882.792-1.46 1.31-1.46.212 0 .364.06.486.152-.213.213-.304.517-.304.913.091 1.887 3.165 1.796 3.226 2.709.548-1.279-1.765-.853-1.857-2.679Z"></path></svg>