<svg xmlns="http://www.w3.org/2000/svg" width="2994" height="244" viewBox="0 0 2994 244">
<path fill="#ffffff" opacity="0.2" d="M124.84,0.5v40.69h-6.69V0.5H124.84z M140.18,1.89l6.58,1.21l-7.36,40.02l-6.58-1.21L140.18,1.89z M102.4,1.96
	l7.5,39.99l-6.57,1.23l0,0l0,0l-7.5-39.99L102.4,1.96z M161.99,7.37l6.24,2.39l-4.87,12.66l-9.74,25.33l0,0l0,0l-4.16-1.6l-2.08-0.8
	L161.99,7.37z M80.61,7.52l8.74,22.51l5.99,15.42l-1.97,0.76l-4.26,1.65l0,0l0,0L78.48,20.5L74.37,9.93L80.61,7.52z M182.42,16.77
	L182.42,16.77L182.42,16.77l5.7,3.5v0l-1.33,2.16l-20.02,32.49l0,0l0,0l-5.69-3.5v0l19.2-31.16L182.42,16.77z M60.21,16.98
	l21.47,34.58l-3.14,1.94L76,55.08L54.53,20.5v-0.01L60.21,16.98z M200.77,29.75l1.57,1.42l3.38,3.06l0,0l0,0l0,0l-27.37,30.14l0,0
	l-1.48-1.34l-3.47-3.15L200.77,29.75L200.77,29.75z M41.91,30.03l27.48,30.05l0,0l0,0l-4.94,4.5L49.06,47.75L36.97,34.53l0,0
	l1.65-1.5L41.91,30.03z M216.42,45.88L216.42,45.88l4.04,5.32l0,0l-11.47,8.69L188,75.8l-4.04-5.32l21.64-16.4L216.42,45.88z
	 M26.32,46.21l2.04,1.54l30.5,22.95l-4.03,5.33L22.3,51.55l0,0L26.32,46.21z M228.82,64.61l2.94,5.87l0.05,0.1L195.38,88.8l0,0
	l-2.99-5.97v-0.01L228.82,64.61z M13.98,64.98l36.5,18.09l-2.97,5.98L20.76,75.8l-9.75-4.83v0L13.98,64.98z M237.56,85.3
	L237.56,85.3l1.84,6.42l0,0l0,0l-33.57,9.61l-5.61,1.61l0,0l-1.84-6.42l0,0l19.59-5.61L237.56,85.3z M5.31,85.7l39.21,11.08
	l-1.82,6.42L3.49,92.13l0-0.01l0,0L5.31,85.7L5.31,85.7z M242.35,107.24l0.63,6.65l-38.4,3.62l-2.17,0.21h0l-0.38-3.99l-0.25-2.66
	L242.35,107.24z M0.61,107.66l40.58,3.69l-0.6,6.65L0,114.31L0.61,107.66z M202.41,126l40.59,3.69l-0.61,6.65l-40.58-3.69
	L202.41,126z M40.6,126.28l0.63,6.65l-40.57,3.83l-0.63-6.65L40.6,126.28z M200.3,140.79l11.08,3.13l28.13,7.95l0,0l0,0l-1.82,6.42
	l-39.22-11.08l0,0l0,0L200.3,140.79L200.3,140.79L200.3,140.79z M42.77,141.07l1.84,6.42l-26.95,7.71l-12.22,3.5l-1.84-6.42
	l25.19-7.21L42.77,141.07z M195.49,154.94l36.5,18.09l0,0l-2.97,5.98l-36.5-18.09l1.86-3.74L195.49,154.94z M47.63,155.2l3,5.97l0,0
	l0,0l-36.44,18.22l0,0l0,0l-2.99-5.97l0,0L47.63,155.2z M188.16,167.97l32.55,24.49l0,0l0,0l-4.03,5.33l-32.55-24.49L188.16,167.97z
	 M55,168.2l3.07,4.04l0.97,1.28l-32.46,24.6l0,0l0,0l-4.04-5.32l0,0L55,168.2z M178.55,179.43l27.48,30.05l-4.94,4.5l-27.48-30.04
	l0,0L178.55,179.43L178.55,179.43L178.55,179.43z M64.65,179.62l4.95,4.48l-27.37,30.14l-4.95-4.48L64.65,179.62z M166.99,188.92
	L166.99,188.92L166.99,188.92l15.56,25.05l5.92,9.53v0l-5.68,3.52l-10.9-17.55l-10.58-17.03L166.99,188.92z M76.24,189.08l5.7,3.5
	l-13.3,21.58l-5.9,9.58l-2.15,3.5l0,0l-3.87-2.38l-1.82-1.12l16.94-27.49L76.24,189.08L76.24,189.08z M153.89,196.14l6.46,16.64
	l8.27,21.3l0,0l0,0l-6.23,2.41l0,0l-14.74-37.93l0,0l0,0L153.89,196.14z M89.37,196.25l6.24,2.39l-14.6,37.98l0,0l0,0l-6.24-2.39
	l0,0l0,0L89.37,196.25z M139.67,200.82L139.67,200.82L139.67,200.82l4.51,24.04l2.99,15.96l0,0l0,0l-3.29,0.61l-3.29,0.61l-7.49-40
	L139.67,200.82z M103.6,200.88l6.58,1.21l-7.36,40.02h-0.01l-6.56-1.2L103.6,200.88z M124.84,202.81v40.69h-6.69v-40.69H124.84z
	 M396.5,109.34c-6.98,0-12.66,5.68-12.66,12.66c0,6.98,5.68,12.65,12.66,12.65s12.66-5.68,12.66-12.65
	C409.16,115.02,403.48,109.34,396.5,109.34z M396.5,101.06c11.54,0,20.94,9.39,20.94,20.94c0,11.54-9.39,20.93-20.94,20.93
	s-20.94-9.39-20.94-20.93C375.56,110.45,384.96,101.06,396.5,101.06z M396.5,89.23c-18.07,0-32.77,14.7-32.77,32.77
	c0,18.07,14.7,32.77,32.77,32.77s32.77-14.7,32.77-32.77C429.27,103.93,414.57,89.23,396.5,89.23z M396.5,80.95
	c22.63,0,41.05,18.41,41.05,41.05c0,22.63-18.41,41.05-41.05,41.05s-41.05-18.41-41.05-41.05C355.45,99.36,373.87,80.95,396.5,80.95
	z M396.5,69.12c-29.16,0-52.88,23.72-52.88,52.88c0,29.16,23.72,52.88,52.88,52.88s52.88-23.72,52.88-52.88
	C449.38,92.84,425.66,69.12,396.5,69.12z M396.5,60.84c33.73,0,61.16,27.44,61.16,61.16c0,33.72-27.44,61.16-61.16,61.16
	c-33.72,0-61.16-27.44-61.16-61.16C335.34,88.27,362.78,60.84,396.5,60.84z M396.5,49.01c-40.25,0-72.99,32.74-72.99,73
	c0,40.25,32.75,72.99,72.99,72.99s72.99-32.74,72.99-72.99C469.49,81.75,436.75,49.01,396.5,49.01z M396.5,40.72
	c44.82,0,81.27,36.46,81.27,81.28c0,44.81-36.46,81.27-81.27,81.27s-81.28-36.46-81.28-81.27C315.22,77.19,351.68,40.72,396.5,40.72
	z M396.5,28.89c-51.34,0-93.11,41.77-93.11,93.11s41.77,93.11,93.11,93.11s93.11-41.77,93.11-93.11S447.84,28.89,396.5,28.89z
	 M396.5,20.61c55.9,0,101.39,45.48,101.39,101.39S452.4,223.39,396.5,223.39S295.11,177.91,295.11,122S340.6,20.61,396.5,20.61z
	 M396.5,8.78c-62.43,0-113.22,50.79-113.22,113.22c0,62.43,50.79,113.22,113.22,113.22S509.72,184.43,509.72,122
	C509.72,59.57,458.93,8.78,396.5,8.78z M396.5,0.5C463.49,0.5,518,55,518,122c0,67-54.51,121.5-121.5,121.5S275,189,275,122
	C275,55,329.51,0.5,396.5,0.5z M641.73,10.9c2.69-0.72,5.45,0.87,6.17,3.56c0.72,2.69-0.88,5.45-3.56,6.17
	c-2.69,0.72-5.44-0.88-6.16-3.56C637.45,14.38,639.04,11.62,641.73,10.9z M695.1,14.46c0.72-2.69,3.48-4.28,6.17-3.56
	s4.28,3.48,3.56,6.16c-0.72,2.69-3.48,4.28-6.16,3.56C695.98,19.9,694.39,17.14,695.1,14.46z M671.5,0.5
	c6.36,0,11.51,5.15,11.51,11.51c0,6.36-5.15,11.51-11.51,11.51c-6.36,0-11.51-5.15-11.51-11.51C659.99,5.65,665.14,0.5,671.5,0.5z
	 M716.52,20.99c3.18-5.51,10.22-7.39,15.73-4.21c5.51,3.18,7.39,10.22,4.21,15.73c-3.18,5.5-10.22,7.39-15.72,4.21
	C715.23,33.54,713.34,26.5,716.52,20.99z M610.75,16.78c5.51-3.18,12.54-1.29,15.73,4.21c3.18,5.51,1.29,12.55-4.22,15.73
	c-5.5,3.18-12.55,1.29-15.72-4.21C603.36,27,605.24,19.96,610.75,16.78z M590.17,40.67c1.97-1.96,5.15-1.96,7.12,0
	c1.97,1.96,1.97,5.15,0,7.12c-1.97,1.96-5.15,1.96-7.12,0C588.2,45.82,588.2,42.63,590.17,40.67z M745.71,40.67
	c1.96-1.96,5.15-1.96,7.12,0c1.96,1.96,1.96,5.15,0,7.12c-1.97,1.96-5.15,1.96-7.12,0C743.75,45.82,743.75,42.63,745.71,40.67z
	 M760.99,57.03c5.51-3.18,12.55-1.29,15.73,4.21c3.18,5.51,1.29,12.55-4.21,15.73c-5.5,3.18-12.55,1.29-15.73-4.21
	C753.6,67.25,755.49,60.21,760.99,57.03z M566.28,61.25c3.18-5.5,10.22-7.39,15.73-4.21c5.51,3.18,7.39,10.22,4.21,15.73
	c-3.18,5.5-10.22,7.39-15.72,4.21C564.98,73.8,563.1,66.76,566.28,61.25z M560.4,92.23c0.72-2.69,3.48-4.28,6.16-3.56
	c2.69,0.72,4.28,3.48,3.56,6.17c-0.72,2.68-3.48,4.28-6.17,3.56C561.27,97.68,559.68,94.91,560.4,92.23z M776.44,88.67
	c2.69-0.72,5.45,0.87,6.17,3.56c0.72,2.69-0.88,5.45-3.56,6.17c-2.69,0.72-5.44-0.88-6.16-3.56
	C772.16,92.15,773.75,89.39,776.44,88.67z M781.49,110.49c6.36,0,11.51,5.15,11.51,11.51c0,6.36-5.15,11.51-11.51,11.51
	c-6.36,0-11.51-5.15-11.51-11.51C769.98,115.64,775.13,110.49,781.49,110.49z M561.51,110.49c6.36,0,11.51,5.15,11.51,11.51
	c0,6.36-5.15,11.51-11.51,11.51c-6.36,0-11.51-5.15-11.51-11.51C550,115.64,555.15,110.49,561.51,110.49z M563.96,145.6
	c2.69-0.72,5.45,0.88,6.17,3.56c0.72,2.68-0.88,5.45-3.56,6.16c-2.69,0.72-5.45-0.87-6.17-3.56
	C559.68,149.08,561.27,146.32,563.96,145.6z M772.88,149.16c0.72-2.68,3.48-4.28,6.17-3.56c2.68,0.72,4.28,3.48,3.56,6.16
	c-0.72,2.69-3.48,4.28-6.17,3.56C773.75,154.61,772.16,151.85,772.88,149.16z M570.49,167.02c5.51-3.18,12.54-1.29,15.73,4.21
	c3.18,5.51,1.29,12.55-4.22,15.73c-5.5,3.18-12.55,1.29-15.72-4.21C563.1,177.24,564.98,170.2,570.49,167.02z M756.78,171.24
	c3.18-5.51,10.22-7.39,15.73-4.21c5.51,3.18,7.39,10.22,4.21,15.73c-3.18,5.5-10.22,7.39-15.73,4.21
	C755.49,183.79,753.6,176.74,756.78,171.24z M745.71,196.21c1.96-1.96,5.15-1.96,7.12,0c1.96,1.96,1.96,5.15,0,7.12
	c-1.97,1.96-5.15,1.96-7.12,0C743.75,201.36,743.75,198.18,745.71,196.21z M590.17,196.21c1.97-1.96,5.15-1.96,7.12,0
	c1.97,1.96,1.97,5.15,0,7.12c-1.97,1.96-5.15,1.96-7.12,0C588.2,201.36,588.2,198.18,590.17,196.21z M606.53,211.49
	c3.18-5.5,10.22-7.39,15.73-4.21c5.51,3.18,7.39,10.22,4.21,15.73c-3.18,5.51-10.22,7.39-15.72,4.21
	C605.24,224.04,603.36,217,606.53,211.49z M720.74,207.28c5.51-3.18,12.55-1.29,15.73,4.21c3.18,5.51,1.29,12.55-4.22,15.73
	c-5.5,3.18-12.54,1.29-15.72-4.21C713.34,217.5,715.23,210.46,720.74,207.28z M698.66,223.38c2.69-0.72,5.44,0.87,6.17,3.56
	c0.72,2.69-0.88,5.45-3.56,6.17c-2.69,0.72-5.45-0.88-6.16-3.56C694.39,226.86,695.98,224.09,698.66,223.38z M638.17,226.93
	c0.72-2.69,3.48-4.28,6.17-3.56c2.69,0.72,4.28,3.48,3.56,6.16c-0.72,2.69-3.48,4.28-6.17,3.56
	C639.05,232.38,637.45,229.62,638.17,226.93z M671.5,220.47c6.36,0,11.51,5.15,11.51,11.51c0,6.36-5.15,11.51-11.51,11.51
	c-6.36,0-11.51-5.15-11.51-11.51C659.99,225.63,665.14,220.47,671.5,220.47z M1036.26,40.13c1.01,1.12,2.01,2.24,2.97,3.43l25,48.6
	c0.42,1.47,0.78,2.93,1.07,4.42L1036.26,40.13z M1017.12,23.18c0.66,0.44,1.25,0.85,1.89,1.34l48.96,95.17
	c0.03,0.8,0.04,1.57,0.01,2.36L1017.12,23.18z M1003.35,14.69c0.56,0.24,1.1,0.54,1.64,0.84l62.16,120.82
	c-0.09,0.58-0.16,1.19-0.27,1.82L1003.35,14.69z M990.96,8.97c0.54,0.2,1.02,0.39,1.52,0.61l72.22,140.38
	c-0.11,0.54-0.22,1.07-0.39,1.6L990.96,8.97z M979.53,5.11c0.48,0.09,0.94,0.24,1.43,0.42l80.34,156.16
	c-0.13,0.5-0.28,0.96-0.48,1.41L979.53,5.11z M968.84,2.61c0.42,0.07,0.89,0.12,1.35,0.27l87,169.12c-0.15,0.46-0.37,0.87-0.56,1.25
	L968.84,2.61z M958.65,1.15c0.38,0,0.84,0.05,1.27,0.12l92.61,180.02c-0.19,0.38-0.41,0.79-0.64,1.1L958.65,1.15z M948.86,0.5
	c0.4,0.03,0.82,0.01,1.24,0.08l97.28,189.09c-0.19,0.38-0.45,0.72-0.66,1.06L948.86,0.5z M939.59,0.74c0.38-0.1,0.77-0.11,1.17-0.07
	l101.12,196.56c-0.2,0.35-0.43,0.66-0.74,0.91L939.59,0.74z M827.67,147.46l29.04,56.45c-1.04-1.1-2.02-2.24-2.97-3.43l-25-48.6
	C828.32,150.41,827.99,148.94,827.67,147.46z M931.68,1.39l104.34,202.81c-0.25,0.27-0.49,0.54-0.8,0.8L930.57,1.57
	C930.95,1.47,931.31,1.43,931.68,1.39z M922.97,2.83l106.81,207.62c-0.25,0.27-0.5,0.54-0.8,0.79L921.87,3.02
	C922.25,2.91,922.61,2.87,922.97,2.83z M914.58,4.79l108.74,211.35c-0.27,0.23-0.57,0.49-0.86,0.68L913.53,5.09
	C913.86,4.97,914.23,4.87,914.58,4.79z M825,124.01l49.26,95.75c-0.68-0.47-1.31-0.96-1.97-1.49l-47.22-91.78
	C825.02,125.64,824.99,124.83,825,124.01z M906.45,7.33l110.06,213.94c-0.27,0.23-0.55,0.43-0.9,0.6L905.43,7.71
	C905.77,7.54,906.1,7.42,906.45,7.33z M898.58,10.42l110.85,215.47c-0.27,0.23-0.61,0.41-0.91,0.57L897.59,10.83
	C897.9,10.67,898.24,10.5,898.58,10.42z M825.88,107.36l62.44,121.36c-0.6-0.32-1.14-0.62-1.7-0.96L825.68,109.3
	C825.69,108.66,825.77,107.99,825.88,107.36z M890.99,13.94l111.17,216.07c-0.04,0.02-0.04,0.02-0.08,0.04
	c-0.3,0.16-0.57,0.29-0.9,0.41l-111.12-216c0.28-0.2,0.55-0.33,0.86-0.49C890.96,13.95,890.96,13.95,890.99,13.94z M883.68,18.09
	l110.84,215.46c-0.28,0.19-0.65,0.33-0.99,0.41L882.77,18.65C883.03,18.42,883.36,18.21,883.68,18.09z M828.33,93.76l72.46,140.83
	c-0.54-0.21-1.03-0.39-1.52-0.62L827.95,95.35C828.06,94.81,828.19,94.31,828.33,93.76z M876.64,22.67l110.06,213.94
	c-0.31,0.16-0.67,0.3-1.01,0.38L875.75,23.27C876.01,23.04,876.34,22.83,876.64,22.67z M831.75,82.12l80.49,156.46
	c-0.5-0.13-0.96-0.27-1.42-0.42L831.26,83.52C831.41,83.06,831.56,82.6,831.75,82.12z M869.82,27.77L978.59,239.2
	c-0.36,0.14-0.7,0.22-1.07,0.26L868.98,28.49C869.23,28.22,869.5,27.99,869.82,27.77z M835.88,71.8l87.16,169.42
	c-0.42-0.07-0.88-0.12-1.32-0.23L835.3,73.01C835.47,72.59,835.69,72.18,835.88,71.8z M863.29,33.45l106.88,207.77
	c-0.38,0.1-0.75,0.14-1.11,0.19L862.49,34.24C862.74,33.97,862.99,33.7,863.29,33.45z M857.09,39.67l104.42,202.96
	c-0.36,0.04-0.76,0.11-1.15,0.11L856.34,40.54C856.56,40.23,856.85,39.94,857.09,39.67z M840.57,62.54l92.73,180.25
	c-0.44-0.02-0.84-0.05-1.27-0.12l-92.1-179.03C840.12,63.26,840.32,62.91,840.57,62.54z M851.21,46.6l101.24,196.79
	c-0.4,0.06-0.78,0.07-1.19,0.03L850.5,47.55C850.7,47.2,850.93,46.89,851.21,46.6z M845.67,54.18l97.4,189.32
	c-0.41-0.03-0.83-0.01-1.25-0.08L845.01,55.24C845.19,54.86,845.46,54.53,845.67,54.18z M1250.25,10.64l2.03,0.54l-6.85,25.56
	l-2.02-0.54L1250.25,10.64z M1192.75,10.64l6.85,25.56l-2.03,0.54l-6.85-25.56L1192.75,10.64z M1224.12,0.5v39.46h-5.24V0.5H1224.12
	z M1163.02,15.47l19.73,34.17l-4.54,2.62l-19.73-34.17L1163.02,15.47z M1279.98,15.47l4.54,2.62l-19.73,34.17l-4.54-2.62
	L1279.98,15.47z M1140.92,39.94l18.71,18.71l-1.48,1.48l-18.72-18.71L1140.92,39.94z M1302.08,39.94l1.48,1.48l-18.71,18.71
	l-1.48-1.48L1302.08,39.94z M1117.59,58.98l34.17,19.73l-2.62,4.54l-34.17-19.73L1117.59,58.98z M1325.41,58.98l2.62,4.54
	l-34.17,19.73l-2.62-4.54L1325.41,58.98z M1110.69,91.22l25.56,6.85l-0.54,2.02l-25.57-6.85L1110.69,91.22z M1332.32,91.22
	l0.54,2.02l-25.57,6.85l-0.54-2.02L1332.32,91.22z M1343,119.38v5.24h-39.46v-5.24H1343z M1139.46,119.38v5.24H1100v-5.24H1139.46z
	 M1307.29,143.9l25.57,6.85l-0.54,2.02l-25.57-6.85L1307.29,143.9z M1135.71,143.9l0.54,2.02l-25.56,6.85l-0.54-2.03L1135.71,143.9z
	 M1149.14,160.75l2.62,4.54l-34.17,19.73l-2.62-4.54L1149.14,160.75z M1293.86,160.75l34.17,19.73l-2.62,4.54l-34.17-19.73
	L1293.86,160.75z M1158.15,183.86l1.48,1.48l-18.71,18.71l-1.48-1.48L1158.15,183.86z M1284.85,183.86l18.71,18.71l-1.48,1.48
	l-18.72-18.71L1284.85,183.86z M1264.79,191.74l19.73,34.17l-4.54,2.62l-19.73-34.17L1264.79,191.74z M1178.21,191.74l4.54,2.62
	l-19.73,34.18l-4.54-2.62L1178.21,191.74z M1245.43,207.25l6.85,25.56l-2.03,0.54l-6.85-25.56L1245.43,207.25z M1197.57,207.25
	l2.03,0.54l-6.85,25.56l-2.03-0.54L1197.57,207.25z M1224.12,204.04v39.46h-5.24v-39.46H1224.12z M1582.71,38.33
	c2.01,0,3.64,1.65,3.64,3.68v28.97l24.9,14.49c1.74,1.01,2.34,3.26,1.34,5.02c-0.67,1.18-1.9,1.84-3.16,1.84
	c-0.61,0-1.24-0.16-1.81-0.49l-28.54-16.61V42C1579.07,39.98,1580.7,38.33,1582.71,38.33z M1410.07,38.45
	c2.01,0,3.64,1.64,3.64,3.67l0.04,33.25l-28.52,16.64c-0.57,0.33-1.2,0.49-1.81,0.49c-1.26,0-2.48-0.66-3.15-1.84
	c-1.01-1.76-0.41-4.01,1.33-5.02l24.88-14.51l-0.03-28.99C1406.43,40.1,1408.06,38.45,1410.07,38.45L1410.07,38.45z M1561.14,19.98
	c2.01,0,3.64,1.65,3.64,3.68v60.02l51.4,29.9c1.74,1.01,2.34,3.26,1.34,5.02c-0.67,1.18-1.9,1.84-3.16,1.84
	c-0.62,0-1.24-0.16-1.81-0.49l-55.04-32.02V23.66C1557.5,21.63,1559.13,19.98,1561.14,19.98z M1431.7,20.01
	c2.01,0,3.64,1.64,3.64,3.67l0.08,64.2l-54.96,32.06c-0.57,0.33-1.2,0.49-1.82,0.49c-1.26,0-2.48-0.66-3.15-1.84
	c-1.01-1.76-0.41-4,1.33-5.02l51.32-29.94l-0.07-59.95C1428.06,21.66,1429.69,20.02,1431.7,20.01L1431.7,20.01z M1539.58,8.71
	c2.01,0,3.64,1.65,3.64,3.68v83.84l71.86,41.81c1.74,1.01,2.34,3.26,1.34,5.02c-0.67,1.18-1.9,1.84-3.16,1.84
	c-0.61,0-1.24-0.16-1.81-0.49l-75.5-43.93V12.39C1535.94,10.36,1537.57,8.71,1539.58,8.71z M1453.21,8.75
	c2.01,0,3.64,1.64,3.64,3.67l0.11,88.07l-75.48,44.04c-0.57,0.33-1.2,0.49-1.82,0.49c-1.26,0-2.48-0.66-3.15-1.84
	c-1.01-1.76-0.41-4.01,1.33-5.02l71.84-41.91l-0.1-83.81C1449.57,10.4,1451.2,8.75,1453.21,8.75L1453.21,8.75z M1475.24,2.42
	c2.01,0.01,3.63,1.66,3.63,3.69l-0.36,106.96l-91.61,53.45c-0.57,0.34-1.2,0.49-1.82,0.49c-1.26,0-2.48-0.66-3.16-1.84
	c-1-1.76-0.41-4.01,1.33-5.02l87.99-51.33l0.34-102.74c0.01-2.02,1.64-3.66,3.64-3.66H1475.24z M1518.01,2.48
	c2.01,0,3.64,1.65,3.64,3.68v102.66l87.88,51.67c1.74,1.02,2.33,3.27,1.32,5.03c-0.68,1.17-1.9,1.82-3.15,1.82
	c-0.62,0-1.25-0.16-1.83-0.5l-91.5-53.8V6.16C1514.37,4.13,1516,2.48,1518.01,2.48z M1496.45,0.5c2.01,0,3.64,1.65,3.64,3.68V121.4
	l100.48,58.61c1.74,1.02,2.34,3.26,1.33,5.02c-1.01,1.76-3.23,2.36-4.97,1.35l-100.47-58.61l-100.47,58.62
	c-0.57,0.33-1.2,0.49-1.81,0.49c-1.26,0-2.48-0.66-3.16-1.83c-1-1.76-0.41-4.01,1.33-5.03l100.47-58.62V4.18
	C1492.81,2.15,1494.44,0.5,1496.45,0.5z M1496.45,144.45l91.58,53.43c1.74,1.02,2.34,3.26,1.33,5.02c-0.67,1.18-1.9,1.84-3.16,1.84
	c-0.62,0-1.24-0.16-1.82-0.49l-87.96-51.32l-88.19,51.05c-1.74,1.01-3.97,0.4-4.96-1.36c-1-1.76-0.4-4,1.35-5.01L1496.45,144.45z
	 M1496.44,169.61l75.46,44.03c1.74,1.02,2.34,3.26,1.33,5.03c-1,1.76-3.23,2.36-4.97,1.34l-71.82-41.9l-71.74,41.97
	c-0.57,0.34-1.2,0.49-1.82,0.49c-1.26,0-2.48-0.65-3.15-1.83c-1.01-1.76-0.41-4,1.32-5.02L1496.44,169.61z M1496.42,194.75
	l55.08,32.14c1.74,1.01,2.34,3.26,1.33,5.02c-1,1.76-3.23,2.36-4.97,1.35l-51.44-30.01l-51.34,30.03c-0.57,0.34-1.2,0.5-1.82,0.5
	c-1.26,0-2.48-0.66-3.15-1.83c-1.01-1.76-0.41-4.01,1.32-5.03L1496.42,194.75z M1496.52,219.98l28.49,16.63
	c1.74,1.01,2.34,3.26,1.33,5.02c-1.01,1.76-3.23,2.36-4.97,1.34l-24.85-14.5L1471.68,243c-0.57,0.34-1.2,0.5-1.82,0.5
	c-1.26,0-2.48-0.66-3.15-1.84c-1.01-1.76-0.41-4.01,1.33-5.02L1496.52,219.98z M1891.44,115.37l-4.78-8.53l2.41-9.48
	c1.05-4.13-0.46-9.76-3.43-12.81l-6.83-7l-0.12-9.78c-0.05-4.26-2.96-9.31-6.63-11.48l-8.41-4.99l-2.65-9.41
	c-1.15-4.1-5.28-8.22-9.38-9.38l-9.41-2.65l-4.99-8.41c-2.18-3.67-7.22-6.58-11.48-6.63l-9.78-0.12l-7-6.83
	c-3.06-2.98-8.69-4.49-12.81-3.43l-9.47,2.41l-8.53-4.78c-3.72-2.09-9.54-2.09-13.26,0l-8.53,4.78l-9.48-2.41
	c-4.13-1.06-9.76,0.45-12.81,3.43l-7,6.83l-9.77,0.12c-4.27,0.05-9.31,2.96-11.49,6.63l-4.99,8.41l-9.41,2.65
	c-4.1,1.16-8.22,5.28-9.38,9.38l-2.65,9.41l-8.41,4.99c-3.67,2.18-6.58,7.22-6.63,11.48l-0.12,9.78l-6.83,7
	c-2.98,3.05-4.49,8.68-3.43,12.81l2.41,9.47l-4.79,8.53c-2.09,3.72-2.09,9.55,0,13.26l4.79,8.53l-2.41,9.47
	c-1.05,4.13,0.45,9.76,3.43,12.81l6.83,7l0.12,9.78c0.05,4.27,2.96,9.31,6.63,11.49l8.41,4.99l2.65,9.41
	c1.15,4.11,5.27,8.22,9.38,9.38l9.41,2.65l4.99,8.41c2.18,3.67,7.22,6.58,11.49,6.63l9.77,0.12l7,6.83
	c3.05,2.97,8.68,4.48,12.81,3.43l9.48-2.41l8.53,4.78c1.86,1.04,4.24,1.56,6.63,1.56c2.38,0,4.77-0.52,6.63-1.56l8.53-4.78
	l9.48,2.41c0.89,0.23,1.85,0.34,2.83,0.34c3.6,0,7.58-1.43,9.98-3.77l7-6.83l9.78-0.12c4.26-0.05,9.3-2.96,11.48-6.63l4.99-8.41
	l9.41-2.65c4.1-1.15,8.23-5.27,9.38-9.38l2.65-9.41l8.41-5c3.67-2.18,6.58-7.22,6.63-11.49l0.12-9.78l6.83-7
	c2.97-3.05,4.48-8.68,3.43-12.81l-2.41-9.48l4.78-8.53C1893.52,124.91,1893.52,119.09,1891.44,115.37z M1883.32,86.8
	c2.2,2.25,3.4,6.72,2.62,9.77l-1.58,6.19l-2.29-4.08c-1.67-2.97-3.11-8.37-3.15-11.77l-0.06-4.68L1883.32,86.8z M1840.09,211.39
	l-7.77,2.18c-0.05,0.01-0.11,0.04-0.15,0.05c0.04-0.07,0.1-0.14,0.14-0.22l4.54-7.64l7.97-2.24c-0.21,0.31-0.43,0.63-0.61,0.93
	L1840.09,211.39z M1698.79,204.45c-0.28-0.46-0.6-0.95-0.96-1.44c0.33,0.13,0.65,0.25,0.98,0.35l8.56,2.41l4.54,7.64
	c0.15,0.26,0.33,0.51,0.51,0.76c-0.6-0.23-1.19-0.44-1.75-0.59l-7.77-2.18L1698.79,204.45z M1876.62,98.1l-1.36,5.33l-1.92-3.43
	c-1.52-2.7-2.83-7.6-2.86-10.7l-0.05-3.93l3.84,3.93C1876.24,91.33,1877.32,95.36,1876.62,98.1z M1875.43,126.93
	c-0.77-3-0.77-8.08,0-11.08l0.97-3.81l2.69,4.8c1.38,2.47,1.38,6.64,0,9.11l-2.69,4.79L1875.43,126.93z M1872.31,127.72l1.8,7.09
	l-3.58,6.39c-1.79,3.2-3.23,8.57-3.27,12.23l-0.09,7.32l-5.11,5.24c-2.56,2.63-5.34,7.44-6.33,10.97l-1.98,7.05l-6.29,3.74
	c-3.15,1.87-7.08,5.81-8.96,8.96l-3.74,6.29l-7.05,1.98c-3.53,0.99-8.35,3.77-10.97,6.33l-5.24,5.11l-7.32,0.09
	c-3.67,0.04-9.04,1.48-12.24,3.28l-6.39,3.58l-7.09-1.8c-3.55-0.91-9.12-0.91-12.67,0l-7.09,1.8l-6.39-3.58
	c-3.2-1.79-8.57-3.24-12.24-3.28l-7.32-0.09l-5.24-5.11c-2.63-2.56-7.45-5.34-10.97-6.33l-7.05-1.98l-3.74-6.29
	c-1.87-3.15-5.81-7.09-8.96-8.96l-6.29-3.74l-1.99-7.05c-0.99-3.53-3.78-8.35-6.33-10.97l-5.11-5.24l-0.09-7.32
	c-0.04-3.66-1.48-9.04-3.27-12.23l-3.59-6.39l1.81-7.09c0.91-3.55,0.91-9.12,0-12.67l-1.8-7.1l3.58-6.39
	c1.79-3.2,3.23-8.57,3.27-12.24l0.09-7.32l5.11-5.24c2.56-2.62,5.34-7.44,6.34-10.97l1.99-7.05l6.29-3.74
	c3.15-1.87,7.09-5.81,8.96-8.96l3.74-6.29l7.05-1.98c3.53-0.99,8.34-3.77,10.97-6.34l5.24-5.11l7.32-0.09
	c3.67-0.04,9.04-1.48,12.24-3.28l6.39-3.58l7.09,1.81c3.55,0.91,9.12,0.91,12.67,0l7.09-1.81l6.39,3.58
	c3.2,1.79,8.57,3.23,12.24,3.28l7.32,0.09l5.24,5.11c2.62,2.56,7.44,5.34,10.97,6.34l7.05,1.98l3.74,6.29
	c1.88,3.15,5.81,7.09,8.96,8.96l6.29,3.74l1.98,7.05c0.99,3.53,3.78,8.35,6.33,10.97l5.11,5.24l0.09,7.32
	c0.04,3.66,1.48,9.04,3.27,12.24l3.58,6.39l-1.8,7.1C1871.4,118.61,1871.4,124.17,1872.31,127.72z M1876.62,144.68
	c0.7,2.74-0.38,6.78-2.36,8.8l-3.84,3.94l0.05-3.93c0.03-3.1,1.35-8,2.86-10.7l1.92-3.43L1876.62,144.68z M1867.04,170.93
	c-0.04,2.83-2.12,6.44-4.56,7.89l-4.73,2.81l1.07-3.79c0.84-2.98,3.38-7.37,5.54-9.59l2.74-2.81L1867.04,170.93z M1850.98,193.81
	c-0.77,2.72-3.72,5.67-6.44,6.44l-5.29,1.49l2.01-3.38c1.59-2.67,5.17-6.25,7.83-7.83l3.38-2.01L1850.98,193.81z M1821.66,216.31
	l-5.5,0.07l2.82-2.75c2.22-2.16,6.61-4.7,9.59-5.54l3.79-1.07l-2.81,4.73C1828.1,214.19,1824.49,216.28,1821.66,216.31z
	 M1795.4,225.9l-5.33-1.36l3.43-1.92c2.7-1.52,7.6-2.83,10.71-2.87l3.93-0.05l-3.94,3.84C1802.18,225.52,1798.14,226.6,1795.4,225.9
	z M1767.56,228.37l-4.8-2.69l3.81-0.97c3.01-0.76,8.08-0.76,11.08,0l3.81,0.97l-4.8,2.69
	C1774.2,229.75,1770.03,229.75,1767.56,228.37z M1740.03,223.54l-3.94-3.84l3.93,0.05c3.1,0.04,8,1.35,10.7,2.87l3.43,1.92
	l-5.33,1.36C1746.08,226.6,1742.05,225.52,1740.03,223.54z M1714.68,211.76l-2.81-4.73l3.79,1.07c2.98,0.83,7.37,3.37,9.59,5.54
	l2.81,2.75l-5.5-0.07C1719.74,216.28,1716.12,214.19,1714.68,211.76z M1693.25,193.81l-1.49-5.3l3.38,2.01
	c2.67,1.58,6.25,5.17,7.83,7.83l2.01,3.38l-5.3-1.49C1696.97,199.49,1694.02,196.54,1693.25,193.81z M1686.47,181.63l-4.73-2.81
	c-2.43-1.45-4.52-5.06-4.55-7.89l-0.07-5.5l2.75,2.81c2.16,2.22,4.7,6.61,5.54,9.59L1686.47,181.63z M1667.6,144.68l1.36-5.33
	l1.92,3.43c1.52,2.7,2.83,7.6,2.87,10.7l0.05,3.93l-3.84-3.93C1667.98,151.45,1666.9,147.42,1667.6,144.68z M1668.8,115.85
	c0.76,3,0.76,8.08,0,11.08l-0.97,3.81l-2.69-4.8c-1.38-2.47-1.38-6.64,0-9.11l2.69-4.8L1668.8,115.85z M1667.6,98.1
	c-0.7-2.74,0.38-6.77,2.36-8.8l3.84-3.94l-0.05,3.93c-0.03,3.1-1.35,8-2.87,10.7l-1.92,3.43L1667.6,98.1z M1677.12,77.34l0.07-5.5
	c0.03-2.83,2.12-6.44,4.55-7.89l4.73-2.81l-1.07,3.79c-0.84,2.98-3.38,7.38-5.54,9.59L1677.12,77.34z M1699.69,42.52l5.3-1.49
	l-2.01,3.38c-1.58,2.66-5.17,6.25-7.83,7.83l-3.38,2.01l1.49-5.29C1694.02,46.24,1696.97,43.29,1699.69,42.52z M1722.57,26.46
	l5.5-0.07l-2.81,2.75c-2.22,2.16-6.61,4.7-9.59,5.54l-3.79,1.07l2.81-4.73C1716.12,28.59,1719.74,26.5,1722.57,26.46z
	 M1746.98,16.66c0.65,0,1.27,0.07,1.84,0.21l5.33,1.36l-3.43,1.92c-2.7,1.52-7.6,2.83-10.7,2.87l-3.93,0.05l3.94-3.84
	C1741.63,17.67,1744.5,16.66,1746.98,16.66z M1767.56,14.41c1.23-0.69,2.9-1.04,4.56-1.04c1.66,0,3.32,0.35,4.56,1.04l4.79,2.69
	l-3.81,0.97c-3.01,0.76-8.08,0.76-11.08,0l-3.81-0.97L1767.56,14.41L1767.56,14.41z M1795.4,16.88c2.74-0.7,6.78,0.38,8.8,2.35
	l3.94,3.84l-3.93-0.05c-3.1-0.04-8-1.35-10.71-2.87l-3.43-1.92L1795.4,16.88z M1821.66,26.46c2.83,0.04,6.45,2.12,7.89,4.55
	l2.81,4.73l-3.79-1.07c-2.98-0.84-7.37-3.37-9.59-5.54l-2.82-2.75L1821.66,26.46z M1844.54,42.52c2.72,0.76,5.67,3.72,6.44,6.44
	l1.49,5.29l-3.38-2.01c-2.67-1.58-6.25-5.17-7.83-7.83l-2.01-3.38L1844.54,42.52z M1867.04,71.84l0.06,5.5l-2.74-2.82
	c-2.16-2.22-4.7-6.61-5.54-9.59l-1.07-3.79l4.73,2.81C1864.91,65.4,1867,69.01,1867.04,71.84z M1875.69,86.14l-5.32-5.46l-0.09-7.26
	l5.32,5.45L1875.69,86.14z M1862.87,60.44l-6.38-3.79l-1.98-7.03l6.38,3.79L1862.87,60.44z M1836.85,37.01l-3.79-6.38l7.03,1.98
	l3.79,6.38L1836.85,37.01z M1812.81,23.13l-5.46-5.32l7.26,0.09l5.45,5.32L1812.81,23.13z M1785.99,15.95l-6.87-3.85l7.08-1.8
	l6.87,3.85L1785.99,15.95z M1758.23,15.95l-7.92-2.02l6.49-3.64l7.82,1.99c0.03,0.01,0.07,0.01,0.11,0.02L1758.23,15.95z
	 M1731.42,23.13l-8.5,0.1l5.47-5.33l8.06-0.1c0.15,0,0.31-0.02,0.45-0.02L1731.42,23.13z M1707.37,37.01l-8.5,2.39l4.03-6.8
	l7.77-2.18c0.24-0.07,0.5-0.17,0.75-0.25L1707.37,37.01z M1687.74,56.65l-7.64,4.54c-0.08,0.04-0.15,0.1-0.22,0.14
	c0.02-0.05,0.04-0.11,0.05-0.15l2.19-7.77l6.93-4.12c0.3-0.18,0.62-0.4,0.93-0.61L1687.74,56.65z M1673.86,80.69l-6.2,6.36
	c-0.14,0.14-0.25,0.3-0.38,0.45c0.01-0.18,0.03-0.38,0.03-0.56l0.1-8.07l5.63-5.77c0.31-0.31,0.62-0.67,0.92-1.03L1673.86,80.69z
	 M1664.47,98.81c0.01,0.03,0.01,0.05,0.01,0.08l2.19,8.61l-4.35,7.75c-0.13,0.23-0.23,0.5-0.35,0.76c-0.06-0.31-0.12-0.62-0.19-0.91
	l-2-7.82l3.95-7.03C1663.99,99.81,1664.23,99.33,1664.47,98.81z M1661.79,128.89c0.14-0.55,0.25-1.15,0.35-1.77
	c0.07,0.13,0.11,0.28,0.19,0.41l4.35,7.75l-2.19,8.61c-0.08,0.32-0.12,0.65-0.17,0.99c-0.19-0.39-0.37-0.78-0.57-1.13l-3.95-7.04
	L1661.79,128.89z M1667.3,157.05c-0.01-0.59-0.05-1.23-0.13-1.9c0.16,0.19,0.31,0.4,0.47,0.57l6.21,6.36l0.11,8.89
	c0.01,0.34,0.04,0.69,0.08,1.04c-0.34-0.4-0.67-0.78-1.01-1.13l-5.63-5.77L1667.3,157.05z M1679.93,182.83
	c-0.16-0.56-0.36-1.14-0.59-1.75c0.25,0.19,0.51,0.36,0.76,0.51l7.64,4.54l2.4,8.55c0.09,0.33,0.21,0.65,0.35,0.98
	c-0.49-0.35-0.98-0.68-1.44-0.95l-6.93-4.12L1679.93,182.83z M1722.53,219.54l8.89,0.11l6.36,6.2c0.17,0.17,0.37,0.32,0.55,0.47
	c-0.66-0.07-1.29-0.12-1.88-0.13l-8.06-0.1l-5.78-5.63c-0.34-0.34-0.72-0.67-1.12-1.01C1721.83,219.5,1722.18,219.53,1722.53,219.54
	z M1749.62,229.02l8.61-2.19l7.75,4.35c0.13,0.07,0.27,0.12,0.41,0.19c-0.62,0.1-1.22,0.21-1.77,0.35l-7.82,1.99l-7.04-3.95
	c-0.35-0.19-0.73-0.38-1.11-0.56C1748.98,229.15,1749.31,229.1,1749.62,229.02z M1778.24,231.18l7.75-4.35l8.61,2.19
	c0.03,0.01,0.06,0.01,0.08,0.02c-0.51,0.23-1,0.48-1.44,0.73l-7.04,3.95l-7.81-1.99c-0.29-0.07-0.61-0.13-0.91-0.19
	C1777.74,231.41,1778,231.31,1778.24,231.18z M1806.45,225.85l6.36-6.2l8.62-0.11c-0.37,0.31-0.72,0.62-1.04,0.93l-5.77,5.63
	l-8.07,0.1c-0.18,0-0.37,0.03-0.56,0.03C1806.15,226.1,1806.31,225.98,1806.45,225.85z M1856.49,186.13l6.83-4.06
	c-0.08,0.25-0.18,0.51-0.25,0.75l-2.18,7.77l-6.8,4.03L1856.49,186.13z M1870.37,162.09l5.35-5.49c-0.01,0.15-0.02,0.31-0.02,0.45
	l-0.1,8.07l-5.33,5.47L1870.37,162.09z M1879.57,143.19l-2.02-7.92l3.64-6.49c0.01,0.04,0.02,0.08,0.02,0.11l1.99,7.82
	L1879.57,143.19z M1881.41,114.38l-3.85-6.87l1.81-7.08l3.85,6.87L1881.41,114.38z M1870.41,59.06c2.7,1.6,5.02,5.61,5.06,8.75
	l0.08,6.39l-3.27-3.35c-2.38-2.44-5.17-7.27-6.09-10.56l-1.27-4.51L1870.41,59.06z M1850.75,35.6c3.02,0.85,6.3,4.13,7.15,7.15
	l1.73,6.15l-4.03-2.39c-2.93-1.74-6.88-5.69-8.62-8.62l-2.39-4.02L1850.75,35.6z M1825.69,18.04c3.14,0.04,7.15,2.35,8.76,5.05
	l3.26,5.5l-4.51-1.27c-3.28-0.92-8.11-3.71-10.55-6.09l-3.35-3.27L1825.69,18.04z M1796.93,7.56c3.05-0.77,7.52,0.42,9.77,2.62
	l4.57,4.46l-4.68-0.06c-3.41-0.04-8.8-1.49-11.77-3.16l-4.08-2.29L1796.93,7.56z M1766.45,4.87c2.74-1.54,7.37-1.54,10.11,0
	l5.58,3.13l-4.54,1.15c-3.3,0.84-8.88,0.84-12.19,0L1760.87,8L1766.45,4.87z M1736.31,10.17c2.25-2.19,6.72-3.39,9.76-2.62
	l6.19,1.58l-4.08,2.29c-2.97,1.67-8.36,3.11-11.77,3.15l-4.68,0.06L1736.31,10.17z M1708.56,23.09c1.6-2.7,5.61-5.01,8.75-5.05
	l6.39-0.08l-3.35,3.27c-2.44,2.38-7.27,5.17-10.56,6.09l-4.51,1.27L1708.56,23.09z M1685.11,42.75c0.85-3.02,4.12-6.3,7.15-7.15
	l6.15-1.73l-2.39,4.02c-1.74,2.93-5.69,6.88-8.62,8.62l-4.02,2.39L1685.11,42.75z M1667.54,67.81c0.04-3.14,2.35-7.15,5.05-8.75
	l5.5-3.27l-1.27,4.51c-0.93,3.28-3.72,8.12-6.1,10.56l-3.27,3.35L1667.54,67.81z M1657.06,96.57c-0.77-3.04,0.43-7.52,2.62-9.77
	l4.47-4.58l-0.06,4.68c-0.04,3.41-1.49,8.8-3.16,11.77l-2.29,4.08L1657.06,96.57z M1654.38,127.05c-1.53-2.74-1.53-7.37,0-10.11
	l3.13-5.58l1.16,4.54c0.84,3.3,0.84,8.89,0,12.19l-1.16,4.54L1654.38,127.05z M1659.68,157.19c-2.19-2.25-3.39-6.72-2.62-9.76
	l1.58-6.19l2.29,4.08c1.67,2.97,3.11,8.36,3.16,11.77l0.06,4.68L1659.68,157.19z M1672.59,184.94c-2.7-1.6-5.01-5.61-5.05-8.75
	l-0.08-6.39l3.27,3.35c2.38,2.44,5.17,7.27,6.1,10.56l1.27,4.51L1672.59,184.94z M1692.26,208.39c-3.02-0.85-6.3-4.12-7.15-7.14
	l-1.73-6.15l4.02,2.39c2.93,1.74,6.88,5.69,8.62,8.62l2.39,4.02L1692.26,208.39z M1717.32,225.96c-3.14-0.04-7.15-2.35-8.75-5.05
	l-3.27-5.5l4.51,1.27c3.28,0.92,8.11,3.72,10.56,6.1l3.35,3.26L1717.32,225.96z M1746.07,236.44c-3.05,0.77-7.52-0.43-9.76-2.62
	l-4.58-4.46l4.68,0.06c3.41,0.04,8.8,1.48,11.77,3.16l4.08,2.29L1746.07,236.44z M1776.56,239.12c-2.74,1.54-7.37,1.54-10.11,0
	l-5.58-3.13l4.54-1.15c3.31-0.84,8.89-0.84,12.19,0l4.53,1.15L1776.56,239.12z M1806.7,233.82c-2.25,2.19-6.73,3.4-9.77,2.62
	l-6.2-1.58l4.08-2.29c2.97-1.67,8.37-3.11,11.77-3.16l4.68-0.06L1806.7,233.82z M1834.44,220.9c-1.61,2.7-5.62,5.02-8.76,5.06
	l-6.39,0.07l3.35-3.26c2.44-2.38,7.28-5.17,10.55-6.1l4.51-1.27L1834.44,220.9z M1857.9,201.25c-0.85,3.02-4.13,6.3-7.15,7.14
	l-6.15,1.73l2.39-4.02c1.74-2.93,5.69-6.88,8.62-8.62l4.03-2.39L1857.9,201.25z M1875.46,176.18c-0.04,3.14-2.35,7.15-5.06,8.75
	l-5.49,3.27l1.27-4.51c0.92-3.28,3.71-8.12,6.09-10.56l3.27-3.35L1875.46,176.18z M1885.94,147.43c0.78,3.04-0.42,7.52-2.62,9.76
	l-4.46,4.58l0.06-4.68c0.04-3.41,1.48-8.8,3.15-11.77l2.29-4.08L1885.94,147.43z M1888.62,127.05l-3.13,5.57l-1.15-4.53
	c-0.84-3.3-0.84-8.88,0-12.19l1.15-4.54l3.13,5.58C1890.17,119.68,1890.17,124.31,1888.62,127.05z M2012.88,0.5
	c2.36,0,4.27,1.89,4.27,4.22s-1.91,4.22-4.27,4.22c-2.36,0-4.27-1.89-4.27-4.22S2010.52,0.5,2012.88,0.5z M2046.04,0.5
	c2.25,0,4.08,1.89,4.08,4.22s-1.83,4.22-4.08,4.22c-2.25,0-4.08-1.89-4.08-4.22S2043.78,0.5,2046.04,0.5z M2029.87,0.5
	c2.22,0,4.01,1.89,4.01,4.22s-1.8,4.22-4.01,4.22c-2.22,0-4.01-1.89-4.01-4.22S2027.66,0.5,2029.87,0.5z M2080.01,0.5
	c2.25,0,4.08,1.89,4.08,4.22s-1.83,4.22-4.08,4.22c-2.25,0-4.08-1.89-4.08-4.22S2077.75,0.5,2080.01,0.5z M2063.02,0.5
	c2.32,0,4.21,1.89,4.21,4.22s-1.89,4.22-4.21,4.22s-4.2-1.89-4.2-4.22S2060.7,0.5,2063.02,0.5z M1979.67,16.27
	c2.35,0,4.25,1.91,4.25,4.26c0,2.35-1.91,4.27-4.25,4.27c-2.35,0-4.25-1.91-4.25-4.27C1975.42,18.18,1977.32,16.27,1979.67,16.27z
	 M2047.11,16.27c2.35,0,4.25,1.91,4.25,4.26c0,2.35-1.91,4.27-4.25,4.27c-2.35,0-4.25-1.91-4.25-4.27
	C2042.85,18.18,2044.76,16.27,2047.11,16.27z M2029.49,16.27c2.35,0,4.25,1.91,4.25,4.26c0,2.35-1.91,4.27-4.25,4.27
	c-2.35,0-4.25-1.91-4.25-4.27C2025.24,18.18,2027.14,16.27,2029.49,16.27z M2013.09,16.27c2.35,0,4.25,1.91,4.25,4.26
	c0,2.35-1.9,4.27-4.25,4.27c-2.35,0-4.25-1.91-4.25-4.27C2008.83,18.18,2010.73,16.27,2013.09,16.27z M1996.68,16.27
	c2.35,0,4.25,1.91,4.25,4.26c0,2.35-1.91,4.27-4.25,4.27c-2.35,0-4.25-1.91-4.25-4.27C1992.43,18.18,1994.33,16.27,1996.68,16.27z
	 M2079.91,16.27c2.35,0,4.25,1.91,4.25,4.26c0,2.35-1.91,4.27-4.25,4.27c-2.35,0-4.25-1.91-4.25-4.27
	C2075.66,18.18,2077.56,16.27,2079.91,16.27z M2063.51,16.27c2.35,0,4.25,1.91,4.25,4.26c0,2.35-1.91,4.27-4.25,4.27
	c-2.35,0-4.25-1.91-4.25-4.27C2059.26,18.18,2061.16,16.27,2063.51,16.27z M2113.93,16.27c2.35,0,4.25,1.91,4.25,4.26
	c0,2.35-1.91,4.27-4.25,4.27c-2.35,0-4.25-1.91-4.25-4.27C2109.68,18.18,2111.58,16.27,2113.93,16.27z M2096.31,16.27
	c2.35,0,4.25,1.91,4.25,4.26c0,2.35-1.91,4.27-4.25,4.27c-2.35,0-4.25-1.91-4.25-4.27C2092.06,18.18,2093.96,16.27,2096.31,16.27z
	 M1996.68,33.94c2.35,0,4.25,1.91,4.25,4.26c0,2.35-1.91,4.26-4.25,4.26c-2.35,0-4.25-1.91-4.25-4.26
	C1992.43,35.85,1994.33,33.94,1996.68,33.94z M1962.66,33.94c2.35,0,4.25,1.91,4.25,4.26c0,2.35-1.9,4.26-4.25,4.26
	c-2.35,0-4.25-1.91-4.25-4.26C1958.41,35.85,1960.31,33.94,1962.66,33.94z M2063.51,33.94c2.35,0,4.25,1.91,4.25,4.26
	c0,2.35-1.91,4.26-4.25,4.26c-2.35,0-4.25-1.91-4.25-4.26C2059.26,35.85,2061.16,33.94,2063.51,33.94z M2130.33,33.94
	c2.35,0,4.25,1.91,4.25,4.26c0,2.35-1.91,4.26-4.25,4.26c-2.35,0-4.25-1.91-4.25-4.26C2126.08,35.85,2127.99,33.94,2130.33,33.94z
	 M2113.93,33.94c2.35,0,4.25,1.91,4.25,4.26c0,2.35-1.91,4.26-4.25,4.26c-2.35,0-4.25-1.91-4.25-4.26
	C2109.68,35.85,2111.58,33.94,2113.93,33.94z M2079.91,33.94c2.35,0,4.25,1.91,4.25,4.26c0,2.35-1.91,4.26-4.25,4.26
	c-2.35,0-4.25-1.91-4.25-4.26C2075.66,35.85,2077.56,33.94,2079.91,33.94z M2096.31,33.94c2.35,0,4.25,1.91,4.25,4.26
	c0,2.35-1.91,4.26-4.25,4.26c-2.35,0-4.25-1.91-4.25-4.26C2092.06,35.85,2093.96,33.94,2096.31,33.94z M2029.49,33.94
	c2.35,0,4.25,1.91,4.25,4.26c0,2.35-1.91,4.26-4.25,4.26c-2.35,0-4.25-1.91-4.25-4.26C2025.24,35.85,2027.14,33.94,2029.49,33.94z
	 M2047.11,33.94c2.35,0,4.25,1.91,4.25,4.26c0,2.35-1.91,4.26-4.25,4.26c-2.35,0-4.25-1.91-4.25-4.26
	C2042.85,35.85,2044.76,33.94,2047.11,33.94z M2013.09,33.94c2.35,0,4.25,1.91,4.25,4.26c0,2.35-1.9,4.26-4.25,4.26
	c-2.35,0-4.25-1.91-4.25-4.26C2008.83,35.85,2010.73,33.94,2013.09,33.94z M1979.67,33.94c2.35,0,4.25,1.91,4.25,4.26
	c0,2.35-1.91,4.26-4.25,4.26c-2.35,0-4.25-1.91-4.25-4.26C1975.42,35.85,1977.32,33.94,1979.67,33.94z M1979.67,50.38
	c2.35,0,4.25,1.91,4.25,4.26c0,2.35-1.91,4.26-4.25,4.26c-2.35,0-4.25-1.91-4.25-4.26C1975.42,52.29,1977.32,50.38,1979.67,50.38z
	 M2029.49,50.38c2.35,0,4.25,1.91,4.25,4.26c0,2.35-1.91,4.26-4.25,4.26c-2.35,0-4.25-1.91-4.25-4.26
	C2025.24,52.29,2027.14,50.38,2029.49,50.38z M1996.68,50.38c2.35,0,4.25,1.91,4.25,4.26c0,2.35-1.91,4.26-4.25,4.26
	c-2.35,0-4.25-1.91-4.25-4.26C1992.43,52.29,1994.33,50.38,1996.68,50.38z M2079.91,50.38c2.35,0,4.25,1.91,4.25,4.26
	c0,2.35-1.91,4.26-4.25,4.26c-2.35,0-4.25-1.91-4.25-4.26C2075.66,52.29,2077.56,50.38,2079.91,50.38z M2147.34,50.38
	c2.35,0,4.25,1.91,4.25,4.26c0,2.35-1.9,4.26-4.25,4.26c-2.35,0-4.25-1.91-4.25-4.26C2143.09,52.29,2145,50.38,2147.34,50.38z
	 M1945.66,50.38c2.35,0,4.25,1.91,4.25,4.26c0,2.35-1.9,4.26-4.25,4.26c-2.35,0-4.25-1.91-4.25-4.26
	C1941.4,52.29,1943.31,50.38,1945.66,50.38z M2113.93,50.38c2.35,0,4.25,1.91,4.25,4.26c0,2.35-1.91,4.26-4.25,4.26
	c-2.35,0-4.25-1.91-4.25-4.26C2109.68,52.29,2111.58,50.38,2113.93,50.38z M2013.09,50.38c2.35,0,4.25,1.91,4.25,4.26
	c0,2.35-1.9,4.26-4.25,4.26c-2.35,0-4.25-1.91-4.25-4.26C2008.83,52.29,2010.73,50.38,2013.09,50.38z M2047.11,50.38
	c2.35,0,4.25,1.91,4.25,4.26c0,2.35-1.91,4.26-4.25,4.26c-2.35,0-4.25-1.91-4.25-4.26C2042.85,52.29,2044.76,50.38,2047.11,50.38z
	 M2096.31,50.38c2.35,0,4.25,1.91,4.25,4.26c0,2.35-1.91,4.26-4.25,4.26c-2.35,0-4.25-1.91-4.25-4.26
	C2092.06,52.29,2093.96,50.38,2096.31,50.38z M2130.33,50.38c2.35,0,4.25,1.91,4.25,4.26c0,2.35-1.91,4.26-4.25,4.26
	c-2.35,0-4.25-1.91-4.25-4.26C2126.08,52.29,2127.99,50.38,2130.33,50.38z M1962.66,50.38c2.35,0,4.25,1.91,4.25,4.26
	c0,2.35-1.9,4.26-4.25,4.26c-2.35,0-4.25-1.91-4.25-4.26C1958.41,52.29,1960.31,50.38,1962.66,50.38z M2063.51,50.38
	c2.35,0,4.25,1.91,4.25,4.26c0,2.35-1.91,4.26-4.25,4.26c-2.35,0-4.25-1.91-4.25-4.26C2059.26,52.29,2061.16,50.38,2063.51,50.38z
	 M1962.66,67.44c2.35,0,4.25,1.91,4.25,4.27c0,2.35-1.9,4.26-4.25,4.26c-2.35,0-4.25-1.91-4.25-4.26
	C1958.41,69.35,1960.31,67.44,1962.66,67.44z M2063.51,67.44c2.35,0,4.25,1.91,4.25,4.27c0,2.35-1.91,4.26-4.25,4.26
	c-2.35,0-4.25-1.91-4.25-4.26C2059.26,69.35,2061.16,67.44,2063.51,67.44z M2013.09,67.44c2.35,0,4.25,1.91,4.25,4.27
	c0,2.35-1.9,4.26-4.25,4.26c-2.35,0-4.25-1.91-4.25-4.26C2008.83,69.35,2010.73,67.44,2013.09,67.44z M2079.91,67.44
	c2.35,0,4.25,1.91,4.25,4.27c0,2.35-1.91,4.26-4.25,4.26c-2.35,0-4.25-1.91-4.25-4.26C2075.66,69.35,2077.56,67.44,2079.91,67.44z
	 M2096.31,67.44c2.35,0,4.25,1.91,4.25,4.27c0,2.35-1.91,4.26-4.25,4.26c-2.35,0-4.25-1.91-4.25-4.26
	C2092.06,69.35,2093.96,67.44,2096.31,67.44z M1979.67,67.44c2.35,0,4.25,1.91,4.25,4.27c0,2.35-1.91,4.26-4.25,4.26
	c-2.35,0-4.25-1.91-4.25-4.26C1975.42,69.35,1977.32,67.44,1979.67,67.44z M1996.68,67.44c2.35,0,4.25,1.91,4.25,4.27
	c0,2.35-1.91,4.26-4.25,4.26c-2.35,0-4.25-1.91-4.25-4.26C1992.43,69.35,1994.33,67.44,1996.68,67.44z M2029.49,67.44
	c2.35,0,4.25,1.91,4.25,4.27c0,2.35-1.91,4.26-4.25,4.26c-2.35,0-4.25-1.91-4.25-4.26C2025.24,69.35,2027.14,67.44,2029.49,67.44z
	 M2047.11,67.44c2.35,0,4.25,1.91,4.25,4.27c0,2.35-1.91,4.26-4.25,4.26c-2.35,0-4.25-1.91-4.25-4.26
	C2042.85,69.35,2044.76,67.44,2047.11,67.44z M2130.33,67.44c2.35,0,4.25,1.91,4.25,4.27c0,2.35-1.91,4.26-4.25,4.26
	c-2.35,0-4.25-1.91-4.25-4.26C2126.08,69.35,2127.99,67.44,2130.33,67.44z M1945.66,67.44c2.35,0,4.25,1.91,4.25,4.27
	c0,2.35-1.9,4.26-4.25,4.26c-2.35,0-4.25-1.91-4.25-4.26C1941.4,69.35,1943.31,67.44,1945.66,67.44z M2147.34,67.44
	c2.35,0,4.25,1.91,4.25,4.27c0,2.35-1.9,4.26-4.25,4.26c-2.35,0-4.25-1.91-4.25-4.26C2143.09,69.35,2145,67.44,2147.34,67.44z
	 M2113.93,67.44c2.35,0,4.25,1.91,4.25,4.27c0,2.35-1.91,4.26-4.25,4.26c-2.35,0-4.25-1.91-4.25-4.26
	C2109.68,69.35,2111.58,67.44,2113.93,67.44z M2013.09,83.89c2.35,0,4.25,1.91,4.25,4.26c0,2.35-1.9,4.27-4.25,4.27
	c-2.35,0-4.25-1.91-4.25-4.27C2008.83,85.8,2010.73,83.89,2013.09,83.89z M1962.66,83.89c2.35,0,4.25,1.91,4.25,4.26
	c0,2.35-1.9,4.27-4.25,4.27c-2.35,0-4.25-1.91-4.25-4.27C1958.41,85.8,1960.31,83.89,1962.66,83.89z M2130.33,83.89
	c2.35,0,4.25,1.91,4.25,4.26c0,2.35-1.91,4.27-4.25,4.27c-2.35,0-4.25-1.91-4.25-4.27C2126.08,85.8,2127.99,83.89,2130.33,83.89z
	 M2147.34,83.89c2.35,0,4.25,1.91,4.25,4.26c0,2.35-1.9,4.27-4.25,4.27c-2.35,0-4.25-1.91-4.25-4.27
	C2143.09,85.8,2145,83.89,2147.34,83.89z M2063.51,83.89c2.35,0,4.25,1.91,4.25,4.26c0,2.35-1.91,4.27-4.25,4.27
	c-2.35,0-4.25-1.91-4.25-4.27C2059.26,85.8,2061.16,83.89,2063.51,83.89z M2029.49,83.89c2.35,0,4.25,1.91,4.25,4.26
	c0,2.35-1.91,4.27-4.25,4.27c-2.35,0-4.25-1.91-4.25-4.27C2025.24,85.8,2027.14,83.89,2029.49,83.89z M2079.91,83.89
	c2.35,0,4.25,1.91,4.25,4.26c0,2.35-1.91,4.27-4.25,4.27c-2.35,0-4.25-1.91-4.25-4.27C2075.66,85.8,2077.56,83.89,2079.91,83.89z
	 M2096.31,83.89c2.35,0,4.25,1.91,4.25,4.26c0,2.35-1.91,4.27-4.25,4.27c-2.35,0-4.25-1.91-4.25-4.27
	C2092.06,85.8,2093.96,83.89,2096.31,83.89z M2047.11,83.89c2.35,0,4.25,1.91,4.25,4.26c0,2.35-1.91,4.27-4.25,4.27
	c-2.35,0-4.25-1.91-4.25-4.27C2042.85,85.8,2044.76,83.89,2047.11,83.89z M2163.75,83.89c2.35,0,4.25,1.91,4.25,4.26
	c0,2.35-1.9,4.27-4.25,4.27c-2.35,0-4.25-1.91-4.25-4.27C2159.5,85.8,2161.4,83.89,2163.75,83.89z M2113.93,83.89
	c2.35,0,4.25,1.91,4.25,4.26c0,2.35-1.91,4.27-4.25,4.27c-2.35,0-4.25-1.91-4.25-4.27C2109.68,85.8,2111.58,83.89,2113.93,83.89z
	 M1929.25,83.89c2.35,0,4.25,1.91,4.25,4.26c0,2.35-1.9,4.27-4.25,4.27c-2.35,0-4.25-1.91-4.25-4.27
	C1925,85.8,1926.91,83.89,1929.25,83.89z M1996.68,83.89c2.35,0,4.25,1.91,4.25,4.26c0,2.35-1.91,4.27-4.25,4.27
	c-2.35,0-4.25-1.91-4.25-4.27C1992.43,85.8,1994.33,83.89,1996.68,83.89z M1945.66,83.89c2.35,0,4.25,1.91,4.25,4.26
	c0,2.35-1.9,4.27-4.25,4.27c-2.35,0-4.25-1.91-4.25-4.27C1941.4,85.8,1943.31,83.89,1945.66,83.89z M1979.67,83.89
	c2.35,0,4.25,1.91,4.25,4.26c0,2.35-1.91,4.27-4.25,4.27c-2.35,0-4.25-1.91-4.25-4.27C1975.42,85.8,1977.32,83.89,1979.67,83.89z
	 M2147.34,100.34c2.35,0,4.25,1.91,4.25,4.26c0,2.35-1.9,4.27-4.25,4.27c-2.35,0-4.25-1.91-4.25-4.27
	C2143.09,102.25,2145,100.34,2147.34,100.34z M1945.66,100.34c2.35,0,4.25,1.91,4.25,4.26c0,2.35-1.9,4.27-4.25,4.27
	c-2.35,0-4.25-1.91-4.25-4.27C1941.4,102.25,1943.31,100.34,1945.66,100.34z M2079.91,100.34c2.35,0,4.25,1.91,4.25,4.26
	c0,2.35-1.91,4.27-4.25,4.27c-2.35,0-4.25-1.91-4.25-4.27C2075.66,102.25,2077.56,100.34,2079.91,100.34z M1929.25,100.34
	c2.35,0,4.25,1.91,4.25,4.26c0,2.35-1.9,4.27-4.25,4.27c-2.35,0-4.25-1.91-4.25-4.27C1925,102.25,1926.91,100.34,1929.25,100.34z
	 M1962.66,100.34c2.35,0,4.25,1.91,4.25,4.26c0,2.35-1.9,4.27-4.25,4.27c-2.35,0-4.25-1.91-4.25-4.27
	C1958.41,102.25,1960.31,100.34,1962.66,100.34z M2029.49,100.34c2.35,0,4.25,1.91,4.25,4.26c0,2.35-1.91,4.27-4.25,4.27
	c-2.35,0-4.25-1.91-4.25-4.27C2025.24,102.25,2027.14,100.34,2029.49,100.34z M2063.51,100.34c2.35,0,4.25,1.91,4.25,4.26
	c0,2.35-1.91,4.27-4.25,4.27c-2.35,0-4.25-1.91-4.25-4.27C2059.26,102.25,2061.16,100.34,2063.51,100.34z M2163.75,100.34
	c2.35,0,4.25,1.91,4.25,4.26c0,2.35-1.9,4.27-4.25,4.27c-2.35,0-4.25-1.91-4.25-4.27C2159.5,102.25,2161.4,100.34,2163.75,100.34z
	 M2130.33,100.34c2.35,0,4.25,1.91,4.25,4.26c0,2.35-1.91,4.27-4.25,4.27c-2.35,0-4.25-1.91-4.25-4.27
	C2126.08,102.25,2127.99,100.34,2130.33,100.34z M2013.09,100.34c2.35,0,4.25,1.91,4.25,4.26c0,2.35-1.9,4.27-4.25,4.27
	c-2.35,0-4.25-1.91-4.25-4.27C2008.83,102.25,2010.73,100.34,2013.09,100.34z M1979.67,100.34c2.35,0,4.25,1.91,4.25,4.26
	c0,2.35-1.91,4.27-4.25,4.27c-2.35,0-4.25-1.91-4.25-4.27C1975.42,102.25,1977.32,100.34,1979.67,100.34z M2096.31,100.34
	c2.35,0,4.25,1.91,4.25,4.26c0,2.35-1.91,4.27-4.25,4.27c-2.35,0-4.25-1.91-4.25-4.27C2092.06,102.25,2093.96,100.34,2096.31,100.34
	z M2047.11,100.34c2.35,0,4.25,1.91,4.25,4.26c0,2.35-1.91,4.27-4.25,4.27c-2.35,0-4.25-1.91-4.25-4.27
	C2042.85,102.25,2044.76,100.34,2047.11,100.34z M2113.93,100.34c2.35,0,4.25,1.91,4.25,4.26c0,2.35-1.91,4.27-4.25,4.27
	c-2.35,0-4.25-1.91-4.25-4.27C2109.68,102.25,2111.58,100.34,2113.93,100.34z M1996.68,100.34c2.35,0,4.25,1.91,4.25,4.26
	c0,2.35-1.91,4.27-4.25,4.27c-2.35,0-4.25-1.91-4.25-4.27C1992.43,102.25,1994.33,100.34,1996.68,100.34z M2047.11,118
	c2.35,0,4.25,1.91,4.25,4.26c0,2.35-1.91,4.26-4.25,4.26c-2.35,0-4.25-1.91-4.25-4.26C2042.85,119.91,2044.76,118,2047.11,118z
	 M2013.09,118c2.35,0,4.25,1.91,4.25,4.26c0,2.35-1.9,4.26-4.25,4.26c-2.35,0-4.25-1.91-4.25-4.26
	C2008.83,119.91,2010.73,118,2013.09,118z M2096.31,118c2.35,0,4.25,1.91,4.25,4.26c0,2.35-1.91,4.26-4.25,4.26
	c-2.35,0-4.25-1.91-4.25-4.26C2092.06,119.91,2093.96,118,2096.31,118z M1945.66,118c2.35,0,4.25,1.91,4.25,4.26
	c0,2.35-1.9,4.26-4.25,4.26c-2.35,0-4.25-1.91-4.25-4.26C1941.4,119.91,1943.31,118,1945.66,118z M2063.51,118
	c2.35,0,4.25,1.91,4.25,4.26c0,2.35-1.91,4.26-4.25,4.26c-2.35,0-4.25-1.91-4.25-4.26C2059.26,119.91,2061.16,118,2063.51,118z
	 M2113.93,118c2.35,0,4.25,1.91,4.25,4.26c0,2.35-1.91,4.26-4.25,4.26c-2.35,0-4.25-1.91-4.25-4.26
	C2109.68,119.91,2111.58,118,2113.93,118z M2130.33,118c2.35,0,4.25,1.91,4.25,4.26c0,2.35-1.91,4.26-4.25,4.26
	c-2.35,0-4.25-1.91-4.25-4.26C2126.08,119.91,2127.99,118,2130.33,118z M1929.25,118c2.35,0,4.25,1.91,4.25,4.26
	c0,2.35-1.9,4.26-4.25,4.26c-2.35,0-4.25-1.91-4.25-4.26C1925,119.91,1926.91,118,1929.25,118z M1962.66,118
	c2.35,0,4.25,1.91,4.25,4.26c0,2.35-1.9,4.26-4.25,4.26c-2.35,0-4.25-1.91-4.25-4.26C1958.41,119.91,1960.31,118,1962.66,118z
	 M2147.34,118c2.35,0,4.25,1.91,4.25,4.26c0,2.35-1.9,4.26-4.25,4.26c-2.35,0-4.25-1.91-4.25-4.26
	C2143.09,119.91,2145,118,2147.34,118z M1996.68,118c2.35,0,4.25,1.91,4.25,4.26c0,2.35-1.91,4.26-4.25,4.26
	c-2.35,0-4.25-1.91-4.25-4.26C1992.43,119.91,1994.33,118,1996.68,118z M2163.75,118c2.35,0,4.25,1.91,4.25,4.26
	c0,2.35-1.9,4.26-4.25,4.26c-2.35,0-4.25-1.91-4.25-4.26C2159.5,119.91,2161.4,118,2163.75,118z M2079.91,118
	c2.35,0,4.25,1.91,4.25,4.26c0,2.35-1.91,4.26-4.25,4.26c-2.35,0-4.25-1.91-4.25-4.26C2075.66,119.91,2077.56,118,2079.91,118z
	 M1979.67,118c2.35,0,4.25,1.91,4.25,4.26c0,2.35-1.91,4.26-4.25,4.26c-2.35,0-4.25-1.91-4.25-4.26
	C1975.42,119.91,1977.32,118,1979.67,118z M2029.49,118c2.35,0,4.25,1.91,4.25,4.26c0,2.35-1.91,4.26-4.25,4.26
	c-2.35,0-4.25-1.91-4.25-4.26C2025.24,119.91,2027.14,118,2029.49,118z M1945.66,134.45c2.35,0,4.25,1.91,4.25,4.27
	c0,2.35-1.9,4.26-4.25,4.26c-2.35,0-4.25-1.91-4.25-4.26C1941.4,136.36,1943.31,134.45,1945.66,134.45z M1929.25,134.45
	c2.35,0,4.25,1.91,4.25,4.27c0,2.35-1.9,4.26-4.25,4.26c-2.35,0-4.25-1.91-4.25-4.26C1925,136.36,1926.91,134.45,1929.25,134.45z
	 M1962.66,134.45c2.35,0,4.25,1.91,4.25,4.27c0,2.35-1.9,4.26-4.25,4.26c-2.35,0-4.25-1.91-4.25-4.26
	C1958.41,136.36,1960.31,134.45,1962.66,134.45z M2147.34,134.45c2.35,0,4.25,1.91,4.25,4.27c0,2.35-1.9,4.26-4.25,4.26
	c-2.35,0-4.25-1.91-4.25-4.26C2143.09,136.36,2145,134.45,2147.34,134.45z M2079.91,134.45c2.35,0,4.25,1.91,4.25,4.27
	c0,2.35-1.91,4.26-4.25,4.26c-2.35,0-4.25-1.91-4.25-4.26C2075.66,136.36,2077.56,134.45,2079.91,134.45z M2113.93,134.45
	c2.35,0,4.25,1.91,4.25,4.27c0,2.35-1.91,4.26-4.25,4.26c-2.35,0-4.25-1.91-4.25-4.26C2109.68,136.36,2111.58,134.45,2113.93,134.45
	z M2063.51,134.45c2.35,0,4.25,1.91,4.25,4.27c0,2.35-1.91,4.26-4.25,4.26c-2.35,0-4.25-1.91-4.25-4.26
	C2059.26,136.36,2061.16,134.45,2063.51,134.45z M2029.49,134.45c2.35,0,4.25,1.91,4.25,4.27c0,2.35-1.91,4.26-4.25,4.26
	c-2.35,0-4.25-1.91-4.25-4.26C2025.24,136.36,2027.14,134.45,2029.49,134.45z M2163.75,134.45c2.35,0,4.25,1.91,4.25,4.27
	c0,2.35-1.9,4.26-4.25,4.26c-2.35,0-4.25-1.91-4.25-4.26C2159.5,136.36,2161.4,134.45,2163.75,134.45z M2013.09,134.45
	c2.35,0,4.25,1.91,4.25,4.27c0,2.35-1.9,4.26-4.25,4.26c-2.35,0-4.25-1.91-4.25-4.26C2008.83,136.36,2010.73,134.45,2013.09,134.45z
	 M2047.11,134.45c2.35,0,4.25,1.91,4.25,4.27c0,2.35-1.91,4.26-4.25,4.26c-2.35,0-4.25-1.91-4.25-4.26
	C2042.85,136.36,2044.76,134.45,2047.11,134.45z M2130.33,134.45c2.35,0,4.25,1.91,4.25,4.27c0,2.35-1.91,4.26-4.25,4.26
	c-2.35,0-4.25-1.91-4.25-4.26C2126.08,136.36,2127.99,134.45,2130.33,134.45z M1979.67,134.45c2.35,0,4.25,1.91,4.25,4.27
	c0,2.35-1.91,4.26-4.25,4.26c-2.35,0-4.25-1.91-4.25-4.26C1975.42,136.36,1977.32,134.45,1979.67,134.45z M2096.31,134.45
	c2.35,0,4.25,1.91,4.25,4.27c0,2.35-1.91,4.26-4.25,4.26c-2.35,0-4.25-1.91-4.25-4.26C2092.06,136.36,2093.96,134.45,2096.31,134.45
	z M1996.68,134.45c2.35,0,4.25,1.91,4.25,4.27c0,2.35-1.91,4.26-4.25,4.26c-2.35,0-4.25-1.91-4.25-4.26
	C1992.43,136.36,1994.33,134.45,1996.68,134.45z M2063.51,150.9c2.35,0,4.25,1.91,4.25,4.27c0,2.35-1.91,4.26-4.25,4.26
	c-2.35,0-4.25-1.91-4.25-4.26C2059.26,152.81,2061.16,150.9,2063.51,150.9z M1996.68,150.9c2.35,0,4.25,1.91,4.25,4.27
	c0,2.35-1.91,4.26-4.25,4.26c-2.35,0-4.25-1.91-4.25-4.26C1992.43,152.81,1994.33,150.9,1996.68,150.9z M1929.25,150.9
	c2.35,0,4.25,1.91,4.25,4.27c0,2.35-1.9,4.26-4.25,4.26c-2.35,0-4.25-1.91-4.25-4.26C1925,152.81,1926.91,150.9,1929.25,150.9z
	 M1945.66,150.9c2.35,0,4.25,1.91,4.25,4.27c0,2.35-1.9,4.26-4.25,4.26c-2.35,0-4.25-1.91-4.25-4.26
	C1941.4,152.81,1943.31,150.9,1945.66,150.9z M1962.66,150.9c2.35,0,4.25,1.91,4.25,4.27c0,2.35-1.9,4.26-4.25,4.26
	c-2.35,0-4.25-1.91-4.25-4.26C1958.41,152.81,1960.31,150.9,1962.66,150.9z M2147.34,150.9c2.35,0,4.25,1.91,4.25,4.27
	c0,2.35-1.9,4.26-4.25,4.26c-2.35,0-4.25-1.91-4.25-4.26C2143.09,152.81,2145,150.9,2147.34,150.9z M2130.33,150.9
	c2.35,0,4.25,1.91,4.25,4.27c0,2.35-1.91,4.26-4.25,4.26c-2.35,0-4.25-1.91-4.25-4.26C2126.08,152.81,2127.99,150.9,2130.33,150.9z
	 M2047.11,150.9c2.35,0,4.25,1.91,4.25,4.27c0,2.35-1.91,4.26-4.25,4.26c-2.35,0-4.25-1.91-4.25-4.26
	C2042.85,152.81,2044.76,150.9,2047.11,150.9z M2013.09,150.9c2.35,0,4.25,1.91,4.25,4.27c0,2.35-1.9,4.26-4.25,4.26
	c-2.35,0-4.25-1.91-4.25-4.26C2008.83,152.81,2010.73,150.9,2013.09,150.9z M2096.31,150.9c2.35,0,4.25,1.91,4.25,4.27
	c0,2.35-1.91,4.26-4.25,4.26c-2.35,0-4.25-1.91-4.25-4.26C2092.06,152.81,2093.96,150.9,2096.31,150.9z M2163.75,150.9
	c2.35,0,4.25,1.91,4.25,4.27c0,2.35-1.9,4.26-4.25,4.26c-2.35,0-4.25-1.91-4.25-4.26C2159.5,152.81,2161.4,150.9,2163.75,150.9z
	 M2113.93,150.9c2.35,0,4.25,1.91,4.25,4.27c0,2.35-1.91,4.26-4.25,4.26c-2.35,0-4.25-1.91-4.25-4.26
	C2109.68,152.81,2111.58,150.9,2113.93,150.9z M1979.67,150.9c2.35,0,4.25,1.91,4.25,4.27c0,2.35-1.91,4.26-4.25,4.26
	c-2.35,0-4.25-1.91-4.25-4.26C1975.42,152.81,1977.32,150.9,1979.67,150.9z M2029.49,150.9c2.35,0,4.25,1.91,4.25,4.27
	c0,2.35-1.91,4.26-4.25,4.26c-2.35,0-4.25-1.91-4.25-4.26C2025.24,152.81,2027.14,150.9,2029.49,150.9z M2079.91,150.9
	c2.35,0,4.25,1.91,4.25,4.27c0,2.35-1.91,4.26-4.25,4.26c-2.35,0-4.25-1.91-4.25-4.26C2075.66,152.81,2077.56,150.9,2079.91,150.9z
	 M2079.91,167.35c2.35,0,4.25,1.91,4.25,4.26c0,2.35-1.91,4.27-4.25,4.27c-2.35,0-4.25-1.91-4.25-4.27
	C2075.66,169.26,2077.56,167.35,2079.91,167.35z M1945.66,167.35c2.35,0,4.25,1.91,4.25,4.26c0,2.35-1.9,4.27-4.25,4.27
	c-2.35,0-4.25-1.91-4.25-4.27C1941.4,169.26,1943.31,167.35,1945.66,167.35z M2147.34,167.35c2.35,0,4.25,1.91,4.25,4.26
	c0,2.35-1.9,4.27-4.25,4.27c-2.35,0-4.25-1.91-4.25-4.27C2143.09,169.26,2145,167.35,2147.34,167.35z M2013.09,167.35
	c2.35,0,4.25,1.91,4.25,4.26c0,2.35-1.9,4.27-4.25,4.27c-2.35,0-4.25-1.91-4.25-4.27C2008.83,169.26,2010.73,167.35,2013.09,167.35z
	 M2113.93,167.35c2.35,0,4.25,1.91,4.25,4.26c0,2.35-1.91,4.27-4.25,4.27c-2.35,0-4.25-1.91-4.25-4.27
	C2109.68,169.26,2111.58,167.35,2113.93,167.35z M1979.67,167.35c2.35,0,4.25,1.91,4.25,4.26c0,2.35-1.91,4.27-4.25,4.27
	c-2.35,0-4.25-1.91-4.25-4.27C1975.42,169.26,1977.32,167.35,1979.67,167.35z M2047.11,167.35c2.35,0,4.25,1.91,4.25,4.26
	c0,2.35-1.91,4.27-4.25,4.27c-2.35,0-4.25-1.91-4.25-4.27C2042.85,169.26,2044.76,167.35,2047.11,167.35z M1996.68,167.35
	c2.35,0,4.25,1.91,4.25,4.26c0,2.35-1.91,4.27-4.25,4.27c-2.35,0-4.25-1.91-4.25-4.27C1992.43,169.26,1994.33,167.35,1996.68,167.35
	z M1962.66,167.35c2.35,0,4.25,1.91,4.25,4.26c0,2.35-1.9,4.27-4.25,4.27c-2.35,0-4.25-1.91-4.25-4.27
	C1958.41,169.26,1960.31,167.35,1962.66,167.35z M2063.51,167.35c2.35,0,4.25,1.91,4.25,4.26c0,2.35-1.91,4.27-4.25,4.27
	c-2.35,0-4.25-1.91-4.25-4.27C2059.26,169.26,2061.16,167.35,2063.51,167.35z M2029.49,167.35c2.35,0,4.25,1.91,4.25,4.26
	c0,2.35-1.91,4.27-4.25,4.27c-2.35,0-4.25-1.91-4.25-4.27C2025.24,169.26,2027.14,167.35,2029.49,167.35z M2130.33,167.35
	c2.35,0,4.25,1.91,4.25,4.26c0,2.35-1.91,4.27-4.25,4.27c-2.35,0-4.25-1.91-4.25-4.27C2126.08,169.26,2127.99,167.35,2130.33,167.35
	z M2096.31,167.35c2.35,0,4.25,1.91,4.25,4.26c0,2.35-1.91,4.27-4.25,4.27c-2.35,0-4.25-1.91-4.25-4.27
	C2092.06,169.26,2093.96,167.35,2096.31,167.35z M1945.66,185.02c2.35,0,4.25,1.91,4.25,4.26c0,2.35-1.9,4.26-4.25,4.26
	c-2.35,0-4.25-1.91-4.25-4.26C1941.4,186.93,1943.31,185.02,1945.66,185.02z M1979.67,185.02c2.35,0,4.25,1.91,4.25,4.26
	c0,2.35-1.91,4.26-4.25,4.26c-2.35,0-4.25-1.91-4.25-4.26C1975.42,186.93,1977.32,185.02,1979.67,185.02z M2079.91,185.02
	c2.35,0,4.25,1.91,4.25,4.26c0,2.35-1.91,4.26-4.25,4.26c-2.35,0-4.25-1.91-4.25-4.26C2075.66,186.93,2077.56,185.02,2079.91,185.02
	z M1962.66,185.02c2.35,0,4.25,1.91,4.25,4.26c0,2.35-1.9,4.26-4.25,4.26c-2.35,0-4.25-1.91-4.25-4.26
	C1958.41,186.93,1960.31,185.02,1962.66,185.02z M2096.31,185.02c2.35,0,4.25,1.91,4.25,4.26c0,2.35-1.91,4.26-4.25,4.26
	c-2.35,0-4.25-1.91-4.25-4.26C2092.06,186.93,2093.96,185.02,2096.31,185.02z M2047.11,185.02c2.35,0,4.25,1.91,4.25,4.26
	c0,2.35-1.91,4.26-4.25,4.26c-2.35,0-4.25-1.91-4.25-4.26C2042.85,186.93,2044.76,185.02,2047.11,185.02z M2063.51,185.02
	c2.35,0,4.25,1.91,4.25,4.26c0,2.35-1.91,4.26-4.25,4.26c-2.35,0-4.25-1.91-4.25-4.26C2059.26,186.93,2061.16,185.02,2063.51,185.02
	z M2029.49,185.02c2.35,0,4.25,1.91,4.25,4.26c0,2.35-1.91,4.26-4.25,4.26c-2.35,0-4.25-1.91-4.25-4.26
	C2025.24,186.93,2027.14,185.02,2029.49,185.02z M2113.93,185.02c2.35,0,4.25,1.91,4.25,4.26c0,2.35-1.91,4.26-4.25,4.26
	c-2.35,0-4.25-1.91-4.25-4.26C2109.68,186.93,2111.58,185.02,2113.93,185.02z M2013.09,185.02c2.35,0,4.25,1.91,4.25,4.26
	c0,2.35-1.9,4.26-4.25,4.26c-2.35,0-4.25-1.91-4.25-4.26C2008.83,186.93,2010.73,185.02,2013.09,185.02z M2147.34,185.02
	c2.35,0,4.25,1.91,4.25,4.26c0,2.35-1.9,4.26-4.25,4.26c-2.35,0-4.25-1.91-4.25-4.26C2143.09,186.93,2145,185.02,2147.34,185.02z
	 M1996.68,185.02c2.35,0,4.25,1.91,4.25,4.26c0,2.35-1.91,4.26-4.25,4.26c-2.35,0-4.25-1.91-4.25-4.26
	C1992.43,186.93,1994.33,185.02,1996.68,185.02z M2130.33,185.02c2.35,0,4.25,1.91,4.25,4.26c0,2.35-1.91,4.26-4.25,4.26
	c-2.35,0-4.25-1.91-4.25-4.26C2126.08,186.93,2127.99,185.02,2130.33,185.02z M2130.33,201.46c2.35,0,4.25,1.91,4.25,4.26
	c0,2.35-1.91,4.26-4.25,4.26c-2.35,0-4.25-1.91-4.25-4.26C2126.08,203.37,2127.99,201.46,2130.33,201.46z M1979.67,201.46
	c2.35,0,4.25,1.91,4.25,4.26c0,2.35-1.91,4.26-4.25,4.26c-2.35,0-4.25-1.91-4.25-4.26C1975.42,203.37,1977.32,201.46,1979.67,201.46
	z M1962.66,201.46c2.35,0,4.25,1.91,4.25,4.26c0,2.35-1.9,4.26-4.25,4.26c-2.35,0-4.25-1.91-4.25-4.26
	C1958.41,203.37,1960.31,201.46,1962.66,201.46z M2113.93,201.46c2.35,0,4.25,1.91,4.25,4.26c0,2.35-1.91,4.26-4.25,4.26
	c-2.35,0-4.25-1.91-4.25-4.26C2109.68,203.37,2111.58,201.46,2113.93,201.46z M2079.91,201.46c2.35,0,4.25,1.91,4.25,4.26
	c0,2.35-1.91,4.26-4.25,4.26c-2.35,0-4.25-1.91-4.25-4.26C2075.66,203.37,2077.56,201.46,2079.91,201.46z M2047.11,201.46
	c2.35,0,4.25,1.91,4.25,4.26c0,2.35-1.91,4.26-4.25,4.26c-2.35,0-4.25-1.91-4.25-4.26C2042.85,203.37,2044.76,201.46,2047.11,201.46
	z M2029.49,201.46c2.35,0,4.25,1.91,4.25,4.26c0,2.35-1.91,4.26-4.25,4.26c-2.35,0-4.25-1.91-4.25-4.26
	C2025.24,203.37,2027.14,201.46,2029.49,201.46z M2013.09,201.46c2.35,0,4.25,1.91,4.25,4.26c0,2.35-1.9,4.26-4.25,4.26
	c-2.35,0-4.25-1.91-4.25-4.26C2008.83,203.37,2010.73,201.46,2013.09,201.46z M2063.51,201.46c2.35,0,4.25,1.91,4.25,4.26
	c0,2.35-1.91,4.26-4.25,4.26c-2.35,0-4.25-1.91-4.25-4.26C2059.26,203.37,2061.16,201.46,2063.51,201.46z M1996.68,201.46
	c2.35,0,4.25,1.91,4.25,4.26c0,2.35-1.91,4.26-4.25,4.26c-2.35,0-4.25-1.91-4.25-4.26C1992.43,203.37,1994.33,201.46,1996.68,201.46
	z M2096.31,201.46c2.35,0,4.25,1.91,4.25,4.26c0,2.35-1.91,4.26-4.25,4.26c-2.35,0-4.25-1.91-4.25-4.26
	C2092.06,203.37,2093.96,201.46,2096.31,201.46z M1979.67,218.52c2.35,0,4.25,1.91,4.25,4.27c0,2.35-1.91,4.26-4.25,4.26
	c-2.35,0-4.25-1.91-4.25-4.26C1975.42,220.43,1977.32,218.52,1979.67,218.52z M2047.11,218.52c2.35,0,4.25,1.91,4.25,4.27
	c0,2.35-1.91,4.26-4.25,4.26c-2.35,0-4.25-1.91-4.25-4.26C2042.85,220.43,2044.76,218.52,2047.11,218.52z M2029.49,218.52
	c2.35,0,4.25,1.91,4.25,4.27c0,2.35-1.91,4.26-4.25,4.26c-2.35,0-4.25-1.91-4.25-4.26C2025.24,220.43,2027.14,218.52,2029.49,218.52
	z M2079.91,218.52c2.35,0,4.25,1.91,4.25,4.27c0,2.35-1.91,4.26-4.25,4.26c-2.35,0-4.25-1.91-4.25-4.26
	C2075.66,220.43,2077.56,218.52,2079.91,218.52z M2013.09,218.52c2.35,0,4.25,1.91,4.25,4.27c0,2.35-1.9,4.26-4.25,4.26
	c-2.35,0-4.25-1.91-4.25-4.26C2008.83,220.43,2010.73,218.52,2013.09,218.52z M1996.68,218.52c2.35,0,4.25,1.91,4.25,4.27
	c0,2.35-1.91,4.26-4.25,4.26c-2.35,0-4.25-1.91-4.25-4.26C1992.43,220.43,1994.33,218.52,1996.68,218.52z M2063.51,218.52
	c2.35,0,4.25,1.91,4.25,4.27c0,2.35-1.91,4.26-4.25,4.26c-2.35,0-4.25-1.91-4.25-4.26C2059.26,220.43,2061.16,218.52,2063.51,218.52
	z M2113.93,218.52c2.35,0,4.25,1.91,4.25,4.27c0,2.35-1.91,4.26-4.25,4.26c-2.35,0-4.25-1.91-4.25-4.26
	C2109.68,220.43,2111.58,218.52,2113.93,218.52z M2096.31,218.52c2.35,0,4.25,1.91,4.25,4.27c0,2.35-1.91,4.26-4.25,4.26
	c-2.35,0-4.25-1.91-4.25-4.26C2092.06,220.43,2093.96,218.52,2096.31,218.52z M2013.09,234.97c2.35,0,4.25,1.91,4.25,4.26
	c0,2.35-1.9,4.27-4.25,4.27c-2.35,0-4.25-1.91-4.25-4.27C2008.83,236.88,2010.73,234.97,2013.09,234.97z M2047.11,234.97
	c2.35,0,4.25,1.91,4.25,4.26c0,2.35-1.91,4.27-4.25,4.27c-2.35,0-4.25-1.91-4.25-4.27C2042.85,236.88,2044.76,234.97,2047.11,234.97
	z M2029.49,234.97c2.35,0,4.25,1.91,4.25,4.26c0,2.35-1.91,4.27-4.25,4.27c-2.35,0-4.25-1.91-4.25-4.27
	C2025.24,236.88,2027.14,234.97,2029.49,234.97z M2079.91,234.97c2.35,0,4.25,1.91,4.25,4.26c0,2.35-1.91,4.27-4.25,4.27
	c-2.35,0-4.25-1.91-4.25-4.27C2075.66,236.88,2077.56,234.97,2079.91,234.97z M2063.51,234.97c2.35,0,4.25,1.91,4.25,4.26
	c0,2.35-1.91,4.27-4.25,4.27c-2.35,0-4.25-1.91-4.25-4.27C2059.26,236.88,2061.16,234.97,2063.51,234.97z M2324.7,0.5v52.69h-6.4
	V0.5H2324.7z M2342.35,28.06c2.09,0.46,4.15,0.98,6.18,1.6l-6.78,26.5l-6.2-1.6L2342.35,28.06z M2296.23,10.77l11.22,43.78l-6.2,1.6
	l-11.22-43.78C2292.08,11.76,2294.14,11.23,2296.23,10.77z M2373.63,20.6c1.9,1.01,3.76,2.04,5.6,3.12l-21.71,39.55l-5.61-3.09
	L2373.63,20.6z M2265.75,14.02l25.33,46.17l-5.61,3.09l-25.33-46.17L2265.75,14.02z M2266.42,58.82l10.22,10.9l-4.66,4.39
	l-10.19-10.87C2263.26,61.69,2264.8,60.22,2266.42,58.82z M2402.37,31.31l4.66,4.39l-36,38.41l-4.66-4.39L2402.37,31.31z
	 M2220.59,54.32l44.4,28.23l-3.43,5.41l-44.4-28.23L2220.59,54.32z M2390.52,74.59c1.2,1.76,2.34,3.58,3.4,5.44l-12.49,7.94
	l-3.43-5.42L2390.52,74.59z M2436.1,81.6l1.97,6.1l-50.01,16.28l-1.98-6.1L2436.1,81.6z M2231.31,89.55l25.59,8.33l-1.97,6.1
	l-25.56-8.32C2229.95,93.6,2230.6,91.55,2231.31,89.55z M2200.4,111.43l52.48,3.31l-0.4,6.4l-52.48-3.31L2200.4,111.43z
	 M2442.6,111.43l0.4,6.4l-52.48,3.31l-0.4-6.4L2442.6,111.43z M2253.17,132.08l1.19,6.29l-14.07,2.69
	c-0.49-2.06-0.91-4.16-1.24-6.28L2253.17,132.08z M2389.83,132.08l43.61,8.33c-0.33,2.12-0.76,4.22-1.22,6.29l-43.59-8.33
	L2389.83,132.08z M2257.75,148.79l2.73,5.81l-47.58,22.43l-2.72-5.8L2257.75,148.79z M2385.25,148.79l47.58,22.44l-2.72,5.8
	l-47.58-22.43L2385.25,148.79z M2376.67,163.85l29.08,24.11c-0.02,0.04-0.05,0.07-0.08,0.12c-1.23,1.58-2.53,3.15-3.88,4.64
	c-0.04,0.05-0.1,0.11-0.14,0.16l-29.06-24.08L2376.67,163.85z M2266.33,163.84l4.07,4.95l-33.94,28.13
	c-1.43-1.58-2.8-3.24-4.11-4.91L2266.33,163.84z M2293.14,185.34l5.95,2.36l-5.11,12.92c-2.03-0.71-4.01-1.49-5.95-2.34
	L2293.14,185.34z M2364.62,176.29L2380,197.5c-1.68,1.31-3.41,2.57-5.18,3.75l-15.38-21.2L2364.62,176.29z M2278.38,176.29
	l5.18,3.77l-30.91,42.63l-5.18-3.77L2278.38,176.29z M2333.31,190.43l5.5,43.6c-2.09,0.33-4.2,0.59-6.34,0.8h-0.01l-5.49-43.6
	L2333.31,190.43z M2349.86,185.34l19.36,48.99l-5.95,2.36l-19.36-48.99L2349.86,185.34z M2309.68,190.42l6.35,0.8l-6.59,52.27
	l-6.35-0.8L2309.68,190.42z M2717.58,111.6c0.27,3.43,0.42,6.91,0.42,10.42c0,3.51-0.15,6.98-0.42,10.42V111.6z M2476.85,100.62
	v43.13c-1.21-7-1.85-14.2-1.85-21.57C2475,114.82,2475.64,107.61,2476.85,100.62z M2487.9,68.8v106.98
	c-0.77-1.37-1.51-2.76-2.22-4.16V72.97C2486.39,71.57,2487.13,70.18,2487.9,68.8z M2701.51,61.93c8.66,14.86,14.19,31.7,15.72,49.65
	v20.43c-1.53,17.95-7.06,34.79-15.72,49.65V61.93z M2500.06,49.18v146.23c-1.36-1.76-2.67-3.55-3.93-5.38V54.56
	C2497.39,52.73,2498.7,50.94,2500.06,49.18z M2511.85,34.45v174.69c-1.34-1.28-2.65-2.59-3.93-3.93V38.38
	C2509.2,37.04,2510.51,35.74,2511.85,34.45z M2679.89,34.45c5,4.65,9.61,9.71,13.76,15.13v145.43c-4.15,5.41-8.76,10.47-13.76,15.12
	V34.45z M2526.59,22.68v198.25c-2.01-1.41-3.97-2.88-5.9-4.41V27.08C2522.62,25.56,2524.58,24.09,2526.59,22.68z M2658.27,17.77
	c4.8,2.78,9.4,5.86,13.76,9.24v190.57c-4.36,3.37-8.96,6.46-13.76,9.24V17.77z M2540.35,14.83v214.93c-2-1.02-3.96-2.1-5.9-3.22
	V18.05C2536.39,16.92,2538.35,15.85,2540.35,14.83z M2637.64,7.96c4.03,1.44,7.97,3.07,11.79,4.9v217.89
	c-3.82,1.83-7.76,3.46-11.79,4.9V7.96z M2557.05,6.97v229.66c-2.66-0.91-5.28-1.91-7.86-2.98V9.96
	C2551.77,8.87,2554.39,7.88,2557.05,6.97z M2572.78,3.05v237.51c-2.65-0.51-5.27-1.11-7.86-1.78V4.83
	C2567.5,4.15,2570.12,3.56,2572.78,3.05z M2617.98,3.05c4,0.69,7.94,1.58,11.79,2.65v233.2c-3.86,1.07-7.79,1.95-11.79,2.65V3.05z
	 M2599.97,0.5c3.23,0.08,6.44,0.3,9.6,0.63v240.76c-3.17,0.34-6.37,0.55-9.6,0.63V0.5z M2591.45,1.09V243.5
	c-3.31-0.14-6.59-0.41-9.83-0.8V1.89C2584.86,1.5,2588.14,1.23,2591.45,1.09z M2871.5,13.36c59.9,0,108.64,48.74,108.64,108.64
	c0,59.91-48.73,108.64-108.64,108.64S2762.86,181.91,2762.86,122C2762.86,62.09,2811.6,13.36,2871.5,13.36 M2871.5,0.5
	C2804.4,0.5,2750,54.9,2750,122c0,67.1,54.4,121.5,121.5,121.5S2993,189.1,2993,122C2993,54.9,2938.6,0.5,2871.5,0.5"/>
</svg>
