<svg width="180" height="43" viewBox="0 0 180 43" fill="none" xmlns="http://www.w3.org/2000/svg">
<path d="M69.0723 12.9082C69.1224 13.8034 69.3337 14.5303 69.7061 15.0889C70.415 16.1344 71.6647 16.6572 73.4551 16.6572C74.2572 16.6572 74.9876 16.5426 75.6465 16.3135C76.9212 15.8695 77.5586 15.0745 77.5586 13.9287C77.5586 13.0693 77.29 12.457 76.7529 12.0918C76.2087 11.7337 75.3564 11.4222 74.1963 11.1572L72.0586 10.6738C70.6621 10.3587 69.6738 10.0114 69.0938 9.63184C68.0911 8.97298 67.5898 7.98828 67.5898 6.67773C67.5898 5.25977 68.0804 4.09603 69.0615 3.18652C70.0426 2.27702 71.432 1.82227 73.2295 1.82227C74.8838 1.82227 76.2874 2.22331 77.4404 3.02539C78.6006 3.82031 79.1807 5.09505 79.1807 6.84961H77.1719C77.0645 6.00456 76.8353 5.35645 76.4844 4.90527C75.8327 4.08171 74.7262 3.66992 73.165 3.66992C71.9046 3.66992 70.9987 3.9349 70.4473 4.46484C69.8958 4.99479 69.6201 5.61068 69.6201 6.3125C69.6201 7.08594 69.9424 7.65169 70.5869 8.00977C71.0094 8.23893 71.9655 8.52539 73.4551 8.86914L75.668 9.37402C76.735 9.61751 77.5586 9.95052 78.1387 10.373C79.1413 11.1107 79.6426 12.1813 79.6426 13.585C79.6426 15.3324 79.0052 16.582 77.7305 17.334C76.4629 18.0859 74.9876 18.4619 73.3047 18.4619C71.3424 18.4619 69.8063 17.9606 68.6963 16.958C67.5863 15.9626 67.042 14.6126 67.0635 12.9082H69.0723ZM86.8828 6.2373C87.6992 6.2373 88.4906 6.43066 89.2568 6.81738C90.0231 7.19694 90.6068 7.69108 91.0078 8.2998C91.3945 8.87988 91.6523 9.55664 91.7812 10.3301C91.8958 10.86 91.9531 11.7051 91.9531 12.8652H83.5205C83.5563 14.0326 83.832 14.9707 84.3477 15.6797C84.8633 16.3815 85.6618 16.7324 86.7432 16.7324C87.7529 16.7324 88.5586 16.3994 89.1602 15.7334C89.5039 15.3467 89.7474 14.8991 89.8906 14.3906H91.792C91.7419 14.8132 91.5736 15.2858 91.2871 15.8086C91.0078 16.3242 90.6927 16.7467 90.3418 17.0762C89.7546 17.6491 89.0277 18.0358 88.1611 18.2363C87.6956 18.3509 87.1693 18.4082 86.582 18.4082C85.1497 18.4082 83.9359 17.889 82.9404 16.8506C81.945 15.805 81.4473 14.3441 81.4473 12.4678C81.4473 10.6201 81.9486 9.11979 82.9512 7.9668C83.9538 6.8138 85.2643 6.2373 86.8828 6.2373ZM89.9658 11.3291C89.887 10.4912 89.7044 9.82161 89.418 9.32031C88.888 8.38932 88.0036 7.92383 86.7646 7.92383C85.8766 7.92383 85.1318 8.24609 84.5303 8.89062C83.9287 9.52799 83.61 10.3408 83.5742 11.3291H89.9658ZM94.3916 6.49512H96.2285V8.48242C96.3789 8.0957 96.7477 7.62663 97.335 7.0752C97.9222 6.5166 98.599 6.2373 99.3652 6.2373C99.401 6.2373 99.4619 6.24089 99.5479 6.24805C99.6338 6.25521 99.7806 6.26953 99.9883 6.29102V8.33203C99.8737 8.31055 99.7663 8.29622 99.666 8.28906C99.5729 8.2819 99.4691 8.27832 99.3545 8.27832C98.3805 8.27832 97.6322 8.59342 97.1094 9.22363C96.5866 9.84668 96.3252 10.5664 96.3252 11.3828V18H94.3916V6.49512ZM102.609 6.49512L105.682 15.8623L108.894 6.49512H111.01L106.67 18H104.607L100.364 6.49512H102.609ZM112.664 6.54883H114.63V18H112.664V6.54883ZM112.664 2.21973H114.63V4.41113H112.664V2.21973ZM121.999 6.16211C123.295 6.16211 124.348 6.47721 125.157 7.10742C125.974 7.73763 126.464 8.82259 126.629 10.3623H124.749C124.634 9.65332 124.373 9.06608 123.965 8.60059C123.557 8.12793 122.901 7.8916 121.999 7.8916C120.767 7.8916 119.886 8.49316 119.356 9.69629C119.013 10.4769 118.841 11.4401 118.841 12.5859C118.841 13.7389 119.084 14.7093 119.571 15.4971C120.058 16.2848 120.825 16.6787 121.87 16.6787C122.672 16.6787 123.306 16.4352 123.771 15.9482C124.244 15.4541 124.57 14.7809 124.749 13.9287H126.629C126.414 15.4541 125.877 16.5713 125.018 17.2803C124.158 17.9821 123.059 18.333 121.72 18.333C120.216 18.333 119.016 17.7852 118.121 16.6895C117.226 15.5866 116.778 14.2116 116.778 12.5645C116.778 10.5449 117.269 8.97298 118.25 7.84863C119.231 6.72428 120.481 6.16211 121.999 6.16211ZM133.354 6.2373C134.17 6.2373 134.961 6.43066 135.728 6.81738C136.494 7.19694 137.077 7.69108 137.479 8.2998C137.865 8.87988 138.123 9.55664 138.252 10.3301C138.367 10.86 138.424 11.7051 138.424 12.8652H129.991C130.027 14.0326 130.303 14.9707 130.818 15.6797C131.334 16.3815 132.132 16.7324 133.214 16.7324C134.224 16.7324 135.029 16.3994 135.631 15.7334C135.975 15.3467 136.218 14.8991 136.361 14.3906H138.263C138.213 14.8132 138.044 15.2858 137.758 15.8086C137.479 16.3242 137.163 16.7467 136.812 17.0762C136.225 17.6491 135.498 18.0358 134.632 18.2363C134.166 18.3509 133.64 18.4082 133.053 18.4082C131.62 18.4082 130.407 17.889 129.411 16.8506C128.416 15.805 127.918 14.3441 127.918 12.4678C127.918 10.6201 128.419 9.11979 129.422 7.9668C130.424 6.8138 131.735 6.2373 133.354 6.2373ZM136.437 11.3291C136.358 10.4912 136.175 9.82161 135.889 9.32031C135.359 8.38932 134.474 7.92383 133.235 7.92383C132.347 7.92383 131.603 8.24609 131.001 8.89062C130.399 9.52799 130.081 10.3408 130.045 11.3291H136.437ZM73.6055 28.8906C74.5078 28.8906 75.2096 28.7653 75.7109 28.5146C76.4987 28.1208 76.8926 27.4118 76.8926 26.3877C76.8926 25.3564 76.4736 24.6618 75.6357 24.3037C75.1631 24.1032 74.4613 24.0029 73.5303 24.0029H69.7168V28.8906H73.6055ZM74.3252 36.1738C75.6357 36.1738 76.5703 35.7943 77.1289 35.0352C77.4798 34.5553 77.6553 33.9753 77.6553 33.2949C77.6553 32.1491 77.1432 31.3685 76.1191 30.9531C75.5749 30.7311 74.8551 30.6201 73.96 30.6201H69.7168V36.1738H74.3252ZM67.6221 22.2197H74.4004C76.248 22.2197 77.5622 22.7712 78.3428 23.874C78.8011 24.5257 79.0303 25.2777 79.0303 26.1299C79.0303 27.1253 78.7474 27.9417 78.1816 28.5791C77.888 28.9157 77.4655 29.2236 76.9141 29.5029C77.7233 29.8109 78.3285 30.1582 78.7295 30.5449C79.4385 31.2324 79.793 32.1813 79.793 33.3916C79.793 34.4085 79.4743 35.3288 78.8369 36.1523C77.8844 37.3841 76.3698 38 74.293 38H67.6221V22.2197ZM82.1455 26.4951H83.9824V28.4824C84.1328 28.0957 84.5016 27.6266 85.0889 27.0752C85.6761 26.5166 86.3529 26.2373 87.1191 26.2373C87.1549 26.2373 87.2158 26.2409 87.3018 26.248C87.3877 26.2552 87.5345 26.2695 87.7422 26.291V28.332C87.6276 28.3105 87.5202 28.2962 87.4199 28.2891C87.3268 28.2819 87.223 28.2783 87.1084 28.2783C86.1344 28.2783 85.3861 28.5934 84.8633 29.2236C84.3405 29.8467 84.0791 30.5664 84.0791 31.3828V38H82.1455V26.4951ZM90.9004 34.9385C90.9004 35.4971 91.1045 35.9375 91.5127 36.2598C91.9209 36.582 92.4043 36.7432 92.9629 36.7432C93.6432 36.7432 94.3021 36.5856 94.9395 36.2705C96.0137 35.7477 96.5508 34.8919 96.5508 33.7031V32.1455C96.3145 32.2959 96.0101 32.4212 95.6377 32.5215C95.2653 32.6217 94.9001 32.6934 94.542 32.7363L93.3711 32.8867C92.6693 32.9798 92.1429 33.1266 91.792 33.3271C91.1976 33.6637 90.9004 34.2008 90.9004 34.9385ZM95.584 31.0283C96.028 30.971 96.3252 30.7848 96.4756 30.4697C96.5615 30.2979 96.6045 30.0508 96.6045 29.7285C96.6045 29.0697 96.3682 28.5934 95.8955 28.2998C95.43 27.999 94.7604 27.8486 93.8867 27.8486C92.877 27.8486 92.1608 28.1208 91.7383 28.665C91.502 28.9658 91.348 29.4134 91.2764 30.0078H89.4717C89.5075 28.5898 89.9658 27.6051 90.8467 27.0537C91.7347 26.4951 92.7624 26.2158 93.9297 26.2158C95.2832 26.2158 96.3825 26.4736 97.2275 26.9893C98.0654 27.5049 98.4844 28.307 98.4844 29.3955V36.0234C98.4844 36.224 98.5238 36.3851 98.6025 36.5068C98.6885 36.6286 98.8639 36.6895 99.1289 36.6895C99.2148 36.6895 99.3115 36.6859 99.4189 36.6787C99.5264 36.6644 99.641 36.6465 99.7627 36.625V38.0537C99.4619 38.1396 99.2327 38.1934 99.0752 38.2148C98.9176 38.2363 98.7028 38.2471 98.4307 38.2471C97.7646 38.2471 97.2812 38.0107 96.9805 37.5381C96.8229 37.2874 96.7119 36.9329 96.6475 36.4746C96.2536 36.9902 95.6878 37.4378 94.9502 37.8174C94.2126 38.1969 93.3997 38.3867 92.5117 38.3867C91.4447 38.3867 90.571 38.0645 89.8906 37.4199C89.2174 36.7682 88.8809 35.9554 88.8809 34.9814C88.8809 33.9144 89.2139 33.0872 89.8799 32.5C90.5459 31.9128 91.4196 31.5511 92.501 31.415L95.584 31.0283ZM101.664 26.4951H103.501V28.1279C104.045 27.4548 104.622 26.9714 105.23 26.6777C105.839 26.3841 106.516 26.2373 107.261 26.2373C108.894 26.2373 109.996 26.8066 110.569 27.9453C110.884 28.5684 111.042 29.46 111.042 30.6201V38H109.076V30.749C109.076 30.0472 108.972 29.4814 108.765 29.0518C108.421 28.3356 107.798 27.9775 106.896 27.9775C106.437 27.9775 106.061 28.0241 105.768 28.1172C105.238 28.2747 104.772 28.5898 104.371 29.0625C104.049 29.4421 103.838 29.8359 103.737 30.2441C103.644 30.6452 103.598 31.2217 103.598 31.9736V38H101.664V26.4951ZM115.135 32.3818C115.135 33.6136 115.396 34.6449 115.919 35.4756C116.442 36.3063 117.28 36.7217 118.433 36.7217C119.328 36.7217 120.062 36.3385 120.635 35.5723C121.215 34.7988 121.505 33.6924 121.505 32.2529C121.505 30.7992 121.208 29.7249 120.613 29.0303C120.019 28.3285 119.285 27.9775 118.411 27.9775C117.437 27.9775 116.646 28.3499 116.037 29.0947C115.436 29.8395 115.135 30.9352 115.135 32.3818ZM118.046 26.291C118.927 26.291 119.664 26.4772 120.259 26.8496C120.603 27.0645 120.993 27.4404 121.43 27.9775V22.166H123.288V38H121.548V36.3994C121.097 37.1084 120.563 37.6204 119.947 37.9355C119.331 38.2507 118.626 38.4082 117.831 38.4082C116.549 38.4082 115.439 37.8711 114.501 36.7969C113.563 35.7155 113.094 34.2796 113.094 32.4893C113.094 30.8135 113.52 29.3633 114.372 28.1387C115.231 26.9069 116.456 26.291 118.046 26.291ZM132.537 22.2197H134.675V36.1201H142.667V38H132.537V22.2197ZM149.091 36.7539C150.373 36.7539 151.25 36.2705 151.723 35.3037C152.202 34.3298 152.442 33.2484 152.442 32.0596C152.442 30.9854 152.271 30.1117 151.927 29.4385C151.382 28.3786 150.444 27.8486 149.112 27.8486C147.931 27.8486 147.071 28.2998 146.534 29.2021C145.997 30.1045 145.729 31.193 145.729 32.4678C145.729 33.6924 145.997 34.7129 146.534 35.5293C147.071 36.3457 147.924 36.7539 149.091 36.7539ZM149.166 26.1621C150.648 26.1621 151.902 26.6562 152.926 27.6445C153.95 28.6328 154.462 30.0866 154.462 32.0059C154.462 33.8607 154.011 35.3932 153.108 36.6035C152.206 37.8138 150.806 38.4189 148.908 38.4189C147.326 38.4189 146.069 37.8854 145.138 36.8184C144.207 35.7441 143.741 34.3047 143.741 32.5C143.741 30.5664 144.232 29.0267 145.213 27.8809C146.194 26.735 147.512 26.1621 149.166 26.1621ZM160.832 26.291C161.734 26.291 162.522 26.513 163.195 26.957C163.561 27.2077 163.933 27.5729 164.312 28.0527V26.6025H166.096V37.0654C166.096 38.5264 165.881 39.6794 165.451 40.5244C164.649 42.0856 163.134 42.8662 160.907 42.8662C159.668 42.8662 158.626 42.5869 157.781 42.0283C156.936 41.4769 156.464 40.6104 156.363 39.4287H158.329C158.422 39.9443 158.608 40.3418 158.888 40.6211C159.325 41.0508 160.012 41.2656 160.95 41.2656C162.433 41.2656 163.403 40.7428 163.861 39.6973C164.133 39.0814 164.259 37.9821 164.237 36.3994C163.851 36.9867 163.385 37.4235 162.841 37.71C162.297 37.9964 161.577 38.1396 160.682 38.1396C159.436 38.1396 158.343 37.6992 157.405 36.8184C156.474 35.9303 156.009 34.4658 156.009 32.4248C156.009 30.4984 156.478 28.9945 157.416 27.9131C158.361 26.8317 159.5 26.291 160.832 26.291ZM164.312 32.1992C164.312 30.7741 164.019 29.7178 163.432 29.0303C162.844 28.3428 162.096 27.999 161.187 27.999C159.826 27.999 158.895 28.6364 158.394 29.9111C158.129 30.5915 157.996 31.4831 157.996 32.5859C157.996 33.8822 158.257 34.8704 158.78 35.5508C159.31 36.224 160.019 36.5605 160.907 36.5605C162.297 36.5605 163.274 35.9339 163.84 34.6807C164.155 33.9717 164.312 33.1445 164.312 32.1992ZM173.583 36.7539C174.865 36.7539 175.742 36.2705 176.215 35.3037C176.695 34.3298 176.935 33.2484 176.935 32.0596C176.935 30.9854 176.763 30.1117 176.419 29.4385C175.875 28.3786 174.937 27.8486 173.604 27.8486C172.423 27.8486 171.563 28.2998 171.026 29.2021C170.489 30.1045 170.221 31.193 170.221 32.4678C170.221 33.6924 170.489 34.7129 171.026 35.5293C171.563 36.3457 172.416 36.7539 173.583 36.7539ZM173.658 26.1621C175.141 26.1621 176.394 26.6562 177.418 27.6445C178.442 28.6328 178.954 30.0866 178.954 32.0059C178.954 33.8607 178.503 35.3932 177.601 36.6035C176.698 37.8138 175.298 38.4189 173.4 38.4189C171.818 38.4189 170.561 37.8854 169.63 36.8184C168.699 35.7441 168.233 34.3047 168.233 32.5C168.233 30.5664 168.724 29.0267 169.705 27.8809C170.686 26.735 172.004 26.1621 173.658 26.1621Z" fill="black"/>
<rect y="2" width="15" height="36" fill="#624691"/>
<rect x="20" y="2" width="15" height="36" fill="#49943C"/>
<rect x="40" y="2" width="15" height="36" fill="#EB6B24"/>
</svg>
