<svg version="1" xmlns="http://www.w3.org/2000/svg" width="933.333" height="933.333" viewBox="0 0 700.000000 700.000000"><path d="M88.6 41.6C61.9 47.4 44 69.5 41.3 100.2c-1.6 18.1-.7 53.9 1.7 73.8.6 4.7 1.3 10.3 1.5 12.5.4 3.7 1.1 8.3 2 14.5.8 4.9 4.4 25.5 4.9 28 .3 1.4 1.3 6.1 2.2 10.5 3.7 18.4 10.1 43.3 16.5 63.5 4.4 13.8 12.1 35 12.8 34.9.3 0 4.4-5.9 9.1-13.1 13.1-20.1 33.6-46.9 51.3-67.3 14.1-16.1 48.6-49.5 64.2-62.1 3.3-2.7 6.6-5.5 7.4-6.3 6.9-6.5 45.4-33.4 63.7-44.5 31.1-18.9 72.2-39 108.9-53.2 14.3-5.5 48.6-17 64-21.5 15.3-4.4 63.7-16.3 74.5-18.3 1.4-.3 5.2-1 8.5-1.6 3.3-.6 11.6-2.2 18.5-3.5 6.9-1.3 14.1-2.6 16-2.9 1.9-.2 7.2-1 11.8-1.6 4.5-.7 8.2-1.4 8.2-1.6 0-.2-111-.4-246.7-.3-213.6.1-247.7.3-253.7 1.5z"/><path d="M650.8 80c-2.6.5-8 1.1-11.9 1.4-3.9.4-8.5.8-10.2 1.1-1.8.2-5.4.7-8.2 1-6.3.8-9.6 1.3-14.3 2-2 .2-5.7.7-8.2 1-2.5.3-7.2 1-10.5 1.5s-7.7 1.2-9.9 1.6c-2.1.3-4.8.8-6 1-1.1.2-6.1 1.1-11 2-11.7 2-40.5 7.9-48.1 9.8-3.3.8-7.1 1.7-8.5 2-19.9 3.6-91.4 26.2-109.5 34.6-1.1.5-4.5 1.9-7.5 3.1-3 1.1-8.2 3.3-11.5 4.8-3.3 1.5-8.5 3.8-11.5 5.2-17.3 7.7-51.4 26.1-69.3 37.6-9.8 6.2-28.1 18.5-28.7 19.3-.3.3-3.9 3-8 6-8.6 6.3-7.3 5.3-25 20.1-14 11.8-40.9 38-52.1 50.7-3.5 4.1-6.9 7.9-7.4 8.5-16.7 18.5-41.2 52.6-59.4 82.9l-8.3 13.6 3.6 6.2c2 3.3 3.6 6.2 3.6 6.4 0 .8 10.5 18.4 18 30.1 28.4 44.6 68.6 87.8 111 119.2 30.5 22.5 65.9 42.7 100.5 57.3 9.4 3.9 17.9 7.6 19 8 1.9.9 19.5 7 30 10.5 6 2 38.9 11.3 41.9 11.9 1.1.2 7.1 1.5 13.1 2.9 12 2.8 35.3 7.3 42.5 8.2 2.5.3 5.2.8 6 1 1.4.4 5.9 1 16.5 2.1 2.8.3 5.7.7 6.5.9.8.2 4.7.7 8.5 1 3.9.4 8.4.9 10 1.1 9.6 1.3 24.4 1.9 42.5 1.8 19.2-.1 21.1-.3 29.5-2.8 5-1.5 12.1-4.4 15.9-6.4 9-4.8 21-16.5 25.4-25 3.1-5.7 8.6-20.2 7.7-20.2-.2 0 .1-1.5.6-3.3.5-1.7 1.2-6.6 1.5-10.7.5-5.6.9-497.8.5-509.8-.1-2.4-1.1-2.6-9.3-1.2zM40.5 342c0 40.1.1 72.7.3 72.5.2-.2 4.3-8.1 9.2-17.7 4.8-9.5 11.5-22 14.7-27.8 4.1-7.1 5.7-11 5.1-12-5.2-9.6-24.6-68.8-27.3-83.3-.4-2-1-3.9-1.4-4.1-.3-.2-.6 32.4-.6 72.4z"/><path d="M86.6 427.2C71.9 457.3 58 490.1 45.9 523l-5.3 14.5v60.7l-.1 60.6 140 .2c77 .1 164.2.2 193.7.3 29.6 0 54-.1 54.3-.4.3-.3-2.1-1.2-5.2-1.9-20.7-4.5-60-17.6-86.8-28.9-13.5-5.7-42.2-19.9-53.2-26.2-4.8-2.8-10.4-6-12.3-7.1-6.4-3.6-31.4-20.5-40.5-27.3-37.1-27.8-72.4-63.6-99.7-101-10.9-15.1-25.1-37.3-31.9-50-1.5-2.7-3.1-5-3.5-5.2-.5-.1-4.4 7-8.8 15.9z"/></svg>