<svg id="Artwork_16x16" data-name="Artwork 16x16" xmlns="http://www.w3.org/2000/svg" viewBox="0 0 12 12" fill="#4263c2"><path d="M13.85,7.65l-2.5-2.5a.5.5,0,0,0-.71,0,.48.48,0,0,0-.15.36V7h-3a.5.5,0,0,0-.5.5v1a.5.5,0,0,0,.5.5h3v1.5A.49.49,0,0,0,11,11a.48.48,0,0,0,.34-.14l2.51-2.5a.49.49,0,0,0,0-.68Z" transform="translate(-2 -2)"/><path d="M8.5,14h-6a.5.5,0,0,1-.5-.5V2.5A.5.5,0,0,1,2.5,2h6a.5.5,0,0,1,.5.5V3a.5.5,0,0,1-.5.5h-5v9h5A.5.5,0,0,1,9,13v.5A.5.5,0,0,1,8.5,14Z" transform="translate(-2 -2)"/></svg>