<svg viewBox="0 0 30 32" xmlns="http://www.w3.org/2000/svg"><defs><linearGradient x1="0%" y1="50.1%" y2="50.1%" id="a"><stop stop-color="#783D8F" offset="0%"/><stop stop-color="#682782" offset="100%"/></linearGradient><linearGradient x1="38.2%" y1="-30.3%" x2="51.4%" y2="58.5%" id="b"><stop stop-color="#FFF" offset="0%"/><stop stop-color="#FFF" stop-opacity=".8" offset="100%"/></linearGradient><linearGradient x1="34.2%" y1="7.2%" x2="68.2%" y2="63.6%" id="c"><stop stop-color="#FFF" offset="0%"/><stop stop-color="#FFF" stop-opacity=".8" offset="100%"/></linearGradient><linearGradient x1="63.5%" y1="68.7%" x2="35.3%" y2="29.5%" id="d"><stop stop-color="#FFF" offset="0%"/><stop stop-color="#FFF" stop-opacity=".8" offset="100%"/></linearGradient><linearGradient x1="82.9%" y1="50.1%" x2="1.4%" y2="50.1%" id="e"><stop stop-color="#FFF" offset="0%"/><stop stop-color="#FFF" stop-opacity=".5" offset="100%"/></linearGradient><linearGradient x1="50%" y1="185.4%" x2="50%" y2="280.3%" id="f"><stop stop-color="#1E1E1C" offset="0%"/><stop stop-color="#1E1E1C" stop-opacity="0" offset="100%"/></linearGradient><linearGradient x1="-.9%" y1="49.9%" x2="99.7%" y2="49.9%" id="g"><stop stop-color="#FFF" offset="0%"/><stop stop-color="#FFF" stop-opacity=".8" offset="100%"/></linearGradient><linearGradient x1="-302.6%" y1="50%" x2="-206.7%" y2="50%" id="h"><stop stop-color="#1E1E1C" offset="0%"/><stop stop-color="#1E1E1C" stop-opacity="0" offset="100%"/></linearGradient></defs><g fill="none" fill-rule="evenodd"><path d="M12.3 16.1v2.6h-6V6.3h6v2.5h6.2V6.3L12.3 0h-6L.2 6.3v12.4L6.4 25h5.9l6.2-6.2V16h-6.2z" fill="url(#a)" opacity=".6"/><path fill="url(#b)" d="M12.3 16.1h6.2v2.5h-6.2z"/><path fill="url(#c)" d="M.2 18.7l6.2 6.1V6.3H.2z"/><path fill="url(#d)" d="M18.5 18.6l-6.2 6.2H6.4v-6.2z"/><path fill="url(#e)" d="M12.3 8.8h6.2V6.2L12.3.1z"/><path d="M15.6 29.5l1 .1c0 .7-.3 1.2-.7 1.7-1 1-2.2 1-3.3-.2l-.2-.2c-1.3-1.4-1-2.6-.2-3.3a2 2 0 0 1 2-.5l-.2 1c-1.2-.2-2 .7-.6 2 1.2 1.3 2.1.6 2.2-.6zm4.3-2.3c-2.4-2.5-1.9-2-2.7-2.5l.7-.8.4.3c-.1-.4 0-.8.3-1.1.5-.5 1.1-.6 1.7 0l1.8 1.8-.8.9c-1.9-1.8-2-2-2.3-1.8-.2.2-.1.5 0 .7l1.7 1.6-.8.9zm2.1-3.7c.5-.1 1.4-.6 1-1-.3-.3-1.2 1-2.1.1-1-1 .2-2.4 1.5-2.5v.9c-.7 0-1 .5-.8.7.4.4 1.3-1 2.2 0 1 1-.5 2.4-1.5 2.6l-.3-.8zm2.8-6.4l2.6 2.6-.7.7-.3-.2c0 .4-.1.7-.4 1-.6.6-1.2.5-1.8 0l-1.7-1.8.8-.9c1.9 1.9 2 2.1 2.3 1.8.2-.2.2-.4 0-.6L23.9 18l.9-.9zm2.5 1.2c.5-.2 1.4-.6 1-1-.4-.3-1.3 1-2.2.1-1-1 .3-2.5 1.6-2.5v.8c-.8.2-1.1.6-.9.8.4.4 1.4-1 2.3 0 1 1-.6 2.4-1.5 2.6l-.3-.8zm-9 8.3L16.9 28c.7.6 1.4-.1 1.5-.9l.9.3c0 .6-1.6 3-3.4 1.2-.7-.7-1-1.8-.1-2.7 1-.9 2-.4 2.5.7zm-1.8.9l.6-.7c-.2-.3-.4-.5-.7-.3-.3.3-.2.7 0 1z" fill="#FFF" fill-rule="nonzero"/><path d="M12.3 6.3H.2a21 21 0 0 0 12.1 0z" fill="url(#f)" opacity=".5"/><path fill="url(#g)" d="M12.3.1H6.4L.2 6.3h12.1z"/><path d="M7 15.9c0-2.7-.3-5.5-.6-7.6v16.5c.4-3.2.8-6.5.7-9z" fill="url(#h)" opacity=".5"/><path d="M2.7 18.5l-.4-.7c0-.2 0-.3.3-.3s.4.1.7.3L4.6 19h.6v-2.7h-.8v1.4l-.8-.8c-.4-.3-.7-.5-1.1-.5-.6 0-1 .4-1 1.2 0 .5.2 1 .6 1.4l.6-.5zm-1.3-3.8c0 .8.6 1.4 1.9 1.4 1.3 0 1.9-.5 1.9-1.4 0-.9-.5-1.4-2-1.4-1.2 0-1.8.5-1.8 1.4zm3 0c0 .2-.2.4-1 .4-1 0-1.2-.2-1.2-.4 0-.3.3-.4 1.1-.4 1 0 1.2.1 1.2.4zm0-2h.8v-2.2h-.7v.6H2.2l-.7-.1v.8l.7 1.2.6-.4-.3-.6h2v.6zM2.4 10V8.8c.8.8 1.8.9 2.4.9h.4v-1h-.3c-.5 0-1.8 0-2.7-1.2h-.6v2.6h.8z" fill="#6D2D86" fill-rule="nonzero"/></g></svg>