<?xml version="1.0" encoding="UTF-8"?>
<svg width="18px" height="22px" viewBox="0 0 18 22" version="1.1" xmlns="http://www.w3.org/2000/svg" xmlns:xlink="http://www.w3.org/1999/xlink">
    <!-- Generator: Sketch 54.1 (76490) - https://sketchapp.com -->
    <title>Untitled 3</title>
    <desc>Created with Sketch.</desc>
    <g id="Page-1" stroke="none" stroke-width="1" fill="none" fill-rule="evenodd">
        <path d="M12.09375,8.015625 L12.09375,6 C12.09375,5.15624578 11.7890655,4.42969055 11.1796875,3.8203125 C10.5703095,3.21093445 9.84375422,2.90625 9,2.90625 C8.15624578,2.90625 7.42969055,3.21093445 6.8203125,3.8203125 C6.21093445,4.42969055 5.90625,5.15624578 5.90625,6 L5.90625,8.015625 L12.09375,8.015625 Z M7.59375,16.40625 C8.00000203,16.812502 8.46874734,17.015625 9,17.015625 C9.53125266,17.015625 9.99999797,16.812502 10.40625,16.40625 C10.812502,15.999998 11.015625,15.5312527 11.015625,15 C11.015625,14.4687473 10.812502,14.000002 10.40625,13.59375 C9.99999797,13.187498 9.53125266,12.984375 9,12.984375 C8.46874734,12.984375 8.00000203,13.187498 7.59375,13.59375 C7.18749797,14.000002 6.984375,14.4687473 6.984375,15 C6.984375,15.5312527 7.18749797,15.999998 7.59375,16.40625 Z M15,8.015625 C15.5312527,8.015625 15.999998,8.21093555 16.40625,8.6015625 C16.812502,8.99218945 17.015625,9.45312234 17.015625,9.984375 L17.015625,20.015625 C17.015625,20.5468777 16.812502,21.0078105 16.40625,21.3984375 C15.999998,21.7890645 15.5312527,21.984375 15,21.984375 L3,21.984375 C2.46874734,21.984375 2.00000203,21.7890645 1.59375,21.3984375 C1.18749797,21.0078105 0.984375,20.5468777 0.984375,20.015625 L0.984375,9.984375 C0.984375,9.45312234 1.18749797,8.99218945 1.59375,8.6015625 C2.00000203,8.21093555 2.46874734,8.015625 3,8.015625 L3.984375,8.015625 L3.984375,6 C3.984375,4.62499313 4.47655758,3.44531742 5.4609375,2.4609375 C6.44531742,1.47655758 7.62499312,0.984375 9,0.984375 C10.3750069,0.984375 11.5546826,1.47655758 12.5390625,2.4609375 C13.5234424,3.44531742 14.015625,4.62499313 14.015625,6 L14.015625,8.015625 L15,8.015625 Z" id="î¢" fill="#000000" fill-rule="nonzero"></path>
    </g>
</svg>
