<svg id="Layer_1" data-name="Layer 1" xmlns="http://www.w3.org/2000/svg" xmlns:xlink="http://www.w3.org/1999/xlink" viewBox="0 0 296 264.93"><defs><style>.cls-1,.cls-6{fill:none;}.cls-2{fill:#bbe1f2;opacity:0.7;}.cls-3{opacity:0.5;}.cls-4{fill:#4c8dcb;}.cls-5{fill:#0f8243;opacity:0.6;}.cls-6{stroke:#1d1d1b;}.cls-7{clip-path:url(#clip-path);}.cls-8{fill:#1d1d1b;}.cls-9{font-size:18px;font-family:Lato-Regular, Lato;}.cls-10{letter-spacing:-0.03em;}.cls-11{letter-spacing:-0.03em;}.cls-12{letter-spacing:0em;}</style><clipPath id="clip-path"><rect class="cls-1" x="96" y="215.67" width="387.08" height="45.01"/></clipPath></defs><title>eq-grid-300px</title><rect class="cls-2" width="296" height="8"/><g class="cls-3"><rect class="cls-2" y="8" width="296" height="8"/></g><rect class="cls-2" y="16" width="296" height="8"/><g class="cls-3"><rect class="cls-2" y="24" width="296" height="8"/></g><rect class="cls-2" y="32" width="296" height="8"/><g class="cls-3"><rect class="cls-2" y="40" width="296" height="8"/></g><rect class="cls-2" y="48" width="296" height="8"/><g class="cls-3"><rect class="cls-2" y="56" width="296" height="8"/></g><rect class="cls-2" y="80" width="140" height="8"/><g class="cls-3"><rect class="cls-2" y="88" width="140" height="8"/></g><rect class="cls-2" y="96" width="140" height="8"/><g class="cls-3"><rect class="cls-2" y="104" width="140" height="8"/></g><rect class="cls-2" y="112" width="140" height="8"/><g class="cls-3"><rect class="cls-2" y="120" width="140" height="8"/></g><rect class="cls-2" y="128" width="140" height="8"/><g class="cls-3"><rect class="cls-2" y="136" width="140" height="8"/></g><rect class="cls-2" y="160" width="88" height="8"/><g class="cls-3"><rect class="cls-2" y="168" width="88" height="8"/></g><rect class="cls-2" y="176" width="88" height="8"/><g class="cls-3"><rect class="cls-2" y="184" width="88" height="8"/></g><rect class="cls-2" y="192" width="88" height="8"/><g class="cls-3"><rect class="cls-2" y="200" width="88" height="8"/></g><rect class="cls-2" y="208" width="88" height="8"/><g class="cls-3"><rect class="cls-2" y="216" width="88" height="8"/></g><rect class="cls-2" x="104" y="160" width="88" height="8"/><g class="cls-3"><rect class="cls-2" x="104" y="168" width="88" height="8"/></g><rect class="cls-2" x="104" y="176" width="88" height="8"/><g class="cls-3"><rect class="cls-2" x="104" y="184" width="88" height="8"/></g><rect class="cls-2" x="104" y="192" width="88" height="8"/><g class="cls-3"><rect class="cls-2" x="104" y="200" width="88" height="8"/></g><rect class="cls-2" x="104" y="208" width="88" height="8"/><g class="cls-3"><rect class="cls-2" x="104" y="216" width="88" height="8"/></g><rect class="cls-2" x="208" y="160" width="88" height="8"/><g class="cls-3"><rect class="cls-2" x="208" y="168" width="88" height="8"/></g><rect class="cls-2" x="208" y="176" width="88" height="8"/><g class="cls-3"><rect class="cls-2" x="208" y="184" width="88" height="8"/></g><rect class="cls-2" x="208" y="192" width="88" height="8"/><g class="cls-3"><rect class="cls-2" x="208" y="200" width="88" height="8"/></g><rect class="cls-2" x="208" y="208" width="88" height="8"/><g class="cls-3"><rect class="cls-2" x="208" y="216" width="88" height="8"/></g><rect class="cls-2" x="156" y="80" width="140" height="8"/><g class="cls-3"><rect class="cls-2" x="156" y="88" width="140" height="8"/></g><rect class="cls-2" x="156" y="96" width="140" height="8"/><g class="cls-3"><rect class="cls-2" x="156" y="104" width="140" height="8"/></g><rect class="cls-2" x="156" y="112" width="140" height="8"/><g class="cls-3"><rect class="cls-2" x="156" y="120" width="140" height="8"/></g><rect class="cls-2" x="156" y="128" width="140" height="8"/><g class="cls-3"><rect class="cls-2" x="156" y="136" width="140" height="8"/></g><path class="cls-4" d="M9,1V223H1V1H9m1-1H0V224H10V0Z"/><path class="cls-4" d="M35,1V223H27V1h8m1-1H26V224H36V0Z"/><path class="cls-4" d="M61,1V223H53V1h8m1-1H52V224H62V0Z"/><path class="cls-4" d="M87,1V223H79V1h8m1-1H78V224H88V0Z"/><path class="cls-4" d="M113,1V223h-8V1h8m1-1H104V224h10V0Z"/><path class="cls-4" d="M139,1V223h-8V1h8m1-1H130V224h10V0Z"/><path class="cls-4" d="M165,1V223h-8V1h8m1-1H156V224h10V0Z"/><path class="cls-4" d="M191,1V223h-8V1h8m1-1H182V224h10V0Z"/><path class="cls-4" d="M217,1V223h-8V1h8m1-1H208V224h10V0Z"/><path class="cls-4" d="M243,1V223h-8V1h8m1-1H234V224h10V0Z"/><path class="cls-4" d="M269,1V223h-8V1h8m1-1H260V224h10V0Z"/><path class="cls-4" d="M295,1V223h-8V1h8m1-1H286V224h10V0Z"/><rect class="cls-5" x="88" width="16" height="250.48"/><line class="cls-6" x1="98.64" y1="244.39" x2="130" y2="244.39"/><g class="cls-7"><path class="cls-8" d="M98.64,247A2.64,2.64,0,1,0,96,244.39,2.64,2.64,0,0,0,98.64,247"/></g><text class="cls-9" transform="translate(147 249.25)">16<tspan class="cls-10" x="20.88" y="0">p</tspan><tspan x="30.28" y="0">x fi</tspan><tspan class="cls-11" x="53.08" y="0">x</tspan><tspan class="cls-12" x="61.61" y="0">ed margin</tspan></text></svg>