<svg id="Layer_2" data-name="Layer 2" xmlns="http://www.w3.org/2000/svg" xmlns:xlink="http://www.w3.org/1999/xlink" viewBox="0 0 984 460.26"><defs><style>.cls-1,.cls-6{fill:none;}.cls-2{fill:#bbe2f3;opacity:0.7;}.cls-3{opacity:0.5;}.cls-4{fill:#4c8dcb;}.cls-5{fill:#0f8243;opacity:0.6;}.cls-6{stroke:#1d1d1b;}.cls-7{clip-path:url(#clip-path);}.cls-8{fill:#1d1d1b;}.cls-9{font-size:18px;fill:#222;font-family:Lato-Regular, Lato;}.cls-10{letter-spacing:-0.03em;}.cls-11{letter-spacing:-0.03em;}.cls-12{letter-spacing:0em;}</style><clipPath id="clip-path"><rect class="cls-1" x="323" y="410.16" width="387.08" height="45.01"/></clipPath></defs><title>eq-grid-600-1000px</title><rect class="cls-2" width="984" height="8"/><g class="cls-3"><rect class="cls-2" y="8" width="984" height="8"/></g><rect class="cls-2" y="16" width="984" height="8"/><g class="cls-3"><rect class="cls-2" y="24" width="984" height="8"/></g><rect class="cls-2" y="32" width="984" height="8"/><g class="cls-3"><rect class="cls-2" y="40" width="984" height="8"/></g><rect class="cls-2" y="48" width="984" height="8"/><g class="cls-3"><rect class="cls-2" y="56" width="984" height="8"/></g><rect class="cls-2" y="88" width="480" height="8"/><g class="cls-3"><rect class="cls-2" y="96" width="480" height="8"/></g><rect class="cls-2" y="104" width="480" height="8"/><g class="cls-3"><rect class="cls-2" y="112" width="480" height="8"/></g><rect class="cls-2" y="120" width="480" height="8"/><g class="cls-3"><rect class="cls-2" y="128" width="480" height="8"/></g><rect class="cls-2" y="136" width="480" height="8"/><g class="cls-3"><rect class="cls-2" y="144" width="480" height="8"/></g><rect class="cls-2" x="504" y="88" width="480" height="8"/><g class="cls-3"><rect class="cls-2" x="504" y="96" width="480" height="8"/></g><rect class="cls-2" x="504" y="104" width="480" height="8"/><g class="cls-3"><rect class="cls-2" x="504" y="112" width="480" height="8"/></g><rect class="cls-2" x="504" y="120" width="480" height="8"/><g class="cls-3"><rect class="cls-2" x="504" y="128" width="480" height="8"/></g><rect class="cls-2" x="504" y="136" width="480" height="8"/><g class="cls-3"><rect class="cls-2" x="504" y="144" width="480" height="8"/></g><rect class="cls-2" y="176" width="312" height="8"/><g class="cls-3"><rect class="cls-2" y="184" width="312" height="8"/></g><rect class="cls-2" y="192" width="312" height="8"/><g class="cls-3"><rect class="cls-2" y="200" width="312" height="8"/></g><rect class="cls-2" y="208" width="312" height="8"/><g class="cls-3"><rect class="cls-2" y="216" width="312" height="8"/></g><rect class="cls-2" y="224" width="312" height="8"/><g class="cls-3"><rect class="cls-2" y="232" width="312" height="8"/></g><rect class="cls-2" y="264" width="228" height="8"/><g class="cls-3"><rect class="cls-2" y="272" width="228" height="8"/></g><rect class="cls-2" y="280" width="228" height="8"/><g class="cls-3"><rect class="cls-2" y="288" width="228" height="8"/></g><rect class="cls-2" y="296" width="228" height="8"/><g class="cls-3"><rect class="cls-2" y="304" width="228" height="8"/></g><rect class="cls-2" y="312" width="228" height="8"/><g class="cls-3"><rect class="cls-2" y="320" width="228" height="8"/></g><rect class="cls-2" y="352" width="144" height="8"/><g class="cls-3"><rect class="cls-2" y="360" width="144" height="8"/></g><rect class="cls-2" y="368" width="144" height="8"/><g class="cls-3"><rect class="cls-2" y="376" width="144" height="8"/></g><rect class="cls-2" y="384" width="144" height="8"/><g class="cls-3"><rect class="cls-2" y="392" width="144" height="8"/></g><rect class="cls-2" y="400" width="144" height="8"/><g class="cls-3"><rect class="cls-2" y="408" width="144" height="8"/></g><rect class="cls-2" x="168" y="352" width="144" height="8"/><g class="cls-3"><rect class="cls-2" x="168" y="360" width="144" height="8"/></g><rect class="cls-2" x="168" y="368" width="144" height="8"/><g class="cls-3"><rect class="cls-2" x="168" y="376" width="144" height="8"/></g><rect class="cls-2" x="168" y="384" width="144" height="8"/><g class="cls-3"><rect class="cls-2" x="168" y="392" width="144" height="8"/></g><rect class="cls-2" x="168" y="400" width="144" height="8"/><g class="cls-3"><rect class="cls-2" x="168" y="408" width="144" height="8"/></g><rect class="cls-2" x="336" y="352" width="144" height="8"/><g class="cls-3"><rect class="cls-2" x="336" y="360" width="144" height="8"/></g><rect class="cls-2" x="336" y="368" width="144" height="8"/><g class="cls-3"><rect class="cls-2" x="336" y="376" width="144" height="8"/></g><rect class="cls-2" x="336" y="384" width="144" height="8"/><g class="cls-3"><rect class="cls-2" x="336" y="392" width="144" height="8"/></g><rect class="cls-2" x="336" y="400" width="144" height="8"/><g class="cls-3"><rect class="cls-2" x="336" y="408" width="144" height="8"/></g><rect class="cls-2" x="504" y="352" width="144" height="8"/><g class="cls-3"><rect class="cls-2" x="504" y="360" width="144" height="8"/></g><rect class="cls-2" x="504" y="368" width="144" height="8"/><g class="cls-3"><rect class="cls-2" x="504" y="376" width="144" height="8"/></g><rect class="cls-2" x="504" y="384" width="144" height="8"/><g class="cls-3"><rect class="cls-2" x="504" y="392" width="144" height="8"/></g><rect class="cls-2" x="504" y="400" width="144" height="8"/><g class="cls-3"><rect class="cls-2" x="504" y="408" width="144" height="8"/></g><rect class="cls-2" x="672" y="352" width="144" height="8"/><g class="cls-3"><rect class="cls-2" x="672" y="360" width="144" height="8"/></g><rect class="cls-2" x="672" y="368" width="144" height="8"/><g class="cls-3"><rect class="cls-2" x="672" y="376" width="144" height="8"/></g><rect class="cls-2" x="672" y="384" width="144" height="8"/><g class="cls-3"><rect class="cls-2" x="672" y="392" width="144" height="8"/></g><rect class="cls-2" x="672" y="400" width="144" height="8"/><g class="cls-3"><rect class="cls-2" x="672" y="408" width="144" height="8"/></g><rect class="cls-2" x="840" y="352" width="144" height="8"/><g class="cls-3"><rect class="cls-2" x="840" y="360" width="144" height="8"/></g><rect class="cls-2" x="840" y="368" width="144" height="8"/><g class="cls-3"><rect class="cls-2" x="840" y="376" width="144" height="8"/></g><rect class="cls-2" x="840" y="384" width="144" height="8"/><g class="cls-3"><rect class="cls-2" x="840" y="392" width="144" height="8"/></g><rect class="cls-2" x="840" y="400" width="144" height="8"/><g class="cls-3"><rect class="cls-2" x="840" y="408" width="144" height="8"/></g><rect class="cls-2" x="252" y="264" width="228" height="8"/><g class="cls-3"><rect class="cls-2" x="252" y="272" width="228" height="8"/></g><rect class="cls-2" x="252" y="280" width="228" height="8"/><g class="cls-3"><rect class="cls-2" x="252" y="288" width="228" height="8"/></g><rect class="cls-2" x="252" y="296" width="228" height="8"/><g class="cls-3"><rect class="cls-2" x="252" y="304" width="228" height="8"/></g><rect class="cls-2" x="252" y="312" width="228" height="8"/><g class="cls-3"><rect class="cls-2" x="252" y="320" width="228" height="8"/></g><rect class="cls-2" x="504" y="264" width="228" height="8"/><g class="cls-3"><rect class="cls-2" x="504" y="272" width="228" height="8"/></g><rect class="cls-2" x="504" y="280" width="228" height="8"/><g class="cls-3"><rect class="cls-2" x="504" y="288" width="228" height="8"/></g><rect class="cls-2" x="504" y="296" width="228" height="8"/><g class="cls-3"><rect class="cls-2" x="504" y="304" width="228" height="8"/></g><rect class="cls-2" x="504" y="312" width="228" height="8"/><g class="cls-3"><rect class="cls-2" x="504" y="320" width="228" height="8"/></g><rect class="cls-2" x="756" y="264" width="228" height="8"/><g class="cls-3"><rect class="cls-2" x="756" y="272" width="228" height="8"/></g><rect class="cls-2" x="756" y="280" width="228" height="8"/><g class="cls-3"><rect class="cls-2" x="756" y="288" width="228" height="8"/></g><rect class="cls-2" x="756" y="296" width="228" height="8"/><g class="cls-3"><rect class="cls-2" x="756" y="304" width="228" height="8"/></g><rect class="cls-2" x="756" y="312" width="228" height="8"/><g class="cls-3"><rect class="cls-2" x="756" y="320" width="228" height="8"/></g><rect class="cls-2" x="336" y="176" width="312" height="8"/><g class="cls-3"><rect class="cls-2" x="336" y="184" width="312" height="8"/></g><rect class="cls-2" x="336" y="192" width="312" height="8"/><g class="cls-3"><rect class="cls-2" x="336" y="200" width="312" height="8"/></g><rect class="cls-2" x="336" y="208" width="312" height="8"/><g class="cls-3"><rect class="cls-2" x="336" y="216" width="312" height="8"/></g><rect class="cls-2" x="336" y="224" width="312" height="8"/><g class="cls-3"><rect class="cls-2" x="336" y="232" width="312" height="8"/></g><rect class="cls-2" x="672" y="176" width="312" height="8"/><g class="cls-3"><rect class="cls-2" x="672" y="184" width="312" height="8"/></g><rect class="cls-2" x="672" y="192" width="312" height="8"/><g class="cls-3"><rect class="cls-2" x="672" y="200" width="312" height="8"/></g><rect class="cls-2" x="672" y="208" width="312" height="8"/><g class="cls-3"><rect class="cls-2" x="672" y="216" width="312" height="8"/></g><rect class="cls-2" x="672" y="224" width="312" height="8"/><g class="cls-3"><rect class="cls-2" x="672" y="232" width="312" height="8"/></g><path class="cls-4" d="M59,1V415H1V1H59m1-1H0V416H60V0Z"/><path class="cls-4" d="M143,1V415H85V1h58m1-1H84V416h60V0Z"/><path class="cls-4" d="M227,1V415H169V1h58m1-1H168V416h60V0Z"/><path class="cls-4" d="M311,1V415H253V1h58m1-1H252V416h60V0Z"/><path class="cls-4" d="M395,1V415H337V1h58m1-1H336V416h60V0Z"/><path class="cls-4" d="M479,1V415H421V1h58m1-1H420V416h60V0Z"/><path class="cls-4" d="M563,1V415H505V1h58m1-1H504V416h60V0Z"/><path class="cls-4" d="M647,1V415H589V1h58m1-1H588V416h60V0Z"/><path class="cls-4" d="M731,1V415H673V1h58m1-1H672V416h60V0Z"/><path class="cls-4" d="M815,1V415H757V1h58m1-1H756V416h60V0Z"/><path class="cls-4" d="M899,1V415H841V1h58m1-1H840V416h60V0Z"/><path class="cls-4" d="M983,1V415H925V1h58m1-1H924V416h60V0Z"/><rect class="cls-5" x="312" width="24" height="453"/><line class="cls-6" x1="325.64" y1="438.88" x2="380.07" y2="438.88"/><g class="cls-7"><path class="cls-8" d="M325.64,441.53a2.64,2.64,0,1,0-2.64-2.64,2.64,2.64,0,0,0,2.64,2.64"/></g><text class="cls-9" transform="translate(394 443.75)">24<tspan class="cls-10" x="20.88" y="0">p</tspan><tspan x="30.28" y="0">x fi</tspan><tspan class="cls-11" x="53.08" y="0">x</tspan><tspan class="cls-12" x="61.61" y="0">ed margin</tspan></text></svg>