<svg id="Layer_1" data-name="Layer 1" xmlns="http://www.w3.org/2000/svg" xmlns:xlink="http://www.w3.org/1999/xlink" viewBox="0 0 1125 1105"><defs><clipPath id="clip-path" transform="translate(-17.76 -1.76)"><rect x="412.38" y="21.92" width="387.08" height="45.01" style="fill:none"/></clipPath></defs><title>eq-grid-responsive-large</title><g id="_1000px_grid" data-name=" 1000px grid"><rect x="71.62" width="60" height="91.99" style="fill:#bbe2f3;opacity:0.699999988079071;isolation:isolate"/><rect x="155.62" width="60" height="91.99" style="fill:#bbe2f3;opacity:0.699999988079071;isolation:isolate"/><rect x="239.62" width="60" height="91.99" style="fill:#bbe2f3;opacity:0.699999988079071;isolation:isolate"/><rect x="323.62" width="60" height="91.99" style="fill:#bbe2f3;opacity:0.699999988079071;isolation:isolate"/><rect x="407.62" width="60" height="91.99" style="fill:#bbe2f3;opacity:0.699999988079071;isolation:isolate"/><rect x="491.62" width="60" height="91.99" style="fill:#bbe2f3;opacity:0.699999988079071;isolation:isolate"/><rect x="575.62" width="60" height="91.99" style="fill:#bbe2f3;opacity:0.699999988079071;isolation:isolate"/><rect x="659.62" width="60" height="91.99" style="fill:#bbe2f3;opacity:0.699999988079071;isolation:isolate"/><rect x="743.62" width="60" height="91.99" style="fill:#bbe2f3;opacity:0.699999988079071;isolation:isolate"/><rect x="827.62" width="60" height="91.99" style="fill:#bbe2f3;opacity:0.699999988079071;isolation:isolate"/><rect x="911.62" width="60" height="91.99" style="fill:#bbe2f3;opacity:0.699999988079071;isolation:isolate"/><rect x="995.62" width="60" height="91.99" style="fill:#bbe2f3;opacity:0.699999988079071;isolation:isolate"/></g><g id="_1000px_grid_BG" data-name=" 1000px grid BG" style="opacity:0.20000000298023224"><rect x="71.62" y="92.49" width="60" height="1012" style="fill:#bbe2f3;opacity:0.699999988079071;isolation:isolate"/><rect x="155.62" y="92.49" width="60" height="1012" style="fill:#bbe2f3;opacity:0.699999988079071;isolation:isolate"/><rect x="239.62" y="92.49" width="60" height="1012" style="fill:#bbe2f3;opacity:0.699999988079071;isolation:isolate"/><rect x="323.62" y="92.49" width="60" height="1012" style="fill:#bbe2f3;opacity:0.699999988079071;isolation:isolate"/><rect x="407.62" y="92.49" width="60" height="1012" style="fill:#bbe2f3;opacity:0.699999988079071;isolation:isolate"/><rect x="491.62" y="92.49" width="60" height="1012" style="fill:#bbe2f3;opacity:0.699999988079071;isolation:isolate"/><rect x="575.62" y="92.49" width="60" height="1012" style="fill:#bbe2f3;opacity:0.699999988079071;isolation:isolate"/><rect x="659.62" y="92.49" width="60" height="1012" style="fill:#bbe2f3;opacity:0.699999988079071;isolation:isolate"/><rect x="743.62" y="92.49" width="60" height="1012" style="fill:#bbe2f3;opacity:0.699999988079071;isolation:isolate"/><rect x="827.62" y="92.49" width="60" height="1012" style="fill:#bbe2f3;opacity:0.699999988079071;isolation:isolate"/><rect x="911.62" y="92.49" width="60" height="1012" style="fill:#bbe2f3;opacity:0.699999988079071;isolation:isolate"/><rect x="995.62" y="92.49" width="60" height="1012" style="fill:#bbe2f3;opacity:0.699999988079071;isolation:isolate"/></g><g id="Question_screen_wireframe_" data-name="Question screen wireframe "><polyline points="1124.5 228.63 1124.5 1104.48 0.5 1104.48 0.5 228.63" style="fill:none;stroke:#d0d0d0;stroke-miterlimit:10"/><path d="M89.46,162.54c.69-1.44,1.42-2.85,2.22-4.21a46,46,0,0,1-2.21-6.79v11m4.3-27.8s-4.29,0-4.29,5.31v2.82a50.18,50.18,0,0,0,3.11,14,44.85,44.85,0,0,1,8.79-10.24c7-6,16.3-10.07,29-11.88Z" transform="translate(-17.76 -1.76)" style="fill:#a8bd3a"/><path d="M135.15,137.64c-14.52,1.38-24.44,5.53-31.54,11.6a42.5,42.5,0,0,0-9.31,11.45c5.57,10.81,16.19,18.76,33.91,19.92h1.72s5.45.18,5.45-5.87V137.6h-.23M97.82,168.4a37.6,37.6,0,0,1-4.32-6.3,67.72,67.72,0,0,0-4,9.46v8.95l29,.05c-9-2.17-15.83-6.49-20.66-12.15" transform="translate(-17.76 -1.76)" style="fill:#013e58"/><path d="M152.94,155.23c-4.44,0-6.43-3.68-6.43-8.21s2-8.21,6.43-8.21,6.41,3.73,6.41,8.21-2,8.21-6.41,8.21m0-15.13c-3.28,0-4.44,3.59-4.44,6.88s1.06,6.81,4.44,6.81,4.42-3.56,4.42-6.81-1.14-6.88-4.42-6.88" transform="translate(-17.76 -1.76)" style="fill:#013e58"/><path d="M164.87,143.64v11.29h-1.8V143.64h-1.84v-1.1h1.84v-1.79a3.62,3.62,0,0,1,3.32-3.9,3.88,3.88,0,0,1,.68,0h.42V138h-.21a2.29,2.29,0,0,0-2.38,2.2c0,.1,0,.21,0,.31v2h2.58v1.1Z" transform="translate(-17.76 -1.76)" style="fill:#013e58"/><path d="M172.29,143.64v11.29h-1.8V143.64h-1.84v-1.1h1.84v-1.79a3.62,3.62,0,0,1,3.32-3.9,3.88,3.88,0,0,1,.68,0h.42V138h-.21a2.29,2.29,0,0,0-2.38,2.2c0,.1,0,.21,0,.31v2h2.58v1.1Z" transform="translate(-17.76 -1.76)" style="fill:#013e58"/><path d="M177.84,140.17a1.11,1.11,0,0,1-1.14-1.08v0a1.14,1.14,0,0,1,2.28,0,1.11,1.11,0,0,1-1.12,1.1h0m-.91,2.37h1.82v12.4h-1.82Z" transform="translate(-17.76 -1.76)" style="fill:#013e58"/><path d="M186.49,155.23c-2.94,0-5.2-2.53-5.2-6.51s2.26-6.49,5.27-6.49a4.78,4.78,0,0,1,3,.85l-.47,1.1a3.71,3.71,0,0,0-2.16-.67c-2.52,0-3.81,2.18-3.81,5.13s1.48,5.2,3.74,5.2a3.93,3.93,0,0,0,2.2-.67l.49,1.2a5,5,0,0,1-3.09.85" transform="translate(-17.76 -1.76)" style="fill:#013e58"/><path d="M192.52,149.48c.23,2.92,1.84,4.39,4.36,4.39a7.23,7.23,0,0,0,3.36-.76l.53,1.26a8.79,8.79,0,0,1-4,.85c-3.49,0-6-2.07-6-6.53,0-4.25,2.28-6.46,5.39-6.46s5.08,1.93,5.08,6.07Zm3.6-6.07c-2,0-3.7,1.56-3.68,5l7-1c0-2.88-1.37-4.07-3.36-4.07" transform="translate(-17.76 -1.76)" style="fill:#013e58"/><path d="M212.76,143.64v11.29H211V143.64h-1.84v-1.1H211v-1.79a3.62,3.62,0,0,1,3.32-3.9,3.88,3.88,0,0,1,.68,0h.42V138h-.21a2.29,2.29,0,0,0-2.38,2.2c0,.1,0,.21,0,.31v2h2.58v1.1Z" transform="translate(-17.76 -1.76)" style="fill:#013e58"/><path d="M221.92,155.23c-3.66,0-5.33-2.83-5.33-6.49s1.67-6.51,5.33-6.51,5.31,2.85,5.31,6.51-1.65,6.49-5.31,6.49m0-11.78c-2.71,0-3.49,2.74-3.49,5.29s.85,5.17,3.49,5.17,3.49-2.62,3.49-5.17-.78-5.29-3.49-5.29" transform="translate(-17.76 -1.76)" style="fill:#013e58"/><path d="M235,143.69a5.5,5.5,0,0,0-3.6.23v11h-1.82V143.09a11.66,11.66,0,0,1,4.95-.85h.93Z" transform="translate(-17.76 -1.76)" style="fill:#013e58"/><path d="M157,180l-7-10.83a15.07,15.07,0,0,1-.91-1.61h0s.06.92.06,1.89V180h-2.3V164.2h2.6l6.66,10.19A14,14,0,0,1,157,176h0s-.09-.9-.09-1.84v-10h2.33V180Z" transform="translate(-17.76 -1.76)" style="fill:#013e58"/><path d="M166.86,180.34c-3.64,0-5.35-1.45-5.35-3.82,0-3.33,3.49-4.23,7.63-4.6v-.71c0-1.7-1.16-2.21-2.86-2.21a8.8,8.8,0,0,0-3.36.71l-.61-1.52a11.76,11.76,0,0,1,4.46-.9c2.75,0,4.86,1.13,4.86,4.3v7.84a11.06,11.06,0,0,1-4.78.9m2.28-7.18c-3.07.32-5.12.9-5.12,3.29,0,1.68,1.18,2.39,3,2.39a4.76,4.76,0,0,0,2.07-.41Z" transform="translate(-17.76 -1.76)" style="fill:#013e58"/><path d="M178.83,180.29a3.22,3.22,0,0,1-3.58-2.83,3.13,3.13,0,0,1,0-.53v-7.7H173.5v-1.61h1.74v-2.78l2.64-.74v3.52h2.41v1.61h-2.41v7.57a1.6,1.6,0,0,0,1.45,1.72h.24a2.51,2.51,0,0,0,.72-.11V180a3.84,3.84,0,0,1-1.46.25" transform="translate(-17.76 -1.76)" style="fill:#013e58"/><path d="M183.69,165.49a1.39,1.39,0,0,1-1.23-1.53,1.39,1.39,0,0,1,2.77.15,1.48,1.48,0,0,1-1.54,1.38m-1.33,2.14H185V180h-2.66Z" transform="translate(-17.76 -1.76)" style="fill:#013e58"/><path d="M193,180.34c-3.79,0-5.67-2.81-5.67-6.51s1.88-6.53,5.67-6.53,5.65,2.83,5.65,6.53-1.86,6.51-5.65,6.51M193,169c-2.28,0-3,2.39-3,4.81s.72,4.71,3,4.71,3-2.3,3-4.71-.68-4.81-3-4.81" transform="translate(-17.76 -1.76)" style="fill:#013e58"/><path d="M208.47,180v-8.86c0-1.59-1.35-2.18-2.88-2.18a6,6,0,0,0-2.14.37V180h-2.64V168.2a13.17,13.17,0,0,1,4.93-.9c3.24,0,5.39,1.1,5.39,3.82V180Z" transform="translate(-17.76 -1.76)" style="fill:#013e58"/><path d="M218.58,180.34c-3.64,0-5.35-1.45-5.35-3.82,0-3.33,3.49-4.23,7.63-4.6v-.71c0-1.7-1.16-2.21-2.85-2.21a8.8,8.8,0,0,0-3.36.71L214,168.2a11.76,11.76,0,0,1,4.46-.9c2.75,0,4.87,1.13,4.87,4.3v7.84a11.06,11.06,0,0,1-4.78.9m2.28-7.18c-3.07.32-5.12.9-5.12,3.29,0,1.68,1.19,2.39,3,2.39a4.76,4.76,0,0,0,2.07-.41Z" transform="translate(-17.76 -1.76)" style="fill:#013e58"/><rect x="208.33" y="160.2" width="2.64" height="18.05" style="fill:#013e58"/><path d="M241.32,180.34a9.28,9.28,0,0,1-4.31-.9l.74-1.93a6.55,6.55,0,0,0,3,.76c1.84,0,3.15-1.08,3.15-2.64,0-3.47-6.58-2.14-6.58-7.06,0-2.51,2-4.69,5.25-4.69a7.76,7.76,0,0,1,3.81.9l-.68,1.73a5.85,5.85,0,0,0-2.77-.74,2.54,2.54,0,0,0-2.81,2.25,2.28,2.28,0,0,0,0,.26c0,3.4,6.72,1.93,6.72,7.17,0,2.81-2.3,4.9-5.54,4.9" transform="translate(-17.76 -1.76)" style="fill:#013e58"/><path d="M253.57,180.29a3.22,3.22,0,0,1-3.58-2.83,3.13,3.13,0,0,1,0-.53v-7.7h-1.73v-1.61H250v-2.78l2.64-.74v3.52H255v1.61h-2.41v7.57a1.6,1.6,0,0,0,1.45,1.72h.24a2.51,2.51,0,0,0,.72-.11V180a3.84,3.84,0,0,1-1.46.25" transform="translate(-17.76 -1.76)" style="fill:#013e58"/><path d="M261.82,180.34c-3.64,0-5.35-1.45-5.35-3.82,0-3.33,3.49-4.23,7.63-4.6v-.71c0-1.7-1.16-2.21-2.86-2.21a8.8,8.8,0,0,0-3.36.71l-.61-1.52a11.76,11.76,0,0,1,4.46-.9c2.75,0,4.86,1.13,4.86,4.3v7.84a11.06,11.06,0,0,1-4.78.9m2.28-7.18c-3.07.32-5.12.9-5.12,3.29,0,1.68,1.18,2.39,3,2.39a4.76,4.76,0,0,0,2.07-.41Z" transform="translate(-17.76 -1.76)" style="fill:#013e58"/><path d="M273.79,180.29a3.22,3.22,0,0,1-3.58-2.83,3.13,3.13,0,0,1,0-.53v-7.7h-1.73v-1.61h1.73v-2.78l2.64-.74v3.52h2.41v1.61h-2.41v7.57a1.6,1.6,0,0,0,1.45,1.72h.24a2.51,2.51,0,0,0,.72-.11V180a3.84,3.84,0,0,1-1.46.25" transform="translate(-17.76 -1.76)" style="fill:#013e58"/><path d="M278.65,165.49a1.39,1.39,0,1,1,1.55-1.38,1.47,1.47,0,0,1-1.55,1.38m-1.33,2.14H280V180h-2.67Z" transform="translate(-17.76 -1.76)" style="fill:#013e58"/><path d="M285.76,180.34a7.74,7.74,0,0,1-3.74-.9l.7-1.7a5.19,5.19,0,0,0,2.71.74,2.23,2.23,0,0,0,2.43-1.93c0-2.94-5.44-1.56-5.44-5.61,0-1.84,1.65-3.63,4.34-3.63a6.59,6.59,0,0,1,3.49.9l-.7,1.54a4.14,4.14,0,0,0-2.26-.71c-1.37,0-2.22.83-2.22,1.77,0,2.76,5.54,1.54,5.54,5.68,0,2-1.88,3.86-4.84,3.86" transform="translate(-17.76 -1.76)" style="fill:#013e58"/><path d="M297.34,180.29a3.22,3.22,0,0,1-3.58-2.83,3.13,3.13,0,0,1,0-.53v-7.7H292v-1.61h1.73v-2.78l2.64-.74v3.52h2.41v1.61h-2.41v7.57a1.6,1.6,0,0,0,1.45,1.72h.24a2.51,2.51,0,0,0,.72-.11V180a3.84,3.84,0,0,1-1.46.25" transform="translate(-17.76 -1.76)" style="fill:#013e58"/><path d="M302.2,165.49a1.39,1.39,0,1,1,1.55-1.38,1.47,1.47,0,0,1-1.55,1.38m-1.33,2.14h2.66V180h-2.66Z" transform="translate(-17.76 -1.76)" style="fill:#013e58"/><path d="M311.19,180.34c-3,0-5.37-2.48-5.37-6.53s2.39-6.51,5.39-6.51a5.11,5.11,0,0,1,3.17.9l-.59,1.49a3.31,3.31,0,0,0-2-.6c-2.16,0-3.28,1.86-3.28,4.64s1.29,4.69,3.24,4.69a3.37,3.37,0,0,0,1.94-.62l.66,1.63a5.1,5.1,0,0,1-3.21.9" transform="translate(-17.76 -1.76)" style="fill:#013e58"/><path d="M319.34,180.34a7.74,7.74,0,0,1-3.74-.9l.7-1.7a5.19,5.19,0,0,0,2.71.74,2.23,2.23,0,0,0,2.43-1.93c0-2.94-5.44-1.56-5.44-5.61,0-1.84,1.65-3.63,4.34-3.63a6.59,6.59,0,0,1,3.49.9l-.7,1.54a4.14,4.14,0,0,0-2.26-.71c-1.37,0-2.22.83-2.22,1.77,0,2.76,5.54,1.54,5.54,5.68,0,2-1.88,3.86-4.84,3.86" transform="translate(-17.76 -1.76)" style="fill:#013e58"/><path d="M89.46,162.54c.69-1.44,1.42-2.85,2.22-4.21a46,46,0,0,1-2.21-6.79v11m4.3-27.8s-4.29,0-4.29,5.31v2.82a50.18,50.18,0,0,0,3.11,14,44.85,44.85,0,0,1,8.79-10.24c7-6,16.3-10.07,29-11.88Z" transform="translate(-17.76 -1.76)" style="fill:#b2bc35"/><path d="M135.15,137.64c-14.52,1.38-24.44,5.53-31.54,11.6a42.5,42.5,0,0,0-9.31,11.45c5.57,10.81,16.19,18.76,33.91,19.92h1.72s5.45.18,5.45-5.87V137.6h-.23M97.82,168.4a37.6,37.6,0,0,1-4.32-6.3,67.72,67.72,0,0,0-4,9.46v8.95l29,.05c-9-2.17-15.83-6.49-20.66-12.15" transform="translate(-17.76 -1.76)" style="fill:#06446a"/><path d="M152.94,155.23c-4.44,0-6.43-3.68-6.43-8.21s2-8.21,6.43-8.21,6.41,3.73,6.41,8.21-2,8.21-6.41,8.21m0-15.13c-3.28,0-4.44,3.59-4.44,6.88s1.06,6.81,4.44,6.81,4.42-3.56,4.42-6.81-1.14-6.88-4.42-6.88" transform="translate(-17.76 -1.76)" style="fill:#06446a"/><path d="M164.87,143.64v11.29h-1.8V143.64h-1.84v-1.1h1.84v-1.79a3.62,3.62,0,0,1,3.32-3.9,3.88,3.88,0,0,1,.68,0h.42V138h-.21a2.29,2.29,0,0,0-2.38,2.2c0,.1,0,.21,0,.31v2h2.58v1.1Z" transform="translate(-17.76 -1.76)" style="fill:#06446a"/><path d="M172.29,143.64v11.29h-1.8V143.64h-1.84v-1.1h1.84v-1.79a3.62,3.62,0,0,1,3.32-3.9,3.88,3.88,0,0,1,.68,0h.42V138h-.21a2.29,2.29,0,0,0-2.38,2.2c0,.1,0,.21,0,.31v2h2.58v1.1Z" transform="translate(-17.76 -1.76)" style="fill:#06446a"/><path d="M177.84,140.17a1.11,1.11,0,0,1-1.14-1.08v0a1.14,1.14,0,0,1,2.28,0,1.11,1.11,0,0,1-1.12,1.1h0m-.91,2.37h1.82v12.4h-1.82Z" transform="translate(-17.76 -1.76)" style="fill:#06446a"/><path d="M186.49,155.23c-2.94,0-5.2-2.53-5.2-6.51s2.26-6.49,5.27-6.49a4.78,4.78,0,0,1,3,.85l-.47,1.1a3.71,3.71,0,0,0-2.16-.67c-2.52,0-3.81,2.18-3.81,5.13s1.48,5.2,3.74,5.2a3.93,3.93,0,0,0,2.2-.67l.49,1.2a5,5,0,0,1-3.09.85" transform="translate(-17.76 -1.76)" style="fill:#06446a"/><path d="M192.52,149.48c.23,2.92,1.84,4.39,4.36,4.39a7.23,7.23,0,0,0,3.36-.76l.53,1.26a8.79,8.79,0,0,1-4,.85c-3.49,0-6-2.07-6-6.53,0-4.25,2.28-6.46,5.39-6.46s5.08,1.93,5.08,6.07Zm3.6-6.07c-2,0-3.7,1.56-3.68,5l7-1c0-2.88-1.37-4.07-3.36-4.07" transform="translate(-17.76 -1.76)" style="fill:#06446a"/><path d="M212.76,143.64v11.29H211V143.64h-1.84v-1.1H211v-1.79a3.62,3.62,0,0,1,3.32-3.9,3.88,3.88,0,0,1,.68,0h.42V138h-.21a2.29,2.29,0,0,0-2.38,2.2c0,.1,0,.21,0,.31v2h2.58v1.1Z" transform="translate(-17.76 -1.76)" style="fill:#06446a"/><path d="M221.92,155.23c-3.66,0-5.33-2.83-5.33-6.49s1.67-6.51,5.33-6.51,5.31,2.85,5.31,6.51-1.65,6.49-5.31,6.49m0-11.78c-2.71,0-3.49,2.74-3.49,5.29s.85,5.17,3.49,5.17,3.49-2.62,3.49-5.17-.78-5.29-3.49-5.29" transform="translate(-17.76 -1.76)" style="fill:#06446a"/><path d="M235,143.69a5.5,5.5,0,0,0-3.6.23v11h-1.82V143.09a11.66,11.66,0,0,1,4.95-.85h.93Z" transform="translate(-17.76 -1.76)" style="fill:#06446a"/><path d="M157,180l-7-10.83a15.07,15.07,0,0,1-.91-1.61h0s.06.92.06,1.89V180h-2.3V164.2h2.6l6.66,10.19A14,14,0,0,1,157,176h0s-.09-.9-.09-1.84v-10h2.33V180Z" transform="translate(-17.76 -1.76)" style="fill:#06446a"/><path d="M166.86,180.34c-3.64,0-5.35-1.45-5.35-3.82,0-3.33,3.49-4.23,7.63-4.6v-.71c0-1.7-1.16-2.21-2.86-2.21a8.8,8.8,0,0,0-3.36.71l-.61-1.52a11.76,11.76,0,0,1,4.46-.9c2.75,0,4.86,1.13,4.86,4.3v7.84a11.06,11.06,0,0,1-4.78.9m2.28-7.18c-3.07.32-5.12.9-5.12,3.29,0,1.68,1.18,2.39,3,2.39a4.76,4.76,0,0,0,2.07-.41Z" transform="translate(-17.76 -1.76)" style="fill:#06446a"/><path d="M178.83,180.29a3.22,3.22,0,0,1-3.58-2.83,3.13,3.13,0,0,1,0-.53v-7.7H173.5v-1.61h1.74v-2.78l2.64-.74v3.52h2.41v1.61h-2.41v7.57a1.6,1.6,0,0,0,1.45,1.72h.24a2.51,2.51,0,0,0,.72-.11V180a3.84,3.84,0,0,1-1.46.25" transform="translate(-17.76 -1.76)" style="fill:#06446a"/><path d="M183.69,165.49a1.39,1.39,0,0,1-1.23-1.53,1.39,1.39,0,0,1,2.77.15,1.48,1.48,0,0,1-1.54,1.38m-1.33,2.14H185V180h-2.66Z" transform="translate(-17.76 -1.76)" style="fill:#06446a"/><path d="M193,180.34c-3.79,0-5.67-2.81-5.67-6.51s1.88-6.53,5.67-6.53,5.65,2.83,5.65,6.53-1.86,6.51-5.65,6.51M193,169c-2.28,0-3,2.39-3,4.81s.72,4.71,3,4.71,3-2.3,3-4.71-.68-4.81-3-4.81" transform="translate(-17.76 -1.76)" style="fill:#06446a"/><path d="M208.47,180v-8.86c0-1.59-1.35-2.18-2.88-2.18a6,6,0,0,0-2.14.37V180h-2.64V168.2a13.17,13.17,0,0,1,4.93-.9c3.24,0,5.39,1.1,5.39,3.82V180Z" transform="translate(-17.76 -1.76)" style="fill:#06446a"/><path d="M218.58,180.34c-3.64,0-5.35-1.45-5.35-3.82,0-3.33,3.49-4.23,7.63-4.6v-.71c0-1.7-1.16-2.21-2.85-2.21a8.8,8.8,0,0,0-3.36.71L214,168.2a11.76,11.76,0,0,1,4.46-.9c2.75,0,4.87,1.13,4.87,4.3v7.84a11.06,11.06,0,0,1-4.78.9m2.28-7.18c-3.07.32-5.12.9-5.12,3.29,0,1.68,1.19,2.39,3,2.39a4.76,4.76,0,0,0,2.07-.41Z" transform="translate(-17.76 -1.76)" style="fill:#06446a"/><rect x="208.33" y="160.2" width="2.64" height="18.05" style="fill:#06446a"/><path d="M241.32,180.34a9.28,9.28,0,0,1-4.31-.9l.74-1.93a6.55,6.55,0,0,0,3,.76c1.84,0,3.15-1.08,3.15-2.64,0-3.47-6.58-2.14-6.58-7.06,0-2.51,2-4.69,5.25-4.69a7.76,7.76,0,0,1,3.81.9l-.68,1.73a5.85,5.85,0,0,0-2.77-.74,2.54,2.54,0,0,0-2.81,2.25,2.28,2.28,0,0,0,0,.26c0,3.4,6.72,1.93,6.72,7.17,0,2.81-2.3,4.9-5.54,4.9" transform="translate(-17.76 -1.76)" style="fill:#06446a"/><path d="M253.57,180.29a3.22,3.22,0,0,1-3.58-2.83,3.13,3.13,0,0,1,0-.53v-7.7h-1.73v-1.61H250v-2.78l2.64-.74v3.52H255v1.61h-2.41v7.57a1.6,1.6,0,0,0,1.45,1.72h.24a2.51,2.51,0,0,0,.72-.11V180a3.84,3.84,0,0,1-1.46.25" transform="translate(-17.76 -1.76)" style="fill:#06446a"/><path d="M261.82,180.34c-3.64,0-5.35-1.45-5.35-3.82,0-3.33,3.49-4.23,7.63-4.6v-.71c0-1.7-1.16-2.21-2.86-2.21a8.8,8.8,0,0,0-3.36.71l-.61-1.52a11.76,11.76,0,0,1,4.46-.9c2.75,0,4.86,1.13,4.86,4.3v7.84a11.06,11.06,0,0,1-4.78.9m2.28-7.18c-3.07.32-5.12.9-5.12,3.29,0,1.68,1.18,2.39,3,2.39a4.76,4.76,0,0,0,2.07-.41Z" transform="translate(-17.76 -1.76)" style="fill:#06446a"/><path d="M273.79,180.29a3.22,3.22,0,0,1-3.58-2.83,3.13,3.13,0,0,1,0-.53v-7.7h-1.73v-1.61h1.73v-2.78l2.64-.74v3.52h2.41v1.61h-2.41v7.57a1.6,1.6,0,0,0,1.45,1.72h.24a2.51,2.51,0,0,0,.72-.11V180a3.84,3.84,0,0,1-1.46.25" transform="translate(-17.76 -1.76)" style="fill:#06446a"/><path d="M278.65,165.49a1.39,1.39,0,1,1,1.55-1.38,1.47,1.47,0,0,1-1.55,1.38m-1.33,2.14H280V180h-2.67Z" transform="translate(-17.76 -1.76)" style="fill:#06446a"/><path d="M285.76,180.34a7.74,7.74,0,0,1-3.74-.9l.7-1.7a5.19,5.19,0,0,0,2.71.74,2.23,2.23,0,0,0,2.43-1.93c0-2.94-5.44-1.56-5.44-5.61,0-1.84,1.65-3.63,4.34-3.63a6.59,6.59,0,0,1,3.49.9l-.7,1.54a4.14,4.14,0,0,0-2.26-.71c-1.37,0-2.22.83-2.22,1.77,0,2.76,5.54,1.54,5.54,5.68,0,2-1.88,3.86-4.84,3.86" transform="translate(-17.76 -1.76)" style="fill:#06446a"/><path d="M297.34,180.29a3.22,3.22,0,0,1-3.58-2.83,3.13,3.13,0,0,1,0-.53v-7.7H292v-1.61h1.73v-2.78l2.64-.74v3.52h2.41v1.61h-2.41v7.57a1.6,1.6,0,0,0,1.45,1.72h.24a2.51,2.51,0,0,0,.72-.11V180a3.84,3.84,0,0,1-1.46.25" transform="translate(-17.76 -1.76)" style="fill:#06446a"/><path d="M302.2,165.49a1.39,1.39,0,1,1,1.55-1.38,1.47,1.47,0,0,1-1.55,1.38m-1.33,2.14h2.66V180h-2.66Z" transform="translate(-17.76 -1.76)" style="fill:#06446a"/><path d="M311.19,180.34c-3,0-5.37-2.48-5.37-6.53s2.39-6.51,5.39-6.51a5.11,5.11,0,0,1,3.17.9l-.59,1.49a3.31,3.31,0,0,0-2-.6c-2.16,0-3.28,1.86-3.28,4.64s1.29,4.69,3.24,4.69a3.37,3.37,0,0,0,1.94-.62l.66,1.63a5.1,5.1,0,0,1-3.21.9" transform="translate(-17.76 -1.76)" style="fill:#06446a"/><path d="M319.34,180.34a7.74,7.74,0,0,1-3.74-.9l.7-1.7a5.19,5.19,0,0,0,2.71.74,2.23,2.23,0,0,0,2.43-1.93c0-2.94-5.44-1.56-5.44-5.61,0-1.84,1.65-3.63,4.34-3.63a6.59,6.59,0,0,1,3.49.9l-.7,1.54a4.14,4.14,0,0,0-2.26-.71c-1.37,0-2.22.83-2.22,1.77,0,2.76,5.54,1.54,5.54,5.68,0,2-1.88,3.86-4.84,3.86" transform="translate(-17.76 -1.76)" style="fill:#06446a"/><rect x="0.5" y="91" width="1124" height="137.63" style="fill:none;stroke:#d0d0d0;stroke-miterlimit:10"/><rect x="642.56" y="141.63" width="412.9" height="11.47" style="fill:#d0d0d0"/><rect x="642.56" y="165.55" width="206.45" height="11.47" style="fill:#d0d0d0"/><g id="Content"><g style="isolation:isolate"><text transform="translate(71.71 355.23)" style="isolation:isolate;font-size:41.290000915527344px;font-family:LatoLatin-Regular, LatoLatin"><tspan style="letter-spacing:-0.009992677333529442em">S</tspan><tspan x="21.99" y="0">u</tspan><tspan x="45.01" y="0" style="letter-spacing:-0.0209905352272364em">r</tspan></text><text transform="translate(135.09 355.23)" style="isolation:isolate;font-size:41.290000915527344px;font-family:LatoLatin-Regular, LatoLatin;letter-spacing:-0.03398692858764925em">v<tspan x="19.9" y="0" style="letter-spacing:-0.020009005974357178em">e</tspan></text><text transform="translate(178.73 355.23)" style="isolation:isolate;font-size:41.290000915527344px;font-family:LatoLatin-Regular, LatoLatin;letter-spacing:-0.024490928707383994em">y<tspan x="20.27" y="0" xml:space="preserve" style="letter-spacing:-0.00001182565364914727em"> title</tspan></text></g><rect x="70.84" y="386.56" width="564.78" height="11.47" style="fill:#d0d0d0"/><rect x="70.84" y="410.48" width="282.39" height="11.47" style="fill:#d0d0d0"/><rect x="70.37" y="449.61" width="564.78" height="11.47" style="fill:#d0d0d0"/><rect x="70.37" y="473.53" width="282.39" height="11.47" style="fill:#d0d0d0"/><line x1="70.37" y1="531" x2="635.15" y2="531" style="fill:none;stroke:#d0d0d0;stroke-miterlimit:10"/><text transform="translate(71.19 615.73)" style="isolation:isolate;font-size:32.11000061035156px;font-family:LatoLatin-Regular, LatoLatin">1. <tspan x="34.42" y="0" style="letter-spacing:-0.002980477208995985em">S</tspan><tspan x="51.74" y="0">ection title</tspan></text><rect x="71.18" y="648.06" width="564.44" height="11.47" style="fill:#d0d0d0"/><rect x="71.18" y="671.98" width="282.22" height="11.47" style="fill:#d0d0d0"/><rect x="71.18" y="810.92" width="564.44" height="11.47" style="fill:#d0d0d0"/><rect x="71.18" y="834.85" width="282.22" height="11.47" style="fill:#d0d0d0"/><text transform="translate(70.37 787.07)" style="isolation:isolate;font-size:27.530000686645508px;font-family:LatoLatin-Regular, LatoLatin">1.1 <tspan x="45.48" y="0" style="letter-spacing:-0.0075024687104418295em">Q</tspan><tspan x="67.31" y="0" style="letter-spacing:0.00001773633264879865em">uestion title</tspan></text><text transform="translate(71.19 912.83)" style="isolation:isolate;font-size:22.940000534057617px;font-family:LatoLatin-Regular, LatoLatin">Label</text><rect x="71.19" y="925.73" width="490.81" height="53.5" style="fill:none;stroke:#d0d0d0;stroke-miterlimit:10"/><text transform="translate(70.37 1010.57)" style="font-size:22.940000534057617px;font-family:LatoLatin-Regular, LatoLatin;text-decoration:underline">&gt; <tspan x="19.18" y="0" style="letter-spacing:-0.008492773069501738em">G</tspan><tspan x="35.74" y="0">uidan</tspan><tspan x="91.08" y="0" style="letter-spacing:-0.0089823314168665em">c</tspan><tspan x="101.83" y="0">e</tspan></text><rect x="763.23" y="386.56" width="294.06" height="11.47" style="fill:#d0d0d0"/><rect x="763.23" y="455.01" width="211.85" height="11.47" style="fill:#d0d0d0"/><rect x="763.23" y="420.78" width="147.03" height="11.47" style="fill:#d0d0d0"/><text transform="translate(745.78 349.34)" style="isolation:isolate;font-size:32.11000061035156px;font-family:LatoLatin-Regular, LatoLatin;letter-spacing:-0.002980477208995985em">S<tspan x="17.32" y="0" style="letter-spacing:-0.000015206516372428494em">ections</tspan></text></g><rect x="743.62" y="386.56" width="3.5" height="152.44" style="fill:#d0d0d0"/></g><g id="_24px_margin_label" data-name=" 24px margin label"><rect x="383.62" width="24" height="91.99" style="fill:#0f8243;opacity:0.6000000238418579;isolation:isolate"/><line x1="397.26" y1="48.88" x2="451.69" y2="48.88" style="fill:none;stroke:#1d1d1b"/><g style="clip-path:url(#clip-path)"><path d="M415,53.28a2.64,2.64,0,1,0-2.64-2.64A2.64,2.64,0,0,0,415,53.28h0" transform="translate(-17.76 -1.76)" style="fill:#1d1d1b"/></g><g style="isolation:isolate"><text transform="translate(465.62 53.74)" style="isolation:isolate;font-size:18px;font-family:LatoLatin-Regular, LatoLatin">24</text><text transform="translate(486.5 53.74)" style="isolation:isolate;font-size:18px;font-family:LatoLatin-Regular, LatoLatin;letter-spacing:-0.028998480902777776em">p</text><text transform="translate(495.9 53.74)" style="isolation:isolate;font-size:18px;font-family:LatoLatin-Regular, LatoLatin">x fi</text><text transform="translate(518.7 53.74)" style="isolation:isolate;font-size:18px;font-family:LatoLatin-Regular, LatoLatin;letter-spacing:-0.028998480902777776em">x</text><text transform="translate(527.23 53.74)" style="isolation:isolate;font-size:18px;font-family:LatoLatin-Regular, LatoLatin">ed ma<tspan x="47.94" y="0" style="letter-spacing:-0.011474609375em">r</tspan><tspan x="54.29" y="0" style="letter-spacing:-0.00002712673611111111em">gin</tspan></text></g></g></svg>
