<svg xmlns="http://www.w3.org/2000/svg" width="241.62" height="44"><title>census-logo-cy</title><path fill="#fff" style="opacity:0.7" d="M623.06,494.45H611.47a4.82,4.82,0,0,1,.14-1c.61-2.44,3.08-3.71,6.08-5.05,3.46-1.59,6.72-3.22,6.72-7.32s-3-6.82-8-6.82a9.6,9.6,0,0,0-6.15,2,5.11,5.11,0,0,0-2.08,3.75c0,1.9,2.4,1.87,2.4,1.76a5.42,5.42,0,0,1,5.58-4.38c2.94,0,4.67,1.41,4.67,3.78s-2.69,3.61-5.69,5.09c-3.43,1.7-7.07,3.78-7.07,8.48v.88c0,1.45.67,2,2.26,2h12.72c1.2,0,1.73-.53,1.73-1.48v-.21C624.79,495,624.26,494.45,623.06,494.45Z" transform="translate(-401.34 -464)"/><path fill="#fff" style="opacity:0.7" d="M595.5,474.24c-5.86,0-9.5,4.14-9.5,10.74v2.34c0,6.6,3.57,10.7,9.5,10.7s9.54-4.17,9.54-10.78V485C605,478.34,601.44,474.24,595.5,474.24Zm5.9,13.18c0,4.81-2.12,7.53-5.9,7.53s-5.83-2.76-5.83-7.56v-2.58c0-4.81,2.12-7.56,5.83-7.56s5.9,2.82,5.9,7.63Z" transform="translate(-401.34 -464)"/><path fill="#fff" style="opacity:0.7" d="M641.29,494.49h-3.07l0-18.3a1.49,1.49,0,0,0-1.63-1.67h-1.24L628.57,479a2,2,0,0,0,1.88,2.23,2.88,2.88,0,0,0,1.87-.78c.67-.53,1.24-1.17,2.61-2.26v16.29h-3.81c-1.1,0-1.66.46-1.66,1.48v.18c0,1,.56,1.41,1.66,1.41h10.17c1.1,0,1.67-.42,1.67-1.41V496C643,495,642.39,494.49,641.29,494.49Z" transform="translate(-401.34 -464)"/><path fill="#fff" style="opacity:0.7" d="M581.72,494.45H570.13a4.26,4.26,0,0,1,.15-1c.6-2.44,3.07-3.71,6.07-5.05,3.47-1.59,6.72-3.22,6.72-7.32s-3-6.82-8-6.82a9.62,9.62,0,0,0-6.15,2,5.11,5.11,0,0,0-2.08,3.75c0,1.9,2.4,1.87,2.4,1.76a5.42,5.42,0,0,1,5.58-4.38c2.94,0,4.67,1.41,4.67,3.78s-2.69,3.61-5.69,5.09c-3.43,1.7-7.07,3.78-7.07,8.48v.88c0,1.45.67,2,2.26,2h12.72c1.21,0,1.74-.53,1.74-1.48v-.21C583.46,495,582.93,494.45,581.72,494.45Z" transform="translate(-401.34 -464)"/><path fill="#fff" d="M556.37,464.19a2.7,2.7,0,0,0-2.7,2.69V475a11.56,11.56,0,0,0-4-.71,11.86,11.86,0,1,0,8.67,19.92,2.63,2.63,0,0,0,.72-1.72,1.41,1.41,0,0,0,0-.2V466.88A2.7,2.7,0,0,0,556.37,464.19Zm-2.7,19.11v7.92a6.38,6.38,0,0,1-4,1.41,6.47,6.47,0,1,1,0-12.94,6.36,6.36,0,0,1,4,1.41Z" transform="translate(-401.34 -464)"/><path fill="#fff" d="M413.19,479.61a6.41,6.41,0,0,1,4.73,2.07,2.69,2.69,0,0,0,3.94-3.67,11.86,11.86,0,1,0,0,16.14,2.69,2.69,0,0,0-3.94-3.67,6.38,6.38,0,0,1-4.73,2.07,6.47,6.47,0,1,1,0-12.94Z" transform="translate(-401.34 -464)"/><path fill="#fff" d="M481.59,474.26A2.69,2.69,0,0,0,478.9,477v18.21a2.69,2.69,0,1,0,5.38,0V477A2.7,2.7,0,0,0,481.59,474.26Z" transform="translate(-401.34 -464)"/><path fill="#fff" d="M460.12,464.11a11.89,11.89,0,0,0-8.52,11.38V495a2.7,2.7,0,0,0,5.39,0V481.65h2a2.7,2.7,0,0,0,0-5.39h-2v-.77a6.48,6.48,0,0,1,4.59-6.19l.07,0a2.69,2.69,0,0,0-1.53-5.16Z" transform="translate(-401.34 -464)"/><path fill="#fff" d="M531.5,474.26a2.67,2.67,0,0,0-2.13,1.05,11.86,11.86,0,1,0,0,21.45,2.7,2.7,0,0,0,4.86-1.6V477A2.7,2.7,0,0,0,531.5,474.26Zm-2.69,7.33v9.08a6.39,6.39,0,0,1-4.49,1.83,6.47,6.47,0,0,1,0-12.94,6.37,6.37,0,0,1,4.49,1.83Z" transform="translate(-401.34 -464)"/><path fill="#fff" d="M481.61,465.84a2.71,2.71,0,1,0,2.71,2.7A2.71,2.71,0,0,0,481.61,465.84Z" transform="translate(-401.34 -464)"/><path fill="#fff" d="M506.65,474.26A2.7,2.7,0,0,0,504,477v18.21a2.7,2.7,0,1,0,5.39,0V477A2.7,2.7,0,0,0,506.65,474.26Z" transform="translate(-401.34 -464)"/><path fill="#fff" d="M506.67,465.84a2.71,2.71,0,1,0,2.71,2.7A2.71,2.71,0,0,0,506.67,465.84Z" transform="translate(-401.34 -464)"/><path fill="#fff" d="M472.08,474.71a11.87,11.87,0,0,0-8.51,11.37v9a2.69,2.69,0,0,0,5.38,0v-9a6.49,6.49,0,0,1,4.6-6.19l.07,0a2.69,2.69,0,0,0-1.54-5.15Z" transform="translate(-401.34 -464)"/><path fill="#fff" d="M447.3,477a2.7,2.7,0,0,0-5.39,0v9c0,3.56-2,6.47-5.56,6.47s-5.56-2.91-5.56-6.47v-9a2.7,2.7,0,0,0-5.39,0v9c0,6.53,4.41,11.85,11,11.85a10.66,10.66,0,0,0,5.57-1.51v.16a6.48,6.48,0,0,1-4.6,6.19l-.06,0h0c-1.43.43-.9,1.93-.47,3.36a2.67,2.67,0,0,0,3.34,1.79c4.92-1.44,7.17-6,7.17-11.37V477Z" transform="translate(-401.34 -464)"/><path fill="#fff" d="M497.71,464.12a11.86,11.86,0,0,0-8.51,11.37V495a2.69,2.69,0,0,0,5.38,0V481.65h2a2.7,2.7,0,1,0,0-5.39h-2v-.77a6.48,6.48,0,0,1,4.6-6.19l.07,0a2.7,2.7,0,0,0,1.8-3.36A2.67,2.67,0,0,0,497.71,464.12Z" transform="translate(-401.34 -464)"/></svg>
