<svg xmlns="http://www.w3.org/2000/svg" width="201.4" height="36.7"><path fill="#fff" d="M200 25.4h-2.6V10.1c0-.9-.5-1.4-1.4-1.4h-1l-5.7 3.7c0 1 .6 1.9 1.6 1.9.5 0 1-.2 1.6-.6.6-.4 1-1 2.2-1.9v13.6h-3.2c-.9 0-1.4.4-1.4 1.2v.1c0 .8.5 1.2 1.4 1.2h8.5c.9 0 1.4-.4 1.4-1.2v-.1c0-.8-.5-1.2-1.4-1.2zM161.8 8.5c-4.9 0-7.9 3.4-7.9 9v1.9c0 5.5 3 8.9 7.9 8.9s8-3.5 8-9v-1.9c0-5.4-3-8.9-8-8.9zm4.9 11c0 4-1.8 6.3-4.9 6.3-3.1 0-4.9-2.3-4.9-6.3v-2.2c0-4 1.8-6.3 4.9-6.3 3.1 0 4.9 2.4 4.9 6.4v2.1zM184.8 25.4h-9.6l.1-.9c.5-2 2.6-3.1 5.1-4.2 2.9-1.3 5.6-2.7 5.6-6.1 0-3.5-2.5-5.7-6.7-5.7-2.2 0-4 .7-5.1 1.6s-1.7 2.1-1.7 3.1c0 1.6 2 1.6 2 1.5.5-1.9 1.9-3.7 4.7-3.7 2.4 0 3.9 1.2 3.9 3.1 0 2.1-2.2 3-4.7 4.2-2.9 1.4-5.9 3.2-5.9 7.1v.7c0 1.2.6 1.6 1.9 1.7H185c1 0 1.4-.4 1.4-1.2v-.2c-.2-.6-.6-1-1.6-1zM150.3 25.4h-9.7l.1-.9c.5-2 2.6-3.1 5.1-4.2 2.9-1.3 5.6-2.7 5.6-6.1 0-3.5-2.5-5.7-6.7-5.7-2.2 0-4 .7-5.1 1.6s-1.7 2.1-1.7 3.1c0 1.6 2 1.6 2 1.5.5-1.9 1.9-3.7 4.7-3.7 2.4 0 3.9 1.2 3.9 3.1 0 2.1-2.2 3-4.7 4.2-2.9 1.4-5.9 3.2-5.9 7.1v.7c0 1.2.6 1.6 1.9 1.7h10.6c1 0 1.4-.4 1.4-1.2v-.2c0-.6-.5-1-1.5-1zM129.2.2c-1.2 0-2.2 1-2.2 2.2v6.8a9.8 9.8 0 0 0-12.6 5.9 9.8 9.8 0 0 0 5.9 12.6 10 10 0 0 0 10.6-2.6c.4-.4.6-.9.6-1.4V2.4a2.4 2.4 0 0 0-2.3-2.2zM127 22.7a5 5 0 0 1-3.3 1.2c-3 0-5.4-2.4-5.4-5.4 0-3 2.4-5.4 5.4-5.4a5 5 0 0 1 3.3 1.2v8.4zM13.8 14.7c.9.9 2.3.9 3.2.1.9-.8.9-2.2.1-3.1a10 10 0 0 0-14-.5 10 10 0 0 0-.5 14 10 10 0 0 0 14 .5l.5-.5c.8-.9.8-2.3-.2-3.2-.9-.8-2.3-.8-3.1.1a5.4 5.4 0 0 1-9.3-3.7c0-3 2.4-5.4 5.4-5.4 1.5 0 2.9.6 3.9 1.7zM66.9 8.6c-1.2 0-2.2 1-2.2 2.2V26c0 1.2 1 2.2 2.2 2.2s2.2-1 2.2-2.2V10.8c0-1.2-1-2.2-2.2-2.2zM49 .1a9.9 9.9 0 0 0-7.1 9.5v16.3c0 1.2 1 2.2 2.2 2.2s2.2-1 2.2-2.2V14.7H48c1.2 0 2.3-.9 2.3-2.2 0-1.2-.9-2.3-2.2-2.3H46.4v-.6c0-2.4 1.6-4.5 3.8-5.2h.1c1.2-.4 1.9-1.6 1.5-2.8C51.4.4 50.2-.3 49 .1zM108.5 8.6c-.7 0-1.4.3-1.8.9-4.9-2.3-10.8-.2-13.2 4.7s-.2 10.8 4.7 13.1a9.5 9.5 0 0 0 8.4 0c.7 1 2.1 1.2 3.1.5.6-.4.9-1.1.9-1.8V10.8a2 2 0 0 0-2.1-2.2zm-2.3 13.6a5.4 5.4 0 0 1-9.1-3.9 5.4 5.4 0 0 1 9.1-3.9v7.8z"/><circle fill="#fff" cx="66.9" cy="3.8" r="2.3"/><path fill="#fff" d="M87.8 8.6c-1.2 0-2.2 1-2.2 2.2V26c0 1.2 1 2.2 2.2 2.2s2.2-1 2.2-2.2V10.8c0-1.2-1-2.2-2.2-2.2z"/><circle fill="#fff" cx="87.8" cy="3.8" r="2.3"/><path fill="#fff" d="M59 8.9a9.9 9.9 0 0 0-7.1 9.5v7.5c0 1.2 1 2.2 2.2 2.2 1.2 0 2.2-1 2.2-2.2v-7.5c0-2.4 1.6-4.5 3.8-5.2h.1c1.2-.4 1.9-1.6 1.5-2.8-.3-1.2-1.5-1.8-2.7-1.5zM36.1 8.6c-1.2 0-2.2 1-2.2 2.2v7.5c0 3-1.7 5.4-4.6 5.4-3 0-4.6-2.4-4.6-5.4v-7.5c0-1.2-1-2.2-2.2-2.2s-2.2 1-2.2 2.2v7.5c0 5.4 3.7 9.9 9.1 9.9 1.6 0 3.2-.4 4.6-1.3v.1c0 2.4-1.6 4.5-3.8 5.2h-.1c-1.2.4-.7 1.6-.4 2.8a2.2 2.2 0 0 0 2.8 1.5c4.1-1.2 6-5 6-9.5V14.7 10.9c-.2-1.3-1.2-2.3-2.4-2.3zM80.3.1a9.9 9.9 0 0 0-7.1 9.5v16.3c0 1.2.9 2.3 2.2 2.3 1.2 0 2.3-.9 2.3-2.2V14.7h1.6c1.2 0 2.2-1 2.2-2.2 0-1.2-1-2.2-2.2-2.2h-1.6v-.7c0-2.4 1.6-4.5 3.8-5.2h.1c1.2-.4 1.9-1.6 1.5-2.8A2.2 2.2 0 0 0 80.3.1z"/></svg>
