<?xml version="1.0" encoding="utf-8"?>
<!-- Generator: Adobe Illustrator 24.3.0, SVG Export Plug-In . SVG Version: 6.00 Build 0)  -->
<svg version="1.1" id="Layer_1" xmlns="http://www.w3.org/2000/svg" xmlns:xlink="http://www.w3.org/1999/xlink" x="0px" y="0px"
	 viewBox="0 0 1893 243" style="enable-background:new 0 0 1893 243;" xml:space="preserve">
<style type="text/css">
	.st0{fill-rule:evenodd;clip-rule:evenodd;}
</style>
<path class="st0" d="M91.73,10.4c2.69-0.72,5.45,0.87,6.17,3.56c0.72,2.69-0.88,5.45-3.56,6.17c-2.69,0.72-5.44-0.88-6.16-3.56
	C87.45,13.88,89.04,11.12,91.73,10.4z M145.1,13.96c0.72-2.69,3.48-4.28,6.17-3.56c2.69,0.72,4.28,3.48,3.56,6.16
	c-0.72,2.69-3.48,4.28-6.16,3.56C145.98,19.4,144.39,16.64,145.1,13.96z M121.5,0c6.36,0,11.51,5.15,11.51,11.51
	c0,6.36-5.15,11.51-11.51,11.51c-6.36,0-11.51-5.15-11.51-11.51C109.99,5.15,115.14,0,121.5,0z M166.52,20.49
	c3.18-5.51,10.22-7.39,15.73-4.21c5.51,3.18,7.39,10.22,4.21,15.73c-3.18,5.5-10.22,7.39-15.72,4.21
	C165.23,33.04,163.34,26,166.52,20.49z M60.75,16.28c5.51-3.18,12.54-1.29,15.73,4.21c3.18,5.51,1.29,12.55-4.22,15.73
	c-5.5,3.18-12.55,1.29-15.72-4.21C53.36,26.5,55.24,19.46,60.75,16.28z M40.17,40.17c1.97-1.96,5.15-1.96,7.12,0
	c1.97,1.96,1.97,5.15,0,7.12c-1.97,1.96-5.15,1.96-7.12,0C38.2,45.32,38.2,42.13,40.17,40.17z M195.71,40.17
	c1.96-1.96,5.15-1.96,7.12,0c1.96,1.96,1.96,5.15,0,7.12c-1.97,1.96-5.15,1.96-7.12,0C193.75,45.32,193.75,42.13,195.71,40.17z
	 M210.99,56.53c5.51-3.18,12.55-1.29,15.73,4.21c3.18,5.51,1.29,12.55-4.21,15.73c-5.5,3.18-12.55,1.29-15.73-4.21
	C203.6,66.75,205.49,59.71,210.99,56.53z M16.28,60.75c3.18-5.5,10.22-7.39,15.73-4.21c5.51,3.18,7.39,10.22,4.21,15.73
	c-3.18,5.5-10.22,7.39-15.72,4.21C14.98,73.3,13.1,66.26,16.28,60.75z M10.4,91.73c0.72-2.69,3.48-4.28,6.16-3.56
	c2.69,0.72,4.28,3.48,3.56,6.17c-0.72,2.68-3.48,4.28-6.17,3.56C11.27,97.18,9.68,94.41,10.4,91.73z M226.44,88.17
	c2.69-0.72,5.45,0.87,6.17,3.56c0.72,2.69-0.88,5.45-3.56,6.17c-2.69,0.72-5.44-0.88-6.16-3.56
	C222.16,91.65,223.75,88.89,226.44,88.17z M231.49,109.99c6.36,0,11.51,5.15,11.51,11.51c0,6.36-5.15,11.51-11.51,11.51
	c-6.36,0-11.51-5.15-11.51-11.51C219.98,115.14,225.13,109.99,231.49,109.99z M11.51,109.99c6.36,0,11.51,5.15,11.51,11.51
	s-5.15,11.51-11.51,11.51C5.15,133.01,0,127.86,0,121.5S5.15,109.99,11.51,109.99z M13.96,145.1c2.69-0.72,5.45,0.88,6.17,3.56
	c0.72,2.68-0.88,5.45-3.56,6.16c-2.69,0.72-5.45-0.87-6.17-3.56C9.68,148.58,11.27,145.82,13.96,145.1z M222.88,148.66
	c0.72-2.68,3.48-4.28,6.17-3.56c2.68,0.72,4.28,3.48,3.56,6.16c-0.72,2.69-3.48,4.28-6.17,3.56
	C223.75,154.11,222.16,151.35,222.88,148.66z M20.49,166.52c5.51-3.18,12.54-1.29,15.73,4.21c3.18,5.51,1.29,12.55-4.22,15.73
	c-5.5,3.18-12.55,1.29-15.72-4.21C13.1,176.74,14.98,169.7,20.49,166.52z M206.78,170.74c3.18-5.51,10.22-7.39,15.73-4.21
	c5.51,3.18,7.39,10.22,4.21,15.73c-3.18,5.5-10.22,7.39-15.73,4.21C205.49,183.29,203.6,176.24,206.78,170.74z M195.71,195.71
	c1.96-1.96,5.15-1.96,7.12,0c1.96,1.96,1.96,5.15,0,7.12c-1.97,1.96-5.15,1.96-7.12,0C193.75,200.86,193.75,197.68,195.71,195.71z
	 M40.17,195.71c1.97-1.96,5.15-1.96,7.12,0c1.97,1.96,1.97,5.15,0,7.12c-1.97,1.96-5.15,1.96-7.12,0
	C38.2,200.86,38.2,197.68,40.17,195.71z M56.53,211c3.18-5.5,10.22-7.39,15.73-4.21c5.51,3.18,7.39,10.22,4.21,15.73
	c-3.18,5.51-10.22,7.39-15.72,4.21C55.24,223.54,53.36,216.5,56.53,211z M170.74,206.78c5.51-3.18,12.55-1.29,15.73,4.21
	c3.18,5.51,1.29,12.55-4.22,15.73c-5.5,3.18-12.54,1.29-15.72-4.21C163.34,217,165.23,209.96,170.74,206.78z M148.66,222.88
	c2.69-0.72,5.44,0.87,6.17,3.56c0.72,2.69-0.88,5.45-3.56,6.17c-2.69,0.72-5.45-0.88-6.16-3.56
	C144.39,226.36,145.98,223.6,148.66,222.88z M88.17,226.44c0.72-2.69,3.48-4.28,6.17-3.56c2.69,0.72,4.28,3.48,3.56,6.16
	c-0.72,2.69-3.48,4.28-6.17,3.56C89.05,231.88,87.45,229.12,88.17,226.44z M121.5,219.98c6.36,0,11.51,5.15,11.51,11.51
	c0,6.36-5.15,11.51-11.51,11.51c-6.36,0-11.51-5.15-11.51-11.51C109.99,225.13,115.14,219.98,121.5,219.98z M486.26,39.63
	c1.01,1.12,2.01,2.24,2.97,3.43l25,48.6c0.42,1.47,0.78,2.93,1.07,4.42L486.26,39.63z M467.12,22.68c0.66,0.44,1.25,0.85,1.89,1.34
	l48.96,95.17c0.03,0.8,0.04,1.57,0.01,2.36L467.12,22.68z M453.35,14.19c0.56,0.24,1.1,0.54,1.64,0.84l62.16,120.82
	c-0.09,0.58-0.16,1.19-0.27,1.82L453.35,14.19z M440.96,8.47c0.54,0.2,1.02,0.39,1.52,0.61l72.22,140.38
	c-0.11,0.54-0.22,1.07-0.39,1.6L440.96,8.47z M429.53,4.61c0.48,0.09,0.94,0.24,1.43,0.42l80.34,156.16
	c-0.13,0.5-0.28,0.96-0.48,1.41L429.53,4.61z M418.84,2.11c0.42,0.07,0.89,0.12,1.35,0.27l87,169.12c-0.15,0.46-0.37,0.87-0.56,1.25
	L418.84,2.11z M408.65,0.65c0.38,0,0.84,0.05,1.27,0.12l92.61,180.02c-0.19,0.38-0.41,0.79-0.64,1.1L408.65,0.65z M398.86,0
	c0.4,0.03,0.82,0.01,1.24,0.08l97.28,189.09c-0.19,0.38-0.45,0.72-0.66,1.06L398.86,0z M389.59,0.24c0.38-0.1,0.77-0.11,1.17-0.07
	l101.12,196.56c-0.2,0.35-0.43,0.66-0.74,0.91L389.59,0.24z M277.67,146.96l29.04,56.45c-1.04-1.1-2.02-2.24-2.97-3.43l-25-48.6
	C278.32,149.91,277.99,148.44,277.67,146.96z M381.68,0.89L486.02,203.7c-0.25,0.27-0.49,0.54-0.8,0.8L380.57,1.07
	C380.95,0.97,381.31,0.93,381.68,0.89z M372.97,2.33l106.81,207.62c-0.25,0.27-0.5,0.54-0.8,0.79L371.87,2.52
	C372.25,2.41,372.61,2.37,372.97,2.33z M364.58,4.29l108.74,211.35c-0.27,0.23-0.57,0.49-0.86,0.68L363.53,4.59
	C363.86,4.47,364.23,4.37,364.58,4.29z M275,123.51l49.26,95.75c-0.68-0.47-1.31-0.96-1.97-1.49l-47.22-91.78
	C275.02,125.14,274.99,124.33,275,123.51z M356.45,6.83l110.06,213.94c-0.27,0.23-0.55,0.43-0.9,0.6L355.43,7.21
	C355.77,7.04,356.1,6.92,356.45,6.83z M348.58,9.92l110.85,215.47c-0.27,0.23-0.61,0.41-0.91,0.57L347.59,10.33
	C347.9,10.17,348.24,10,348.58,9.92z M275.88,106.86l62.44,121.36c-0.6-0.32-1.14-0.62-1.7-0.96L275.68,108.8
	C275.69,108.16,275.77,107.49,275.88,106.86z M340.99,13.44l111.17,216.07c-0.04,0.02-0.04,0.02-0.08,0.04
	c-0.3,0.16-0.57,0.29-0.9,0.41l-111.12-216c0.28-0.2,0.55-0.33,0.86-0.49C340.96,13.45,340.96,13.45,340.99,13.44z M333.68,17.59
	l110.84,215.46c-0.28,0.19-0.65,0.33-0.99,0.41L332.77,18.15C333.03,17.92,333.36,17.71,333.68,17.59z M278.33,93.26l72.46,140.83
	c-0.54-0.21-1.03-0.39-1.52-0.62L277.95,94.85C278.06,94.31,278.19,93.81,278.33,93.26z M326.64,22.17l110.06,213.94
	c-0.31,0.16-0.67,0.3-1.01,0.38L325.75,22.77C326.01,22.54,326.34,22.33,326.64,22.17z M281.75,81.62l80.49,156.46
	c-0.5-0.13-0.96-0.27-1.42-0.42L281.26,83.02C281.41,82.56,281.56,82.1,281.75,81.62z M319.82,27.27L428.59,238.7
	c-0.36,0.14-0.7,0.22-1.07,0.26L318.98,27.99C319.23,27.72,319.5,27.49,319.82,27.27z M285.88,71.3l87.16,169.42
	c-0.42-0.07-0.88-0.12-1.32-0.23L285.3,72.51C285.47,72.09,285.69,71.68,285.88,71.3z M313.29,32.95l106.88,207.77
	c-0.38,0.1-0.75,0.14-1.11,0.19L312.49,33.74C312.74,33.47,312.99,33.2,313.29,32.95z M307.09,39.17l104.42,202.96
	c-0.36,0.04-0.76,0.11-1.15,0.11L306.34,40.04C306.56,39.73,306.85,39.44,307.09,39.17z M290.57,62.04l92.73,180.25
	c-0.44-0.02-0.84-0.05-1.27-0.12l-92.1-179.03C290.12,62.76,290.32,62.41,290.57,62.04z M301.21,46.1l101.24,196.79
	c-0.4,0.06-0.78,0.07-1.19,0.03L300.5,47.05C300.7,46.7,300.93,46.4,301.21,46.1z M295.67,53.68L393.06,243
	c-0.41-0.03-0.83-0.01-1.25-0.08L295.01,54.74C295.19,54.36,295.46,54.03,295.67,53.68z M700.25,10.14l2.03,0.54l-6.85,25.56
	l-2.02-0.54L700.25,10.14z M642.75,10.14l6.85,25.56l-2.03,0.54l-6.85-25.56L642.75,10.14z M674.12,0v39.46h-5.24V0H674.12z
	 M613.02,14.97l19.73,34.17l-4.54,2.62l-19.73-34.17L613.02,14.97z M729.98,14.97l4.54,2.62l-19.73,34.17l-4.54-2.62L729.98,14.97z
	 M590.92,39.44l18.71,18.71l-1.48,1.48l-18.72-18.71L590.92,39.44z M752.08,39.44l1.48,1.48l-18.71,18.71l-1.48-1.48L752.08,39.44z
	 M567.59,58.48l34.17,19.73l-2.62,4.54l-34.17-19.73L567.59,58.48z M775.41,58.48l2.62,4.54l-34.17,19.73l-2.62-4.54L775.41,58.48z
	 M560.69,90.72l25.56,6.85l-0.54,2.02l-25.57-6.85L560.69,90.72z M782.32,90.72l0.54,2.02l-25.57,6.85l-0.54-2.02L782.32,90.72z
	 M793,118.88v5.24h-39.46v-5.24H793z M589.46,118.88v5.24H550v-5.24H589.46z M757.29,143.4l25.57,6.85l-0.54,2.02l-25.57-6.85
	L757.29,143.4z M585.71,143.4l0.54,2.02l-25.56,6.85l-0.54-2.03L585.71,143.4z M599.14,160.25l2.62,4.54l-34.17,19.73l-2.62-4.54
	L599.14,160.25z M743.86,160.25l34.17,19.73l-2.62,4.54l-34.17-19.73L743.86,160.25z M608.15,183.36l1.48,1.48l-18.71,18.71
	l-1.48-1.48L608.15,183.36z M734.85,183.37l18.71,18.71l-1.48,1.48l-18.72-18.71L734.85,183.37z M714.79,191.24l19.73,34.17
	l-4.54,2.62l-19.73-34.17L714.79,191.24z M628.21,191.24l4.54,2.62l-19.73,34.18l-4.54-2.62L628.21,191.24z M695.43,206.75
	l6.85,25.56l-2.03,0.54l-6.85-25.56L695.43,206.75z M647.57,206.75l2.03,0.54l-6.85,25.56l-2.03-0.54L647.57,206.75z M674.12,203.54
	V243h-5.24v-39.46H674.12z M1032.71,37.83c2.01,0,3.64,1.65,3.64,3.68v28.97l24.9,14.49c1.74,1.01,2.34,3.26,1.34,5.02
	c-0.67,1.18-1.9,1.84-3.16,1.84c-0.61,0-1.24-0.16-1.81-0.49l-28.54-16.61V41.51C1029.07,39.48,1030.7,37.83,1032.71,37.83z
	 M860.07,37.95c2.01,0,3.64,1.64,3.64,3.67l0.04,33.25l-28.52,16.64c-0.57,0.33-1.2,0.49-1.81,0.49c-1.26,0-2.48-0.66-3.15-1.84
	c-1.01-1.76-0.41-4,1.33-5.02l24.88-14.51l-0.03-28.99C856.43,39.6,858.06,37.95,860.07,37.95L860.07,37.95z M1011.14,19.48
	c2.01,0,3.64,1.65,3.64,3.68v60.02l51.4,29.9c1.74,1.01,2.34,3.26,1.34,5.02c-0.67,1.18-1.9,1.84-3.16,1.84
	c-0.62,0-1.24-0.16-1.81-0.49l-55.04-32.02V23.16C1007.5,21.13,1009.13,19.48,1011.14,19.48z M881.7,19.51
	c2.01,0,3.64,1.64,3.64,3.67l0.08,64.2l-54.96,32.06c-0.57,0.33-1.2,0.49-1.82,0.49c-1.26,0-2.48-0.66-3.15-1.84
	c-1.01-1.76-0.41-4,1.33-5.02l51.32-29.94l-0.07-59.95C878.06,21.16,879.69,19.52,881.7,19.51L881.7,19.51z M989.58,8.21
	c2.01,0,3.64,1.65,3.64,3.68v83.84l71.86,41.81c1.74,1.01,2.34,3.26,1.34,5.02c-0.67,1.18-1.9,1.84-3.16,1.84
	c-0.61,0-1.24-0.16-1.81-0.49l-75.5-43.93V11.89C985.94,9.86,987.57,8.21,989.58,8.21z M903.21,8.25c2.01,0,3.64,1.64,3.64,3.67
	l0.11,88.07l-75.48,44.04c-0.57,0.33-1.2,0.49-1.82,0.49c-1.26,0-2.48-0.66-3.15-1.84c-1.01-1.76-0.41-4,1.33-5.02l71.84-41.91
	l-0.1-83.81C899.57,9.9,901.2,8.25,903.21,8.25L903.21,8.25z M925.24,1.92c2.01,0.01,3.63,1.66,3.63,3.69l-0.36,106.96l-91.61,53.45
	c-0.57,0.34-1.2,0.49-1.82,0.49c-1.26,0-2.48-0.66-3.16-1.84c-1-1.76-0.41-4.01,1.33-5.02l87.99-51.33l0.34-102.74
	c0.01-2.02,1.64-3.66,3.64-3.66H925.24z M968.01,1.98c2.01,0,3.64,1.65,3.64,3.68v102.66l87.88,51.67c1.74,1.02,2.33,3.27,1.32,5.03
	c-0.68,1.17-1.9,1.82-3.15,1.82c-0.62,0-1.25-0.16-1.83-0.5l-91.5-53.8V5.66C964.37,3.63,966,1.98,968.01,1.98z M946.45,0
	c2.01,0,3.64,1.65,3.64,3.68V120.9l100.48,58.61c1.74,1.02,2.34,3.26,1.33,5.02c-1.01,1.76-3.23,2.36-4.97,1.35l-100.47-58.61
	l-100.47,58.62c-0.57,0.33-1.2,0.49-1.81,0.49c-1.26,0-2.48-0.66-3.16-1.83c-1-1.76-0.41-4.01,1.33-5.03l100.47-58.62V3.68
	C942.81,1.65,944.44,0,946.45,0z M946.45,143.95l91.58,53.43c1.74,1.02,2.34,3.26,1.33,5.02c-0.67,1.18-1.9,1.84-3.16,1.84
	c-0.62,0-1.24-0.16-1.82-0.49l-87.96-51.32l-88.19,51.05c-1.74,1.01-3.97,0.4-4.96-1.36c-1-1.76-0.4-4,1.35-5.01L946.45,143.95z
	 M946.44,169.11l75.46,44.03c1.74,1.02,2.34,3.26,1.33,5.03c-1,1.76-3.23,2.36-4.97,1.34l-71.82-41.9l-71.74,41.97
	c-0.57,0.34-1.2,0.49-1.82,0.49c-1.26,0-2.48-0.65-3.15-1.83c-1.01-1.76-0.41-4,1.32-5.02L946.44,169.11z M946.42,194.25
	l55.08,32.14c1.74,1.01,2.34,3.26,1.33,5.02c-1,1.76-3.23,2.36-4.97,1.35l-51.44-30.01l-51.34,30.03c-0.57,0.34-1.2,0.5-1.82,0.5
	c-1.26,0-2.48-0.66-3.15-1.83c-1.01-1.76-0.41-4.01,1.32-5.03L946.42,194.25z M946.52,219.48l28.49,16.63
	c1.74,1.01,2.34,3.26,1.33,5.02c-1.01,1.76-3.23,2.36-4.97,1.34l-24.85-14.5l-24.84,14.53c-0.57,0.34-1.2,0.5-1.82,0.5
	c-1.26,0-2.48-0.66-3.15-1.84c-1.01-1.76-0.41-4.01,1.33-5.02L946.52,219.48z M1341.44,114.87l-4.78-8.53l2.41-9.48
	c1.05-4.13-0.46-9.76-3.43-12.81l-6.83-7l-0.12-9.78c-0.05-4.26-2.96-9.31-6.63-11.48l-8.41-4.99l-2.65-9.41
	c-1.15-4.1-5.28-8.22-9.38-9.38l-9.41-2.65l-4.99-8.41c-2.18-3.67-7.22-6.58-11.48-6.63l-9.78-0.12l-7-6.83
	c-3.06-2.98-8.69-4.49-12.81-3.43l-9.47,2.41l-8.53-4.78c-3.72-2.09-9.54-2.09-13.26,0l-8.53,4.78l-9.48-2.41
	c-4.13-1.06-9.76,0.45-12.81,3.43l-7,6.83l-9.77,0.12c-4.27,0.05-9.31,2.96-11.49,6.63l-4.99,8.41l-9.41,2.65
	c-4.1,1.16-8.22,5.28-9.38,9.38l-2.65,9.41l-8.41,4.99c-3.67,2.18-6.58,7.22-6.63,11.48l-0.12,9.78l-6.83,7
	c-2.98,3.05-4.49,8.68-3.43,12.81l2.41,9.47l-4.79,8.53c-2.09,3.72-2.09,9.55,0,13.26l4.79,8.53l-2.41,9.47
	c-1.05,4.13,0.45,9.76,3.43,12.81l6.83,7l0.12,9.78c0.05,4.27,2.96,9.31,6.63,11.49l8.41,4.99l2.65,9.41
	c1.15,4.11,5.27,8.22,9.38,9.38l9.41,2.65l4.99,8.41c2.18,3.67,7.22,6.58,11.49,6.63l9.77,0.12l7,6.83
	c3.05,2.97,8.68,4.49,12.81,3.43l9.48-2.41l8.53,4.78c1.86,1.04,4.24,1.56,6.63,1.56c2.38,0,4.77-0.52,6.63-1.56l8.53-4.78
	l9.48,2.41c0.89,0.23,1.85,0.34,2.83,0.34c3.6,0,7.58-1.43,9.98-3.77l7-6.83l9.78-0.12c4.26-0.05,9.3-2.96,11.48-6.63l4.99-8.41
	l9.41-2.65c4.1-1.15,8.23-5.27,9.38-9.38l2.65-9.41l8.41-5c3.67-2.18,6.58-7.22,6.63-11.49l0.12-9.78l6.83-7
	c2.97-3.05,4.48-8.68,3.43-12.81l-2.41-9.48l4.78-8.53C1343.52,124.41,1343.52,118.59,1341.44,114.87z M1333.32,86.3
	c2.2,2.25,3.4,6.72,2.62,9.77l-1.58,6.19l-2.29-4.08c-1.67-2.97-3.11-8.37-3.15-11.77l-0.06-4.68L1333.32,86.3z M1290.09,210.89
	l-7.77,2.18c-0.05,0.01-0.11,0.04-0.15,0.05c0.04-0.07,0.1-0.14,0.14-0.22l4.54-7.64l7.97-2.24c-0.21,0.31-0.43,0.63-0.61,0.93
	L1290.09,210.89z M1148.79,203.95c-0.28-0.46-0.6-0.95-0.96-1.44c0.33,0.13,0.65,0.25,0.98,0.35l8.56,2.41l4.54,7.64
	c0.15,0.26,0.33,0.51,0.51,0.76c-0.6-0.23-1.19-0.44-1.75-0.59l-7.77-2.18L1148.79,203.95z M1326.62,97.6l-1.36,5.33l-1.92-3.43
	c-1.52-2.7-2.83-7.6-2.86-10.7l-0.05-3.93l3.84,3.93C1326.24,90.83,1327.32,94.86,1326.62,97.6z M1325.43,126.43
	c-0.77-3-0.77-8.08,0-11.08l0.97-3.81l2.69,4.8c1.38,2.47,1.38,6.64,0,9.11l-2.69,4.79L1325.43,126.43z M1322.31,127.22l1.8,7.09
	l-3.58,6.39c-1.79,3.2-3.23,8.57-3.27,12.23l-0.09,7.32l-5.11,5.24c-2.56,2.63-5.34,7.44-6.33,10.97l-1.98,7.05l-6.29,3.74
	c-3.15,1.87-7.08,5.81-8.96,8.96l-3.74,6.29l-7.05,1.98c-3.53,0.99-8.35,3.77-10.97,6.33l-5.24,5.11l-7.32,0.09
	c-3.67,0.04-9.04,1.48-12.24,3.28l-6.39,3.58l-7.09-1.8c-3.55-0.91-9.12-0.91-12.67,0l-7.09,1.8l-6.39-3.58
	c-3.2-1.79-8.57-3.24-12.24-3.28l-7.32-0.09l-5.24-5.11c-2.63-2.56-7.45-5.34-10.97-6.33l-7.05-1.98l-3.74-6.29
	c-1.87-3.15-5.81-7.09-8.96-8.96l-6.29-3.74l-1.99-7.05c-0.99-3.53-3.78-8.35-6.33-10.97l-5.11-5.24l-0.09-7.32
	c-0.04-3.66-1.48-9.04-3.27-12.23l-3.59-6.39l1.81-7.09c0.91-3.55,0.91-9.12,0-12.67l-1.8-7.1l3.58-6.39
	c1.79-3.2,3.23-8.57,3.27-12.24l0.09-7.32l5.11-5.24c2.56-2.62,5.34-7.44,6.34-10.97l1.99-7.05l6.29-3.74
	c3.15-1.87,7.09-5.81,8.96-8.96l3.74-6.29l7.05-1.98c3.53-0.99,8.34-3.77,10.97-6.34l5.24-5.11l7.32-0.09
	c3.67-0.04,9.04-1.48,12.24-3.28l6.39-3.58l7.09,1.81c3.55,0.91,9.12,0.91,12.67,0l7.09-1.81l6.39,3.58
	c3.2,1.79,8.57,3.23,12.24,3.28l7.32,0.09l5.24,5.11c2.62,2.56,7.44,5.34,10.97,6.34l7.05,1.98l3.74,6.29
	c1.88,3.15,5.81,7.09,8.96,8.96l6.29,3.74l1.98,7.05c0.99,3.53,3.78,8.35,6.33,10.97l5.11,5.24l0.09,7.32
	c0.04,3.66,1.48,9.04,3.27,12.24l3.58,6.39l-1.8,7.1C1321.4,118.11,1321.4,123.67,1322.31,127.22z M1326.62,144.18
	c0.7,2.74-0.38,6.78-2.36,8.8l-3.84,3.94l0.05-3.93c0.03-3.1,1.35-8,2.86-10.7l1.92-3.43L1326.62,144.18z M1317.04,170.43
	c-0.04,2.83-2.12,6.44-4.56,7.89l-4.73,2.81l1.07-3.79c0.84-2.98,3.38-7.37,5.54-9.59l2.74-2.81L1317.04,170.43z M1300.98,193.31
	c-0.77,2.72-3.72,5.67-6.44,6.44l-5.29,1.49l2.01-3.38c1.59-2.67,5.17-6.25,7.83-7.83l3.38-2.01L1300.98,193.31z M1271.66,215.81
	l-5.5,0.07l2.82-2.75c2.22-2.16,6.61-4.7,9.59-5.54l3.79-1.07l-2.81,4.73C1278.1,213.69,1274.49,215.78,1271.66,215.81z
	 M1245.4,225.4l-5.33-1.36l3.43-1.92c2.7-1.52,7.6-2.83,10.71-2.87l3.93-0.05l-3.94,3.84C1252.18,225.02,1248.14,226.1,1245.4,225.4
	z M1217.56,227.87l-4.8-2.69l3.81-0.97c3.01-0.76,8.08-0.76,11.08,0l3.81,0.97l-4.8,2.69
	C1224.2,229.25,1220.03,229.25,1217.56,227.87z M1190.03,223.04l-3.94-3.84l3.93,0.05c3.1,0.04,8,1.35,10.7,2.87l3.43,1.92
	l-5.33,1.36C1196.08,226.1,1192.05,225.02,1190.03,223.04z M1164.68,211.26l-2.81-4.73l3.79,1.07c2.98,0.83,7.37,3.37,9.59,5.54
	l2.81,2.75l-5.5-0.07C1169.74,215.78,1166.12,213.69,1164.68,211.26z M1143.25,193.31l-1.49-5.3l3.38,2.01
	c2.67,1.58,6.25,5.17,7.83,7.83l2.01,3.38l-5.3-1.49C1146.97,198.99,1144.02,196.04,1143.25,193.31z M1136.47,181.13l-4.73-2.81
	c-2.43-1.45-4.52-5.06-4.55-7.89l-0.07-5.5l2.75,2.81c2.16,2.22,4.7,6.61,5.54,9.59L1136.47,181.13z M1117.6,144.18l1.36-5.33
	l1.92,3.43c1.52,2.7,2.83,7.6,2.87,10.7l0.05,3.93l-3.84-3.93C1117.98,150.95,1116.9,146.92,1117.6,144.18z M1118.8,115.35
	c0.76,3,0.76,8.08,0,11.08l-0.97,3.81l-2.69-4.8c-1.38-2.47-1.38-6.64,0-9.11l2.69-4.8L1118.8,115.35z M1117.6,97.6
	c-0.7-2.74,0.38-6.77,2.36-8.8l3.84-3.94l-0.05,3.93c-0.03,3.1-1.35,8-2.87,10.7l-1.92,3.43L1117.6,97.6z M1127.12,76.84l0.07-5.5
	c0.03-2.83,2.12-6.44,4.55-7.89l4.73-2.81l-1.07,3.79c-0.84,2.98-3.38,7.38-5.54,9.59L1127.12,76.84z M1149.69,42.02l5.3-1.49
	l-2.01,3.38c-1.58,2.66-5.17,6.25-7.83,7.83l-3.38,2.01l1.49-5.29C1144.02,45.74,1146.97,42.79,1149.69,42.02z M1172.57,25.96
	l5.5-0.07l-2.81,2.75c-2.22,2.16-6.61,4.7-9.59,5.54l-3.79,1.07l2.81-4.73C1166.12,28.09,1169.74,26,1172.57,25.96z M1196.98,16.16
	c0.65,0,1.27,0.07,1.84,0.21l5.33,1.36l-3.43,1.92c-2.7,1.52-7.6,2.83-10.7,2.87l-3.93,0.05l3.94-3.84
	C1191.63,17.17,1194.5,16.16,1196.98,16.16z M1217.56,13.91c1.23-0.69,2.9-1.04,4.56-1.04c1.66,0,3.32,0.35,4.56,1.04l4.79,2.69
	l-3.81,0.97c-3.01,0.76-8.08,0.76-11.08,0l-3.81-0.97L1217.56,13.91L1217.56,13.91z M1245.4,16.38c2.74-0.7,6.78,0.38,8.8,2.35
	l3.94,3.84l-3.93-0.05c-3.1-0.04-8-1.35-10.71-2.87l-3.43-1.92L1245.4,16.38z M1271.66,25.96c2.83,0.04,6.45,2.12,7.89,4.55
	l2.81,4.73l-3.79-1.07c-2.98-0.84-7.37-3.37-9.59-5.54l-2.82-2.75L1271.66,25.96z M1294.54,42.02c2.72,0.76,5.67,3.72,6.44,6.44
	l1.49,5.29l-3.38-2.01c-2.67-1.58-6.25-5.17-7.83-7.83l-2.01-3.38L1294.54,42.02z M1317.04,71.34l0.06,5.5l-2.74-2.82
	c-2.16-2.22-4.7-6.61-5.54-9.59l-1.07-3.79l4.73,2.81C1314.91,64.9,1317,68.51,1317.04,71.34z M1325.69,85.65l-5.32-5.46l-0.09-7.26
	l5.32,5.45L1325.69,85.65z M1312.87,59.94l-6.38-3.79l-1.98-7.03l6.38,3.79L1312.87,59.94z M1286.85,36.51l-3.79-6.38l7.03,1.98
	l3.79,6.38L1286.85,36.51z M1262.81,22.63l-5.46-5.32l7.26,0.09l5.45,5.32L1262.81,22.63z M1235.99,15.45l-6.87-3.85l7.08-1.8
	l6.87,3.85L1235.99,15.45z M1208.23,15.45l-7.92-2.02l6.49-3.64l7.82,1.99c0.03,0.01,0.07,0.01,0.11,0.02L1208.23,15.45z
	 M1181.42,22.63l-8.5,0.1l5.47-5.33l8.06-0.1c0.15,0,0.31-0.02,0.45-0.02L1181.42,22.63z M1157.37,36.51l-8.5,2.39l4.03-6.8
	l7.77-2.18c0.24-0.07,0.5-0.17,0.75-0.25L1157.37,36.51z M1137.74,56.15l-7.64,4.54c-0.08,0.04-0.15,0.1-0.22,0.14
	c0.02-0.05,0.04-0.11,0.05-0.15l2.19-7.77l6.93-4.12c0.3-0.18,0.62-0.4,0.93-0.61L1137.74,56.15z M1123.86,80.19l-6.2,6.36
	c-0.14,0.14-0.25,0.3-0.38,0.45c0.01-0.18,0.03-0.38,0.03-0.56l0.1-8.07l5.63-5.77c0.31-0.31,0.62-0.67,0.92-1.03L1123.86,80.19z
	 M1114.47,98.31c0.01,0.03,0.01,0.05,0.01,0.08l2.19,8.61l-4.35,7.75c-0.13,0.23-0.23,0.5-0.35,0.76c-0.06-0.31-0.12-0.62-0.19-0.91
	l-2-7.82l3.95-7.03C1113.99,99.31,1114.23,98.83,1114.47,98.31z M1111.79,128.39c0.14-0.55,0.25-1.15,0.35-1.77
	c0.07,0.13,0.11,0.28,0.19,0.41l4.35,7.75l-2.19,8.61c-0.08,0.32-0.12,0.65-0.17,0.99c-0.19-0.39-0.37-0.78-0.57-1.13l-3.95-7.04
	L1111.79,128.39z M1117.3,156.55c-0.01-0.59-0.05-1.23-0.13-1.9c0.16,0.19,0.31,0.4,0.47,0.57l6.21,6.36l0.11,8.89
	c0.01,0.34,0.04,0.69,0.08,1.04c-0.34-0.4-0.67-0.78-1.01-1.13l-5.63-5.77L1117.3,156.55z M1129.93,182.33
	c-0.16-0.56-0.36-1.14-0.59-1.75c0.25,0.19,0.51,0.36,0.76,0.51l7.64,4.54l2.4,8.55c0.09,0.33,0.21,0.65,0.35,0.98
	c-0.49-0.35-0.98-0.68-1.44-0.95l-6.93-4.12L1129.93,182.33z M1172.53,219.04l8.89,0.11l6.36,6.2c0.17,0.17,0.37,0.32,0.55,0.47
	c-0.66-0.07-1.29-0.12-1.88-0.13l-8.06-0.1l-5.78-5.63c-0.34-0.34-0.72-0.67-1.12-1.01C1171.83,219,1172.18,219.03,1172.53,219.04z
	 M1199.62,228.52l8.61-2.19l7.75,4.35c0.13,0.07,0.27,0.12,0.41,0.19c-0.62,0.1-1.22,0.21-1.77,0.35l-7.82,1.99l-7.04-3.95
	c-0.35-0.19-0.73-0.38-1.11-0.56C1198.98,228.65,1199.31,228.6,1199.62,228.52z M1228.24,230.68l7.75-4.35l8.61,2.19
	c0.03,0.01,0.06,0.01,0.08,0.02c-0.51,0.24-1,0.48-1.44,0.73l-7.04,3.95l-7.81-1.99c-0.29-0.07-0.61-0.13-0.91-0.19
	C1227.74,230.91,1228,230.81,1228.24,230.68z M1256.45,225.35l6.36-6.2l8.62-0.11c-0.37,0.31-0.72,0.62-1.04,0.93l-5.77,5.63
	l-8.07,0.1c-0.18,0-0.37,0.03-0.56,0.03C1256.15,225.6,1256.31,225.48,1256.45,225.35z M1306.49,185.63l6.83-4.06
	c-0.08,0.25-0.18,0.51-0.25,0.75l-2.18,7.77l-6.8,4.03L1306.49,185.63z M1320.37,161.59l5.35-5.49c-0.01,0.15-0.02,0.31-0.02,0.45
	l-0.1,8.07l-5.33,5.47L1320.37,161.59z M1329.57,142.69l-2.02-7.92l3.64-6.49c0.01,0.04,0.02,0.08,0.02,0.11l1.99,7.82
	L1329.57,142.69z M1331.41,113.88l-3.85-6.87l1.81-7.08l3.85,6.87L1331.41,113.88z M1320.41,58.56c2.7,1.6,5.02,5.61,5.06,8.75
	l0.08,6.39l-3.27-3.35c-2.38-2.44-5.17-7.27-6.09-10.56l-1.27-4.51L1320.41,58.56z M1300.75,35.1c3.02,0.85,6.3,4.13,7.15,7.15
	l1.73,6.15l-4.03-2.39c-2.93-1.74-6.88-5.69-8.62-8.62l-2.39-4.02L1300.75,35.1z M1275.69,17.54c3.14,0.04,7.15,2.35,8.76,5.05
	l3.26,5.5l-4.51-1.27c-3.28-0.92-8.11-3.71-10.55-6.09l-3.35-3.27L1275.69,17.54z M1246.93,7.06c3.05-0.77,7.52,0.42,9.77,2.62
	l4.57,4.46l-4.68-0.06c-3.41-0.04-8.8-1.49-11.77-3.16l-4.08-2.29L1246.93,7.06z M1216.45,4.37c2.74-1.54,7.37-1.54,10.11,0
	l5.58,3.13l-4.54,1.15c-3.3,0.84-8.88,0.84-12.19,0l-4.54-1.15L1216.45,4.37z M1186.31,9.67c2.25-2.19,6.72-3.39,9.76-2.62
	l6.19,1.58l-4.08,2.29c-2.97,1.67-8.36,3.11-11.77,3.15l-4.68,0.06L1186.31,9.67z M1158.56,22.59c1.6-2.7,5.61-5.01,8.75-5.05
	l6.39-0.08l-3.35,3.27c-2.44,2.38-7.27,5.17-10.56,6.09l-4.51,1.27L1158.56,22.59z M1135.11,42.25c0.85-3.02,4.12-6.3,7.15-7.15
	l6.15-1.73l-2.39,4.02c-1.74,2.93-5.69,6.88-8.62,8.62l-4.02,2.39L1135.11,42.25z M1117.54,67.32c0.04-3.14,2.35-7.15,5.05-8.75
	l5.5-3.27l-1.27,4.51c-0.93,3.28-3.72,8.12-6.1,10.56l-3.27,3.35L1117.54,67.32z M1107.06,96.07c-0.77-3.04,0.43-7.52,2.62-9.77
	l4.47-4.58l-0.06,4.68c-0.04,3.41-1.49,8.8-3.16,11.77l-2.29,4.08L1107.06,96.07z M1104.38,126.55c-1.53-2.74-1.53-7.37,0-10.11
	l3.13-5.58l1.16,4.54c0.84,3.3,0.84,8.89,0,12.19l-1.16,4.54L1104.38,126.55z M1109.68,156.69c-2.19-2.25-3.39-6.72-2.62-9.76
	l1.58-6.19l2.29,4.08c1.67,2.97,3.11,8.36,3.16,11.77l0.06,4.68L1109.68,156.69z M1122.59,184.44c-2.7-1.6-5.01-5.61-5.05-8.75
	l-0.08-6.39l3.27,3.35c2.38,2.44,5.17,7.27,6.1,10.56l1.27,4.51L1122.59,184.44z M1142.26,207.89c-3.02-0.85-6.3-4.12-7.15-7.14
	l-1.73-6.15l4.02,2.39c2.93,1.74,6.88,5.69,8.62,8.62l2.39,4.02L1142.26,207.89z M1167.32,225.46c-3.14-0.04-7.15-2.35-8.75-5.05
	l-3.27-5.5l4.51,1.27c3.28,0.92,8.11,3.72,10.56,6.1l3.35,3.26L1167.32,225.46z M1196.07,235.94c-3.05,0.77-7.52-0.43-9.76-2.62
	l-4.58-4.46l4.68,0.06c3.41,0.04,8.8,1.48,11.77,3.16l4.08,2.29L1196.07,235.94z M1226.56,238.62c-2.74,1.54-7.37,1.54-10.11,0
	l-5.58-3.13l4.54-1.15c3.31-0.84,8.89-0.84,12.19,0l4.53,1.15L1226.56,238.62z M1256.7,233.33c-2.25,2.19-6.73,3.4-9.77,2.62
	l-6.2-1.58l4.08-2.29c2.97-1.67,8.37-3.11,11.77-3.16l4.68-0.06L1256.7,233.33z M1284.44,220.4c-1.61,2.7-5.62,5.02-8.76,5.06
	l-6.39,0.07l3.35-3.26c2.44-2.38,7.28-5.17,10.55-6.1l4.51-1.27L1284.44,220.4z M1307.9,200.75c-0.85,3.02-4.13,6.3-7.15,7.14
	l-6.15,1.73l2.39-4.02c1.74-2.93,5.69-6.88,8.62-8.62l4.03-2.39L1307.9,200.75z M1325.46,175.68c-0.04,3.14-2.35,7.15-5.06,8.75
	l-5.49,3.27l1.27-4.51c0.92-3.28,3.71-8.12,6.09-10.56l3.27-3.35L1325.46,175.68z M1335.94,146.93c0.78,3.04-0.42,7.52-2.62,9.76
	l-4.46,4.58l0.06-4.68c0.04-3.41,1.48-8.8,3.15-11.77l2.29-4.08L1335.94,146.93z M1338.62,126.55l-3.13,5.57l-1.15-4.53
	c-0.84-3.3-0.84-8.88,0-12.19l1.15-4.54l3.13,5.58C1340.17,119.19,1340.17,123.81,1338.62,126.55z M1462.88,0
	c2.36,0,4.27,1.89,4.27,4.22c0,2.33-1.91,4.22-4.27,4.22c-2.36,0-4.27-1.89-4.27-4.22C1458.61,1.89,1460.52,0,1462.88,0z M1496.04,0
	c2.25,0,4.08,1.89,4.08,4.22c0,2.33-1.83,4.22-4.08,4.22c-2.25,0-4.08-1.89-4.08-4.22C1491.96,1.89,1493.78,0,1496.04,0z M1479.87,0
	c2.22,0,4.01,1.89,4.01,4.22c0,2.33-1.8,4.22-4.01,4.22c-2.22,0-4.01-1.89-4.01-4.22C1475.86,1.89,1477.66,0,1479.87,0z M1530.01,0
	c2.25,0,4.08,1.89,4.08,4.22c0,2.33-1.83,4.22-4.08,4.22c-2.25,0-4.08-1.89-4.08-4.22C1525.93,1.89,1527.75,0,1530.01,0z M1513.02,0
	c2.32,0,4.21,1.89,4.21,4.22c0,2.33-1.89,4.22-4.21,4.22s-4.2-1.89-4.2-4.22C1508.82,1.89,1510.7,0,1513.02,0z M1429.67,15.77
	c2.35,0,4.25,1.91,4.25,4.26c0,2.35-1.91,4.27-4.25,4.27c-2.35,0-4.25-1.91-4.25-4.27C1425.42,17.68,1427.32,15.77,1429.67,15.77z
	 M1497.11,15.77c2.35,0,4.25,1.91,4.25,4.26c0,2.35-1.91,4.27-4.25,4.27c-2.35,0-4.25-1.91-4.25-4.27
	C1492.85,17.68,1494.76,15.77,1497.11,15.77z M1479.49,15.77c2.35,0,4.25,1.91,4.25,4.26c0,2.35-1.91,4.27-4.25,4.27
	c-2.35,0-4.25-1.91-4.25-4.27C1475.24,17.68,1477.14,15.77,1479.49,15.77z M1463.09,15.77c2.35,0,4.25,1.91,4.25,4.26
	c0,2.35-1.9,4.27-4.25,4.27c-2.35,0-4.25-1.91-4.25-4.27C1458.83,17.68,1460.73,15.77,1463.09,15.77z M1446.68,15.77
	c2.35,0,4.25,1.91,4.25,4.26c0,2.35-1.91,4.27-4.25,4.27c-2.35,0-4.25-1.91-4.25-4.27C1442.43,17.68,1444.33,15.77,1446.68,15.77z
	 M1529.91,15.77c2.35,0,4.25,1.91,4.25,4.26c0,2.35-1.91,4.27-4.25,4.27c-2.35,0-4.25-1.91-4.25-4.27
	C1525.66,17.68,1527.56,15.77,1529.91,15.77z M1513.51,15.77c2.35,0,4.25,1.91,4.25,4.26c0,2.35-1.91,4.27-4.25,4.27
	c-2.35,0-4.25-1.91-4.25-4.27C1509.26,17.68,1511.16,15.77,1513.51,15.77z M1563.93,15.77c2.35,0,4.25,1.91,4.25,4.26
	c0,2.35-1.91,4.27-4.25,4.27c-2.35,0-4.25-1.91-4.25-4.27C1559.68,17.68,1561.58,15.77,1563.93,15.77z M1546.31,15.77
	c2.35,0,4.25,1.91,4.25,4.26c0,2.35-1.91,4.27-4.25,4.27c-2.35,0-4.25-1.91-4.25-4.27C1542.06,17.68,1543.96,15.77,1546.31,15.77z
	 M1446.68,33.44c2.35,0,4.25,1.91,4.25,4.26c0,2.35-1.91,4.26-4.25,4.26c-2.35,0-4.25-1.91-4.25-4.26
	C1442.43,35.35,1444.33,33.44,1446.68,33.44z M1412.66,33.44c2.35,0,4.25,1.91,4.25,4.26c0,2.35-1.9,4.26-4.25,4.26
	c-2.35,0-4.25-1.91-4.25-4.26C1408.41,35.35,1410.31,33.44,1412.66,33.44z M1513.51,33.44c2.35,0,4.25,1.91,4.25,4.26
	c0,2.35-1.91,4.26-4.25,4.26c-2.35,0-4.25-1.91-4.25-4.26C1509.26,35.35,1511.16,33.44,1513.51,33.44z M1580.33,33.44
	c2.35,0,4.25,1.91,4.25,4.26c0,2.35-1.91,4.26-4.25,4.26c-2.35,0-4.25-1.91-4.25-4.26C1576.08,35.35,1577.99,33.44,1580.33,33.44z
	 M1563.93,33.44c2.35,0,4.25,1.91,4.25,4.26c0,2.35-1.91,4.26-4.25,4.26c-2.35,0-4.25-1.91-4.25-4.26
	C1559.68,35.35,1561.58,33.44,1563.93,33.44z M1529.91,33.44c2.35,0,4.25,1.91,4.25,4.26c0,2.35-1.91,4.26-4.25,4.26
	c-2.35,0-4.25-1.91-4.25-4.26C1525.66,35.35,1527.56,33.44,1529.91,33.44z M1546.31,33.44c2.35,0,4.25,1.91,4.25,4.26
	c0,2.35-1.91,4.26-4.25,4.26c-2.35,0-4.25-1.91-4.25-4.26C1542.06,35.35,1543.96,33.44,1546.31,33.44z M1479.49,33.44
	c2.35,0,4.25,1.91,4.25,4.26c0,2.35-1.91,4.26-4.25,4.26c-2.35,0-4.25-1.91-4.25-4.26C1475.24,35.35,1477.14,33.44,1479.49,33.44z
	 M1497.11,33.44c2.35,0,4.25,1.91,4.25,4.26c0,2.35-1.91,4.26-4.25,4.26c-2.35,0-4.25-1.91-4.25-4.26
	C1492.85,35.35,1494.76,33.44,1497.11,33.44z M1463.09,33.44c2.35,0,4.25,1.91,4.25,4.26c0,2.35-1.9,4.26-4.25,4.26
	c-2.35,0-4.25-1.91-4.25-4.26C1458.83,35.35,1460.73,33.44,1463.09,33.44z M1429.67,33.44c2.35,0,4.25,1.91,4.25,4.26
	c0,2.35-1.91,4.26-4.25,4.26c-2.35,0-4.25-1.91-4.25-4.26C1425.42,35.35,1427.32,33.44,1429.67,33.44z M1429.67,49.88
	c2.35,0,4.25,1.91,4.25,4.26c0,2.35-1.91,4.26-4.25,4.26c-2.35,0-4.25-1.91-4.25-4.26C1425.42,51.79,1427.32,49.88,1429.67,49.88z
	 M1479.49,49.88c2.35,0,4.25,1.91,4.25,4.26c0,2.35-1.91,4.26-4.25,4.26c-2.35,0-4.25-1.91-4.25-4.26
	C1475.24,51.79,1477.14,49.88,1479.49,49.88z M1446.68,49.88c2.35,0,4.25,1.91,4.25,4.26c0,2.35-1.91,4.26-4.25,4.26
	c-2.35,0-4.25-1.91-4.25-4.26C1442.43,51.79,1444.33,49.88,1446.68,49.88z M1529.91,49.88c2.35,0,4.25,1.91,4.25,4.26
	c0,2.35-1.91,4.26-4.25,4.26c-2.35,0-4.25-1.91-4.25-4.26C1525.66,51.79,1527.56,49.88,1529.91,49.88z M1597.34,49.88
	c2.35,0,4.25,1.91,4.25,4.26c0,2.35-1.9,4.26-4.25,4.26c-2.35,0-4.25-1.91-4.25-4.26C1593.09,51.79,1595,49.88,1597.34,49.88z
	 M1395.66,49.88c2.35,0,4.25,1.91,4.25,4.26c0,2.35-1.9,4.26-4.25,4.26c-2.35,0-4.25-1.91-4.25-4.26
	C1391.4,51.79,1393.31,49.88,1395.66,49.88z M1563.93,49.88c2.35,0,4.25,1.91,4.25,4.26c0,2.35-1.91,4.26-4.25,4.26
	c-2.35,0-4.25-1.91-4.25-4.26C1559.68,51.79,1561.58,49.88,1563.93,49.88z M1463.09,49.88c2.35,0,4.25,1.91,4.25,4.26
	c0,2.35-1.9,4.26-4.25,4.26c-2.35,0-4.25-1.91-4.25-4.26C1458.83,51.79,1460.73,49.88,1463.09,49.88z M1497.11,49.88
	c2.35,0,4.25,1.91,4.25,4.26c0,2.35-1.91,4.26-4.25,4.26c-2.35,0-4.25-1.91-4.25-4.26C1492.85,51.79,1494.76,49.88,1497.11,49.88z
	 M1546.31,49.88c2.35,0,4.25,1.91,4.25,4.26c0,2.35-1.91,4.26-4.25,4.26c-2.35,0-4.25-1.91-4.25-4.26
	C1542.06,51.79,1543.96,49.88,1546.31,49.88z M1580.33,49.88c2.35,0,4.25,1.91,4.25,4.26c0,2.35-1.91,4.26-4.25,4.26
	c-2.35,0-4.25-1.91-4.25-4.26C1576.08,51.79,1577.99,49.88,1580.33,49.88z M1412.66,49.88c2.35,0,4.25,1.91,4.25,4.26
	c0,2.35-1.9,4.26-4.25,4.26c-2.35,0-4.25-1.91-4.25-4.26C1408.41,51.79,1410.31,49.88,1412.66,49.88z M1513.51,49.88
	c2.35,0,4.25,1.91,4.25,4.26c0,2.35-1.91,4.26-4.25,4.26c-2.35,0-4.25-1.91-4.25-4.26C1509.26,51.79,1511.16,49.88,1513.51,49.88z
	 M1412.66,66.94c2.35,0,4.25,1.91,4.25,4.27c0,2.35-1.9,4.26-4.25,4.26c-2.35,0-4.25-1.91-4.25-4.26
	C1408.41,68.85,1410.31,66.94,1412.66,66.94z M1513.51,66.94c2.35,0,4.25,1.91,4.25,4.27c0,2.35-1.91,4.26-4.25,4.26
	c-2.35,0-4.25-1.91-4.25-4.26C1509.26,68.85,1511.16,66.94,1513.51,66.94z M1463.09,66.94c2.35,0,4.25,1.91,4.25,4.27
	c0,2.35-1.9,4.26-4.25,4.26c-2.35,0-4.25-1.91-4.25-4.26C1458.83,68.85,1460.73,66.94,1463.09,66.94z M1529.91,66.94
	c2.35,0,4.25,1.91,4.25,4.27c0,2.35-1.91,4.26-4.25,4.26c-2.35,0-4.25-1.91-4.25-4.26C1525.66,68.85,1527.56,66.94,1529.91,66.94z
	 M1546.31,66.94c2.35,0,4.25,1.91,4.25,4.27c0,2.35-1.91,4.26-4.25,4.26c-2.35,0-4.25-1.91-4.25-4.26
	C1542.06,68.85,1543.96,66.94,1546.31,66.94z M1429.67,66.94c2.35,0,4.25,1.91,4.25,4.27c0,2.35-1.91,4.26-4.25,4.26
	c-2.35,0-4.25-1.91-4.25-4.26C1425.42,68.85,1427.32,66.94,1429.67,66.94z M1446.68,66.94c2.35,0,4.25,1.91,4.25,4.27
	c0,2.35-1.91,4.26-4.25,4.26c-2.35,0-4.25-1.91-4.25-4.26C1442.43,68.85,1444.33,66.94,1446.68,66.94z M1479.49,66.94
	c2.35,0,4.25,1.91,4.25,4.27c0,2.35-1.91,4.26-4.25,4.26c-2.35,0-4.25-1.91-4.25-4.26C1475.24,68.85,1477.14,66.94,1479.49,66.94z
	 M1497.11,66.94c2.35,0,4.25,1.91,4.25,4.27c0,2.35-1.91,4.26-4.25,4.26c-2.35,0-4.25-1.91-4.25-4.26
	C1492.85,68.85,1494.76,66.94,1497.11,66.94z M1580.33,66.94c2.35,0,4.25,1.91,4.25,4.27c0,2.35-1.91,4.26-4.25,4.26
	c-2.35,0-4.25-1.91-4.25-4.26C1576.08,68.85,1577.99,66.94,1580.33,66.94z M1395.66,66.94c2.35,0,4.25,1.91,4.25,4.27
	c0,2.35-1.9,4.26-4.25,4.26c-2.35,0-4.25-1.91-4.25-4.26C1391.4,68.85,1393.31,66.94,1395.66,66.94z M1597.34,66.94
	c2.35,0,4.25,1.91,4.25,4.27c0,2.35-1.9,4.26-4.25,4.26c-2.35,0-4.25-1.91-4.25-4.26C1593.09,68.85,1595,66.94,1597.34,66.94z
	 M1563.93,66.94c2.35,0,4.25,1.91,4.25,4.27c0,2.35-1.91,4.26-4.25,4.26c-2.35,0-4.25-1.91-4.25-4.26
	C1559.68,68.85,1561.58,66.94,1563.93,66.94z M1463.09,83.39c2.35,0,4.25,1.91,4.25,4.26c0,2.35-1.9,4.27-4.25,4.27
	c-2.35,0-4.25-1.91-4.25-4.27C1458.83,85.3,1460.73,83.39,1463.09,83.39z M1412.66,83.39c2.35,0,4.25,1.91,4.25,4.26
	c0,2.35-1.9,4.27-4.25,4.27c-2.35,0-4.25-1.91-4.25-4.27C1408.41,85.3,1410.31,83.39,1412.66,83.39z M1580.33,83.39
	c2.35,0,4.25,1.91,4.25,4.26c0,2.35-1.91,4.27-4.25,4.27c-2.35,0-4.25-1.91-4.25-4.27C1576.08,85.3,1577.99,83.39,1580.33,83.39z
	 M1597.34,83.39c2.35,0,4.25,1.91,4.25,4.26c0,2.35-1.9,4.27-4.25,4.27c-2.35,0-4.25-1.91-4.25-4.27
	C1593.09,85.3,1595,83.39,1597.34,83.39z M1513.51,83.39c2.35,0,4.25,1.91,4.25,4.26c0,2.35-1.91,4.27-4.25,4.27
	c-2.35,0-4.25-1.91-4.25-4.27C1509.26,85.3,1511.16,83.39,1513.51,83.39z M1479.49,83.39c2.35,0,4.25,1.91,4.25,4.26
	c0,2.35-1.91,4.27-4.25,4.27c-2.35,0-4.25-1.91-4.25-4.27C1475.24,85.3,1477.14,83.39,1479.49,83.39z M1529.91,83.39
	c2.35,0,4.25,1.91,4.25,4.26c0,2.35-1.91,4.27-4.25,4.27c-2.35,0-4.25-1.91-4.25-4.27C1525.66,85.3,1527.56,83.39,1529.91,83.39z
	 M1546.31,83.39c2.35,0,4.25,1.91,4.25,4.26c0,2.35-1.91,4.27-4.25,4.27c-2.35,0-4.25-1.91-4.25-4.27
	C1542.06,85.3,1543.96,83.39,1546.31,83.39z M1497.11,83.39c2.35,0,4.25,1.91,4.25,4.26c0,2.35-1.91,4.27-4.25,4.27
	c-2.35,0-4.25-1.91-4.25-4.27C1492.85,85.3,1494.76,83.39,1497.11,83.39z M1613.75,83.39c2.35,0,4.25,1.91,4.25,4.26
	c0,2.35-1.9,4.27-4.25,4.27c-2.35,0-4.25-1.91-4.25-4.27C1609.5,85.3,1611.4,83.39,1613.75,83.39z M1563.93,83.39
	c2.35,0,4.25,1.91,4.25,4.26c0,2.35-1.91,4.27-4.25,4.27c-2.35,0-4.25-1.91-4.25-4.27C1559.68,85.3,1561.58,83.39,1563.93,83.39z
	 M1379.25,83.39c2.35,0,4.25,1.91,4.25,4.26c0,2.35-1.9,4.27-4.25,4.27c-2.35,0-4.25-1.91-4.25-4.27
	C1375,85.3,1376.91,83.39,1379.25,83.39z M1446.68,83.39c2.35,0,4.25,1.91,4.25,4.26c0,2.35-1.91,4.27-4.25,4.27
	c-2.35,0-4.25-1.91-4.25-4.27C1442.43,85.3,1444.33,83.39,1446.68,83.39z M1395.66,83.39c2.35,0,4.25,1.91,4.25,4.26
	c0,2.35-1.9,4.27-4.25,4.27c-2.35,0-4.25-1.91-4.25-4.27C1391.4,85.3,1393.31,83.39,1395.66,83.39z M1429.67,83.39
	c2.35,0,4.25,1.91,4.25,4.26c0,2.35-1.91,4.27-4.25,4.27c-2.35,0-4.25-1.91-4.25-4.27C1425.42,85.3,1427.32,83.39,1429.67,83.39z
	 M1597.34,99.84c2.35,0,4.25,1.91,4.25,4.26c0,2.35-1.9,4.27-4.25,4.27c-2.35,0-4.25-1.91-4.25-4.27
	C1593.09,101.75,1595,99.84,1597.34,99.84z M1395.66,99.84c2.35,0,4.25,1.91,4.25,4.26c0,2.35-1.9,4.27-4.25,4.27
	c-2.35,0-4.25-1.91-4.25-4.27C1391.4,101.75,1393.31,99.84,1395.66,99.84z M1529.91,99.84c2.35,0,4.25,1.91,4.25,4.26
	c0,2.35-1.91,4.27-4.25,4.27c-2.35,0-4.25-1.91-4.25-4.27C1525.66,101.75,1527.56,99.84,1529.91,99.84z M1379.25,99.84
	c2.35,0,4.25,1.91,4.25,4.26c0,2.35-1.9,4.27-4.25,4.27c-2.35,0-4.25-1.91-4.25-4.27C1375,101.75,1376.91,99.84,1379.25,99.84z
	 M1412.66,99.84c2.35,0,4.25,1.91,4.25,4.26c0,2.35-1.9,4.27-4.25,4.27c-2.35,0-4.25-1.91-4.25-4.27
	C1408.41,101.75,1410.31,99.84,1412.66,99.84z M1479.49,99.84c2.35,0,4.25,1.91,4.25,4.26c0,2.35-1.91,4.27-4.25,4.27
	c-2.35,0-4.25-1.91-4.25-4.27C1475.24,101.75,1477.14,99.84,1479.49,99.84z M1513.51,99.84c2.35,0,4.25,1.91,4.25,4.26
	c0,2.35-1.91,4.27-4.25,4.27c-2.35,0-4.25-1.91-4.25-4.27C1509.26,101.75,1511.16,99.84,1513.51,99.84z M1613.75,99.84
	c2.35,0,4.25,1.91,4.25,4.26c0,2.35-1.9,4.27-4.25,4.27c-2.35,0-4.25-1.91-4.25-4.27C1609.5,101.75,1611.4,99.84,1613.75,99.84z
	 M1580.33,99.84c2.35,0,4.25,1.91,4.25,4.26c0,2.35-1.91,4.27-4.25,4.27c-2.35,0-4.25-1.91-4.25-4.27
	C1576.08,101.75,1577.99,99.84,1580.33,99.84z M1463.09,99.84c2.35,0,4.25,1.91,4.25,4.26c0,2.35-1.9,4.27-4.25,4.27
	c-2.35,0-4.25-1.91-4.25-4.27C1458.83,101.75,1460.73,99.84,1463.09,99.84z M1429.67,99.84c2.35,0,4.25,1.91,4.25,4.26
	c0,2.35-1.91,4.27-4.25,4.27c-2.35,0-4.25-1.91-4.25-4.27C1425.42,101.75,1427.32,99.84,1429.67,99.84z M1546.31,99.84
	c2.35,0,4.25,1.91,4.25,4.26c0,2.35-1.91,4.27-4.25,4.27c-2.35,0-4.25-1.91-4.25-4.27C1542.06,101.75,1543.96,99.84,1546.31,99.84z
	 M1497.11,99.84c2.35,0,4.25,1.91,4.25,4.26c0,2.35-1.91,4.27-4.25,4.27c-2.35,0-4.25-1.91-4.25-4.27
	C1492.85,101.75,1494.76,99.84,1497.11,99.84z M1563.93,99.84c2.35,0,4.25,1.91,4.25,4.26c0,2.35-1.91,4.27-4.25,4.27
	c-2.35,0-4.25-1.91-4.25-4.27C1559.68,101.75,1561.58,99.84,1563.93,99.84z M1446.68,99.84c2.35,0,4.25,1.91,4.25,4.26
	c0,2.35-1.91,4.27-4.25,4.27c-2.35,0-4.25-1.91-4.25-4.27C1442.43,101.75,1444.33,99.84,1446.68,99.84z M1497.11,117.5
	c2.35,0,4.25,1.91,4.25,4.26s-1.91,4.26-4.25,4.26c-2.35,0-4.25-1.91-4.25-4.26S1494.76,117.5,1497.11,117.5z M1463.09,117.5
	c2.35,0,4.25,1.91,4.25,4.26s-1.9,4.26-4.25,4.26c-2.35,0-4.25-1.91-4.25-4.26S1460.73,117.5,1463.09,117.5z M1546.31,117.5
	c2.35,0,4.25,1.91,4.25,4.26s-1.91,4.26-4.25,4.26c-2.35,0-4.25-1.91-4.25-4.26S1543.96,117.5,1546.31,117.5z M1395.66,117.5
	c2.35,0,4.25,1.91,4.25,4.26s-1.9,4.26-4.25,4.26c-2.35,0-4.25-1.91-4.25-4.26S1393.31,117.5,1395.66,117.5z M1513.51,117.5
	c2.35,0,4.25,1.91,4.25,4.26s-1.91,4.26-4.25,4.26c-2.35,0-4.25-1.91-4.25-4.26S1511.16,117.5,1513.51,117.5z M1563.93,117.5
	c2.35,0,4.25,1.91,4.25,4.26s-1.91,4.26-4.25,4.26c-2.35,0-4.25-1.91-4.25-4.26S1561.58,117.5,1563.93,117.5z M1580.33,117.5
	c2.35,0,4.25,1.91,4.25,4.26s-1.91,4.26-4.25,4.26c-2.35,0-4.25-1.91-4.25-4.26S1577.99,117.5,1580.33,117.5z M1379.25,117.5
	c2.35,0,4.25,1.91,4.25,4.26s-1.9,4.26-4.25,4.26c-2.35,0-4.25-1.91-4.25-4.26S1376.91,117.5,1379.25,117.5z M1412.66,117.5
	c2.35,0,4.25,1.91,4.25,4.26s-1.9,4.26-4.25,4.26c-2.35,0-4.25-1.91-4.25-4.26S1410.31,117.5,1412.66,117.5z M1597.34,117.5
	c2.35,0,4.25,1.91,4.25,4.26s-1.9,4.26-4.25,4.26c-2.35,0-4.25-1.91-4.25-4.26S1595,117.5,1597.34,117.5z M1446.68,117.5
	c2.35,0,4.25,1.91,4.25,4.26s-1.91,4.26-4.25,4.26c-2.35,0-4.25-1.91-4.25-4.26S1444.33,117.5,1446.68,117.5z M1613.75,117.5
	c2.35,0,4.25,1.91,4.25,4.26s-1.9,4.26-4.25,4.26c-2.35,0-4.25-1.91-4.25-4.26S1611.4,117.5,1613.75,117.5z M1529.91,117.5
	c2.35,0,4.25,1.91,4.25,4.26s-1.91,4.26-4.25,4.26c-2.35,0-4.25-1.91-4.25-4.26S1527.56,117.5,1529.91,117.5z M1429.67,117.5
	c2.35,0,4.25,1.91,4.25,4.26s-1.91,4.26-4.25,4.26c-2.35,0-4.25-1.91-4.25-4.26S1427.32,117.5,1429.67,117.5z M1479.49,117.5
	c2.35,0,4.25,1.91,4.25,4.26s-1.91,4.26-4.25,4.26c-2.35,0-4.25-1.91-4.25-4.26S1477.14,117.5,1479.49,117.5z M1395.66,133.95
	c2.35,0,4.25,1.91,4.25,4.27s-1.9,4.26-4.25,4.26c-2.35,0-4.25-1.91-4.25-4.26S1393.31,133.95,1395.66,133.95z M1379.25,133.95
	c2.35,0,4.25,1.91,4.25,4.27s-1.9,4.26-4.25,4.26c-2.35,0-4.25-1.91-4.25-4.26S1376.91,133.95,1379.25,133.95z M1412.66,133.95
	c2.35,0,4.25,1.91,4.25,4.27s-1.9,4.26-4.25,4.26c-2.35,0-4.25-1.91-4.25-4.26S1410.31,133.95,1412.66,133.95z M1597.34,133.95
	c2.35,0,4.25,1.91,4.25,4.27s-1.9,4.26-4.25,4.26c-2.35,0-4.25-1.91-4.25-4.26S1595,133.95,1597.34,133.95z M1529.91,133.95
	c2.35,0,4.25,1.91,4.25,4.27s-1.91,4.26-4.25,4.26c-2.35,0-4.25-1.91-4.25-4.26S1527.56,133.95,1529.91,133.95z M1563.93,133.95
	c2.35,0,4.25,1.91,4.25,4.27s-1.91,4.26-4.25,4.26c-2.35,0-4.25-1.91-4.25-4.26S1561.58,133.95,1563.93,133.95z M1513.51,133.95
	c2.35,0,4.25,1.91,4.25,4.27s-1.91,4.26-4.25,4.26c-2.35,0-4.25-1.91-4.25-4.26S1511.16,133.95,1513.51,133.95z M1479.49,133.95
	c2.35,0,4.25,1.91,4.25,4.27s-1.91,4.26-4.25,4.26c-2.35,0-4.25-1.91-4.25-4.26S1477.14,133.95,1479.49,133.95z M1613.75,133.95
	c2.35,0,4.25,1.91,4.25,4.27s-1.9,4.26-4.25,4.26c-2.35,0-4.25-1.91-4.25-4.26S1611.4,133.95,1613.75,133.95z M1463.09,133.95
	c2.35,0,4.25,1.91,4.25,4.27s-1.9,4.26-4.25,4.26c-2.35,0-4.25-1.91-4.25-4.26S1460.73,133.95,1463.09,133.95z M1497.11,133.95
	c2.35,0,4.25,1.91,4.25,4.27s-1.91,4.26-4.25,4.26c-2.35,0-4.25-1.91-4.25-4.26S1494.76,133.95,1497.11,133.95z M1580.33,133.95
	c2.35,0,4.25,1.91,4.25,4.27s-1.91,4.26-4.25,4.26c-2.35,0-4.25-1.91-4.25-4.26S1577.99,133.95,1580.33,133.95z M1429.67,133.95
	c2.35,0,4.25,1.91,4.25,4.27s-1.91,4.26-4.25,4.26c-2.35,0-4.25-1.91-4.25-4.26S1427.32,133.95,1429.67,133.95z M1546.31,133.95
	c2.35,0,4.25,1.91,4.25,4.27s-1.91,4.26-4.25,4.26c-2.35,0-4.25-1.91-4.25-4.26S1543.96,133.95,1546.31,133.95z M1446.68,133.95
	c2.35,0,4.25,1.91,4.25,4.27s-1.91,4.26-4.25,4.26c-2.35,0-4.25-1.91-4.25-4.26S1444.33,133.95,1446.68,133.95z M1513.51,150.4
	c2.35,0,4.25,1.91,4.25,4.27s-1.91,4.26-4.25,4.26c-2.35,0-4.25-1.91-4.25-4.26S1511.16,150.4,1513.51,150.4z M1446.68,150.4
	c2.35,0,4.25,1.91,4.25,4.27s-1.91,4.26-4.25,4.26c-2.35,0-4.25-1.91-4.25-4.26S1444.33,150.4,1446.68,150.4z M1379.25,150.4
	c2.35,0,4.25,1.91,4.25,4.27s-1.9,4.26-4.25,4.26c-2.35,0-4.25-1.91-4.25-4.26S1376.91,150.4,1379.25,150.4z M1395.66,150.4
	c2.35,0,4.25,1.91,4.25,4.27s-1.9,4.26-4.25,4.26c-2.35,0-4.25-1.91-4.25-4.26S1393.31,150.4,1395.66,150.4z M1412.66,150.4
	c2.35,0,4.25,1.91,4.25,4.27s-1.9,4.26-4.25,4.26c-2.35,0-4.25-1.91-4.25-4.26S1410.31,150.4,1412.66,150.4z M1597.34,150.4
	c2.35,0,4.25,1.91,4.25,4.27s-1.9,4.26-4.25,4.26c-2.35,0-4.25-1.91-4.25-4.26S1595,150.4,1597.34,150.4z M1580.33,150.4
	c2.35,0,4.25,1.91,4.25,4.27s-1.91,4.26-4.25,4.26c-2.35,0-4.25-1.91-4.25-4.26S1577.99,150.4,1580.33,150.4z M1497.11,150.4
	c2.35,0,4.25,1.91,4.25,4.27s-1.91,4.26-4.25,4.26c-2.35,0-4.25-1.91-4.25-4.26S1494.76,150.4,1497.11,150.4z M1463.09,150.4
	c2.35,0,4.25,1.91,4.25,4.27s-1.9,4.26-4.25,4.26c-2.35,0-4.25-1.91-4.25-4.26S1460.73,150.4,1463.09,150.4z M1546.31,150.4
	c2.35,0,4.25,1.91,4.25,4.27s-1.91,4.26-4.25,4.26c-2.35,0-4.25-1.91-4.25-4.26S1543.96,150.4,1546.31,150.4z M1613.75,150.4
	c2.35,0,4.25,1.91,4.25,4.27s-1.9,4.26-4.25,4.26c-2.35,0-4.25-1.91-4.25-4.26S1611.4,150.4,1613.75,150.4z M1563.93,150.4
	c2.35,0,4.25,1.91,4.25,4.27s-1.91,4.26-4.25,4.26c-2.35,0-4.25-1.91-4.25-4.26S1561.58,150.4,1563.93,150.4z M1429.67,150.4
	c2.35,0,4.25,1.91,4.25,4.27s-1.91,4.26-4.25,4.26c-2.35,0-4.25-1.91-4.25-4.26S1427.32,150.4,1429.67,150.4z M1479.49,150.4
	c2.35,0,4.25,1.91,4.25,4.27s-1.91,4.26-4.25,4.26c-2.35,0-4.25-1.91-4.25-4.26S1477.14,150.4,1479.49,150.4z M1529.91,150.4
	c2.35,0,4.25,1.91,4.25,4.27s-1.91,4.26-4.25,4.26c-2.35,0-4.25-1.91-4.25-4.26S1527.56,150.4,1529.91,150.4z M1529.91,166.85
	c2.35,0,4.25,1.91,4.25,4.26c0,2.35-1.91,4.27-4.25,4.27c-2.35,0-4.25-1.91-4.25-4.27C1525.66,168.76,1527.56,166.85,1529.91,166.85
	z M1395.66,166.85c2.35,0,4.25,1.91,4.25,4.26c0,2.35-1.9,4.27-4.25,4.27c-2.35,0-4.25-1.91-4.25-4.27
	C1391.4,168.76,1393.31,166.85,1395.66,166.85z M1597.34,166.85c2.35,0,4.25,1.91,4.25,4.26c0,2.35-1.9,4.27-4.25,4.27
	c-2.35,0-4.25-1.91-4.25-4.27C1593.09,168.76,1595,166.85,1597.34,166.85z M1463.09,166.85c2.35,0,4.25,1.91,4.25,4.26
	c0,2.35-1.9,4.27-4.25,4.27c-2.35,0-4.25-1.91-4.25-4.27C1458.83,168.76,1460.73,166.85,1463.09,166.85z M1563.93,166.85
	c2.35,0,4.25,1.91,4.25,4.26c0,2.35-1.91,4.27-4.25,4.27c-2.35,0-4.25-1.91-4.25-4.27C1559.68,168.76,1561.58,166.85,1563.93,166.85
	z M1429.67,166.85c2.35,0,4.25,1.91,4.25,4.26c0,2.35-1.91,4.27-4.25,4.27c-2.35,0-4.25-1.91-4.25-4.27
	C1425.42,168.76,1427.32,166.85,1429.67,166.85z M1497.11,166.85c2.35,0,4.25,1.91,4.25,4.26c0,2.35-1.91,4.27-4.25,4.27
	c-2.35,0-4.25-1.91-4.25-4.27C1492.85,168.76,1494.76,166.85,1497.11,166.85z M1446.68,166.85c2.35,0,4.25,1.91,4.25,4.26
	c0,2.35-1.91,4.27-4.25,4.27c-2.35,0-4.25-1.91-4.25-4.27C1442.43,168.76,1444.33,166.85,1446.68,166.85z M1412.66,166.85
	c2.35,0,4.25,1.91,4.25,4.26c0,2.35-1.9,4.27-4.25,4.27c-2.35,0-4.25-1.91-4.25-4.27C1408.41,168.76,1410.31,166.85,1412.66,166.85z
	 M1513.51,166.85c2.35,0,4.25,1.91,4.25,4.26c0,2.35-1.91,4.27-4.25,4.27c-2.35,0-4.25-1.91-4.25-4.27
	C1509.26,168.76,1511.16,166.85,1513.51,166.85z M1479.49,166.85c2.35,0,4.25,1.91,4.25,4.26c0,2.35-1.91,4.27-4.25,4.27
	c-2.35,0-4.25-1.91-4.25-4.27C1475.24,168.76,1477.14,166.85,1479.49,166.85z M1580.33,166.85c2.35,0,4.25,1.91,4.25,4.26
	c0,2.35-1.91,4.27-4.25,4.27c-2.35,0-4.25-1.91-4.25-4.27C1576.08,168.76,1577.99,166.85,1580.33,166.85z M1546.31,166.85
	c2.35,0,4.25,1.91,4.25,4.26c0,2.35-1.91,4.27-4.25,4.27c-2.35,0-4.25-1.91-4.25-4.27C1542.06,168.76,1543.96,166.85,1546.31,166.85
	z M1395.66,184.52c2.35,0,4.25,1.91,4.25,4.26s-1.9,4.26-4.25,4.26c-2.35,0-4.25-1.91-4.25-4.26S1393.31,184.52,1395.66,184.52z
	 M1429.67,184.52c2.35,0,4.25,1.91,4.25,4.26s-1.91,4.26-4.25,4.26c-2.35,0-4.25-1.91-4.25-4.26S1427.32,184.52,1429.67,184.52z
	 M1529.91,184.52c2.35,0,4.25,1.91,4.25,4.26s-1.91,4.26-4.25,4.26c-2.35,0-4.25-1.91-4.25-4.26S1527.56,184.52,1529.91,184.52z
	 M1412.66,184.52c2.35,0,4.25,1.91,4.25,4.26s-1.9,4.26-4.25,4.26c-2.35,0-4.25-1.91-4.25-4.26S1410.31,184.52,1412.66,184.52z
	 M1546.31,184.52c2.35,0,4.25,1.91,4.25,4.26s-1.91,4.26-4.25,4.26c-2.35,0-4.25-1.91-4.25-4.26S1543.96,184.52,1546.31,184.52z
	 M1497.11,184.52c2.35,0,4.25,1.91,4.25,4.26s-1.91,4.26-4.25,4.26c-2.35,0-4.25-1.91-4.25-4.26S1494.76,184.52,1497.11,184.52z
	 M1513.51,184.52c2.35,0,4.25,1.91,4.25,4.26s-1.91,4.26-4.25,4.26c-2.35,0-4.25-1.91-4.25-4.26S1511.16,184.52,1513.51,184.52z
	 M1479.49,184.52c2.35,0,4.25,1.91,4.25,4.26s-1.91,4.26-4.25,4.26c-2.35,0-4.25-1.91-4.25-4.26S1477.14,184.52,1479.49,184.52z
	 M1563.93,184.52c2.35,0,4.25,1.91,4.25,4.26s-1.91,4.26-4.25,4.26c-2.35,0-4.25-1.91-4.25-4.26S1561.58,184.52,1563.93,184.52z
	 M1463.09,184.52c2.35,0,4.25,1.91,4.25,4.26s-1.9,4.26-4.25,4.26c-2.35,0-4.25-1.91-4.25-4.26S1460.73,184.52,1463.09,184.52z
	 M1597.34,184.52c2.35,0,4.25,1.91,4.25,4.26s-1.9,4.26-4.25,4.26c-2.35,0-4.25-1.91-4.25-4.26S1595,184.52,1597.34,184.52z
	 M1446.68,184.52c2.35,0,4.25,1.91,4.25,4.26s-1.91,4.26-4.25,4.26c-2.35,0-4.25-1.91-4.25-4.26S1444.33,184.52,1446.68,184.52z
	 M1580.33,184.52c2.35,0,4.25,1.91,4.25,4.26s-1.91,4.26-4.25,4.26c-2.35,0-4.25-1.91-4.25-4.26S1577.99,184.52,1580.33,184.52z
	 M1580.33,200.97c2.35,0,4.25,1.91,4.25,4.26s-1.91,4.26-4.25,4.26c-2.35,0-4.25-1.91-4.25-4.26S1577.99,200.97,1580.33,200.97z
	 M1429.67,200.97c2.35,0,4.25,1.91,4.25,4.26s-1.91,4.26-4.25,4.26c-2.35,0-4.25-1.91-4.25-4.26S1427.32,200.97,1429.67,200.97z
	 M1412.66,200.97c2.35,0,4.25,1.91,4.25,4.26s-1.9,4.26-4.25,4.26c-2.35,0-4.25-1.91-4.25-4.26S1410.31,200.97,1412.66,200.97z
	 M1563.93,200.97c2.35,0,4.25,1.91,4.25,4.26s-1.91,4.26-4.25,4.26c-2.35,0-4.25-1.91-4.25-4.26S1561.58,200.97,1563.93,200.97z
	 M1529.91,200.97c2.35,0,4.25,1.91,4.25,4.26s-1.91,4.26-4.25,4.26c-2.35,0-4.25-1.91-4.25-4.26S1527.56,200.97,1529.91,200.97z
	 M1497.11,200.97c2.35,0,4.25,1.91,4.25,4.26s-1.91,4.26-4.25,4.26c-2.35,0-4.25-1.91-4.25-4.26S1494.76,200.97,1497.11,200.97z
	 M1479.49,200.97c2.35,0,4.25,1.91,4.25,4.26s-1.91,4.26-4.25,4.26c-2.35,0-4.25-1.91-4.25-4.26S1477.14,200.97,1479.49,200.97z
	 M1463.09,200.97c2.35,0,4.25,1.91,4.25,4.26s-1.9,4.26-4.25,4.26c-2.35,0-4.25-1.91-4.25-4.26S1460.73,200.97,1463.09,200.97z
	 M1513.51,200.97c2.35,0,4.25,1.91,4.25,4.26s-1.91,4.26-4.25,4.26c-2.35,0-4.25-1.91-4.25-4.26S1511.16,200.97,1513.51,200.97z
	 M1446.68,200.97c2.35,0,4.25,1.91,4.25,4.26s-1.91,4.26-4.25,4.26c-2.35,0-4.25-1.91-4.25-4.26S1444.33,200.97,1446.68,200.97z
	 M1546.31,200.97c2.35,0,4.25,1.91,4.25,4.26s-1.91,4.26-4.25,4.26c-2.35,0-4.25-1.91-4.25-4.26S1543.96,200.97,1546.31,200.97z
	 M1429.67,218.02c2.35,0,4.25,1.91,4.25,4.27c0,2.35-1.91,4.26-4.25,4.26c-2.35,0-4.25-1.91-4.25-4.26
	C1425.42,219.93,1427.32,218.02,1429.67,218.02z M1497.11,218.02c2.35,0,4.25,1.91,4.25,4.27c0,2.35-1.91,4.26-4.25,4.26
	c-2.35,0-4.25-1.91-4.25-4.26C1492.85,219.93,1494.76,218.02,1497.11,218.02z M1479.49,218.02c2.35,0,4.25,1.91,4.25,4.27
	c0,2.35-1.91,4.26-4.25,4.26c-2.35,0-4.25-1.91-4.25-4.26C1475.24,219.93,1477.14,218.02,1479.49,218.02z M1529.91,218.02
	c2.35,0,4.25,1.91,4.25,4.27c0,2.35-1.91,4.26-4.25,4.26c-2.35,0-4.25-1.91-4.25-4.26C1525.66,219.93,1527.56,218.02,1529.91,218.02
	z M1463.09,218.02c2.35,0,4.25,1.91,4.25,4.27c0,2.35-1.9,4.26-4.25,4.26c-2.35,0-4.25-1.91-4.25-4.26
	C1458.83,219.93,1460.73,218.02,1463.09,218.02z M1446.68,218.02c2.35,0,4.25,1.91,4.25,4.27c0,2.35-1.91,4.26-4.25,4.26
	c-2.35,0-4.25-1.91-4.25-4.26C1442.43,219.93,1444.33,218.02,1446.68,218.02z M1513.51,218.02c2.35,0,4.25,1.91,4.25,4.27
	c0,2.35-1.91,4.26-4.25,4.26c-2.35,0-4.25-1.91-4.25-4.26C1509.26,219.93,1511.16,218.02,1513.51,218.02z M1563.93,218.02
	c2.35,0,4.25,1.91,4.25,4.27c0,2.35-1.91,4.26-4.25,4.26c-2.35,0-4.25-1.91-4.25-4.26C1559.68,219.93,1561.58,218.02,1563.93,218.02
	z M1546.31,218.02c2.35,0,4.25,1.91,4.25,4.27c0,2.35-1.91,4.26-4.25,4.26c-2.35,0-4.25-1.91-4.25-4.26
	C1542.06,219.93,1543.96,218.02,1546.31,218.02z M1463.09,234.47c2.35,0,4.25,1.91,4.25,4.26c0,2.35-1.9,4.27-4.25,4.27
	c-2.35,0-4.25-1.91-4.25-4.27C1458.83,236.38,1460.73,234.47,1463.09,234.47z M1497.11,234.47c2.35,0,4.25,1.91,4.25,4.26
	c0,2.35-1.91,4.27-4.25,4.27c-2.35,0-4.25-1.91-4.25-4.27C1492.85,236.38,1494.76,234.47,1497.11,234.47z M1479.49,234.47
	c2.35,0,4.25,1.91,4.25,4.26c0,2.35-1.91,4.27-4.25,4.27c-2.35,0-4.25-1.91-4.25-4.27C1475.24,236.38,1477.14,234.47,1479.49,234.47
	z M1529.91,234.47c2.35,0,4.25,1.91,4.25,4.26c0,2.35-1.91,4.27-4.25,4.27c-2.35,0-4.25-1.91-4.25-4.27
	C1525.66,236.38,1527.56,234.47,1529.91,234.47z M1513.51,234.47c2.35,0,4.25,1.91,4.25,4.26c0,2.35-1.91,4.27-4.25,4.27
	c-2.35,0-4.25-1.91-4.25-4.27C1509.26,236.38,1511.16,234.47,1513.51,234.47z M1774.7,0v52.69h-6.4V0H1774.7z M1792.35,27.56
	c2.09,0.46,4.15,0.98,6.18,1.6l-6.78,26.5l-6.2-1.6L1792.35,27.56z M1746.23,10.27l11.22,43.78l-6.2,1.6l-11.22-43.78
	C1742.08,11.27,1744.14,10.73,1746.23,10.27z M1823.63,20.1c1.9,1.01,3.76,2.04,5.6,3.12l-21.71,39.55l-5.61-3.09L1823.63,20.1z
	 M1715.75,13.52l25.33,46.17l-5.61,3.09l-25.33-46.17L1715.75,13.52z M1716.42,58.32l10.22,10.9l-4.66,4.39l-10.19-10.87
	C1713.26,61.19,1714.8,59.72,1716.42,58.32z M1852.37,30.81l4.66,4.39l-36,38.41l-4.66-4.39L1852.37,30.81z M1670.59,53.82
	l44.4,28.23l-3.43,5.41l-44.4-28.23L1670.59,53.82z M1840.52,74.09c1.2,1.76,2.34,3.58,3.4,5.44l-12.49,7.94l-3.43-5.42
	L1840.52,74.09z M1886.1,81.1l1.97,6.1l-50.01,16.28l-1.98-6.1L1886.1,81.1z M1681.31,89.05l25.59,8.33l-1.97,6.1l-25.56-8.32
	C1679.95,93.1,1680.6,91.05,1681.31,89.05z M1650.4,110.93l52.48,3.31l-0.4,6.4l-52.48-3.31L1650.4,110.93z M1892.6,110.93l0.4,6.4
	l-52.48,3.31l-0.4-6.4L1892.6,110.93z M1703.17,131.58l1.19,6.29l-14.07,2.69c-0.49-2.06-0.91-4.16-1.24-6.28L1703.17,131.58z
	 M1839.83,131.58l43.61,8.33c-0.33,2.12-0.76,4.22-1.22,6.29l-43.59-8.33L1839.83,131.58z M1707.75,148.29l2.73,5.81l-47.58,22.43
	l-2.72-5.8L1707.75,148.29z M1835.25,148.29l47.58,22.44l-2.72,5.8l-47.58-22.43L1835.25,148.29z M1826.67,163.35l29.08,24.11
	c-0.02,0.04-0.05,0.07-0.08,0.12c-1.23,1.58-2.53,3.15-3.88,4.64c-0.04,0.05-0.1,0.11-0.14,0.16l-29.06-24.08L1826.67,163.35z
	 M1716.33,163.35l4.07,4.95l-33.94,28.13c-1.43-1.58-2.8-3.24-4.11-4.91L1716.33,163.35z M1743.14,184.84l5.95,2.36l-5.11,12.92
	c-2.03-0.71-4.01-1.49-5.95-2.34L1743.14,184.84z M1814.62,175.79L1830,197c-1.68,1.31-3.41,2.57-5.18,3.75l-15.38-21.2
	L1814.62,175.79z M1728.38,175.79l5.18,3.77l-30.91,42.63l-5.18-3.77L1728.38,175.79z M1783.31,189.93l5.5,43.6
	c-2.09,0.33-4.2,0.59-6.34,0.8h-0.01l-5.49-43.6L1783.31,189.93z M1799.86,184.84l19.36,48.99l-5.95,2.36l-19.36-48.99
	L1799.86,184.84z M1759.68,189.92l6.35,0.8l-6.59,52.27l-6.35-0.8L1759.68,189.92z"/>
</svg>
