<svg xmlns="http://www.w3.org/2000/svg" width="189.9" height="36.7"><path d="M29.8 8.3c-5.5 0-10 4.5-10 10s4.5 10 10 10c1.3 0 2.3-1 2.3-2.3s-1-2.3-2.3-2.3a5.5 5.5 0 0 1-5-3.2h12.7c1.3 0 2.3-1 2.3-2.3a10 10 0 0 0-10-9.9zm-5 7.7c1.2-2.7 4.4-4 7.1-2.8 1.2.5 2.2 1.5 2.8 2.8h-9.9zm27.1-7.7a10 10 0 0 0-10 10v7.6c0 1.3 1 2.3 2.3 2.3s2.3-1 2.3-2.3v-7.8c.1-3 2.5-5.4 5.6-5.4s5.3 2.6 5.3 5.6v7.6c0 1.3 1 2.3 2.3 2.3s2.3-1 2.3-2.3v-7.6c-.1-5.5-4.5-10-10.1-10zm48.3 0c-1.2 0-2.2 1-2.2 2.3v7.8c-.1 3-2.5 5.4-5.6 5.4S87 21.3 87 18.2v-7.6c.1-1.3-1-2.3-2.2-2.3s-2.3 1-2.3 2.3v7.6c0 5.5 4.5 10 10 10s10-4.5 10-10v-7.6c0-1.3-1-2.3-2.3-2.3zm-26.4 8.1c-3.2-.7-4.5-.9-4.5-2.1s1.6-1.8 3.4-1.8c.9 0 1.8.2 2.6.5l.9.2c1.2 0 2.1-1 2.1-2.1 0-.9-.6-1.8-1.5-2.1-1.3-.5-2.7-.7-4.1-.7-5.2 0-8.2 3-8.2 5.9 0 3.6 3.3 5.2 7.1 6 2.9.6 3.8.8 3.8 2.1 0 1.2-1.6 1.7-3.6 1.7-1.8 0-3.1-.7-4.3-1.3l-.9-.2c-1.2 0-2.1 1-2.1 2.1 0 .8.5 1.6 1.2 1.9 1.9 1.1 4 1.7 6.2 1.6 4.9 0 8.3-2.6 8.3-5.9 0-3.7-2.7-5-6.4-5.8zm40.3 0c-3.2-.7-4.5-1-4.5-2.1 0-1.2 1.6-1.8 3.5-1.8.9 0 1.8.2 2.6.5l.9.2c1.2 0 2.1-1 2.1-2.1 0-.9-.6-1.8-1.5-2.1-1.3-.4-2.7-.7-4.2-.7-5.2 0-8.2 3-8.2 5.9 0 3.6 3.3 5.2 7.1 6 2.9.6 3.8.8 3.8 2.1 0 1.2-1.6 1.7-3.6 1.7-1.8 0-3.1-.7-4.3-1.3l-.8-.2c-1.2 0-2.1 1-2.1 2.1 0 .8.5 1.6 1.2 1.9 1.9 1.1 4 1.6 6.2 1.6 4.9 0 8.3-2.6 8.3-5.9-.1-3.7-2.7-5-6.5-5.8zM9.9 12.8c1.5 0 3 .6 4 1.7.9.9 2.3 1 3.2.1.9-.9 1-2.3.1-3.2A10 10 0 0 0 3.1 11a10 10 0 0 0 6.8 17.4 10 10 0 0 0 7.3-3.2c.9-.9.8-2.4-.1-3.2-.9-.9-2.4-.8-3.2.1a5 5 0 0 1-4 1.7c-3 0-5.5-2.4-5.5-5.5.1-3 2.5-5.4 5.5-5.5zm128.8 12.5H129l.1-.9c.5-2 2.6-3.1 5.1-4.2 2.9-1.3 5.6-2.7 5.6-6.1 0-3.5-2.5-5.7-6.7-5.7-2.2 0-4 .7-5.1 1.7s-1.7 2.1-1.7 3.1c0 1.6 2 1.6 2 1.5.5-1.9 1.9-3.7 4.7-3.7 2.4 0 3.9 1.2 3.9 3.2 0 2.1-2.2 3-4.7 4.2-2.9 1.4-5.9 3.2-5.9 7.1v.7c0 1.2.6 1.7 1.9 1.7h10.6c1 0 1.4-.4 1.4-1.2v-.2c-.1-.8-.5-1.2-1.5-1.2zm49.6 0h-2.6V10c0-.9-.5-1.4-1.4-1.4h-1l-5.7 3.7c0 1 .6 1.9 1.6 1.9.5 0 1-.2 1.6-.6.6-.4 1-1 2.2-1.9v13.6h-3.2c-.9 0-1.4.4-1.4 1.2v.1c0 .8.5 1.2 1.4 1.2h8.5c.9 0 1.4-.4 1.4-1.2v-.1c0-.8-.4-1.2-1.4-1.2zM150.1 8.4c-4.9 0-7.9 3.4-7.9 9v1.9c0 5.5 3 8.9 7.9 8.9s8-3.5 8-9v-1.9c0-5.5-3-8.9-8-8.9zm5 11c0 4-1.8 6.3-4.9 6.3-3.1 0-4.9-2.3-4.9-6.3v-2.2c0-4 1.8-6.3 4.9-6.3 3.1 0 4.9 2.4 4.9 6.4v2.1zm18 5.9h-9.7l.1-.9c.5-2 2.6-3.1 5.1-4.2 2.9-1.3 5.6-2.7 5.6-6.1 0-3.5-2.5-5.7-6.7-5.7-2.2 0-4 .7-5.1 1.7s-1.7 2.1-1.7 3.1c0 1.6 2 1.6 2 1.5.5-1.9 1.9-3.7 4.7-3.7 2.4 0 3.9 1.2 3.9 3.2 0 2.1-2.2 3-4.7 4.2-2.9 1.4-5.9 3.2-5.9 7.1v.7c0 1.2.6 1.7 1.9 1.7h10.6c1 0 1.4-.4 1.4-1.2v-.2c0-.8-.5-1.2-1.5-1.2z" fill="#fff"/></svg>
