<svg xmlns="http://www.w3.org/2000/svg" width="115px" height="96px" viewBox="0 0 115 96" focusable="false">
    <title>UK Government licensing framework</title>
    <path d="M57.6,1c-0.7,0.8-1.1,1.5-1.2,2.3C57.1,3.2,58,2.6,58.5,2v3.2C58,4.5,57.1,4,56.4,3.8c0.1,0.8,0.6,1.6,1.3,2.1 h-3.2c0.7-0.5,1.2-1.3,1.3-2.1c-0.8,0.1-1.6,0.7-2.1,1.4V2c0.5,0.7,1.4,1.2,2.1,1.4c-0.1-0.8-0.6-1.5-1.2-2.3H57.6z M23.9,5.9 c0.3-0.3,0.7-0.3,1,0c0.3,0.3,0.3,0.7,0,1c-0.3,0.3-0.7,0.3-1,0C23.6,6.6,23.6,6.1,23.9,5.9z M25.7,6.2c0.3-0.3,0.7-0.3,0.9,0 c0.3,0.3,0.3,0.7,0,1c-0.3,0.3-0.7,0.3-0.9,0C25.4,6.8,25.4,6.4,25.7,6.2z M22.4,7c0.3-0.3,0.7-0.3,1,0c0.3,0.3,0.3,0.7,0,0.9 c-0.3,0.3-0.7,0.3-1,0C22.1,7.7,22.1,7.3,22.4,7z M56.7,6.3c1.2,0.3,2.1,1.2,2.3,2.4h-2.3V6.3z M55.4,6.3v2.4h-2.3 C53.3,7.5,54.3,6.5,55.4,6.3z M26.8,7.6c0.3-0.3,0.7-0.3,1,0c0.3,0.3,0.3,0.7,0,1c-0.3,0.3-0.7,0.3-1,0C26.5,8.3,26.5,7.9,26.8,7.6z M20.5,5.5l0.1,1.3c0,0,0,0,0,0L21.5,6l0.5,1.2l-1.1-0.1c0,0,0,0.1,0,0.1c0.2,0.3,0.6,0.6,0.9,0.9c0.3,0.1,0.5,0.4,0.5,0.8 c0,0.5-0.4,0.9-0.9,0.9c-0.5,0-0.9-0.4-0.9-0.9c0-0.4,0-1.1-0.1-1.5c0,0-0.1,0-0.1,0l-0.7,0.8L19,7l1-0.1c0,0,0-0.1,0-0.1l-0.8-0.9 L20.5,5.5z M19.1,8.4c0.4,0,0.7,0.3,0.7,0.7c0,0.4-0.3,0.7-0.7,0.7c-0.4,0-0.7-0.3-0.7-0.7C18.5,8.7,18.8,8.4,19.1,8.4z M17.3,8.6 c0.4,0,0.7,0.3,0.7,0.7c0,0.4-0.3,0.7-0.7,0.7c-0.4,0-0.7-0.3-0.7-0.7C16.7,8.9,17,8.6,17.3,8.6z M16.3,10c0.4,0,0.7,0.3,0.7,0.7 c0,0.4-0.3,0.7-0.7,0.7c-0.4,0-0.7-0.3-0.7-0.7C15.6,10.3,15.9,10,16.3,10z M65.7,9.5c0.5,0,0.9,0.4,0.9,0.9c0,0.5-0.4,0.9-0.9,0.9 c-0.5,0-0.9-0.4-0.9-0.9C64.8,9.9,65.2,9.5,65.7,9.5z M46.3,9.5c0.5,0,0.9,0.4,0.9,0.9c0,0.5-0.4,0.9-0.9,0.9 c-0.5,0-0.9-0.4-0.9-0.9C45.4,9.9,45.8,9.5,46.3,9.5z M63.3,9.7c0.5,0,0.9,0.4,0.9,0.9c0,0.5-0.4,0.9-0.9,0.9 c-0.5,0-0.9-0.4-0.9-0.9C62.4,10.2,62.8,9.7,63.3,9.7z M48.8,9.7c0.5,0,0.9,0.4,0.9,0.9c0,0.5-0.4,0.9-0.9,0.9 c-0.5,0-0.9-0.4-0.9-0.9C47.8,10.2,48.3,9.7,48.8,9.7z M44,10.2c0.5,0,0.9,0.4,0.9,0.9s-0.4,0.9-0.9,0.9c-0.5,0-0.9-0.4-0.9-0.9 S43.5,10.2,44,10.2z M68.1,10.2c0.5,0,0.9,0.4,0.9,0.9s-0.4,0.9-0.9,0.9c-0.5,0-0.9-0.4-0.9-0.9S67.6,10.2,68.1,10.2z M58.9,9.8 c-0.3,1.3-1.5,2.3-2.9,2.3c-1.4,0-2.6-1-2.9-2.3H58.9z M51.1,10.4c0.5,0,0.9,0.4,0.9,0.9c0,0.5-0.4,0.9-0.9,0.9 c-0.5,0-0.9-0.4-0.9-0.9C50.2,10.8,50.6,10.4,51.1,10.4z M61,10.4c0.5,0,0.9,0.4,0.9,0.9c0,0.5-0.4,0.9-0.9,0.9 c-0.5,0-0.9-0.4-0.9-0.9C60,10.8,60.5,10.4,61,10.4z M16.5,11.8c0.4,0,0.7,0.3,0.7,0.7c0,0.4-0.3,0.7-0.7,0.7 c-0.4,0-0.7-0.3-0.7-0.7C15.8,12.1,16.1,11.8,16.5,11.8z M58.8,11.4c0.5,0,0.9,0.4,0.9,0.9s-0.4,0.9-0.9,0.9c-0.5,0-0.9-0.4-0.9-0.9 S58.3,11.4,58.8,11.4z M53.3,11.4c0.5,0,0.9,0.4,0.9,0.9c0,0.5-0.4,0.9-0.9,0.9c-0.5,0-0.9-0.4-0.9-0.9 C52.4,11.9,52.8,11.4,53.3,11.4z M69.9,11.8c0.5,0,0.9,0.4,0.9,0.9c0,0.5-0.4,0.9-0.9,0.9c-0.5,0-0.9-0.4-0.9-0.9 C69,12.3,69.4,11.8,69.9,11.8z M42.2,11.8c0.5,0,0.9,0.4,0.9,0.9c0,0.5-0.4,0.9-0.9,0.9c-0.5,0-0.9-0.4-0.9-0.9 C41.2,12.3,41.7,11.8,42.2,11.8z M70.9,14c0.5,0,0.9,0.4,0.9,0.9c0,0.5-0.4,0.9-0.9,0.9c-0.5,0-0.9-0.4-0.9-0.9 C70,14.4,70.4,14,70.9,14z M41.2,14c0.5,0,0.9,0.4,0.9,0.9c0,0.5-0.4,0.9-0.9,0.9c-0.5,0-0.9-0.4-0.9-0.9C40.2,14.4,40.6,14,41.2,14 z M24.7,8.5c0.8,0.5,1,1.1,0.6,2c0.3-0.4,1.1-0.4,1,0.5c-0.4-0.4-0.8-0.1-0.7,0.3c0.1,0.3,0.4,0.6,0.8,0.5c0.3-0.1,0.8-0.5,0.8-1.5 c-0.2,0.1-0.4,0.3-0.6,0.6l-0.1-1.6c0.3,0.4,0.5,0.6,0.7,0.6c0-0.3-0.1-0.5-0.4-0.9l1,0c-0.2,0.8-0.3,1.9-0.1,3.6 c-1.2,0.3-3.2,0.9-4.4,1.4c-1.2,0.5-3.1,1.4-4.1,2.1c-1-1.4-1.8-2.1-2.5-2.5l0.8-0.7c0.1,0.5,0.2,0.7,0.4,0.9 c0.1-0.2,0.1-0.5,0.1-0.9l1,1.2c-0.3-0.1-0.6-0.1-0.8,0c0.8,0.7,1.3,0.7,1.6,0.5c0.4-0.2,0.4-0.7,0.2-0.9c-0.3-0.4-0.7-0.3-0.7,0.3 c-0.7-0.6-0.2-1.1,0.4-1.1c-0.9-0.4-1.2-0.9-1-1.8c1,0.3,1.2,0.8,1.2,1.7c0.2-0.7,1-0.7,1.1,0.2c-0.5-0.4-0.8,0.1-0.5,0.5 c0.2,0.4,0.9,0.5,1.5,0.2c0.9-0.5,0.7-1.1,0.5-1.7c-0.2,0.1-0.6,0.4-0.7,1.1l-0.7-1.4c0.5,0.2,0.9,0.2,1.3,0 c-0.3-0.3-1.1-0.8-1.1-0.8l1.9-0.8c0,0-0.3,0.9-0.3,1.4c0.4-0.2,0.7-0.4,0.9-0.9l0.5,1.5c-0.6-0.4-1.1-0.4-1.3-0.3 c0.2,0.5,0.5,1.1,1.5,0.8c0.7-0.2,1.1-0.7,1-1.2c-0.1-0.5-0.6-0.6-0.8,0c-0.6-0.7,0-1.2,0.6-0.9C24.4,10,24.2,9.4,24.7,8.5z M57.6,13.1v4.3h-1v-4C57,13.4,57.3,13.3,57.6,13.1z M54.4,13.1c0.3,0.2,0.7,0.3,1,0.3v4h-1V13.1z M71.2,16.3c0.5,0,0.9,0.4,0.9,0.9 c0,0.5-0.4,0.9-0.9,0.9c-0.5,0-0.9-0.4-0.9-0.9C70.3,16.7,70.7,16.3,71.2,16.3z M40.8,16.3c0.5,0,0.9,0.4,0.9,0.9 c0,0.5-0.4,0.9-0.9,0.9c-0.5,0-0.9-0.4-0.9-0.9C39.9,16.7,40.3,16.3,40.8,16.3z M30,15.4c-1,0.6-2.5,1.2-3.8,1.8 c0.6,1,1.8,1.6,2.8,0.9C29.7,17.5,29.1,16.8,30,15.4z M88.3,18.1c-0.9,0-1.1,0.5-1.2,1l0,0.2c0,0.2-0.1,0.5-0.2,0.7 c1-0.6,2.2-0.9,3.6-1C89.6,18.8,89,18.1,88.3,18.1z M41.3,18.5c0.5,0,0.9,0.4,0.9,0.9c0,0.5-0.4,0.9-0.9,0.9c-0.5,0-0.9-0.4-0.9-0.9 C40.4,19,40.8,18.5,41.3,18.5z M70.8,18.5c0.5,0,0.9,0.4,0.9,0.9c0,0.5-0.4,0.9-0.9,0.9c-0.5,0-0.9-0.4-0.9-0.9 C69.8,19,70.3,18.5,70.8,18.5z M23.5,18.2c-1.3,0.5-2.8,1.1-4,1.3c1.7,0.4,1.6,1.3,2.6,1.2C23.3,20.7,23.7,19.3,23.5,18.2z M63,16.5 c0.5,1,1,1.6,0.9,2.4c-0.1,0.8-0.9,1.4-1.3,2.2c-0.4-0.9-1-1.6-0.9-2.4C61.8,18,62.8,17,63,16.5z M49.1,16.5 c0.2,0.5,1.2,1.5,1.3,2.2c0.1,0.7-0.5,1.4-0.9,2.4c-0.4-0.8-1.2-1.4-1.3-2.2C48.1,18.1,48.6,17.5,49.1,16.5z M28.6,20 c-0.3-0.3-0.6-0.2-1.1-0.1L24,21.2c-0.4,0.2-0.7,0.4-0.7,0.8c0,0.1,0,0.2,0,0.3l0,0.2c0,0.3,0,0.5,0.2,0.6c0.4,0.1,0.4-0.9,1-1 c0.5-0.1,0.5,0.4,0.1,1.2c0.8-0.2,1.6-0.6,2,0.2c0.3,0.6,0.2,1-0.4,1.6c-0.3,0.3-0.1,0.9,0.1,1.6c0.2,0.7,1.2,1.8,2.4,1.3 c1.3-0.6,1.2-1.8,0.8-2.5c-0.3-0.7-0.6-1.3-1-1.3c-0.7,0-1.1-0.2-1.4-0.9c-0.3-0.8,0.6-1.1,1.3-1.5c-0.8-0.2-1.2-0.6-0.7-0.9 c0.5-0.4,1.2,0.3,1.4,0C29.4,20.5,28.8,20.2,28.6,20z M56.3,27.1h-0.4c-3.6,0-10.4,0.3-10.4,2.7c0,0.7,0.4,1.3,1.5,1.9 c1.8-1.2,4.8-2.5,9.2-2.5c4.4,0,7.4,1.3,9.2,2.5c1-0.6,1.5-1.2,1.5-1.9c0-2.5-7.1-2.7-10.6-2.7L56.3,27.1z M81.9,30.6 c-0.4,0-0.8,0.1-1.1,0.3c-0.4,0.3-0.6,0.7-0.6,1.1c0,0.2,0,0.3,0.2,0.5c0.3,0.4,1.1,0.4,1.6,0c0.3-0.3,0.6-0.6,0.6-1 c0-0.2,0-0.4-0.1-0.6C82.3,30.7,82,30.6,81.9,30.6z M81.8,29.8l0.2,0c0.4,0.1,0.8,0.3,1,0.6c0.2,0.3,0.3,0.7,0.3,1.2 c-0.1,0.6-0.4,1.1-0.9,1.5c-0.9,0.7-2.1,0.7-2.7-0.1c-0.6-0.7-0.3-1.9,0.6-2.6c0.5-0.4,1.1-0.6,1.7-0.5L81.8,29.8z M51,32.1 c0.3-0.1,0.5-0.1,0.8,0c0.2,0.1,0.4,0.3,0.5,0.6c0,0.1,0.1,0.2,0.1,0.3c0,0.1,0,0.3-0.1,0.4c-0.1,0.2-0.3,0.4-0.6,0.5 c-0.9,0.3-1.2-0.3-1.3-0.6c-0.1-0.2-0.1-0.5,0-0.8C50.5,32.3,50.7,32.2,51,32.1z M56.7,30.4l0,2.4c0,0.4,0,0.5-0.1,0.5 c-0.1,0.1-0.3,0.2-0.6,0.2c-0.2,0-0.4,0-0.5-0.2c-0.1-0.1-0.1-0.1-0.1-0.5v-2.5l-1.3,0l0,2.6c0,1.2,1,1.8,1.9,1.7 c0.6,0,1.1-0.2,1.5-0.6c0.3-0.3,0.5-0.8,0.5-1.3v-2.6L56.7,30.4z M59.3,30.5l-0.9,4.4l1.2,0.2l0.9-4.4L59.3,30.5z M53.4,32.2 c-0.4-1.2-1.7-1.7-2.9-1.3c-0.6,0.2-1.1,0.7-1.4,1.2c-0.2,0.5-0.2,1.1,0,1.7c0.3,1,1.3,1.5,2.3,1.4c0.2,0.1,1.2,0.3,2.2,0.1l0.5-1.2 c-0.4,0.1-0.8,0-1,0c0.2-0.4,0.4-0.8,0.4-1.2C53.6,32.7,53.5,32.4,53.4,32.2z M78.4,34.5c-0.3,0-0.4,0.1-0.6,0.2 c-0.3,0.2-0.4,0.6-0.4,1c0,0,0,0.1,0,0.1c0,0.7,0.4,1.2,0.9,1.2c0.2,0,0.4-0.1,0.6-0.2c0.3-0.2,0.4-0.6,0.5-1c0-0.4-0.1-0.8-0.3-1.1 C78.8,34.7,78.6,34.5,78.4,34.5z M63.8,31.8l-2.5,3.6l1.1,0.6l1.2-1.8l0.2,1.4l1.3-0.3L63.8,37l1,0.7l2.6-3.5l-0.8-0.6l-1.7,0.4 l-0.3-1.8L63.8,31.8z M45.8,33.5l-2.6,2.4l0.8,0.9l0.9-0.8l2,2.2l0.9-0.8c0,0-1.9-2-2-2.2l0.9-0.8L45.8,33.5z M85.7,27.9L85.7,27.9 c0,0.1-0.8,2.6-1.2,3.9l0,0.1l12.2,7l0-0.1c0.3-0.3,0.6-0.7,0.9-1l0.3-0.3c0.7-0.8,1.4-1.6,1.5-1.6l0.1-0.1l-1.4-1.1l0,0.2 c0,0.1,0,0.2,0,0.3c0,0.3,0,0.7-0.1,1.1c-0.2-0.2-0.4-0.5-0.4-0.9c0,0,0,0,0-0.1l0-0.3l-1.2,1.5h0.2c0.2,0,0.7,0.1,1,0.3 c-0.7,0.6-1.3,0.3-1.7,0c-0.7-0.5-1-0.9-0.8-1.2c0.1-0.2,0.3-0.2,0.5-0.2c0.2,0,0.5,0.2,0.5,0.6l0,0.1l0.1,0 c0.4-0.2,0.6-0.5,0.6-0.7c0-0.1,0-0.2,0-0.2c0-0.1,0-0.3-0.1-0.4c-0.1-0.2-0.4-0.4-0.7-0.4c0.6-0.5,1-1.1,1-1.8c0-0.2,0-0.3-0.1-0.5 l0-0.1l-0.1,0c-1,0.2-1.5,0.7-1.9,1.7c-0.1-0.3-0.4-0.6-0.7-0.7c-0.2,0-0.5,0.1-0.6,0.2c-0.1,0.1-0.3,0.4-0.3,0.9l0,0.1l0.1,0 c0.3-0.1,0.6,0,0.7,0.2c0.1,0.2,0.2,0.4,0.1,0.6c-0.2,0.4-0.7,0.3-1.5-0.1c-0.5-0.3-0.7-0.7-0.7-1.1c0-0.2,0.1-0.5,0.2-0.7 c0.2,0.2,0.3,0.5,0.3,1v0.1l0,0.3l1.3-2.1l-0.2,0.1c-0.1,0-0.5,0.2-0.9,0c0.4-0.4,0.8-0.7,1.2-0.7l0.3,0l-2.4-1.4l0.1,0.3 C92,31,92,31.2,92,31.4c0,0.3-0.1,0.6-0.1,0.8c-0.3-0.3-0.4-0.7-0.4-0.8l0-0.3l-1.2,2.2l0.3-0.2c0.4-0.2,0.8-0.3,1-0.3 c-0.3,0.5-0.9,0.9-1.8,0.4c-0.7-0.4-1-0.8-0.8-1.2c0.1-0.2,0.3-0.3,0.5-0.2c0.3,0,0.5,0.2,0.5,0.5l0,0.1l0.1-0.1 c0.4-0.2,0.6-0.5,0.6-0.7c0.1-0.2,0-0.5-0.1-0.7c-0.2-0.2-0.5-0.3-0.9-0.3c0.5-0.5,0.7-1,0.7-1.6c0-0.3-0.1-0.6-0.2-0.9l0-0.1 l-0.1,0c-0.9,0.3-1.5,1-1.6,2c-0.2-0.3-0.4-0.4-0.7-0.4c-0.2,0-0.5,0.1-0.6,0.3c-0.1,0.1-0.3,0.4-0.2,0.9l0,0.1l0.1,0 c0.3-0.1,0.6,0,0.8,0.1c0.1,0.1,0.1,0.2,0.1,0.3c0,0.1,0,0.1-0.1,0.2c-0.2,0.3-0.7,0.3-1.4-0.1c-0.4-0.2-0.9-0.5-0.9-1.2 c0-0.1,0-0.2,0-0.3c0.3,0.1,0.6,0.5,0.7,0.7l0.1,0.2l0.7-1.8l-0.2,0.2c-0.3,0.2-0.7,0.2-1,0.1c0.4-0.4,0.8-0.7,1.1-0.8l0.2-0.1 L85.7,27.9z M50.9,39.2L50.9,39.2C50.8,39.3,50.8,39.3,50.9,39.2C50.8,39.4,50.9,39.3,50.9,39.2c0.1,0.1,0,0.2,0,0.2 c0.1,0,0.1,0.1,0.1,0.1c0,0.1-0.1,0.1-0.1,0.1c0,0-0.1,0.1-0.1,0.1c0,0.1,0,0.2,0.1,0.2c0.1,0.1,0.2,0,0.2-0.1c0-0.1,0-0.1,0-0.1 c0,0-0.1-0.1,0-0.1c0-0.1,0.1,0,0.2,0c0-0.1,0-0.1,0-0.1c0.1,0,0,0.1,0.1,0.1c0,0,0-0.1,0-0.1c0,0,0-0.1-0.1-0.1L50.9,39.2 C50.9,39.2,50.9,39.2,50.9,39.2L50.9,39.2z M42.7,36.6l-0.8,1l3.2,2.6l0.8-1L42.7,36.6z M69.6,36.4l-4.7,1.4l1,1l0.7-0.2l0.8,1.1 L67,40.4l0.8,1.1l2.3-4.4L69.6,36.4z M41.2,40.8c0.3-0.5,0.8-0.7,1.3-0.4c0.3,0.1,0.5,0.5,0.5,0.8c0,0.1,0,0.3-0.1,0.5 c-0.1,0.2-0.3,0.4-0.6,0.5c-0.2,0.1-0.5,0-0.7-0.1c-0.2-0.1-0.4-0.3-0.5-0.5C41.1,41.3,41.1,41.1,41.2,40.8z M55,37l0.2,0 c-1,0.2-1.1,1.2-2.6,1.3l-0.1,0.1c-0.1,0.1-0.1,0.2-0.1,0.3c0,0.7,2.9,0,2.9,1.2c0,0.3-0.5,0.7-1.6,0.7c-0.1,0,0,0,0,0 c0.5,0,0.6,0.2,0.9,0.2c0.2,0,0.2,0.1,0.2,0.1c0,0.2,0.2,0.1,0.2,0c0,0.1,0,0.2-0.1,0.2c0,0,0,0,0,0c0,0.1,0,0.2,0.1,0.2 c0,0.1-0.1,0.1-0.2,0.1c0,0,0,0,0,0c0.1,0,0.1,0.1,0.1,0.1c0,0.2-0.2,0.1-0.2,0.3c0,0.1,0.2,0.1,0.1,0.3c0,0,0,0.1-0.1,0.1 c0,0,0.1,0.1,0.1,0.1c-0.1,0.1-0.2,0-0.2-0.1c0,0-0.1,0-0.1,0c-0.1,0-0.1-0.2,0-0.3c0,0,0,0,0,0c-0.1,0.1-0.1,0.2-0.1,0.2 c0,0,0,0-0.1,0c0,0.1,0,0.1,0,0.2c-0.1,0-0.1-0.1-0.1-0.2c0,0-0.1,0-0.1,0c-0.1-0.1,0-0.2,0.1-0.3c0,0,0,0,0,0 c-0.1,0.1-0.2,0-0.3-0.1c0,0,0,0,0,0c-0.1,0-0.1,0.1-0.2,0.1c0-0.1,0.1-0.2,0.2-0.2c0,0,0.1-0.1,0.1-0.1c0.1,0,0.3,0.1,0.3,0 c0-0.1,0-0.1,0-0.3c0-0.1,0-0.1-0.1-0.1c-0.1,0-0.3-0.1-0.5,0.1c-0.2,0.1,0.2,0.2-0.2,0.2c-0.2,0-0.4-0.1-0.6-0.1 c0.1,0.1,0,0.3,0.1,0.3c0.2,0.1,0.2,0.4,0.1,0.4c0,0.1-0.3,0.1-0.4,0c0,0-0.1,0-0.1,0c-0.1,0,0,0.2-0.2,0.3c-0.1,0-0.2,0-0.2-0.1 c0,0,0,0-0.1,0c0,0-0.1,0-0.1,0c0,0,0,0,0,0c0,0.1,0,0.1,0,0.1c0,0,0,0-0.1,0c0,0.1,0.1,0.1,0.1,0.1c-0.2,0.1-0.3,0-0.3-0.1 c0,0,0-0.1,0-0.1c0,0,0,0,0-0.1c0,0,0,0,0,0c0,0,0,0,0,0c0,0,0,0,0,0c0,0,0,0,0,0L52,42c0,0,0,0.1,0.1,0.1c-0.2,0-0.2,0-0.2-0.1 c0,0,0-0.1,0-0.1c-0.1-0.3,0.3-0.1,0.3-0.2c0,0,0,0,0,0c0,0-0.1,0-0.1,0c-0.1,0-0.1-0.1-0.1-0.1c0,0,0,0,0-0.1 c-0.1,0-0.2,0.1-0.2,0.1c0-0.1,0.1-0.3,0.2-0.2c0,0,0.1-0.1,0.1-0.1c0.3-0.1,0.3,0.5,0.6,0.3c0,0,0.1,0,0.2-0.1c0,0,0,0,0,0 c-0.1-0.1-0.2-0.1-0.3-0.1c-0.2,0-0.2-0.4-0.1-0.5C52.3,40.9,52.1,41,52,41c-1.1-0.1-0.2,0.3-0.8,0.4c-0.1,0-0.4,0.3-0.6,0.3 c0.1,0,0-0.1,0-0.2c-0.1,0.1-0.2,0.1-0.3,0.1c-0.1,0.1-0.2,0.1-0.2,0.1c0,0.1-0.2,0.2-0.3,0.2c0.1,0,0.1-0.1,0.1-0.1c0,0,0,0,0,0 c-0.2,0.2-0.5,0-0.5,0.4c-0.1-0.1,0-0.2-0.1-0.2c0,0-0.1,0.1-0.1,0.1c0,0,0-0.1,0-0.2c0,0,0,0,0,0c-0.2,0-0.3,0-0.3,0c0,0,0,0,0,0 c0,0,0-0.1-0.1-0.1c0,0.2-0.2,0.2-0.3,0.3c0.1-0.1,0.1-0.2,0.1-0.3c0,0.1-0.1,0.1-0.1,0.1c0-0.1,0-0.1-0.1-0.2c0,0,0,0,0,0 c0,0.1-0.1,0.2-0.2,0.2c-0.2,0-0.2-0.1-0.2-0.2c0,0,0,0,0,0c-0.1,0.1,0,0.2-0.1,0.3c0,0,0,0-0.1,0c0,0.1,0,0.2,0.1,0.2 c-0.1,0-0.3-0.1-0.2-0.3c0,0,0,0,0,0c0,0-0.1,0-0.1,0c-0.1-0.1,0-0.2,0.1-0.3c0,0,0,0,0,0c-0.3,0.2-0.3,0.1-0.4-0.1l0,0 c0,0,0,0,0-0.1c-0.1,0-0.1,0.1-0.1,0.1c-0.1-0.1,0.1-0.3,0.2-0.3c0,0,0,0,0,0c0,0,0.1,0,0.1,0c0.1-0.1,0.1,0,0.2,0.1 c0.1,0,0.1,0,0.1,0c0,0,0,0,0,0c-0.3-0.1-0.3-0.2-0.2-0.2c0,0,0-0.1,0-0.1C47.7,41,47.6,41,47.6,41c0.1,0,0.2,0,0.3,0 c0,0,0.1,0,0.1,0c0,0,0.1,0,0.1,0.1c0.1,0.1,0,0.1,0.1,0.2c0.1,0.2,0.5,0,0.7-0.1c0.1-0.1,0.5,0,0.5,0c0,0,0.4-0.1,0.7-0.2 c-0.2-0.2-0.2-0.4-0.3-0.4c0,0-0.1,0,0,0.1c-0.1,0-0.1-0.1-0.1-0.2c0,0,0,0,0,0c0,0-0.1,0-0.1,0c0,0-0.1,0-0.1-0.1c0,0,0,0,0,0 c-0.3,0.1-0.6-0.1-0.4-0.3c-0.1,0.2,0.3,0.3,0.3,0c0,0,0,0,0,0c-0.2,0-0.2-0.2,0-0.3c0,0,0,0,0,0c0,0,0,0-0.1,0c0,0,0,0-0.1,0 c-0.1,0-0.1,0-0.1,0c0,0,0,0-0.1-0.1c0,0,0,0,0,0C49,39.9,49,40,49,40c-0.1-0.1-0.1-0.2,0-0.2c0,0,0-0.1,0-0.1 c0-0.1,0.1-0.2,0.3-0.1c0,0,0,0,0,0c0,0,0,0,0,0c0,0,0,0,0,0c-0.1,0-0.2-0.1-0.2-0.2c0,0,0-0.1,0-0.1c0,0-0.1,0-0.1,0 c0.2-0.1,0.3,0,0.3,0.1c0,0,0,0,0,0c0,0,0.1,0,0.1,0c0.1,0,0.1,0.2,0.2,0.3c0,0,0,0,0,0c0,0,0-0.1,0-0.1c0,0,0,0,0,0 c0-0.1,0-0.1,0-0.1c0,0,0,0,0.1-0.1c0-0.1,0-0.1-0.1-0.2c0.1,0,0.2,0.1,0.2,0.2c0,0,0,0.1,0,0.1c0,0.1-0.1,0.3-0.1,0.4 c0,0.2,0,0.3,0.1,0.4c0.1,0.1,0.2,0.1,0.2,0.2c0-0.1,0.1-0.4,0.2-0.7c0,0-0.1,0-0.1-0.1c0.1,0,0.1-0.2,0.2-0.4c0,0-0.1,0-0.1-0.1 c0.1,0,0.2-0.2,0.3-0.3c0-0.1,0-0.2,0-0.3c0.1,0,0.2,0,0.2,0.1c0-0.1,0.1-0.1,0.1-0.1c0,0,0.1,0,0.2,0c0,0,0.1,0,0.3,0.1 c0.1,0.1,0.2,0.1,0.3,0.2c0,0,0,0.1,0.1,0.2c0,0,0.1,0.1,0.1,0.2c0.1,0,0.2,0,0.2,0.1c0,0.1-0.1,0.2-0.2,0.2 c0.1,0.2-0.2,0.5-0.2,0.7c1.1-0.3,1.6,0.1,2.2,0.1c0.8,0,1.3-0.2,1.3-0.5c0-0.8-2.9,0-2.9-1.2c0-0.2,0.1-0.3,0.3-0.4 c0-0.1,0-0.1,0.1-0.2c0.3-0.4,0.9-0.4,1.1-0.8c0,0.1-0.1,0.5-0.4,0.6c0.5,0,0.7-1,2-0.9L55,37z M43.1,39.3C42.6,39,42,39,41.5,39.1 c-0.5,0.2-1,0.6-1.3,1.1c-0.3,0.5-0.4,1.1-0.2,1.7c0.2,0.5,0.5,1,1,1.2c0.5,0.3,1.1,0.3,1.6,0.2c0.5-0.2,1-0.6,1.3-1.1 c0.2-0.4,0.3-0.7,0.3-1.1c0-0.2,0-0.4-0.1-0.6C43.9,40,43.6,39.6,43.1,39.3z M48.6,43.3C48.5,43.3,48.5,43.2,48.6,43.3 c-0.1,0-0.2,0-0.2,0.1C48.4,43.4,48.5,43.3,48.6,43.3c0,0.1,0,0.2-0.1,0.2c0.1,0,0.1,0.1,0.1,0.2c0,0.1-0.1,0.1-0.1,0.1 c0,0-0.1,0.1-0.1,0.1c0,0.1-0.1,0.2,0.1,0.2c0.1,0.1,0.2,0,0.2-0.1c0-0.1,0-0.1,0-0.2c0-0.1-0.1-0.1,0-0.2c0-0.1,0.1,0,0.2,0 c0-0.1,0-0.1,0-0.1c0.1,0,0.1,0.1,0.1,0.1c0,0,0-0.1,0-0.1c0,0,0-0.1-0.1-0.1L48.6,43.3z M80.2,43.6c-0.4-0.2-0.9-0.3-1.3-0.1 c-0.2,0.1-0.4,0.2-0.6,0.5c-0.3,0.6,0.1,1.3,0.9,1.7c0.4,0.2,0.9,0.3,1.3,0.1c0.2-0.1,0.4-0.2,0.5-0.5c0.1-0.3,0.1-0.5,0-0.7 C81,44.2,80.7,43.9,80.2,43.6z M46.6,42.4c0.1,0,0.2,0.1,0.3,0.2c0,0,0,0.1,0,0.1c0,0.2-0.1,0.3-0.1,0.5c0,0.2,0,0.3,0.2,0.4 c0.2,0.1,0.3,0.3,0.4,0.4l0.2,0.1l0.2,0.1c0-0.1,0-0.2,0-0.4c0,0-0.1-0.1-0.2-0.1c0.1,0,0.2-0.2,0.2-0.4c0,0-0.1,0-0.1-0.1 c0.1,0,0.2-0.3,0.3-0.3c0-0.2,0-0.2,0-0.4c0.1,0,0.2,0,0.2,0.1c0-0.1,0.1-0.1,0.2-0.1c0,0,0.1,0,0.2,0c0.1,0,0.2,0,0.3,0.1 c0.1,0.1,0.2,0.2,0.3,0.2c0,0,0.1,0.2,0.1,0.2c0,0.1,0.1,0.1,0.1,0.2c0.1,0,0.2,0,0.2,0.1c0,0.1-0.1,0.2-0.2,0.3 c0.1,0.2-0.1,0.4-0.2,0.6c1.3-0.3,3.5,0.1,4.2,0.1c0.5,0,1.3-0.1,1.3-0.3c0-0.2-0.2-0.2-1-0.2c-0.8,0-3.5,0.6-3.5-0.4 c0-0.5,0.6-0.5,1.3-0.4c0,0,0,0,0.1-0.1c0.5-0.3,1.3,0.1,1.8-0.2c0,0.2-0.2,0.3-0.8,0.3c1,0.2,1.7-0.5,2.6,0.2 c-0.8-0.2-2.3,0.4-3.5,0.1c-0.1,0-0.2-0.1-0.2-0.1c-0.5,0-1-0.1-1,0.2c0,0.6,2.2,0.2,3.2,0.2c1,0,1.3,0.2,1.3,0.5 c0,0.4-0.9,0.5-1.6,0.5c0.6,0.1,0.8,0.1,1.1,0.1c0.2,0,0.2,0.1,0.2,0.1c0,0.2,0.2,0.1,0.3,0c0,0.1,0,0.2-0.1,0.3c0,0,0,0,0,0 c0,0.1,0,0.2,0.1,0.2c0,0.1-0.1,0.1-0.2,0.1c0,0,0,0,0,0c0.1,0,0.1,0.1,0.1,0.1c0,0.2-0.2,0.2-0.2,0.3c0,0.1,0.2,0.1,0.1,0.3 c0,0,0,0.1-0.1,0.1c0,0,0.1,0.1,0.1,0.1c-0.1,0.1-0.2,0-0.3-0.1c0,0-0.1,0-0.1,0c-0.1,0-0.1-0.2,0-0.3c0,0,0,0,0,0 c-0.1,0.1-0.1,0.3-0.2,0.3l0,0l0,0c0,0.1,0,0.1,0,0.2c-0.1,0-0.2-0.1-0.1-0.2c0,0-0.1,0-0.1,0c-0.1-0.1,0-0.2,0.1-0.3c0,0,0,0,0,0 c-0.1,0.1-0.3,0.1-0.3-0.1l0,0l0,0c-0.1,0-0.2,0.1-0.2,0.1c0-0.1,0.1-0.2,0.2-0.3c0,0,0.1-0.1,0.1-0.1c0.1,0,0.3,0.1,0.4,0 c0.1-0.1,0-0.1,0-0.4c0-0.1,0-0.1-0.1-0.1c-0.1,0-0.3-0.1-0.5,0.1c-0.2,0.1-0.3,0.2-0.8,0.2c-0.3,0-0.4-0.1-0.6-0.1 c0.1,0.1,0,0.3,0.1,0.3c0.2,0.1,0.2,0.4,0.2,0.5c0,0.1-0.3,0.1-0.4,0c0,0-0.1,0-0.1,0c-0.2,0,0,0.2-0.2,0.3c-0.1,0-0.2,0-0.2-0.1 c0,0,0,0-0.1,0c0,0-0.1,0-0.1,0c0,0,0,0,0,0c0,0.1,0,0.1,0,0.1c0,0,0,0-0.1,0c0,0.1,0.1,0.1,0.2,0.1c-0.2,0.1-0.3,0-0.3-0.1 c0,0,0-0.1,0-0.1c0,0,0,0,0-0.1c0,0,0,0,0,0c0,0,0,0,0,0c0,0,0,0.1,0,0.1c0,0,0,0-0.1,0c0,0,0,0.1,0.1,0.1c-0.2,0.1-0.2,0-0.2-0.1 c0,0-0.1-0.1-0.1-0.1c-0.1-0.3,0.3-0.1,0.3-0.3c0,0,0,0,0,0c0,0-0.1,0-0.1,0c-0.1,0-0.1-0.1-0.1-0.1c0,0,0,0,0-0.1 c-0.1,0-0.2,0.1-0.2,0.1c0-0.1,0.1-0.3,0.3-0.3c0,0,0.1-0.1,0.1-0.1c0.3-0.1,0.3,0.5,0.6,0.3c0,0,0.2,0,0.3-0.1c0,0,0,0,0,0 c-0.1-0.1-0.2-0.1-0.3-0.1c-0.2,0-0.2-0.4-0.1-0.6c-0.1,0.1-0.2,0.2-0.3,0.2c-1.4-0.2-0.8,0.6-1.6,0.5c-0.1,0-0.2,0-0.3,0 c-0.1,0.2-0.5,0.7-0.8,0.6c0.1,0,0.1-0.1,0.1-0.1c0,0,0,0,0,0c-0.3,0.2-0.5,0-0.5,0.4c-0.1-0.1,0-0.3-0.1-0.3c0,0-0.1,0.1-0.1,0.1 c0,0,0-0.1,0-0.2c0,0,0,0,0,0c-0.2,0-0.3,0-0.3,0c0,0,0,0,0,0c0,0,0-0.1-0.1-0.1c0,0.2-0.2,0.3-0.3,0.3c0.1-0.1,0.1-0.2,0.1-0.3 c0,0.1-0.1,0.1-0.1,0.1c0-0.1,0-0.1-0.1-0.2c0,0,0,0,0,0c0,0.1-0.1,0.2-0.2,0.2c-0.2,0-0.2-0.1-0.2-0.2c0,0,0,0,0,0 c-0.1,0.1,0,0.2-0.2,0.3c0,0-0.1,0-0.1,0c0,0.1,0.1,0.2,0.1,0.3c-0.1,0-0.3-0.1-0.3-0.3c0,0,0,0,0,0c0,0-0.1-0.1-0.1-0.1 c-0.2-0.1,0-0.2,0.1-0.3c0,0,0,0,0,0c-0.3,0.2-0.4,0.1-0.4-0.1c0,0,0-0.1,0-0.1c-0.1,0-0.1,0.1-0.2,0.1l0,0l0,0 c0-0.1,0.1-0.2,0.2-0.2l0,0c0,0,0,0,0,0c0,0,0.1,0,0.1,0c0.1-0.1,0.2,0.1,0.3,0.1c0.1,0,0.1,0,0.2,0c0,0,0,0,0,0 c-0.3-0.1-0.3-0.2-0.3-0.3c0,0,0-0.1,0.1-0.1c-0.1-0.1-0.1-0.1-0.2-0.1c0.1-0.1,0.2,0,0.3,0c0,0,0.1,0,0.1,0c0,0,0.1,0.1,0.1,0.1 c0.1,0.1,0,0.2,0.1,0.2c0.1,0.2,0.6,0,0.8-0.1c0.1-0.1,0.6,0,0.7,0c0,0-0.1-0.2-0.1-0.4c-0.1,0.1-0.2-0.1-0.4-0.2 c-0.2-0.1-0.3-0.3-0.4-0.3c0,0,0,0.1,0,0.1c-0.1,0-0.1-0.1-0.1-0.2c0,0,0,0,0,0c0,0-0.1,0-0.1,0.1c0,0-0.1-0.1-0.1-0.1c0,0,0,0,0,0 c-0.3,0.2-0.6-0.1-0.4-0.4c0,0.3,0.3,0.3,0.4,0.1c0,0,0,0,0,0c-0.2,0-0.2-0.2-0.1-0.3c0,0,0,0,0,0c0,0,0,0-0.1,0c0,0,0,0-0.1,0 c-0.1,0-0.1,0.1-0.1,0c0,0,0,0-0.1-0.1c0,0,0,0,0,0c-0.1,0-0.1,0.1-0.1,0.1c-0.1-0.1-0.1-0.2,0-0.3c0,0,0-0.1,0-0.1 c0-0.1,0.1-0.2,0.3-0.1c0,0,0,0,0,0c0,0,0,0,0-0.1c0,0,0,0,0,0c-0.1,0-0.2,0-0.2-0.2c0,0,0-0.1,0-0.1c0,0-0.1-0.1-0.1-0.1 c0.2-0.1,0.3,0,0.3,0.1c0,0,0,0,0,0c0,0,0,0,0,0l0.1,0c0.1,0,0.2,0.2,0.2,0.3c0,0,0,0,0,0c0,0,0-0.1,0-0.1c0,0,0,0,0,0 c-0.1-0.1,0-0.1,0-0.2c0,0,0-0.1,0.1-0.1C46.7,42.5,46.7,42.5,46.6,42.4z M78.7,42.8c0.6-0.2,1.3-0.1,1.9,0.2 c0.6,0.3,1.1,0.8,1.3,1.4c0.2,0.4,0.1,0.9,0,1.3c-0.2,0.4-0.5,0.7-1,0.8c-0.6,0.2-1.3,0.2-1.9-0.1c-1.1-0.5-1.7-1.7-1.2-2.7 C77.9,43.3,78.2,43,78.7,42.8z M73.4,46l0.4,0.8c-0.2-0.1-0.3-0.1-0.5-0.2c-0.1,0-0.2-0.1-0.3-0.1c0-0.1,0.1-0.1,0.1-0.2 C73.3,46.3,73.3,46.1,73.4,46L73.4,46z M47.4,47.4C47.3,47.4,47.3,47.4,47.4,47.4c-0.1,0-0.2,0-0.2,0.1 C47.2,47.5,47.3,47.4,47.4,47.4c0,0.1,0,0.2-0.1,0.2c0.1,0,0.1,0.1,0.1,0.2c0,0.1-0.1,0.1-0.1,0.1c0,0-0.1,0.1-0.1,0.1 c0,0.1,0,0.2,0.1,0.3c0.1,0.1,0.2,0,0.2-0.1c0-0.1,0-0.1,0-0.2c0-0.1-0.1-0.1,0-0.2c0-0.1,0.1,0,0.2,0c0-0.1,0-0.1,0-0.1 c0.1,0,0.1,0.1,0.1,0.1c0,0,0,0,0,0l0-0.1c0,0,0-0.1-0.1-0.1L47.4,47.4z M99.8,47.1c-0.2,0-0.5,0-0.7,0.2c-0.2,0.2-0.3,0.5-0.3,0.7 c0,0.4,0.2,0.9,0.5,1.2c0.3,0.4,0.8,0.6,1.2,0.6c0.2,0,0.5,0,0.7-0.2c0.2-0.2,0.3-0.5,0.3-0.7c0-0.4-0.2-0.9-0.5-1.2 C100.6,47.3,100.2,47.1,99.8,47.1z M45.1,46.4c0.1,0,0.2,0.1,0.3,0.2c0,0,0,0.1,0,0.1c0,0.2-0.1,0.3-0.1,0.5c0,0.2,0,0.3,0.2,0.4 c0.3,0.2,0.4,0.4,0.5,0.4c0.1,0,0.1,0,0.2,0c0,0,0.1,0,0.2,0l0.1,0c0-0.1,0-0.2,0-0.3c0,0-0.1-0.1-0.1-0.1c0.1,0,0.2-0.2,0.2-0.4 c0,0-0.1,0-0.1-0.1c0.1,0,0.2-0.3,0.3-0.3c0-0.2,0-0.2,0-0.4c0.1,0,0.2,0,0.2,0.1c0-0.1,0.1-0.1,0.2-0.1c0,0,0.1,0,0.2,0 c0.1,0,0.1,0,0.3,0.1c0.1,0.1,0.2,0.2,0.3,0.2c0,0,0.1,0.2,0.1,0.2c0,0.1,0.1,0.1,0.1,0.2c0.1,0,0.2,0,0.2,0.1 c0,0.1-0.1,0.2-0.2,0.3c0.1,0.2-0.2,0.5-0.2,0.7c1.3-0.4,4.5,0,5.3,0c0.5,0,1.3-0.1,1.3-0.3c0-0.2-0.2-0.2-1-0.2 c-0.8,0-4.3,0.6-4.3-0.4c0-0.5,0.8-0.5,1.6-0.4l0.3,0l0.1,0c0,0,0.1-0.1,0.1-0.1c0.5-0.3,1.7,0.2,2.2-0.1c0,0.2-0.6,0.3-1.2,0.3 c1,0.2,1.9-0.5,2.6,0.1c-0.9-0.3-2.2,0.5-3.5,0.2c-0.1,0-0.2-0.1-0.2-0.1c-0.1,0-0.2,0-0.3,0l-0.3,0c-0.6,0-1.2-0.1-1.2,0.2 c0,0.6,3,0.2,4,0.2c1,0,1.3,0.2,1.3,0.5c0,0.4-1,0.5-1.6,0.5c0.6,0.1,0.8,0.1,1.1,0.1c0.2,0,0.2,0.1,0.2,0.1c0,0.2,0.2,0.1,0.3,0 c0,0.1,0,0.2-0.1,0.3c0,0,0,0,0,0c0,0,0,0,0,0l0,0.1c0,0.1,0,0.1,0.1,0.1c0,0.1-0.1,0.1-0.2,0.1l0,0l0,0c0.1,0,0.1,0.1,0.1,0.1 c0,0.2-0.2,0.2-0.2,0.3c0,0.1,0.2,0.1,0.1,0.3c0,0,0,0.1-0.1,0.1c0,0,0.1,0.1,0.1,0.1c-0.1,0.1-0.2,0-0.3-0.1c0,0-0.1,0-0.1,0 c-0.1,0-0.1-0.2,0-0.3c0,0,0,0,0,0c-0.1,0.1-0.1,0.3-0.2,0.3c0,0,0,0-0.1,0c0,0.1,0,0.1,0,0.2c-0.1,0-0.2-0.1-0.1-0.2 c0,0-0.1,0-0.1,0c-0.1-0.1,0-0.2,0.1-0.3c0,0,0,0,0,0c-0.1,0.1-0.3,0.1-0.3-0.1c0,0,0,0,0-0.1c-0.1,0-0.2,0.1-0.2,0.1 c0-0.1,0.1-0.2,0.2-0.3c0,0,0.1-0.1,0.1-0.1c0.1,0,0.3,0.1,0.4,0c0-0.1,0-0.1,0-0.4c0-0.1,0-0.1-0.1-0.1c-0.1,0-0.3-0.1-0.5,0.1 c-0.2,0.1-0.3,0.2-0.8,0.2c-0.2,0-0.4-0.1-0.6-0.2c0.1,0.2,0,0.3,0.1,0.3c0.2,0.1,0.2,0.4,0.2,0.5c0,0.1-0.3,0.1-0.5,0 c0,0-0.1,0-0.1,0c-0.2,0,0,0.2-0.2,0.3c-0.1,0-0.2,0-0.2-0.1c0,0,0,0-0.1,0c0,0-0.1,0-0.1,0c0,0,0,0,0,0c0,0.1,0,0.1,0,0.1 c0,0,0,0-0.1,0c0,0.1,0.1,0.1,0.2,0.1c-0.2,0.1-0.4,0-0.3-0.1c0,0,0-0.1,0-0.1c0,0,0-0.1,0-0.1c0,0,0,0,0,0c0,0,0,0,0,0 c0,0,0,0.1,0,0l0,0c0,0,0,0-0.1,0c0,0.1,0,0.1,0.1,0.1c-0.2,0.1-0.3,0-0.2-0.1c0,0-0.1-0.1-0.1-0.1c-0.1-0.3,0.3-0.1,0.3-0.3 c0,0,0,0,0,0c0,0-0.1,0-0.1,0c-0.1,0-0.1-0.1-0.1-0.1c0,0,0,0,0-0.1c-0.1,0-0.2,0.1-0.2,0.1c0-0.1,0.1-0.3,0.3-0.3 c0,0,0.1-0.1,0.1-0.1c0.3-0.1,0.3,0.5,0.6,0.3c0,0,0.2-0.1,0.3-0.1c0,0,0,0,0,0c-0.1-0.1-0.2-0.1-0.3-0.1c-0.2,0-0.2-0.3-0.1-0.5 C51.2,49,51.2,49,51.1,49c-0.9-0.1-1.1,0.1-1.3,0.2l-0.1,0.1c-0.2,0.2-0.4,0.3-1.1,0.2c-0.1,0-0.1,0.3-0.4,0.2c0,0,0-0.1,0-0.1 c0,0-0.1,0-0.2,0c0,0.1-0.3,0.3-0.5,0.3c-0.1,0.1-0.2,0.1-0.3,0.1c0.1,0,0.1-0.1,0.1-0.1c0,0,0,0,0,0c-0.3,0.2-0.8,0-0.8,0.4 c-0.1-0.1,0-0.3-0.1-0.3c0,0-0.1,0.1-0.1,0.1c0,0,0-0.1,0-0.2c0,0,0,0,0,0c-0.2,0-0.3,0-0.3,0c0,0,0,0,0,0c0,0,0-0.1-0.1-0.1 c0,0.2-0.2,0.3-0.3,0.3c0.1-0.1,0.1-0.2,0.1-0.3c0,0.1-0.1,0.1-0.1,0.1c0-0.1,0-0.1-0.1-0.2c0,0,0,0,0,0c0,0.1-0.1,0.2-0.2,0.2 c-0.2,0-0.2-0.1-0.2-0.2c0,0,0,0,0,0c-0.1,0.1,0,0.2-0.2,0.3c0,0,0,0-0.1,0c0,0.1,0,0.2,0.1,0.3c-0.1,0-0.3-0.1-0.2-0.3c0,0,0,0,0,0 c0,0-0.1,0-0.1-0.1c-0.2-0.1,0-0.2,0.1-0.3c0,0,0,0,0,0c-0.3,0.2-0.4,0.1-0.4-0.1c0,0,0-0.1,0-0.1c-0.1,0-0.1,0.1-0.2,0.1 c-0.1-0.2,0.1-0.3,0.2-0.3c0,0,0,0,0,0c0,0,0.1,0,0.1,0c0.1-0.1,0.2,0,0.3,0.1c0.1,0,0.1,0,0.2,0c0,0,0,0,0,0 c-0.3-0.1-0.3-0.2-0.3-0.3c0,0,0-0.1,0-0.1C44.5,49,44.5,49,44.4,49c0.1-0.1,0.2,0,0.3,0c0,0,0.1,0,0.1,0c0,0,0.1,0,0.1,0.1 c0.1,0.1,0,0.2,0.1,0.2c0.1,0.2,0.6,0,0.8-0.1c0.1-0.1,0.8,0,0.8,0c0,0-0.1-0.2-0.1-0.4c0,0-0.1-0.1-0.1-0.1c0,0.1-0.2,0.1-0.2,0.1 c-0.4-0.2-0.6-0.6-0.7-0.6c0,0-0.1,0.1,0,0.1c-0.1,0-0.1-0.1-0.1-0.2c0,0,0,0,0,0c0,0-0.1,0-0.1,0.1c0,0-0.1,0-0.1-0.1c0,0,0,0,0,0 c-0.3,0.2-0.6-0.1-0.4-0.4c0,0.3,0.4,0.3,0.4,0.1c0,0,0,0,0,0c-0.2,0-0.2-0.2-0.1-0.3c0,0,0,0,0,0c0,0,0,0-0.1,0c0,0,0,0-0.1,0 c-0.1,0.1-0.1,0.1-0.1,0c0,0,0,0-0.1-0.1c0,0,0,0,0,0c-0.1,0,0,0.1,0,0.1c-0.1-0.1-0.1-0.2,0-0.3c0,0,0-0.1,0-0.1 c0-0.1,0.1-0.2,0.3-0.1c0,0,0,0,0,0c0,0,0,0,0-0.1c0,0,0,0,0,0c-0.1,0-0.2-0.1-0.2-0.2c0,0,0-0.1,0-0.1c0,0-0.1,0-0.1-0.1 c0.2-0.1,0.3,0,0.3,0.1c0,0,0,0,0,0c0,0,0.1,0,0.1,0c0.1,0,0.2,0.2,0.2,0.3c0,0,0,0,0,0c0,0,0-0.1,0-0.1c0,0,0,0,0,0 c-0.1-0.1,0-0.1,0-0.2c0,0,0-0.1,0.1-0.1C45.2,46.5,45.2,46.5,45.1,46.4z M56.6,35.7v15.5h12.9c0-2-0.4-4-1.1-5.8 c-0.7-1.9-1.7-3.6-2.9-5c-1.2-1.4-2.7-2.6-4.3-3.4C59.8,36.2,58.2,35.7,56.6,35.7z M55.8,35.7c-1.7,0-3.4,0.4-5,1.2 c-1.6,0.8-3,1.9-4.3,3.4c-1.2,1.5-2.2,3.2-2.9,5c-0.7,1.8-1,3.8-1.1,5.8h13.2V35.7z M73.3,51.9c0.1,0,0.3,0,0.4,0c0,0.1,0,0.2,0,0.2 c0,0.2-0.1,0.2-0.2,0.2c-0.1,0-0.1,0-0.1,0c0,0-0.1-0.1-0.1-0.2L73.3,51.9z M70.6,50.6l0,1.3c0,0,0.3,0,0.6,0l0.3,0 c0.3,0,0.5,0,0.6,0v0.2c0,0.5,0.1,0.9,0.4,1.2c0.2,0.2,0.6,0.4,0.9,0.4c0.4,0,0.7-0.1,1-0.4c0.3-0.3,0.4-0.6,0.4-1.1l0-1.5 L70.6,50.6z M60,53.3L60,53.3C59.9,53.3,59.9,53.4,60,53.3c-0.1,0.1,0,0.1,0,0.1c0,0,0,0.1-0.1,0.1c0.1,0,0.1,0.1,0.1,0.2 c0,0.1-0.1,0.1-0.1,0.1c0,0-0.1,0.1-0.1,0.1c0,0.1-0.1,0.2,0.1,0.2c0.1,0.1,0.2,0,0.2-0.1c0-0.1,0-0.1,0-0.2c0-0.1-0.1-0.1,0-0.2 c0-0.1,0.1,0,0.2,0c0-0.1,0-0.1,0-0.1c0.1,0,0.1,0.1,0.1,0.1c0,0,0,0,0,0l0-0.1c0,0,0-0.1-0.1-0.1L60,53.3C60,53.3,60,53.3,60,53.3 L60,53.3z M57.9,52.4c0.1,0,0.2,0.1,0.3,0.2c0,0,0,0.1,0.1,0.2c0,0.2-0.1,0.3-0.1,0.5c0,0.2,0,0.3,0.2,0.4c0.3,0.2,0.4,0.4,0.5,0.4 c0.1,0,0.1,0,0.2,0c0,0,0.1,0,0.2,0l0.2,0.1c0-0.1,0-0.2,0-0.3c0,0-0.1-0.1-0.2-0.1c0.1,0,0.2-0.2,0.2-0.4c0,0-0.1,0-0.1-0.1 c0.1,0,0.2-0.3,0.3-0.3c0-0.2,0-0.2,0-0.4c0.1,0,0.2,0,0.2,0.1c0-0.1,0.1-0.1,0.2-0.1c0,0,0.1,0,0.2,0c0.1,0,0.1,0,0.3,0.1 c0.1,0.1,0.2,0.2,0.3,0.2c0,0,0.1,0.2,0.1,0.2c0,0.1,0.1,0.1,0.1,0.2c0.1,0,0.2,0,0.2,0.1c0,0.1-0.1,0.2-0.2,0.3 c0.1,0.2-0.2,0.5-0.2,0.7c1.3-0.4,4.5,0,5.3,0c0.5,0,1.3-0.1,1.3-0.3c0-0.2-0.2-0.2-1-0.2c-0.8,0-4.3,0.6-4.3-0.4 c0-0.6,1.1-0.4,2.1-0.4c0,0,0-0.1,0.1-0.1c0.5-0.3,1.7,0.2,2.2-0.1c0,0.1-0.6,0.3-1.2,0.3c1,0.2,1.6-0.4,2.6-0.1 c-0.8-0.2-2.2,0.7-3.5,0.4c-0.1,0-0.2-0.1-0.2-0.1c-0.1,0-0.2,0-0.3,0l-0.3,0c-0.6,0-1.2-0.1-1.2,0.2c0,0.3,1,0.3,2,0.3l0.4,0 c0.6,0,1.3-0.1,1.6-0.1c1,0,1.3,0.2,1.3,0.5c0,0.4-0.9,0.5-1.6,0.5c-0.1,0,0,0,0,0c0.6,0.1,0.8,0.1,1.1,0.1c0.2,0,0.2,0.1,0.2,0.1 c0,0.2,0.2,0.1,0.3,0c0,0.1,0,0.2-0.1,0.3c0,0,0,0,0,0c0,0.1-0.1,0.2,0.1,0.2c0,0.1-0.1,0.1-0.2,0.1c0,0,0,0,0,0 c0.1,0,0.1,0.1,0.1,0.1c0,0.2-0.2,0.2-0.3,0.3c0,0.1,0.2,0.1,0.1,0.3c0,0,0,0.1-0.1,0.1c0,0,0.1,0.1,0.1,0.1c-0.1,0.1-0.2,0-0.3-0.1 c0,0-0.1,0-0.1,0c-0.1,0-0.1-0.2,0-0.3c0,0,0,0,0,0C67,56,67,56.2,66.9,56.2h-0.1c-0.1,0.1,0,0.1,0,0.2c-0.1,0-0.1-0.1-0.1-0.2 c0,0-0.1,0-0.1,0c-0.1-0.1,0-0.2,0.1-0.3c0,0,0,0,0,0c-0.1,0.1-0.3,0.1-0.3-0.1v0c-0.1,0-0.2,0.1-0.2,0.1c0-0.1,0.1-0.2,0.3-0.3 c0,0,0.1-0.1,0.1-0.1c0.1,0,0.3,0.1,0.4,0c0.1-0.1,0-0.1,0.1-0.4c0-0.1,0-0.1-0.1-0.1c-0.1,0-0.3-0.1-0.6,0.1 c-0.2,0.1-0.4,0.2-0.8,0.2c-0.2,0-0.4-0.1-0.6-0.2c0.1,0.2,0,0.3,0.1,0.3c0.2,0.1,0.2,0.4,0.2,0.5c0,0.1-0.3,0.1-0.5,0 c0,0-0.1,0-0.1,0c-0.2,0,0,0.2-0.2,0.3c-0.1,0-0.2,0-0.2-0.1c0,0,0,0-0.1,0c0,0-0.1,0-0.1,0c0,0,0,0,0,0c0,0.1,0,0.1,0,0.1 c0,0,0,0-0.1,0c0,0.1,0.1,0.1,0.2,0.1c-0.2,0.1-0.4,0-0.3-0.1c0,0,0-0.1,0-0.1c0,0,0,0,0-0.1c0,0,0,0,0,0c0,0,0,0,0,0 c0,0,0,0.1,0,0.1c0,0,0,0-0.1,0c0,0.1,0,0.1,0.1,0.1c-0.2,0.1-0.3,0-0.2-0.1c0,0-0.1-0.1-0.1-0.1c-0.1-0.3,0.3-0.1,0.3-0.3 c0,0,0,0,0,0c0,0-0.1,0-0.1,0c-0.1,0-0.1-0.1-0.1-0.1l0,0c0,0,0,0,0-0.1c-0.1,0-0.2,0.1-0.2,0.1c0-0.1,0.1-0.3,0.3-0.3 c0,0,0.1-0.1,0.1-0.1c0.3-0.1,0.3,0.5,0.6,0.3c0,0,0.2-0.1,0.3-0.1c0,0,0,0,0,0c-0.1-0.1-0.2-0.1-0.3-0.1c-0.2,0-0.2-0.4-0.1-0.6 C64,54.9,63.9,55,63.8,55c-1.9-0.2-1,0.7-2.6,0.5c-0.1,0-0.1,0.2-0.4,0.2c-0.1,0-0.3,0-0.3,0.1c0,0.2-0.4,0.4-0.5,0.3 c0.1,0,0.1-0.1,0.1-0.1c0,0,0,0,0,0c-0.3,0.2-0.5,0-0.5,0.4c-0.1-0.1-0.1-0.3-0.1-0.3c0,0-0.1,0.1-0.1,0.1c0,0,0-0.1,0-0.2 c0,0,0,0,0,0c-0.2,0-0.3,0-0.3,0c0,0,0,0,0,0c0,0,0-0.1-0.1-0.1c0,0.2-0.2,0.3-0.3,0.3c0.1-0.1,0.1-0.2,0.1-0.3 c0,0.1-0.1,0.1-0.1,0.1c0-0.1,0-0.1-0.1-0.2c0,0,0,0,0,0c0,0.1-0.1,0.2-0.2,0.2c-0.2,0-0.2-0.1-0.2-0.2c0,0,0,0,0,0 c-0.1,0.1,0,0.2-0.2,0.3c0,0,0,0-0.1,0c0,0.1,0.1,0.2,0.1,0.3c-0.1,0-0.3-0.1-0.2-0.3c0,0,0,0,0,0c0,0-0.1,0-0.1-0.1 c-0.2-0.1,0-0.2,0.1-0.3c0,0,0,0,0,0c-0.3,0.2-0.4,0.1-0.4-0.1c0,0,0-0.1,0-0.1c-0.1,0-0.1,0.1-0.2,0.1c-0.1-0.1,0.1-0.3,0.2-0.3 c0,0,0,0,0,0c0,0,0.1,0,0.1,0c0.1-0.1,0.1,0,0.3,0.1c0.1,0,0.1,0,0.2,0c0,0,0,0,0,0c-0.3-0.1-0.3-0.2-0.3-0.3c0,0,0-0.1,0-0.1 C57.7,55,57.6,55,57.5,55c0.1-0.1,0.2,0,0.3,0c0,0,0.1,0,0.1,0c0,0,0.1,0.1,0.1,0.1c0.1,0.1,0,0.2,0.1,0.2c0.1,0.2,0.6,0,0.8-0.1 c0.1-0.1,0.5,0,0.6,0c0,0-0.2-0.2-0.2-0.4l-0.1,0c-0.1,0-0.1-0.1-0.1-0.2c-0.1,0-0.3,0.1-0.2,0.1c-0.4-0.2-0.6-0.6-0.6-0.6 c0,0-0.1,0.1,0,0.1c-0.1,0-0.1-0.1-0.1-0.2c0,0,0,0,0,0c0,0-0.1,0-0.1,0.1c0,0-0.1-0.1-0.1-0.1c0,0,0,0,0,0 c-0.3,0.2-0.6-0.1-0.4-0.4c0,0.3,0.4,0.3,0.4,0.1c0,0,0,0,0,0c-0.2,0-0.2-0.2-0.1-0.3c0,0,0,0,0,0c0,0,0,0-0.1,0c0,0,0,0,0,0 c-0.1,0.1-0.1,0.1-0.1,0c0,0,0,0-0.1-0.1c0,0,0,0,0,0c-0.1,0,0,0.1,0,0.1c-0.1-0.1-0.1-0.2-0.1-0.3c0,0,0,0,0,0l0-0.1 c0-0.1,0.1-0.2,0.3-0.1c0,0,0,0,0,0c0,0,0,0,0,0c0,0,0,0,0,0c-0.1,0-0.2-0.1-0.2-0.2c0,0,0-0.1,0-0.1c0,0-0.1-0.1-0.1-0.1 c0.2-0.1,0.3,0,0.3,0.1c0,0,0,0,0,0c0,0,0.1,0,0.1,0c0.1,0,0.2,0.2,0.2,0.3c0,0,0,0,0,0c0,0,0-0.1,0-0.1c0,0,0,0,0,0 c-0.1-0.1,0-0.1,0-0.2c0,0,0-0.1,0.1-0.1C58,52.5,57.9,52.4,57.9,52.4z M99.7,54.2c-0.5-0.4-1.3-0.1-1.8,0.5 c-0.5,0.7-0.4,1.5,0.1,1.9c0.5,0.4,1.3,0.1,1.8-0.5C100.2,55.4,100.2,54.6,99.7,54.2z M52.8,53.5c-0.4,0-1.2,0.4-2.2,0.8l2.1,3 l0.3-2.1l-0.1,0c-0.3,0-0.5-0.2-0.5-0.5c0-0.3,0.3-0.4,0.5-0.4l0.2,0C53.2,53.6,53.1,53.5,52.8,53.5z M70.4,53.8l-0.5,2.8l1.2,0.2 l0.3-1.5l0.3,0.1l-0.3,1.4l1.2,0.2l0.3-1.4l0.3,0.1L73,57.1l1.2,0.2l0.5-2.7L70.4,53.8z M59.9,57.2L59.9,57.2 C59.9,57.3,59.8,57.3,59.9,57.2c-0.1,0.1,0,0.1,0,0.1c0,0,0,0.1-0.1,0.1c0.1,0,0.1,0.1,0.1,0.2c0,0.1-0.1,0.1-0.1,0.1 c0,0-0.1,0.1-0.1,0.1c0,0.1,0,0.2,0.1,0.2c0.1,0.1,0.2,0,0.2-0.1c0-0.1,0-0.1,0-0.1c0-0.1-0.1-0.1,0-0.1c0-0.1,0.1,0,0.2,0 c0-0.1,0-0.1,0-0.1c0.1,0,0,0.1,0.1,0.1c0,0,0-0.1,0-0.1c0,0,0-0.1-0.1-0.1L59.9,57.2C60,57.2,59.9,57.2,59.9,57.2L59.9,57.2z M50.1,54.5c-0.3,0.1-0.7,0.2-1.1,0.3l3.3,4.8c0.1-0.5,0.2-1,0.2-1.5L50.1,54.5z M40.5,58.2c0.5-0.2,1.1,0,1.3,0.6 c0.1,0.1,0.1,0.3,0.1,0.4v0c0,0.4-0.2,0.7-0.6,0.9c-0.3,0.1-0.5,0.1-0.7,0c-0.2-0.1-0.4-0.3-0.5-0.6C39.7,58.9,40,58.4,40.5,58.2z M60.2,56.5c0.1,0,0.1,0,0.3,0.1c0.1,0.1,0.2,0.1,0.3,0.2c0,0,0.1,0.2,0.1,0.2c0,0.1,0.1,0.1,0.1,0.2c0.1,0,0.2,0,0.2,0.1 c0,0.1-0.1,0.2-0.2,0.2c0.1,0.1-0.1,0.4-0.2,0.6c1.2-0.2,3.3,0.1,4,0.1c0.4,0,1.3-0.1,1.3-0.3c0-0.2-0.1-0.2-0.7-0.2 c-0.8,0-3.3,0.5-3.3-0.4c0-0.5,0.7-0.4,1.2-0.4c0,0,0,0,0.1-0.1c0.5-0.3,1.7,0.1,2.1-0.1c0,0.1-0.6,0.2-1.1,0.3 c0.9,0.2,1.5-0.4,2.5,0c-0.7-0.2-2.1,0.7-3.3,0.3c-0.1,0-0.2-0.1-0.2-0.2c-0.3,0-0.9-0.1-0.9,0.2c0,0.5,2.1,0.2,3,0.2 c0.9,0,1,0.2,1,0.4c0,0.4-1.1,0.5-1.6,0.5c-0.1,0,0,0,0,0c0.5,0,0.9,0.1,1.2,0.1c0.2,0,0.2,0.1,0.2,0.1c0,0.2,0.2,0.1,0.3,0 c0,0.1-0.1,0.2-0.1,0.2c0,0,0,0,0,0c0,0,0,0,0,0l0,0.1c0,0.1,0,0.1,0.1,0.1c-0.1,0.1-0.1,0.1-0.2,0.1c0,0,0,0,0,0 c0.1,0,0.1,0.1,0.1,0.1c-0.1,0.2-0.3,0.2-0.3,0.3c0,0.1,0.2,0.1,0,0.3c0,0-0.1,0.1-0.1,0.1c0,0,0.1,0.1,0.1,0.1 c-0.1,0.1-0.2,0-0.2-0.1c0,0-0.1,0-0.1,0c-0.1,0,0-0.2,0-0.3c0,0,0,0,0,0c-0.1,0.1-0.1,0.3-0.2,0.2c0,0,0,0-0.1,0 c-0.1,0.1-0.1,0.1-0.1,0.2c-0.1,0-0.1-0.1-0.1-0.2c0,0-0.1,0-0.1,0c-0.1-0.1,0.1-0.2,0.2-0.3c0,0,0,0,0,0c-0.1,0.1-0.3,0.1-0.2-0.1 c0,0,0,0,0,0c-0.1,0-0.2,0.1-0.2,0.1c0-0.1,0.2-0.2,0.3-0.2c0,0,0.1-0.1,0.1-0.1c0.1,0,0.3,0.1,0.4,0c0.1-0.1,0-0.1,0.1-0.4 c0-0.1,0-0.1,0-0.1c-0.1,0-0.3-0.1-0.5,0.1c-0.2,0.1-0.4,0.2-0.8,0.2c-0.2,0-0.4-0.1-0.6-0.1c0.1,0.1,0,0.3,0.1,0.3 c0.2,0.1,0.2,0.4,0.1,0.5c0,0.1-0.3,0.1-0.4,0c0,0-0.1,0-0.1,0c-0.2,0,0,0.2-0.2,0.3c-0.1,0-0.2,0-0.2-0.1c0,0,0,0-0.1,0 c0,0-0.1,0-0.1,0c0,0,0,0,0,0c0,0,0,0.1,0,0.1c0,0,0,0-0.1,0c0,0.1,0.1,0.1,0.2,0.1c-0.2,0.1-0.3,0-0.3-0.1c0,0,0-0.1,0-0.1 c0,0,0,0,0-0.1c0,0,0,0,0,0c0,0,0,0,0,0c0,0,0,0.1,0,0.1c0,0,0,0-0.1,0c0,0,0,0.1,0.1,0.1c-0.2,0.1-0.2,0-0.2-0.1 c0,0-0.1-0.1-0.1-0.1c-0.1-0.3,0.3-0.1,0.3-0.2c0,0,0,0,0,0c0,0-0.1,0-0.1,0c-0.1,0-0.1,0-0.1-0.1c0,0,0,0,0-0.1 c-0.1,0-0.2,0.1-0.2,0.1c0-0.1,0.1-0.3,0.3-0.3c0,0,0.1-0.1,0.1-0.1c0.3-0.1,0.3,0.5,0.6,0.3c0,0,0.2-0.1,0.3-0.1c0,0,0,0,0,0 c-0.1-0.1-0.2-0.1-0.3-0.1c-0.2,0-0.2-0.4-0.1-0.6c-0.1,0.1-0.2,0.2-0.3,0.1c-1.3-0.2-0.7,0.5-1.5,0.5c-0.1,0-0.1,0.2-0.3,0.2 c0.1,0,0.1-0.1,0-0.1c0,0,0,0.1-0.1,0.1c-0.1,0.2-0.4,0.6-0.6,0.4c0.1,0,0.1-0.1,0.1-0.1c0,0,0,0,0,0c-0.3,0.2-0.6,0.1-0.6,0.5 c-0.1-0.1,0-0.3-0.1-0.3c0,0-0.1,0.1-0.1,0.1c0,0,0-0.1,0-0.2c0,0,0,0,0,0c-0.2,0-0.3,0-0.3,0c0,0,0,0,0,0c0,0,0-0.1-0.1-0.1 c0,0.2-0.2,0.3-0.3,0.3c0.1-0.1,0.1-0.2,0.1-0.3c0,0.1-0.1,0.1-0.1,0.1c0-0.1,0-0.1-0.1-0.2c0,0,0,0,0,0c0,0.1-0.1,0.2-0.2,0.2 c-0.2,0-0.2-0.1-0.2-0.2c0,0,0,0,0,0c-0.1,0.1,0,0.2-0.1,0.3c0,0-0.1,0-0.1,0c0,0.1,0,0.2,0.1,0.2c-0.1,0-0.3-0.1-0.2-0.3 c0,0,0,0,0,0c0,0-0.1,0-0.1-0.1c-0.1-0.1,0-0.2,0.1-0.3c0,0,0,0,0,0c-0.3,0.2-0.3,0.1-0.4-0.1c0,0,0,0,0,0l0-0.1 c-0.1,0-0.1,0.1-0.2,0.1c-0.1-0.1,0.1-0.3,0.2-0.3c0,0,0,0,0,0c0,0,0.1,0,0.1,0c0.1-0.1,0.1,0,0.3,0.1c0.1,0,0.1,0,0.2,0 c0,0,0,0,0,0c-0.3-0.1-0.3-0.2-0.3-0.2c0,0,0-0.1,0-0.1c0-0.1-0.1-0.1-0.2-0.1c0.1-0.1,0.2,0,0.3,0c0,0,0.1,0,0.1,0 c0,0,0.1,0,0.1,0.1c0.1,0.1,0,0.2,0.1,0.2c0.1,0.2,0.6,0,0.7-0.1c0.1-0.1,0.5,0,0.5,0c0,0,0-0.3,0-0.5l-0.2,0 c-0.1,0-0.1-0.1-0.1-0.1c-0.3-0.2-0.3-0.1-0.4-0.1c0,0,0,0.1,0,0.1c-0.1,0-0.1-0.1-0.1-0.2c0,0,0,0,0,0c0,0-0.1,0-0.1,0.1 c0,0-0.1,0-0.1-0.1c0,0,0,0,0,0c-0.3,0.2-0.6-0.1-0.4-0.4c0,0.3,0.3,0.3,0.3,0.1c0,0,0,0,0,0c-0.2,0-0.2-0.2-0.1-0.3c0,0,0,0,0,0 c0,0,0,0-0.1,0c0,0,0,0-0.1,0c-0.1,0-0.1,0.1-0.1,0c0,0,0,0-0.1,0c0,0,0,0,0,0c0,0,0,0.1,0,0.1c-0.1-0.1-0.1-0.2,0-0.3 c0,0,0-0.1,0-0.1c0-0.1,0.1-0.2,0.3-0.1c0,0,0,0,0,0c0,0,0,0,0-0.1c0,0,0,0,0,0c-0.1,0-0.2-0.1-0.2-0.2c0,0,0-0.1,0-0.1 c0,0-0.1,0-0.1,0c0.1-0.1,0.3-0.1,0.3,0.1c0,0,0,0,0,0c0,0,0.1,0,0.1,0c0.1,0,0.2,0.2,0.2,0.3c0,0,0,0,0,0c0,0,0-0.1,0-0.1 c0,0,0,0,0,0c-0.1-0.1,0-0.1,0-0.2c0,0,0-0.1,0.1-0.1c0-0.1-0.1-0.1-0.1-0.2c0.1,0,0.2,0.1,0.3,0.2c0,0,0,0.1,0,0.1 c0,0.2-0.1,0.3-0.1,0.5c0,0.2,0,0.3,0.2,0.4C58.8,58,58.9,58,59,58c0,0,0,0,0.1,0l0.1,0c0-0.1,0-0.2,0.1-0.4c0,0-0.1-0.1-0.1-0.1 c0.1,0,0.1-0.2,0.2-0.4c0,0-0.1,0-0.1-0.1c0.1,0,0.2-0.3,0.3-0.3c0-0.1,0-0.2,0-0.3c0.1,0,0.2,0,0.2,0.1c0-0.1,0.1-0.1,0.2-0.1 C60,56.5,60.2,56.5,60.2,56.5z M41.7,57c-0.5-0.2-1.1-0.2-1.7,0c-0.6,0.2-1,0.6-1.2,1.1c-0.2,0.5-0.2,1.2,0,1.8 c0.2,0.6,0.7,1.1,1.2,1.3c0.5,0.2,1.1,0.2,1.7,0c0.6-0.2,1-0.6,1.2-1.2c0.1-0.3,0.2-0.6,0.2-0.9c0-0.3-0.1-0.6-0.2-0.9 C42.7,57.7,42.3,57.3,41.7,57z M48.4,54.9c-0.2,0-0.5,0.1-0.7,0.1c-0.1,0-0.3,0-0.4,0l4.8,6.8c0.1-0.4,0.1-0.9,0.2-1.4L48.4,54.9z M59.7,61.2C59.6,61.2,59.6,61.2,59.7,61.2c-0.1,0-0.2,0-0.1,0.1C59.5,61.3,59.6,61.2,59.7,61.2c0,0.1,0,0.1-0.1,0.2 c0.1,0,0.1,0.1,0.1,0.1c0,0.1-0.1,0.1-0.1,0.1c0,0-0.1,0-0.1,0.1c0,0.1,0,0.2,0.1,0.2c0.1,0.1,0.2,0,0.2-0.1c0-0.1,0-0.1,0-0.1 c0,0-0.1-0.1,0-0.1c0-0.1,0.1,0,0.2,0c0-0.1,0-0.1,0-0.1c0.1,0,0,0.1,0.1,0.1c0,0,0-0.1,0-0.1c0,0,0-0.1-0.1-0.1L59.7,61.2z M96.2,59.6c-0.5-0.4-1.3-0.1-1.8,0.5c-0.5,0.7-0.4,1.5,0.1,1.9c0.5,0.4,1.3,0.1,1.8-0.5C96.8,60.8,96.8,60,96.2,59.6z M69.8,56.9 l-0.5,1.1l2,0.8l-2.6,0.9l-0.4,0.9l4,1.6l0.5-1.1l-2-0.8l2.7-0.9l0.4-0.9L69.8,56.9z M46.6,55c-0.3,3.9,2.4,6.5,5.2,7.5L46.6,55z M59.8,60.5c0.1,0,0.1,0,0.3,0.1c0.1,0.1,0.2,0.1,0.3,0.2c0,0,0.1,0.2,0.1,0.2c0,0,0.1,0.1,0.1,0.2c0.1,0,0.2,0,0.2,0.1 c0,0.1-0.1,0.2-0.2,0.2c0.1,0.2-0.2,0.5-0.3,0.7v0c1.3-0.3,2.4,0.1,3,0.1c0.8,0,1.4-0.2,1.4-0.4c0-0.1-0.6-0.1-1.3,0l-0.3,0l-0.2,0 c-0.9,0-1.3-0.1-1.3-0.4c0-0.3,0.3-0.5,0.7-0.6c0,0,0.1-0.1,0.1-0.1c0.5-0.3,1.7,0.1,2.1-0.1c0,0.1-0.6,0.3-1.1,0.3 c0.9,0.2,1.5-0.4,2.5-0.1c-0.7-0.2-2.1,0.7-3.3,0.4c-0.1,0-0.2-0.1-0.2-0.2c-0.2,0.1-0.4,0.2-0.4,0.4c0,0.2,0.7,0.2,1.5,0.2l0.3,0 c0.1,0,0.2,0,0.3,0c0.7-0.1,1,0,1,0.3c0,0.3-0.6,0.6-1.7,0.6c0,0-0.2,0-0.3,0c0,0.2,0.4,0.3,0.5,0.5c0.1,0.1,0.1,0.2-0.2,0.3 c-0.1,0.1,0.1,0.2,0.2,0.2c-0.1,0.1-0.2,0.1-0.2,0.1c0,0,0,0,0,0c0,0.1-0.2,0.1-0.1,0.2c-0.1,0-0.1,0-0.1,0l0,0c0,0,0,0,0,0 c0,0.1,0,0.1,0,0.2c-0.2,0.1-0.3-0.1-0.3,0c-0.1,0.1,0.1,0.2-0.1,0.3c0,0-0.1,0-0.1,0c0,0,0,0.1,0,0.1c-0.1,0-0.2-0.2-0.1-0.2 c0,0,0-0.1,0-0.1c0-0.1,0.1-0.2,0.2-0.2c0,0,0,0,0,0c-0.1,0-0.2,0.1-0.3,0.1c0,0,0,0,0-0.1c-0.1,0-0.1,0.1-0.1,0.1 c0-0.1,0-0.2,0-0.2c0,0,0-0.1,0-0.1c0-0.1,0.2-0.1,0.3-0.1c0,0,0,0,0,0c0,0,0,0,0,0c0,0-0.1-0.1,0-0.1c0,0,0,0,0,0 c-0.1,0-0.2,0-0.2,0c0-0.1,0.2-0.1,0.3-0.1c0,0,0.1,0,0.1,0c0.1,0,0.1,0.1,0.2,0.2l0,0c0.1,0,0.1-0.1,0.3-0.2c0.1,0,0-0.1,0-0.1 c0,0-0.3-0.2-0.5-0.2c-0.1,0.2-0.8,0.1-1,0c0.5,0.3,0.2,0.9,0.3,0.9c0.2,0.1,0.2,0.4,0.1,0.4c0,0.1-0.2,0-0.3,0c0,0-0.1,0-0.1,0 c-0.2,0,0,0.2-0.2,0.3c-0.1,0-0.2,0-0.2-0.1c0,0,0,0-0.1,0c0,0-0.1,0-0.1,0c0,0,0,0,0,0c0,0,0,0.1,0,0.1c0,0,0,0-0.1,0 c0,0.1,0.1,0.1,0.2,0.1c-0.2,0.1-0.3,0-0.3-0.1c0,0,0-0.1,0-0.1c0,0,0-0.1,0-0.1c0,0,0,0,0,0c0,0,0,0,0,0c0,0,0,0,0,0c0,0,0,0-0.1,0 c0,0,0,0.1,0.1,0.1c-0.1,0-0.2,0-0.2-0.1c0,0,0-0.1,0-0.1c-0.1-0.3,0.3-0.1,0.3-0.2c0,0,0,0,0,0c0,0-0.1,0-0.1,0 c-0.1,0-0.1,0-0.1-0.1c0,0,0,0,0-0.1c-0.1,0-0.1,0.1-0.2,0.1c0-0.1,0.1-0.3,0.2-0.3c0,0,0.1-0.1,0.1-0.1c0.3-0.1,0.3,0.5,0.6,0.3 c0,0,0.1,0,0.2-0.1c0,0,0,0,0,0c-0.1-0.1-0.3-0.3-0.3-0.4c0-0.1,0-0.4,0.1-0.5c-0.3,0-0.5,0.3-0.8,0.3c0,0-0.1,0-0.1,0 c-0.1,0.5-0.2,0.6-0.2,0.7c0,0.1-0.3,0.3-0.4,0.3c0.1,0,0.1-0.1,0.1-0.1c0,0,0,0,0,0c-0.2,0.2-0.5,0-0.5,0.4c-0.1-0.1,0-0.2-0.1-0.2 c0,0-0.1,0.1-0.1,0.1c0,0,0-0.1,0-0.2c0,0,0,0,0,0c-0.1,0-0.3,0-0.3,0c0,0,0,0,0,0c0,0,0-0.1-0.1-0.1c0,0.2-0.2,0.2-0.3,0.3 c0.1-0.1,0.1-0.2,0.1-0.3c0,0.1-0.1,0.1-0.1,0.1c0-0.1,0-0.1-0.1-0.2c0,0,0,0,0,0c0,0.1-0.1,0.2-0.2,0.2c-0.2,0-0.2-0.1-0.2-0.2 c0,0,0,0,0,0c-0.1,0.1,0,0.2-0.1,0.3c0,0,0,0-0.1,0c0,0.1,0,0.2,0.1,0.2c-0.1,0-0.3-0.1-0.2-0.3c0,0,0,0,0,0c0,0-0.1,0-0.1,0 c-0.1-0.1,0-0.2,0.1-0.3c0,0,0,0,0,0c-0.3,0.2-0.3,0.1-0.4-0.1c0,0,0,0,0-0.1c-0.1,0-0.1,0.1-0.1,0.1c-0.1-0.1,0.1-0.3,0.2-0.3 c0,0,0,0,0,0c0,0,0.1,0,0.1,0c0.1-0.1,0.1,0,0.2,0.1c0.1,0,0.1,0,0.1,0c0,0,0,0,0,0c-0.3-0.1-0.3-0.2-0.2-0.2c0,0,0-0.1,0-0.1 c0-0.1-0.1-0.1-0.2-0.1c0.1-0.1,0.2,0,0.3,0c0,0,0.1,0,0.1,0c0,0,0.1,0,0.1,0.1c0.1,0.1,0,0.1,0.1,0.2c0.1,0.1,0.2,0.1,0.3,0.1 c0,0,0.1,0,0.1,0c0.2,0,0.3-0.1,0.3-0.1c0.1-0.1,0.5,0,0.6,0c0,0-0.1-0.1-0.1-0.3c-0.2,0-0.4-0.1-0.4-0.3c-0.4-0.2-0.3-0.6-0.4-0.6 c0,0,0,0.1,0,0.1c-0.1,0-0.1-0.1-0.1-0.2c0,0,0,0,0,0c0,0-0.1,0-0.1,0.1c0,0-0.1,0-0.1-0.1c0,0,0,0,0,0c-0.2,0.1-0.6-0.1-0.4-0.4 c0,0.3,0.3,0.3,0.3,0c0,0,0,0,0,0c-0.2,0-0.2-0.2-0.1-0.3c0,0,0,0,0,0c0,0,0,0-0.1,0c0,0,0,0,0,0c-0.1,0-0.1,0.1-0.1,0 c0,0,0,0-0.1-0.1c0,0,0,0,0,0c0,0,0,0.1,0,0.1c-0.1-0.1-0.1-0.2,0-0.2c0,0,0-0.1,0-0.1c0-0.1,0.1-0.2,0.3-0.1c0,0,0,0,0,0 c0,0,0,0,0-0.1c0,0,0,0,0,0c-0.1,0-0.2,0-0.2-0.2l0,0c0,0,0-0.1,0-0.1c0,0-0.1,0-0.1,0c0.1-0.1,0.3,0,0.3,0.1c0,0,0,0,0,0 c0,0,0.1,0,0.1,0c0.1,0,0.2,0.2,0.2,0.3c0,0,0,0,0,0c0,0,0-0.1,0-0.1c0,0,0,0,0,0c0-0.1,0-0.1,0-0.2c0,0,0-0.1,0.1-0.1 c0-0.1-0.1-0.1-0.1-0.2c0.1,0,0.2,0.1,0.2,0.2c0,0,0,0.1,0,0.1c0,0.1-0.1,0.3-0.1,0.4c0,0.2,0,0.3,0.2,0.4c0.2,0.1,0.5,0.6,0.7,0.8 c0-0.2,0-0.5,0.1-0.8c0,0-0.1-0.1-0.1-0.1c0.1,0,0.1-0.2,0.2-0.4c0,0-0.1,0-0.1-0.1c0.1,0,0.2-0.2,0.3-0.2c0-0.1,0-0.2,0-0.3 c0.1,0,0.1,0,0.2,0.1c0-0.1,0.1-0.1,0.2-0.1C59.7,60.5,59.8,60.5,59.8,60.5z M52.8,52.7c0.9,0,1.4,0.6,1.4,1.5l0,0.2l0.2,0 c0.2,0,0.5,0.2,0.4,0.5c0,0.3-0.3,0.4-0.5,0.4l-0.2,0l-0.2,7.5l0.2,0l-0.1,0.7c-0.1,0.2-0.3,0.3-0.5,0.3c0.1,1.2-0.9,1.4-1.3,1.4 c-0.5,0-1-0.3-1-0.9c0-0.5,0.4-0.7,0.7-0.7c0.3,0,0.5,0.1,0.4,0.4c-0.1,0.2-0.6,0-0.6,0.3c0,0.2,0.2,0.3,0.4,0.3 c0.4,0,0.6-0.2,0.6-0.6c0-0.7-0.7-0.8-1.4-0.6c-4.3-1.3-6.6-5.5-6.3-8.7c-0.1,0-0.2-0.1-0.3-0.1l0.3-0.7C45.1,54,44.9,54,44.8,54 c-0.3,0-0.5-0.2-0.5-0.5c0-0.3,0.2-0.5,0.5-0.5c0.3,0,0.5,0.2,0.5,0.5c0,0,0,0,0,0.1l0.3-0.6c0.7,0.4,1.8,0.8,2.7,0.8 C50.4,53.8,52,52.7,52.8,52.7z M68.5,61.2c-0.5,0.2-1,0.5-1.2,0.8c-0.2,0.3-0.3,0.7-0.2,1c0.1,0.3,0.3,0.6,0.6,0.8 c0.7,0.5,1.4,0.1,1.8-0.1c0.2-0.1,0.4-0.2,0.5-0.2c0.1,0.1,0,0.4-1.3,0.8l1.2,0.8c0.3-0.1,0.8-0.4,1-0.7c0.2-0.3,0.3-0.6,0.3-0.9 c0-0.1,0-0.2,0-0.2c-0.1-0.3-0.3-0.6-0.6-0.8c-0.6-0.4-1.2-0.1-1.7,0.1c-0.2,0.1-0.6,0.3-0.7,0.2c0,0,0,0,0,0c0,0,0-0.1,0.1-0.2 c0.1-0.2,0.6-0.5,1.2-0.6l0.2,0L68.5,61.2z M43.7,60.6L40.2,63l0.7,1c0,0,1.1-0.8,1.3-0.9c0,0,0.1,0.2,0.3,0.4l0.2,0.3 c0.1,0.2,0.2,0.3,0.3,0.4c-0.1,0-0.3,0.2-0.5,0.4l-0.2,0.2c-0.3,0.2-0.5,0.4-0.5,0.4l0.7,1l3.5-2.5l-0.7-1c0,0-0.2,0.2-0.5,0.4 l-0.2,0.2c-0.2,0.2-0.5,0.3-0.5,0.4c0,0-0.1-0.2-0.3-0.4l-0.2-0.3c-0.1-0.2-0.2-0.3-0.3-0.4c0.1-0.1,1.3-0.9,1.3-0.9L43.7,60.6z M66.3,63.5l-2,2l0.9,0.8l1.1-1.1l0.3,0.2l-1,1l0.9,0.8l1-1l0.2,0.2l-1.1,1.1l0.9,0.9l1.9-2L66.3,63.5z M94.1,66.6 c-0.3,0-0.5,0.2-0.7,0.3c-0.3,0.3-0.5,0.7-0.5,1.2c0,0.5,0.2,1,0.4,1.2c0.1,0.1,0.4,0.3,0.7,0.3l0.1,0c0.2,0,0.4-0.2,0.5-0.3 c0.3-0.3,0.5-0.7,0.5-1.2C95.2,67.3,94.7,66.6,94.1,66.6z M58.5,18.3c-0.9,0.6-1.7,1.6-1.9,2.5c0.7-0.1,1.7-0.6,2.3-1.4 c-0.2,1.4-0.2,2.3,0,3.6c-0.5-0.7-1.6-1.3-2.4-1.4c0.2,2.2,2.2,2.5,3.3,2.5c1.2,0,2.2-0.4,2.3-1.2c0.1-0.7-0.4-1-0.7-1 c-0.4,0-0.8,0.4-0.9,1.2c-0.4-0.6-0.8-2.8,0.4-2.9c0.9-0.1,1.4,1.1,1.6,2.3c0.3-1,1.2-2.3,2.1-2c1.2,0.3,0.4,2.6-0.4,3 c0.2-0.4,0.1-1.3-0.4-1.3c-0.6-0.1-0.9,0.5-0.9,0.9c0,0.7,0.9,1.2,1.8,1.5c1.7,0.4,2.9-0.5,3.3-1.1c-0.8-0.3-1.4-0.2-2.2,0.2 c0.4-0.8,0.8-2.1,1-2.9c0.2,0.9,0.8,1.5,1.5,2c0.2-0.7,0.1-1.9-0.6-3l2.7,1.1c-1.3,1.4-2.7,4.6-3.6,7.2c0.5,0.5,0.8,1,0.8,1.8 c0,1.2-0.8,2-1.6,2.5c1.5,1,2.8,2.1,4,3.5c1,1.1,1.9,2.3,2.6,3.6c-0.1,0.1-0.2,0.3-0.4,0.5c-0.1,0.2-0.2,0.3-0.3,0.4l-0.2-0.3 L68,41.8l1.3,2.6l1.1-0.5c0,0-0.6-1.3-0.7-1.4l1.6-0.8c0,0.4,0.1,0.8,0.4,1.2c0.3,0.5,0.7,1.2,1.1,2c-0.2,0.3-0.7,0.9-1,1.2 c-0.1,0.1-0.1,0.2-0.2,0.2l-1.8,0.5l0.3,1.2l1.8-0.5c0,0,0.3,0.1,0.3,0.1c0.5,0.2,1.8,0.6,2.3,0.8c0.3,0.7,0.8,1.1,1.2,1.4 c0,0.5,0,1.1,0,1.6c0,3-0.5,5.9-1.5,8.7c-1,2.7-2.4,5.1-4.2,7.1c-0.9,1-1.8,1.9-2.8,2.7c-0.3,0.2-1.4,0.4-6-0.7 c-0.6-0.1-0.7-0.3-1.3-0.4c0.1-0.6,0.2-1,0.4-1.4c0.2-0.5,0.5-1.1,0.9-1.3c1.6-0.8,3-1.9,4.3-3.4c1.2-1.4,2.2-3.1,2.9-5 c0.7-1.8,1-3.8,1.1-5.8H56.6v14.4c0.3,0,0.6,0,1,0.1l0.4,0c0.9,0.1,1.7,0.2,1.7,0.2c-0.5,0.6-0.7,1-0.9,2c-1.5-0.5-3-1-4.5-1.6 c0.5-0.5,1-0.6,1.6-0.6V51.9H42.6c0,0.4,0,0.9,0.1,1.3c-0.8-1.5,0.1-1.4-0.8-2.6c-0.6-0.8-0.9-1.3-0.9-2.5c0-0.6-0.4-1.4-1-2.2 c0.3-0.1,0.7-0.3,0.9-0.5c0.2-0.2,0.5-0.4,0.6-0.3c0,0,0,0.1,0,0.2c-0.1,0.2-0.6,0.7-1.1,1l1.2,0.5c0.4-0.3,0.8-0.7,1-1.1 c0.1-0.4,0.1-0.7,0-1.1c-0.1-0.3-0.4-0.6-0.7-0.7c-0.8-0.3-1.4,0.2-1.8,0.5c-0.1,0.1-0.4,0.3-0.5,0.3c-0.1-0.1,0.5-0.7,1.1-1.1 l-1.3-0.5c-0.3,0.2-0.7,0.6-0.8,0.9c0,0,0,0.1,0,0.1c-0.3-0.3-0.6-0.6-0.9-0.9c0-0.1,0.1-0.3,0.1-0.4c1-2.7,2.4-5,4.2-7.1 c1.2-1.4,2.5-2.5,4-3.5c-0.8-0.5-1.6-1.2-1.6-2.5c0-0.7,0.3-1.3,0.8-1.7c-0.8-2.7-2.3-5.9-3.6-7.3l2.6-1.1c-0.7,1.1-0.7,2.3-0.6,3 c0.7-0.5,1.3-1.1,1.5-2c0.1,0.8,0.6,2.1,1,2.9c-0.8-0.4-1.4-0.5-2.2-0.2c0.5,0.6,1.6,1.5,3.3,1.1c0.9-0.2,1.9-0.7,1.8-1.5 c0-0.4-0.3-1-0.9-0.9c-0.6,0.1-0.6,0.9-0.4,1.3c-0.8-0.4-1.5-2.7-0.4-3c0.9-0.3,1.8,1,2.1,2c0.2-1.2,0.7-2.3,1.6-2.3 c1.2,0.1,0.8,2.3,0.4,2.9c-0.1-0.8-0.5-1.2-0.9-1.2c-0.3,0-0.8,0.3-0.7,1c0.1,0.7,1.1,1.2,2.3,1.2c1.1,0,3.1-0.4,3.3-2.5 c-0.7,0.1-1.8,0.7-2.3,1.4c0.2-1.3,0.2-2.2,0-3.6c0.6,0.8,1.6,1.3,2.3,1.4c-0.2-0.9-1-1.9-1.9-2.5H58.5z M94.1,65.9 c0.5,0,1,0.3,1.3,0.7c0.3,0.4,0.5,1,0.5,1.6c0,0.7-0.3,1.3-0.7,1.7c-0.3,0.3-0.8,0.5-1.2,0.5c-0.4,0-0.9-0.2-1.2-0.5 c-0.4-0.4-0.6-1.1-0.6-1.7v-0.1c0-0.7,0.3-1.3,0.7-1.7C93.2,66,93.7,65.9,94.1,65.9z M110.1,66.4c-1.2,0-2.2,1-2.2,2.2 c0,1.2,1,2.2,2.2,2.2c1.2,0,2.2-1,2.2-2.2C112.2,67.3,111.3,66.4,110.1,66.4z M110.1,65.6c1.6,0,2.9,1.3,2.9,2.9 c0,1.6-1.3,2.9-2.9,2.9c-1.6,0-2.9-1.3-2.9-2.9C107.2,66.9,108.5,65.6,110.1,65.6z M52.2,69c-0.7,0-1.3,0.6-1.3,1.3 c0,0.7,0.6,1.3,1.3,1.3c0.7,0,1.3-0.6,1.3-1.3C53.5,69.6,52.9,69,52.2,69z M48.8,64.5c-1.1,0-2.4,1.3-2.7,1.6L46,66.2l-0.2,0 c-0.3-0.1-0.6-0.1-0.9-0.2c0.1,0.3,0.2,0.5,0.4,0.8l0.1,0.1l-0.1,0.1c-0.6,0.9-0.9,1.8-0.9,2.5c0,0.5,0.5,1.4,1.3,1.8 c0.5,0.3,1.1,0.2,1.6-0.1c-0.3-0.2-0.7-0.4-0.9-0.6l-0.1-0.1c-0.2-0.1-0.5-0.3-0.6-0.6c0-0.1,0-0.1,0-0.2c0-0.3,0.1-0.6,0.4-1.1 c0.1-0.1,0.1-0.2,0.2-0.2c0-0.1,0.1-0.1,0.1-0.2l0.1-0.2l0.2,0.1c0.4,0.3,0.9,0.4,1.2,0.3c0.1,0,0.2-0.1,0.3-0.2 c0.2-0.3,0.1-0.8-0.5-1.3l-0.2-0.2l0.3-0.4c0.2-0.2,0.4-0.5,0.7-0.7c0.5-0.4,1-0.4,1.6,0l0.3,0.2c0.2,0.1,0.4,0.3,0.5,0.4 c-0.1-0.4-0.2-0.8-0.5-1.1C49.9,64.7,49.4,64.5,48.8,64.5z M106.1,70.7c-0.4-0.1-0.9,0-1.3,0.3c-0.4,0.3-0.7,0.7-0.8,1.1 c0,0.2,0,0.5,0.1,0.7c0.3,0.5,1.2,0.6,1.9,0.1c0.4-0.3,0.7-0.7,0.8-1.1c0-0.2,0-0.5-0.1-0.7C106.5,70.8,106.3,70.7,106.1,70.7z M57.7,71c-0.6,0-1.2,0.5-1.2,1.2c0,0.6,0.5,1.2,1.2,1.2c0.6,0,1.1-0.5,1.1-1.2C58.9,71.5,58.4,71,57.7,71z M98,71.6 c-0.5-0.1-0.9,0-1.3,0.2c-0.2,0.1-0.4,0.3-0.4,0.6c-0.1,0.6,0.5,1.2,1.3,1.4c0.8,0.1,1.6-0.2,1.7-0.8c0,0,0-0.1,0-0.1 C99.3,72.3,98.8,71.7,98,71.6z M96.3,71.2c0.5-0.3,1.2-0.5,1.8-0.4c1.2,0.2,2.1,1.2,1.9,2.2c-0.1,0.5-0.4,0.9-0.9,1.2 c-0.5,0.3-1.1,0.3-1.6,0.2c-0.6-0.1-1.1-0.4-1.5-0.8c-0.4-0.4-0.5-0.9-0.4-1.5C95.7,71.9,95.9,71.5,96.3,71.2z M42.9,54.3 c0.2,1.1,0.5,2.3,0.8,3.3c0.7,1.9,1.7,3.6,2.9,5c0.4,0.5,0.9,1,1.4,1.4c0.3-0.1,0.6-0.2,0.9-0.2c0.7,0,1.4,0.3,1.9,0.9 c0.5,0.6,0.8,1.3,0.7,2l0,0c3.3,1.5,6.8,2.8,9.7,3.5c1.8,0.5,4,0.9,5.5,0.7c-0.1,0.1-0.1,0.1-0.2,0.2c-0.5,0.5-1.2,1-2,1.5 c-1.9,1.2-3.8,1.9-5.2,1.9c-1.7,0-3.8-0.3-6-1c-2-0.5-3.8-1.3-5.2-2c-0.8,0.6-1.6,0.7-2.4,0.3c-1-0.5-1.6-1.6-1.6-2.3 c0-0.1,0-0.3,0-0.4c-0.7-0.6-1.3-1.2-1.9-1.9c-1.8-2.1-3.2-4.5-4.2-7.1c-0.5-1.2-0.8-2.5-1.1-3.8c1.7,0.6,2.3,0.1,2.8-0.5 c0.2,0,0.2,0.3,0.2,0.5C41.6,56.4,42.7,55.3,42.9,54.3z M75.5,73.8c0.3,0.1,0.3,0.1,0.3,0.1c1,0.3,1.2,0.8,0.9,1.4 c-0.3,0.8-0.9,1-1.7,0.7c0,0-0.2,0-0.3-0.1C74.8,75.9,75.4,74,75.5,73.8z M80.4,75.9c0,0,0.3,0.2,0.4,0.2c0.1,0.1,0.2,0.2,0.2,0.3 c0,0,0,0.1,0,0.1c0,0.1-0.1,0.1-0.2,0.1c-0.1,0-0.2,0-0.3-0.1c0,0-0.2-0.1-0.3-0.2c0-0.1,0.1-0.2,0.2-0.3L80.4,75.9 C80.4,75.9,80.4,75.9,80.4,75.9z M74.6,72.3L73,76.8l1.6,0.4c1.3,0.3,2.7,0.2,3.4-1.6c0.6-1.6-0.4-2.6-1.6-2.9L74.6,72.3z M35.4,72.9L34,73.3l1.2,2.7c0.2,0.5,0.2,0.7-0.4,1c-0.5,0.2-0.8,0.1-1-0.5c0,0-1.1-2.6-1.1-2.6l-1.2,0.6l1.1,2.5 c0.5,1,1.3,1.6,2.7,1c1.5-0.6,1.6-1.6,1.1-2.7L35.4,72.9z M79.8,74.1l-2.4,4.1l1.2,0.6c0,0,0.7-1.3,0.9-1.5c0.2,0.1,0.2,0.3,0.2,0.8 l0.1,1.4c0.1,0.1,1.2,0.8,1.5,0.9c0,0-0.1-1.1-0.2-2.1c0-0.3,0-0.5-0.1-0.7c0.1,0,0.2,0,0.4,0c0.3-0.1,0.6-0.3,0.7-0.6 c0.3-0.5,0.3-0.9,0-1.3c-0.2-0.3-0.5-0.6-0.7-0.7L81.3,75C80.9,74.7,80.1,74.3,79.8,74.1z M83.9,78.7c0.3-0.1,0.6,0,0.9,0.2 c0.3,0.2,0.5,0.4,0.6,0.7c0.1,0.3,0,0.6-0.1,0.8c-0.2,0.3-0.4,0.5-0.7,0.5c-0.3,0.1-0.6,0-0.9-0.1c-0.3-0.2-0.5-0.4-0.6-0.7 c-0.1-0.3,0-0.6,0.1-0.8C83.4,78.9,83.6,78.7,83.9,78.7z M32.5,12.4c0.5,1.1,0.6,2.1,0.1,3.6c1.3,0.1,2,1.2,3.3,0.9 c-0.8,1-1.6,1-2.5,0.9l-0.3-0.1c-0.2,0-0.5-0.1-0.7-0.1c3.5,1.1,4.2,4.6,6.1,4.8c-2.1,1.6-3.5-1.3-5.3-1.2c4.7,2.4,4.7,5.2,6,5.3 c-1.5,1.3-2.6-0.4-4.5-0.9c3.7,2.5,4,4.5,3.7,6.1c0.8,0.8,1.1,1.9,1.1,3.1c0.8-0.5,1.6-0.9,2.5-1.1c-0.4,0.3-0.7,0.7-1,1.1 c-1.9,2.1-3.4,4.6-4.4,7.3c-0.8-0.8-2-1.9-2.4-2.4c-0.8-0.7-1.1-0.8-1.4-0.7c0.5,0.6,1.6,1.8,2.7,3l0.6,0.6c1.2,1.4,2.4,2.7,3,3.3 c1.2,1.4,1.1,2.4,1.2,3.4c0.2,1,1.2,1.8,1.1,2.5c-0.1,0.9,0.6,1.4,0.6,2.1c0,0.9-0.8,1.3-1.6,1.5c0.6-1.2,0.1-1.9-0.9-2.1 c0.2,2.3-1.6,2.7-2.3,2.3c0.7-0.1,1-1.2,0.6-2.2c-0.3,0.8-1.1,1.4-1.9,1.4c-0.7,0-1.3-0.5-1.5-1.1c0.8,0.6,1.5-0.1,1.5-0.5 c0-0.4-0.8-0.7-0.8-1.3c0-1.6,1.7-1.2,1.7-2.6c0-0.6-0.3-0.8-0.7-0.8c-0.4,0-0.9,0.2-1.1,1.1c-0.9-0.8,0-2.5-0.4-3.6 c0.1,1.8-1.2,1.7-1.6,2.4c-0.6-0.6,0.2-1.8-0.4-3.3c-0.2,1.7-0.8,1.4-1,2.4c-1.7-0.8-4.7-0.6-5.7,0.6c2.9,2.2,6.3,3.4,6.3,6.9 c0,2.7-4.1,3.7-4.1,5.4c0,1.7,4.3,5.7,6.5,5.7c0.7,0,1-0.9,1.6-0.9c0.6,0,1.1,0,1.6,0c0.5,0,1,0.5,0.9,1c1,0.1,2.3,1.7,1,2.9 c-0.2-0.7-0.9-1.7-2.2-1c0.5,1.2,0.1,2.3-1.4,2.7c0.5-0.7,0.5-1.7-0.3-1.7c-0.9,0-0.1,0.6-1.8,0.6c-1.6,0-1.5,0.1-2.1-0.9 c-0.7-0.9-1.1-1.3-1.5-1.2c-0.4,0.1-0.5,1.1,0.1,1.4c-3.5,0-2-3.6-3.8-4.5c0.1,1.1,0.1,2,0,2.5c-1.3-1-2.1-2.4-2.3-3.3 c-0.2-0.9-0.1-1.7-0.9-2.1c-0.3-0.1-0.6-0.4-0.5-0.9c0.1-0.4,0.3-0.3,0.9-0.5c0.7-0.3,1.7-1.1,1.7-2.9c0-1.4-0.3-3.3-2.6-4.7 c0.2,3,0.1,5.5-1.2,7.8c-1.7,2.9-4.6,4.7-6.3,5.4c-0.3,0.1-0.7,0.3-1,0.4l-0.3,0.1c-1.3,0.6-2.6,1.3-2.6,2.9c0,4.1,1.8,6.5,3.6,6.5 c1.2,0,0.9-1.3,2.6-1.3c0.7,0,1.6,0.3,1.7,0.8c0.9-0.2,1.9,0.4,1.9,1.2c0,0.9-0.4,1.4-1.1,1.5c0.6-1.1-0.8-1.4-1.3-1.2 c-0.4,0.3,0.1,0.7,0.1,1.4c0,0.7-0.2,1.3-1.4,1.7c0.3-0.4,0.3-1-0.5-1c-0.7,0-1,1.2-1.9,1.2c-1.5,0-1.9-0.7-3.4-0.4 c-1,0.2-1,0.8-0.6,1.1c-2.1,0.1-1.7-2.1-1.2-2.6c0.5-0.5,0.7-0.8,0.1-1.2c-0.6-0.4-1.6,0-1.8,1c-1.6-3,0.6-2.9-0.1-6.3 c-0.4,1.4-1.2,2.5-1.9,2.9c0.3-0.8-0.4-2.2-0.4-3.4c0-2.6,1.6-3.4,1.6-4.3c0-0.6-0.6-1.1,0-1.7c0.4-0.3,1.1,0.3,1.6,0.3 c2.1,0,3.6-2.7,3.9-5.6c0.4-3.5,1.8-6,3.2-8.6c0.1-0.4,0.1-0.8,0.2-1.3c-1.4,1.8-2.7,4.6-4.7,6.2c0.2,2.3-4.2,4.9-6.7,2.9 c0.8,0.1,2.4-0.3,2.9-1.6c-0.4,0-0.7-0.1-1.1-0.2c-1.5,0.9-4-0.2-3.9-1.9c0.6,0.7,1.4,0.9,2.1,0.6C4.3,55.4,4,54.4,4,53.3 c0-6.6,10.3-11.2,10.3-16.6c0-1.7-1.1-2.6-2.2-2.6c-0.6,0-1.3,0.2-2.1,0.6c0.5,0.5,0.8,1,0.8,1.7C10.8,42.6,1,42,0.2,46 c-0.2-2.7,1.3-3.6,2.9-4.6l0.4-0.2c1.4-0.8,2.7-1.6,2.9-3.5c-1.3,1.8-3.5,3.2-4.7,2.5c3.2,0.1,2.2-6.5,5.9-6.5 c0.4,0,0.8,0.1,1.2,0.3c1-0.8,2.2-1.3,3.2-1.3c1.5,0,3.8,1.1,3.8,4c0,6.4-10.3,10.6-10.3,16.6c0,2,1.2,3,2.8,3 c3.6,0,5.9-6.5,9.8-11.8c2.1-3.1,3.7-9.6,5.1-13.4c-1.4,1.6-1.8,4.5-3.8,4.7c1.2-1,0.4-4.2,1.1-6.6c0.3-0.9,0.4-1.7,0.2-2.6 c-0.6,0.6-0.8,1.8-1,3l-0.1,0.5c-0.3,1.7-0.7,3.3-1.9,3.6c0.8-1-0.1-2.7-0.1-4.2c0-2.9,1.5-3.3,1.6-6c-1.4,0.5-0.9,4.3-3.6,4.2 c1.9-1.9-0.1-3.9,2.1-6.1c-1.3-0.6-2.2-1.6-2.2-2.6c0.8-0.7,1.8-0.9,2.7-1c-0.4-0.6,0.1-1.3,0.7-1.8c0.2,0.2,0.5,0.8,0.8,0.6 c0.5-0.4,2.4-1.5,4-2.2c1.6-0.6,3.7-1.2,4.4-1.3c0.4-0.1,0.2-0.6,0.2-1c0.8-0.1,1.7,0,1.8,0.8C30.7,12.8,31.6,12.5,32.5,12.4z M79.2,3.4c0.1-0.1,0.3,0,0.6,0.3l11.4,11.2c0.3-0.8,0.5-1.7,0.2-2.7c1.4,0.7,2.6,2,2.8,3.3c3.5-0.1,4.4,2.1,5.5,1.4 c0.2,0.5-0.4,1.1-1.4,1.3c4,1,3,4,5.3,4.3c-0.4,0.4-0.9,0.6-1.7,0.3c2.5,3.7,0,6.1,1.9,7.8c-0.7,0.2-1.8-0.4-2.5-1.6 c0.8,3.1-0.4,4.7,0.2,6c-0.9,0.2-1.5-0.5-1.8-1.7c-0.2,0.7-0.4,1.3-0.6,1.8l0.9,0.8l-0.4,0.4l0,0l-0.1,0.1c-1.5,1.6-2.2,2.4-2.6,2.8 l-0.3,0.3c0,0-0.3-0.2-0.3-0.2c-1,1.2-1.8,2.3-1.8,3.4c0,1.3,1.7,3.7,3.6,6.2c-0.1-0.3-0.1-0.5-0.1-0.8c0,0,0,0,0-0.1 c0-0.5,0.2-0.9,0.5-1.2c0.3-0.3,0.7-0.5,1.2-0.4c0.6,0,1.2,0.3,1.7,0.8c0.5,0.5,0.7,1.1,0.7,1.7c0,0,0,0,0,0.1 c0,0.5-0.2,0.9-0.5,1.2c-0.3,0.3-0.7,0.5-1.2,0.4c-0.4,0-0.9-0.2-1.3-0.5c1.3,1.8,2.6,3.4,3.2,4.7c1.2,2.6,2.4,4.2,3.9,4.2 c1.6,0,3.1-1.2,3.1-3.1c0-6.6-8.7-7.3-8.7-14.8c0-3.5,3-5.2,4.8-5.2c1.2,0,2,0.3,2.7,1.1c0.2-0.1,0.4-0.1,0.7-0.1 c4.1,0,1.5,5.5,4.7,5.9c-1.4,0.7-3.3-0.3-4.3-2.9l0,0l0,0.3c0.4,4.6,6.2,3.7,5.6,7.1l0,0.2c-0.1-2.5-8.5-2.2-8.7-7.4 c0-1.1,0.3-1.9,0.8-2.5c-0.4-0.3-0.8-0.4-1.3-0.4c-1.5,0-3.6,1.6-3.6,4c0,3.2,2.1,5,4.2,6.9l0.5,0.4c2,1.8,4,3.8,4,7.2 c0,1.5-0.6,2.8-1.6,3.7c0.7,0.1,1.8-0.3,2.3-0.9c-0.7,2.8-3.6,2.8-4.5,1.7c-0.1,0-0.3,0-0.4,0c-0.2,0-0.5,0-0.7-0.1 c0.6,1.1,1.4,2.2,2.7,2.1c-2.5,2-5.6-0.7-5.2-3.5c-0.8-0.8-1.3-1.9-1.6-2.7c-0.3-0.6-0.7-0.3-0.7,0.4c0.1,2.2-1.7,4.4-1.7,6 c0,1.6,1.7,3.2,2.2,3.2c0.6,0,1-0.6,1.4-0.5c0.3,0.2,0.3,0.6,0.3,1.4l0,0.4c-0.1,0.8,0.1,2.7,0.2,4.8c0.2-0.5,0.5-1.1,1.1-1.4 c0.6-0.4,1.2-0.5,1.8-0.4c0.5,0.1,0.8,0.3,1.1,0.7c0.2,0.3,0.3,0.6,0.3,0.9c0,0.1,0,0.2,0,0.4c-0.1,0.6-0.5,1.2-1.1,1.5 c-0.5,0.3-1.1,0.5-1.6,0.4c-0.6,0-1-0.3-1.3-0.7c0-0.1-0.1-0.2-0.1-0.2c0,0.6,0.1,1.3,0.1,1.8c0,1.5-0.4,2.2-1,2.5 c0-0.2-0.5-0.7-1.1-0.7c-0.4,0-0.8,0.3-0.8,0.7c0,0.7,0.8,0.6,0.8,1.6c0,1-2.4,2.4-3.8,2.1c0.2-0.5,0.5-2.2,1-3.3 c-0.4,0.3-0.9,1-1.2,2c-0.4,1.3-1,1.2-1.5,0.9c0.5-0.5,1.6-3.1,2.8-3.9c1.2-0.8,1.7-1.1,2-3.1c0.3-1.9,0-3.1-0.1-4.8 c-0.1-2.3-1-1.8-1.7-1.8c-1.5,0-7.3-3.7-7.3-7.5c0-0.4,0-0.8,0.1-1.2c-2.6-0.1-4.1,0.7-4.1,3.1c0,0.8,0.1,1.6,0.7,2.1 c0.5,0.5,0.8,0.9-0.1,1.3c-0.5,0.2-2.4,1-4.4,1.8l-0.5,0.2c-2.1,0.9-4.1,1.7-4.1,1.7c-1,0.4-1.2,0-1.6-0.5c-0.4-0.5-0.9-0.7-1.4-0.4 c-0.5,0.4,0.4,0.7,0.4,1.3c0,0.6-0.2,1.9-3.9,1.7l0.9-1.5c0.2-0.5,0.4-0.8,0.2-0.9c-0.2,0-0.3,0.2-0.5,0.5L73,69l-0.1,0.1l-1.1,1.4 c-0.5,0-1-0.1-1.1-0.1l0,0c1.4-1.4,2.2-2.1,2.9-2.9c0.8-0.8,1.7-1.1,3.3-1.4c1.9-0.3,8.2-1.1,8.2-3.2c0-2.3-2.6-2.2-2.6-5.3 c0-2.7,1.2-5.7,8.6-5.5c-0.6-1.8-2.5-3.1-4.3-3.5c-3.7-0.9-4.8-3.5-5.1-6.2c-1-0.1-2.1-0.1-2.9-0.2c-2.3-0.1-3.5-0.8-4-0.4 c-0.2,0.2-0.4,0.5-0.1,1.1c0.3,0.6,1.1,1.9,1.7,2.9c0.5,0.1,1.2,0.1,1.3,0.7c0.1,0.6-0.4,0.7-0.5,1c-0.1,0.3,0.1,0.5,0.4,0.5 c0.3,0,0.5-0.3,0.4-0.5c0.3-0.2,1.1-0.2,1.9,0c0.6,0.6,1.5,1.7,1.8,2.7c-0.9-0.4-2.2-0.8-2.6-0.8c-0.5,0-0.4,0.2,0,0.3 c0.4,0.1,1.4,0.5,1.7,0.8l-0.1,1c-0.2-0.2-2-1.3-3.1-1.7c-1.1-0.4-1.7-0.6-2.3-2c-0.6-1.3-2.2-4.3-2.9-5.5c-0.5-0.8-0.3-1.1-0.1-1.4 c0.2-0.3,0.4-0.6,0.6-0.8c0.4-0.7,0.6-0.5,1.2-0.5c0.7,0.1,2.1,0.1,2.8-0.2c0.1-0.1,0.3-0.1,0.5-0.2c-1.5-1.7-3.4-4.1-3.6-4.4 c-0.3-0.4-0.7-0.6-1-0.6s-0.6,0-0.8,0.2c-0.2,0.1-0.4,0.3-0.7,0.6c-0.1-0.1-0.2-0.2-0.3-0.3c-0.3-0.4-0.7-0.7-1-1.1 c0.7-0.6,1.4-1.1,1.7-1.3c0.4-0.3,0.6-0.6,0.9-0.6c0.3,0,0.8,0,1,0c0.5,0,0.7,0.1,1,0.4c0.6,0.6,1.5,1.3,2.2,1.9 c0.1,0.1,0.2,0.1,0.2,0.2c0.1-0.1,0.1-0.1,0.2-0.2c0.3-0.3,0.7-0.4,1.1-0.4c0.4,0,0.8,0.2,1,0.5c0.4,0.4,0.6,1,0.5,1.6 c0,0.2-0.1,0.4-0.1,0.6c0.6,0.5,1.1,1,1.6,1.5c0.2-2.1,1.3-4.1,2.7-5.9L84,32.1c0,0,0.1-0.4,0.1-0.4c0.3-0.9,0.8-2.6,1-3.3 c0.1-0.3,0.1-0.4,0.1-0.4l0.2-0.5l2.3,0.9c0.1-0.1,0.1-0.1,0.2-0.2c2-1.9,6.8-3.2,6.8-5.9c0-0.7-0.2-1.5-0.9-2.1 c0.3,0.4,0.4,1,0.3,1.6C94,22.4,92.9,24,91,24c-1,0-1.8-1-2.2-1c-0.2,0-0.5,0.2-0.8,0.4c0.1,1.4-0.5,2.2-1.1,2.3 c0.2-0.6,0-1.6-0.1-1.5c-0.2,0.1-0.4,0.3-0.4,1.1c0,0.8-0.7,1.9-1.8,2c0.2-0.3,0.6-1.7,0.3-1.9c-0.2-0.2-0.6,0.4-0.9,0.4 s-0.5-0.3-0.6-0.6c0-0.3-0.6,0-0.7-0.3c-0.1-0.3,0.7-0.8,1.4-1.1c0.7-0.3,1.8-0.8,1.6-1.1c-0.3-0.7-2.4,0.4-3.3,1 c-1.4,0.8-0.8-0.3-1-0.8c-0.5-1.2-0.1-1.4,0.5-1.9c0.8-0.7,2.4-1.8,4.2-2.7c0-0.6,0.4-1.1,0.8-1.3c0.8-0.3,1.5-0.6,2.2-0.8L79.4,4 C79.2,3.7,79.1,3.5,79.2,3.4z M30,75.5l-2.6,1.7l2.5,4l2.7-1.7l-0.7-1.1l-1.6,1c-0.1-0.1-0.2-0.3-0.3-0.4l1.5-1L30.9,77l-1.5,1 c-0.1-0.1-0.2-0.3-0.2-0.4l1.5-1L30,75.5z M85.5,77.7c-0.6-0.3-1.3-0.5-1.9-0.3c-0.7,0.1-1.2,0.5-1.5,1.1c-0.4,0.6-0.4,1.2-0.3,1.8 c0.2,0.6,0.6,1.1,1.2,1.5c0.6,0.4,1.3,0.5,1.9,0.3c0.7-0.1,1.2-0.5,1.6-1.1c0.2-0.4,0.4-0.8,0.4-1.2c0-0.2,0-0.4-0.1-0.6 C86.5,78.6,86.1,78.1,85.5,77.7z M25.9,78.2L24.8,79l2.5,4l1.1-0.7L25.9,78.2z M21.9,82.2c0.6-0.3,1.2-0.5,1.7,0.3 c0.3,0.4,0.4,1-0.6,1.5c0,0-0.2,0.1-0.3,0.2c-0.1-0.2-1-1.7-1.1-1.8C21.8,82.3,21.9,82.2,21.9,82.2z M88.2,79.5l-2.5,4.1l1.2,0.7 l2.5-4.1L88.2,79.5z M56.1,76.9c-0.9,0.7-1.7,1.5-1.7,2.4c0,0.9,1.1,1.5,1.1,2.1c0,0.3-0.2,0.5-0.6,0.5c-0.8,0-0.4-2.2-2-2.2 c-0.9,0-1.4,0.8-1.4,1.4c0,0.3,0.1,0.8,0.4,1.2c0.2-0.4,0.5-0.6,0.8-0.6c1.2,0,0.7,3.2,2.2,3.2c0.6,0,1-0.4,1-0.9 c0-0.4-0.3-0.6-0.3-0.9c0-0.4,0.3-0.5,0.6-0.5c0.3,0,0.6,0.1,0.6,0.5c0,0.4-0.3,0.5-0.3,0.9c0,0.5,0.3,0.9,1,0.9 c1.4,0,1-3.2,2.2-3.2c0.3,0,0.6,0.2,0.8,0.6c0.2-0.5,0.4-0.9,0.4-1.2c0-0.6-0.4-1.4-1.4-1.4c-1.6,0-1.2,2.2-2,2.2 c-0.3,0-0.6-0.2-0.6-0.5c0-0.6,1.1-1.2,1.1-2.1C57.8,78.4,57,77.6,56.1,76.9z M70.8,77.8c-1.7,0.3-4,1.1-4,2.6 c0,1.8,5.8,2.5,5.2,4.9c1.8-0.9,2.9-2.1,2.9-3.2c0-1.1-1-1.9-2-2.6l-0.4-0.3C71.9,78.7,71.2,78.3,70.8,77.8z M41.3,77.8 c-0.4,0.5-1,1-1.7,1.5l-0.4,0.3c-1,0.8-2,1.6-2,2.6c0,1.1,1,2.3,2.9,3.2c-0.5-2.4,5.3-3.2,5.3-4.9C45.4,78.9,43.1,78.1,41.3,77.8z M89.8,80.5l-0.6,1.1c0.3,0.2,0.8,0.5,1.2,0.7c-0.5,0.7-1.8,2.9-1.8,2.9l1.2,0.5c0,0,0,0,0-0.1l0.1-0.2c0.2-0.4,0.6-1,0.9-1.5 l0.2-0.4c0.2-0.2,0.3-0.5,0.4-0.6c0.5,0.2,1.1,0.5,1.4,0.7l0.6-1.1C92.8,82.2,90.8,81.2,89.8,80.5z M22.7,80.7 c-0.4,0-0.9,0.1-1.4,0.4l-1.5,0.8l2.4,4l1.4-0.8c1.7-0.9,1.7-2.3,1.1-3.3c-0.2-0.4-0.5-0.7-0.9-0.9C23.5,80.8,23.1,80.7,22.7,80.7z M56.1,85.3c-0.4,0-0.8,0.4-0.8,0.8c0,0.4,0.4,0.8,0.8,0.8c0.4,0,0.8-0.4,0.8-0.8C56.9,85.6,56.5,85.3,56.1,85.3z M53.5,74.9 c1.8,0.5,3.6,0.8,5.2,0.8v3.4c0.2-0.1,0.4-0.1,0.6-0.1c1.2,0,2,1,2,2c0,0.9-0.5,1.8-1,2.3c-0.3-0.6-0.5-1-0.8-1 c-0.6,0-0.3,3.1-2.1,3.2c0.1,0.2,0.1,0.3,0.1,0.5c0,0.8-0.6,1.4-1.4,1.4c-0.8,0-1.4-0.6-1.4-1.4c0-0.2,0-0.3,0.1-0.5 c-1.8-0.1-1.5-3.2-2.1-3.2c-0.3,0-0.5,0.4-0.7,1c-0.5-0.5-1-1.4-1-2.3c0-1,0.8-2,2-2c0.2,0,0.4,0,0.6,0.1V74.9z M61.4,90.3 c0.4,0,0.6,0.1,0.9,0.3c0.2,0.2,0.4,0.5,0.4,0.8c0,0.3-0.1,0.6-0.4,0.9c-0.2,0.2-0.5,0.4-0.9,0.4c-0.4,0-0.7-0.1-0.9-0.3 c-0.2-0.2-0.3-0.5-0.3-0.8c0-0.4,0.1-0.6,0.3-0.9C60.7,90.4,61,90.3,61.4,90.3z M42.9,87.5l0.3,4.9c0.8,0.3,2,0.7,3.1,1l-0.1-1.3 c-0.6-0.1-1.3-0.3-1.8-0.5c0-0.1,0-0.5,0-0.5c0.3,0.1,1.6,0.4,1.6,0.4l0-1.3l-0.1,0c-0.3-0.1-1.4-0.4-1.6-0.4c0-0.1,0-0.4,0-0.4 c0.6,0.2,1.4,0.3,1.8,0.4l0-1.3C45.2,88.1,43.6,87.7,42.9,87.5z M69.3,87.5l-1.3,0.4c0,0-0.1,2.1-0.1,2.6l-2.1-2.1l-1,0.2l-0.3,5.1 l1.3-0.3c0,0,0-0.6,0.1-1.2l0-0.3c0-0.5,0.1-0.9,0.1-1.1c0.4,0.4,2,2.1,2,2.1l1-0.4L69.3,87.5z M46.5,88.3v1.3 c0.4,0.1,1,0.2,1.4,0.2v3.7l1.4,0.2v-3.7c0.4,0,1,0.1,1.4,0.2v-1.3C49.3,88.8,47.7,88.5,46.5,88.3z M61.6,88.9l-0.2,0 c-0.8,0-1.4,0.3-1.9,0.8c-0.5,0.5-0.8,1.1-0.8,1.8c0,0.7,0.3,1.3,0.8,1.8c0.5,0.5,1.1,0.7,1.9,0.7c0.8,0,1.4-0.3,1.9-0.8 c0.5-0.5,0.8-1.1,0.8-1.8c0-0.7-0.3-1.3-0.8-1.8c-0.5-0.5-1.2-0.7-1.9-0.7L61.6,88.9z M53.3,89.1V94l1.4,0v-2.6 c0.3,0.4,1.1,1.4,1.1,1.4s0.8-1,1.1-1.4v2.6l1.4,0v-4.9l-1.2,0c0,0-1.1,1.4-1.3,1.7c-0.2-0.2-1.4-1.7-1.4-1.7L53.3,89.1z M74.5,71.7 c3.2,0,7,2.5,10.9,5.1l0.8,0.5c4.9,3.3,9.9,6.5,14.1,5.3c-3.1,1.4-5.3,4.5-7.7,4.5c-3.1,0-6.4-2.3-9.8-4.6l-0.9-0.6 c-3.3-2.2-6.6-4.3-9.8-4.3c-0.1,0-0.2,0-0.3,0c1.6,2,3.8,2.4,3.8,4.4c0,1.4-1.2,2.2-2,4.1c-0.5,1.2-0.6,2-1.1,3.7 c-0.4,1.5-1.4,5.2-16.5,5.2c-13.6,0-15.8-3-16.3-4.7l0-0.1c0-0.1-0.1-0.3-0.1-0.4c-0.4-1.7-0.5-2.5-1.1-3.7c-0.8-1.9-2-2.7-2-4.1 c0-2,2.2-2.4,3.8-4.4c-0.1,0-0.2,0-0.3,0c-3.3,0-6.8,2.3-10.2,4.6l-0.9,0.6c-3.2,2.2-6.4,4.3-9.3,4.3c-2.5,0-4.6-3.1-7.7-4.5 c4.1,1.2,8.9-1.8,13.7-5l0.8-0.5c4.1-2.7,8.1-5.4,11.3-5.4c2,0,4.4,0.8,5.6,3.6c0.5,1.1,1,2,1.4,2.7l0.2,0.4c0.6,0.9,1,1.6,1,2.3 c0,1.2-1.1,2.1-2.8,3c-1.1,0.6-2.3,0.9-2.3,2c3.3,1.5,8.8,2.6,15.4,2.6c6.5,0,12-1.1,15.4-2.6c0.1-1.1-1.1-1.4-2.3-2 c-1.8-0.9-2.8-1.8-2.8-3c0-1.3,1.4-2.3,2.6-5.3C70.1,72.5,72.5,71.7,74.5,71.7z M61.7,40c0,0.1,0,0.2,0.2,0.2c0.1,0,0.2,0.1,0.2,0.2 c0.1,0,0.2,0,0.3,0c0.1,0.3,0,0.5,0,0.5c0.3,0.2,0.9,1.2,0.5,1.6c-0.1,0.5-0.3,1.1,0.2,1.7c0.3,0.3,0.6,0.9,1.1,1.3 c0,0,0.1,0.1,0.1,0.1c0.2,0.2,0.5,0.3,0.7,0.3c0.2,0,0.3-0.1,0.3-0.2c0-0.5-1-1-1.5-1.5c-0.6-0.6-0.5-1.4-0.3-1.8 c0.1,0.2,0.1,0.4,0.1,0.5c0.4,0.6,0.3,0.9,0.5,1.2c0.1,0.1,0.3,0.3,0.5,0.5c0.5,0.4,0.9,0.6,0.9,1.1c0,0.5-0.6,0.7-1.1,0.3 c-0.1-0.1-0.3-0.2-0.4-0.3c0,0,0,0,0,0c0,0.9,1.2,1.1,1.3,0.9c0.2-0.2,0.3-0.2,0.5,0.1c0.2,0.3,0,0.2-0.2,0.3c0.1,0,0.2,0.1,0.4,0 c-0.1,0.1-0.2,0.3-0.4,0.4v0c0,0,0.2,0.1,0.3,0.1c0,0.1-0.1,0.2-0.3,0.3c0,0,0,0,0,0c0,0.3-0.3,0.2-0.3,0.3c0,0.1,0.2,0.1,0.2,0.4 c0,0-0.1,0.1-0.1,0.1c0,0,0.1,0.1,0.1,0.1c-0.2,0.1-0.3,0-0.3-0.1c0,0-0.1,0-0.1,0c-0.1,0-0.1-0.2-0.1-0.3c0,0,0,0,0,0 c-0.1,0.1-0.1,0.3-0.2,0.3c0,0-0.1,0-0.1,0c-0.1,0.1,0,0.2,0,0.2c-0.1,0-0.2-0.1-0.2-0.2c0,0-0.1,0-0.1,0c-0.2-0.1,0-0.2,0.1-0.3 c0,0,0,0,0,0c-0.1,0.1-0.3,0.1-0.3-0.1c0,0,0,0,0-0.1c-0.1,0-0.2,0.1-0.2,0.1c0-0.1,0.1-0.3,0.3-0.3c0,0,0.1-0.1,0.2-0.1 c0.1,0,0.4,0.1,0.4,0c0.1-0.1,0-0.3,0-0.5c0-0.1,0-0.1-0.1-0.1c-0.1-0.1-0.3,0.4-0.7,0.2c-0.7-0.2-1.1-1-1.1-1.3 c-0.4-0.1-1,0.2-0.9,0.6c0.1,0.3,0.1,0.2,0.2,0.5c0,0.1,0.1,0.1-0.1,0.3c-0.1,0.1-0.4,0-0.4,0l-0.2,0.2c-0.3-0.2-0.4-0.1-0.3,0 c0,0-0.1-0.1-0.1-0.1c0,0,0,0.1-0.1,0.1c-0.1,0-0.2,0-0.3-0.1c0,0,0,0-0.1,0c0,0-0.1,0-0.1,0c0,0,0,0,0,0c0,0.1,0,0.1,0,0.1 c0,0,0,0-0.1,0c0,0.1,0.1,0.1,0.2,0.1c-0.2,0.1-0.4,0-0.3-0.1c0,0,0-0.1,0-0.1c0,0,0-0.1,0-0.1c0,0,0,0,0,0c0,0,0,0,0,0 c0,0,0,0.1,0,0.1c0,0-0.1,0-0.1,0c0,0.1,0.1,0.1,0.1,0.1c-0.2,0.1-0.3,0-0.3-0.2c0,0-0.1-0.1-0.1-0.1c-0.1-0.3,0.3-0.2,0.3-0.3 c0,0,0,0,0,0c0,0-0.1,0-0.1,0c-0.1,0-0.1-0.1-0.1-0.1c0,0,0,0,0-0.1c-0.1,0-0.2,0.1-0.2,0.1c0-0.1,0.1-0.3,0.3-0.3 c0,0,0.1-0.1,0.1-0.1c0.3-0.1,0.4,0.4,0.6,0.3c0,0,0,0,0,0c0.3-0.1,0.4,0,0.8,0c-0.3-0.2-0.6-0.7-0.5-1c0.1-0.3,0.6-0.6,0.9-0.7 c0.2,0,0.6,0,1,0.2c-0.3-0.5-1.5-0.5-1.5-1.4c-0.1,0.1-0.2,0.3-0.2,0.4c-0.1-0.1-0.2-0.1-0.4-0.1c-0.2,0.1-0.4,0.2-0.3,0.3 c-0.2-0.1-0.3,0-0.6,0.1c0,0.1,0,0.2-0.1,0.2c-0.2,0.1-0.3-0.1-0.3-0.1c0,0,0,0,0,0c-0.1,0.1,0.1,0.2,0,0.3c0,0,0,0-0.1,0 c0,0.1,0.1,0.2,0.2,0.2c-0.1,0-0.3,0-0.4-0.2c0,0,0,0,0,0c0,0-0.1,0-0.1,0c-0.2,0-0.1-0.2,0-0.4c0,0,0,0,0,0 c-0.2,0.3-0.3,0.2-0.4,0.1c0,0,0,0-0.1-0.1c-0.1,0.1-0.1,0.1-0.1,0.2c-0.1-0.1,0-0.3,0.1-0.4c0,0,0,0,0,0c0,0,0.1-0.1,0.1-0.1 c0.1-0.1,0.2,0,0.3,0c0.1,0,0.1,0,0.2-0.1c0,0,0,0,0,0c-0.3,0-0.4-0.1-0.4-0.1c0,0,0-0.1,0-0.1c-0.1-0.1-0.2,0-0.2,0 c0-0.1,0.2-0.2,0.3-0.1c0,0,0.1,0,0.1,0c0,0,0.1,0,0.2,0.1c0.1,0.1,0.1,0.1,0.2,0.2c0.2,0.1,0.4-0.1,0.6-0.2 c0.2-0.2,0.4-0.5,0.7-0.7c-0.6-0.3-0.9-0.9-1-1.1c0-0.1-0.1-0.2-0.1-0.2c0,0,0,0.1,0,0.1c-0.1,0-0.1-0.1-0.1-0.2c0,0,0,0,0,0 c0,0-0.1,0-0.1,0.1c0,0,0-0.2,0-0.3c-0.3,0.1-0.6-0.1-0.4-0.4c0,0.2,0.3,0.3,0.4,0.2c-0.2,0-0.2-0.2-0.1-0.3c0,0,0,0,0,0 c0,0,0,0-0.1,0c0,0,0,0-0.1,0c-0.1,0.1-0.1,0.1-0.1,0c0,0,0,0-0.1-0.1c0,0,0,0,0,0c-0.1,0,0,0.1,0,0.1c-0.2-0.1-0.1-0.2-0.1-0.3 c0,0,0-0.1,0-0.1c0-0.1,0.1-0.2,0.3-0.1c0,0,0,0,0,0c0,0,0,0,0-0.1c0,0,0,0,0,0c-0.1,0-0.2-0.1-0.2-0.2c0,0,0-0.1,0-0.1 c0,0-0.1,0-0.1-0.1c0.2-0.2,0.3,0,0.3,0.1c0,0,0,0,0,0c0,0,0.1,0,0.1,0c0.1,0,0.2,0.2,0.2,0.3c0,0,0,0,0,0c0,0,0-0.1,0-0.1 c0,0,0,0,0,0c-0.1-0.1,0-0.1,0-0.2c0,0,0-0.1,0.1-0.1c0-0.1-0.1-0.1-0.1-0.2c0.1,0,0.2,0.1,0.3,0.2c0,0,0,0.1,0,0.2 c0,0.2-0.1,0.3-0.1,0.5c0,0.2,0,0.3,0.2,0.4c0.2,0.1,0.3,0.2,0.4,0.4c0.2,0.2,0.4,0.4,0.4,0.5c0.1,0.1,0.2,0.2,0.3,0.3 c0.1-0.6,0.7-0.6,0.7-1.1c0-0.2-0.4-0.2-0.6-0.1c-0.2,0.1-0.4,0-0.4-0.1c0-0.1,0-0.2,0.1-0.2c0.2,0,0.2,0,0.4,0 c0.2,0,0.1-0.1,0.1-0.2c0-0.2-0.3-0.2-0.4-0.1l-0.1,0.2l-0.2-0.2c0,0,0,0-0.1,0c-0.1-0.1-0.1-0.2-0.1-0.3c0-0.1,0-0.3,0.2-0.2 c0.2,0,0.2,0,0.4-0.1c0.1-0.1,0.1-0.1,0.3-0.1C61.5,40.2,61.6,40.1,61.7,40z M58.7,37.9c0.1,0.1,0.1,0.3,0.1,0.5 c-0.2,0-0.3-0.1-0.4-0.2v4c0.2,0,0.4,0.1,0.4,0.2c0,0.1,0,0.3-0.2,0.5c0.2,0,0.4,0.1,0.6,0.3c-0.2,0.2-0.4,0.3-0.6,0.3 c0.2,0.2,0.2,0.3,0.2,0.5c0,0.1-0.2,0.2-0.4,0.2v4.7c0.1-0.1,0.3-0.2,0.5-0.2c0,0.2-0.1,0.4-0.2,0.5h2.9c0-0.2,0.1-0.3,0.2-0.4 c0.1-0.1,0.3,0,0.5,0.2c0-0.2,0.1-0.4,0.3-0.6c0.2,0.2,0.3,0.4,0.3,0.6c0.2-0.2,0.3-0.2,0.5-0.2c0.1,0,0.2,0.2,0.2,0.4h3.4 c-0.1-0.1-0.2-0.3-0.2-0.5c0.2,0,0.3,0,0.5,0.1c-0.3-2-1-3.9-2-5.6c-0.1,0-0.2,0-0.3,0c-0.1-0.1-0.2-0.2-0.2-0.5 c-0.2,0.1-0.4,0.2-0.6,0.1c0-0.3,0.2-0.4,0.3-0.6c-0.2,0-0.4-0.1-0.4-0.3c0-0.1,0-0.2,0.1-0.3C62.6,39.9,60.7,38.6,58.7,37.9z M58,37.4l0.2,0.1c1.2,0.3,2.3,0.8,3.3,1.5c1.1,0.7,2,1.6,2.9,2.7c1.7,2.2,2.8,4.9,3.1,7.7l0,0.2H58V37.4z M57.8,37.2v12.6h10 c-0.2-3-1.4-5.9-3.2-8.2C62.8,39.2,60.4,37.7,57.8,37.2z M58.2,36.6c0.2-0.1,0.5,0.1,0.6,0.5c2.3,0.7,4.4,2.2,6.1,4.3 c0.1,0.1,0.2,0.2,0.3,0.4c0.2-0.1,0.4-0.2,0.7-0.2c-0.1,0.3-0.2,0.5-0.4,0.6c1.4,2,2.3,4.3,2.6,6.7c0.4,0,0.5,0.4,0.4,0.6 c-0.1,0.1-0.2,0.2-0.3,0.2c0,0.1,0,0.1,0,0.1c0.1,0.1,0.1,0.3,0.1,0.5c-0.2,0-0.4-0.1-0.5-0.2h-0.1c0,0.2-0.1,0.3-0.2,0.4 c-0.2,0.1-0.5,0-0.6-0.4h-4c0,0.2-0.1,0.4-0.3,0.6c-0.2-0.2-0.3-0.4-0.3-0.6h-3.5c-0.1,0.3-0.4,0.4-0.6,0.3 c-0.1-0.1-0.2-0.2-0.2-0.3h-0.1c-0.1,0.1-0.3,0.1-0.5,0.1c0-0.2,0.1-0.4,0.1-0.5v-0.1c-0.2,0-0.3-0.1-0.4-0.2 c-0.1-0.2,0-0.5,0.4-0.6v-5.3c-0.2,0-0.4-0.1-0.6-0.3c0.2-0.2,0.4-0.3,0.6-0.3v-4.9c-0.3-0.1-0.4-0.4-0.3-0.6 c0.1-0.1,0.2-0.2,0.3-0.2v0c-0.1-0.2-0.2-0.4-0.2-0.6c0.2,0,0.4,0.1,0.5,0.2c0,0,0.1,0,0.1,0C58,36.7,58.1,36.6,58.2,36.6z" fill="#222222"></path>
</svg>
