<svg id="Layer_1" data-name="Layer 1" xmlns="http://www.w3.org/2000/svg" xmlns:xlink="http://www.w3.org/1999/xlink" viewBox="0 0 232 86"><defs><style>.cls-1,.cls-10,.cls-12,.cls-13,.cls-15,.cls-16,.cls-17,.cls-8,.cls-9{fill:none;}.cls-2{fill:#e0e0e0;}.cls-3{clip-path:url(#clip-path);}.cls-4{fill:#fff;}.cls-5{fill:#033e58;}.cls-6{fill:#a8bd3a;}.cls-7{fill:#999;}.cls-8,.cls-9{stroke:#666;}.cls-10,.cls-12,.cls-13,.cls-15,.cls-16,.cls-17,.cls-8,.cls-9{stroke-miterlimit:10;}.cls-8{stroke-width:2px;}.cls-10,.cls-16{stroke:#fff;}.cls-11{fill:#f5f6ff;}.cls-12{stroke:#ccc;}.cls-13,.cls-17{stroke:#4263c2;}.cls-14{clip-path:url(#clip-path-2);}.cls-15{stroke:#eee;}.cls-16,.cls-17{stroke-width:0.75px;}</style><clipPath id="clip-path"><rect class="cls-1" x="162" y="25" width="40" height="54"/></clipPath><clipPath id="clip-path-2"><rect class="cls-1" x="24" y="8" width="100" height="62"/></clipPath></defs><title>devices-01</title><path id="iPad_vertical_" data-name="iPad (vertical)" class="cls-2" d="M207.5,22a2.64,2.64,0,0,0-2.64-2.64H159.81A2.64,2.64,0,0,0,157.17,22V82a2.64,2.64,0,0,0,2.64,2.64h45.05A2.64,2.64,0,0,0,207.5,82ZM182.44,83.28a1.48,1.48,0,1,1,1.48-1.48A1.48,1.48,0,0,1,182.44,83.28Zm18.88-4.2H162.17v-54h39.15Z"/><g id="iPad_screen" data-name="iPad screen"><g class="cls-3"><rect class="cls-4" x="155.52" y="22.82" width="138.35" height="142.92"/><rect class="cls-5" x="162.69" y="39.42" width="38.31" height="8.3"/><rect class="cls-5" x="164.37" y="39.42" width="9.7" height="3.77"/><polygon class="cls-5" points="170.62 34.47 165.08 34.47 170.62 28.93 170.62 34.47"/><polygon class="cls-6" points="165.08 28.93 170.62 28.93 165.08 34.47 165.08 28.93"/><rect class="cls-5" x="172" y="33.08" width="11.07" height="1.38"/><rect class="cls-7" x="172" y="30.25" width="3.68" height="1.38"/><line class="cls-8" x1="164.87" y1="58.42" x2="197" y2="58.42"/><line class="cls-9" x1="164.87" y1="65.42" x2="197" y2="65.42"/><line class="cls-9" x1="164.87" y1="68.18" x2="180.56" y2="68.18"/><line class="cls-10" x1="165.18" y1="43.19" x2="176.24" y2="43.19"/><line class="cls-10" x1="181.78" y1="43.19" x2="187.31" y2="43.19"/><line class="cls-10" x1="177.63" y1="43.19" x2="180.4" y2="43.19"/><g id="panel"><rect class="cls-11" x="165.17" y="71.92" width="31.83" height="23.52"/><rect class="cls-5" x="165.17" y="71.92" width="1.38" height="23.52"/><line class="cls-9" x1="168.51" y1="76.87" x2="178.23" y2="76.87"/><line class="cls-12" x1="168.51" y1="82.4" x2="187.07" y2="82.4"/><line class="cls-12" x1="168.51" y1="85.17" x2="194.06" y2="85.17"/></g><line class="cls-13" x1="165.72" y1="53.28" x2="173.48" y2="53.28"/><path class="cls-7" d="M201,26V78H163V26h38m1-1H162V79h40V25Z"/></g></g><path id="iPhone_5S" data-name="iPhone 5S" class="cls-2" d="M230.44,53.22A2.27,2.27,0,0,0,228.17,51H216.8a2.27,2.27,0,0,0-2.27,2.27V82.36a2.27,2.27,0,0,0,2.27,2.27h11.38a2.27,2.27,0,0,0,2.27-2.27Zm-6.29.71a.36.36,0,0,1-.36.36h-2.43a.36.36,0,0,1-.36-.36v0a.36.36,0,0,1,.36-.36h2.43a.36.36,0,0,1,.36.36Zm-1.51,29.81a1.48,1.48,0,1,1,1.48-1.48A1.48,1.48,0,0,1,222.64,83.74ZM229,80H216V56h13Z"/><g id="Laptop"><path class="cls-2" d="M130.58,74.57V5a4.21,4.21,0,0,0-4.11-4H22.29a3.87,3.87,0,0,0-3.71,4V74.57ZM24.2,8H124V69.36H24.2Z"/><polygon class="cls-2" points="132.87 77.45 131.11 77.45 18.73 77.45 8.58 77.45 1.11 77.45 1.11 85 148.35 85 148.35 77.45 132.87 77.45"/><g class="cls-14"><rect class="cls-4" x="24" y="8" width="100.41" height="103.73"/><rect class="cls-5" x="24.12" y="20.05" width="100.17" height="6.02"/><rect class="cls-5" x="30.43" y="20.05" width="7.04" height="2.74"/><polygon class="cls-5" points="34.96 16.45 30.94 16.45 34.96 12.44 34.96 16.45"/><polygon class="cls-6" points="30.94 12.44 34.96 12.44 30.94 16.45 30.94 12.44"/><rect class="cls-5" x="35.96" y="15.45" width="8.03" height="1"/><rect class="cls-7" x="35.96" y="13.39" width="2.67" height="1"/><line class="cls-8" x1="31.51" y1="35.29" x2="68.66" y2="35.29"/><line class="cls-9" x1="31.51" y1="41.82" x2="74.69" y2="41.82"/><line class="cls-9" x1="31.51" y1="43.83" x2="52.6" y2="43.83"/><path class="cls-7" d="M123.29,9V69H25.12V9h98.17m1-1H24.12V70H124.29V8Z"/><line class="cls-10" x1="31.01" y1="22.79" x2="39.04" y2="22.79"/><line class="cls-10" x1="43.06" y1="22.79" x2="47.08" y2="22.79"/><line class="cls-10" x1="40.05" y1="22.79" x2="42.05" y2="22.79"/><rect class="cls-11" x="31.73" y="47.27" width="57.27" height="17.07"/><rect class="cls-5" x="31.73" y="47.27" width="1" height="17.07"/><line class="cls-9" x1="35.53" y1="50.86" x2="46.57" y2="50.86"/><line class="cls-12" x1="35.53" y1="54.87" x2="56.61" y2="54.87"/><line class="cls-12" x1="35.53" y1="56.88" x2="74.69" y2="56.88"/><line class="cls-12" x1="35.53" y1="58.89" x2="66.66" y2="58.89"/><rect class="cls-15" x="31.73" y="72.69" width="20.87" height="4.02" rx="0.5" ry="0.5"/><line class="cls-13" x1="31.41" y1="31.56" x2="37.03" y2="31.56"/></g></g><g id="Mobile"><polygon class="cls-5" points="220.5 61 217.94 61 220.5 58.44 220.5 61"/><polygon class="cls-6" points="217.94 58.44 220.5 58.44 217.94 61 217.94 58.44"/><rect class="cls-5" x="221.15" y="60.36" width="5.13" height="0.64"/><rect class="cls-7" x="221.15" y="59.05" width="1.7" height="0.64"/><rect class="cls-5" x="216.84" y="62.46" width="12" height="6.5"/><line class="cls-16" x1="218" y1="64.19" x2="227" y2="64.19"/><line class="cls-16" x1="221.78" y1="66.19" x2="227.31" y2="66.19"/><line class="cls-16" x1="218" y1="66.19" x2="220.9" y2="66.19"/><line class="cls-17" x1="218" y1="71" x2="225" y2="71"/><line class="cls-9" x1="218" y1="73.42" x2="227" y2="73.42"/><path class="cls-7" d="M228,57V79H217V57h11m1-1H216V80h13V56Z"/></g></svg>