<svg xmlns="http://www.w3.org/2000/svg" xmlns:xlink="http://www.w3.org/1999/xlink" viewBox="0 0 1162.76 1108"><defs><style>.cls-1,.cls-17,.cls-4{fill:none;}.cls-2{fill:#bbe2f3;opacity:0.7;}.cls-3{opacity:0.2;}.cls-4{stroke:#ccc;stroke-miterlimit:10;}.cls-5{fill:#a8bd3a;}.cls-6{fill:#013e58;}.cls-7{fill:#b2bc35;}.cls-8{fill:#06446a;}.cls-9{fill:#ccc;}.cls-10{font-size:41.29px;}.cls-10,.cls-12,.cls-13,.cls-14{font-family:Lato-Black, Lato;}.cls-11{letter-spacing:-0.02em;}.cls-12{font-size:32.11px;}.cls-13{font-size:27.53px;}.cls-14,.cls-15{font-size:22.94px;}.cls-15,.cls-20{font-family:Lato-Regular, Lato;}.cls-15{text-decoration:underline;}.cls-16{fill:#0f8243;opacity:0.6;}.cls-17{stroke:#1d1d1b;}.cls-18{clip-path:url(#clip-path);}.cls-19{fill:#1d1d1b;}.cls-20{font-size:18px;}.cls-21{letter-spacing:-0.03em;}.cls-22{letter-spacing:-0.03em;}.cls-23{letter-spacing:0em;}</style><clipPath id="clip-path"><rect class="cls-1" x="412.38" y="21.92" width="387.08" height="45.01"/></clipPath></defs><title>eq-grid-responsive-large</title><g id="_1000px_grid" data-name="1000px grid"><rect class="cls-2" x="89.38" y="1.76" width="60" height="91.99"/><rect class="cls-2" x="173.38" y="1.76" width="60" height="91.99"/><rect class="cls-2" x="257.38" y="1.76" width="60" height="91.99"/><rect class="cls-2" x="341.38" y="1.76" width="60" height="91.99"/><rect class="cls-2" x="425.38" y="1.76" width="60" height="91.99"/><rect class="cls-2" x="509.38" y="1.76" width="60" height="91.99"/><rect class="cls-2" x="593.38" y="1.76" width="60" height="91.99"/><rect class="cls-2" x="677.38" y="1.76" width="60" height="91.99"/><rect class="cls-2" x="761.38" y="1.76" width="60" height="91.99"/><rect class="cls-2" x="845.38" y="1.76" width="60" height="91.99"/><rect class="cls-2" x="929.38" y="1.76" width="60" height="91.99"/><rect class="cls-2" x="1013.38" y="1.76" width="60" height="91.99"/></g><g id="_1000px_grid_BG" data-name="1000px grid BG" class="cls-3"><rect class="cls-2" x="89.38" y="94.25" width="60" height="1012"/><rect class="cls-2" x="173.38" y="94.25" width="60" height="1012"/><rect class="cls-2" x="257.38" y="94.25" width="60" height="1012"/><rect class="cls-2" x="341.38" y="94.25" width="60" height="1012"/><rect class="cls-2" x="425.38" y="94.25" width="60" height="1012"/><rect class="cls-2" x="509.38" y="94.25" width="60" height="1012"/><rect class="cls-2" x="593.38" y="94.25" width="60" height="1012"/><rect class="cls-2" x="677.38" y="94.25" width="60" height="1012"/><rect class="cls-2" x="761.38" y="94.25" width="60" height="1012"/><rect class="cls-2" x="845.38" y="94.25" width="60" height="1012"/><rect class="cls-2" x="929.38" y="94.25" width="60" height="1012"/><rect class="cls-2" x="1013.38" y="94.25" width="60" height="1012"/></g><g id="Question_screen_wireframe_" data-name="Question screen (wireframe)"><polyline class="cls-4" points="1142.26 230.39 1142.26 1106.24 18.26 1106.24 18.26 230.39"/><path class="cls-5" d="M89.46,162.54c.69-1.44,1.42-2.85,2.22-4.21a46,46,0,0,1-2.21-6.79c0,3.79,0,7.83,0,11m4.3-27.8s-4.29,0-4.29,5.31v2.82a50.19,50.19,0,0,0,3.11,14,45,45,0,0,1,8.79-10.24c6.95-6,16.3-10.07,29-11.88Z"/><path class="cls-6" d="M135.15,137.64c-14.52,1.38-24.44,5.53-31.54,11.6a42.55,42.55,0,0,0-9.31,11.45c5.57,10.81,16.19,18.76,33.91,19.92h1.72s5.45.18,5.45-5.87V137.6l-.23,0m-37.33,30.8a37.08,37.08,0,0,1-4.32-6.3,67.76,67.76,0,0,0-4,9.46v8.95l29,.05c-9.05-2.17-15.83-6.49-20.66-12.15"/><path class="cls-6" d="M152.94,155.23c-4.44,0-6.43-3.68-6.43-8.21s2-8.21,6.43-8.21,6.41,3.73,6.41,8.21-2,8.21-6.41,8.21m0-15.13c-3.28,0-4.44,3.59-4.44,6.88s1.06,6.81,4.44,6.81,4.42-3.56,4.42-6.81-1.14-6.88-4.42-6.88"/><path class="cls-6" d="M164.87,143.64v11.29h-1.8V143.64h-1.84v-1.1h1.84v-1.79a3.62,3.62,0,0,1,4-3.89c.19,0,.42,0,.42,0V138h-.21a2.29,2.29,0,0,0-2.37,2.51v2h2.58v1.1Z"/><path class="cls-6" d="M172.29,143.64v11.29h-1.8V143.64h-1.84v-1.1h1.84v-1.79a3.62,3.62,0,0,1,4-3.89c.19,0,.42,0,.42,0V138h-.21a2.29,2.29,0,0,0-2.37,2.51v2h2.58v1.1Z"/><path class="cls-6" d="M177.84,140.17a1.11,1.11,0,0,1-1.14-1.1,1.14,1.14,0,0,1,2.28,0,1.11,1.11,0,0,1-1.14,1.1m-.91,2.37h1.82v12.4h-1.82Z"/><path class="cls-6" d="M186.49,155.23c-2.94,0-5.2-2.53-5.2-6.51s2.26-6.49,5.27-6.49a4.76,4.76,0,0,1,3,.85l-.47,1.1a3.69,3.69,0,0,0-2.16-.67c-2.52,0-3.81,2.18-3.81,5.13s1.48,5.2,3.74,5.2a3.94,3.94,0,0,0,2.2-.67l.49,1.2a5,5,0,0,1-3.09.85"/><path class="cls-6" d="M192.52,149.48c.23,2.92,1.84,4.39,4.36,4.39a7.18,7.18,0,0,0,3.36-.76l.53,1.26a8.78,8.78,0,0,1-4,.85c-3.49,0-6-2.07-6-6.53,0-4.25,2.28-6.46,5.39-6.46s5.08,1.93,5.08,6.07Zm3.6-6.07c-2,0-3.7,1.56-3.68,5l7-1c0-2.88-1.37-4.07-3.36-4.07"/><path class="cls-6" d="M212.76,143.64v11.29H211V143.64h-1.84v-1.1H211v-1.79a3.62,3.62,0,0,1,4-3.89c.19,0,.42,0,.42,0V138h-.21a2.29,2.29,0,0,0-2.37,2.51v2h2.58v1.1Z"/><path class="cls-6" d="M221.92,155.23c-3.66,0-5.33-2.83-5.33-6.49s1.67-6.51,5.33-6.51,5.31,2.85,5.31,6.51-1.65,6.49-5.31,6.49m0-11.78c-2.71,0-3.49,2.74-3.49,5.29s.85,5.17,3.49,5.17,3.49-2.62,3.49-5.17-.78-5.29-3.49-5.29"/><path class="cls-6" d="M235,143.69a5.52,5.52,0,0,0-3.6.23v11h-1.82V143.09a11.66,11.66,0,0,1,4.95-.85c.32,0,.74,0,.93,0Z"/><path class="cls-6" d="M157,180l-7-10.83a14.92,14.92,0,0,1-.91-1.61h0s.06.92.06,1.89V180h-2.3V164.2h2.6l6.66,10.19A13.87,13.87,0,0,1,157,176h0s-.09-.9-.09-1.84v-10h2.33V180Z"/><path class="cls-6" d="M166.86,180.34c-3.64,0-5.35-1.45-5.35-3.82,0-3.33,3.49-4.23,7.63-4.6v-.71c0-1.7-1.16-2.21-2.86-2.21a8.81,8.81,0,0,0-3.36.71l-.61-1.52a11.78,11.78,0,0,1,4.46-.9c2.75,0,4.86,1.13,4.86,4.3v7.84a11.12,11.12,0,0,1-4.78.9m2.28-7.18c-3.07.32-5.12.9-5.12,3.29,0,1.68,1.18,2.39,3,2.39a4.88,4.88,0,0,0,2.07-.41Z"/><path class="cls-6" d="M178.83,180.29a3.23,3.23,0,0,1-3.6-3.36v-7.7H173.5v-1.61h1.74v-2.78l2.64-.74v3.52h2.41v1.61h-2.41v7.57a1.59,1.59,0,0,0,1.69,1.72,2.62,2.62,0,0,0,.72-.11V180a3.81,3.81,0,0,1-1.46.25"/><path class="cls-6" d="M183.69,165.49a1.39,1.39,0,1,1,1.54-1.38,1.48,1.48,0,0,1-1.54,1.38m-1.33,2.14H185V180h-2.66Z"/><path class="cls-6" d="M193,180.34c-3.79,0-5.67-2.81-5.67-6.51s1.88-6.53,5.67-6.53,5.65,2.83,5.65,6.53-1.86,6.51-5.65,6.51M193,169c-2.28,0-3,2.39-3,4.81s.72,4.71,3,4.71,3-2.3,3-4.71-.68-4.81-3-4.81"/><path class="cls-6" d="M208.47,180v-8.86c0-1.59-1.35-2.18-2.88-2.18a6.07,6.07,0,0,0-2.14.37V180h-2.64V168.2a13.1,13.1,0,0,1,4.93-.9c3.24,0,5.39,1.1,5.39,3.82V180Z"/><path class="cls-6" d="M218.58,180.34c-3.64,0-5.35-1.45-5.35-3.82,0-3.33,3.49-4.23,7.63-4.6v-.71c0-1.7-1.16-2.21-2.85-2.21a8.82,8.82,0,0,0-3.36.71L214,168.2a11.77,11.77,0,0,1,4.46-.9c2.75,0,4.87,1.13,4.87,4.3v7.84a11.13,11.13,0,0,1-4.78.9m2.28-7.18c-3.07.32-5.12.9-5.12,3.29,0,1.68,1.19,2.39,3,2.39a4.88,4.88,0,0,0,2.07-.41Z"/><rect class="cls-6" x="226.09" y="161.96" width="2.64" height="18.05"/><path class="cls-6" d="M241.32,180.34a9.37,9.37,0,0,1-4.31-.9l.74-1.93a6.57,6.57,0,0,0,3,.76c1.84,0,3.15-1.08,3.15-2.64,0-3.47-6.58-2.14-6.58-7.06,0-2.51,2-4.69,5.25-4.69a7.79,7.79,0,0,1,3.81.9l-.68,1.73a5.87,5.87,0,0,0-2.77-.74,2.55,2.55,0,0,0-2.83,2.51c0,3.4,6.72,1.93,6.72,7.17,0,2.81-2.3,4.9-5.54,4.9"/><path class="cls-6" d="M253.57,180.29a3.23,3.23,0,0,1-3.6-3.36v-7.7h-1.73v-1.61H250v-2.78l2.64-.74v3.52H255v1.61h-2.41v7.57a1.59,1.59,0,0,0,1.69,1.72,2.6,2.6,0,0,0,.72-.11V180a3.8,3.8,0,0,1-1.46.25"/><path class="cls-6" d="M261.82,180.34c-3.64,0-5.35-1.45-5.35-3.82,0-3.33,3.49-4.23,7.63-4.6v-.71c0-1.7-1.16-2.21-2.86-2.21a8.81,8.81,0,0,0-3.36.71l-.61-1.52a11.8,11.8,0,0,1,4.46-.9c2.75,0,4.86,1.13,4.86,4.3v7.84a11.13,11.13,0,0,1-4.78.9m2.28-7.18c-3.07.32-5.12.9-5.12,3.29,0,1.68,1.18,2.39,3,2.39a4.87,4.87,0,0,0,2.07-.41Z"/><path class="cls-6" d="M273.79,180.29a3.23,3.23,0,0,1-3.6-3.36v-7.7h-1.73v-1.61h1.73v-2.78l2.64-.74v3.52h2.41v1.61h-2.41v7.57a1.59,1.59,0,0,0,1.69,1.72,2.6,2.6,0,0,0,.72-.11V180a3.79,3.79,0,0,1-1.46.25"/><path class="cls-6" d="M278.65,165.49a1.39,1.39,0,1,1,1.55-1.38,1.48,1.48,0,0,1-1.55,1.38m-1.33,2.14H280V180h-2.67Z"/><path class="cls-6" d="M285.76,180.34a7.77,7.77,0,0,1-3.74-.9l.7-1.7a5.14,5.14,0,0,0,2.71.74,2.23,2.23,0,0,0,2.43-1.93c0-2.94-5.44-1.56-5.44-5.61,0-1.84,1.65-3.63,4.34-3.63a6.61,6.61,0,0,1,3.49.9l-.7,1.54a4.13,4.13,0,0,0-2.26-.71c-1.37,0-2.22.83-2.22,1.77,0,2.76,5.54,1.54,5.54,5.68,0,2-1.88,3.86-4.84,3.86"/><path class="cls-6" d="M297.34,180.29a3.23,3.23,0,0,1-3.6-3.36v-7.7H292v-1.61h1.73v-2.78l2.64-.74v3.52h2.41v1.61h-2.41v7.57a1.59,1.59,0,0,0,1.69,1.72,2.61,2.61,0,0,0,.72-.11V180a3.8,3.8,0,0,1-1.46.25"/><path class="cls-6" d="M302.2,165.49a1.39,1.39,0,1,1,1.55-1.38,1.48,1.48,0,0,1-1.55,1.38m-1.33,2.14h2.66V180h-2.66Z"/><path class="cls-6" d="M311.19,180.34c-3,0-5.37-2.48-5.37-6.53s2.39-6.51,5.39-6.51a5.14,5.14,0,0,1,3.17.9l-.59,1.49a3.36,3.36,0,0,0-1.95-.6c-2.16,0-3.28,1.86-3.28,4.64s1.29,4.69,3.24,4.69a3.34,3.34,0,0,0,1.94-.62l.66,1.63a5.09,5.09,0,0,1-3.21.9"/><path class="cls-6" d="M319.34,180.34a7.77,7.77,0,0,1-3.74-.9l.7-1.7a5.14,5.14,0,0,0,2.71.74,2.23,2.23,0,0,0,2.43-1.93c0-2.94-5.44-1.56-5.44-5.61,0-1.84,1.65-3.63,4.34-3.63a6.63,6.63,0,0,1,3.49.9l-.7,1.54a4.12,4.12,0,0,0-2.26-.71c-1.37,0-2.22.83-2.22,1.77,0,2.76,5.54,1.54,5.54,5.68,0,2-1.88,3.86-4.84,3.86"/><path class="cls-7" d="M89.46,162.54c.69-1.44,1.42-2.85,2.22-4.21a46,46,0,0,1-2.21-6.79c0,3.79,0,7.83,0,11m4.3-27.8s-4.29,0-4.29,5.31v2.82a50.19,50.19,0,0,0,3.11,14,45,45,0,0,1,8.79-10.24c6.95-6,16.3-10.07,29-11.88Z"/><path class="cls-8" d="M135.15,137.64c-14.52,1.38-24.44,5.53-31.54,11.6a42.55,42.55,0,0,0-9.31,11.45c5.57,10.81,16.19,18.76,33.91,19.92h1.72s5.45.18,5.45-5.87V137.6l-.23,0m-37.33,30.8a37.08,37.08,0,0,1-4.32-6.3,67.76,67.76,0,0,0-4,9.46v8.95l29,.05c-9.05-2.17-15.83-6.49-20.66-12.15"/><path class="cls-8" d="M152.94,155.23c-4.44,0-6.43-3.68-6.43-8.21s2-8.21,6.43-8.21,6.41,3.73,6.41,8.21-2,8.21-6.41,8.21m0-15.13c-3.28,0-4.44,3.59-4.44,6.88s1.06,6.81,4.44,6.81,4.42-3.56,4.42-6.81-1.14-6.88-4.42-6.88"/><path class="cls-8" d="M164.87,143.64v11.29h-1.8V143.64h-1.84v-1.1h1.84v-1.79a3.62,3.62,0,0,1,4-3.89c.19,0,.42,0,.42,0V138h-.21a2.29,2.29,0,0,0-2.37,2.51v2h2.58v1.1Z"/><path class="cls-8" d="M172.29,143.64v11.29h-1.8V143.64h-1.84v-1.1h1.84v-1.79a3.62,3.62,0,0,1,4-3.89c.19,0,.42,0,.42,0V138h-.21a2.29,2.29,0,0,0-2.37,2.51v2h2.58v1.1Z"/><path class="cls-8" d="M177.84,140.17a1.11,1.11,0,0,1-1.14-1.1,1.14,1.14,0,0,1,2.28,0,1.11,1.11,0,0,1-1.14,1.1m-.91,2.37h1.82v12.4h-1.82Z"/><path class="cls-8" d="M186.49,155.23c-2.94,0-5.2-2.53-5.2-6.51s2.26-6.49,5.27-6.49a4.76,4.76,0,0,1,3,.85l-.47,1.1a3.69,3.69,0,0,0-2.16-.67c-2.52,0-3.81,2.18-3.81,5.13s1.48,5.2,3.74,5.2a3.94,3.94,0,0,0,2.2-.67l.49,1.2a5,5,0,0,1-3.09.85"/><path class="cls-8" d="M192.52,149.48c.23,2.92,1.84,4.39,4.36,4.39a7.18,7.18,0,0,0,3.36-.76l.53,1.26a8.78,8.78,0,0,1-4,.85c-3.49,0-6-2.07-6-6.53,0-4.25,2.28-6.46,5.39-6.46s5.08,1.93,5.08,6.07Zm3.6-6.07c-2,0-3.7,1.56-3.68,5l7-1c0-2.88-1.37-4.07-3.36-4.07"/><path class="cls-8" d="M212.76,143.64v11.29H211V143.64h-1.84v-1.1H211v-1.79a3.62,3.62,0,0,1,4-3.89c.19,0,.42,0,.42,0V138h-.21a2.29,2.29,0,0,0-2.37,2.51v2h2.58v1.1Z"/><path class="cls-8" d="M221.92,155.23c-3.66,0-5.33-2.83-5.33-6.49s1.67-6.51,5.33-6.51,5.31,2.85,5.31,6.51-1.65,6.49-5.31,6.49m0-11.78c-2.71,0-3.49,2.74-3.49,5.29s.85,5.17,3.49,5.17,3.49-2.62,3.49-5.17-.78-5.29-3.49-5.29"/><path class="cls-8" d="M235,143.69a5.52,5.52,0,0,0-3.6.23v11h-1.82V143.09a11.66,11.66,0,0,1,4.95-.85c.32,0,.74,0,.93,0Z"/><path class="cls-8" d="M157,180l-7-10.83a14.92,14.92,0,0,1-.91-1.61h0s.06.92.06,1.89V180h-2.3V164.2h2.6l6.66,10.19A13.87,13.87,0,0,1,157,176h0s-.09-.9-.09-1.84v-10h2.33V180Z"/><path class="cls-8" d="M166.86,180.34c-3.64,0-5.35-1.45-5.35-3.82,0-3.33,3.49-4.23,7.63-4.6v-.71c0-1.7-1.16-2.21-2.86-2.21a8.81,8.81,0,0,0-3.36.71l-.61-1.52a11.78,11.78,0,0,1,4.46-.9c2.75,0,4.86,1.13,4.86,4.3v7.84a11.12,11.12,0,0,1-4.78.9m2.28-7.18c-3.07.32-5.12.9-5.12,3.29,0,1.68,1.18,2.39,3,2.39a4.88,4.88,0,0,0,2.07-.41Z"/><path class="cls-8" d="M178.83,180.29a3.23,3.23,0,0,1-3.6-3.36v-7.7H173.5v-1.61h1.74v-2.78l2.64-.74v3.52h2.41v1.61h-2.41v7.57a1.59,1.59,0,0,0,1.69,1.72,2.62,2.62,0,0,0,.72-.11V180a3.81,3.81,0,0,1-1.46.25"/><path class="cls-8" d="M183.69,165.49a1.39,1.39,0,1,1,1.54-1.38,1.48,1.48,0,0,1-1.54,1.38m-1.33,2.14H185V180h-2.66Z"/><path class="cls-8" d="M193,180.34c-3.79,0-5.67-2.81-5.67-6.51s1.88-6.53,5.67-6.53,5.65,2.83,5.65,6.53-1.86,6.51-5.65,6.51M193,169c-2.28,0-3,2.39-3,4.81s.72,4.71,3,4.71,3-2.3,3-4.71-.68-4.81-3-4.81"/><path class="cls-8" d="M208.47,180v-8.86c0-1.59-1.35-2.18-2.88-2.18a6.07,6.07,0,0,0-2.14.37V180h-2.64V168.2a13.1,13.1,0,0,1,4.93-.9c3.24,0,5.39,1.1,5.39,3.82V180Z"/><path class="cls-8" d="M218.58,180.34c-3.64,0-5.35-1.45-5.35-3.82,0-3.33,3.49-4.23,7.63-4.6v-.71c0-1.7-1.16-2.21-2.85-2.21a8.82,8.82,0,0,0-3.36.71L214,168.2a11.77,11.77,0,0,1,4.46-.9c2.75,0,4.87,1.13,4.87,4.3v7.84a11.13,11.13,0,0,1-4.78.9m2.28-7.18c-3.07.32-5.12.9-5.12,3.29,0,1.68,1.19,2.39,3,2.39a4.88,4.88,0,0,0,2.07-.41Z"/><rect class="cls-8" x="226.09" y="161.96" width="2.64" height="18.05"/><path class="cls-8" d="M241.32,180.34a9.37,9.37,0,0,1-4.31-.9l.74-1.93a6.57,6.57,0,0,0,3,.76c1.84,0,3.15-1.08,3.15-2.64,0-3.47-6.58-2.14-6.58-7.06,0-2.51,2-4.69,5.25-4.69a7.79,7.79,0,0,1,3.81.9l-.68,1.73a5.87,5.87,0,0,0-2.77-.74,2.55,2.55,0,0,0-2.83,2.51c0,3.4,6.72,1.93,6.72,7.17,0,2.81-2.3,4.9-5.54,4.9"/><path class="cls-8" d="M253.57,180.29a3.23,3.23,0,0,1-3.6-3.36v-7.7h-1.73v-1.61H250v-2.78l2.64-.74v3.52H255v1.61h-2.41v7.57a1.59,1.59,0,0,0,1.69,1.72,2.6,2.6,0,0,0,.72-.11V180a3.8,3.8,0,0,1-1.46.25"/><path class="cls-8" d="M261.82,180.34c-3.64,0-5.35-1.45-5.35-3.82,0-3.33,3.49-4.23,7.63-4.6v-.71c0-1.7-1.16-2.21-2.86-2.21a8.81,8.81,0,0,0-3.36.71l-.61-1.52a11.8,11.8,0,0,1,4.46-.9c2.75,0,4.86,1.13,4.86,4.3v7.84a11.13,11.13,0,0,1-4.78.9m2.28-7.18c-3.07.32-5.12.9-5.12,3.29,0,1.68,1.18,2.39,3,2.39a4.87,4.87,0,0,0,2.07-.41Z"/><path class="cls-8" d="M273.79,180.29a3.23,3.23,0,0,1-3.6-3.36v-7.7h-1.73v-1.61h1.73v-2.78l2.64-.74v3.52h2.41v1.61h-2.41v7.57a1.59,1.59,0,0,0,1.69,1.72,2.6,2.6,0,0,0,.72-.11V180a3.79,3.79,0,0,1-1.46.25"/><path class="cls-8" d="M278.65,165.49a1.39,1.39,0,1,1,1.55-1.38,1.48,1.48,0,0,1-1.55,1.38m-1.33,2.14H280V180h-2.67Z"/><path class="cls-8" d="M285.76,180.34a7.77,7.77,0,0,1-3.74-.9l.7-1.7a5.14,5.14,0,0,0,2.71.74,2.23,2.23,0,0,0,2.43-1.93c0-2.94-5.44-1.56-5.44-5.61,0-1.84,1.65-3.63,4.34-3.63a6.61,6.61,0,0,1,3.49.9l-.7,1.54a4.13,4.13,0,0,0-2.26-.71c-1.37,0-2.22.83-2.22,1.77,0,2.76,5.54,1.54,5.54,5.68,0,2-1.88,3.86-4.84,3.86"/><path class="cls-8" d="M297.34,180.29a3.23,3.23,0,0,1-3.6-3.36v-7.7H292v-1.61h1.73v-2.78l2.64-.74v3.52h2.41v1.61h-2.41v7.57a1.59,1.59,0,0,0,1.69,1.72,2.61,2.61,0,0,0,.72-.11V180a3.8,3.8,0,0,1-1.46.25"/><path class="cls-8" d="M302.2,165.49a1.39,1.39,0,1,1,1.55-1.38,1.48,1.48,0,0,1-1.55,1.38m-1.33,2.14h2.66V180h-2.66Z"/><path class="cls-8" d="M311.19,180.34c-3,0-5.37-2.48-5.37-6.53s2.39-6.51,5.39-6.51a5.14,5.14,0,0,1,3.17.9l-.59,1.49a3.36,3.36,0,0,0-1.95-.6c-2.16,0-3.28,1.86-3.28,4.64s1.29,4.69,3.24,4.69a3.34,3.34,0,0,0,1.94-.62l.66,1.63a5.09,5.09,0,0,1-3.21.9"/><path class="cls-8" d="M319.34,180.34a7.77,7.77,0,0,1-3.74-.9l.7-1.7a5.14,5.14,0,0,0,2.71.74,2.23,2.23,0,0,0,2.43-1.93c0-2.94-5.44-1.56-5.44-5.61,0-1.84,1.65-3.63,4.34-3.63a6.63,6.63,0,0,1,3.49.9l-.7,1.54a4.12,4.12,0,0,0-2.26-.71c-1.37,0-2.22.83-2.22,1.77,0,2.76,5.54,1.54,5.54,5.68,0,2-1.88,3.86-4.84,3.86"/><rect class="cls-4" x="18.26" y="92.76" width="1124" height="137.63"/><rect class="cls-9" x="660.32" y="143.39" width="412.9" height="11.47"/><rect class="cls-9" x="660.32" y="167.31" width="206.45" height="11.47"/><g id="Content"><text class="cls-10" transform="translate(89.47 356.99)">Sur<tspan class="cls-11" x="63.38" y="0">ve</tspan><tspan x="107.02" y="0">y title</tspan></text><rect class="cls-9" x="88.6" y="388.32" width="564.78" height="11.47"/><rect class="cls-9" x="88.6" y="412.24" width="282.39" height="11.47"/><rect class="cls-9" x="88.13" y="451.37" width="564.78" height="11.47"/><rect class="cls-9" x="88.13" y="475.29" width="282.39" height="11.47"/><line class="cls-4" x1="88.13" y1="532.76" x2="652.91" y2="532.76"/><text class="cls-12" transform="translate(88.95 617.49)">1. Section title</text><rect class="cls-9" x="88.94" y="649.82" width="564.44" height="11.47"/><rect class="cls-9" x="88.94" y="673.74" width="282.22" height="11.47"/><rect class="cls-9" x="88.94" y="812.68" width="564.44" height="11.47"/><rect class="cls-9" x="88.94" y="836.61" width="282.22" height="11.47"/><text class="cls-13" transform="translate(88.13 788.83)">1.1 Question title</text><text class="cls-14" transform="translate(88.95 914.59)">Label</text><rect class="cls-4" x="88.95" y="927.49" width="490.81" height="53.5"/><text class="cls-15" transform="translate(88.13 1012.33)">&gt; Guidance</text><rect class="cls-9" x="780.99" y="388.32" width="294.06" height="11.47"/><rect class="cls-9" x="780.99" y="456.77" width="211.85" height="11.47"/><rect class="cls-9" x="780.99" y="422.54" width="147.03" height="11.47"/><text class="cls-12" transform="translate(763.54 351.1)">Sections</text></g><rect class="cls-9" x="761.38" y="388.32" width="3.5" height="152.44"/></g><g id="_24px_margin_label" data-name="24px margin label"><rect class="cls-16" x="401.38" y="1.76" width="24" height="91.99"/><line class="cls-17" x1="415.02" y1="50.64" x2="469.45" y2="50.64"/><g class="cls-18"><path class="cls-19" d="M415,53.28a2.64,2.64,0,1,0-2.64-2.64A2.64,2.64,0,0,0,415,53.28"/></g><text class="cls-20" transform="translate(483.38 55.5)">24<tspan class="cls-21" x="20.88" y="0">p</tspan><tspan x="30.28" y="0">x fi</tspan><tspan class="cls-22" x="53.08" y="0">x</tspan><tspan class="cls-23" x="61.61" y="0">ed margin</tspan></text></g></svg>