<svg id="Layer_1" data-name="Layer 1" xmlns="http://www.w3.org/2000/svg" xmlns:xlink="http://www.w3.org/1999/xlink" viewBox="0 0 596 361.33"><defs><style>.cls-1,.cls-6{fill:none;}.cls-2{fill:#bbe1f2;opacity:0.7;}.cls-3{opacity:0.5;}.cls-4{fill:#4c8dcb;}.cls-5{fill:#0f8243;opacity:0.6;}.cls-6{stroke:#1d1d1b;}.cls-7{clip-path:url(#clip-path);}.cls-8{fill:#1d1d1b;}.cls-9{font-size:18px;font-family:Lato-Regular, Lato;}.cls-10{letter-spacing:-0.03em;}.cls-11{letter-spacing:-0.03em;}.cls-12{letter-spacing:0em;}</style><clipPath id="clip-path"><rect class="cls-1" x="195" y="304" width="387.08" height="45.01"/></clipPath></defs><title>eq-grid-301-600px</title><rect class="cls-2" x="306" y="80" width="290" height="8"/><g class="cls-3"><rect class="cls-2" x="306" y="88" width="290" height="8"/></g><rect class="cls-2" x="306" y="96" width="290" height="8"/><g class="cls-3"><rect class="cls-2" x="306" y="104" width="290" height="8"/></g><rect class="cls-2" x="306" y="112" width="290" height="8"/><g class="cls-3"><rect class="cls-2" x="306" y="120" width="290" height="8"/></g><rect class="cls-2" x="306" y="128" width="290" height="8"/><g class="cls-3"><rect class="cls-2" x="306" y="136" width="290" height="8"/></g><rect class="cls-2" x="153" y="240" width="137" height="8"/><g class="cls-3"><rect class="cls-2" x="153" y="248" width="137" height="8"/></g><rect class="cls-2" x="153" y="256" width="137" height="8"/><g class="cls-3"><rect class="cls-2" x="153" y="264" width="137" height="8"/></g><rect class="cls-2" x="153" y="272" width="137" height="8"/><g class="cls-3"><rect class="cls-2" x="153" y="280" width="137" height="8"/></g><rect class="cls-2" x="153" y="288" width="137" height="8"/><g class="cls-3"><rect class="cls-2" x="153" y="296" width="137" height="8"/></g><rect class="cls-2" x="306" y="240" width="137" height="8"/><g class="cls-3"><rect class="cls-2" x="306" y="248" width="137" height="8"/></g><rect class="cls-2" x="306" y="256" width="137" height="8"/><g class="cls-3"><rect class="cls-2" x="306" y="264" width="137" height="8"/></g><rect class="cls-2" x="306" y="272" width="137" height="8"/><g class="cls-3"><rect class="cls-2" x="306" y="280" width="137" height="8"/></g><rect class="cls-2" x="306" y="288" width="137" height="8"/><g class="cls-3"><rect class="cls-2" x="306" y="296" width="137" height="8"/></g><rect class="cls-2" x="459" y="240" width="137" height="8"/><g class="cls-3"><rect class="cls-2" x="459" y="248" width="137" height="8"/></g><rect class="cls-2" x="459" y="256" width="137" height="8"/><g class="cls-3"><rect class="cls-2" x="459" y="264" width="137" height="8"/></g><rect class="cls-2" x="459" y="272" width="137" height="8"/><g class="cls-3"><rect class="cls-2" x="459" y="280" width="137" height="8"/></g><rect class="cls-2" x="459" y="288" width="137" height="8"/><g class="cls-3"><rect class="cls-2" x="459" y="296" width="137" height="8"/></g><rect class="cls-2" x="204" y="160" width="188" height="8"/><g class="cls-3"><rect class="cls-2" x="204" y="168" width="188" height="8"/></g><rect class="cls-2" x="204" y="176" width="188" height="8"/><g class="cls-3"><rect class="cls-2" x="204" y="184" width="188" height="8"/></g><rect class="cls-2" x="204" y="192" width="188" height="8"/><g class="cls-3"><rect class="cls-2" x="204" y="200" width="188" height="8"/></g><rect class="cls-2" x="204" y="208" width="188" height="8"/><g class="cls-3"><rect class="cls-2" x="204" y="216" width="188" height="8"/></g><rect class="cls-2" x="408" y="160" width="188" height="8"/><g class="cls-3"><rect class="cls-2" x="408" y="168" width="188" height="8"/></g><rect class="cls-2" x="408" y="176" width="188" height="8"/><g class="cls-3"><rect class="cls-2" x="408" y="184" width="188" height="8"/></g><rect class="cls-2" x="408" y="192" width="188" height="8"/><g class="cls-3"><rect class="cls-2" x="408" y="200" width="188" height="8"/></g><rect class="cls-2" x="408" y="208" width="188" height="8"/><g class="cls-3"><rect class="cls-2" x="408" y="216" width="188" height="8"/></g><rect class="cls-2" width="596" height="8"/><g class="cls-3"><rect class="cls-2" y="8" width="596" height="8"/></g><rect class="cls-2" y="16" width="596" height="8"/><g class="cls-3"><rect class="cls-2" y="24" width="596" height="8"/></g><rect class="cls-2" y="32" width="596" height="8"/><g class="cls-3"><rect class="cls-2" y="40" width="596" height="8"/></g><rect class="cls-2" y="48" width="596" height="8"/><g class="cls-3"><rect class="cls-2" y="56" width="596" height="8"/></g><rect class="cls-2" y="80" width="290" height="8"/><g class="cls-3"><rect class="cls-2" y="88" width="290" height="8"/></g><rect class="cls-2" y="96" width="290" height="8"/><g class="cls-3"><rect class="cls-2" y="104" width="290" height="8"/></g><rect class="cls-2" y="112" width="290" height="8"/><g class="cls-3"><rect class="cls-2" y="120" width="290" height="8"/></g><rect class="cls-2" y="128" width="290" height="8"/><g class="cls-3"><rect class="cls-2" y="136" width="290" height="8"/></g><rect class="cls-2" y="240" width="137" height="8"/><g class="cls-3"><rect class="cls-2" y="248" width="137" height="8"/></g><rect class="cls-2" y="256" width="137" height="8"/><g class="cls-3"><rect class="cls-2" y="264" width="137" height="8"/></g><rect class="cls-2" y="272" width="137" height="8"/><g class="cls-3"><rect class="cls-2" y="280" width="137" height="8"/></g><rect class="cls-2" y="288" width="137" height="8"/><g class="cls-3"><rect class="cls-2" y="296" width="137" height="8"/></g><rect class="cls-2" y="160" width="188" height="8"/><g class="cls-3"><rect class="cls-2" y="168" width="188" height="8"/></g><rect class="cls-2" y="176" width="188" height="8"/><g class="cls-3"><rect class="cls-2" y="184" width="188" height="8"/></g><rect class="cls-2" y="192" width="188" height="8"/><g class="cls-3"><rect class="cls-2" y="200" width="188" height="8"/></g><rect class="cls-2" y="208" width="188" height="8"/><g class="cls-3"><rect class="cls-2" y="216" width="188" height="8"/></g><path class="cls-4" d="M34,1V303H1V1H34m1-1H0V304H35V0Z"/><path class="cls-4" d="M84.5,1V303h-33V1h33m1-1h-35V304h35V0Z"/><path class="cls-4" d="M136.5,1V303h-33V1h33m1-1h-35V304h35V0Z"/><path class="cls-4" d="M187.25,1V303h-33V1h33m1-1h-35V304h35V0Z"/><path class="cls-4" d="M238,1V303H205V1h33m1-1H204V304h35V0Z"/><path class="cls-4" d="M289,1V303H256V1h33m1-1H255V304h35V0Z"/><path class="cls-4" d="M339.5,1V303h-33V1h33m1-1h-35V304h35V0Z"/><path class="cls-4" d="M391.5,1V303h-33V1h33m1-1h-35V304h35V0Z"/><path class="cls-4" d="M442.25,1V303h-33V1h33m1-1h-35V304h35V0Z"/><path class="cls-4" d="M493,1V303H460V1h33m1-1H459V304h35V0Z"/><path class="cls-4" d="M544,1V303H511V1h33m1-1H510V304h35V0Z"/><path class="cls-4" d="M594.75,1V303h-33V1h33m1-1h-35V304h35V0Z"/><rect class="cls-5" x="187" width="17" height="346"/><line class="cls-6" x1="197.64" y1="332.72" x2="252.07" y2="332.72"/><g class="cls-7"><path class="cls-8" d="M197.64,335.36a2.64,2.64,0,1,0-2.64-2.64,2.64,2.64,0,0,0,2.64,2.64"/></g><text class="cls-9" transform="translate(266 337.58)">16<tspan class="cls-10" x="20.88" y="0">p</tspan><tspan x="30.28" y="0">x fi</tspan><tspan class="cls-11" x="53.08" y="0">x</tspan><tspan class="cls-12" x="61.61" y="0">ed margin</tspan></text></svg>