<svg xmlns="http://www.w3.org/2000/svg" xmlns:xlink="http://www.w3.org/1999/xlink" viewBox="0 0 984 460.26"><defs><style>.cls-1,.cls-6{fill:none;}.cls-2{fill:#bbe1f2;opacity:0.7;}.cls-3{opacity:0.5;}.cls-4{fill:#4c8dcb;}.cls-5{fill:#0f8243;opacity:0.6;}.cls-6{stroke:#1d1d1b;}.cls-7{clip-path:url(#clip-path);}.cls-8{fill:#1d1d1b;}.cls-9{font-size:18px;fill:#222;font-family:Lato-Regular, Lato;}.cls-10{letter-spacing:-0.03em;}.cls-11{letter-spacing:-0.03em;}.cls-12{letter-spacing:0em;}.cls-13{clip-path:url(#clip-path-2);}</style><clipPath id="clip-path"><rect class="cls-1" x="196.5" y="304" width="387.08" height="45.01"/></clipPath><clipPath id="clip-path-2"><rect class="cls-1" x="783" y="215.67" width="387.08" height="45.01"/></clipPath></defs><title>eq-grid-300-and-301-600px</title><g id="Layer_1" data-name="Layer 1"><rect class="cls-2" x="307.5" y="80" width="290" height="8"/><g class="cls-3"><rect class="cls-2" x="307.5" y="88" width="290" height="8"/></g><rect class="cls-2" x="307.5" y="96" width="290" height="8"/><g class="cls-3"><rect class="cls-2" x="307.5" y="104" width="290" height="8"/></g><rect class="cls-2" x="307.5" y="112" width="290" height="8"/><g class="cls-3"><rect class="cls-2" x="307.5" y="120" width="290" height="8"/></g><rect class="cls-2" x="307.5" y="128" width="290" height="8"/><g class="cls-3"><rect class="cls-2" x="307.5" y="136" width="290" height="8"/></g><rect class="cls-2" x="154.5" y="240" width="137" height="8"/><g class="cls-3"><rect class="cls-2" x="154.5" y="248" width="137" height="8"/></g><rect class="cls-2" x="154.5" y="256" width="137" height="8"/><g class="cls-3"><rect class="cls-2" x="154.5" y="264" width="137" height="8"/></g><rect class="cls-2" x="154.5" y="272" width="137" height="8"/><g class="cls-3"><rect class="cls-2" x="154.5" y="280" width="137" height="8"/></g><rect class="cls-2" x="154.5" y="288" width="137" height="8"/><g class="cls-3"><rect class="cls-2" x="154.5" y="296" width="137" height="8"/></g><rect class="cls-2" x="307.5" y="240" width="137" height="8"/><g class="cls-3"><rect class="cls-2" x="307.5" y="248" width="137" height="8"/></g><rect class="cls-2" x="307.5" y="256" width="137" height="8"/><g class="cls-3"><rect class="cls-2" x="307.5" y="264" width="137" height="8"/></g><rect class="cls-2" x="307.5" y="272" width="137" height="8"/><g class="cls-3"><rect class="cls-2" x="307.5" y="280" width="137" height="8"/></g><rect class="cls-2" x="307.5" y="288" width="137" height="8"/><g class="cls-3"><rect class="cls-2" x="307.5" y="296" width="137" height="8"/></g><rect class="cls-2" x="460.5" y="240" width="137" height="8"/><g class="cls-3"><rect class="cls-2" x="460.5" y="248" width="137" height="8"/></g><rect class="cls-2" x="460.5" y="256" width="137" height="8"/><g class="cls-3"><rect class="cls-2" x="460.5" y="264" width="137" height="8"/></g><rect class="cls-2" x="460.5" y="272" width="137" height="8"/><g class="cls-3"><rect class="cls-2" x="460.5" y="280" width="137" height="8"/></g><rect class="cls-2" x="460.5" y="288" width="137" height="8"/><g class="cls-3"><rect class="cls-2" x="460.5" y="296" width="137" height="8"/></g><rect class="cls-2" x="205.5" y="160" width="188" height="8"/><g class="cls-3"><rect class="cls-2" x="205.5" y="168" width="188" height="8"/></g><rect class="cls-2" x="205.5" y="176" width="188" height="8"/><g class="cls-3"><rect class="cls-2" x="205.5" y="184" width="188" height="8"/></g><rect class="cls-2" x="205.5" y="192" width="188" height="8"/><g class="cls-3"><rect class="cls-2" x="205.5" y="200" width="188" height="8"/></g><rect class="cls-2" x="205.5" y="208" width="188" height="8"/><g class="cls-3"><rect class="cls-2" x="205.5" y="216" width="188" height="8"/></g><rect class="cls-2" x="409.5" y="160" width="188" height="8"/><g class="cls-3"><rect class="cls-2" x="409.5" y="168" width="188" height="8"/></g><rect class="cls-2" x="409.5" y="176" width="188" height="8"/><g class="cls-3"><rect class="cls-2" x="409.5" y="184" width="188" height="8"/></g><rect class="cls-2" x="409.5" y="192" width="188" height="8"/><g class="cls-3"><rect class="cls-2" x="409.5" y="200" width="188" height="8"/></g><rect class="cls-2" x="409.5" y="208" width="188" height="8"/><g class="cls-3"><rect class="cls-2" x="409.5" y="216" width="188" height="8"/></g><rect class="cls-2" x="1.5" width="596" height="8"/><g class="cls-3"><rect class="cls-2" x="1.5" y="8" width="596" height="8"/></g><rect class="cls-2" x="1.5" y="16" width="596" height="8"/><g class="cls-3"><rect class="cls-2" x="1.5" y="24" width="596" height="8"/></g><rect class="cls-2" x="1.5" y="32" width="596" height="8"/><g class="cls-3"><rect class="cls-2" x="1.5" y="40" width="596" height="8"/></g><rect class="cls-2" x="1.5" y="48" width="596" height="8"/><g class="cls-3"><rect class="cls-2" x="1.5" y="56" width="596" height="8"/></g><rect class="cls-2" x="1.5" y="80" width="290" height="8"/><g class="cls-3"><rect class="cls-2" x="1.5" y="88" width="290" height="8"/></g><rect class="cls-2" x="1.5" y="96" width="290" height="8"/><g class="cls-3"><rect class="cls-2" x="1.5" y="104" width="290" height="8"/></g><rect class="cls-2" x="1.5" y="112" width="290" height="8"/><g class="cls-3"><rect class="cls-2" x="1.5" y="120" width="290" height="8"/></g><rect class="cls-2" x="1.5" y="128" width="290" height="8"/><g class="cls-3"><rect class="cls-2" x="1.5" y="136" width="290" height="8"/></g><rect class="cls-2" x="1.5" y="240" width="137" height="8"/><g class="cls-3"><rect class="cls-2" x="1.5" y="248" width="137" height="8"/></g><rect class="cls-2" x="1.5" y="256" width="137" height="8"/><g class="cls-3"><rect class="cls-2" x="1.5" y="264" width="137" height="8"/></g><rect class="cls-2" x="1.5" y="272" width="137" height="8"/><g class="cls-3"><rect class="cls-2" x="1.5" y="280" width="137" height="8"/></g><rect class="cls-2" x="1.5" y="288" width="137" height="8"/><g class="cls-3"><rect class="cls-2" x="1.5" y="296" width="137" height="8"/></g><rect class="cls-2" x="1.5" y="160" width="188" height="8"/><g class="cls-3"><rect class="cls-2" x="1.5" y="168" width="188" height="8"/></g><rect class="cls-2" x="1.5" y="176" width="188" height="8"/><g class="cls-3"><rect class="cls-2" x="1.5" y="184" width="188" height="8"/></g><rect class="cls-2" x="1.5" y="192" width="188" height="8"/><g class="cls-3"><rect class="cls-2" x="1.5" y="200" width="188" height="8"/></g><rect class="cls-2" x="1.5" y="208" width="188" height="8"/><g class="cls-3"><rect class="cls-2" x="1.5" y="216" width="188" height="8"/></g><path class="cls-4" d="M35.5,1V303H2.5V1h33m1-1H1.5V304h35V0Z"/><path class="cls-4" d="M86,1V303H53V1H86m1-1H52V304H87V0Z"/><path class="cls-4" d="M138,1V303H105V1h33m1-1H104V304h35V0Z"/><path class="cls-4" d="M188.75,1V303h-33V1h33m1-1h-35V304h35V0Z"/><path class="cls-4" d="M239.5,1V303h-33V1h33m1-1h-35V304h35V0Z"/><path class="cls-4" d="M290.5,1V303h-33V1h33m1-1h-35V304h35V0Z"/><path class="cls-4" d="M341,1V303H308V1h33m1-1H307V304h35V0Z"/><path class="cls-4" d="M393,1V303H360V1h33m1-1H359V304h35V0Z"/><path class="cls-4" d="M443.75,1V303h-33V1h33m1-1h-35V304h35V0Z"/><path class="cls-4" d="M494.5,1V303h-33V1h33m1-1h-35V304h35V0Z"/><path class="cls-4" d="M545.5,1V303h-33V1h33m1-1h-35V304h35V0Z"/><path class="cls-4" d="M596.25,1V303h-33V1h33m1-1h-35V304h35V0Z"/><rect class="cls-5" x="188.5" width="17" height="346"/><line class="cls-6" x1="199.14" y1="332.72" x2="253.57" y2="332.72"/><g class="cls-7"><path class="cls-8" d="M199.14,335.36a2.64,2.64,0,1,0-2.64-2.64,2.64,2.64,0,0,0,2.64,2.64"/></g><text class="cls-9" transform="translate(267.5 337.58)">16<tspan class="cls-10" x="20.88" y="0">p</tspan><tspan x="30.28" y="0">x fi</tspan><tspan class="cls-11" x="53.08" y="0">x</tspan><tspan class="cls-12" x="61.61" y="0">ed margin</tspan></text></g><g id="Layer_3" data-name="Layer 3"><rect class="cls-2" x="687" width="296" height="8"/><g class="cls-3"><rect class="cls-2" x="687" y="8" width="296" height="8"/></g><rect class="cls-2" x="687" y="16" width="296" height="8"/><g class="cls-3"><rect class="cls-2" x="687" y="24" width="296" height="8"/></g><rect class="cls-2" x="687" y="32" width="296" height="8"/><g class="cls-3"><rect class="cls-2" x="687" y="40" width="296" height="8"/></g><rect class="cls-2" x="687" y="48" width="296" height="8"/><g class="cls-3"><rect class="cls-2" x="687" y="56" width="296" height="8"/></g><rect class="cls-2" x="687" y="80" width="140" height="8"/><g class="cls-3"><rect class="cls-2" x="687" y="88" width="140" height="8"/></g><rect class="cls-2" x="687" y="96" width="140" height="8"/><g class="cls-3"><rect class="cls-2" x="687" y="104" width="140" height="8"/></g><rect class="cls-2" x="687" y="112" width="140" height="8"/><g class="cls-3"><rect class="cls-2" x="687" y="120" width="140" height="8"/></g><rect class="cls-2" x="687" y="128" width="140" height="8"/><g class="cls-3"><rect class="cls-2" x="687" y="136" width="140" height="8"/></g><rect class="cls-2" x="687" y="160" width="88" height="8"/><g class="cls-3"><rect class="cls-2" x="687" y="168" width="88" height="8"/></g><rect class="cls-2" x="687" y="176" width="88" height="8"/><g class="cls-3"><rect class="cls-2" x="687" y="184" width="88" height="8"/></g><rect class="cls-2" x="687" y="192" width="88" height="8"/><g class="cls-3"><rect class="cls-2" x="687" y="200" width="88" height="8"/></g><rect class="cls-2" x="687" y="208" width="88" height="8"/><g class="cls-3"><rect class="cls-2" x="687" y="216" width="88" height="8"/></g><rect class="cls-2" x="791" y="160" width="88" height="8"/><g class="cls-3"><rect class="cls-2" x="791" y="168" width="88" height="8"/></g><rect class="cls-2" x="791" y="176" width="88" height="8"/><g class="cls-3"><rect class="cls-2" x="791" y="184" width="88" height="8"/></g><rect class="cls-2" x="791" y="192" width="88" height="8"/><g class="cls-3"><rect class="cls-2" x="791" y="200" width="88" height="8"/></g><rect class="cls-2" x="791" y="208" width="88" height="8"/><g class="cls-3"><rect class="cls-2" x="791" y="216" width="88" height="8"/></g><rect class="cls-2" x="895" y="160" width="88" height="8"/><g class="cls-3"><rect class="cls-2" x="895" y="168" width="88" height="8"/></g><rect class="cls-2" x="895" y="176" width="88" height="8"/><g class="cls-3"><rect class="cls-2" x="895" y="184" width="88" height="8"/></g><rect class="cls-2" x="895" y="192" width="88" height="8"/><g class="cls-3"><rect class="cls-2" x="895" y="200" width="88" height="8"/></g><rect class="cls-2" x="895" y="208" width="88" height="8"/><g class="cls-3"><rect class="cls-2" x="895" y="216" width="88" height="8"/></g><rect class="cls-2" x="843" y="80" width="140" height="8"/><g class="cls-3"><rect class="cls-2" x="843" y="88" width="140" height="8"/></g><rect class="cls-2" x="843" y="96" width="140" height="8"/><g class="cls-3"><rect class="cls-2" x="843" y="104" width="140" height="8"/></g><rect class="cls-2" x="843" y="112" width="140" height="8"/><g class="cls-3"><rect class="cls-2" x="843" y="120" width="140" height="8"/></g><rect class="cls-2" x="843" y="128" width="140" height="8"/><g class="cls-3"><rect class="cls-2" x="843" y="136" width="140" height="8"/></g><path class="cls-4" d="M696,1V223h-8V1h8m1-1H687V224h10V0Z"/><path class="cls-4" d="M722,1V223h-8V1h8m1-1H713V224h10V0Z"/><path class="cls-4" d="M748,1V223h-8V1h8m1-1H739V224h10V0Z"/><path class="cls-4" d="M774,1V223h-8V1h8m1-1H765V224h10V0Z"/><path class="cls-4" d="M800,1V223h-8V1h8m1-1H791V224h10V0Z"/><path class="cls-4" d="M826,1V223h-8V1h8m1-1H817V224h10V0Z"/><path class="cls-4" d="M852,1V223h-8V1h8m1-1H843V224h10V0Z"/><path class="cls-4" d="M878,1V223h-8V1h8m1-1H869V224h10V0Z"/><path class="cls-4" d="M904,1V223h-8V1h8m1-1H895V224h10V0Z"/><path class="cls-4" d="M930,1V223h-8V1h8m1-1H921V224h10V0Z"/><path class="cls-4" d="M956,1V223h-8V1h8m1-1H947V224h10V0Z"/><path class="cls-4" d="M982,1V223h-8V1h8m1-1H973V224h10V0Z"/><rect class="cls-5" x="775" width="16" height="250.48"/><line class="cls-6" x1="785.64" y1="244.39" x2="817" y2="244.39"/><g class="cls-13"><path class="cls-8" d="M785.64,247a2.64,2.64,0,1,0-2.64-2.64,2.64,2.64,0,0,0,2.64,2.64"/></g><text class="cls-9" transform="translate(834 250.25)">16<tspan class="cls-10" x="20.88" y="0">p</tspan><tspan x="30.28" y="0">x fi</tspan><tspan class="cls-11" x="53.08" y="0">x</tspan><tspan class="cls-12" x="61.61" y="0">ed margin</tspan></text></g></svg>