<svg xmlns="http://www.w3.org/2000/svg" viewBox="0 0 363.19 297.45"><defs><style>.cls-1{opacity:0.1;}.cls-2{fill:#333;}.cls-3{fill:#fff;}.cls-4{fill:#033e58;}.cls-5{fill:#093;}.cls-6{fill:#a8bd3a;}.cls-7{fill:#999;}.cls-11,.cls-13,.cls-14,.cls-15,.cls-8,.cls-9{fill:none;stroke-miterlimit:10;}.cls-8,.cls-9{stroke:#666;}.cls-8{stroke-width:2px;}.cls-10{fill:#ccc;}.cls-11{stroke:#fff;}.cls-12{fill:#f5f6ff;}.cls-13{stroke:#ccc;}.cls-14{stroke:#eee;}.cls-15{stroke:#4263c2;}.cls-16{fill:#dbfdea;}.cls-17{fill:#0f8243;}.cls-18{fill:#eee;}.cls-19{font-size:12px;font-family:Lato-Bold, Lato;font-weight:700;}</style></defs><title>eq-survey-thumbnails</title><g id="Layer_2" data-name="Layer 2"><g id="Layer_1-2" data-name="Layer 1"><g class="cls-1"><rect class="cls-2" x="133.19" y="23.61" width="100" height="107"/></g><rect class="cls-3" x="130.19" y="20.61" width="100" height="103.3"/><rect class="cls-4" x="130.31" y="32.61" width="99.76" height="6"/><rect class="cls-5" x="137.67" y="98.55" width="21.09" height="5"/><rect class="cls-4" x="136.59" y="32.61" width="7.01" height="2.72"/><polygon class="cls-4" points="141.11 29.03 137.11 29.03 141.11 25.03 141.11 29.03"/><polygon class="cls-6" points="137.11 25.03 141.11 25.03 137.11 29.03 137.11 25.03"/><rect class="cls-4" x="142.11" y="28.03" width="8" height="1"/><rect class="cls-7" x="142.11" y="25.98" width="2.66" height="1"/><line class="cls-8" x1="137.67" y1="47.79" x2="174.67" y2="47.79"/><line class="cls-9" x1="137.67" y1="54.29" x2="180.67" y2="54.29"/><line class="cls-9" x1="137.67" y1="56.29" x2="158.67" y2="56.29"/><rect class="cls-10" x="130.31" y="115.17" width="99.76" height="11.26"/><line class="cls-9" x1="137.67" y1="121.29" x2="158.67" y2="121.29"/><line class="cls-9" x1="159.67" y1="121.29" x2="169.67" y2="121.29"/><path class="cls-7" d="M229.07,21.61V126.17H131.31V21.61h97.76m1-1H130.31V127.17h99.76V20.61Z"/><line class="cls-11" x1="137.17" y1="35.34" x2="145.17" y2="35.34"/><line class="cls-11" x1="149.17" y1="35.34" x2="153.17" y2="35.34"/><line class="cls-11" x1="146.17" y1="35.34" x2="148.17" y2="35.34"/><rect class="cls-12" x="137.89" y="59.72" width="57.03" height="17"/><rect class="cls-4" x="137.89" y="59.72" width="1" height="17"/><line class="cls-9" x1="141.67" y1="63.29" x2="152.67" y2="63.29"/><line class="cls-13" x1="141.67" y1="67.29" x2="162.67" y2="67.29"/><line class="cls-13" x1="137.67" y1="82.29" x2="151.67" y2="82.29"/><line class="cls-13" x1="141.67" y1="69.29" x2="180.67" y2="69.29"/><line class="cls-13" x1="141.67" y1="71.29" x2="172.67" y2="71.29"/><rect class="cls-14" x="137.89" y="85.03" width="20.78" height="4" rx="0.5" ry="0.5"/><line class="cls-15" x1="137.57" y1="44.07" x2="143.17" y2="44.07"/><line class="cls-15" x1="137.57" y1="106.07" x2="143.17" y2="106.07"/><g class="cls-1"><rect class="cls-2" x="132.19" y="178.61" width="100" height="107"/></g><rect class="cls-3" x="129.19" y="175.61" width="100" height="103.3"/><rect class="cls-4" x="129.31" y="187.61" width="99.76" height="6"/><rect class="cls-4" x="135.59" y="187.61" width="7.01" height="2.72"/><polygon class="cls-4" points="140.11 184.03 136.11 184.03 140.11 180.03 140.11 184.03"/><polygon class="cls-6" points="136.11 180.03 140.11 180.03 136.11 184.03 136.11 180.03"/><rect class="cls-4" x="141.11" y="183.03" width="8" height="1"/><rect class="cls-7" x="141.11" y="180.98" width="2.66" height="1"/><line class="cls-8" x1="136.67" y1="202.79" x2="173.67" y2="202.79"/><rect class="cls-10" x="129.31" y="270.17" width="99.76" height="11.26"/><line class="cls-9" x1="136.67" y1="276.29" x2="157.67" y2="276.29"/><line class="cls-9" x1="158.67" y1="276.29" x2="168.67" y2="276.29"/><path class="cls-7" d="M228.07,176.61V281.17H130.31V176.61h97.76m1-1H129.31V282.17h99.76V175.61Z"/><line class="cls-11" x1="136.17" y1="190.34" x2="144.17" y2="190.34"/><line class="cls-11" x1="148.17" y1="190.34" x2="152.17" y2="190.34"/><line class="cls-11" x1="145.17" y1="190.34" x2="147.17" y2="190.34"/><rect class="cls-16" x="136.89" y="207.72" width="57.03" height="17"/><rect class="cls-17" x="136.89" y="207.72" width="1" height="17"/><line class="cls-9" x1="140.67" y1="211.29" x2="151.67" y2="211.29"/><line class="cls-13" x1="140.67" y1="215.29" x2="161.67" y2="215.29"/><line class="cls-13" x1="140.67" y1="217.29" x2="179.67" y2="217.29"/><line class="cls-13" x1="140.67" y1="219.29" x2="171.67" y2="219.29"/><g class="cls-1"><rect class="cls-2" x="263.19" y="23.61" width="100" height="88"/></g><rect class="cls-3" x="260.19" y="20.61" width="100" height="84.3"/><rect class="cls-4" x="260.31" y="32.61" width="99.76" height="6"/><rect class="cls-5" x="267.67" y="77.55" width="21.09" height="5"/><rect class="cls-4" x="266.59" y="32.61" width="7.01" height="2.72"/><polygon class="cls-4" points="271.11 29.03 267.11 29.03 271.11 25.03 271.11 29.03"/><polygon class="cls-6" points="267.11 25.03 271.11 25.03 267.11 29.03 267.11 25.03"/><rect class="cls-4" x="272.11" y="28.03" width="8" height="1"/><rect class="cls-7" x="272.11" y="25.98" width="2.66" height="1"/><line class="cls-8" x1="267.67" y1="47.79" x2="304.67" y2="47.79"/><line class="cls-9" x1="267.67" y1="54.29" x2="310.67" y2="54.29"/><line class="cls-9" x1="267.67" y1="56.29" x2="288.67" y2="56.29"/><rect class="cls-10" x="260.31" y="96.17" width="99.76" height="11.26"/><line class="cls-9" x1="267.67" y1="102.29" x2="288.67" y2="102.29"/><line class="cls-9" x1="289.67" y1="102.29" x2="299.67" y2="102.29"/><path class="cls-7" d="M359.07,21.61v85.56H261.31V21.61h97.76m1-1H260.31v87.56h99.76V20.61Z"/><line class="cls-11" x1="267.17" y1="35.34" x2="275.17" y2="35.34"/><line class="cls-11" x1="279.17" y1="35.34" x2="283.17" y2="35.34"/><line class="cls-11" x1="276.17" y1="35.34" x2="278.17" y2="35.34"/><line class="cls-15" x1="267.57" y1="44.07" x2="273.17" y2="44.07"/><line class="cls-15" x1="267.57" y1="85.07" x2="273.17" y2="85.07"/><line class="cls-13" x1="267.67" y1="60.29" x2="300.67" y2="60.29"/><line class="cls-13" x1="267.67" y1="62.29" x2="302.67" y2="62.29"/><line class="cls-13" x1="267.67" y1="64.29" x2="289.67" y2="64.29"/><line class="cls-13" x1="267.67" y1="66.29" x2="298.67" y2="66.29"/><g class="cls-1"><rect class="cls-2" x="3.19" y="23.61" width="100" height="118.84"/></g><rect class="cls-3" x="0.19" y="20.61" width="100" height="118.84"/><rect class="cls-4" x="0.19" y="32.61" width="100" height="16"/><rect class="cls-5" x="7.67" y="107.55" width="21.09" height="5"/><rect class="cls-4" x="6.59" y="32.61" width="7.01" height="2.72"/><polygon class="cls-4" points="11.11 29.03 7.11 29.03 11.11 25.03 11.11 29.03"/><polygon class="cls-6" points="7.11 25.03 11.11 25.03 7.11 29.03 7.11 25.03"/><rect class="cls-4" x="12.11" y="28.03" width="8" height="1"/><rect class="cls-7" x="12.11" y="25.98" width="2.66" height="1"/><line class="cls-14" x1="7.11" y1="59.15" x2="91.43" y2="58.76"/><line class="cls-14" x1="7.11" y1="78.28" x2="91.43" y2="77.88"/><line class="cls-14" x1="50.19" y1="59.48" x2="50.19" y2="78.08"/><line class="cls-13" x1="7.67" y1="62.29" x2="37.67" y2="62.29"/><line class="cls-13" x1="7.67" y1="64.29" x2="26.67" y2="64.29"/><line class="cls-13" x1="7.67" y1="66.29" x2="31.67" y2="66.29"/><line class="cls-13" x1="53.67" y1="62.29" x2="78.67" y2="62.29"/><line class="cls-13" x1="53.67" y1="64.29" x2="83.67" y2="64.29"/><line class="cls-13" x1="53.67" y1="66.29" x2="73.67" y2="66.29"/><line class="cls-13" x1="53.67" y1="70.29" x2="72.67" y2="70.29"/><line class="cls-13" x1="53.67" y1="72.29" x2="78.67" y2="72.29"/><line class="cls-13" x1="53.67" y1="74.29" x2="88.67" y2="74.29"/><line class="cls-13" x1="7.67" y1="70.29" x2="25.67" y2="70.29"/><line class="cls-13" x1="7.67" y1="72.29" x2="32.67" y2="72.29"/><line class="cls-13" x1="7.67" y1="74.29" x2="44.67" y2="74.29"/><line class="cls-13" x1="7.67" y1="90.29" x2="40.67" y2="90.29"/><line class="cls-13" x1="7.67" y1="92.29" x2="42.67" y2="92.29"/><line class="cls-13" x1="7.67" y1="94.29" x2="29.67" y2="94.29"/><line class="cls-13" x1="7.67" y1="96.29" x2="38.67" y2="96.29"/><line class="cls-13" x1="7.67" y1="98.29" x2="36.67" y2="98.29"/><line class="cls-13" x1="7.67" y1="100.29" x2="44.67" y2="100.29"/><line class="cls-9" x1="7.67" y1="53.29" x2="50.67" y2="53.29"/><line class="cls-9" x1="7.67" y1="55.29" x2="28.67" y2="55.29"/><line class="cls-9" x1="7.67" y1="84.29" x2="50.67" y2="84.29"/><line class="cls-9" x1="7.67" y1="86.29" x2="28.67" y2="86.29"/><rect class="cls-10" y="127.17" width="100.41" height="11.26"/><line class="cls-9" x1="7.67" y1="133.29" x2="28.67" y2="133.29"/><line class="cls-9" x1="29.67" y1="133.29" x2="39.67" y2="133.29"/><path class="cls-7" d="M99.19,21.61V138.45h-98V21.61h98m1-1H.19V139.45h100V20.61Z"/><path class="cls-3" d="M25.23,43.07H41.75v2H25.23Z"/><path class="cls-3" d="M7.47,43.07h8v2h-8Z"/><path class="cls-3" d="M17.47,43.07h6v2h-6Z"/><path class="cls-3" d="M43.75,43.07H58.49v2H43.75Z"/><g class="cls-1"><rect class="cls-2" x="3.19" y="178.61" width="100" height="118.84"/></g><rect class="cls-3" x="0.19" y="175.61" width="100" height="118.84"/><rect class="cls-4" x="0.19" y="187.61" width="100" height="16"/><rect class="cls-5" x="7.67" y="266.55" width="21.09" height="5"/><rect class="cls-4" x="6.59" y="187.61" width="7.01" height="2.72"/><polygon class="cls-4" points="11.11 184.03 7.11 184.03 11.11 180.03 11.11 184.03"/><polygon class="cls-6" points="7.11 180.03 11.11 180.03 7.11 184.03 7.11 180.03"/><rect class="cls-4" x="12.11" y="183.03" width="8" height="1"/><rect class="cls-7" x="12.11" y="180.98" width="2.66" height="1"/><line class="cls-9" x1="7.67" y1="208.29" x2="50.67" y2="208.29"/><line class="cls-9" x1="7.67" y1="210.29" x2="28.67" y2="210.29"/><rect class="cls-10" y="282.17" width="100.41" height="11.26"/><line class="cls-9" x1="7.67" y1="288.29" x2="28.67" y2="288.29"/><line class="cls-9" x1="29.67" y1="288.29" x2="39.67" y2="288.29"/><path class="cls-7" d="M99.19,176.61V293.45h-98V176.61h98m1-1H.19V294.45h100V175.61Z"/><path class="cls-3" d="M25.23,198.07H41.75v2H25.23Z"/><path class="cls-3" d="M7.47,198.07h8v2h-8Z"/><path class="cls-3" d="M17.47,198.07h6v2h-6Z"/><path class="cls-3" d="M43.75,198.07H58.49v2H43.75Z"/><rect class="cls-18" x="7.69" y="213.22" width="85" height="6.04"/><line class="cls-14" x1="82.22" y1="217.19" x2="82.22" y2="225.39"/><line class="cls-14" x1="8.22" y1="217.19" x2="8.22" y2="225.39"/><line class="cls-14" x1="92.22" y1="217.19" x2="92.22" y2="225.39"/><line class="cls-13" x1="9.67" y1="222.29" x2="42.67" y2="222.29"/><line class="cls-14" x1="7.59" y1="225.39" x2="92.59" y2="225.39"/><line class="cls-9" x1="9.67" y1="216.29" x2="30.67" y2="216.29"/><line class="cls-15" x1="84.68" y1="222.07" x2="89.68" y2="222.07"/><rect class="cls-18" x="7.69" y="225.22" width="85" height="6.04"/><line class="cls-14" x1="82.22" y1="229.19" x2="82.22" y2="237.39"/><line class="cls-14" x1="8.22" y1="229.19" x2="8.22" y2="237.39"/><line class="cls-14" x1="92.22" y1="229.19" x2="92.22" y2="237.39"/><line class="cls-13" x1="9.67" y1="234.29" x2="42.67" y2="234.29"/><line class="cls-14" x1="7.59" y1="237.39" x2="92.59" y2="237.39"/><line class="cls-9" x1="9.67" y1="228.29" x2="30.67" y2="228.29"/><line class="cls-15" x1="84.68" y1="234.07" x2="89.68" y2="234.07"/><rect class="cls-18" x="7.69" y="237.22" width="85" height="6.04"/><line class="cls-14" x1="82.22" y1="241.19" x2="82.22" y2="249.39"/><line class="cls-14" x1="8.22" y1="241.19" x2="8.22" y2="249.39"/><line class="cls-14" x1="92.22" y1="241.19" x2="92.22" y2="249.39"/><line class="cls-13" x1="9.67" y1="246.29" x2="42.67" y2="246.29"/><line class="cls-15" x1="84.68" y1="246.07" x2="89.68" y2="246.07"/><line class="cls-14" x1="7.67" y1="249.39" x2="92.67" y2="249.39"/><rect class="cls-18" x="7.69" y="249.22" width="85" height="6.04"/><line class="cls-14" x1="82.22" y1="253.19" x2="82.22" y2="261.39"/><line class="cls-14" x1="8.22" y1="253.19" x2="8.22" y2="261.39"/><line class="cls-14" x1="92.22" y1="253.19" x2="92.22" y2="261.39"/><line class="cls-13" x1="9.67" y1="258.29" x2="42.67" y2="258.29"/><line class="cls-15" x1="84.68" y1="258.07" x2="89.68" y2="258.07"/><line class="cls-14" x1="7.67" y1="261.39" x2="92.67" y2="261.39"/><line class="cls-9" x1="9.67" y1="240.29" x2="30.67" y2="240.29"/><line class="cls-9" x1="9.67" y1="252.29" x2="30.67" y2="252.29"/><text class="cls-19" transform="translate(1.27 10.34)">1</text><text class="cls-19" transform="translate(130.19 10.34)">2</text><text class="cls-19" transform="translate(260.31 10.34)">3</text><text class="cls-19" transform="translate(1.27 165.61)">4</text><text class="cls-19" transform="translate(130.19 165.61)">5</text></g></g></svg>