<svg id="Layer_1" data-name="Layer 1" xmlns="http://www.w3.org/2000/svg" viewBox="0 0 376 288"><defs><style>.cls-1{fill:#333;}.cls-2{fill:#676767;}.cls-3{fill:#999;}.cls-4{fill:#cdcccc;}.cls-5{fill:#eee;}.cls-6,.cls-8,.cls-9{fill:#fff;}.cls-7,.cls-8{font-size:12px;}.cls-7{fill:#1d1d1b;}.cls-7,.cls-8,.cls-9{font-family:Lato;font-weight:700;}.cls-9{font-size:11.25px;}</style></defs><title>survey-model</title><path class="cls-1" d="M376,0H0V288H376V0h0Z"/><rect class="cls-2" x="16" y="16" width="344" height="256"/><path class="cls-2" d="M344,32V256H32V32H344M376,0H0V288H376V0h0Z"/><rect class="cls-3" x="48" y="48" width="280" height="192"/><path class="cls-3" d="M312,64V224H64V64H312m32-32H32V256H344V32h0Z"/><rect class="cls-4" x="80" y="80" width="216" height="128"/><path class="cls-4" d="M280,96v96H96V96H280m32-32H64V224H312V64h0Z"/><path class="cls-5" d="M280,96H96v96H280V96Z"/><rect class="cls-6" x="128" y="128" width="120" height="32"/><text class="cls-7" transform="translate(138 147.06)">Response</text><text class="cls-7" transform="translate(106 114.87)">Question</text><text class="cls-7" transform="translate(74.31 82.87)">Section</text><text class="cls-8" transform="translate(42.31 51.65)">Block</text><text class="cls-9" transform="translate(10 19.76) scale(1.07 1)">Group</text></svg>