<svg id="icon-twitter" xmlns="http://www.w3.org/2000/svg" viewBox="0 0 32 32"><path d="M24.04,12.95c0,0.17,0,0.33,0,0.5c0.01,4.01-2.17,7.71-5.69,9.64c-3.52,1.93-7.81,1.78-11.19-0.38c0.31,0.04,0.61,0.05,0.92,0.05c1.73,0,3.42-0.58,4.78-1.65c-1.65-0.04-3.09-1.11-3.6-2.68c0.25,0.05,0.51,0.07,0.76,0.07c0.34,0,0.68-0.05,1.01-0.14C9.23,18,7.93,16.4,7.95,14.55v-0.05c0.54,0.29,1.13,0.46,1.74,0.48c-1.66-1.12-2.2-3.33-1.23-5.08c1.96,2.41,4.85,3.87,7.95,4.03c-0.07-0.29-0.1-0.58-0.1-0.88c0-1.58,0.97-3,2.44-3.59c1.47-0.58,3.15-0.21,4.23,0.94c0.86-0.17,1.69-0.49,2.45-0.94c-0.28,0.9-0.88,1.65-1.69,2.13c0.76-0.09,1.51-0.29,2.21-0.6C25.43,11.76,24.79,12.42,24.04,12.95zM16,0C7.16,0,0,7.16,0,16s7.16,16,16,16s16-7.16,16-16c0-4.24-1.69-8.31-4.69-11.31S20.24,0,16,0z"/></svg>
