<svg id="icon-instagram" xmlns="http://www.w3.org/2000/svg" viewBox="0 0 32 32"><path d="M21.34,9.46c0.66,0,1.2,0.54,1.2,1.2c0,0.66-0.54,1.2-1.2,1.2c-0.66,0-1.2-0.54-1.2-1.2C20.14,10,20.68,9.46,21.34,9.46z M16,12.67c-1.84,0-3.33,1.49-3.33,3.33c0,1.84,1.49,3.33,3.33,3.33c1.84,0,3.33-1.49,3.33-3.33C19.33,14.16,17.84,12.67,16,12.67z M16,10.86c2.84,0,5.14,2.3,5.14,5.14c0,2.84-2.3,5.14-5.14,5.14c-2.84,0-5.14-2.3-5.14-5.14C10.86,13.16,13.16,10.86,16,10.86z M16.56,7.8h-1.11c-2.17,0-2.51,0.01-3.49,0.06c-0.97,0.04-1.5,0.21-1.86,0.34C9.64,8.39,9.3,8.6,8.95,8.95C8.6,9.3,8.39,9.64,8.2,10.1c-0.14,0.35-0.3,0.88-0.34,1.86c-0.04,0.98-0.06,1.32-0.06,3.49v1.11c0,2.17,0.01,2.51,0.06,3.49c0.04,0.97,0.21,1.5,0.34,1.86c0.18,0.47,0.4,0.8,0.75,1.15c0.35,0.35,0.68,0.57,1.15,0.75c0.35,0.14,0.88,0.3,1.86,0.34c0.94,0.04,1.29,0.06,3.23,0.06h1.61c1.94,0,2.3-0.02,3.23-0.06c0.97-0.04,1.5-0.21,1.86-0.34c0.47-0.18,0.8-0.4,1.15-0.75c0.35-0.35,0.57-0.68,0.75-1.15c0.14-0.35,0.3-0.88,0.34-1.86c0.04-0.94,0.06-1.29,0.06-3.23v-1.61c0-1.94-0.02-2.3-0.06-3.23c-0.04-0.97-0.21-1.5-0.34-1.86c-0.18-0.47-0.4-0.8-0.75-1.15C22.7,8.6,22.36,8.39,21.9,8.2c-0.35-0.14-0.88-0.3-1.86-0.34C19.06,7.82,18.72,7.8,16.56,7.8z M17.03,6c1.8,0,2.18,0.02,3.1,0.06c1.06,0.05,1.79,0.22,2.43,0.46c0.66,0.26,1.22,0.6,1.77,1.15c0.56,0.56,0.9,1.11,1.15,1.77c0.25,0.64,0.42,1.36,0.46,2.43c0.05,0.99,0.06,1.35,0.06,3.58v1.09c0,2.22-0.01,2.59-0.06,3.58c-0.05,1.06-0.22,1.79-0.46,2.43c-0.26,0.66-0.6,1.22-1.15,1.77c-0.56,0.56-1.11,0.9-1.77,1.15c-0.64,0.25-1.36,0.42-2.43,0.46C19.13,25.99,18.77,26,16.55,26h-1.09c-2.22,0-2.59-0.01-3.58-0.06c-1.06-0.05-1.79-0.22-2.43-0.46c-0.66-0.26-1.22-0.6-1.77-1.15c-0.56-0.56-0.9-1.11-1.15-1.77c-0.25-0.64-0.42-1.36-0.46-2.43C6.02,19.21,6,18.83,6,17.03v-2.06c0-1.8,0.02-2.18,0.06-3.1c0.05-1.06,0.22-1.79,0.46-2.43c0.26-0.66,0.6-1.22,1.15-1.77c0.56-0.56,1.11-0.9,1.77-1.15c0.64-0.25,1.36-0.42,2.43-0.46C12.79,6.02,13.17,6,14.97,6H17.03z M16,0C7.16,0,0,7.16,0,16s7.16,16,16,16s16-7.16,16-16c0-4.24-1.69-8.31-4.69-11.31S20.24,0,16,0z"/></svg>
