<svg xmlns="http://www.w3.org/2000/svg" width="228px" height="32px" viewBox="0 0 228 32">
<title>It’s about us</title>
<path fill="#E897DE" d="M153,8.7c-1.4,0-2.5,1.1-2.5,2.5l0,0v8.5c0,3.3-2.7,6-6,6s-6-2.7-6-6v-8.5c0-1.4-1.1-2.5-2.5-2.5c-1.4,0-2.5,1.1-2.5,2.5v8.5c0.1,6.1,5.2,11,11.3,10.9c6-0.1,10.8-4.9,10.9-10.9v-8.5C155.5,9.9,154.4,8.7,153,8.7L153,8.7 M38.5,17.8c-3.6-0.8-5-1-5-2.4s1.8-2,3.8-2c1,0,2,0.2,2.9,0.6c0.3,0.2,0.7,0.2,1,0.3c1.3,0,2.4-1,2.4-2.4l0,0c0-1-0.7-1.9-1.7-2.3c-1.5-0.5-3.1-0.9-4.6-0.9c-5.8,0-9.1,3.3-9.1,6.6c0,4,3.7,5.8,7.9,6.7c3.2,0.7,4.2,1,4.2,2.4c0,1.3-1.8,1.9-4,1.9c-2,0-3.5-0.8-4.8-1.5c-1.2-0.5-2.6,0.1-3.1,1.3c-0.1,0.3-0.2,0.6-0.2,0.9c0,0.9,0.5,1.7,1.3,2.2c2.1,1.2,4.5,1.8,6.9,1.8c5.4,0,9.3-2.9,9.3-6.6C45.7,20.1,42.7,18.7,38.5,17.8 M205.6,8.7c-1.4,0-2.5,1.1-2.5,2.5l0,0v8.5c0,3.3-2.7,6-6,6c-3.3,0-6-2.7-6-6v-8.5c0-1.4-1.1-2.5-2.5-2.5s-2.5,1.1-2.5,2.5v8.5c0,6.1,5,11.1,11.1,11.1s11.1-5,11.1-11.1v-8.5C208,9.9,206.9,8.7,205.6,8.7L205.6,8.7 M213.9,24.8L213.9,24.8 M220.8,17.8c-3.6-0.8-5-1-5-2.4s1.8-2,3.8-2c1,0,2,0.2,2.9,0.6c0.3,0.2,0.7,0.2,1,0.3c1.3,0,2.4-1,2.4-2.4l0,0c0-1-0.7-1.9-1.7-2.3c-1.5-0.5-3.1-0.9-4.6-0.9c-5.8,0-9.1,3.3-9.1,6.6c0,4,3.7,5.8,7.9,6.7c3.2,0.7,4.2,1,4.2,2.4c0,1.3-1.8,1.9-4,1.9c-2,0-3.5-0.8-4.8-1.5c-1.2-0.5-2.6,0.1-3.1,1.3c-0.1,0.3-0.2,0.6-0.2,0.9c0,0.9,0.5,1.7,1.3,2.2c2.1,1.2,4.5,1.8,6.9,1.8c5.4,0,9.3-2.9,9.3-6.6C228.1,20.1,225.1,18.7,220.8,17.8 M213.9,24.8L213.9,24.8 M30.4,7.9L30.4,7.9c0.9-1,1.3-2.4,1.3-3.8V3c0-0.8-0.3-1.6-0.9-2.1c-1.1-1.1-3-1.1-4.1,0c-0.5,0.5-0.9,1.3-0.9,2.1s0.3,1.6,0.9,2.1c0.4,0.4,1,0.7,1.6,0.8C28.2,6,28.1,6.1,28,6.2c-0.2,0.2-0.5,0.3-0.8,0.3c-0.9,0-1.6,0.6-1.7,1.5c0,0.9,0.6,1.6,1.5,1.7c0.1,0,0.1,0,0.2,0C28.4,9.6,29.5,9.1,30.4,7.9 M24.1,26.6c-0.4-0.4-1-0.8-1.7-0.7c-1,0-2.1-0.3-3-0.8s-1.7-1.3-2.2-2.2c-0.5-0.9-0.8-1.9-0.8-3V13h4.3c1.3,0,2.4-1.1,2.4-2.4c0-0.7-0.3-1.3-0.8-1.7c-0.5-0.4-1.1-0.7-1.8-0.7h-4.1V4.7c0-0.6-0.3-1.2-0.7-1.7c-1-1-2.4-1-3.4,0l0,0c-0.4,0.4-0.7,1-0.7,1.7v3.5h-0.7c-0.6,0-1.2,0.3-1.7,0.7c-1,1-1,2.4,0,3.4l0,0c0.4,0.4,1,0.7,1.7,0.7h0.7v6.9c0,1.9,0.5,3.8,1.5,5.4c1,1.7,2.4,3,3.9,3.9c1.7,1,3.5,1.5,5.4,1.5c0.7,0,1.3-0.3,1.7-0.7C25.1,29.1,25.1,27.6,24.1,26.6L24.1,26.6z M3.1,0C2.3,0,1.5,0.3,0.9,0.9S0,2.3,0,3.1s0.3,1.6,0.9,2.1c0.5,0.6,1.3,1,2.2,1c0.8,0,1.6-0.3,2.1-0.9C5.8,4.7,6,3.9,6,3.1c0.1-0.9-0.3-1.7-0.8-2.3C4.6,0.3,3.8,0,3.1,0 M3.1,8.2c-0.6,0-1.3,0.3-1.7,0.7s-0.7,1-0.7,1.7v17.6c0,0.6,0.3,1.2,0.7,1.7c0.4,0.4,1,0.8,1.7,0.7c0.6,0,1.3-0.3,1.7-0.7c0.4-0.4,0.7-1,0.7-1.7V10.7c0-0.6-0.3-1.2-0.7-1.7C4.3,8.5,3.7,8.2,3.1,8.2 M99.8,9.6L99.8,9.6c-3.8-2.3-8.6-2-12.3,0.5V4.6c0-0.6-0.3-1.2-0.7-1.7c-0.4-0.4-1-0.8-1.7-0.7c-0.6,0-1.3,0.3-1.7,0.7c-0.4,0.4-0.7,1-0.7,1.7v23.7c0,1.3,1.1,2.4,2.4,2.4c0.7,0,1.3-0.3,1.7-0.7c0.3-0.3,0.5-0.8,0.7-1.2c3.7,2.5,8.5,2.8,12.3,0.5c1.7-1,3.1-2.4,4.1-4.2c2.1-3.6,2.1-7.9,0-11.5C103,12.1,101.6,10.6,99.8,9.6 M97.4,25.2L97.4,25.2c-3.1,1.8-7.1,0.8-8.9-2.4s-0.8-7.1,2.4-8.9c3.1-1.8,7.1-0.8,8.9,2.4c1.1,2,1.1,4.5,0,6.6C99.2,23.8,98.4,24.6,97.4,25.2 M124.8,9.6L124.8,9.6c-3.6-2.1-7.9-2.1-11.4,0c-1.7,1-3.1,2.4-4.2,4.2c-2.1,3.6-2.1,7.9,0,11.4c1,1.7,2.4,3.1,4.2,4.2c3.6,2.1,7.9,2.1,11.5,0c1.7-1,3.1-2.4,4.2-4.2c2.1-3.6,2.1-7.9,0-11.5C127.9,12.1,126.5,10.6,124.8,9.6 M122.3,25.2L122.3,25.2c-3.1,1.8-7.1,0.7-8.9-2.4s-0.7-7.1,2.4-8.9s7.1-0.7,8.9,2.4c1.1,2,1.1,4.5,0,6.5C124.1,23.8,123.4,24.6,122.3,25.2 M173.2,26.6c-0.4-0.4-1-0.7-1.7-0.7c-1,0-2.1-0.3-3-0.8c-0.9-0.5-1.7-1.3-2.2-2.2c-0.5-0.9-0.8-1.9-0.8-3V13h4.3c1.3,0,2.4-1.1,2.4-2.4c0-0.7-0.3-1.3-0.8-1.7s-1.1-0.7-1.8-0.7h-4.1V4.7c0-0.6-0.3-1.2-0.7-1.7c-1-1-2.4-1-3.4,0l0,0c-0.4,0.4-0.7,1-0.7,1.7v3.5H160c-0.6,0-1.2,0.3-1.7,0.7c-1,1-1,2.4,0,3.4l0,0c0.4,0.4,1,0.7,1.7,0.7h0.7v6.9c0,1.9,0.5,3.8,1.5,5.4c1,1.7,2.4,3,3.9,3.9c1.7,1,3.5,1.5,5.4,1.5c0.7,0,1.3-0.3,1.7-0.7C174.1,29.1,174.1,27.6,173.2,26.6L173.2,26.6z M63,19.4c0-3.4,2.8-6.2,6.2-6.2c1.6,0,3.1,0.6,4.3,1.7v8.9c-1.1,1.1-2.7,1.7-4.3,1.7C65.8,25.6,63,22.8,63,19.4 M76.1,8.1c-0.8,0-1.6,0.3-2.1,1c-5.7-2.7-12.5-0.3-15.1,5.4S58.6,27,64.3,29.6c3.1,1.5,6.6,1.5,9.7,0c0.9,1.1,2.4,1.4,3.6,0.5c0.7-0.5,1-1.2,1-2.1V10.7C78.6,9.3,77.5,8.1,76.1,8.1"></path>
</svg>
