<svg xmlns="http://www.w3.org/2000/svg" width="261px" height="36px" viewBox="0 0 261 36">
<title>It’s about us</title>
<path fill="#902082" style="opacity:0.7" d="M175,10.3c-1.6,0-2.9,1.3-2.9,2.9c0,0,0,0,0,0v9.7c0,3.8-3.1,6.9-6.9,6.9c-3.8,0-6.9-3.1-6.9-6.9v-9.7
	c0-1.6-1.3-2.9-2.9-2.9c-1.6,0-2.9,1.3-2.9,2.9v9.7c0.1,7,5.9,12.6,12.9,12.5c6.9-0.1,12.4-5.6,12.5-12.5v-9.7
	C177.9,11.6,176.6,10.3,175,10.3C175,10.3,175,10.3,175,10.3 M44.1,20.7c-4.1-0.9-5.7-1.2-5.7-2.7s2.1-2.3,4.4-2.3
	c1.1,0,2.3,0.2,3.3,0.7c0.4,0.2,0.8,0.2,1.2,0.3c1.5,0,2.7-1.2,2.7-2.7c0,0,0,0,0,0c0-1.2-0.8-2.2-1.9-2.6c-1.7-0.6-3.5-1-5.3-1
	c-6.6,0-10.4,3.8-10.4,7.6c0,4.6,4.2,6.6,9,7.7c3.7,0.8,4.8,1.1,4.8,2.7c0,1.5-2.1,2.2-4.6,2.2c-2.3,0-4-0.9-5.5-1.7
	c-1.4-0.6-3,0.1-3.5,1.5c-0.1,0.3-0.2,0.7-0.2,1c0,1,0.6,2,1.5,2.5c2.4,1.4,5.1,2.1,7.9,2.1c6.2,0,10.6-3.3,10.6-7.5
	C52.3,23.3,48.9,21.7,44.1,20.7 M235.2,10.3c-1.6,0-2.9,1.3-2.9,2.9c0,0,0,0,0,0v9.7c0,3.8-3.1,6.9-6.9,6.9s-6.9-3.1-6.9-6.9v-9.7
	c0-1.6-1.3-2.9-2.9-2.9s-2.9,1.3-2.9,2.9v9.7c0,7,5.7,12.7,12.7,12.7c7,0,12.7-5.7,12.7-12.7v-9.7C238,11.6,236.7,10.3,235.2,10.3
	C235.2,10.3,235.2,10.3,235.2,10.3 M244.7,28.7L244.7,28.7 M252.7,20.7c-4.1-0.9-5.7-1.2-5.7-2.7s2.1-2.3,4.4-2.3
	c1.1,0,2.3,0.2,3.3,0.7c0.4,0.2,0.8,0.2,1.2,0.3c1.5,0,2.7-1.2,2.7-2.7c0,0,0,0,0,0c0-1.2-0.8-2.2-1.9-2.6c-1.7-0.6-3.5-1-5.3-1
	c-6.6,0-10.4,3.8-10.4,7.6c0,4.6,4.2,6.6,9,7.7c3.7,0.8,4.8,1.1,4.8,2.7c0,1.5-2.1,2.2-4.6,2.2c-2.3,0-4-0.9-5.5-1.7
	c-1.4-0.6-3,0.1-3.5,1.5c-0.1,0.3-0.2,0.7-0.2,1c0,1,0.6,2,1.5,2.5c2.4,1.4,5.1,2.1,7.9,2.1c6.2,0,10.6-3.3,10.6-7.5
	C261,23.3,257.6,21.7,252.7,20.7 M244.7,28.7L244.7,28.7 M34.8,9.4L34.8,9.4c1-1.2,1.5-2.7,1.5-4.3V3.7c0-0.9-0.4-1.8-1-2.4
	C34,0,31.9,0,30.6,1.3c-0.6,0.6-1,1.5-1,2.4c0,0.9,0.3,1.8,1,2.4c0.5,0.5,1.1,0.8,1.8,0.9c-0.1,0.2-0.2,0.3-0.4,0.4
	c-0.2,0.2-0.6,0.4-0.9,0.4c-1,0-1.8,0.7-1.9,1.7c0,1,0.7,1.8,1.7,1.9c0.1,0,0.1,0,0.2,0C32.5,11.3,33.8,10.7,34.8,9.4 M27.6,30.8
	c-0.5-0.5-1.2-0.9-2-0.8c-1.2,0-2.4-0.3-3.4-0.9c-1-0.6-1.9-1.5-2.5-2.5c-0.6-1-0.9-2.2-0.9-3.4v-7.9h4.9c1.5,0,2.8-1.3,2.8-2.8
	c0-0.8-0.3-1.5-0.9-2c-0.6-0.5-1.3-0.8-2.1-0.8h-4.7v-4c0-0.7-0.3-1.4-0.8-2c-1.1-1.1-2.8-1.1-3.9,0c0,0,0,0,0,0
	c-0.5,0.5-0.8,1.2-0.8,2v4h-0.8c-0.7,0-1.4,0.3-2,0.8c-1.1,1.1-1.1,2.8,0,3.9c0,0,0,0,0,0c0.5,0.5,1.2,0.8,2,0.8h0.8v7.9
	c0,2.2,0.6,4.3,1.7,6.2c1.1,1.9,2.7,3.4,4.5,4.5c1.9,1.1,4,1.7,6.2,1.7c0.8,0,1.5-0.3,2-0.8C28.7,33.6,28.7,31.9,27.6,30.8
	L27.6,30.8z M3.5,0.3C2.6,0.3,1.7,0.6,1,1.3C0.4,2,0,2.9,0,3.8c0,0.9,0.4,1.8,1,2.4c0.6,0.7,1.5,1.1,2.5,1.1c0.9,0,1.8-0.4,2.4-1
	c0.7-0.6,1-1.5,1-2.4C7,2.9,6.6,2,6,1.3C5.3,0.6,4.4,0.3,3.5,0.3 M3.5,9.7c-0.7,0-1.5,0.3-2,0.8c-0.5,0.5-0.8,1.2-0.8,2v20.2
	c0,0.7,0.3,1.4,0.8,2c0.5,0.5,1.2,0.9,2,0.8c0.7,0,1.5-0.3,2-0.8c0.5-0.5,0.8-1.2,0.8-2V12.5c0-0.7-0.3-1.4-0.8-2
	C4.9,10,4.2,9.7,3.5,9.7 M114.3,11.3L114.3,11.3c-4.4-2.6-9.9-2.3-14.1,0.6V5.6c0-0.7-0.3-1.4-0.8-2c-0.5-0.5-1.2-0.9-2-0.8
	c-0.7,0-1.5,0.3-2,0.8c-0.5,0.5-0.8,1.2-0.8,2v27.1c0,1.5,1.3,2.8,2.8,2.8c0.8,0,1.5-0.3,2-0.8c0.4-0.4,0.6-0.9,0.8-1.4
	c4.2,2.9,9.7,3.2,14.1,0.6c2-1.1,3.6-2.8,4.7-4.8c2.4-4.1,2.4-9.1,0-13.2C117.9,14.1,116.3,12.4,114.3,11.3 M111.5,29.1L111.5,29.1
	c-3.6,2.1-8.1,0.9-10.2-2.7s-0.9-8.1,2.7-10.2c3.6-2.1,8.1-0.9,10.2,2.7c1.3,2.3,1.3,5.2,0,7.5C113.6,27.5,112.6,28.5,111.5,29.1
	 M142.7,11.3L142.7,11.3c-4.1-2.4-9.1-2.4-13.1,0c-2,1.1-3.6,2.8-4.8,4.8c-2.4,4.1-2.4,9.1,0,13.1c1.1,2,2.8,3.6,4.8,4.8
	c4.1,2.4,9.1,2.4,13.2,0c2-1.1,3.6-2.8,4.8-4.8c2.4-4.1,2.4-9.1,0-13.2C146.3,14.1,144.7,12.4,142.7,11.3 M139.9,29.1L139.9,29.1
	c-3.6,2.1-8.1,0.8-10.2-2.7c-2.1-3.6-0.8-8.1,2.7-10.2s8.1-0.8,10.2,2.7c1.3,2.3,1.3,5.1,0,7.4C142,27.5,141.1,28.5,139.9,29.1
	 M198.1,30.8c-0.5-0.5-1.2-0.8-2-0.8c-1.2,0-2.4-0.3-3.4-0.9c-1-0.6-1.9-1.5-2.5-2.5c-0.6-1-0.9-2.2-0.9-3.4v-7.9h4.9
	c1.5,0,2.8-1.3,2.8-2.8c0-0.8-0.3-1.5-0.9-2c-0.6-0.5-1.3-0.8-2.1-0.8h-4.7v-4c0-0.7-0.3-1.4-0.8-2c-1.1-1.1-2.8-1.1-3.9,0
	c0,0,0,0,0,0c-0.5,0.5-0.8,1.2-0.8,2v4h-0.8c-0.7,0-1.4,0.3-2,0.8c-1.1,1.1-1.1,2.8,0,3.9c0,0,0,0,0,0c0.5,0.5,1.2,0.8,2,0.8h0.8
	v7.9c0,2.2,0.6,4.3,1.7,6.2c1.1,1.9,2.7,3.4,4.5,4.5c1.9,1.1,4,1.7,6.2,1.7c0.8,0,1.5-0.3,2-0.8C199.2,33.6,199.2,31.9,198.1,30.8
	L198.1,30.8z M72.1,22.5c0-3.9,3.2-7.1,7.1-7.1c1.8,0,3.6,0.7,4.9,2v10.2c-1.3,1.3-3.1,2-4.9,2C75.3,29.6,72.1,26.4,72.1,22.5
	 M87.1,9.6c-0.9,0-1.8,0.4-2.4,1.2c-6.5-3.1-14.3-0.3-17.3,6.2s-0.3,14.3,6.2,17.3c3.5,1.7,7.6,1.7,11.1,0c1,1.3,2.8,1.6,4.1,0.6
	c0.8-0.6,1.2-1.4,1.2-2.4v-20C90,10.9,88.7,9.6,87.1,9.6"/>
</svg>
