<?xml version="1.0" encoding="utf-8"?>
<!-- Generator: Adobe Illustrator 21.0.0, SVG Export Plug-In . SVG Version: 6.00 Build 0)  -->
<svg version="1.1" id="Layer_1" xmlns="http://www.w3.org/2000/svg" xmlns:xlink="http://www.w3.org/1999/xlink" x="0px" y="0px"
	 viewBox="0 0 237 47" style="enable-background:new 0 0 237 47;" xml:space="preserve">
<style type="text/css">
	.st0{fill:#A8BD39;}
	.st2{fill:#FFFFFF;}
	.st3{fill:#A8BD39;}
	.st4{fill:#033E58;}
	.st5{fill:#08446A;}
</style>
<path id="Fill-1" class="st0" d="M0,28.8c3.3-6.7,2.3-1.6,0-11.1C0,21.5,0,25.6,0,28.8"/>
<path id="Fill-3" class="st3" d="M4.4,0.7c-7.3,0-3.8,15.6-1.2,22.3c2.4-3.8,5.3-7.3,8.9-10.3c7-6,16.5-10.2,29.3-12H4.4z"/>
<path id="Fill-6" class="st4" d="M8.5,34.7c-1.7-2-3.1-4.1-4.4-6.4c-1.6,3-2.9,6.2-4.1,9.5v9L29.3,47C20.2,44.8,13.3,40.4,8.5,34.7"
	/>
<path id="Fill-8" class="st4" d="M46.1,3.7C31.5,5.1,21.5,9.2,14.3,15.4c-3.8,3.3-6.9,7.2-9.4,11.5C12,40.7,26.3,47,40.9,47
	c0,0,5.5,0.2,5.5-5.9V3.6C46.3,3.6,46.2,3.7,46.1,3.7"/>
<path id="Fill-11" class="st5" d="M64.1,19.9c-3.4,0-4.5-3.6-4.5-6.9c0-3.3,1.2-6.9,4.5-6.9c3.3,0,4.5,3.6,4.5,6.9
	C68.6,16.3,67.5,19.9,64.1,19.9 M64.1,4.8c-4.5,0-6.5,3.8-6.5,8.3c0,4.6,2,8.3,6.5,8.3c4.5,0,6.5-3.7,6.5-8.3
	C70.6,8.6,68.6,4.8,64.1,4.8"/>
<path id="Fill-13" class="st5" d="M74.3,21.1h1.8V9.7h2.6V8.6h-2.6c0-2.1-0.4-4.5,2.6-4.5V2.9c-5-0.5-4.4,4.4-4.4,5.7h-1.9v1.1h1.9
	V21.1z"/>
<path id="Fill-15" class="st5" d="M86.3,8.6h-2.6c0-2.5-0.2-4.5,2.6-4.5V2.9c-5-0.5-4.4,4.4-4.4,5.7H80v1.1h1.9v11.4h1.8V9.7h2.6
	V8.6z"/>
<path id="Fill-17" class="st5" d="M89.2,6.2c1.5,0,1.5-2.2,0-2.2C87.7,4,87.7,6.2,89.2,6.2"/>
<polygon id="Fill-19" class="st5" points="88.3,21.1 90.2,21.1 90.2,8.6 88.3,8.6 "/>
<path id="Fill-21" class="st5" d="M100.6,19.3c-0.5,0.3-1.3,0.7-2.2,0.7c-5,0-5.2-10.4,0.1-10.4c1,0,1.8,0.4,2.2,0.7l0.5-1.1
	c-0.5-0.4-1.5-0.9-3.1-0.9c-7.2,0-7,13.1-0.1,13.1c1.5,0,2.6-0.4,3.1-0.9L100.6,19.3z"/>
<path id="Fill-22" class="st5" d="M107.7,9.5c2,0,3.4,1.2,3.4,4.1l-7.1,1C104,11.1,105.7,9.5,107.7,9.5 M104.1,15.6l8.8-1.2
	c0-4.2-1.9-6.1-5.1-6.1c-3.1,0-5.4,2.2-5.4,6.5c0,8.2,8,6.9,10.1,5.7l-0.5-1.3C109.5,20.5,104.5,20.9,104.1,15.6"/>
<path id="Fill-23" class="st5" d="M127.1,8.6h-2.6c0-2.6-0.2-4.5,2.6-4.5V2.9c-5-0.5-4.4,4.4-4.4,5.7h-1.9v1.1h1.9v11.4h1.8V9.7h2.6
	V8.6z"/>
<path id="Fill-24" class="st5" d="M133.8,20.1c-2.7,0-3.5-2.6-3.5-5.2c0-2.6,0.8-5.3,3.5-5.3c2.7,0,3.5,2.8,3.5,5.3
	C137.3,17.4,136.5,20.1,133.8,20.1 M133.8,8.3c-3.7,0-5.4,2.9-5.4,6.6c0,3.7,1.7,6.5,5.4,6.5c3.7,0,5.4-2.9,5.4-6.5
	C139.1,11.2,137.4,8.3,133.8,8.3"/>
<path id="Fill-25" class="st5" d="M141.5,9.2v11.9h1.8V10c0.8-0.5,2.5-0.5,3.6-0.2l0.5-1.4C146.6,8.2,143.7,8.2,141.5,9.2"/>
<path id="Fill-26" class="st5" d="M68.2,42.4L68.2,42.4c-0.5-1-0.6-1-7.7-11.9h-2.6v16h2.3c0-11.2,0-11.3-0.1-12.5h0
	c0.5,1,0.4,0.8,8,12.5h2.3v-16h-2.3C68.2,41.1,68.1,41.2,68.2,42.4"/>
<path id="Fill-27" class="st5" d="M80.5,44.8c-1.2,0.6-5.2,1-5.2-2c0-2.4,2.1-3,5.2-3.3V44.8z M73.6,34.5l0.6,1.5
	c0.8-0.4,2.2-0.7,3.4-0.7c3.1,0,2.9,1.7,2.9,2.9c-4.2,0.4-7.7,1.3-7.7,4.6c0,2.4,1.7,3.9,5.4,3.9c2.1,0,3.8-0.4,4.8-0.9v-7.9
	C83,32.4,76.5,33.2,73.6,34.5L73.6,34.5z"/>
<path id="Fill-28" class="st5" d="M89.3,30.3l-2.7,0.7v2.8h-1.8v1.6h1.8v7.8c0,1.7,1,3.4,3.6,3.4c0.7,0,1.2-0.1,1.5-0.3v-1.6
	c-1.5,0.4-2.4-0.4-2.4-1.6v-7.6h2.4v-1.6h-2.4V30.3z"/>
<polygon id="Fill-29" class="st5" points="93.8,46.4 96.5,46.4 96.5,33.9 93.8,33.9 "/>
<path id="Fill-30" class="st5" d="M95.2,29c-2.1,0-2.1,2.8,0,2.8C97.2,31.7,97.2,29,95.2,29"/>
<path id="Fill-31" class="st5" d="M104.5,44.9c-2.3,0-3-2.3-3-4.8c0-2.4,0.7-4.8,3-4.8c2.3,0,3,2.4,3,4.8
	C107.5,42.6,106.8,44.9,104.5,44.9 M104.5,33.6c-3.8,0-5.7,2.9-5.7,6.6c0,3.7,1.9,6.6,5.7,6.6c3.8,0,5.7-2.8,5.7-6.6
	C110.2,36.4,108.4,33.6,104.5,33.6"/>
<path id="Fill-32" class="st5" d="M112.4,34.5v11.9h2.7V35.6c1.5-0.6,5.1-0.8,5.1,1.8v8.9h2.7v-9C122.9,32.3,115,33.3,112.4,34.5"/>
<path id="Fill-33" class="st5" d="M132.7,44.8c-1.3,0.6-5.2,1-5.2-2c0-2.4,2.1-3,5.2-3.3V44.8z M125.8,34.5l0.6,1.5
	c1.5-0.7,6.3-1.7,6.3,1.5v0.7c-4.2,0.4-7.7,1.3-7.7,4.6c0,2.4,1.7,3.9,5.4,3.9c2.1,0,3.8-0.4,4.8-0.9v-7.9
	C135.2,32.4,128.7,33.2,125.8,34.5L125.8,34.5z"/>
<polygon id="Fill-34" class="st5" points="138,46.4 140.6,46.4 140.6,28.2 138,28.2 "/>
<path id="Fill-35" class="st5" d="M152.1,34.5c0-2.7,3.4-3.1,5.7-1.8l0.7-1.7c-3.6-2.1-9.1-0.6-9.1,3.8c0,5,6.6,3.6,6.6,7.1
	c0,1.6-1.3,2.7-3.2,2.7c-1.2,0-2.4-0.4-3.1-0.8l-0.7,1.9c0.9,0.5,2.4,0.9,4.4,0.9c3.3,0,5.6-2.1,5.6-4.9
	C158.9,36.5,152.1,38,152.1,34.5"/>
<path id="Fill-36" class="st5" d="M164.7,30.3l-2.7,0.7v2.8h-1.7v1.6h1.7v7.8c0,1.7,1,3.4,3.6,3.4c0.7,0,1.2-0.1,1.5-0.3v-1.6
	c-0.3,0.1-0.5,0.1-0.7,0.1c-1.1,0-1.7-0.8-1.7-1.7v-7.6h2.4v-1.6h-2.4V30.3z"/>
<path id="Fill-37" class="st5" d="M176.3,44.8c-0.5,0.2-1.2,0.4-2.1,0.4c-1.9,0-3.1-0.7-3.1-2.4c0-2.4,2.1-3,5.2-3.3V44.8z
	 M173.9,33.6c-2,0-3.6,0.5-4.5,0.9l0.6,1.5c0.8-0.4,2.2-0.7,3.4-0.7c3.1,0,2.9,1.7,2.9,2.9c-4.2,0.4-7.7,1.3-7.7,4.6
	c0,2.4,1.7,3.9,5.4,3.9c2.1,0,3.8-0.4,4.8-0.9v-7.9C178.9,34.7,176.7,33.6,173.9,33.6L173.9,33.6z"/>
<path id="Fill-38" class="st5" d="M185.2,30.3l-2.7,0.7v2.8h-1.7v1.6h1.7v7.8c0,1.7,1,3.4,3.6,3.4c0.7,0,1.2-0.1,1.5-0.3v-1.6
	c-1.5,0.4-2.4-0.4-2.4-1.6v-7.6h2.4v-1.6h-2.4V30.3z"/>
<path id="Fill-39" class="st5" d="M191,29c-2.1,0-2.1,2.8,0,2.8C193.1,31.7,193.1,29,191,29"/>
<polygon id="Fill-40" class="st5" points="189.7,46.4 192.4,46.4 192.4,33.9 189.7,33.9 "/>
<path id="Fill-41" class="st5" d="M197.5,37.1c0-1.7,2.5-2.4,4.5-1.1l0.7-1.6c-3.2-1.9-7.9-0.7-7.9,2.8c0,4.1,5.5,2.7,5.5,5.7
	c0,2.2-3.4,2.4-5.2,1.2l-0.7,1.7c0.7,0.5,2.2,0.9,3.8,0.9c3,0,4.9-1.9,4.9-3.9C203.1,38.7,197.5,39.9,197.5,37.1"/>
<path id="Fill-42" class="st5" d="M208.9,30.3l-2.7,0.7v2.8h-1.8v1.6h1.8v7.8c0,1.7,1,3.4,3.6,3.4c0.7,0,1.2-0.1,1.5-0.3v-1.6
	c-1.5,0.4-2.4-0.4-2.4-1.6v-7.6h2.4v-1.6h-2.4V30.3z"/>
<path id="Fill-43" class="st5" d="M214.8,29c-2.1,0-2.1,2.8,0,2.8C216.9,31.7,216.9,29,214.8,29"/>
<polygon id="Fill-44" class="st5" points="213.5,46.4 216.2,46.4 216.2,33.9 213.5,33.9 "/>
<path id="Fill-45" class="st5" d="M224.5,44.8c-4.3,0-4.5-9.4,0-9.4c0.9,0,1.6,0.3,2,0.6l0.6-1.5c-0.6-0.5-1.6-0.9-3.2-0.9
	c-7.3,0-7.3,13.2,0,13.2c1.6,0,2.7-0.4,3.2-0.9l-0.7-1.6C226,44.5,225.4,44.8,224.5,44.8"/>
<path id="Fill-46" class="st5" d="M231.4,37.1c0-1.7,2.5-2.4,4.5-1.1l0.7-1.6c-0.9-0.5-2-0.9-3.5-0.9c-2.7,0-4.4,1.8-4.4,3.7
	c0,4.1,5.5,2.7,5.5,5.7c0,2.2-3.4,2.4-5.2,1.2l-0.7,1.7c0.7,0.5,2.2,0.9,3.8,0.9c3,0,4.9-1.9,4.9-3.9
	C237,38.7,231.4,39.9,231.4,37.1"/>
</svg>