<svg xmlns="http://www.w3.org/2000/svg" width="261px" height="50px" viewBox="0 0 261 50">
<path fill="#902082" d="M257.3,0.1L257.3,0.1c-5.7,1.7-9.7,7-9.7,12.9v22.3c0,1.7,1.4,3.1,3.1,3.1
	c1.7,0,3.1-1.4,3.1-3.1V20h2.2c1.7,0,3.1-1.4,3.1-3.1s-1.4-3.1-3.1-3.1h-2.2V13c0-3.2,2.1-6.1,5.2-7l0.1,0c1.6-0.6,2.4-2.4,1.8-4
	C260.3,0.6,258.8-0.2,257.3,0.1L257.3,0.1z M100.9,14.7c0-1.7-1.4-3.1-3.1-3.1c-1.7,0-3.1,1.4-3.1,3.1V25c0,4.1-2.3,7.4-6.3,7.4
	c-4.1,0-6.3-3.3-6.3-7.4V14.7c0-1.7-1.4-3.1-3.1-3.1c-1.7,0-3.1,1.4-3.1,3.1V25c0,7.4,5,13.5,12.4,13.5c2.2,0,4.4-0.6,6.3-1.7v0.2
	c0,3.2-2.1,6.1-5.2,7l-0.1,0c-1.6,0.5-1,2.2-0.5,3.8c0.5,1.6,2.2,2.5,3.8,2.1c0,0,0,0,0,0c5.6-1.6,8.2-6.8,8.2-12.9V20v-0.2
	L100.9,14.7z M200,14.7c0-1.7-1.4-3.1-3.1-3.1c-1.7,0-3.1,1.4-3.1,3.1V25c0,4.1-2.3,7.4-6.3,7.4c-4.1,0-6.3-3.3-6.3-7.4V14.7
	c0-1.7-1.4-3.1-3.1-3.1s-3.1,1.4-3.1,3.1V25c0,7.4,5,13.5,12.4,13.5c2.2,0,4.4-0.6,6.3-1.7v0.2c0,3.2-2.1,6.1-5.2,7l-0.1,0
	c-1.6,0.5-1,2.2-0.5,3.8c0.5,1.6,2.2,2.5,3.8,2.1c0,0,0,0,0,0c5.6-1.6,8.2-6.8,8.2-12.9V20v-0.2L200,14.7z M228.2,12.1L228.2,12.1
	c-5.7,1.7-9.7,7-9.7,12.9v10.3c0,1.7,1.4,3.1,3.1,3.1c1.7,0,3.1-1.4,3.1-3.1V25.1c0-3.2,2.1-6.1,5.2-7l0.1,0c1.6-0.6,2.3-2.4,1.7-4
	C231.1,12.6,229.6,11.8,228.2,12.1L228.2,12.1z M34.9,2c-1.7,0-3.1,1.4-3.1,3.1c0,1.7,1.4,3.1,3.1,3.1c1.7,0,3.1-1.4,3.1-3.1
	C38,3.4,36.6,2,34.9,2L34.9,2z M34.9,11.6c-1.7,0-3.1,1.4-3.1,3.1v20.7c0,1.7,1.4,3.1,3.1,3.1c1.7,0,3.1-1.4,3.1-3.1V14.7
	C38,13,36.6,11.6,34.9,11.6L34.9,11.6z M239,2c-1.7,0-3.1,1.4-3.1,3.1c0,1.7,1.4,3.1,3.1,3.1c1.7,0,3.1-1.4,3.1-3.1
	C242.1,3.4,240.7,2,239,2L239,2z M239,11.6c-1.7,0-3.1,1.4-3.1,3.1v20.7c0,1.7,1.4,3.1,3.1,3.1c1.7,0,3.1-1.4,3.1-3.1V14.7
	C242,13,240.7,11.6,239,11.6L239,11.6z M213.2,13.9H211V13c0-3.2,2.1-6.1,5.2-7l0.1,0c1.6-0.6,2.4-2.4,1.8-4c-0.5-1.4-2-2.2-3.5-1.9
	c-5.7,1.7-9.7,7-9.7,12.9v22.3c0,1.7,1.4,3.1,3.1,3.1c1.7,0,3.1-1.4,3.1-3.1V20h2.2c1.7,0,3.1-1.4,3.1-3.1S214.9,13.9,213.2,13.9
	L213.2,13.9z M161.2,17.7c2,0,4,0.9,5.4,2.4c1.2,1.2,3.1,1.3,4.3,0.1c1.2-1.2,1.3-3.1,0.1-4.3c-5.1-5.5-13.6-5.8-19.1-0.7
	c-5.5,5.1-5.8,13.6-0.7,19.1c5.1,5.5,13.6,5.8,19.1,0.7c0.2-0.2,0.5-0.5,0.7-0.7c1.2-1.2,1.3-3.1,0.1-4.3c-1.2-1.2-3.1-1.3-4.3-0.1
	c-0.1,0.1-0.2,0.2-0.3,0.3c-1.4,1.5-3.3,2.4-5.4,2.4c-4.1,0-7.4-3.3-7.4-7.4C153.8,21,157.1,17.7,161.2,17.7L161.2,17.7z M65,22.7
	c-4.3-0.9-6-1.3-6-2.8c0-1.6,2.2-2.4,4.6-2.4c1.2,0,2.4,0.3,3.5,0.7c0.4,0.2,0.8,0.3,1.3,0.3c1.6,0,2.8-1.3,2.8-2.8
	c0-1.2-0.8-2.3-2-2.7c-1.8-0.7-3.7-1-5.6-1c-6.9,0-10.9,4-10.9,7.9c0,4.8,4.4,7,9.4,8c3.8,0.8,5,1.1,5,2.8c0,1.5-2.2,2.3-4.8,2.3
	c-2.4,0-4.2-1-5.8-1.8c-0.3-0.1-0.7-0.2-1.1-0.2c-1.6,0-2.9,1.3-2.9,2.9c0,1.1,0.6,2.1,1.6,2.6c2.5,1.4,5.4,2.2,8.3,2.2
	c6.5,0,11.1-3.5,11.1-7.8C73.6,25.5,70,23.8,65,22.7L65,22.7z M23.6,38.3c-1.7,0-3-1.3-3-3v0V25.2c-0.3-4-3.8-7-7.8-6.7
	c-3.6,0.3-6.5,3.1-6.7,6.7v10.1c-0.1,1.7-1.5,3-3.1,2.9c-1.6-0.1-2.9-1.3-2.9-2.9V25.2c0-7.4,6-13.3,13.3-13.3
	c7.4,0,13.3,6,13.3,13.3v10.1C26.6,37,25.3,38.3,23.6,38.3L23.6,38.3L23.6,38.3z M131.2,38.3c-1.7,0-3-1.4-3-3v0V25.2
	c0.1-4-3.1-7.3-7.1-7.4c-4-0.1-7.3,3.1-7.4,7.1c0,0.1,0,0.2,0,0.3v10.1c-0.1,1.7-1.5,3-3.1,2.9c-1.6-0.1-2.9-1.3-2.9-2.9V25.2
	c0-7.4,6-13.3,13.3-13.3c7.4,0,13.3,6,13.3,13.3v10.1C134.2,37,132.9,38.3,131.2,38.3L131.2,38.3L131.2,38.3z M110,10.9L110,10.9
	c1-1.2,1.5-2.6,1.5-4.1V5.4c0-0.9-0.4-1.7-1-2.3c-0.6-0.6-1.4-1-2.3-0.9c-0.9,0-1.7,0.3-2.3,1c-0.6,0.6-1,1.4-1,2.3
	c0,0.9,0.3,1.7,1,2.3c0.5,0.5,1.1,0.8,1.8,0.9c-0.1,0.2-0.2,0.3-0.3,0.4c-0.2,0.2-0.5,0.4-0.9,0.4c-0.9,0-1.7,0.8-1.7,1.7
	c0,0.9,0.8,1.7,1.7,1.7C107.8,12.8,109,12.2,110,10.9L110,10.9z"/>
</svg>
