<svg xmlns="http://www.w3.org/2000/svg" viewBox="0 0 150 47.85"><title>nisra-logo-black-en</title><path d="M0,34.76a24.83,24.83,0,0,0,9.55,9.55,25.68,25.68,0,0,0,13,3.54,26.16,26.16,0,0,0,17-6.28c.27-.27.53-.44.8-.71a27.59,27.59,0,0,0,4.86-6.1L31.75,27l-1.06-.62L23.08,22l-.53-.35-.44.26L5.66,31.49l-1,.53Z" style="fill:#222"/><path d="M32.19,6.37c-.35-.09-.7-.27-1.06-.36a27.05,27.05,0,0,0-8-1.23v16l8.05,4.69,1.06.62,13.45,7.78.88.53-.53.89a27,27,0,0,1-4.78,6.1L45.64,44a25,25,0,0,0,3.45-13A26,26,0,0,0,32.19,6.37Z" style="fill:#222"/><path d="M5.48,30.42l16.63-9.64V3.71h1.06a27.51,27.51,0,0,1,8,1.24V0a24.16,24.16,0,0,0-13,3.54A25.84,25.84,0,0,0,5.48,30.42Zm78.1,12.39-.89-.18c-.35-.09-.61-.18-.61-.44s.26-.44.7-.44c.62,0,.71.35.71.44l.8-.18a1.56,1.56,0,0,0-1.6-1c-1.32,0-1.5.88-1.5,1.32a1.15,1.15,0,0,0,1.24,1.15l.71.18a.48.48,0,0,1,.44.44c0,.45-.62.53-.89.53-.61,0-.79-.26-.88-.53l-.71.18c.18.62.8,1,1.68,1,.53,0,1.77-.17,1.77-1.32a1.08,1.08,0,0,0-1-1.15Zm-2.92.53c0-1.15-.53-2.21-1.86-2.21A1.88,1.88,0,0,0,77,43.25a1.92,1.92,0,0,0,1.85,2.12,1.69,1.69,0,0,0,1.77-1.24L79.78,44a.93.93,0,0,1-.89.62.84.84,0,0,1-.79-.36,1.12,1.12,0,0,1-.18-.88ZM78.1,42.19a.79.79,0,0,1,.7-.36.91.91,0,0,1,.71.36.93.93,0,0,1,.18.62H77.92A2.15,2.15,0,0,1,78.1,42.19Zm53.33,1.68-1-2.66h-1L130.9,45l.08.26a1.11,1.11,0,0,1-.26.62c-.18.18-.35.09-.89.09v.71h.54c.35,0,.79-.09,1.06-.89l1.59-4.6h-.71ZM88.8,43.34c0-1.15-.53-2.21-1.86-2.21a1.89,1.89,0,0,0-1.86,2.12,1.92,1.92,0,0,0,1.86,2.12,1.7,1.7,0,0,0,1.77-1.24l-.8-.17a.91.91,0,0,1-.88.62.86.86,0,0,1-.8-.36,1.15,1.15,0,0,1-.17-.88Zm-2.57-1.15a.8.8,0,0,1,.71-.36.93.93,0,0,1,.71.36,1,1,0,0,1,.17.62H86.06A2.08,2.08,0,0,1,86.23,42.19Zm41.48-.27c.36,0,.71.18.71.8l.8-.09a1.55,1.55,0,0,0-1.6-1.42c-1.15,0-1.77,1-1.77,2.13,0,.88.45,2.12,1.69,2.12a1.71,1.71,0,0,0,1.68-1.5l-.8-.18c-.09.44-.35.8-.8.8-.79,0-.79-1.07-.79-1.24a2.71,2.71,0,0,1,.09-.8A.86.86,0,0,1,127.71,41.92Zm-68.36.71c-.09-.53-.09-.8-.54-1.15a1.8,1.8,0,0,0-1.23-.27c-.8,0-1.68.27-1.86,1.15l.88.09c0-.17.18-.62,1-.62.44,0,.88.09.88.62v.27c-.88,0-2.74,0-2.74,1.41a1.23,1.23,0,0,0,1.33,1.24,1.25,1.25,0,0,0,1.32-.88,1.15,1.15,0,0,0,.18.79h.88c0-.17-.08-.44-.08-.79Zm-2,2A.62.62,0,0,1,56.6,44c0-.53.45-.61.62-.7a3,3,0,0,1,1.06-.09v.35h.09A1,1,0,0,1,57.31,44.66Zm10.08-2.91A1,1,0,0,0,66.33,41c-1.24,0-1.59,1.32-1.59,2.12,0,.44.09,2.12,1.5,2.12a1.17,1.17,0,0,0,1.15-.88v.79h.89V39.8h-.89Zm-.08,1.85a1,1,0,0,1-.89,1.06c-.8,0-.8-1.06-.8-1.32s0-1.42.89-1.42a1,1,0,0,1,.62.27.93.93,0,0,1,.18.71Zm-5-2.39c-.79,0-1.06.71-1.24,1v-1h-.79v4.07h1V43.43c0-1.42.71-1.42.89-1.42s.61,0,.61,1v2.39h.89V43C63.68,42.45,63.68,41.21,62.35,41.21Zm30.78,1.42c0-.53,0-.8-.44-1.15a1.84,1.84,0,0,0-1.24-.27c-.8,0-1.68.27-1.86,1.15l.8.09c0-.17.18-.62,1-.62.44,0,.89.09.89.62v.27c-.89,0-2.75,0-2.75,1.41a1.24,1.24,0,0,0,1.33,1.24,1.27,1.27,0,0,0,1.33-.88,1.21,1.21,0,0,0,.17.79h.89c0-.17-.09-.44-.09-.79Zm-2,2a.62.62,0,0,1-.71-.62c0-.53.44-.61.62-.7a3,3,0,0,1,1.06-.09v.35h.09A1,1,0,0,1,91.1,44.66ZM76.15,41.48a1.33,1.33,0,0,0-.53-1.15,1.47,1.47,0,0,0-1.33-.53H71.9v5.48h1V43.07h1.41l.89,2.21h1l-1-2.38a1.45,1.45,0,0,0,1-1.42Zm-2,.8H72.88V40.6H74.2c.71,0,1,.35,1,.79C75.18,42.1,74.65,42.28,74.12,42.28Zm41.56-1.6a.77.77,0,0,0-.35.62c-.27,0-.44-.09-.8-.09-1.41,0-1.68.8-1.68,1.24a1,1,0,0,0,.53.89,1,1,0,0,0-.61.88.88.88,0,0,0,.35.62c-.27.18-.62.35-.62.8,0,.88.88,1.06,2,1.06,1.68,0,2.12-.8,2.12-1.33s-.36-1.06-1.42-1.06h-1.06c-.53,0-.62-.27-.62-.44s.18-.36.27-.36a2.12,2.12,0,0,0,.79.09c1,0,1.68-.53,1.68-1.24a1.2,1.2,0,0,0-.44-.88c.09-.27.27-.35.62-.35h.27v-.62h-.36a1.41,1.41,0,0,0-.62.17ZM113.56,45a3.58,3.58,0,0,0,1,.09h.62c.27,0,.62.08.62.44s-.62.53-1.06.53a2.93,2.93,0,0,1-.79-.09.76.76,0,0,1-.54-.62C113.38,45.28,113.47,45.19,113.56,45ZM115,42.9a1,1,0,0,1-.53.17.63.63,0,0,1-.71-.62.71.71,0,0,1,.79-.7c.62,0,.71.35.71.61a.55.55,0,0,1-.26.54Zm5.75.44c0-1.15-.54-2.21-1.86-2.21A1.89,1.89,0,0,0,117,43.25a1.92,1.92,0,0,0,1.86,2.12,1.71,1.71,0,0,0,1.77-1.24l-.8-.17a.91.91,0,0,1-.88.62.86.86,0,0,1-.8-.36,1.17,1.17,0,0,1-.18-.88Zm-2.83-.53a2.08,2.08,0,0,1,.17-.62.8.8,0,0,1,.71-.36,1.11,1.11,0,0,1,.71.36,1,1,0,0,1,.17.62Zm-19.2-.89c.36,0,.71.18.71.8l.8-.09a1.55,1.55,0,0,0-1.6-1.42c-1.15,0-1.76,1-1.76,2.13,0,.88.44,2.12,1.68,2.12a1.71,1.71,0,0,0,1.68-1.5l-.8-.18c-.09.44-.35.8-.8.8-.79,0-.79-1.07-.79-1.24a2.71,2.71,0,0,1,.09-.8A.87.87,0,0,1,98.7,41.92Zm24.86-.71c-.8,0-1.07.71-1.24,1v-1h-.8v4.07h1V43.43c0-1.42.71-1.42.89-1.42s.62,0,.62,1v2.39h.88V43c0-.53,0-1.77-1.32-1.77ZM103,41.13a1.18,1.18,0,0,0-1.15.88V39.8h-.89v5.48h.89V43.34a2,2,0,0,1,.18-1.06.77.77,0,0,1,.7-.45c.62,0,.62.62.62,1v2.47h.89V42.72c0-1.15-.36-1.59-1.24-1.59Zm6.19-1.33-1.86,5.48h.89l.44-1.32h2.12l.44,1.32h1.06l-1.85-5.48Zm-.27,3.36.8-2.48.8,2.48ZM95.08,42.1v-1h-.8v4.15h.89V43.6a2.86,2.86,0,0,1,.26-1.24,1,1,0,0,1,.88-.35V41A1.32,1.32,0,0,0,95.08,42.1Zm49.7-8.31c.36,0,.71.17.71.79l.8-.09a1.54,1.54,0,0,0-1.6-1.41c-1.15,0-1.77,1-1.77,2.12,0,.88.45,2.12,1.68,2.12a1.71,1.71,0,0,0,1.69-1.5l-.8-.18c-.09.44-.35.8-.8.8-.79,0-.79-1.06-.79-1.24a2.71,2.71,0,0,1,.09-.8A.86.86,0,0,1,144.78,33.79Zm-3.71,3.36H142V33.08h-.88ZM123,37a1.36,1.36,0,0,0,.89.35,1.49,1.49,0,0,0,.62-.09v-.79h-.36c-.44,0-.61-.09-.61-.62v-2h.79v-.7h-.79V32l-.71.08-.09,1.07h-.53v.7h.53V36C122.76,36.44,122.76,36.7,123,37ZM59.35,35.55a6.05,6.05,0,0,0-.36-.61l-1.94-3.19H56v5.4h.8V33.08a1.86,1.86,0,0,1,.27.62l2.12,3.45h.88V31.66h-.7Zm80,.27v-2h.79v-.7h-.79V32l-.71.08-.09,1.07H138v.7h.53V36c0,.44,0,.7.27,1a1.32,1.32,0,0,0,.88.35,1.49,1.49,0,0,0,.62-.09v-.79H140C139.56,36.44,139.39,36.35,139.39,35.82ZM80.48,33.08v4.07h.89v-1.6a2.8,2.8,0,0,1,.26-1.23,1,1,0,0,1,.89-.36V33a1.33,1.33,0,0,0-1.24,1.06v-1Zm33.7,4.07V31.66h-.88v1.95a1.06,1.06,0,0,0-1.07-.71c-1.23,0-1.59,1.33-1.59,2.12,0,.45.09,2.13,1.51,2.13a1.18,1.18,0,0,0,1.15-.89v.89Zm-1.77-.62c-.79,0-.79-1.06-.79-1.33s0-1.41.88-1.41a.93.93,0,0,1,.62.26.94.94,0,0,1,.18.71v.71A1,1,0,0,1,112.41,36.53Zm-21,.62V31.66h-1v5.49Zm7.52-1.86c0-1.15-.53-2.21-1.86-2.21a1.88,1.88,0,0,0-1.85,2.12A1.92,1.92,0,0,0,97,37.32a1.69,1.69,0,0,0,1.77-1.24L98,35.91a.93.93,0,0,1-.89.62.87.87,0,0,1-.8-.36,1.15,1.15,0,0,1-.17-.88Zm-2.83-.62a2.24,2.24,0,0,1,.18-.62.8.8,0,0,1,.7-.35.91.91,0,0,1,.71.35,1,1,0,0,1,.18.62ZM65.63,33.08v4.07h.88v-1.6a3,3,0,0,1,.26-1.23,1,1,0,0,1,.89-.36V33a1.33,1.33,0,0,0-1.24,1.06v-1Zm75.44-.44H142v-1h-.88Zm-8.58,4.51h.88V33.08h-.88ZM129.92,36c0,.44,0,.7.27,1a1.34,1.34,0,0,0,.88.35,1.46,1.46,0,0,0,.62-.09v-.79h-.35c-.44,0-.62-.09-.62-.62v-2h.8v-.7h-.8V32l-.71.08-.09,1.07h-.53v.7h.53Zm-67-3A1.85,1.85,0,0,0,61,35a2,2,0,0,0,1.85,2.13c1,.08,1.86-.62,1.86-2A1.93,1.93,0,0,0,62.88,33Zm0,3.54c-.88,0-.88-1.15-.88-1.33,0-.62.18-1.33.88-1.33s.89.53.89,1.24C63.77,35.55,63.68,36.53,62.88,36.53Zm64.74-.18a1.2,1.2,0,0,0,.18.8h.89c0-.18-.09-.45-.09-.8V34.49c0-.53,0-.79-.45-1.15a1.85,1.85,0,0,0-1.23-.26c-.8,0-1.68.26-1.86,1.15l.79.09c0-.18.18-.62,1-.62.44,0,.88.09.88.62v.26c-.88,0-2.74,0-2.74,1.42a1.37,1.37,0,0,0,2.65.35Zm-1.68-.44c0-.53.45-.62.62-.71a3,3,0,0,1,1.06-.09v.36h.09a1,1,0,0,1-1.06,1.06A.62.62,0,0,1,125.94,35.91ZM99.76,37.15h.89V31.66h-.89ZM120.28,34l-.88-.26c-.27-.09-.8-.27-.8-.62s.18-.71,1-.71,1,.44,1,.62l1-.27a1.31,1.31,0,0,0-.44-.7,2.27,2.27,0,0,0-1.5-.45,1.74,1.74,0,0,0-2,1.6,1.34,1.34,0,0,0,1.15,1.41l1.24.36c.26.08.71.17.71.7,0,.27-.18.71-1.07.71a2.12,2.12,0,0,1-.7-.09c-.53-.18-.62-.53-.62-.71l-1.06.27a1.5,1.5,0,0,0,.53.88,2.68,2.68,0,0,0,1.68.53c1.24,0,2.21-.61,2.21-1.68s-1-1.41-1.42-1.59Zm-15.12.53c0-.53,0-.79-.44-1.15a1.9,1.9,0,0,0-1.24-.26c-.8,0-1.68.26-1.86,1.15l.8.09c0-.18.17-.62,1-.62.44,0,.88.09.88.62v.26c-.88,0-2.74,0-2.74,1.42a1.23,1.23,0,0,0,1.33,1.23,1.26,1.26,0,0,0,1.33-.88,1.25,1.25,0,0,0,.17.8h.89c0-.18-.09-.45-.09-.8Zm-2,2a.61.61,0,0,1-.7-.62c0-.53.44-.62.62-.71a3,3,0,0,1,1.06-.09v.36h.08A1,1,0,0,1,103.21,36.53Zm4.87-2.66c.17,0,.62,0,.62,1v2.3h.88V34.76c0-.53,0-1.77-1.33-1.77-.79,0-1.06.71-1.23,1V33h-.8v4.16h1V35.29C107.19,33.87,107.9,33.87,108.08,33.87ZM94.63,33a1.32,1.32,0,0,0-1.23,1.06v-1h-.8v4.07h.88v-1.6a2.77,2.77,0,0,1,.27-1.23,1,1,0,0,1,.88-.36Zm37.86-.35h.88v-1h-.88ZM69.87,35.82v-2h.8v-.7h-.8V32l-.71.08-.17,1h-.53v.71H69v2.12c0,.44,0,.71.26,1a1.34,1.34,0,0,0,.89.35,1.61,1.61,0,0,0,.61-.08v-.71h-.26C70.05,36.44,69.87,36.35,69.87,35.82Zm66.69-1.06-.89-.18c-.35-.09-.62-.18-.62-.44s.27-.44.71-.44c.62,0,.71.35.71.44l.79-.18a1.57,1.57,0,0,0-1.59-1c-1.32,0-1.5.88-1.5,1.33a1.16,1.16,0,0,0,1.24,1.15l.7.17a.48.48,0,0,1,.45.44c0,.45-.62.54-.89.54-.62,0-.79-.27-.88-.54l-.71.18c.18.62.8,1,1.68,1,.53,0,1.77-.17,1.77-1.32a1.08,1.08,0,0,0-1-1.15Zm-64.12.44a2.14,2.14,0,0,1,.17-1.06.78.78,0,0,1,.71-.44c.62,0,.62.62.62,1v2.48h.88V34.58c0-1.15-.35-1.59-1.24-1.59a1.16,1.16,0,0,0-1.14.88V31.75h-.89v5.4h.89Zm7,.88-.79-.17a.93.93,0,0,1-.89.62.84.84,0,0,1-.79-.36,1.12,1.12,0,0,1-.18-.88h2.74c0-1.15-.53-2.21-1.86-2.21A1.88,1.88,0,0,0,75.8,35.2a1.92,1.92,0,0,0,1.85,2.12A1.69,1.69,0,0,0,79.42,36.08Zm-2.47-2a.8.8,0,0,1,.7-.35,1.08,1.08,0,0,1,.71.35,1,1,0,0,1,.18.62H76.77A2.24,2.24,0,0,1,77,34.05Zm72.08.71-.89-.18c-.35-.09-.62-.18-.62-.44s.27-.44.71-.44c.62,0,.71.35.71.44l.79-.18a1.57,1.57,0,0,0-1.59-1c-1.32,0-1.5.88-1.5,1.33a1.16,1.16,0,0,0,1.24,1.15l.7.17a.48.48,0,0,1,.45.44c0,.45-.62.54-.89.54-.62,0-.79-.27-.88-.54l-.71.18c.18.62.8,1,1.68,1,.53,0,1.77-.17,1.77-1.32a1.08,1.08,0,0,0-1-1.15Zm-63.24.09v2.3h.88V34.76c0-.53,0-1.77-1.32-1.77-.8,0-1.06.71-1.24,1V33h-.8v4.16h1V35.29c0-1.42.7-1.42.88-1.42S85.79,33.87,85.79,34.85Zm48.29-12.92h9.2l1.94,5.75h4.6l-8-24h-5.3l-8,24.05h3.71l1.86-5.75Zm4.6-14.15,3.54,10.7h-7.08ZM95.52,24.5a10.81,10.81,0,0,1-3-.44A4.09,4.09,0,0,1,89.68,21l-4.16.89a7.34,7.34,0,0,0,2.39,3.89A11.49,11.49,0,0,0,95.34,28c5.49,0,9.55-2.75,9.55-7.52,0-5.13-4.15-6.28-6.19-6.81l-4.07-1c-1.23-.36-3.36-1-3.36-2.92,0-1.24.8-3,4.16-3s4.16,2,4.42,2.74l4.07-1.06a5.38,5.38,0,0,0-2-3.09,10.43,10.43,0,0,0-6.64-2.13c-4.86,0-8.49,2.66-8.49,7.17,0,3.09,1.68,5.48,5.22,6.45l5.4,1.33c1.06.26,2.91.88,2.91,3.09C100.29,22.38,99.5,24.5,95.52,24.5Zm17.07-6.72h6.1l3.72,9.9H127v-.09L122.76,17a6.36,6.36,0,0,0,4.33-6.37A7,7,0,0,0,125,5.4c-1.5-1.33-3.27-1.86-6.28-1.86H108.25V27.59h4.34V17.78Zm0-10.7h5.75c3.09,0,4.24,1.76,4.24,3.53,0,3-2.47,3.72-4.6,3.72h-5.39ZM59.17,9.64a24.28,24.28,0,0,0,1.33,2.65l9.37,15.3h4v-24H70.4v17C69.6,19,69,18,68.9,17.78L60.5,3.63H55.72V27.68h3.45Zm23.88-6H78.71V27.68h4.34Z" style="fill:#222"/></svg>