<svg xmlns="http://www.w3.org/2000/svg" width="220" height="19.2"><path d="M1.8 0S0 0 0 2.2v.3c.2 2 .8 4.1 1.5 6a20.3 20.3 0 0 1 15-8.5H1.8zM0 11.3l.8-1.6C.4 8.8.2 8.3 0 7.3v4z" fill-rule="evenodd" clip-rule="evenodd" fill="#a8bd3a"/><path d="M29.6 4.4c-3.2 0-4.7 2.8-4.7 6 0 3.3 1.5 6 4.7 6s4.7-2.7 4.7-6c-.1-3.3-1.5-6-4.7-6zm0 10.8c-2.4 0-3.2-2.6-3.2-4.9 0-2.4.8-5 3.2-5 2.4 0 3.2 2.6 3.2 5s-.8 4.9-3.2 4.9zM37 5.8v1.3h-1.4v.8H37v8.3h1.3V7.9h1.9v-.8h-1.9V5.6c0-1.2.8-1.9 1.7-1.9h.2v-.8h-.3C38 2.9 37 4.1 37 5.8zm5.4 0v1.3H41v.8h1.4v8.3h1.3V7.9h1.9v-.8h-1.9V5.6c0-1.2.8-1.9 1.7-1.9h.2v-.8h-.3c-1.9 0-2.9 1.2-2.9 2.9zm56.9 6.1l.1 1.4-.6-1.2-4.9-7.5H92v11.6h1.7V8.5 7.1s.2.6.6 1.1l5.1 7.9h1.6V4.7h-1.7v7.2zm15.4-7.3l-1.9.5v2h-1.3v1.2h1.3v5.6c0 1.2.7 2.4 2.6 2.4l1.1-.2V15l-.5.1c-.8 0-1.2-.6-1.2-1.3V8.3h1.8V7.1h-1.8V4.6zm-8.1 2.3c-1.5 0-2.6.4-3.2.6l.4 1.1c.6-.2 1.5-.5 2.4-.5 1.2 0 2.1.4 2.1 1.6v.5c-3 .2-5.6.9-5.6 3.3 0 1.7 1.2 2.8 3.9 2.8 1.5 0 2.7-.2 3.5-.6V10c-.1-2.2-1.6-3.1-3.5-3.1zm1.7 8.2a4 4 0 0 1-1.5.3c-1.4 0-2.2-.6-2.2-1.8 0-1.8 1.5-2.2 3.7-2.4v3.9zM83.5 7.5v8.7h1.3v-8c.6-.3 1.8-.4 2.6-.2l.3-1.1h-.6a9 9 0 0 0-3.6.6zm34.4 8.7h1.9V7.1h-1.9v9.1zM47.8 3.7c-.5 0-.8.3-.8.8s.4.8.8.8c.5 0 .8-.3.8-.8s-.4-.8-.8-.8zm30.1 3.2C75.3 6.9 74 9 74 11.7s1.2 4.7 3.9 4.7 3.9-2 3.9-4.7c-.1-2.8-1.2-4.8-3.9-4.8zm0 8.5c-1.9 0-2.5-1.9-2.5-3.8s.6-3.9 2.5-3.9c2 0 2.6 2 2.6 3.9s-.6 3.8-2.6 3.8zm-30.9.7h1.3v-9H47v9zm7.4-8.3a3 3 0 0 1 1.6.5l.3-.8c-.4-.3-1.1-.6-2.2-.6-2.2 0-3.8 1.8-3.8 4.7s1.6 4.8 3.8 4.8c.8.1 1.6-.2 2.3-.6l-.4-1c-.4.2-.9.5-1.6.5-1.6 0-2.8-1.6-2.8-3.8.1-2.1.9-3.7 2.8-3.7zm15.5-2v1.3h-1.4v.8h1.4v8.3h1.3V7.9h1.9v-.8h-1.9V5.6c0-1.2.8-1.9 1.7-1.9h.2v-.8h-.3c-1.9 0-2.9 1.2-2.9 2.9zm-8.8 1.1c-2.3 0-4 1.6-4 4.7 0 3.2 1.8 4.8 4.4 4.8 1.3 0 2.4-.3 2.9-.6l-.4-1c-.5.2-1.4.6-2.4.6-1.9 0-3-1.1-3.2-3.2l6.4-.8c.1-3.1-1.4-4.5-3.7-4.5zm-2.7 4.5c0-2.5 1.2-3.6 2.7-3.6s2.4.9 2.4 3l-5.1.6zm109.3-6.8l-1.9.6v2h-1.3v1.2h1.3V14c0 1.2.7 2.4 2.6 2.4l1.1-.2V15l-.5.1c-.8 0-1.2-.6-1.2-1.3V8.4h1.8V7.1h-1.8V4.6zm31.9 0l-1.9.6v2h-1.3v1.2h1.3V14c0 1.2.7 2.4 2.6 2.4l1.1-.2V15l-.5.1c-.8 0-1.2-.6-1.2-1.3V8.4h1.8V7.1h-1.8V4.6zm-8.2 4.9c0-.7.6-1.3 1.6-1.3.6 0 1.1.2 1.6.6l.5-1.1c-.6-.3-1.5-.6-2.6-.6-1.9 0-3.2 1.3-3.2 2.7 0 2.9 4 1.9 4 4.1 0 .8-.8 1.4-1.8 1.4-.8 0-1.6-.2-1.9-.6l-.5 1.2c.8.4 1.8.6 2.8.6 2.2 0 3.6-1.4 3.6-2.8-.1-3.1-4.1-2.2-4.1-4.2zm-4.7-5.9c-.6 0-1.1.5-1.1 1s.5 1 1.1 1c.6 0 1.1-.5 1.1-1s-.5-1-1.1-1zm-1 12.6h1.9V7.1h-1.9v9.1zm17.2 0h1.9V7.1h-1.9v9.1zm13-6.7c0-.7.6-1.3 1.6-1.3.6 0 1.1.2 1.6.6l.5-1.1c-.6-.3-1.5-.6-2.5-.6-1.9 0-3.2 1.3-3.2 2.7 0 2.9 4 1.9 4 4.1 0 .8-.8 1.4-1.8 1.4-.8 0-1.6-.2-1.9-.6l-.5 1.2c.8.4 1.8.6 2.8.6 2.2 0 3.6-1.4 3.6-2.8-.2-3.1-4.2-2.2-4.2-4.2zm-5.1 5.6c-1.4 0-2.4-1.4-2.4-3.4s.8-3.4 2.4-3.4c.5 0 1 .2 1.5.4l.4-1.1c-.4-.3-1.2-.6-2.4-.6-2.2 0-4 1.8-4 4.8 0 2.9 1.7 4.8 3.9 4.8 1.1 0 1.9-.3 2.4-.6l-.5-1.2a3 3 0 0 1-1.3.3zm-6.9-11.5c-.6 0-1.1.5-1.1 1s.5 1 1.1 1c.6 0 1.1-.5 1.1-1s-.5-1-1.1-1zm-59.6 3.3c-1.5 0-2.6.4-3.2.6l.5 1.1c.6-.2 1.5-.5 2.4-.5 1.2 0 2.1.4 2.1 1.6v.5c-3 .2-5.6.9-5.6 3.3 0 1.7 1.2 2.8 3.9 2.8 1.5 0 2.7-.2 3.5-.6V10c-.1-2.2-1.6-3.1-3.6-3.1zm1.7 8.2a4 4 0 0 1-1.5.3c-1.4 0-2.2-.6-2.2-1.8 0-1.8 1.5-2.2 3.7-2.4v3.9zm-27.1-9.5zm6.8 1.3c-2.8 0-4.1 2-4.1 4.8s1.4 4.7 4.1 4.7c2.8 0 4.1-2 4.1-4.8s-1.4-4.7-4.1-4.7zm0 8.3c-1.6 0-2.2-1.7-2.2-3.4 0-1.8.5-3.5 2.2-3.5 1.7 0 2.2 1.7 2.2 3.5-.1 1.7-.6 3.4-2.2 3.4zm9.2-8.2c-1.5 0-2.8.2-3.6.6v8.6h1.9V8.4c.4-.2 1-.2 1.5-.2 1.1 0 2.1.4 2.1 1.6v6.5h1.9V9.8c.2-2.1-1.4-2.8-3.8-2.8zm47.6-2.4l-1.9.6v2h-1.3v1.2h1.3V14c0 1.2.7 2.4 2.6 2.4l1.1-.2V15l-.6.1c-.8 0-1.2-.6-1.2-1.3V8.4h1.8V7.1h-1.7V4.6zm-63.6-1c-.6 0-1.1.5-1.1 1 0 .6.5 1 1.1 1 .6 0 1.1-.5 1.1-1s-.6-1-1.1-1zm55.4 3.3c-1.5 0-2.6.4-3.2.6l.5 1.1c.6-.2 1.5-.5 2.4-.5 1.2 0 2.1.4 2.1 1.6v.5c-3 .2-5.6.9-5.6 3.3 0 1.7 1.2 2.8 3.9 2.8 1.5 0 2.7-.2 3.5-.6V10c0-2.2-1.5-3.1-3.6-3.1zm1.7 8.2a4 4 0 0 1-1.5.3c-1.4 0-2.2-.6-2.2-1.8 0-1.8 1.5-2.2 3.7-2.4v3.9zm-26.1 1.1h1.9V3h-1.9v13.2zm8.6-8.6c0-1.1.8-1.9 2-1.9.7 0 1.4.2 2 .6L163 5c-.9-.5-1.8-.6-2.8-.6-2.4 0-3.8 1.6-3.8 3.4 0 3.6 4.8 2.6 4.8 5.1 0 1.1-1 1.9-2.3 1.9a4 4 0 0 1-2.3-.6l-.6 1.4c.6.3 1.8.6 3.2.6 2.4 0 4.1-1.5 4.1-3.6.2-3.5-4.8-2.5-4.8-5zm-155 6.5c-.7-.8-1.3-1.7-1.8-2.6L0 15.4v3.7h11.2a14 14 0 0 1-7.7-5zm2.4-8a14.8 14.8 0 0 0-3.6 4.3c2.4 4.5 7.1 8.4 14.5 8.8h.2s2.3.1 2.3-2.4V1.2h-.1c-6.1.6-10.3 2.4-13.3 4.9z" fill-rule="evenodd" clip-rule="evenodd" fill="#033e58"/></svg>
