<svg xmlns="http://www.w3.org/2000/svg" viewBox="0 362.8 595.3 116.3" enable-background="new 0 362.8 595.3 116.3"><path fill="#B2BB1E" d="M0 433.3c1.8-3.7 3.6-7.2 5.6-10.7-2.3-5.6-4.1-11.3-5.6-17.2v27.9m10.9-70.5s-10.9 0-10.9 13.5v7.2c1 12.3 3.6 24.3 7.9 35.5 6.1-9.6 13.4-18.4 22.3-26 17.6-15.1 41.3-25.5 73.5-30.1l-92.8-.1z"/><path fill="#353633" d="M115.9 370.1c-36.8 3.5-62 14-80 29.4-9.7 8.3-17.3 18-23.6 29 14.1 27.4 41.1 47.6 86 50.5h4.4s13.8.5 13.8-14.9v-94.1l-.6.1m-94.7 78.1c-4.2-4.9-7.9-10.3-11-16-3.9 7.5-7.3 15.5-10.2 24v22.7l73.6.1c-22.9-5.5-40.1-16.4-52.4-30.8"/><path d="M0 362.8h595.3v116.3h-595.3v-116.3z" fill="none"/><path fill="#353633" d="M161 414.7c-11.3 0-16.3-9.3-16.3-20.8 0-11.4 5-20.8 16.3-20.8s16.3 9.5 16.3 20.8c-.1 11.5-5.1 20.8-16.3 20.8m0-38.3c-8.3 0-11.3 9.1-11.3 17.4 0 8.2 2.7 17.3 11.3 17.3 8.6 0 11.2-9.1 11.2-17.3 0-8.3-2.9-17.4-11.2-17.4m30.2 8.9v28.7h-4.5v-28.6h-4.7v-2.8h4.7v-4.6c0-5.7 3.4-9.9 10-9.9.5 0 1.1.1 1.1.1v2.9h-.5c-3.2 0-6 2.1-6 6.4v5.1h6.6v2.8l-6.7-.1zm18.9 0v28.7h-4.5v-28.6h-4.7v-2.8h4.7v-4.6c0-5.7 3.4-9.9 10-9.9.5 0 1.1.1 1.1.1v2.9h-.5c-3.2 0-6 2.1-6 6.4v5.1h6.6v2.8l-6.7-.1zm14-8.8c-1.6 0-2.9-1.2-2.9-2.8 0-1.6 1.3-2.9 2.9-2.9 1.6 0 2.9 1.3 2.9 2.9 0 1.6-1.2 2.8-2.9 2.8m-2.3 6h4.6v31.5h-4.6v-31.5zm24.3 32.2c-7.4 0-13.2-6.4-13.2-16.5 0-10.3 5.8-16.5 13.4-16.5 3.8 0 6.3 1.1 7.7 2.2l-1.2 2.8c-1-.8-2.9-1.7-5.5-1.7-6.4 0-9.7 5.5-9.7 13 0 7.7 3.7 13.2 9.5 13.2 2.4 0 4.3-.8 5.6-1.7l1.2 3c-1.3 1.2-4 2.2-7.8 2.2m15.3-14.6c.6 7.4 4.7 11.1 11.1 11.1 3.9 0 6.8-1 8.5-1.9l1.3 3.2c-2 1.1-5.7 2.1-10.2 2.1-8.8 0-15.1-5.3-15.1-16.6 0-10.8 5.8-16.4 13.7-16.4 8 0 12.9 4.9 12.9 15.4l-22.2 3.1zm9.1-15.3c-5.1 0-9.4 4-9.3 12.8l17.9-2.5c-.1-7.3-3.6-10.3-8.6-10.3m42.2.5v28.7h-4.5v-28.6h-4.7v-2.8h4.7v-4.6c0-5.7 3.4-9.9 10-9.9.5 0 1.1.1 1.1.1v2.9h-.5c-3.2 0-6 2.1-6 6.4v5.1h6.6v2.8l-6.7-.1zm23.2 29.4c-9.3 0-13.5-7.2-13.5-16.5s4.2-16.5 13.5-16.5 13.5 7.2 13.5 16.5c0 9.4-4.2 16.5-13.5 16.5m0-29.8c-6.9 0-8.8 7-8.8 13.4 0 6.5 2.1 13.1 8.8 13.1 6.9 0 8.9-6.6 8.9-13.1s-2-13.4-8.9-13.4m33.3.6c-2.9-.8-7.1-.6-9.1.6v27.9h-4.6v-30.1c3.3-1.4 6.6-2.2 12.5-2.2h2.4c0 .1-1.2 3.8-1.2 3.8zm-197.9 92.1l-17.8-27.5c-1.3-2.1-2.3-4.1-2.3-4.1h-.1s.2 2.3.2 4.8v26.8h-5.8v-40.1h6.6l16.9 25.8c1.5 2.3 2.4 4.1 2.4 4.1h.1s-.2-2.3-.2-4.7v-25.3h5.9v40.1l-5.9.1zm25 .8c-9.2 0-13.6-3.7-13.6-9.7 0-8.5 8.8-10.7 19.4-11.7v-1.8c0-4.3-2.9-5.6-7.2-5.6-3.1 0-6.6.9-8.5 1.8l-1.6-3.8c2.2-.9 6.3-2.3 11.3-2.3 7 0 12.3 2.9 12.3 10.9v19.9c-2.7 1.4-6.9 2.3-12.1 2.3m5.8-18.2c-7.8.8-13 2.3-13 8.3 0 4.2 3 6.1 7.7 6.1 2.2 0 4.1-.5 5.3-1.1v-13.3zm24.5 18.1c-6.6 0-9.1-4.3-9.1-8.5v-19.5h-4.4v-4.1h4.4v-7l6.7-1.9v8.9h6.1v4.1h-6.1v19.2c0 2.5 1.4 4.4 4.3 4.4.6 0 1.2-.1 1.8-.3v4.1c-.6.2-1.9.6-3.7.6m12.4-37.6c-2.1 0-3.9-1.6-3.9-3.5s1.8-3.5 3.9-3.5c2.1 0 3.9 1.6 3.9 3.5 0 2-1.8 3.5-3.9 3.5m-3.4 5.5h6.8v31.4h-6.8v-31.4zm26.9 32.2c-9.6 0-14.4-7.1-14.4-16.5s4.8-16.6 14.4-16.6c9.6 0 14.3 7.2 14.3 16.6.1 9.4-4.7 16.5-14.3 16.5m0-28.7c-5.8 0-7.5 6.1-7.5 12.2s1.8 11.9 7.5 11.9c5.8 0 7.5-5.8 7.5-11.9 0-6.2-1.7-12.2-7.5-12.2m39.3 27.9v-22.5c0-4-3.4-5.5-7.3-5.5-2.1 0-4.1.4-5.4.9v27.1h-6.7v-30c2.9-1.3 7.6-2.3 12.5-2.3 8.2 0 13.7 2.8 13.7 9.7v22.6h-6.8zm25.7.8c-9.2 0-13.6-3.7-13.6-9.7 0-8.5 8.9-10.7 19.4-11.7v-1.8c0-4.3-2.9-5.6-7.2-5.6-3.1 0-6.6.9-8.5 1.8l-1.6-3.8c2.2-.9 6.3-2.3 11.3-2.3 7 0 12.3 2.9 12.3 10.9v19.9c-2.7 1.4-6.9 2.3-12.1 2.3m5.8-18.2c-7.8.8-13 2.3-13 8.3 0 4.2 3 6.1 7.7 6.1 2.2 0 4.1-.5 5.3-1.1v-13.3zm13.2 17.4v-45.8h6.7v45.8h-6.7zm38.6.8c-4.8 0-8.7-1.1-10.9-2.3l1.9-4.9c1.6.9 4.6 1.9 7.7 1.9 4.7 0 8-2.7 8-6.7 0-8.8-16.7-5.4-16.7-17.9 0-6.4 5.2-11.9 13.3-11.9 4.3 0 7.8 1.2 9.7 2.3l-1.7 4.4c-1.5-.9-4.2-1.9-7-1.9-4.3 0-7.2 2.6-7.2 6.4 0 8.6 17.1 4.9 17.1 18.2-.1 7.1-6 12.4-14.2 12.4m31.1-.1c-6.6 0-9.1-4.3-9.1-8.5v-19.5h-4.4v-4.1h4.4v-7l6.7-1.9v8.9h6.1v4.1h-6.1v19.2c0 2.5 1.5 4.4 4.3 4.4.6 0 1.2-.1 1.8-.3v4.1c-.6.2-2 .6-3.7.6m20.9.1c-9.2 0-13.6-3.7-13.6-9.7 0-8.5 8.9-10.7 19.4-11.7v-1.8c0-4.3-2.9-5.6-7.2-5.6-3.1 0-6.6.9-8.5 1.8l-1.6-3.8c2.2-.9 6.3-2.3 11.3-2.3 7 0 12.3 2.9 12.3 10.9v19.9c-2.6 1.4-6.9 2.3-12.1 2.3m5.8-18.2c-7.8.8-13 2.3-13 8.3 0 4.2 3 6.1 7.7 6.1 2.2 0 4.1-.5 5.3-1.1v-13.3zm24.6 18.1c-6.6 0-9.1-4.3-9.1-8.5v-19.5h-4.4v-4.1h4.4v-7l6.7-1.9v8.9h6.1v4.1h-6.1v19.2c0 2.5 1.5 4.4 4.3 4.4.6 0 1.2-.1 1.8-.3v4.1c-.7.2-2 .6-3.7.6m12.3-37.6c-2.1 0-3.9-1.6-3.9-3.5s1.8-3.5 3.9-3.5 3.9 1.6 3.9 3.5c0 2-1.7 3.5-3.9 3.5m-3.4 5.5h6.8v31.4h-6.8v-31.4zm21.4 32.2c-3.9 0-7.6-1.1-9.5-2.3l1.8-4.3c1.3.9 4 1.9 6.9 1.9 3.4 0 6.2-2.2 6.2-4.9 0-7.5-13.8-4-13.8-14.2 0-4.7 4.2-9.2 11-9.2 3.9 0 6.7 1 8.8 2.3l-1.8 3.9c-1-.7-3.1-1.8-5.7-1.8-3.5 0-5.6 2.1-5.6 4.5 0 7 14 3.9 14 14.4 0 4.9-4.7 9.7-12.3 9.7m29.4-.1c-6.6 0-9.1-4.3-9.1-8.5v-19.5h-4.4v-4.1h4.4v-7l6.7-1.9v8.9h6.1v4.1h-6.1v19.2c0 2.5 1.4 4.4 4.3 4.4.6 0 1.2-.1 1.8-.3v4.1c-.6.2-2 .6-3.7.6m12.3-37.6c-2.1 0-3.9-1.6-3.9-3.5s1.8-3.5 3.9-3.5c2.1 0 3.9 1.6 3.9 3.5.1 2-1.7 3.5-3.9 3.5m-3.3 5.5h6.8v31.4h-6.8v-31.4zm26.2 32.2c-7.7 0-13.6-6.3-13.6-16.6 0-10.4 6.1-16.5 13.7-16.5 3.9 0 6.6 1.1 8 2.3l-1.5 3.8c-1-.7-2.7-1.5-4.9-1.5-5.5 0-8.3 4.7-8.3 11.8 0 7.2 3.3 11.9 8.2 11.9 2.1 0 3.8-.8 4.9-1.6l1.7 4.1c-1.5 1.2-4.2 2.3-8.2 2.3m20.6 0c-3.9 0-7.6-1.1-9.5-2.3l1.8-4.3c1.3.9 4 1.9 6.9 1.9 3.4 0 6.2-2.2 6.2-4.9 0-7.5-13.8-4-13.8-14.2 0-4.7 4.2-9.2 11-9.2 3.9 0 6.7 1 8.9 2.3l-1.8 3.9c-1-.7-3.1-1.8-5.7-1.8-3.5 0-5.6 2.1-5.6 4.5 0 7 14 3.9 14 14.4-.1 4.9-4.9 9.7-12.4 9.7"/></svg>