<svg id="Layer_1" xmlns="http://www.w3.org/2000/svg" viewBox="0 0 275 24"><path class="st0" fill="#fff" d="M36.9 20.4c-4 0-5.9-3.4-5.9-7.5s1.8-7.5 5.9-7.5 5.8 3.4 5.8 7.5c0 4.2-1.7 7.5-5.8 7.5zm0-13.8c-3 0-4 3.3-4 6.3s1 6.2 4 6.2c3.1 0 4-3.2 4-6.2s-1-6.3-4-6.3zM47.8 9.8v10.3h-1.6V9.8h-1.7v-1h1.7V7.2c0-2.1 1.2-3.5 3.6-3.5h.4v1H50c-1.1 0-2.2.7-2.2 2.3v1.8h2.4v1h-2.4zM54.5 9.8v10.3h-1.6V9.8h-1.7v-1h1.7V7.2c0-2.1 1.2-3.5 3.6-3.5h.4v1h-.2c-1.1 0-2.2.7-2.2 2.3v1.8h2.4v1h-2.4zM59.6 6.7c-.6 0-1-.4-1-1s.5-1 1-1a1 1 0 0 1 0 2zm-.8 13.4V8.8h1.7v11.3h-1.7zM67.5 20.4c-2.7 0-4.7-2.3-4.7-5.9 0-3.7 2.1-5.9 4.8-5.9 1.4 0 2.3.4 2.8.8l-.4 1c-.4-.3-1.1-.6-2-.6-2.3 0-3.5 2-3.5 4.7 0 2.8 1.3 4.7 3.4 4.7a4 4 0 0 0 2-.6l.4 1.1c-.5.3-1.4.7-2.8.7zM73 15.2c.2 2.7 1.7 4 4 4 1.4 0 2.4-.4 3.1-.7l.5 1.2c-.7.4-2 .8-3.7.8-3.2 0-5.4-1.9-5.4-6 0-3.9 2.1-5.9 4.9-5.9 2.9 0 4.6 1.8 4.6 5.5l-8 1.1zm3.3-5.6c-1.8 0-3.4 1.4-3.4 4.6l6.4-.9c0-2.6-1.2-3.7-3-3.7zM88.9 9.8v10.3h-1.6V9.8h-1.7v-1h1.7V7.2c0-2.1 1.2-3.5 3.6-3.5h.4v1h-.2c-1.1 0-2.2.7-2.2 2.3v1.8h2.4v1h-2.4zM97.3 20.4c-3.3 0-4.9-2.6-4.9-5.9s1.5-5.9 4.9-5.9c3.3 0 4.8 2.6 4.8 5.9 0 3.3-1.5 5.9-4.8 5.9zm0-10.7c-2.5 0-3.2 2.5-3.2 4.8s.8 4.7 3.2 4.7c2.5 0 3.2-2.4 3.2-4.7-.1-2.3-.8-4.8-3.2-4.8zM109.2 9.9c-1-.3-2.6-.2-3.3.2v10h-1.7V9.3c1.2-.5 2.4-.8 4.5-.8h.8l-.3 1.4zM124.1 20.2l-6.4-9.9c-.5-.7-.8-1.5-.8-1.5l.1 1.7v9.6h-2.1V5.8h2.4l6.1 9.3.8 1.5-.1-1.7V5.8h2.1v14.4h-2.1zM133.1 20.5c-3.3 0-4.9-1.3-4.9-3.5 0-3 3.2-3.9 7-4.2v-.6c0-1.6-1.1-2-2.6-2a7 7 0 0 0-3.1.7l-.6-1.4c.8-.3 2.3-.8 4.1-.8 2.5 0 4.4 1 4.4 3.9v7.1c-.9.5-2.5.8-4.3.8zm2.1-6.5c-2.8.3-4.7.8-4.7 3 0 1.5 1.1 2.2 2.8 2.2.8 0 1.5-.2 1.9-.4V14zM144 20.5c-2.4 0-3.3-1.5-3.3-3.1v-7h-1.6V8.9h1.6V6.4l2.4-.7v3.2h2.2v1.5h-2.2v6.9c0 .9.5 1.6 1.5 1.6l.7-.1v1.5l-1.3.2zM148.4 7c-.8 0-1.4-.6-1.4-1.3s.6-1.3 1.4-1.3c.8 0 1.4.6 1.4 1.3 0 .7-.6 1.3-1.4 1.3zm-1.2 13.2V8.9h2.4v11.3h-2.4zM156.9 20.5c-3.5 0-5.2-2.6-5.2-5.9s1.7-6 5.2-6 5.1 2.6 5.1 6-1.7 5.9-5.1 5.9zm0-10.3c-2.1 0-2.7 2.2-2.7 4.4s.7 4.3 2.7 4.3c2.1 0 2.7-2.1 2.7-4.3 0-2.2-.6-4.4-2.7-4.4zM171 20.2v-8.1c0-1.4-1.2-2-2.6-2-.8 0-1.5.1-1.9.3v9.7H164V9.5c1.1-.5 2.7-.8 4.5-.8 2.9 0 4.9 1 4.9 3.5v8.1l-2.4-.1zM180.2 20.5c-3.3 0-4.9-1.3-4.9-3.5 0-3 3.2-3.9 7-4.2v-.6c0-1.6-1.1-2-2.6-2a7 7 0 0 0-3.1.7l-.6-1.4c.8-.3 2.3-.8 4.1-.8 2.5 0 4.4 1 4.4 3.9v7.1c-.9.5-2.4.8-4.3.8zm2.1-6.5c-2.8.3-4.7.8-4.7 3 0 1.5 1.1 2.2 2.8 2.2.8 0 1.5-.2 1.9-.4V14zM187.1 20.2V3.7h2.4v16.5h-2.4zM199 20.5c-1.7 0-3.1-.4-3.9-.8l.7-1.8c.6.3 1.7.7 2.8.7 1.7 0 2.9-1 2.9-2.4 0-3.2-6-1.9-6-6.4 0-2.3 1.9-4.3 4.8-4.3 1.6 0 2.8.4 3.5.8l-.6 1.6c-.5-.3-1.5-.7-2.5-.7-1.6 0-2.6.9-2.6 2.3 0 3.1 6.1 1.8 6.1 6.5-.1 2.6-2.2 4.5-5.2 4.5zM210.2 20.5c-2.4 0-3.3-1.5-3.3-3.1v-7h-1.6V8.9h1.6V6.4l2.4-.7v3.2h2.2v1.5h-2.2v6.9c0 .9.5 1.6 1.5 1.6l.7-.1v1.5l-1.3.2zM217.7 20.5c-3.3 0-4.9-1.3-4.9-3.5 0-3 3.2-3.9 7-4.2v-.6c0-1.6-1.1-2-2.6-2a7 7 0 0 0-3.1.7l-.6-1.4c.8-.3 2.3-.8 4.1-.8 2.5 0 4.4 1 4.4 3.9v7.1c-.9.5-2.4.8-4.3.8zm2.1-6.5c-2.8.3-4.7.8-4.7 3 0 1.5 1.1 2.2 2.8 2.2.8 0 1.5-.2 1.9-.4V14zM228.6 20.5c-2.4 0-3.3-1.5-3.3-3.1v-7h-1.6V8.9h1.6V6.4l2.4-.7v3.2h2.2v1.5h-2.2v6.9c0 .9.5 1.6 1.5 1.6l.7-.1v1.5a3 3 0 0 1-1.3.2zM233.1 7c-.8 0-1.4-.6-1.4-1.3s.6-1.3 1.4-1.3c.8 0 1.4.6 1.4 1.3s-.7 1.3-1.4 1.3zm-1.2 13.2V8.9h2.4v11.3h-2.4zM239.6 20.5c-1.4 0-2.7-.4-3.4-.8l.6-1.6a5 5 0 0 0 2.5.7c1.2 0 2.2-.8 2.2-1.8 0-2.7-5-1.4-5-5.1 0-1.7 1.5-3.3 4-3.3 1.4 0 2.4.4 3.2.8l-.6 1.4c-.4-.3-1.1-.6-2.1-.6-1.3 0-2 .8-2 1.6 0 2.5 5.1 1.4 5.1 5.2-.1 1.8-1.8 3.5-4.5 3.5zM250.1 20.5c-2.4 0-3.3-1.5-3.3-3.1v-7h-1.6V8.9h1.6V6.4l2.4-.7v3.2h2.2v1.5h-2.2v6.9c0 .9.5 1.6 1.5 1.6l.7-.1v1.5l-1.3.2zM254.5 7c-.8 0-1.4-.6-1.4-1.3s.6-1.3 1.4-1.3c.8 0 1.4.6 1.4 1.3s-.6 1.3-1.4 1.3zm-1.2 13.2V8.9h2.4v11.3h-2.4zM262.7 20.5c-2.8 0-4.9-2.3-4.9-6s2.2-5.9 4.9-5.9c1.4 0 2.4.4 2.9.8l-.5 1.4c-.3-.3-1-.5-1.8-.5-2 0-3 1.7-3 4.2 0 2.6 1.2 4.3 2.9 4.3.8 0 1.3-.3 1.8-.6l.6 1.5c-.4.4-1.4.8-2.9.8zM270.2 20.5c-1.4 0-2.7-.4-3.4-.8l.6-1.6a5 5 0 0 0 2.5.7c1.2 0 2.2-.8 2.2-1.8 0-2.7-5-1.4-5-5.1 0-1.7 1.5-3.3 4-3.3 1.4 0 2.4.4 3.2.8l-.6 1.4c-.4-.3-1.1-.6-2.1-.6-1.3 0-2 .8-2 1.6 0 2.5 5.1 1.4 5.1 5.2-.1 1.8-1.8 3.5-4.5 3.5z"/><g><path d="M0 14l1-2c-.5-1.1-.8-1.7-1-2.9V14zM2.2 0S0 0 0 2.8v.4a26 26 0 0 0 1.9 7.4c1.3-2 2.4-3.2 4.2-4.8C9.8 2.8 14 .9 20.7 0H2.2z" fill="#a8bd3a"/><path class="st0" fill="#fff" d="M23.9 1.5c-7.6.7-12.8 2.9-16.5 6.1A18 18 0 0 0 2.9 13 20.7 20.7 0 0 0 21 24h.2s2.8.1 2.8-3.1V1.5h-.1zM4.4 17.6c-.9-1-1.6-2.1-2.3-3.3-.8 1.5-1.5 3.2-2.1 4.9V24h14a19 19 0 0 1-9.6-6.4z"/></g></svg>