<?xml version="1.0" encoding="utf-8"?>
<!-- Generator: Adobe Illustrator 23.0.4, SVG Export Plug-In . SVG Version: 6.00 Build 0)  -->
<svg version="1.1" xmlns="http://www.w3.org/2000/svg" xmlns:xlink="http://www.w3.org/1999/xlink" x="0px" y="0px"
	 width="200" height="17.5" style="enable-background:new 0 0 200 17.5;" xml:space="preserve">
<style type="text/css">
	.st0{fill:#A8BD3A;}
	.st1{fill:#FFFFFF;}
</style>
<path class="st0" d="M0,10.2l0.7-1.5C0.4,7.9,0.1,7.5,0,6.6V10.2z M1.6,0C1.6,0,0,0,0,2v0.3C0.2,4.2,0.7,6,1.4,7.7
    c0.9-1.5,1.7-2.3,3.1-3.5C7.1,2,10.2,0.7,15.1,0H1.6z"/>
<path class="st1" d="M75.9,6.8v7.9h1.2V7.4c0.5-0.3,1.7-0.4,2.4-0.1l0.2-1h-0.6C77.6,6.2,76.7,6.4,75.9,6.8z M96.8,6.3
    c-1.3,0-2.4,0.4-3,0.6l0.4,1c0.7-0.3,1.5-0.5,2.3-0.5c1.1,0,1.9,0.3,1.9,1.5v0.4c-2.8,0.2-5.1,0.9-5.1,3.1c0,1.6,1.2,2.5,3.6,2.5
    c1.3,0,2.5-0.2,3.1-0.6V9.2C100,7.1,98.7,6.3,96.8,6.3z M98.4,13.7c-0.3,0.1-0.8,0.3-1.4,0.3c-1.2,0-2-0.5-2-1.6
    c0-1.6,1.4-2,3.4-2.2V13.7z M104.2,4.1l-1.7,0.5v1.8h-1.2v1.1h1.2v5.1c0,1.2,0.7,2.3,2.4,2.3l0.9-0.1v-1.1l-0.5,0.1
    c-0.7,0-1.1-0.5-1.1-1.2v-5h1.6V6.5h-1.6V4.1z M70.8,6.3c-2.5,0-3.6,1.9-3.6,4.3c0,2.4,1.2,4.3,3.6,4.3c2.4,0,3.5-1.9,3.5-4.3
    C74.3,8.2,73.2,6.3,70.8,6.3z M70.8,14c-1.7,0-2.3-1.7-2.3-3.4s0.5-3.5,2.3-3.5c1.7,0,2.3,1.8,2.3,3.5C73.2,12.2,72.7,14,70.8,14
    z M90.4,10.8l0.1,1.2L89.8,11l-4.4-6.8h-1.7v10.4h1.5v-7l-0.1-1.2c0,0,0.2,0.6,0.6,1.1l4.7,7.2h1.5V4.2h-1.5V10.8z M43.4,3.4
    c-0.4,0-0.7,0.3-0.7,0.7s0.3,0.7,0.7,0.7c0.4,0,0.7-0.3,0.7-0.7S43.8,3.4,43.4,3.4z M33.6,5.2v1.2h-1.2v0.7h1.2v7.5h1.2V7.1h1.7
    V6.4h-1.7V5.1c0-1.2,0.8-1.7,1.6-1.7h0.1V2.7h-0.3C34.5,2.7,33.6,3.7,33.6,5.2z M38.5,5.2v1.2h-1.2v0.7h1.2v7.5h1.2V7.1h1.7V6.4
    h-1.7V5.1c0-1.2,0.8-1.7,1.6-1.7h0.1V2.7h-0.3C39.4,2.7,38.5,3.7,38.5,5.2z M26.9,3.9c-3,0-4.3,2.5-4.3,5.5c0,3,1.4,5.5,4.3,5.5
    c3,0,4.2-2.4,4.2-5.5C31.1,6.4,29.9,3.9,26.9,3.9z M26.9,13.9c-2.2,0-2.9-2.3-2.9-4.5c0-2.2,0.7-4.6,2.9-4.6s2.9,2.4,2.9,4.6
    C29.8,11.6,29.1,13.9,26.9,13.9z M42.8,14.6H44V6.4h-1.2V14.6z M55.6,6.3c-2,0-3.6,1.5-3.6,4.3c0,3,1.6,4.4,3.9,4.4
    c1.2,0,2.2-0.3,2.7-0.6l-0.4-0.9c-0.5,0.2-1.2,0.5-2.3,0.5c-1.7,0-2.8-0.9-2.9-2.9l5.8-0.8C59,7.6,57.7,6.3,55.6,6.3z M53.1,10.3
    C53.1,8,54.2,7,55.6,7c1.3,0,2.2,0.8,2.2,2.7L53.1,10.3z M63.6,5.2v1.2h-1.2v0.7h1.2v7.5h1.2V7.1h1.7V6.4h-1.7V5.1
    c0-1.2,0.8-1.7,1.6-1.7h0.1V2.7h-0.3C64.4,2.7,63.6,3.7,63.6,5.2z M49.5,7.1c0.7,0,1.2,0.2,1.5,0.4l0.3-0.7c-0.4-0.3-1-0.6-2-0.6
    c-2,0-3.5,1.6-3.5,4.3c0,2.6,1.5,4.3,3.4,4.3c1,0,1.7-0.3,2-0.5l-0.3-0.8C50.5,13.8,50,14,49.4,14c-1.5,0-2.5-1.4-2.5-3.4
    C47,8.6,47.8,7.1,49.5,7.1z M107.2,14.7h1.7V6.5h-1.7V14.7z M169.7,3.2c-0.6,0-1,0.4-1,0.9s0.4,0.9,1,0.9c0.5,0,1-0.4,1-0.9
    S170.3,3.2,169.7,3.2z M174,8.6c0-0.6,0.5-1.2,1.5-1.2c0.7,0,1.2,0.2,1.5,0.4l0.4-1c-0.6-0.3-1.3-0.6-2.3-0.6
    c-1.8,0-2.9,1.2-2.9,2.4c0,2.7,3.6,1.7,3.6,3.7c0,0.7-0.7,1.3-1.6,1.3c-0.6,0-1.3-0.2-1.8-0.5l-0.4,1.2c0.5,0.3,1.5,0.6,2.5,0.6
    c2,0,3.2-1.2,3.3-2.5C177.7,9.6,174,10.4,174,8.6z M168.8,14.7h1.7V6.5h-1.7V14.7z M165.8,4.1L164,4.7v1.8h-1.2v1.1h1.2v5.1
    c0,1.2,0.7,2.3,2.4,2.3c0.3,0,0.6,0,0.9-0.1v-1.1l-0.5,0.1c-0.7,0-1.1-0.5-1.1-1.2v-5h1.6V6.5h-1.6V4.1z M181.4,4.1l-1.7,0.5v1.8
    h-1.2v1.1h1.2v5.1c0,1.2,0.7,2.3,2.4,2.3l0.9-0.1v-1.1l-0.5,0.1c-0.7,0-1.1-0.5-1.1-1.2v-5h1.6V6.5h-1.6V4.1z M196.3,8.6
    c0-0.6,0.5-1.2,1.5-1.2c0.7,0,1.2,0.2,1.5,0.4l0.4-1c-0.6-0.3-1.3-0.6-2.3-0.6c-1.8,0-2.9,1.2-2.9,2.4c0,2.7,3.6,1.7,3.6,3.7
    c0,0.7-0.7,1.3-1.6,1.3c-0.6,0-1.3-0.2-1.8-0.5l-0.4,1.2c0.5,0.3,1.5,0.6,2.5,0.6c2,0,3.2-1.2,3.3-2.5
    C200,9.6,196.3,10.4,196.3,8.6z M191.7,7.5c0.6,0,1.1,0.1,1.3,0.4l0.4-1c-0.4-0.3-1.1-0.6-2.1-0.6c-2,0-3.6,1.6-3.6,4.3
    s1.5,4.4,3.6,4.4c1.1,0,1.8-0.3,2.1-0.6l-0.4-1.1c-0.4,0.2-0.7,0.4-1.3,0.4c-1.2,0-2.1-1.2-2.1-3.1
    C189.5,8.7,190.2,7.5,191.7,7.5z M108,3.2c-0.6,0-1,0.4-1,0.9s0.4,0.9,1,0.9s1-0.4,1-0.9S108.6,3.2,108,3.2z M185.3,3.2
    c-0.6,0-1,0.4-1,0.9s0.4,0.9,1,0.9s1-0.4,1-0.9S185.9,3.2,185.3,3.2z M184.4,14.7h1.7V6.5h-1.7V14.7z M136.2,14.7h1.7v-12h-1.7
    V14.7z M131.1,6.3c-1.3,0-2.4,0.4-3,0.6l0.4,1c0.7-0.3,1.5-0.5,2.3-0.5c1.1,0,1.9,0.3,1.9,1.5v0.4c-2.8,0.2-5.1,0.9-5.1,3.1
    c0,1.6,1.2,2.5,3.6,2.5c1.4,0,2.5-0.2,3.1-0.6V9.2C134.3,7.1,132.9,6.3,131.1,6.3z M132.7,13.7c-0.3,0.1-0.8,0.3-1.4,0.3
    c-1.2,0-2-0.5-2-1.6c0-1.6,1.4-2,3.4-2.2V13.7z M122.7,6.3c-1.3,0-2.5,0.2-3.3,0.6v7.7h1.8V7.6c0.3-0.1,0.8-0.2,1.4-0.2
    c1,0,1.9,0.4,1.9,1.5v5.9l1.7,0.1V8.9C126.2,7.1,124.8,6.3,122.7,6.3z M114.2,6.3c-2.5,0-3.8,2-3.8,4.4c0,2.4,1.2,4.3,3.8,4.3
    c2.5,0,3.7-1.8,3.7-4.3C117.9,8.2,116.8,6.3,114.2,6.3z M114.2,13.8c-1.5,0-2-1.5-2-3.1s0.4-3.2,2-3.2c1.5,0,2,1.6,2,3.2
    S115.8,13.8,114.2,13.8z M144.2,6.9c0-1,0.7-1.7,1.9-1.7c0.7,0,1.5,0.3,1.8,0.5l0.4-1.2C147.9,4.3,147,4,145.8,4
    c-2.1,0-3.5,1.5-3.5,3.1c0,3.3,4.4,2.3,4.4,4.7c0,1-0.9,1.7-2.1,1.7c-0.8,0-1.6-0.3-2-0.5l-0.5,1.3c0.6,0.3,1.6,0.6,2.8,0.6
    c2.2,0,3.7-1.4,3.8-3.3C148.7,8.2,144.2,9.2,144.2,6.9z M158.4,6.3c-1.3,0-2.4,0.4-3,0.6l0.4,1c0.7-0.3,1.5-0.5,2.3-0.5
    c1.1,0,1.9,0.3,1.9,1.5v0.4c-2.8,0.2-5.1,0.9-5.1,3.1c0,1.6,1.2,2.5,3.6,2.5c1.4,0,2.5-0.2,3.1-0.6V9.2
    C161.6,7.1,160.2,6.3,158.4,6.3z M160,13.7c-0.3,0.1-0.8,0.3-1.4,0.3c-1.2,0-2-0.5-2-1.6c0-1.6,1.4-2,3.4-2.2V13.7z M152.4,4.1
    l-1.7,0.5v1.8h-1.2v1.1h1.2v5.1c0,1.2,0.7,2.3,2.4,2.3l0.9-0.1v-1.1l-0.5,0.1c-0.7,0-1.1-0.5-1.1-1.2v-5h1.6V6.5h-1.6V4.1z
        M3.2,12.8c-0.7-0.7-1.2-1.5-1.7-2.4C0.9,11.5,0.4,12.7,0,14v3.5h10.2C7.4,16.7,5,15.1,3.2,12.8z M5.4,5.5C4,6.6,2.9,8,2.1,9.5
    c2.6,4.9,7.6,8,13.2,8h0.1c0,0,2,0.1,2-2.3V1.1h-0.1C11.9,1.6,8.1,3.2,5.4,5.5z"/>
</svg>
