<svg viewBox="0 0 420 36" xmlns="http://www.w3.org/2000/svg"><g fill-rule="nonzero" fill="#000"><path d="M.3 20.3l1.5-3C1.2 16 .7 14.7.3 13.2v7.2zM3.6.1S.3.1.3 4.1v.6C.7 8.4 1.6 12 3 15.4c1.7-2.6 3.8-5 6.3-6.9C14.7 4.1 21 1.5 30.9.1H3.6z"/><path d="M35.7 2c-11.3 1.1-19 4.2-24.5 8.9-2.7 2.2-5 4.8-6.7 7.8a31 31 0 0 0 26.9 16h.3c1.1 0 2.3-.4 3-1.2a4 4 0 0 0 1.2-3.2V2h-.2zm-29 23.5c-1.2-1.5-2.3-3.1-3.3-4.8a50.4 50.4 0 0 0-3.1 7.2v6.8H21a28 28 0 0 1-14.2-9.2zM51.3 29c-1.9 0-3.8-.4-5.5-1.1l.8-1.8c1.3.7 2.8 1 4.3 1 1.3.1 2.5-.3 3.5-1 .9-.8 1.4-2 1.5-3 0-5.2-9.7-3-9.7-9.5 0-1.7.8-3.2 2-4.3 1.4-1 3-1.6 4.8-1.5 1.8 0 3.5.4 5 1.1l-.7 1.6c-1.2-.6-2.6-1-4-1-1.1 0-2.3.3-3.1 1-.9.7-1.4 1.8-1.4 2.9 0 4.9 9.8 2.7 9.8 9.5 0 3.5-3 6-7.3 6zM77.4 29h-2.2l-3.6-12c-.3-.7-.4-1.4-.5-2 0 .6-.2 1.3-.4 2l-3.8 12h-2.2l-5-16.4H62l3.4 12 .3 2.1.5-2 3.7-12h2.2l3.6 12 .5 2 .4-2 3.4-12h2.3l-5 16.3zM90 35.7h-2.6l2.9-6.6-6-16.5H87l4 12.2.5 2.2.6-2.2 4-12.2h2.2L90 35.7zM107.8 30c-5 0-7.6-3.3-7.6-8.3 0-5.4 3-8.8 7.6-8.8 1 0 2 .2 3 .4V5.9h2.2v22.9c-1.6.8-3.4 1.2-5.2 1.1zm3-15.3l-2.5-.3c-4.2 0-5.7 3.5-5.7 7 0 4.1 1.5 6.8 5.3 6.8 1 0 2-.1 2.8-.6v-13zM124.6 30c-5 0-7.6-3.3-7.6-8.3 0-5.4 3-8.8 7.6-8.8 1 0 2 .2 3 .4V5.9h2.3v22.9c-1.7.8-3.5 1.2-5.3 1.1zm3-15.3l-2.5-.3c-4.2 0-5.7 3.5-5.7 7 0 4.1 1.5 6.8 5.3 6.8 1 0 2-.1 2.8-.6v-13zM137.4 15v15h-2.2V15h-2.4v-1.5h2.4V11a5 5 0 0 1 1.3-3.9c1-1 2.4-1.5 3.7-1.3h.5v1.6h-.2c-.9 0-1.7.3-2.2 1-.6.6-.9 1.5-.8 2.3v2.7h3.2V15h-3.3zM149.6 30c-4.8 0-6.9-2-6.9-5 0-4.5 4.8-5.7 10.6-6.2v-1.1c0-2.7-1.9-3.6-4.4-3.6-1.6.1-3 .5-4.5 1.1l-.6-1.5a14 14 0 0 1 5.5-1c3.4 0 6.3 1.3 6.3 5.2v10.9c-1.9.8-4 1.2-6 1.1zm3.6-10c-4.9.6-8 1.4-8 5 0 2.5 1.8 3.6 4.6 3.6 1.2 0 2.4-.2 3.4-.7V20zM171.8 20.2V29H168v-8.8l-6.6-11.4h4l4.6 8.6 4.7-8.5h3.6zM184.5 30a11 11 0 0 1-5.2-1.3l1-2.2c1.1.6 2.4 1 3.7 1a3 3 0 0 0 3.4-2.6c0-4-7.6-2-7.6-7.5.3-2.9 3-5 6-4.8 1.7 0 3.4.4 4.9 1.2l-1 2c-1-.5-2-.9-3.1-.9-1.9 0-3.1 1.1-3.1 2.4 0 3.6 7.7 2 7.7 7.5 0 2.7-2.6 5.1-6.7 5.1zM199.2 29.9a4.2 4.2 0 0 1-4.7-4.4v-10h-2.3v-2.1h2.2V9.7l3.5-1v4.7h3.2v2h-3.2v10a2 2 0 0 0 2.2 2.2c.4 0 .7 0 1-.2v2.2c-.6.2-1.3.3-2 .3zM211.4 30c-5 0-7.3-2-7.3-5.2 0-4.4 4.7-5.6 10.4-6.1v-.9c0-2.3-1.6-3-4-3a12 12 0 0 0-4.5 1l-.9-2c2-.8 4-1.2 6.1-1.2 3.8 0 6.7 1.5 6.7 5.7v10.5c-2 .8-4.3 1.2-6.5 1.1zm3-9.7c-4.1.5-7 1.2-7 4.4 0 2.3 1.7 3.2 4.2 3.2 1 0 2-.1 2.9-.5v-7zM228.4 30c-5.5 0-8.5-3.1-8.5-8.4 0-5.3 3.3-8.7 8.1-8.7 1 0 2 .1 3 .4V5.9h3.7v22.9c-2 .8-4.1 1.2-6.3 1.1zM231 15L229 15c-3.7 0-5.3 3-5.3 6.5 0 4 1.5 6.3 5 6.3a6 6 0 0 0 2.4-.5v-12zM241.1 22.5c0 1.4.5 2.7 1.5 3.6a5 5 0 0 0 3.8 1.3c1.6 0 3.2-.3 4.7-.9l.8 2.2c-1.8.9-3.8 1.3-5.8 1.2-5.1 0-8.4-3-8.4-8.7 0-5.6 3-8.6 7.6-8.6 4.7 0 7.2 2.9 7.2 8.4l-11.4 1.5zm4-7.7c-2.3 0-4.3 1.9-4.2 6l8.2-1.2c0-3.4-1.6-4.8-4-4.8zM261.1 35.7c-2 0-4-.3-6-1.1l1-2.2c1.4.6 3 1 4.5 1 3 0 4.3-1.6 4.3-3.8v-1c-1.1.4-2.3.6-3.5.6-4.2 0-6.9-3-6.9-7.9 0-5.1 2.8-8.7 8.3-8.7 2 0 3.8.4 5.6 1.2v15.4c-.1 4.2-3 6.5-7.3 6.5zm3.8-20.6c-.7-.3-1.5-.5-2.3-.5-3.1 0-4.7 2.5-4.7 6.6 0 4 1.6 6 4.5 6 .9 0 1.7-.1 2.5-.5V15.1zM278.6 30c-5 0-7.3-2-7.3-5.2 0-4.4 4.8-5.6 10.5-6.1v-.9c0-2.3-1.6-3-4-3a12 12 0 0 0-4.5 1l-.9-2c2-.8 4-1.2 6.1-1.2 3.8 0 6.7 1.5 6.7 5.7v10.5c-2.1.8-4.3 1.2-6.6 1.1zm3.2-9.6c-4.2.4-7 1.2-7 4.4 0 2.2 1.6 3.2 4.2 3.2 1 0 1.9-.2 2.8-.6v-7zM295 30c-4.8 0-6.9-2.2-6.9-5.6V13.6h3.7v11c0 .9.3 1.7 1 2.3.7.6 1.6.9 2.5.7 1 0 2-.1 3-.5V13.6h3.7v15.2c-2.2.8-4.6 1.2-7 1.1zM322.3 29c-6.3 0-10.4-3.8-10.4-10.7 0-6.6 4.5-10.5 10.5-10.5 2 0 4 .3 5.9 1.2l-1 2.1c-1.3-.5-2.9-.8-4.4-.8-4 0-7.1 2.5-7.1 8.1 0 5.3 2.8 8.1 6.3 8.1 1 0 2-.1 3-.5v-6.8h-3.8V17h7.4v10.8c-2 .9-4.2 1.3-6.4 1.2zM349.5 30h-3.2l-3.2-10.8c-.2-.6-.4-1.4-.4-2l-.5 2L339 30h-3.2l-5-16.3h3.5l2.9 10.9c.1.7.3 1.5.3 2.3l.5-2.3 3.3-11h3l3.2 11c.2.7.4 1.5.4 2.3l.5-2.3 3-11h3.1L349.5 30zM357.4 29V5.9h4V29zM371.6 30c-5 0-7.3-2-7.3-5.2 0-4.4 4.8-5.6 10.4-6.1v-.9c0-2.3-1.5-3-3.9-3-1.5 0-3.1.4-4.6 1l-.8-2c2-.8 4-1.2 6.1-1.2 3.8 0 6.7 1.5 6.7 5.7v10.5c-2.1.8-4.4 1.2-6.6 1.1zm3.1-9.7c-4.2.5-7 1.2-7 4.4 0 2.3 1.6 3.2 4.2 3.2 1 0 2-.1 2.8-.5v-7zM388.7 30c-5.6 0-8.6-3.1-8.6-8.4 0-5.3 3.3-8.7 8.2-8.7 1 0 2 .1 3 .4V5.9h3.7v22.9c-2 .8-4.2 1.2-6.3 1.1zm2.6-14.9L389 15c-3.7 0-5.2 3-5.2 6.5 0 4 1.4 6.3 4.9 6.3.8 0 1.7-.2 2.5-.5v-12zM405.4 30c-5 0-7.5-3.8-7.5-8.7 0-5 2.5-8.7 7.5-8.7s7.4 3.8 7.4 8.7c0 4.9-2.5 8.6-7.4 8.6zm0-15.1c-3 0-4 3.1-4 6.3 0 3.3 1 6.3 4 6.3s3.9-3 3.9-6.3c0-3.2-1-6.3-4-6.3zM415.8 29V5.9h3.9V29z"/></g></svg>