<svg width="272" height="24" xmlns="http://www.w3.org/2000/svg" xmlns:xlink="http://www.w3.org/1999/xlink"><defs><path id="a" d="M0 23.71h271.2V0H0z"/></defs><g fill="none" fill-rule="evenodd"><path d="M36.45 6.53c-2.95 0-4 3.23-4 6.2 0 2.91.95 6.12 4 6.12 3.06 0 3.98-3.2 3.98-6.13 0-2.96-1.03-6.19-3.98-6.19m0 13.63c-4 0-5.79-3.31-5.79-7.4 0-4.03 1.79-7.39 5.79-7.39s5.77 3.36 5.77 7.4c0 4.08-1.77 7.39-5.77 7.39M47.2 9.72V19.9h-1.63V9.72h-1.65v-1h1.65v-1.6c0-2.04 1.2-3.5 3.56-3.5l.38.02v1.03h-.19c-1.12 0-2.13.73-2.13 2.26v1.8h2.32v1H47.2zM53.88 9.72V19.9h-1.62V9.72H50.6v-1h1.66v-1.6c0-2.04 1.2-3.5 3.56-3.5l.38.02v1.03H56c-1.12 0-2.12.73-2.12 2.26v1.8h2.32v1h-2.32z" fill="#033E58"/><mask id="b" fill="#fff"><use xlink:href="#a"/></mask><path d="M58.05 19.89h1.63V8.73h-1.63v11.16zm.82-13.3a1 1 0 0 1-1.03-.99c0-.56.46-1.01 1.03-1.01a1 1 0 0 1 0 2zM66.66 20.16c-2.65 0-4.69-2.28-4.69-5.86 0-3.65 2.04-5.84 4.74-5.84 1.35 0 2.25.37 2.72.77l-.41.99a3.32 3.32 0 0 0-1.95-.6c-2.26 0-3.42 1.97-3.42 4.62 0 2.73 1.33 4.68 3.37 4.68.83 0 1.52-.3 1.98-.6l.43 1.07a4.5 4.5 0 0 1-2.77.77M75.32 9.52c-1.8 0-3.33 1.4-3.31 4.53l6.34-.87c0-2.59-1.24-3.66-3.03-3.66zm-3.24 5.46c.21 2.63 1.66 3.96 3.93 3.96 1.37 0 2.41-.35 3.02-.69l.48 1.14c-.7.4-2.02.77-3.62.77-3.14 0-5.37-1.87-5.37-5.88 0-3.83 2.06-5.82 4.86-5.82 2.83 0 4.57 1.74 4.57 5.47l-7.87 1.05zM87.83 9.72V19.9h-1.62V9.72h-1.66v-1h1.66v-1.6c0-2.04 1.2-3.5 3.56-3.5l.38.02v1.03h-.19c-1.12 0-2.13.73-2.13 2.26v1.8h2.32v1h-2.32zM96.07 9.56c-2.43 0-3.14 2.46-3.14 4.76s.76 4.66 3.14 4.66c2.44 0 3.15-2.36 3.15-4.66 0-2.3-.7-4.76-3.15-4.76m0 10.6c-3.29 0-4.8-2.55-4.8-5.84 0-3.3 1.51-5.86 4.8-5.86 3.3 0 4.78 2.57 4.78 5.86 0 3.3-1.48 5.84-4.78 5.84M107.88 9.76c-1.03-.27-2.53-.22-3.24.21v9.92h-1.63V9.23c1.18-.5 2.36-.77 4.45-.77.29 0 .67 0 .84.02l-.42 1.28zM122.58 20l-6.33-9.76c-.47-.72-.81-1.44-.81-1.44h-.04s.05.82.05 1.7V20h-2.07V5.75h2.34l6 9.17c.53.81.84 1.48.84 1.48h.04s-.08-.81-.08-1.66V5.75h2.1V20h-2.04zM133.49 13.83c-2.76.29-4.6.8-4.6 2.96 0 1.5 1.06 2.15 2.73 2.15a4.4 4.4 0 0 0 1.87-.37v-4.74zm-2.06 6.46c-3.27 0-4.81-1.3-4.81-3.44 0-3 3.14-3.81 6.87-4.14v-.64c0-1.54-1.05-2-2.57-2-1.09 0-2.32.32-3.03.65l-.55-1.37c.78-.33 2.25-.8 4.02-.8 2.47 0 4.38 1.01 4.38 3.87v7.06c-.96.48-2.46.8-4.3.8zM142.21 20.25c-2.34 0-3.24-1.52-3.24-3.03V10.3h-1.56V8.84h1.56v-2.5l2.38-.67v3.17h2.17v1.45h-2.17v6.8c0 .88.52 1.56 1.53 1.56.22 0 .42-.04.64-.1v1.47c-.22.1-.7.23-1.3.23M145.4 20h2.4V8.84h-2.4V20zm1.2-13.09c-.77 0-1.4-.56-1.4-1.24 0-.68.63-1.24 1.4-1.24.75 0 1.38.56 1.38 1.24 0 .68-.63 1.24-1.39 1.24zM154.95 10.08c-2.05 0-2.67 2.15-2.67 4.33 0 2.17.65 4.24 2.67 4.24 2.06 0 2.67-2.07 2.67-4.24 0-2.18-.61-4.33-2.67-4.33m0 10.2c-3.4 0-5.1-2.52-5.1-5.85 0-3.33 1.7-5.88 5.1-5.88 3.4 0 5.08 2.55 5.08 5.88s-1.67 5.86-5.08 5.86M168.9 20v-7.97c0-1.43-1.23-1.97-2.6-1.97-.74 0-1.46.14-1.92.33v9.6H162V9.37c1.05-.46 2.68-.81 4.44-.81 2.9 0 4.85.99 4.85 3.43V20h-2.4zM180.05 13.83c-2.76.29-4.6.8-4.6 2.96 0 1.5 1.06 2.15 2.74 2.15a4.4 4.4 0 0 0 1.86-.37v-4.74zM178 20.29c-3.28 0-4.82-1.3-4.82-3.44 0-3 3.14-3.81 6.87-4.14v-.64c0-1.54-1.04-2-2.57-2-1.08 0-2.32.32-3.03.65l-.55-1.37c.78-.33 2.25-.8 4.02-.8 2.47 0 4.38 1.01 4.38 3.87v7.06c-.95.48-2.46.8-4.3.8zM184.76 20V3.74h2.38V20zM196.6 20.29c-1.71 0-3.1-.38-3.88-.81l.66-1.74c.57.33 1.64.68 2.75.68 1.65 0 2.83-.97 2.83-2.38 0-3.13-5.92-1.92-5.92-6.35 0-2.26 1.83-4.23 4.72-4.23a7 7 0 0 1 3.43.8l-.61 1.56a5.28 5.28 0 0 0-2.5-.66c-1.54 0-2.55.93-2.55 2.26 0 3.06 6.06 1.73 6.06 6.45 0 2.53-2.08 4.42-4.99 4.42M207.63 20.25c-2.34 0-3.24-1.52-3.24-3.03V10.3h-1.56V8.84h1.56v-2.5l2.38-.67v3.17h2.17v1.45h-2.17v6.8c0 .88.52 1.56 1.53 1.56.22 0 .41-.04.64-.1v1.47c-.23.1-.7.23-1.31.23M217.11 13.83c-2.76.29-4.6.8-4.6 2.96 0 1.5 1.06 2.15 2.73 2.15a4.4 4.4 0 0 0 1.87-.37v-4.74zm-2.05 6.46c-3.28 0-4.82-1.3-4.82-3.44 0-3 3.14-3.81 6.87-4.14v-.64c0-1.54-1.05-2-2.57-2-1.08 0-2.32.32-3.03.65l-.55-1.37c.78-.33 2.25-.8 4.02-.8 2.47 0 4.38 1.01 4.38 3.87v7.06c-.95.48-2.46.8-4.3.8zM225.83 20.25c-2.34 0-3.23-1.52-3.23-3.03V10.3h-1.56V8.84h1.56v-2.5l2.38-.67v3.17h2.17v1.45h-2.17v6.8c0 .88.51 1.56 1.52 1.56.23 0 .42-.04.65-.1v1.47c-.23.1-.7.23-1.32.23M229.01 20h2.4V8.84h-2.4V20zm1.2-13.09c-.76 0-1.39-.56-1.39-1.24 0-.68.63-1.24 1.4-1.24.75 0 1.38.56 1.38 1.24 0 .68-.63 1.24-1.39 1.24zM236.61 20.29a7 7 0 0 1-3.37-.81l.63-1.53c.48.33 1.43.66 2.44.66 1.22 0 2.19-.79 2.19-1.74 0-2.65-4.9-1.4-4.9-5.05 0-1.66 1.49-3.27 3.9-3.27 1.38 0 2.39.35 3.15.8l-.63 1.4a3.71 3.71 0 0 0-2.04-.65c-1.23 0-2 .75-2 1.6 0 2.48 5 1.38 5 5.1 0 1.79-1.7 3.49-4.37 3.49M247.03 20.25c-2.34 0-3.24-1.52-3.24-3.03V10.3h-1.56V8.84h1.56v-2.5l2.39-.67v3.17h2.17v1.45h-2.17v6.8c0 .88.5 1.56 1.52 1.56.23 0 .42-.04.65-.1v1.47c-.23.1-.7.23-1.32.23M250.21 20h2.4V8.84h-2.4V20zm1.2-13.09c-.76 0-1.39-.56-1.39-1.24 0-.68.63-1.24 1.4-1.24.75 0 1.38.56 1.38 1.24 0 .68-.63 1.24-1.39 1.24zM259.5 20.29c-2.74 0-4.83-2.24-4.83-5.88 0-3.69 2.15-5.86 4.85-5.86 1.4 0 2.33.4 2.86.8l-.53 1.35a3.01 3.01 0 0 0-1.75-.54c-1.95 0-2.95 1.68-2.95 4.18 0 2.55 1.16 4.23 2.9 4.23a3 3 0 0 0 1.76-.56l.59 1.47c-.5.41-1.47.8-2.9.8M266.84 20.29a7 7 0 0 1-3.37-.81l.63-1.53c.47.33 1.43.66 2.43.66 1.22 0 2.2-.79 2.2-1.74 0-2.65-4.9-1.4-4.9-5.05 0-1.66 1.49-3.27 3.9-3.27 1.38 0 2.38.35 3.15.8l-.63 1.4a3.7 3.7 0 0 0-2.04-.65c-1.24 0-2 .75-2 1.6 0 2.48 4.99 1.38 4.99 5.1 0 1.79-1.7 3.49-4.36 3.49" fill="#033E58" mask="url(#b)"/><path d="M2.22 0S0 0 0 2.74v.44c.21 2.52.99 5.1 1.87 7.36a19.2 19.2 0 0 1 4.2-4.74C9.64 2.73 13.86.94 20.41 0H2.22zM0 13.87c.36-.74.62-1.32 1.04-2.02C.56 10.72.3 10.16 0 8.95v4.92z" fill="#A8BD3A" mask="url(#b)"/><path d="M4.32 17.41c-.86-1-1.6-2.1-2.23-3.25A35.15 35.15 0 0 0 0 19.04v4.63l13.82.02c-4.37-1.33-7-3.35-9.5-6.28M23.61 1.5c-7.5.71-12.63 2.86-16.3 6a18.27 18.27 0 0 0-4.46 5.32C5.72 18.4 11.58 23.1 20.73 23.7h.18s2.82.1 2.82-3.03V1.47l-.12.03" fill="#033E58" mask="url(#b)"/></g></svg>