<svg xmlns="http://www.w3.org/2000/svg" width="120" height="27" viewBox="0 12 638.26 116.2">
    <path d="M0,70.5c1.8-3.7,3.6-7.2,5.6-10.7A127.94,127.94,0,0,1,0,42.6V70.5M10.9,0S0,0,0,13.5v7.2A128.06,128.06,0,0,0,7.9,56.2a114.75,114.75,0,0,1,22.3-26C47.8,15.1,71.5,4.7,103.7.1Z" style="fill:#a8bd3a"/>
    <path d="M115.9,7.3c-36.8,3.5-62,14-80,29.4a108.15,108.15,0,0,0-23.6,29c14.1,27.4,41.1,47.6,86,50.5h4.4s13.8.5,13.8-14.9V7.2l-.6.1M21.2,85.4a92.68,92.68,0,0,1-11-16A173,173,0,0,0,0,93.4v22.7l73.6.1c-22.9-5.5-40.1-16.4-52.4-30.8" style="fill:#003d59"/>
    <path d="M157.45,52a22.25,22.25,0,0,1-10.29-2.16l1.44-3.5a17.76,17.76,0,0,0,8,1.93c5.36,0,9.33-3.27,9.33-8,0-10-17.85-5.88-17.85-18.59,0-6,4.83-11.31,12.6-11.31a18.62,18.62,0,0,1,9.11,2.16l-1.34,3.15a14.65,14.65,0,0,0-7.23-1.92c-5,0-8.26,3.08-8.26,7.51,0,9.62,18,5.36,18,18.71,0,7-5.68,12-13.51,12" style="fill:#003d59"/>
    <path d="M208.45,51.19h-4.13l-7.13-23.14a25.66,25.66,0,0,1-.85-3.79h-.11a22.89,22.89,0,0,1-.81,3.79l-7.34,23.14H184l-9.86-31.42H179l6.48,23.08a28.89,28.89,0,0,1,.81,4h.11a26.16,26.16,0,0,1,.85-4l7.13-23.08h4.29l6.92,23.08c.53,1.81.91,4,.91,4h.11a38.62,38.62,0,0,1,.8-4L214,19.77h4.34Z" style="fill:#003d59"/>
    <path d="M232.33,63.72h-5.1l5.63-12.53L221.28,19.77h5l7.56,23.14A33.09,33.09,0,0,1,235,47.16h.11s.48-2.15,1.18-4.25L244,19.77h4.29Z" style="fill:#003d59"/>
    <path d="M266.38,52c-9.92,0-14.9-6.18-14.9-15.92,0-10.49,6-16.78,14.9-16.78a23.76,23.76,0,0,1,5.84.7V5.44h4.56V49.79C274.58,51,271,52,266.38,52m5.84-29.44a20.69,20.69,0,0,0-4.88-.52c-8.2,0-11.2,6.76-11.2,13.64,0,8,3.06,13.23,10.51,13.23a11.37,11.37,0,0,0,5.57-1.23Z" style="fill:#003d59"/>
    <path d="M297.75,52c-9.92,0-14.9-6.18-14.9-15.92,0-10.49,6-16.78,14.9-16.78a23.76,23.76,0,0,1,5.84.7V5.44h4.56V49.79C306,51,302.36,52,297.75,52m5.84-29.44a20.61,20.61,0,0,0-4.87-.52c-8.2,0-11.21,6.76-11.21,13.64,0,8,3.06,13.23,10.51,13.23a11.37,11.37,0,0,0,5.57-1.23Z" style="fill:#003d59"/>
    <path d="M322.85,22.57V51.19h-4.56V22.57h-4.66v-2.8h4.66V15.23c0-5.71,3.38-9.85,10-9.85.48,0,1.07.06,1.07.06V8.35h-.53c-3.17,0-6,2-6,6.35v5.07h6.54v2.8Z" style="fill:#003d59"/>
    <path d="M344.52,52c-8.74,0-12.66-3.68-12.66-9.27,0-8.57,8.85-11,19.46-11.95V28.81c0-5.07-3.43-6.65-8.09-6.65A20.48,20.48,0,0,0,335.08,24l-1.18-2.8A25.47,25.47,0,0,1,344,19c6.38,0,11.64,2.56,11.64,10.2V49.79c-2.58,1.34-6.49,2.16-11.15,2.16m6.8-18.77c-9.06,1-15,2.62-15,9.38,0,4.66,3.43,6.65,8.68,6.65a14.14,14.14,0,0,0,6.32-1.29Z" style="fill:#003d59"/>
    <polygon points="164.8 97.36 164.8 114.78 157.77 114.78 157.77 97.36 145.5 74.68 153 74.68 161.53 91.76 161.63 91.76 170.43 74.68 177.18 74.68 164.8 97.36" style="fill:#003d59"/>
    <path d="M188.5,115.6a19.6,19.6,0,0,1-9.48-2.28l1.77-4.31a13,13,0,0,0,6.86,1.87c3.43,0,6.16-2.22,6.16-4.9,0-7.46-13.77-4-13.77-14.22,0-4.66,4.18-9.2,11-9.2a16.71,16.71,0,0,1,8.85,2.27l-1.77,3.9a10.43,10.43,0,0,0-5.74-1.81c-3.48,0-5.63,2.1-5.63,4.49,0,7,14.05,3.91,14.05,14.4,0,5-4.77,9.79-12.28,9.79" style="fill:#003d59"/>
    <path d="M217.85,115.48c-6.6,0-9.12-4.26-9.12-8.51V87.45h-4.39V83.37h4.39V76.32l6.7-1.87v8.92h6.11v4.08h-6.11v19.17a4,4,0,0,0,4.29,4.38,6.36,6.36,0,0,0,1.82-.3v4.14a9.67,9.67,0,0,1-3.69.64" style="fill:#003d59"/>
    <path d="M238.76,115.6c-9.22,0-13.56-3.67-13.56-9.68,0-8.45,8.84-10.72,19.35-11.65V92.46c0-4.31-3-5.59-7.24-5.59a22.44,22.44,0,0,0-8.52,1.8l-1.55-3.84a29.58,29.58,0,0,1,11.31-2.27c7,0,12.33,2.85,12.33,10.89v19.88c-2.68,1.34-6.92,2.27-12.12,2.27m5.79-18.19c-7.77.82-13,2.28-13,8.34,0,4.25,3,6.06,7.72,6.06a12.39,12.39,0,0,0,5.25-1Z" style="fill:#003d59"/>
    <path d="M272.12,115.6c-10.13,0-15.71-5.89-15.71-16.09s6.11-16.72,15-16.72a23.64,23.64,0,0,1,5.57.64V69h6.7v44.3c-2.57,1.34-6.37,2.27-11.52,2.27M276.94,87a16.81,16.81,0,0,0-4-.47c-6.91,0-9.64,5.83-9.64,12.53,0,7.64,2.67,12.19,9.05,12.19a10.36,10.36,0,0,0,4.61-1Z" style="fill:#003d59"/>
    <path d="M295.67,101.49c.64,6.24,4.07,9.39,9.86,9.39a20.7,20.7,0,0,0,8.84-1.81l1.62,4.26a25.31,25.31,0,0,1-11.05,2.27c-9.6,0-15.76-5.83-15.76-16.61,0-10.37,5.73-16.43,14.42-16.43s13.56,5.53,13.56,16.08Zm7.66-14.86c-4.61,0-8.25,3.67-8.09,11.48L310.68,96c0-6.47-2.9-9.33-7.35-9.33" style="fill:#003d59"/>
    <path d="M334.71,128.13A29.87,29.87,0,0,1,323,125.92l1.78-4.32a23.24,23.24,0,0,0,9,1.81c5.9,0,8.42-3,8.42-7.41v-2a15.84,15.84,0,0,1-6.92,1.28c-8.2,0-13.67-6-13.67-15.5,0-10.15,5.52-17.19,16.3-17.19,4.66,0,8.84,1,10.94,2.27v30.54c0,8.27-5.74,12.76-14.1,12.76m7.45-40.62a9.74,9.74,0,0,0-4.61-1c-6.11,0-9.12,5-9.12,12.94,0,7.75,3,11.94,8.8,11.94a10.79,10.79,0,0,0,4.93-1.05Z" style="fill:#003d59"/>
    <path d="M367.69,115.6c-9.22,0-13.56-3.67-13.56-9.68,0-8.45,8.84-10.72,19.35-11.65V92.46c0-4.31-3-5.59-7.24-5.59a22.44,22.44,0,0,0-8.52,1.8l-1.56-3.84a29.67,29.67,0,0,1,11.31-2.27c7,0,12.33,2.85,12.33,10.89v19.88c-2.68,1.34-6.91,2.27-12.11,2.27m5.79-18.19c-7.77.82-13,2.28-13,8.34,0,4.25,3,6.06,7.72,6.06a12.44,12.44,0,0,0,5.26-1Z" style="fill:#003d59"/>
    <path d="M399.28,115.6c-8.9,0-12.81-4.14-12.81-10.84V83.37h6.7v21.74c0,3.32,2.08,5.88,6.43,5.88a13.1,13.1,0,0,0,5.74-1V83.37H412v29.95c-2.47,1.23-7,2.28-12.76,2.28" style="fill:#003d59"/><path d="M453,115.6c-11.58,0-19.35-7.41-19.35-21.1,0-13,8.47-20.63,19.67-20.63,5.31,0,8.63,1,10.88,2.27l-1.71,4.26c-1.34-.76-4.61-1.52-8.26-1.52-7.66,0-13.29,4.78-13.29,15.91,0,10.49,5.25,16,11.79,16a13.17,13.17,0,0,0,5.52-.93V96.13h-7V91.94H465v21.38c-2.63,1.4-6.65,2.28-12.06,2.28" style="fill:#003d59"/>
    <path d="M506.31,114.78h-6.22l-6.16-20.51a25.15,25.15,0,0,1-.8-4.08H493a25.8,25.8,0,0,1-.81,4.08l-6.38,20.51h-6.21L470,83.37h6.91l5.53,21a30.89,30.89,0,0,1,.75,4.31h.1a27.75,27.75,0,0,1,.91-4.31l6.28-21h5.89l6.06,21a31.25,31.25,0,0,1,.86,4.31h.11a29.91,29.91,0,0,1,.74-4.31l5.69-21H516Z" style="fill:#003d59"/>
    <polygon points="520.81 114.78 520.81 69.03 527.51 69.03 527.51 87.9 527.51 114.78 520.81 114.78" style="fill:#003d59"/>
    <path d="M546.65,115.6c-9.22,0-13.56-3.67-13.56-9.68,0-8.45,8.85-10.72,19.36-11.65V92.46c0-4.31-3-5.59-7.24-5.59a22.49,22.49,0,0,0-8.53,1.8l-1.55-3.84a29.67,29.67,0,0,1,11.31-2.27c7,0,12.33,2.85,12.33,10.89v19.88c-2.68,1.34-6.92,2.27-12.12,2.27m5.8-18.19c-7.78.82-13,2.28-13,8.34,0,4.25,3,6.06,7.72,6.06a12.44,12.44,0,0,0,5.26-1Z" style="fill:#003d59"/>
    <path d="M580,115.6c-10.14,0-15.71-5.89-15.71-16.09s6.11-16.72,15-16.72a23.73,23.73,0,0,1,5.58.64V69h6.7v44.3c-2.57,1.34-6.38,2.27-11.52,2.27M584.84,87a16.81,16.81,0,0,0-4-.47c-6.92,0-9.65,5.83-9.65,12.53,0,7.64,2.68,12.19,9.06,12.19a10.39,10.39,0,0,0,4.61-1Z" style="fill:#003d59"/>
    <path d="M611.44,115.6c-9.6,0-14.37-7.11-14.37-16.5s4.77-16.54,14.37-16.54,14.31,7.16,14.31,16.54-4.71,16.5-14.31,16.5m0-28.73c-5.79,0-7.5,6-7.5,12.18s1.82,12,7.5,12,7.51-5.83,7.51-12-1.72-12.18-7.51-12.18" style="fill:#003d59"/>
    <polygon points="631.56 114.78 631.56 69.03 638.26 69.03 638.26 89.06 638.26 114.78 631.56 114.78" style="fill:#003d59"/>
</svg>
