<svg xmlns="http://www.w3.org/2000/svg" width="120" height="27" viewBox="0 9 595.4 116.2">
    <path fill="#a8bd3a" d="M0,70.5c1.8-3.7,3.6-7.2,5.6-10.7A127.94,127.94,0,0,1,0,42.6V70.5M10.9,0S0,0,0,13.5v7.2A128.06,128.06,0,0,0,7.9,56.2a114.75,114.75,0,0,1,22.3-26C47.8,15.1,71.5,4.7,103.7.1Z"/>
    <path fill="#003d59" d="M115.9,7.3c-36.8,3.5-62,14-80,29.4a108.15,108.15,0,0,0-23.6,29c14.1,27.4,41.1,47.6,86,50.5h4.4s13.8.5,13.8-14.9V7.2l-.6.1M21.2,85.4a92.68,92.68,0,0,1-11-16A173,173,0,0,0,0,93.4v22.7l73.6.1c-22.9-5.5-40.1-16.4-52.4-30.8"/>
    <path fill="#003d59" d="M161,51.9c-11.3,0-16.3-9.3-16.3-20.8s5-20.8,16.3-20.8,16.3,9.5,16.3,20.8c-.1,11.5-5.1,20.8-16.3,20.8m0-38.3c-8.3,0-11.3,9.1-11.3,17.4s2.7,17.3,11.3,17.3,11.2-9.1,11.2-17.3S169.3,13.6,161,13.6m30.2,8.9V51.2h-4.5V22.6H182V19.8h4.7V15.2c0-5.7,3.4-9.9,10-9.9a8,8,0,0,1,1.1.1V8.3h-.5c-3.2,0-6,2.1-6,6.4v5.1h6.6v2.8l-6.7-.1Zm18.9,0V51.2h-4.5V22.6h-4.7V19.8h4.7V15.2c0-5.7,3.4-9.9,10-9.9a8,8,0,0,1,1.1.1V8.3h-.5c-3.2,0-6,2.1-6,6.4v5.1h6.6v2.8l-6.7-.1Zm14-8.8a2.82,2.82,0,0,1-2.9-2.8,2.9,2.9,0,0,1,5.8,0,2.76,2.76,0,0,1-2.9,2.8m-2.3,6h4.6V51.2h-4.6Zm24.3,32.2c-7.4,0-13.2-6.4-13.2-16.5,0-10.3,5.8-16.5,13.4-16.5a12.36,12.36,0,0,1,7.7,2.2l-1.2,2.8a8.92,8.92,0,0,0-5.5-1.7c-6.4,0-9.7,5.5-9.7,13,0,7.7,3.7,13.2,9.5,13.2a9.8,9.8,0,0,0,5.6-1.7l1.2,3c-1.3,1.2-4,2.2-7.8,2.2m15.3-14.6c.6,7.4,4.7,11.1,11.1,11.1a18.36,18.36,0,0,0,8.5-1.9l1.3,3.2a22.58,22.58,0,0,1-10.2,2.1c-8.8,0-15.1-5.3-15.1-16.6,0-10.8,5.8-16.4,13.7-16.4s12.9,4.9,12.9,15.4l-22.2,3.1ZM270.5,22c-5.1,0-9.4,4-9.3,12.8l17.9-2.5C279,25,275.5,22,270.5,22m42.2.5V51.2h-4.5V22.6h-4.7V19.8h4.7V15.2c0-5.7,3.4-9.9,10-9.9a8,8,0,0,1,1.1.1V8.3h-.5c-3.2,0-6,2.1-6,6.4v5.1h6.6v2.8Zm23.2,29.4c-9.3,0-13.5-7.2-13.5-16.5s4.2-16.5,13.5-16.5,13.5,7.2,13.5,16.5-4.2,16.5-13.5,16.5m0-29.8c-6.9,0-8.8,7-8.8,13.4s2.1,13.1,8.8,13.1c6.9,0,8.9-6.6,8.9-13.1s-2-13.4-8.9-13.4m33.3.6c-2.9-.8-7.1-.6-9.1.6V51.2h-4.6V21.1c3.3-1.4,6.6-2.2,12.5-2.2h2.4c0,.1-1.2,3.8-1.2,3.8ZM171.3,114.8,153.5,87.3c-1.3-2.1-2.3-4.1-2.3-4.1h-.1s.2,2.3.2,4.8v26.8h-5.8V74.7h6.6L169,100.5a46.13,46.13,0,0,1,2.4,4.1h.1s-.2-2.3-.2-4.7V74.6h5.9v40.1l-5.9.1Zm25,.8c-9.2,0-13.6-3.7-13.6-9.7,0-8.5,8.8-10.7,19.4-11.7V92.4c0-4.3-2.9-5.6-7.2-5.6a22.34,22.34,0,0,0-8.5,1.8l-1.6-3.8a30.2,30.2,0,0,1,11.3-2.3c7,0,12.3,2.9,12.3,10.9v19.9c-2.7,1.4-6.9,2.3-12.1,2.3m5.8-18.2c-7.8.8-13,2.3-13,8.3,0,4.2,3,6.1,7.7,6.1a12.33,12.33,0,0,0,5.3-1.1Zm24.5,18.1c-6.6,0-9.1-4.3-9.1-8.5V87.5h-4.4V83.4h4.4v-7l6.7-1.9v8.9h6.1v4.1h-6.1v19.2c0,2.5,1.4,4.4,4.3,4.4a5.66,5.66,0,0,0,1.8-.3v4.1a11.47,11.47,0,0,1-3.7.6M239,77.9a3.52,3.52,0,1,1,3.9-3.5,3.71,3.71,0,0,1-3.9,3.5m-3.4,5.5h6.8v31.4h-6.8Zm26.9,32.2c-9.6,0-14.4-7.1-14.4-16.5s4.8-16.6,14.4-16.6,14.3,7.2,14.3,16.6-4.7,16.5-14.3,16.5m0-28.7c-5.8,0-7.5,6.1-7.5,12.2s1.8,11.9,7.5,11.9,7.5-5.8,7.5-11.9-1.7-12.2-7.5-12.2m39.3,27.9V92.3c0-4-3.4-5.5-7.3-5.5a16,16,0,0,0-5.4.9v27.1h-6.7v-30a32.8,32.8,0,0,1,12.5-2.3c8.2,0,13.7,2.8,13.7,9.7v22.6Zm25.7.8c-9.2,0-13.6-3.7-13.6-9.7,0-8.5,8.9-10.7,19.4-11.7V92.4c0-4.3-2.9-5.6-7.2-5.6a22.34,22.34,0,0,0-8.5,1.8L316,84.8a30.2,30.2,0,0,1,11.3-2.3c7,0,12.3,2.9,12.3,10.9v19.9c-2.7,1.4-6.9,2.3-12.1,2.3m5.8-18.2c-7.8.8-13,2.3-13,8.3,0,4.2,3,6.1,7.7,6.1a12.33,12.33,0,0,0,5.3-1.1Zm13.2,17.4V69h6.7v45.8Zm38.6.8a23.94,23.94,0,0,1-10.9-2.3l1.9-4.9a17,17,0,0,0,7.7,1.9c4.7,0,8-2.7,8-6.7,0-8.8-16.7-5.4-16.7-17.9,0-6.4,5.2-11.9,13.3-11.9a20.22,20.22,0,0,1,9.7,2.3l-1.7,4.4a14.57,14.57,0,0,0-7-1.9c-4.3,0-7.2,2.6-7.2,6.4,0,8.6,17.1,4.9,17.1,18.2-.1,7.1-6,12.4-14.2,12.4m31.1-.1c-6.6,0-9.1-4.3-9.1-8.5V87.5h-4.4V83.4h4.4v-7l6.7-1.9v8.9h6.1v4.1h-6.1v19.2a4.07,4.07,0,0,0,4.3,4.4,5.66,5.66,0,0,0,1.8-.3v4.1a12.06,12.06,0,0,1-3.7.6m20.9.1c-9.2,0-13.6-3.7-13.6-9.7,0-8.5,8.9-10.7,19.4-11.7V92.4c0-4.3-2.9-5.6-7.2-5.6a22.34,22.34,0,0,0-8.5,1.8l-1.6-3.8a30.2,30.2,0,0,1,11.3-2.3c7,0,12.3,2.9,12.3,10.9v19.9c-2.6,1.4-6.9,2.3-12.1,2.3m5.8-18.2c-7.8.8-13,2.3-13,8.3,0,4.2,3,6.1,7.7,6.1a12.33,12.33,0,0,0,5.3-1.1Zm24.6,18.1c-6.6,0-9.1-4.3-9.1-8.5V87.5H454V83.4h4.4v-7l6.7-1.9v8.9h6.1v4.1h-6.1v19.2a4.07,4.07,0,0,0,4.3,4.4,5.66,5.66,0,0,0,1.8-.3v4.1a12.69,12.69,0,0,1-3.7.6m12.3-37.6a3.52,3.52,0,1,1,3.9-3.5,3.65,3.65,0,0,1-3.9,3.5m-3.4,5.5h6.8v31.4h-6.8Zm21.4,32.2a19.46,19.46,0,0,1-9.5-2.3l1.8-4.3a13.21,13.21,0,0,0,6.9,1.9c3.4,0,6.2-2.2,6.2-4.9,0-7.5-13.8-4-13.8-14.2,0-4.7,4.2-9.2,11-9.2a16.21,16.21,0,0,1,8.8,2.3l-1.8,3.9a10.31,10.31,0,0,0-5.7-1.8c-3.5,0-5.6,2.1-5.6,4.5,0,7,14,3.9,14,14.4,0,4.9-4.7,9.7-12.3,9.7m29.4-.1c-6.6,0-9.1-4.3-9.1-8.5V87.5h-4.4V83.4h4.4v-7l6.7-1.9v8.9h6.1v4.1h-6.1v19.2c0,2.5,1.4,4.4,4.3,4.4a5.66,5.66,0,0,0,1.8-.3v4.1a12.06,12.06,0,0,1-3.7.6m12.3-37.6a3.52,3.52,0,1,1,3.9-3.5c.1,2-1.7,3.5-3.9,3.5m-3.3,5.5H543v31.4h-6.8Zm26.2,32.2c-7.7,0-13.6-6.3-13.6-16.6s6.1-16.5,13.7-16.5c3.9,0,6.6,1.1,8,2.3L569,88.6a8.61,8.61,0,0,0-4.9-1.5c-5.5,0-8.3,4.7-8.3,11.8s3.3,11.9,8.2,11.9a8.39,8.39,0,0,0,4.9-1.6l1.7,4.1c-1.5,1.2-4.2,2.3-8.2,2.3m20.6,0a19.46,19.46,0,0,1-9.5-2.3l1.8-4.3a13.21,13.21,0,0,0,6.9,1.9c3.4,0,6.2-2.2,6.2-4.9,0-7.5-13.8-4-13.8-14.2,0-4.7,4.2-9.2,11-9.2a16.85,16.85,0,0,1,8.9,2.3l-1.8,3.9A10.31,10.31,0,0,0,587,87c-3.5,0-5.6,2.1-5.6,4.5,0,7,14,3.9,14,14.4-.1,4.9-4.9,9.7-12.4,9.7"/>
</svg>
