<svg width="269" height="25" xmlns="http://www.w3.org/2000/svg" xmlns:xlink="http://www.w3.org/1999/xlink"><defs><path id="a" d="M.07.31h23.51v23.56H.07z"/></defs><g fill="none" fill-rule="evenodd"><mask id="b" fill="#fff"><use xlink:href="#a"/></mask><path d="M2.2.31S0 .31 0 3.04v.43c.21 2.5.98 5.06 1.86 7.31a19.09 19.09 0 0 1 4.16-4.7C9.6 3.01 13.78 1.23 20.3.3H2.21zM0 14.1c.36-.74.62-1.31 1.03-2C.56 10.96.29 10.4 0 9.2v4.89z" fill="#98B74D" mask="url(#b)"/><path d="M4.3 17.62c-.86-1-1.6-2.1-2.22-3.24A34.81 34.81 0 0 0 0 19.24v4.59l13.73.03a18.55 18.55 0 0 1-9.43-6.24zM23.46 1.8c-7.45.71-12.55 2.84-16.2 5.96a18.15 18.15 0 0 0-4.43 5.29c2.86 5.55 8.68 10.22 17.77 10.82h.18s2.8.1 2.8-3.02V1.78l-.12.02z" fill="#193956" mask="url(#b)"/><path d="M32.6 19.58a7.49 7.49 0 0 1-3.48-.73l.48-1.18a6 6 0 0 0 2.7.65c1.81 0 3.15-1.1 3.15-2.7 0-3.38-6.03-1.98-6.03-6.28 0-2.02 1.63-3.82 4.26-3.82 1.36 0 2.5.38 3.08.73l-.45 1.07a4.97 4.97 0 0 0-2.45-.65c-1.68 0-2.79 1.04-2.79 2.54 0 3.24 6.09 1.8 6.09 6.31 0 2.37-1.92 4.06-4.57 4.06M49.82 19.32h-1.4l-2.4-7.81c-.2-.63-.3-1.28-.3-1.28h-.03s-.07.65-.27 1.28l-2.48 7.81h-1.4l-3.33-10.6h1.65l2.2 7.79c.19.7.26 1.36.26 1.36h.04s.07-.63.29-1.36l2.4-7.8h1.46l2.33 7.8c.18.6.31 1.36.31 1.36h.04s.1-.77.27-1.36l2.23-7.8h1.46l-3.33 10.61M57.88 23.56h-1.72l1.9-4.24-3.9-10.6h1.7l2.55 7.8c.24.72.36 1.45.36 1.45h.04s.16-.73.4-1.44l2.62-7.82h1.45l-5.4 14.85M71.36 9.64a7 7 0 0 0-1.65-.18c-2.77 0-3.78 2.29-3.78 4.6 0 2.7 1.03 4.48 3.55 4.48.8 0 1.5-.18 1.88-.42V9.64zm-1.97 9.94c-3.35 0-5.04-2.09-5.04-5.37 0-3.55 2.03-5.67 5.04-5.67.74 0 1.45.1 1.97.23v-4.9h1.54v14.98c-.74.42-1.95.73-3.51.73zM81.96 9.64a7 7 0 0 0-1.65-.18c-2.77 0-3.78 2.29-3.78 4.6 0 2.7 1.03 4.48 3.55 4.48.8 0 1.5-.18 1.88-.42V9.64zm-1.97 9.94c-3.35 0-5.04-2.09-5.04-5.37 0-3.55 2.03-5.67 5.04-5.67.74 0 1.44.1 1.97.23v-4.9h1.54v14.98c-.74.42-1.96.73-3.51.73zM88.47 9.66v9.66h-1.54V9.66h-1.58V8.7h1.58V7.18c0-1.93 1.14-3.33 3.38-3.33l.36.02v.98h-.18c-1.07 0-2.02.7-2.02 2.15v1.71h2.2v.95h-2.2M98.08 13.24c-3.06.36-5.07.89-5.07 3.17 0 1.58 1.16 2.24 2.94 2.24.88 0 1.64-.17 2.13-.43v-4.98zm-2.3 6.34c-2.95 0-4.27-1.24-4.27-3.13 0-2.9 2.99-3.7 6.57-4.04v-.65c0-1.7-1.16-2.24-2.73-2.24-1 0-2.12.3-2.75.61l-.4-.94a8.57 8.57 0 0 1 3.42-.73c2.15 0 3.93.86 3.93 3.44v6.95c-.87.46-2.2.73-3.77.73zM110.05 13.6v5.89h-2.37V13.6l-4.15-7.65h2.54l2.88 5.77h.03l2.97-5.77h2.28l-4.18 7.65M118.06 19.77a6.65 6.65 0 0 1-3.2-.77l.6-1.46c.44.32 1.35.63 2.3.63 1.17 0 2.1-.74 2.1-1.65 0-2.52-4.66-1.34-4.66-4.8 0-1.58 1.41-3.11 3.71-3.11 1.3 0 2.26.33 2.99.76l-.6 1.32a3.52 3.52 0 0 0-1.94-.6c-1.17 0-1.9.7-1.9 1.5 0 2.37 4.74 1.33 4.74 4.87 0 1.7-1.6 3.3-4.14 3.3M127.97 19.73c-2.23 0-3.08-1.44-3.08-2.88v-6.6h-1.48V8.89h1.48V6.5l2.26-.63v3.01h2.07v1.38h-2.07v6.47c0 .83.5 1.48 1.45 1.48.22 0 .4-.04.62-.1v1.4c-.22.1-.67.22-1.25.22M137 13.63c-2.64.27-4.4.76-4.4 2.81 0 1.44 1.02 2.05 2.62 2.05.74 0 1.37-.16 1.77-.36v-4.5zm-1.96 6.14c-3.12 0-4.59-1.24-4.59-3.27 0-2.86 3-3.62 6.54-3.94v-.6c0-1.47-1-1.9-2.44-1.9-1.04 0-2.21.3-2.88.61l-.53-1.3c.74-.31 2.14-.76 3.82-.76 2.36 0 4.17.96 4.17 3.68v6.7c-.9.46-2.34.78-4.1.78zM147.93 10.12c-.4-.1-.85-.16-1.36-.16-2.33 0-3.26 1.97-3.26 4.24 0 2.57.91 4.11 3.06 4.11.66 0 1.24-.16 1.56-.34v-7.85zm-1.63 9.65c-3.42 0-5.3-2-5.3-5.44 0-3.48 2.06-5.65 5.05-5.65.74 0 1.41.1 1.88.22V4.04h2.27V19a8.5 8.5 0 0 1-3.9.77zM156.85 9.98c-1.56 0-2.8 1.24-2.74 3.88l5.22-.73c0-2.18-.98-3.15-2.48-3.15zm-2.6 5.02c.22 2.11 1.38 3.17 3.34 3.17 1.32 0 2.39-.31 2.99-.6l.54 1.43c-.74.37-2.03.77-3.73.77-3.24 0-5.32-1.97-5.32-5.61 0-3.5 1.93-5.55 4.87-5.55 2.97 0 4.58 1.86 4.58 5.43l-7.26.96zM169.96 10.28a3.3 3.3 0 0 0-1.56-.34c-2.06 0-3.07 1.68-3.07 4.37 0 2.62 1.01 4.04 2.97 4.04.63 0 1.28-.14 1.66-.35v-7.72zM167.44 24c-1.7 0-3.16-.37-3.96-.75l.6-1.46c.65.32 1.88.61 3.04.61 2 0 2.84-1.02 2.84-2.5v-.68c-.47.25-1.32.43-2.33.43-2.77 0-4.62-2.03-4.62-5.24 0-3.42 1.86-5.8 5.5-5.8 1.58 0 3 .35 3.7.76V19.7c0 2.8-1.94 4.31-4.77 4.31zM180.54 13.63c-2.62.27-4.38.76-4.38 2.81 0 1.44 1.01 2.05 2.6 2.05.75 0 1.38-.16 1.78-.36v-4.5zm-1.95 6.14c-3.12 0-4.59-1.24-4.59-3.27 0-2.86 3-3.62 6.54-3.94v-.6c0-1.47-1-1.9-2.44-1.9-1.03 0-2.21.3-2.88.61l-.53-1.3c.75-.31 2.14-.76 3.82-.76 2.36 0 4.17.96 4.17 3.68v6.7c-.9.46-2.34.78-4.1.78zM189.26 19.77c-3.01 0-4.33-1.4-4.33-3.66V8.88h2.26v7.34c0 1.13.7 2 2.18 2a4.4 4.4 0 0 0 1.93-.36V8.88h2.27V19c-.84.41-2.37.77-4.31.77M206.25 19.77c-3.91 0-6.54-2.5-6.54-7.13 0-4.39 2.86-6.97 6.65-6.97 1.79 0 2.91.36 3.67.77l-.58 1.44a6.67 6.67 0 0 0-2.79-.52c-2.59 0-4.49 1.62-4.49 5.38 0 3.54 1.78 5.4 3.99 5.4.83 0 1.55-.14 1.86-.32v-4.63h-2.37v-1.42h4.67V19c-.89.47-2.24.77-4.07.77M224.27 19.5h-2.1l-2.08-6.94c-.2-.67-.27-1.38-.27-1.38h-.04s-.07.71-.27 1.38l-2.16 6.93h-2.1L212 8.9h2.34l1.86 7.08c.2.78.26 1.46.26 1.46h.03s.08-.68.31-1.46l2.12-7.09h2l2.04 7.09c.2.69.29 1.46.29 1.46h.03s.08-.8.26-1.46l1.92-7.09h2.08l-3.26 10.61M229.17 19.49h2.26V4.04h-2.26zM239.85 13.63c-2.62.27-4.38.76-4.38 2.81 0 1.44 1.02 2.05 2.6 2.05.75 0 1.38-.16 1.78-.36v-4.5zm-1.95 6.14c-3.12 0-4.58-1.24-4.58-3.27 0-2.86 2.98-3.62 6.53-3.94v-.6c0-1.47-1-1.9-2.44-1.9-1.03 0-2.21.3-2.88.61l-.53-1.3c.75-.31 2.14-.76 3.82-.76 2.36 0 4.17.96 4.17 3.68v6.7c-.9.46-2.34.78-4.1.78zM250.8 10.12c-.4-.1-.86-.16-1.36-.16-2.34 0-3.26 1.97-3.26 4.24 0 2.57.9 4.11 3.06 4.11.65 0 1.23-.16 1.56-.34v-7.85zm-1.63 9.65c-3.43 0-5.31-2-5.31-5.44 0-3.48 2.06-5.65 5.05-5.65.74 0 1.41.1 1.89.22V4.04h2.26V19a8.5 8.5 0 0 1-3.9.77zM259.78 10.06c-1.95 0-2.53 2.05-2.53 4.12 0 2.06.61 4.03 2.53 4.03 1.96 0 2.54-1.97 2.54-4.03 0-2.07-.58-4.12-2.54-4.12zm0 9.7c-3.24 0-4.85-2.4-4.85-5.56 0-3.17 1.6-5.6 4.85-5.6 3.24 0 4.84 2.43 4.84 5.6 0 3.16-1.6 5.57-4.84 5.57zM266.58 19.49h2.26V4.04h-2.26z" fill="#193956"/></g></svg>