<?xml version="1.0" encoding="utf-8"?>
<!-- Generator: Adobe Illustrator 21.0.2, SVG Export Plug-In . SVG Version: 6.00 Build 0)  -->
<svg version="1.1" id="Layer_1" xmlns="http://www.w3.org/2000/svg" xmlns:xlink="http://www.w3.org/1999/xlink" x="0px" y="0px"
	 viewBox="0 0 595.3 116.3" style="enable-background:new 0 0 595.3 116.3;" xml:space="preserve">
<style type="text/css">
	.st0{fill:#A8BD3A;}
	.st1{fill:#003D59;}
</style>
<path class="st0" d="M0,70.5c1.8-3.7,3.6-7.2,5.6-10.7C3.3,54.2,1.5,48.5,0,42.6V70.5 M10.9,0C10.9,0,0,0,0,13.5v7.2
	C1,33,3.6,45,7.9,56.2c6.1-9.6,13.4-18.4,22.3-26C47.8,15.1,71.5,4.7,103.7,0.1L10.9,0z"/>
<path class="st1" d="M115.9,7.3c-36.8,3.5-62,14-80,29.4c-9.7,8.3-17.3,18-23.6,29c14.1,27.4,41.1,47.6,86,50.5h4.4
	c0,0,13.8,0.5,13.8-14.9V7.2L115.9,7.3 M21.2,85.4c-4.2-4.9-7.9-10.3-11-16C6.3,76.9,2.9,84.9,0,93.4v22.7l73.6,0.1
	C50.7,110.7,33.5,99.8,21.2,85.4"/>
<path class="st1" d="M161,51.9c-11.3,0-16.3-9.3-16.3-20.8c0-11.4,5-20.8,16.3-20.8s16.3,9.5,16.3,20.8
	C177.2,42.6,172.2,51.9,161,51.9 M161,13.6c-8.3,0-11.3,9.1-11.3,17.4c0,8.2,2.7,17.3,11.3,17.3s11.2-9.1,11.2-17.3
	C172.2,22.7,169.3,13.6,161,13.6 M191.2,22.5v28.7h-4.5V22.6H182v-2.8h4.7v-4.6c0-5.7,3.4-9.9,10-9.9c0.5,0,1.1,0.1,1.1,0.1v2.9
	h-0.5c-3.2,0-6,2.1-6,6.4v5.1h6.6v2.8L191.2,22.5L191.2,22.5z M210.1,22.5v28.7h-4.5V22.6h-4.7v-2.8h4.7v-4.6c0-5.7,3.4-9.9,10-9.9
	c0.5,0,1.1,0.1,1.1,0.1v2.9h-0.5c-3.2,0-6,2.1-6,6.4v5.1h6.6v2.8L210.1,22.5L210.1,22.5z M224.1,13.7c-1.6,0-2.9-1.2-2.9-2.8
	s1.3-2.9,2.9-2.9c1.6,0,2.9,1.3,2.9,2.9S225.8,13.7,224.1,13.7 M221.8,19.7h4.6v31.5h-4.6V19.7z M246.1,51.9
	c-7.4,0-13.2-6.4-13.2-16.5c0-10.3,5.8-16.5,13.4-16.5c3.8,0,6.3,1.1,7.7,2.2l-1.2,2.8c-1-0.8-2.9-1.7-5.5-1.7
	c-6.4,0-9.7,5.5-9.7,13c0,7.7,3.7,13.2,9.5,13.2c2.4,0,4.3-0.8,5.6-1.7l1.2,3C252.6,50.9,249.9,51.9,246.1,51.9 M261.4,37.3
	c0.6,7.4,4.7,11.1,11.1,11.1c3.9,0,6.8-1,8.5-1.9l1.3,3.2c-2,1.1-5.7,2.1-10.2,2.1c-8.8,0-15.1-5.3-15.1-16.6
	c0-10.8,5.8-16.4,13.7-16.4c8,0,12.9,4.9,12.9,15.4L261.4,37.3L261.4,37.3z M270.5,22c-5.1,0-9.4,4-9.3,12.8l17.9-2.5
	C279,25,275.5,22,270.5,22 M312.7,22.5v28.7h-4.5V22.6h-4.7v-2.8h4.7v-4.6c0-5.7,3.4-9.9,10-9.9c0.5,0,1.1,0.1,1.1,0.1v2.9h-0.5
	c-3.2,0-6,2.1-6,6.4v5.1h6.6v2.8L312.7,22.5z M335.9,51.9c-9.3,0-13.5-7.2-13.5-16.5s4.2-16.5,13.5-16.5s13.5,7.2,13.5,16.5
	C349.4,44.8,345.2,51.9,335.9,51.9 M335.9,22.1c-6.9,0-8.8,7-8.8,13.4c0,6.5,2.1,13.1,8.8,13.1c6.9,0,8.9-6.6,8.9-13.1
	S342.8,22.1,335.9,22.1 M369.2,22.7c-2.9-0.8-7.1-0.6-9.1,0.6v27.9h-4.6V21.1c3.3-1.4,6.6-2.2,12.5-2.2h2.4
	C370.4,19,369.2,22.7,369.2,22.7L369.2,22.7z M171.3,114.8l-17.8-27.5c-1.3-2.1-2.3-4.1-2.3-4.1h-0.1c0,0,0.2,2.3,0.2,4.8v26.8h-5.8
	V74.7h6.6l16.9,25.8c1.5,2.3,2.4,4.1,2.4,4.1h0.1c0,0-0.2-2.3-0.2-4.7V74.6h5.9v40.1L171.3,114.8L171.3,114.8z M196.3,115.6
	c-9.2,0-13.6-3.7-13.6-9.7c0-8.5,8.8-10.7,19.4-11.7v-1.8c0-4.3-2.9-5.6-7.2-5.6c-3.1,0-6.6,0.9-8.5,1.8l-1.6-3.8
	c2.2-0.9,6.3-2.3,11.3-2.3c7,0,12.3,2.9,12.3,10.9v19.9C205.7,114.7,201.5,115.6,196.3,115.6 M202.1,97.4c-7.8,0.8-13,2.3-13,8.3
	c0,4.2,3,6.1,7.7,6.1c2.2,0,4.1-0.5,5.3-1.1V97.4z M226.6,115.5c-6.6,0-9.1-4.3-9.1-8.5V87.5h-4.4v-4.1h4.4v-7l6.7-1.9v8.9h6.1v4.1
	h-6.1v19.2c0,2.5,1.4,4.4,4.3,4.4c0.6,0,1.2-0.1,1.8-0.3v4.1C229.7,115.1,228.4,115.5,226.6,115.5 M239,77.9c-2.1,0-3.9-1.6-3.9-3.5
	s1.8-3.5,3.9-3.5c2.1,0,3.9,1.6,3.9,3.5C242.9,76.4,241.1,77.9,239,77.9 M235.6,83.4h6.8v31.4h-6.8V83.4z M262.5,115.6
	c-9.6,0-14.4-7.1-14.4-16.5s4.8-16.6,14.4-16.6c9.6,0,14.3,7.2,14.3,16.6C276.9,108.5,272.1,115.6,262.5,115.6 M262.5,86.9
	c-5.8,0-7.5,6.1-7.5,12.2s1.8,11.9,7.5,11.9c5.8,0,7.5-5.8,7.5-11.9C270,92.9,268.3,86.9,262.5,86.9 M301.8,114.8V92.3
	c0-4-3.4-5.5-7.3-5.5c-2.1,0-4.1,0.4-5.4,0.9v27.1h-6.7v-30c2.9-1.3,7.6-2.3,12.5-2.3c8.2,0,13.7,2.8,13.7,9.7v22.6L301.8,114.8
	L301.8,114.8z M327.5,115.6c-9.2,0-13.6-3.7-13.6-9.7c0-8.5,8.9-10.7,19.4-11.7v-1.8c0-4.3-2.9-5.6-7.2-5.6c-3.1,0-6.6,0.9-8.5,1.8
	l-1.6-3.8c2.2-0.9,6.3-2.3,11.3-2.3c7,0,12.3,2.9,12.3,10.9v19.9C336.9,114.7,332.7,115.6,327.5,115.6 M333.3,97.4
	c-7.8,0.8-13,2.3-13,8.3c0,4.2,3,6.1,7.7,6.1c2.2,0,4.1-0.5,5.3-1.1V97.4z M346.5,114.8V69h6.7v45.8H346.5z M385.1,115.6
	c-4.8,0-8.7-1.1-10.9-2.3l1.9-4.9c1.6,0.9,4.6,1.9,7.7,1.9c4.7,0,8-2.7,8-6.7c0-8.8-16.7-5.4-16.7-17.9c0-6.4,5.2-11.9,13.3-11.9
	c4.3,0,7.8,1.2,9.7,2.3l-1.7,4.4c-1.5-0.9-4.2-1.9-7-1.9c-4.3,0-7.2,2.6-7.2,6.4c0,8.6,17.1,4.9,17.1,18.2
	C399.2,110.3,393.3,115.6,385.1,115.6 M416.2,115.5c-6.6,0-9.1-4.3-9.1-8.5V87.5h-4.4v-4.1h4.4v-7l6.7-1.9v8.9h6.1v4.1h-6.1v19.2
	c0,2.5,1.5,4.4,4.3,4.4c0.6,0,1.2-0.1,1.8-0.3v4.1C419.3,115.1,417.9,115.5,416.2,115.5 M437.1,115.6c-9.2,0-13.6-3.7-13.6-9.7
	c0-8.5,8.9-10.7,19.4-11.7v-1.8c0-4.3-2.9-5.6-7.2-5.6c-3.1,0-6.6,0.9-8.5,1.8l-1.6-3.8c2.2-0.9,6.3-2.3,11.3-2.3
	c7,0,12.3,2.9,12.3,10.9v19.9C446.6,114.7,442.3,115.6,437.1,115.6 M442.9,97.4c-7.8,0.8-13,2.3-13,8.3c0,4.2,3,6.1,7.7,6.1
	c2.2,0,4.1-0.5,5.3-1.1V97.4z M467.5,115.5c-6.6,0-9.1-4.3-9.1-8.5V87.5H454v-4.1h4.4v-7l6.7-1.9v8.9h6.1v4.1h-6.1v19.2
	c0,2.5,1.5,4.4,4.3,4.4c0.6,0,1.2-0.1,1.8-0.3v4.1C470.5,115.1,469.2,115.5,467.5,115.5 M479.8,77.9c-2.1,0-3.9-1.6-3.9-3.5
	s1.8-3.5,3.9-3.5s3.9,1.6,3.9,3.5C483.7,76.4,482,77.9,479.8,77.9 M476.4,83.4h6.8v31.4h-6.8V83.4z M497.8,115.6
	c-3.9,0-7.6-1.1-9.5-2.3l1.8-4.3c1.3,0.9,4,1.9,6.9,1.9c3.4,0,6.2-2.2,6.2-4.9c0-7.5-13.8-4-13.8-14.2c0-4.7,4.2-9.2,11-9.2
	c3.9,0,6.7,1,8.8,2.3l-1.8,3.9c-1-0.7-3.1-1.8-5.7-1.8c-3.5,0-5.6,2.1-5.6,4.5c0,7,14,3.9,14,14.4
	C510.1,110.8,505.4,115.6,497.8,115.6 M527.2,115.5c-6.6,0-9.1-4.3-9.1-8.5V87.5h-4.4v-4.1h4.4v-7l6.7-1.9v8.9h6.1v4.1h-6.1v19.2
	c0,2.5,1.4,4.4,4.3,4.4c0.6,0,1.2-0.1,1.8-0.3v4.1C530.3,115.1,528.9,115.5,527.2,115.5 M539.5,77.9c-2.1,0-3.9-1.6-3.9-3.5
	s1.8-3.5,3.9-3.5c2.1,0,3.9,1.6,3.9,3.5C543.5,76.4,541.7,77.9,539.5,77.9 M536.2,83.4h6.8v31.4h-6.8V83.4z M562.4,115.6
	c-7.7,0-13.6-6.3-13.6-16.6c0-10.4,6.1-16.5,13.7-16.5c3.9,0,6.6,1.1,8,2.3l-1.5,3.8c-1-0.7-2.7-1.5-4.9-1.5
	c-5.5,0-8.3,4.7-8.3,11.8c0,7.2,3.3,11.9,8.2,11.9c2.1,0,3.8-0.8,4.9-1.6l1.7,4.1C569.1,114.5,566.4,115.6,562.4,115.6 M583,115.6
	c-3.9,0-7.6-1.1-9.5-2.3l1.8-4.3c1.3,0.9,4,1.9,6.9,1.9c3.4,0,6.2-2.2,6.2-4.9c0-7.5-13.8-4-13.8-14.2c0-4.7,4.2-9.2,11-9.2
	c3.9,0,6.7,1,8.9,2.3l-1.8,3.9c-1-0.7-3.1-1.8-5.7-1.8c-3.5,0-5.6,2.1-5.6,4.5c0,7,14,3.9,14,14.4
	C595.3,110.8,590.5,115.6,583,115.6"/>
</svg>
