<?xml version="1.0" encoding="utf-8"?>
<!-- Generator: Adobe Illustrator 23.0.4, SVG Export Plug-In . SVG Version: 6.00 Build 0)  -->
<svg version="1.1" id="Layer_1" xmlns="http://www.w3.org/2000/svg" xmlns:xlink="http://www.w3.org/1999/xlink" x="0px" y="0px"
	 width="220" height="19.4" style="enable-background:new 0 0 220 19.4;" xml:space="preserve">
<style type="text/css">
	.st0{fill:#98B74D;}
	.st1{fill:#193956;}
</style>

<path class="st0" d="M0,11.3c0.3-0.6,0.5-1.1,0.8-1.6C0.5,8.7,0.2,8.3,0,7.3V11.3z M1.8,0.1V0C1.8,0,0,0,0,2.2v0.4
	c0.2,2,0.8,4.1,1.5,6c0.9-1.5,2.1-2.8,3.4-3.8c2.9-2.5,6.4-4,11.7-4.7H1.8z"/>

<path class="st1" d="M5.9,6.1c-1.5,1.2-2.7,2.7-3.6,4.3c2.3,4.5,7.1,8.4,14.5,8.9H17c0,0,2.3,0.1,2.3-2.5V1.2h-0.1
	C13.1,1.8,8.9,3.6,5.9,6.1z M3.5,14.2c-0.7-0.8-1.3-1.7-1.8-2.7c-0.7,1.3-1.2,2.6-1.7,4v3.8h11.2C8.2,18.4,5.5,16.6,3.5,14.2z
	 M104.1,4.6l-1.8,0.5v2H101v1.1h1.2v5.4c0,1.2,0.7,2.4,2.5,2.4c0.5,0,0.8-0.1,1-0.2v-1.1c-0.2,0-0.3,0.1-0.5,0.1
	c-0.8,0-1.2-0.5-1.2-1.2V8.2h1.7V7H104L104.1,4.6L104.1,4.6z M26.7,15.8L26.7,15.8L26.7,15.8L26.7,15.8z M96.1,9.2
	c0-0.7,0.6-1.2,1.6-1.2c0.6,0,1.1,0.2,1.6,0.5l0.5-1.1c-0.6-0.4-1.4-0.6-2.4-0.6c-1.9,0-3,1.3-3,2.5c0,2.8,3.8,1.9,3.8,3.9
	c0,0.7-0.8,1.4-1.7,1.4c-0.8,0-1.5-0.3-1.9-0.5L94,15.3c0.8,0.4,1.7,0.6,2.6,0.6l0,0c2.1,0,3.4-1.3,3.4-2.7
	C100,10.3,96.1,11.2,96.1,9.2z M89.2,9.3L89.2,9.3l-2.4-4.7h-2.1l3.4,6.3v4.8H90v-4.8l3.4-6.3h-1.9L89.2,9.3z M40.5,13.3
	c-0.1,0.5-0.2,1.1-0.2,1.1l0,0c0,0-0.1-0.6-0.3-1.1l-1.9-6.4h-1.2l-2,6.4c-0.2,0.6-0.2,1.1-0.2,1.1l0,0c0,0-0.1-0.5-0.2-1.1
	l-1.8-6.4h-1.4l2.7,8.7h1.1l2-6.4c0.2-0.5,0.2-1,0.2-1l0,0c0,0,0.1,0.5,0.2,1l2,6.4h1.1l2.7-8.7h-1.2L40.5,13.3z M48.5,13.3
	c-0.2,0.6-0.3,1.2-0.3,1.2l0,0c0,0-0.1-0.6-0.3-1.2l-2.1-6.4h-1.4l3.2,8.7L46,19h1.4l4.4-12.2h-1.2L48.5,13.3z M58.4,6.9
	c-0.4-0.1-1-0.2-1.6-0.2c-2.5,0-4.1,1.7-4.1,4.6c0,2.7,1.4,4.4,4.1,4.4c1.3,0,2.3-0.3,2.9-0.6V2.9h-1.3C58.4,2.9,58.4,6.9,58.4,6.9z
	 M58.4,14.6c-0.3,0.2-0.9,0.3-1.5,0.3c-2.1,0-2.9-1.5-2.9-3.7c0-1.9,0.8-3.8,3.1-3.8c0.5,0,0.9,0,1.4,0.1L58.4,14.6L58.4,14.6z
	 M67.1,6.9c-0.4-0.1-1-0.2-1.6-0.2c-2.5,0-4.1,1.7-4.1,4.6c0,2.7,1.4,4.4,4.1,4.4c1.3,0,2.3-0.3,2.9-0.6V2.9h-1.3V6.9z M67.1,14.6
	c-0.3,0.2-0.9,0.3-1.5,0.3c-2.1,0-2.9-1.5-2.9-3.7c0-1.9,0.8-3.8,3.1-3.8c0.5,0,0.9,0,1.4,0.1L67.1,14.6L67.1,14.6z M25.4,7.3
	c0-1.2,0.9-2.1,2.3-2.1c0.7,0,1.4,0.2,2,0.5l0.4-0.9c-0.5-0.3-1.4-0.6-2.5-0.6c-2.2,0-3.5,1.5-3.5,3.1c0,3.5,4.9,2.4,4.9,5.1
	c0,1.3-1.1,2.2-2.6,2.2c-0.8,0-1.5-0.2-2.2-0.5l-0.4,1c0.9,0.4,1.9,0.6,2.8,0.6c2.2,0,3.7-1.4,3.7-3.3C30.4,8.8,25.4,9.9,25.4,7.3z
	 M71.1,5.6v1.2h-1.3v0.8h1.3v7.9h1.3V7.7h1.8V6.9h-1.8V5.5c0-1.2,0.8-1.8,1.7-1.8h0.1V2.9h-0.3C72.1,2.9,71.1,4.1,71.1,5.6z
	 M78.2,6.7c-1,0-1.9,0.2-2.8,0.6L75.8,8c0.5-0.3,1.4-0.5,2.3-0.5c1.3,0,2.2,0.4,2.2,1.8v0.5c-2.9,0.3-5.4,0.9-5.4,3.3
	c0,1.5,1.1,2.6,3.5,2.6c1.3,0,2.4-0.2,3.1-0.6V9.5C81.5,7.4,80,6.7,78.2,6.7z M80.3,14.7c-0.4,0.2-1,0.4-1.7,0.4
	c-1.5,0-2.4-0.5-2.4-1.8c0-1.9,1.6-2.3,4.1-2.6V14.7z M132.2,11.2c0-2.9-1.3-4.4-3.7-4.4c-2.4,0-4,1.7-4,4.5c0,3,1.7,4.6,4.4,4.6
	c1.4,0,2.4-0.3,3.1-0.6l-0.4-1.2c-0.5,0.2-1.4,0.5-2.4,0.5c-1.6,0-2.6-0.9-2.7-2.6l0,0L132.2,11.2z M126.1,11.1c0-2.2,1-3.2,2.2-3.2
	c1.2,0,2,0.8,2,2.6L126.1,11.1z M203.9,15.9L203.9,15.9L203.9,15.9L203.9,15.9z M194.7,15.9L194.7,15.9L194.7,15.9L194.7,15.9z
	 M194.6,6.8c-1.4,0-2.5,0.4-3.1,0.6l0.4,1.1c0.5-0.3,1.5-0.5,2.4-0.5c1.2,0,2,0.4,2,1.6V10c-2.9,0.3-5.3,0.9-5.3,3.2
	c0,1.7,1.2,2.7,3.7,2.7c1.4,0,2.6-0.3,3.4-0.6V9.8C198,7.6,196.5,6.8,194.6,6.8z M196.3,14.6c-0.3,0.2-0.8,0.3-1.5,0.3
	c-1.3,0-2.1-0.5-2.1-1.7c0-1.7,1.4-2.1,3.6-2.3V14.6z M182.9,12.8c-0.1,0.5-0.2,1.2-0.2,1.2l0,0c0,0-0.1-0.6-0.2-1.2L180.8,7h-1.6
	l-1.7,5.8c-0.2,0.6-0.3,1.2-0.3,1.2l0,0c0,0,0-0.6-0.2-1.2L175.4,7h-1.9l2.7,8.7h1.7l1.8-5.7c0.2-0.5,0.2-1.1,0.2-1.1l0,0
	c0,0,0.1,0.6,0.2,1.1l1.7,5.7h1.7l2.7-8.7h-1.7L182.9,12.8z M187.5,15.7h1.8V3.1h-1.8V15.7z M218.2,3.1v12.6h1.8V3.1H218.2z
	 M205.2,7c-0.4-0.1-0.9-0.2-1.5-0.2c-2.4,0-4.1,1.8-4.1,4.6s1.5,4.5,4.3,4.5c1.1,0,2.2-0.2,3.2-0.6V3.1h-1.8L205.2,7L205.2,7z
	 M205.2,14.5c-0.3,0.1-0.7,0.3-1.3,0.3c-1.8,0-2.5-1.3-2.5-3.4c0-1.9,0.8-3.5,2.7-3.5c0.4,0,0.8,0,1.1,0.1V14.5z M212.6,6.8
	c-2.7,0-4,2-4,4.6s1.3,4.5,4,4.5l0,0c2.7,0,4-2,4-4.6C216.5,8.8,215.2,6.8,212.6,6.8z M212.6,14.7c-1.6,0-2.1-1.6-2.1-3.3
	S211,8,212.6,8s2.1,1.7,2.1,3.4C214.7,13,214.2,14.7,212.6,14.7z M133.4,11.5c0,2.6,1.5,4.3,3.8,4.3c0.8,0,1.5-0.1,1.9-0.4V16
	c0,1.2-0.7,2-2.3,2c-0.9,0-2-0.2-2.5-0.5l-0.5,1.2c0.7,0.3,1.8,0.6,3.2,0.6l0,0c2.3,0,3.9-1.2,3.9-3.5V7.4c-0.6-0.3-1.7-0.6-3-0.6
	C134.9,6.8,133.4,8.7,133.4,11.5z M139.1,14.5c-0.3,0.2-0.8,0.3-1.4,0.3c-1.6,0-2.4-1.2-2.4-3.3c0-2.2,0.8-3.6,2.5-3.6
	c0.4,0,0.9,0.1,1.3,0.3C139.1,8.2,139.1,14.5,139.1,14.5z M110.5,15.9L110.5,15.9L110.5,15.9L110.5,15.9z M121.1,7
	c-0.4-0.1-0.9-0.2-1.5-0.2c-2.4,0-4.1,1.8-4.1,4.6s1.5,4.5,4.3,4.5c1.1,0,2.2-0.2,3.2-0.6V3.1h-1.9V7z M121.1,14.5
	c-0.3,0.1-0.7,0.3-1.3,0.3c-1.8,0-2.5-1.3-2.5-3.4c0-1.9,0.8-3.5,2.7-3.5c0.4,0,0.8,0,1.1,0.1C121.1,8,121.1,14.5,121.1,14.5z
	 M110.4,6.8c-1.4,0-2.5,0.4-3.1,0.6l0.4,1.1c0.5-0.3,1.5-0.5,2.4-0.5c1.2,0,2,0.4,2,1.6V10c-2.9,0.3-5.4,0.9-5.4,3.2
	c0,1.7,1.2,2.7,3.8,2.7c1.4,0,2.6-0.3,3.4-0.6V9.8C113.9,7.6,112.4,6.8,110.4,6.8z M112.1,14.6c-0.3,0.2-0.8,0.3-1.4,0.3
	c-1.3,0-2.1-0.5-2.1-1.7c0-1.7,1.4-2.1,3.6-2.3L112.1,14.6L112.1,14.6z M156.5,14.4c-0.5,0.2-1,0.3-1.6,0.3c-1.2,0-1.8-0.7-1.8-1.6
	V7h-1.8v5.9c0,1.8,1.1,3,3.5,3c1.6,0,2.8-0.3,3.5-0.6V7h-1.9v7.4H156.5z M168.3,10.5h1.9v3.8c-0.3,0.1-0.8,0.3-1.5,0.3
	c-1.8,0-3.3-1.5-3.3-4.4c0-3.1,1.6-4.4,3.7-4.4c0.8,0,1.6,0.1,2.3,0.4l0.5-1.2c-0.6-0.3-1.5-0.6-3-0.6c-3.1,0-5.4,2.1-5.4,5.7
	c0,3.8,2.2,5.8,5.4,5.8c1.5,0,2.6-0.2,3.3-0.6V9.4h-3.8L168.3,10.5L168.3,10.5z M146.1,6.8c-1.4,0-2.5,0.4-3.1,0.6l0.4,1.1
	c0.5-0.3,1.5-0.5,2.4-0.5c1.2,0,2,0.4,2,1.6V10c-2.9,0.3-5.4,0.9-5.4,3.2c0,1.7,1.2,2.7,3.8,2.7c1.4,0,2.6-0.3,3.4-0.6V9.8
	C149.5,7.6,148,6.8,146.1,6.8z M147.7,14.6c-0.3,0.2-0.8,0.3-1.5,0.3c-1.3,0-2.1-0.5-2.1-1.7c0-1.7,1.4-2.1,3.6-2.3V14.6z
	 M146.1,15.9L146.1,15.9L146.1,15.9L146.1,15.9z"/>
</svg>
