<svg xmlns="http://www.w3.org/2000/svg" width="206" height="19" viewBox="0 0 651 60"><path d="M0,34.6c.81-1.69,1.41-3,2.35-4.6A38.38,38.38,0,0,1,0,23.4V34.6M5.05,3S0,3,0,9.25v1A61.4,61.4,0,0,0,4.26,27a43.91,43.91,0,0,1,9.55-10.79C22,9.21,31.58,5.13,46.52,3Z" style="fill:#a8bd3a"/><path d="M53.78,6.42C36.69,8,25,12.92,16.65,20.07A41.76,41.76,0,0,0,6.49,32.2C13,44.93,26.37,55.63,47.23,57h.41s6.41.21,6.41-6.91V6.36l-.27.06M9.85,42.67a43.75,43.75,0,0,1-5.09-7.42A79.09,79.09,0,0,0,0,46.38V57H31.48c-10-3-15.95-7.64-21.63-14.3" style="fill:#003c57"/><path d="M77.75,49a17.93,17.93,0,0,1-8.28-1.73l1.16-2.82A14.34,14.34,0,0,0,77.06,46c4.32,0,7.51-2.63,7.51-6.43,0-8.06-14.37-4.73-14.37-15,0-4.83,3.89-9.1,10.14-9.1a15,15,0,0,1,7.34,1.74L86.6,19.77a11.93,11.93,0,0,0-5.83-1.55c-4,0-6.64,2.49-6.64,6.05,0,7.74,14.5,4.32,14.5,15.06C88.63,45,84.05,49,77.75,49Z" style="fill:#003c57"/><path d="M118.8,48.38h-3.32l-5.74-18.62a22.79,22.79,0,0,1-.69-3.05h0a18.8,18.8,0,0,1-.64,3.05l-5.91,18.62H99.12l-8-25.28h3.93l5.22,18.58a22.26,22.26,0,0,1,.65,3.23H101a22.38,22.38,0,0,1,.69-3.23l5.74-18.58h3.45l5.57,18.58a32.11,32.11,0,0,1,.73,3.23h.09a31.83,31.83,0,0,1,.65-3.23l5.3-18.58h3.5Z" style="fill:#003c57"/><path d="M138,58.47h-4.1l4.53-10.09-9.3-25.28h4.05l6.09,18.62a26.88,26.88,0,0,1,.86,3.43h.09s.38-1.74.95-3.43l6.25-18.62h3.45Z" style="fill:#003c57"/><path d="M165.43,49c-8,0-12-5-12-12.8,0-8.45,4.83-13.51,12-13.51a19.12,19.12,0,0,1,4.7.56V11.56h3.67v35.7A17.81,17.81,0,0,1,165.43,49Zm4.7-23.69a16.78,16.78,0,0,0-3.93-.42c-6.6,0-9,5.44-9,11,0,6.43,2.46,10.65,8.46,10.65a9.2,9.2,0,0,0,4.49-1Z" style="fill:#003c57"/><path d="M190.68,49c-8,0-12-5-12-12.8,0-8.45,4.83-13.51,12-13.51a19.12,19.12,0,0,1,4.7.56V11.56h3.67v35.7A17.81,17.81,0,0,1,190.68,49Zm4.7-23.69a16.78,16.78,0,0,0-3.93-.42c-6.6,0-9,5.44-9,11,0,6.43,2.45,10.65,8.45,10.65a9.2,9.2,0,0,0,4.49-1Z" style="fill:#003c57"/><path d="M210.88,25.35v23h-3.67v-23h-3.75V23.1h3.75V19.44c0-4.6,2.72-7.93,8.07-7.93.39,0,.86.05.86.05v2.35h-.43c-2.54,0-4.83,1.64-4.83,5.11V23.1h5.26v2.25Z" style="fill:#003c57"/><path d="M228.32,49c-7,0-10.19-3-10.19-7.46,0-6.89,7.12-8.81,15.66-9.61V30.37c0-4.08-2.76-5.35-6.51-5.35a16.5,16.5,0,0,0-6.56,1.46l-.95-2.25a20.3,20.3,0,0,1,8.16-1.74c5.13,0,9.36,2.06,9.36,8.21V47.26A20.22,20.22,0,0,1,228.32,49Zm5.47-15.1c-7.29.84-12.08,2.11-12.08,7.55,0,3.75,2.77,5.35,7,5.35a11.44,11.44,0,0,0,5.09-1Z" style="fill:#003c57"/><path d="M268,34.38v14h-5.7v-14l-9.88-18.25h6l6.86,13.75h.08l7.08-13.75h5.44Z" style="fill:#003c57"/><path d="M287,49.06a15.87,15.87,0,0,1-7.64-1.83l1.43-3.47a10.52,10.52,0,0,0,5.52,1.51c2.76,0,5-1.79,5-4,0-6-11.09-3.19-11.09-11.44,0-3.75,3.37-7.41,8.85-7.41a13.47,13.47,0,0,1,7.12,1.83l-1.43,3.14A8.35,8.35,0,0,0,290.14,26c-2.81,0-4.53,1.69-4.53,3.62,0,5.63,11.3,3.14,11.3,11.58C296.91,45.22,293.07,49.06,287,49.06Z" style="fill:#003c57"/><path d="M310.65,49c-5.31,0-7.34-3.43-7.34-6.85V26.41h-3.54V23.12h3.54V17.45L308.7,16v7.17h4.92v3.29H308.7V41.84a3.27,3.27,0,0,0,3,3.52h.48a5.13,5.13,0,0,0,1.46-.24v3.33A7.53,7.53,0,0,1,310.65,49Z" style="fill:#003c57"/><path d="M327.48,49.06c-7.42,0-10.92-3-10.92-7.78,0-6.8,7.12-8.63,15.58-9.38V30.44c0-3.47-2.37-4.5-5.82-4.5a18,18,0,0,0-6.87,1.45L318.2,24.3a23.94,23.94,0,0,1,9.11-1.83c5.61,0,9.92,2.29,9.92,8.77v16A22.68,22.68,0,0,1,327.48,49.06Zm4.66-14.63c-6.26.66-10.44,1.83-10.44,6.71,0,3.42,2.41,4.87,6.21,4.87a10.09,10.09,0,0,0,4.23-.84Z" style="fill:#003c57"/><path d="M354.33,49.06c-8.16,0-12.64-4.74-12.64-12.94s4.92-13.47,12-13.47a19.31,19.31,0,0,1,4.48.52V11.58h5.4V47.23A20.28,20.28,0,0,1,354.33,49.06Zm3.88-23A13.34,13.34,0,0,0,355,25.7c-5.57,0-7.77,4.69-7.77,10.09,0,6.14,2.16,9.8,7.29,9.8a8.21,8.21,0,0,0,3.71-.79Z" style="fill:#003c57"/><path d="M373.28,37.71c.52,5,3.28,7.56,7.94,7.56a16.8,16.8,0,0,0,7.12-1.46l1.29,3.42a20,20,0,0,1-8.89,1.83c-7.72,0-12.68-4.69-12.68-13.36,0-8.35,4.62-13.23,11.61-13.23s10.91,4.45,10.91,12.94Zm6.17-12c-3.71,0-6.64,2.95-6.51,9.24l12.42-1.73c0-5.17-2.36-7.47-5.91-7.47Z" style="fill:#003c57"/><path d="M404.7,59.15a23.91,23.91,0,0,1-9.45-1.78l1.43-3.48a18.42,18.42,0,0,0,7.25,1.46c4.74,0,6.77-2.44,6.77-6v-1.6a12.67,12.67,0,0,1-5.57,1c-6.6,0-11-4.83-11-12.47,0-8.17,4.45-13.84,13.12-13.84a19.1,19.1,0,0,1,8.8,1.83V48.88C416.05,55.54,411.43,59.15,404.7,59.15Zm6-32.7a7.93,7.93,0,0,0-3.71-.79c-4.92,0-7.33,4-7.33,10.41,0,6.24,2.41,9.62,7.07,9.62a8.66,8.66,0,0,0,4-.85Z" style="fill:#003c57"/><path d="M431.25,49.06c-7.42,0-10.92-3-10.92-7.78,0-6.8,7.12-8.63,15.58-9.38V30.44c0-3.47-2.37-4.5-5.83-4.5a18,18,0,0,0-6.86,1.45L422,24.3a23.94,23.94,0,0,1,9.11-1.83c5.61,0,9.92,2.29,9.92,8.77v16A22.82,22.82,0,0,1,431.25,49.06Zm4.66-14.63c-6.26.66-10.44,1.83-10.44,6.71,0,3.42,2.41,4.87,6.21,4.87a10.09,10.09,0,0,0,4.23-.84Z" style="fill:#003c57"/><path d="M456.68,49.06c-7.17,0-10.32-3.33-10.32-8.72V23.12h5.4v17.5c0,2.67,1.68,4.74,5.17,4.74a10.49,10.49,0,0,0,4.62-.85V23.12h5.39V47.23A24.69,24.69,0,0,1,456.68,49.06Z" style="fill:#003c57"/><path d="M499.88,49.06c-9.32,0-15.58-6-15.58-17,0-10.46,6.82-16.6,15.84-16.6,4.27,0,6.95.84,8.76,1.83l-1.38,3.42a15.78,15.78,0,0,0-6.65-1.22c-6.17,0-10.7,3.85-10.7,12.81,0,8.44,4.23,12.85,9.5,12.85a10.53,10.53,0,0,0,4.44-.75v-11h-5.65V30h11.13V47.23C507.48,48.36,504.24,49.06,499.88,49.06Z" style="fill:#003c57"/><path d="M542.82,48.41h-5l-5-16.51a19.54,19.54,0,0,1-.65-3.29h-.09a20.56,20.56,0,0,1-.64,3.29L526.3,48.41h-5l-7.77-25.29h5.57L523.58,40a25.45,25.45,0,0,1,.61,3.47h.08A21.62,21.62,0,0,1,525,40l5-16.89h4.75L539.67,40a24.24,24.24,0,0,1,.7,3.47h.08a22.71,22.71,0,0,1,.61-3.47l4.57-16.89h5Z" style="fill:#003c57"/><path d="M554.49,48.41V11.58h5.4V48.41Z" style="fill:#003c57"/><path d="M575.29,49.06c-7.42,0-10.91-3-10.91-7.78,0-6.8,7.12-8.63,15.57-9.38V30.44c0-3.47-2.37-4.5-5.82-4.5a18,18,0,0,0-6.86,1.45L566,24.3a23.92,23.92,0,0,1,9.1-1.83c5.61,0,9.92,2.29,9.92,8.77v16A22.57,22.57,0,0,1,575.29,49.06ZM580,34.43c-6.25.66-10.44,1.83-10.44,6.71,0,3.42,2.42,4.87,6.21,4.87a10.09,10.09,0,0,0,4.23-.84Z" style="fill:#003c57"/><path d="M602.14,49.06c-8.15,0-12.64-4.74-12.64-12.94s4.92-13.47,12-13.47a19.4,19.4,0,0,1,4.49.52V11.58h5.39V47.23A20.28,20.28,0,0,1,602.14,49.06Zm3.89-23a13.11,13.11,0,0,0-3.24-.38c-5.57,0-7.77,4.69-7.77,10.09,0,6.14,2.16,9.8,7.3,9.8A8.33,8.33,0,0,0,606,44.8Z" style="fill:#003c57"/><path d="M627.44,49.06c-7.73,0-11.57-5.72-11.57-13.27s3.84-13.32,11.57-13.32S639,28.24,639,35.79,635.16,49.06,627.44,49.06Zm0-23.12c-4.66,0-6,4.88-6,9.8s1.47,9.62,6,9.62,6-4.69,6-9.62S632.1,25.94,627.44,25.94Z" style="fill:#003c57"/><path d="M643.63,48.41V11.58H649V48.41Z" style="fill:#003c57"/></svg>
