<svg viewBox="0 0 408 36" xmlns="http://www.w3.org/2000/svg"><g fill="#000" fill-rule="evenodd"><path d="M55 30.2c-6 0-8.7-5-8.7-11.1S49 7.9 55 7.9c6 0 8.6 5 8.6 11.2 0 6.1-2.7 11.1-8.6 11.1zm0-20.5c-4.5 0-6 4.9-6 9.4 0 4.3 1.5 9.2 6 9.2 4.7 0 6-4.9 6-9.2 0-4.5-1.5-9.4-6-9.4z" fill-rule="nonzero"/><path d="M71.2 14.6v15.3h-2.4V14.6h-2.5V13h2.5v-2.3c0-3 1.8-5.2 5.4-5.2h.6v1.6h-.4c-1.6 0-3.2 1-3.2 3.4v2.7h3.4v1.5h-3.4v-.2zM81 14.6v15.3h-2.3V14.6h-2.5V13h2.5v-2.3c0-3 1.8-5.2 5.4-5.2h.6v1.6h-.4c-1.6 0-3.2 1-3.2 3.4v2.7h3.4v1.5h-3.4v-.2z"/><path d="M88.6 9.9c-.9 0-1.6-.7-1.6-1.4 0-.8.7-1.5 1.6-1.5 1 0 1.7.7 1.7 1.5 0 .7-.8 1.4-1.7 1.4zm-1.2 20V13h2.5V30h-2.5z" fill-rule="nonzero"/><path d="M100.3 30.2c-4 0-7-3.4-7-8.8s3-8.8 7.2-8.8c2 0 3.4.5 4.2 1l-.6 1.5c-.5-.3-1.6-.9-2.9-.9-3.4 0-5.2 2.9-5.2 6.9 0 4.1 2 7 5 7 1.3 0 2.4-.4 3-1l.7 1.7c-1 .9-2.4 1.4-4.4 1.4z"/><path d="M108.4 22.5c.4 4 2.6 6 6 6 2 0 3.6-.6 4.5-1.1l.7 1.6c-1 .5-3 1-5.4 1-4.7 0-8.1-2.8-8.1-8.8 0-5.7 3-8.6 7.2-8.6 4.3 0 6.8 2.5 6.8 8.3l-11.7 1.6zm4.9-8.3c-2.7 0-5 2.2-5 6.9l9.5-1.3c0-4-1.8-5.6-4.5-5.6z" fill-rule="nonzero"/><path d="M132 14.6v15.3h-2.3V14.6h-2.5V13h2.5v-2.3c0-3 1.8-5.2 5.4-5.2h.5v1.6h-.3c-1.7 0-3.3 1-3.3 3.4v2.7h3.4v1.5H132v-.2z"/><path d="M144.4 30.2c-4.8 0-7.2-3.7-7.2-8.8 0-4.8 2.4-8.8 7.2-8.8 4.9 0 7.2 3.8 7.2 8.8 0 5-2.3 8.8-7.2 8.8zm0-15.8c-3.6 0-4.6 3.8-4.6 7.2 0 3.4 1 7 4.6 7 3.6 0 4.7-3.6 4.7-7 0-3.6-1-7.2-4.7-7.2z" fill-rule="nonzero"/><path d="M162 14.6c-1.5-.4-3.7-.4-4.8.3v15h-2.5v-16c1.8-.8 3.6-1.1 6.7-1.1h1.2l-.5 1.8zM184.2 30l-9.5-14.5-1.3-2.2v16.8h-3V8.6h3.6l9 13.7 1.2 2.2-.2-2.5V8.5h3.1v21.4h-2.9v.2z"/><path d="M197.5 30.4c-4.8 0-7.2-2-7.2-5.2 0-4.5 4.7-5.8 10.3-6.1V18c0-2.3-1.6-3-3.8-3-1.6 0-3.4.5-4.5.8l-.9-2c1.3-.5 3.4-1.2 6-1.2 3.7 0 6.6 1.4 6.6 5.8V29c-1.4.9-3.8 1.4-6.5 1.4zm3.1-9.7c-4.1.4-6.8 1.3-6.8 4.5 0 2.3 1.6 3.2 4.1 3.2 1.3 0 2.2-.1 2.9-.5v-7.2h-.2z" fill-rule="nonzero"/><path d="M213.6 30.4c-3.6 0-4.9-2.3-4.9-4.5V15.5h-2.3v-2.2h2.3V9.5l3.6-1V13h3.2v2.2h-3.2v10.3c0 1.2.7 2.3 2.3 2.3.4 0 .6 0 1-.2V30c-.4.3-1.1.5-2 .5z"/><path d="M220.2 10.3c-1 0-2.1-1-2.1-1.8 0-1.1.9-1.8 2.1-1.8 1.1 0 2.2.9 2.2 1.8 0 1-1.1 1.8-2.2 1.8zM218.4 30V13.3h3.6v16.8h-3.6zM232.8 30.4c-5 0-7.7-3.8-7.7-8.8 0-5 2.5-8.8 7.7-8.8 5 0 7.6 3.8 7.6 8.8 0 5-2.5 8.8-7.6 8.8zm0-15.3c-3 0-4 3.3-4 6.5s1 6.3 4 6.3 4-3 4-6.3c0-3.2-1-6.5-4-6.5z" fill-rule="nonzero"/><path d="M253.7 30V18c0-2.2-1.8-2.9-4-2.9-1 0-2.1.2-2.8.6V30h-3.6V14c1.6-.8 4-1.3 6.6-1.3 4.3 0 7.2 1.4 7.2 5.2v12h-3.4z"/><path d="M267.4 30.4c-4.9 0-7.2-2-7.2-5.2 0-4.5 4.7-5.8 10.2-6.1V18c0-2.3-1.6-3-3.7-3-1.7 0-3.5.5-4.5.8l-1-2c1.1-.5 3.5-1.2 6-1.2 3.8 0 6.7 1.4 6.7 5.8V29c-1.5.9-3.8 1.4-6.5 1.4zm3-9.7c-4.1.4-6.8 1.3-6.8 4.5 0 2.3 1.6 3.2 4.1 3.2 1.1 0 2.2-.1 3-.5v-7.2h-.3z" fill-rule="nonzero"/><path d="M277.5 30.1V5.6h3.6v24.3h-3.6zM295.3 30.4c-2.5 0-4.7-.5-5.8-1.2l1.1-2.7c.9.5 2.5 1 4.1 1 2.6 0 4.4-1.4 4.4-3.6 0-4.6-8.9-2.8-8.9-9.5 0-3.4 2.7-6.3 7-6.3 2.4 0 4.2.5 5.3 1.3l-1 2.3c-.6-.5-2.3-1-3.7-1-2.3 0-3.8 1.4-3.8 3.3 0 4.7 9 2.6 9 9.8-.3 3.7-3.4 6.6-7.7 6.6zM311.8 30.4c-3.6 0-4.8-2.3-4.8-4.5V15.5h-2.4v-2.2h2.4V9.5l3.6-1V13h3.2v2.2h-3.4v10.3c0 1.2.7 2.3 2.3 2.3.4 0 .6 0 1-.2V30c-.2.3-1 .5-1.9.5z"/><path d="M322.8 30.4c-4.8 0-7.2-2-7.2-5.2 0-4.5 4.7-5.8 10.3-6.1V18c0-2.3-1.6-3-3.8-3-1.6 0-3.4.5-4.5.8l-.9-2c1.3-.5 3.4-1.2 6-1.2 3.7 0 6.4 1.4 6.4 5.8V29c-1.2.9-3.4 1.4-6.3 1.4zm3.3-9.7c-4.2.4-6.9 1.3-6.9 4.5 0 2.3 1.6 3.2 4.2 3.2 1.2 0 2.1-.1 2.8-.5v-7.2h-.1z" fill-rule="nonzero"/><path d="M339 30.4c-3.6 0-4.8-2.3-4.8-4.5V15.5h-2.4v-2.2h2.4V9.5l3.6-1V13h3.2v2.2h-3.2v10.3c0 1.2.7 2.3 2.3 2.3.4 0 .5 0 .9-.2V30c-.4.3-1 .5-2 .5z"/><path d="M345.7 10.3c-1.1 0-2.2-1-2.2-1.8 0-1.1 1-1.8 2.2-1.8 1 0 2.1.9 2.1 1.8-.1 1-1 1.8-2.1 1.8zM343.9 30V13.3h3.6v16.8h-3.6z" fill-rule="nonzero"/><path d="M355.2 30.4a9 9 0 0 1-5-1.2l.9-2.4c.7.6 2.1 1.1 3.6 1.1 1.8 0 3.2-1.3 3.2-2.5 0-4-7.4-2.2-7.4-7.6 0-2.5 2.2-4.8 6-4.8 2 0 3.6.5 4.7 1.2l-1 2.2c-.5-.4-1.6-1-3-1-1.8 0-3 1.2-3 2.4 0 3.8 7.5 2.2 7.5 7.8 0 2.3-2.5 4.8-6.5 4.8zM370.9 30.4c-3.6 0-4.9-2.3-4.9-4.5V15.5h-2.3v-2.2h2.3V9.5l3.6-1V13h3.3v2.2h-3.3v10.3c0 1.2.7 2.3 2.4 2.3.3 0 .5 0 .9-.2V30c-.4.3-1.1.5-2 .5z"/><path d="M377.4 10.3c-1.1 0-2.2-1-2.2-1.8 0-1.1.9-1.8 2.2-1.8 1 0 2.1.9 2.1 1.8 0 1-.9 1.8-2.1 1.8zM375.6 30V13.3h3.6v16.8h-3.6z" fill-rule="nonzero"/><path d="M389.6 30.4c-4.1 0-7.2-3.4-7.2-8.8 0-5.6 3.2-8.8 7.2-8.8 2.2 0 3.4.5 4.3 1.2l-.7 2c-.5-.3-1.4-.7-2.7-.7-2.9 0-4.5 2.5-4.5 6.3s1.8 6.3 4.3 6.3c1.1 0 2-.4 2.7-.9l1 2.2c-.8.7-2.2 1.2-4.4 1.2zM400.6 30.4a9 9 0 0 1-5-1.2l.8-2.4c.8.6 2.2 1.1 3.6 1.1 1.8 0 3.3-1.3 3.3-2.5 0-4-7.4-2.2-7.4-7.6 0-2.5 2.2-4.8 6-4.8 2 0 3.5.5 4.6 1.2l-.9 2.2c-.5-.4-1.6-1-3-1-1.8 0-3.1 1.2-3.1 2.4 0 3.8 7.6 2.2 7.6 7.8 0 2.3-2.6 4.8-6.5 4.8z"/><g fill-rule="nonzero"><path d="M.3 20.9c.5-1.1.9-2 1.6-3-.7-1.7-1.1-2.6-1.6-4.4v7.4zM3.7 0S.4 0 .4 4.1V5a38 38 0 0 0 3 11 26 26 0 0 1 6.2-7A37.8 37.8 0 0 1 31.2.1H3.7V0z"/><path d="M35.7 2.2a42.7 42.7 0 0 0-24.5 9A28 28 0 0 0 4.6 19a31 31 0 0 0 26.8 16.4h.2s4.1.1 4.1-4.5V2.2c.2 0 0 0 0 0zM6.7 26c-1.2-1.4-2.3-3.2-3.4-4.9a45.3 45.3 0 0 0-3 7.4v7H21a30.2 30.2 0 0 1-14.3-9.5z"/></g></g></svg>