<svg xmlns="http://www.w3.org/2000/svg" viewBox="0 0 150 166">
  <path fill="#fff" d="M149.73 97.11l-.09-.81v-.48l-.38-1.25-.06-1.29-.2-.88s-.25-.51-.31-.58-.14-.43-.17-.47l-.36-.51-.08-.13-.78-.58-.54-.81-.71-.49-.1-.08-.38-.41-.76-.44-.76-.44-.81-.64-.64-.3-.31-.24-.17-.13-.2-.14-.67-.26h-.2l-.55-.08-1.39-.1-.54-.29h-.98l-2.3-.37-1.38-.11-1.43-.12h-3.37l-1-.17-.41.3-.17.18-.23.23-.14.19-.07.08a2.08 2.08 0 0 0-.3.34l-.2.4-.07.4-.08.29-.13.46-.23.54v.3l-.1.29v.06a.9.9 0 0 1-.06.18v.09l-.17.31-.13.15-.24.12a.9.9 0 0 0-.19.12s-.38.06-.48.06H124a.66.66 0 0 1-.31-.06 4.49 4.49 0 0 0-.47-.44L123 89l-.61-.34-.19-.17-.12-.1-.22-.12-.59-.32-.27-.15-.15-.1-.09-.08-.35-.36-.47-.34-.08-.09-.23-.25-.06-.41.1-.5v-.21l.08-.06.6-.48.47-.51.54-.44 1.34-.97.13-.12.27-.25.2-.35v-.06l.14-.12.41-.35.41-.45.48-.74.23-.78v-.64l-.1-.58s-.24-.54-.24-.58l-.14-.71-.16-.44-.14-.4-.31-.78-.13-.57-.07-.34-.19-.25-.11-.16-.38-1.18v-.07l-.39-.54-.24-.37s0-.51-.07-.55l-.23-.32-.14-.18-.13-.41-.07-.23-.21-.58-.5-.48-.17-.17-.34-.3-.07-.06-.21-.17-.26-.21-.21-.13-.67-.44-1-.17-.28-.14-.26-.13-.55-.5-.57-.3-.64-.64-.48-.58-.34-.57-.12-.18-.42-.63-.4-.41h-.27l-1.19-.14h-.91a3.53 3.53 0 0 1-.48-.17v-.07-.33l.37-.3.31-.24.91-.48h1.19l.57.17.13.15a1 1 0 0 0 .14.12l.09.07.33.21.16.09.11.15a.94.94 0 0 1 .15.26 1.22 1.22 0 0 1 .16.22l.25.39.58.57.24.41.33.54.61.17h.85l.67-.34h.45l.24.12.43.22.27.3.18.19.23.25h.64a2.73 2.73 0 0 0 .15-.26c.08-.14.16-.3.12-.35a.4.4 0 0 0-.08-.12c-.12-.18-.36-.48-.47-.62s0-.07-.06-.07-.43-.56-.58-.77l-.06-.08-.57-.71-1.56-2.24-.28-.42-.19-.26-.43-.62-.16-.24c-.15-.22-.36-.51-.38-.57l-.14-.15-.19-.22-.41-.44-.37-1.22s-.1-.44-.1-.51V55.44l-.15-.53a4.68 4.68 0 0 1-.12-.45 4.27 4.27 0 0 1-.15-.56 2.14 2.14 0 0 1-.05-.29v-.84l1-.64.78-.54-.1-.49a1.84 1.84 0 0 0-.26-.56 1.11 1.11 0 0 0-.11-.11l-.16-.17-.33-.21-.08-.06-.41-.2-.26-.13-.29-.3-.22-.24-.31-.24-.47-.54-.33-.31-.11-.1-.12-.13-.22-.24-.39-.78-.05-.1v-.05l-.25-.59-.18-.85v-.1l-.31-.61-.13-.91-.58-1.22-.26-.31-.08-.09v-.08l-.22-.3-.11-.15-.16-.22-.2-.16-.14-.11-.37-.34-.34-.31-.4-.36-.18-.16-.16-.15-.68-.37-.88-.41-.54-.17-.93-.76-1-.24-.14-.07-.4-.2-.68-.24-.64-.2-.27-.1-.58-.24-1-.24s-.61-.23-.67-.23l-.17-.07-.34-.13-.07-.58-.3-.77-.07-.44-.3-.63L99 33l-.08-.16-.12-.25-.31-.33-.71-.71-.24-.41-.15-.26-.29-.48-.16-.71v-1.38l.08-.41.06-.71-.08-.57v-.19-.2c0-.11.06-.32.06-.34v-.06-1.06l-.06-.11v-.06l-.4-.64-.41-.47-.51-.65-.23-.44-.65-.54-.27-.44s-.2-.54-.2-.6v-.49l.54-.53.48-.61v-.34l-.21-.54-.5-.65s-.62-.54-.62-.57-.37-.64-.37-.64l-.27-.61V10.08l-.17-.91-.51-.84-.54-.78-.61-.67-.27-.35-1.08-.88-.54-.44-.66-.5-.78-.85-.42-.71L87.15 2 86.81.91l-.2-.77a1.5 1.5 0 0 0-.64.36.9.9 0 0 0-.32.81v.41C84.93 1.8 84.07 3 84 3.69a1.75 1.75 0 0 1-.51 1.12.29.29 0 0 1-.29 0 1.93 1.93 0 0 0-1.78.19.85.85 0 0 0-.35.73c0 .57.59.65.8.68h.12a17.56 17.56 0 0 1 .52 1.81c0 .22.06.58.55 1.55a1.91 1.91 0 0 0 .56.65.36.36 0 0 0 .09.08v.19a4 4 0 0 1-.11.76h-.09a1.93 1.93 0 0 0-2.33.66 1.05 1.05 0 0 0-.29.86v.1a2.67 2.67 0 0 1-.65.51 1.32 1.32 0 0 0-1.24-.65c-1.07 0-1.2 1.07-1.25 1.49a12 12 0 0 0-2.05 1.35l-.15.2.06.21a1.24 1.24 0 0 1 0 .35 2.42 2.42 0 0 0-1 1.27 14.08 14.08 0 0 1-2.3 1.21l-.26.12a16.51 16.51 0 0 0-2.48 2.92 3.58 3.58 0 0 1-.77-.2h-.39c-.15.06-.37.16-.93 1.86l.28.06h.61l.31.17.12.26.07.31s-.29.34-.36.34a5 5 0 0 1-.48.23h-2.71a2.28 2.28 0 0 1-.4.17 4.88 4.88 0 0 0-.71.27l-.38.4-.91 1-.37.39s-.07.18-.11.18a2.43 2.43 0 0 1-.06.31l-.14.57-.06.47-.1.41v.71l-.21.37s0 .27-.1.31a3.47 3.47 0 0 1-.27.3l-.37.34-.54.3-.28.24-.2.27-.27.37-.13.31-.11.33v.85l-.16.51-.17.47a1.61 1.61 0 0 1-.07.37 4 4 0 0 0-.37.28l-.2.23-.28.31-.27.6.1.31.17.34.21.2.61.61.1.34.54.57.27.38.27.44.27.6.27.31.27.57.1.37.1.21.11.28.06.16V42.99l.07 1.59.06.27.31.38.27.19.24.19.3.22.51.51.13.22.07.12v.11l.12.26V48.83l.15 1.09.07.51h.44l.4-.2.48-.14.25-.48.16-.3.3-.5.48-.88v-.07l.23-.41.25-.2.09-.07.2-.14h.24l.24.21.1.09.24.31.09.22.47.33.14.06.23-.17h.05l.13-.12.1-.08.34-.28.22-.22.15-.15.2-.11h.07l.13.09.37.31.38.47V49.41l-.2.42-.08.18-.28.6-.17.17H69.7l-.15.13-.13.11-.14.26v.53l.09.3v.08l.17.44V53.23l-.1.31-.33.17-.41.12-.27.08-.1.05h-.1l-.51.14-.48.1-.21.19-.21.2-.13.14-.16.2-.08.1v.44l-.07.34-.06 1v.74l-.07.51v.98l.17.44.5.09h.25l.43.07.61-.08h.21l.64.14.37.2v.3l-.09.13-.18.25-.4.33-.14.07-.41.21-.31.08-.57.15-.33.27-.44.41-.09.07-.35.26-.19.16-.39.32-.06.42v.26l-.07 1v.48l.09.43v.21l.07.58.27.52v.08l.24.48.23.44.34.54.16.61.61 1.08.65.61.64.39h.07l.53.33.23.37v.27s-.13.2-.16.2a2.09 2.09 0 0 0-.31.2h-1.46l-.4-.14-.31-.37-.06-.16-.14-.35-.3-.47-.23.08-.37-.45-.11-.16-.26-.39-.17-.44v-.1l-.3-.48-.17-.13h-.34a1.32 1.32 0 0 0-.3.06 2.68 2.68 0 0 0-.34.17l-.27.14-.24.17-.2.17-.07.27v.08l-.07.12v.24l.08.1.1.17.12.15.08.15.12.23.17.33.18.12.23.16.17.4.06.24v.54a1.51 1.51 0 0 0 1 .33 3.16 3.16 0 0 1 1.13.39 7.33 7.33 0 0 1 .94 1.86c0 .26-.28.43-.53.58s-.34.2-.36.3a6.93 6.93 0 0 0 1.08 1.38 7.12 7.12 0 0 1 .57.67c.19.28 0 .84-.1 1.25a3.47 3.47 0 0 0-.1.34c0 .09.18.31.52.53s.63.32.71.27.5 0 .81.13l.33.14c.37.15.23.66.12 1a1 1 0 0 0-.08.38c.09.31-.73 1.08-1 1.17s-.4-.21-.65-.54-.44-.59-.65-.66l-.33-.1c-.56-.19-2-.68-2.27-.47a.45.45 0 0 0-.13.3c0 .19-.07.41-.56.49a4 4 0 0 0-1.88 1.21c0 .07 0 .11.14.21a.78.78 0 0 1 .33.41c.05.22-.14.45-.34.69s-.4.48-.39.7c0 .43 1.75 1.15 2.35 1.19s.72.65.85 1.14v.18a.28.28 0 0 1 0 .26c-.09.12-.3.11-.52.1a1.07 1.07 0 0 0-.49 0c-.22.13-.26.37-.34.84 0 .15-.06.31-.09.5A7.79 7.79 0 0 1 63 92.58c-.05.06 0 .15 0 .3a1.1 1.1 0 0 1 0 .5 1.74 1.74 0 0 1-.16.47c-.06.15-.14.33-.11.4.34.14.6-.19.9-.56s.63-.79 1.1-.71a.43.43 0 0 1 .32.29 1.64 1.64 0 0 1-.33 1.39 4.76 4.76 0 0 1-1.77.63 5.45 5.45 0 0 0-2.08.77c-.23.35.29.87.89 1.46.25.25.51.5.74.77a2.57 2.57 0 0 0 2.56 1.14 1.08 1.08 0 0 1 .48 0s.18.06.2.18-.2.3-.47.48a1.75 1.75 0 0 0-.58.5c-.29.7.07.88.42 1a.72.72 0 0 1 .37.27.22.22 0 0 1 0 .24c-.14.17-.68.17-1.62 0-.1 0-.37.28-1.06 1.82l-.15.32c-.19.31.12.73.22.86s.1.13.07.2-.15.12-.31.15a.79.79 0 0 0-.52.26v.15c0 .04.25.12.41.14a.55.55 0 0 1 .45.41.17.17 0 0 1-.14.19h-.16c-.17 0-.24 0-.21.67a.71.71 0 0 0 .18.43.89.89 0 0 1 .19.85c-.32 1.48 1.62 3.28 2.28 3.64.34.19.52 0 .73-.21a.74.74 0 0 1 .49-.29c.46 0 1.27.75 1.61 1.15a2.54 2.54 0 0 1 .55 1l.09.23c.14.39.64.59 1.05.75s.53.22.58.36a.24.24 0 0 1 0 .18 26.35 26.35 0 0 0 .09 4.94l1.57-1.72.37-.14h.63a1.56 1.56 0 0 1 .2.27 1.74 1.74 0 0 1 0 .18.46.46 0 0 1 0 .09l-.23.27-.24.2-3.65 4.67-.28.31-.23.27a1.41 1.41 0 0 0-.34.14c-.1.06-.34.13-.4.16l-.38.08-.5.09h-.75a1.49 1.49 0 0 0-.23 0h-.07c-.11 0-.48.24-.48.24l-.81 1.22-.36.24-.17.18-.31.32-.34.41-.17.27-.17.24-.14.16-.23.25-.2.33v.72l.09.54v.3l-.07.38v.28a1.05 1.05 0 0 0 0 .12 3.6 3.6 0 0 0 .14.34.25.25 0 0 0 0 .07v.44l-.18.23-.12.14-.14.1-.11.08h-.06a4.21 4.21 0 0 1-.45 0l-.81.07-4.36.17-.46-.15-.16-.06s-.6-.2-.64-.2a3.24 3.24 0 0 1-.34-.31l-.06-.06-.21-.07-.91-.3-.33-.34s-.45-.24-.48-.24l-.64-.16h-.78l-1.37-.09h-1.1l-4 .08-2.1.08-1.32.05-.54.17-.24.31-.3.37-.07.44v.37l-.1 1.86-.06.25-.05.16-.07.18-.06.16-.12.12-.32.35-.06.06-.21.21-.47.37-.44.37-.21.17-.4.14-.34-.07-.47-.23-.55-.37-.3-.31-.38-.32-.06-.05-.71.13H34.55l-.34.37-.07.48v.54l-.14 2.67-.11 1.58-.71 1.37a2.83 2.83 0 0 0-.3.3l-.09.07-.27.2-.08.06-.54.38-.77.57-.41.55-.22.4-.22.41-.14.17-.23.27-.21.45-.06.15-.24.35-.29.29-.15.14a9.24 9.24 0 0 0-1.36.61c-.41 0-.95.1-.95.1l-1.05.07-.84.26-.34.31-.06.38V150.42l-.07.64v.07l-.06.51-.23.44-.26.17-.15.1-.08.09-.6.68-5.54 5-.24.14-.27.17h-.54l-.48-.23-.67-.13-.44-.07h-.76l-.32.09-.37.15-.34.12-.06.06-.24.27-.07.07-.44.24-.41.41-.44.5-.16.21-.21.27-.1.3-.13.51v.47l.07.37.15.21.15.19.3.31.1.06a1.35 1.35 0 0 0 .21.12l.51-.11h.25l.18-.06.05-.07.3-.41.4-.71.16-.22.25-.33.09-.11v-.06l.09-.11a.81.81 0 0 1 .24-.19H15.09l.21.15.13.09.24.14.23.12h.14l.6.17.27.22.15.12.71.3.29.13.23.23.24.54v.41a.51.51 0 0 1 0 .1v.74l.07.55v.44l.68.57a.58.58 0 0 0 .16.05h.71l.26-.11.18-.09s.08-.07.17-.11a1.59 1.59 0 0 1 .3-.13s.48-.3.51-.34a3.92 3.92 0 0 1 .36-.51s0-.06.05-.06a1.79 1.79 0 0 1 .2-.39l.07-.12v-.26l.05-.24v-.36a2.12 2.12 0 0 1-.06-.21 2.68 2.68 0 0 0-.17-.34A4.85 4.85 0 0 1 22 162s-.24-.24-.24-.27a2.83 2.83 0 0 1 0-.38l.27-.3a.94.94 0 0 0 .17-.1l.28-.2.45-.18.15-.06.92-.51.37-.19.27-.1.44-.16h.09l.45-.08.93-.44H27.43l.39-.05a1 1 0 0 0 .11-.11.32.32 0 0 0 .09-.12l.33-.52v-.46l.11-.42.1-.33V156.45l.17-.34.41-.3.58-.07h.67l.4.23.21.03.22.31.12.17h1.68l.78-.14.54-.08h.38l.32-.07h.18l.21-.08.47-.19.61.06.13.12.31.26.68.3.1.09.13.11h.08l.26.1.64.17h.3a4.36 4.36 0 0 0 .38-.37l.09-.4.4-.21h.08c.08 0 .2 0 .2.09s.17.4.17.44.23.67.23.67l.14.58.1.1.2.21.31.07.27.06h.64l.41-.1.44-.1.77-.07h.65v.07l.08.13.23.2.17.44.1.38.17.5v.06l.09.52.07.2.14.07a5.78 5.78 0 0 1 .6.31l.2.07.94-.07H48.09l.51-.12.08-.06.16-.11.1-.32.1-.29V159.49l.21-.36.31-.53.33-.21.1-.06.65-.35.61-.33.23-.17.41-.24.11-.15.23-.28.08-.21v-.61l-.24-.2a5.46 5.46 0 0 0-.57-.24 1.05 1.05 0 0 1-.27-.09v-.51l.36-.36v-.26l.06-.31.23-.58v-1.18l.33-.47.49-.72.81-.81.44-.2 1.11.2h.28l.67-.14h.42l.13-.05.27-.31.2-.11.1-.06.36-.46.44-.41.54-.37.55-.17.14-.06.47-.21.57-.14h.2l.68-.05h3.18l1.12.13h.28l.7.05.16.18.48-.08.24.16.33.25.45.37.09.06.62.42.64.44.58.4.3.37a5.11 5.11 0 0 0 .6.34l.3.51.17.47-.26.81a.77.77 0 0 0 0 .1v.65c0 .03-.1.3 0 .37h.18l.35.06h.34l.57-.38.51-1-.12-.8v-.3c0-.14.07-.55.07-.55l.18-.41.19-.44h.95l.47.07.75.34.26.12.18.08.48.16.43.15h.14l.4.1.3.34.24.47.54.61a8 8 0 0 0 .82.17c.06 0 .81-.2.81-.2l.44-.27a4.24 4.24 0 0 0 .34-.58s0-.25.07-.45l.06-.33.11-.28a6.9 6.9 0 0 0 .23-.66l.34-.68.36-.35.52-.49.29-.07.58-.13.82-.14h2.54a3.15 3.15 0 0 0 .47.2l.29.06a1 1 0 0 1 .25.08 3.13 3.13 0 0 0 .61 0l.37-.29.61-.48.86-.08H90.55l.24-.08.66-.08h.39l.89-.29h.07l.43-.2-.21-.44-.89-.84-1.85-1.73v-.48s.07-.06.1-.06l.33-.05h.14l.34.33.43.28 3.85 3.08.18.08.19.09a.12.12 0 0 1 .1 0l.19.06.5.38h1.32l1.22-.05h1l.61.2a1.91 1.91 0 0 0 .28.07l.17.16.14.17.09.06.18.15s0 .05.06.06l.1.17.2.33.11.22.13.26h.41l.47-.47a2.89 2.89 0 0 1 .34-.35l.1-.09.06-.06.16-.17.08-.08.68-.37 2-.1 1.42-.3 1.93-.41 1-.06h2.39l.45.05h.43l.32.06 1.07.21H115.72l.3.06.37.07.12.05.49.18.68.36.11.05.9.24.32.14a1 1 0 0 0 .23.1l1 .5h1.45l.57-.44.49-.49.49-.49.71-.61 1-.24s.58-.23.64-.23h.99l.4-.05.68-.21.27-.18.16-.12 2.27-1.75 1.32-.14.55.14a3 3 0 0 1 .4.17l.88.23a2.44 2.44 0 0 0 .44 0c.07 0 .12 0 .13-.06s.17-.23.28-.38l.13-.2a.77.77 0 0 0 0-.23v-.61l.07-.75.77-.71.8-.56.26-.18 1.48-.77.18-.09.36-.16.38-.19.37-.18.41-.1.3-.07.16-.13.38-.31.78-.37.6-.37.58-.34.19-.34.07-.18.2-.47V135.28l-.14-.71-.1-.43-.27-.44.3-.71.14-.21.14-.2.4-.37.44-.27-.09-.43c0-.1 0-.2-.07-.25l-.08-.07c-.1-.1-.24-.27-.29-.27s-.28-.11-.44-.17h-.11a1.52 1.52 0 0 0-.52 0h-.15c-.06 0-.25 0-.41.08l-.23.06h-.13l-.36.06H139.72a5.22 5.22 0 0 0-.71.14l-.77.22-.28.08h-.55l-.27.05c-.22 0-.5.08-.6.08l-.92-.07a7.78 7.78 0 0 0-.84 0s-.2-.13-.2-.17a1.91 1.91 0 0 0-.22-.39 1.05 1.05 0 0 0-.12-.18l-.12-.25a1.89 1.89 0 0 0-.09-.19l-.35-.4-.22-.25-.42-.16-.36-.14-.39-.12-.39-.12-.39-.08-.28-.05-.32-.12h-.06l-.2-.07h-.1l-.64-.24-.34-.1h-.11l-.77-.14H128.25l-.34-.07h-.54l-.26.2-.18.14-.21.19-.2.18-.54.23-.85.14-.43.07-1.35-.17-.45-.18-.2-.09a5.43 5.43 0 0 0-.53-.43l-.42-.32-.26-.3.6-.07h1.12l1 .07h1l.37-.34.07-.07.08-.07.19-.16.07-.19.06-.15.3-.3.24-.09.41-.5h.67a.83.83 0 0 0 .28.1c.09 0 .54.1.54.1h1.18l.19.09h2.24l.26-.08H132.51l.17-.09.13-.13.24-.21.13-.18.11-.16.22-.25.08-.08.32-.29.12-.19.09-.15v-.13l.06-.18v-.22l.06-.32.09-.34-.1-.51a2.31 2.31 0 0 1 .24-.37v-.3a1.38 1.38 0 0 0 0-.14c0-.17.06-.43.06-.43l-.1-.4-.54-.47-.14-.07h-.5l-.42.24c0 .07-.23.21-.23.24s-.17.14-.2.17a7.61 7.61 0 0 1-.88.14.53.53 0 0 1-.18 0 .5.5 0 0 1-.12-.1l-.32-.33c0-.08.12-.24.16-.33l.43-.44.41-.37.47-.28.34-.16.17-.09.27-.14.32-.26.32-.26h.17l.24-.05H134.76l.28.11s.61.54.64.54l.2.14.25.16a2.44 2.44 0 0 0 .46.1h.47l.52-.08h.16l.21-.11.19-.09.61-.31.71-.4.4-.24.31-.37a1.19 1.19 0 0 1 .1-.17v-.34l.06-.15V116.96l-.24-.08h-.75a.3.3 0 0 1-.15-.07.4.4 0 0 1-.07-.07V116l.11-.11.1-.1a3 3 0 0 1 .37-.3h.06l.31-.23 2.1-1.76 1.18-1.22.88-.64.71-.41.34-.16.5-.25.48-.32.17-.11.48-.55.3-.57v-.51a.23.23 0 0 0 0-.07c0-.16-.09-.57-.09-.57l.08-.65v-.17l.06-.21.15-.46.06-.71.17-.81v-.18l.11-.64.07-.08.34-.33.33-1.18.38-.47.33-.68.14-.76v-.16l.27-1-.24-2.47zM.76 162.44H.65a.28.28 0 0 0-.25.16.77.77 0 0 0-.12.28v.54a2 2 0 0 0 .16.25h.14a3.09 3.09 0 0 0 .68-.07v-.16a1.61 1.61 0 0 0 .09-.35.52.52 0 0 0 .05-.12l.09-.25-.11-.07a2 2 0 0 0-.7-.3zM2.92 163.42l-.75.37-.3.2c-.07.2-.2.81-.27.91a3.44 3.44 0 0 0 0 .85c0 .06.48.27.48.27l.67-.31s.51-.54.54-.61a8.55 8.55 0 0 0 .17-.88 5.46 5.46 0 0 0-.24-.57l-.3-.27z"/>
  <path fill="#fff" d="M95.78 148.63l-.47-.33-.71-.3-.74-.48h-.81l-.48.23-1 .55-.6.47-.51.13s-.47.34-.47.48.27.13.27.13l.3.54a4.37 4.37 0 0 0 .14.48 5.9 5.9 0 0 0 .4.61l.38.74.47.58 1.28.47.92-.1.44-.34.34-.23.2-.48.17-.64.24-.34.33-.37.78-.1.41-.44v-.38l-.27-.3-1-.58zM70.08 115.42c0-.08-.26-.18-.49-.27-.43-.17-1-.39-1.13-.83l-.09-.24a2.43 2.43 0 0 0-.53-1c-.38-.45-1.13-1.1-1.5-1.1-.14 0-.26.12-.39.25s-.47.47-.9.23-2.7-2.15-2.35-3.79a.76.76 0 0 0-.16-.74.83.83 0 0 1-.21-.51c0-.68.07-.77.33-.81h.14s-.16-.26-.34-.29c-.21 0-.45-.07-.52-.23a.27.27 0 0 1 0-.27.87.87 0 0 1 .62-.33c.07 0 .18 0 .19-.06s0 0 0-.07-.47-.64-.23-1l.14-.31c.55-1.21.94-2 1.22-1.9 1 .2 1.4.16 1.47.07s0 0 0-.08-.17-.15-.31-.22a.81.81 0 0 1-.48-1.22c.08-.21.36-.39.63-.57s.42-.28.41-.35 0 0-.11-.06a.93.93 0 0 0-.41 0 2.7 2.7 0 0 1-2.68-1.19c-.23-.27-.49-.52-.73-.76-.65-.64-1.22-1.19-.91-1.64a4.88 4.88 0 0 1 2.15-.82 5.57 5.57 0 0 0 1.71-.59 1.52 1.52 0 0 0 .3-1.25.27.27 0 0 0-.21-.2c-.39-.07-.69.3-1 .65s-.62.79-1.06.61a.19.19 0 0 1-.1-.1c0-.12 0-.3.12-.51a2.14 2.14 0 0 0 .14-.43 1.08 1.08 0 0 0 0-.45c0-.15-.08-.3 0-.42a7.65 7.65 0 0 0 1.36-2.4c0-.19.07-.35.09-.49.08-.5.13-.78.41-.94a1.16 1.16 0 0 1 .57-.06h.4c.05 0 0-.07 0-.14a.78.78 0 0 1 0-.18c-.13-.46-.27-1-.73-1s-2.45-.75-2.47-1.33c0-.27.2-.53.41-.79s.35-.42.31-.57a.6.6 0 0 0-.27-.33c-.12-.09-.26-.19-.19-.37a4 4 0 0 1 2-1.3c.39-.07.41-.2.44-.38a.63.63 0 0 1 .18-.38c.26-.24 1.33.09 2.4.44l.33.11c.26.08.49.39.72.7s.4.52.5.49c.3-.09 1-.82.94-1a1 1 0 0 1 .07-.46c.13-.42.21-.78 0-.87l-.37-.37c-.29-.13-.52-.24-.68-.14s-.76-.19-.87-.26-.61-.42-.57-.67a2.67 2.67 0 0 1 .09-.36c.11-.36.28-.91.13-1.13s-.3-.37-.56-.66c-.69-.77-1.15-1.3-1.11-1.5s.21-.26.42-.39.46-.28.46-.46a6.94 6.94 0 0 0-.91-1.77 3.18 3.18 0 0 0-1-.36 1.93 1.93 0 0 1-1-.31 1.65 1.65 0 0 1-.17.18h-.15l-.22.06H63.19l-.19-.09-.19-.26-.3-.4-.37-.48-.43-.38-.41-.5-.24-.12-.1-.16-.1-.14-.1-.1-.17-.17-.14-.17-.37-.1h-.34l-.37.1-.47.14-.38.23-.3.14-.34.2-.14.09-.13.08-.37.17-.24.15h-.75l-.44-.07H54.16l-.16-.07-.1-.06-.12-.14-.18-.23s-.2-.14-.2-.21l-.41-.47-.49-.21a1.82 1.82 0 0 0-.31-.1l-.33-.07-.21.08h-.27l-.17.38-.06.3v.54l.16.31h-.06l-.25.22h-.18l-.19.05-.54.1-.41.1H49l-.24.27-.15.05h-.12l-.3.07H46.7l-.2-.17v-.2l.16-.19.19-.2.08-.07h.06l.14-.07.19-.25.28-.15.24-.16.16.16.15-.18.07-.31-.22-.14v-.06l-.2-.09h-.5l-.21.19-.54.2h-.74l-.16-.2-.11-.14-.33-.6-.07-.35v-.08l.09-.15v-.24a3.73 3.73 0 0 0-.17-.37l-.1-.11-.21-.23-.08-.18-.08-.2-.17-.36-.17-.27-.06-.13-.25-.2-.27-.21h-1.76l-.41.09h-.06l-.46.09-.55.23-.19.06-.38.12-.09.12-.14.18v.33l-.06 1.49-.17.28-.06.07c0 .06-.1.12-.12.12h-.44l-.44-.13-.17-.21H37.57s-.23.17-.23.24v.48l.06.19.06.1.21.34.33.22 1.88 1.75L42.25 75l.22.25.08.08.24.31V76.48l-.14.68-.34.34-.17.24-.13.2-.22.3-.15.2-.34.19-.7.37-2.6 1.83-.23.14-.72.44-.29.32-.64.57-.1.12-.14.18-.11.06-.3.15h-.17l-.51.12-.37.23-.1.41v.54l.12.17.12.17.09.13a.25.25 0 0 0 0 .07 1.77 1.77 0 0 0 .23.24h.48a4.13 4.13 0 0 0 .37-.2l.34-.31.16-.18.11-.12.21-.08a.18.18 0 0 1 .09 0h.51l.14.08.15.11.27.34.1.09.2.18.09.12.12.15h.37a3.58 3.58 0 0 0 .34-.17l.17.1.1-.67v-.11l.08-.3.17-.27.09-.14.11-.17.14-.3.21-.14.26-.17.54-.17h.43l.32-.16.87-.45.42-.07h.73l.71.07.64-.07.59.09h.09l.08.33v.96a2.75 2.75 0 0 1-.17.41v.06l-.13.17-.06.15-.07.19-.07.47.12.85v.13l.17.25.23.35.13.31.11.23.27.28.29.58.15.3v.74a2.32 2.32 0 0 1-.24.47l-.09.09-.22.22s-.33.3-.43.37a1.65 1.65 0 0 1-.3.23h-.07a.33.33 0 0 0-.11.08l-.17.12-.09.11-.14.16.1.44.24.22.13.12.17.37.13.28a.94.94 0 0 1 0 .1l.07.47.17.51V93.55l.14.39v.47l-.13.4-.07.54-.17.51-.27.24-.06.2-.08.27-.13.51-.19.36-.3.65-.24.3-.13.24-.07.13-.17.72-.54.5a3 3 0 0 0-.3.51 5.45 5.45 0 0 1-.45.31s-.13.19-.2.19l-.24.18-.23.17-.46.3a1 1 0 0 1-.23.17l-.18.11-.74.16-.11.08a.75.75 0 0 0-.16.13 3.45 3.45 0 0 0-.31.3l-.27.28s-.54.36-.57.36-.31.21-.31.21l-.37.3-.22.25-.08.09-.3.23-.57.17H36l-.65-.24h-.54a2.45 2.45 0 0 1-.47 0h-.06a.81.81 0 0 0-.39 0l-.14.1-.43.27-.47.38-.41.17-.3.4-.28.27-.33.27-.31.2-.26.21-.18.14-.2.13-.51.17h-.54l-.62-.2h-.36a.23.23 0 0 1-.09-.06 4 4 0 0 0-.37-.25h-.44l-.47.07-.61.31v.54l.17.54-.34.47-.12.09-.29.18-.39.13-.21.07-.54.21-.24.15-.14.08-.5.12-.27.06-.27.2-.38.23-.17.14-.17.14-.17.1-.26.16-.12.18-.16.23v.34l.21.2a.86.86 0 0 0 .23.1H25.52l.08.07.06.06v.06l.07.11.23.41.24.24.07.29-.09.14-.18.14-.17.64s-.14.24-.17.24h-.1l-.17.09a1.92 1.92 0 0 0-.4.14 3.52 3.52 0 0 0-.45.14.85.85 0 0 1-.25 0l-.31.09-.14.12h-.06l-.1.23v.21a2.19 2.19 0 0 0-.07.23l.15.19.05.08.31.57.13.25H24.48l.54.07H26l.38.06.1.13V117.49l-.07.51.21.4h1l.38.6.3.12.2.16h.47l.08-.11.1-.12.23-.35.07-.15.07-.15.24-.3.1-.11a3.85 3.85 0 0 1 .37-.13h.84l.36.07h.15l.58.07h.53l.18-.16.16-.14.2-.64.08-.31a2 2 0 0 0 .05-.23v-.06l.14-.21.13-.17.15-.1.36-.24h1.62l.65-.1s.2.2.26.2h.13l.62.06h.78l.34.34.24.27.24.47.46.43.19.18.25.11h1.05l.41.17H41.71l.75.14.28.06.39.08.47.2.18.17.14.2.06.21-.2.27-.11.06h-.13a.13.13 0 0 1-.08 0 3.84 3.84 0 0 1-.56.12h.1-.33a4.55 4.55 0 0 0-.64 0h-1.16l-.22.06-.25.07a1.53 1.53 0 0 0-.23.14l-.11.07a3.4 3.4 0 0 1-.2.34v.1l.1.37V120.82a1.54 1.54 0 0 0 .17.22l.87.34h.26l.22.05.58.06h1.28l.25-.05.5-.11h.15l.39-.1.3-.14.41-.1h.13l.25-.25.13-.12.2-.24.27-.17.3-.1h.51l.21.06.26.08.41.1.18.2.12.13.24.28.19.36.15.28.06.36.07.45v.41l.27.4v.31l.16.24v.06l.41.17h.37l.64.17.31.14.33.26.12.07.39.21.36.37.24.23.07.07.17.4.27.23.17.14.68.68.17.13a1.5 1.5 0 0 0 .2.07 1.94 1.94 0 0 0 .3-.07h3.97l.36-.08.22-.26a.93.93 0 0 1 .15-.15l.42-.27.26-.17.16-.18.28-.44.06-.11.14-.23.06-.11.24-.6.3-.17h.38l.31-.31.06-.06.23-.11.21-.09.24-.12.2-.09H64.09l.84-.22.44-.07h.26l.52-.09.37-.08.24-.06h.39l.08-.06.33-.25.51-.16.23-.08.15-.19.22-.28 1.44-1.58c0-.67-.33-4.79-.06-5.17z"/>
  <path fill="#f0b7d2" d="M47.45 91.16a11 11 0 1 0 11 11 11 11 0 0 0-11-11zm0 20.33a9.36 9.36 0 1 1 9.36-9.36 9.36 9.36 0 0 1-9.36 9.36zm0-6.18a3.19 3.19 0 1 1 3.18-3.18 3.18 3.18 0 0 1-3.18 3.18z"/>
  <circle cx="47.45" cy="102.13" r="3.18" fill="#ce0f69"/>
  <path fill="#f0b7d2" d="M72.17 16.73a11 11 0 1 0 11 11 11 11 0 0 0-11-11zm0 20.33a9.36 9.36 0 1 1 9.36-9.36 9.37 9.37 0 0 1-9.36 9.36zm0-6.18a3.19 3.19 0 1 1 3.18-3.18 3.18 3.18 0 0 1-3.18 3.18z"/>
  <circle cx="72.17" cy="27.7" r="3.18" fill="#ce0f69"/>
  <path fill="#f0b7d2" d="M116 115.2a11 11 0 1 0 11 11 11 11 0 0 0-11-11zm0 20.33a9.36 9.36 0 1 1 9.36-9.36 9.37 9.37 0 0 1-9.36 9.36z"/>
  <circle cx="117.07" cy="128.01" r="2.05" fill="#ce0f69"/>
  <circle cx="115.01" cy="124.45" r="2.05" fill="#ce0f69"/>
</svg>
