<?xml version="1.0" encoding="UTF-8"?>
<svg width="484px" height="196px" viewBox="0 0 484 196" version="1.1" xmlns="http://www.w3.org/2000/svg" xmlns:xlink="http://www.w3.org/1999/xlink">
    <!-- Generator: Sketch 50.2 (55047) - http://www.bohemiancoding.com/sketch -->
    <title>UKOpenGovernmentLicence</title>
    <desc>Created with Sketch.</desc>
    <defs></defs>
    <g id="Page-1" stroke="none" stroke-width="1" fill="none" fill-rule="evenodd">
        <g id="UKOpenGovernmentLicence" fill="#999999" fill-rule="nonzero">
            <polygon id="Shape" points="421.5 142.8 421.5 0.1 370.8 32.4 370.8 193.5 483.2 193.5 483.2 142.8"></polygon>
            <path d="M299.2,133.2 C290.9,140.5 280,144.9 268.1,144.9 C242.1,144.9 221,123.8 221,97.8 C221,71.8 242.1,50.7 268.1,50.7 C284.8,50.7 299.5,59.4 307.8,72.5 L350.5,45.3 C333.2,18.1 302.7,0 268.1,0 C231.6,0 199.8,20.1 183,49.7 C166.2,20.1 134.3,0 97.8,0 C43.9,0 0,43.9 0,97.8 C0,151.7 43.9,195.6 97.8,195.6 C134.3,195.6 166.1,175.5 182.9,145.9 C199.7,175.6 231.6,195.6 268,195.6 C292.7,195.6 315.3,186.4 332.5,171.3 L351.9,193.5 L354.9,193.5 L354.9,105.7 L274.9,105.7 L299.2,133.2 Z M97.8,145 C71.8,145 50.7,123.9 50.7,97.9 C50.7,71.9 71.8,50.8 97.8,50.8 C123.8,50.8 145,71.8 145,97.8 C145,123.8 123.8,145 97.8,145 Z" id="Shape"></path>
        </g>
    </g>
</svg>