<svg id="Layer_1" data-name="Layer 1" xmlns="http://www.w3.org/2000/svg" xmlns:xlink="http://www.w3.org/1999/xlink" viewBox="0 0 1163 1057"><defs><clipPath id="clip-path"><rect x="283.13" y="-4.09" width="387.08" height="45.01" style="fill:none"/></clipPath><clipPath id="clip-path-2"><rect x="874.38" y="-4.09" width="387.08" height="45.01" style="fill:none"/></clipPath></defs><title>eq-grid-responsive-mobile-tablet</title><g id="_301-600px" data-name=" 301-600px"><g id="_301-600px_grid" data-name=" 301-600px grid"><g id="_301-600px_grid-2" data-name=" 301-600px grid-2"><rect x="88.13" y="0.92" width="35" height="67.16" style="fill:#bbe2f3;opacity:0.699999988079071;isolation:isolate"/><rect x="138.63" y="0.92" width="35" height="67.16" style="fill:#bbe2f3;opacity:0.699999988079071;isolation:isolate"/><rect x="190.63" y="0.92" width="35" height="67.16" style="fill:#bbe2f3;opacity:0.699999988079071;isolation:isolate"/><rect x="241.38" y="0.92" width="35" height="67.16" style="fill:#bbe2f3;opacity:0.699999988079071;isolation:isolate"/><rect x="292.13" y="0.92" width="35" height="67.16" style="fill:#bbe2f3;opacity:0.699999988079071;isolation:isolate"/><rect x="343.13" y="0.92" width="35" height="67.16" style="fill:#bbe2f3;opacity:0.699999988079071;isolation:isolate"/><rect x="393.63" y="0.92" width="35" height="67.16" style="fill:#bbe2f3;opacity:0.699999988079071;isolation:isolate"/><rect x="445.63" y="0.92" width="35" height="67.16" style="fill:#bbe2f3;opacity:0.699999988079071;isolation:isolate"/><rect x="496.38" y="0.92" width="35" height="67.16" style="fill:#bbe2f3;opacity:0.699999988079071;isolation:isolate"/><rect x="547.13" y="0.92" width="35" height="67.16" style="fill:#bbe2f3;opacity:0.699999988079071;isolation:isolate"/><rect x="598.13" y="0.92" width="35" height="67.16" style="fill:#bbe2f3;opacity:0.699999988079071;isolation:isolate"/><rect x="648.88" y="0.92" width="35" height="67.16" style="fill:#bbe2f3;opacity:0.699999988079071;isolation:isolate"/></g><g id="_301-600px_grid_bg" data-name=" 301-600px grid bg" style="opacity:0.20000000298023224"><rect x="88.13" y="66.3" width="35" height="989.77" style="fill:#bbe2f3;opacity:0.699999988079071;isolation:isolate"/><rect x="138.63" y="66.3" width="35" height="989.77" style="fill:#bbe2f3;opacity:0.699999988079071;isolation:isolate"/><rect x="190.63" y="66.3" width="35" height="989.77" style="fill:#bbe2f3;opacity:0.699999988079071;isolation:isolate"/><rect x="241.38" y="66.3" width="35" height="989.77" style="fill:#bbe2f3;opacity:0.699999988079071;isolation:isolate"/><rect x="292.13" y="66.3" width="35" height="989.77" style="fill:#bbe2f3;opacity:0.699999988079071;isolation:isolate"/><rect x="343.13" y="66.3" width="35" height="989.77" style="fill:#bbe2f3;opacity:0.699999988079071;isolation:isolate"/><rect x="393.63" y="66.3" width="35" height="989.77" style="fill:#bbe2f3;opacity:0.699999988079071;isolation:isolate"/><rect x="445.63" y="66.3" width="35" height="989.77" style="fill:#bbe2f3;opacity:0.699999988079071;isolation:isolate"/><rect x="496.38" y="66.3" width="35" height="989.77" style="fill:#bbe2f3;opacity:0.699999988079071;isolation:isolate"/><rect x="547.13" y="66.3" width="35" height="989.77" style="fill:#bbe2f3;opacity:0.699999988079071;isolation:isolate"/><rect x="598.13" y="66.3" width="35" height="989.77" style="fill:#bbe2f3;opacity:0.699999988079071;isolation:isolate"/><rect x="648.88" y="66.3" width="35" height="989.77" style="fill:#bbe2f3;opacity:0.699999988079071;isolation:isolate"/></g><rect x="275.13" y="0.92" width="17" height="80.37" style="fill:#0f8243;opacity:0.6000000238418579;isolation:isolate"/></g><g id="_16px_margin_label" data-name=" 16px margin label"><line x1="285.77" y1="24.63" x2="340.2" y2="24.63" style="fill:none;stroke:#1d1d1b"/><g style="clip-path:url(#clip-path)"><path d="M285.77,27.27a2.64,2.64,0,1,0-2.64-2.64,2.64,2.64,0,0,0,2.64,2.64h0" style="fill:#1d1d1b"/></g><g style="isolation:isolate"><text transform="translate(354.13 29.49)" style="isolation:isolate;font-size:18px;fill:#222;font-family:LatoLatin-Regular, LatoLatin">16</text><text transform="translate(375.01 29.49)" style="isolation:isolate;font-size:18px;fill:#222;font-family:LatoLatin-Regular, LatoLatin;letter-spacing:-0.028998480902777776em">p</text><text transform="translate(384.41 29.49)" style="isolation:isolate;font-size:18px;fill:#222;font-family:LatoLatin-Regular, LatoLatin">x fi</text><text transform="translate(407.21 29.49)" style="isolation:isolate;font-size:18px;fill:#222;font-family:LatoLatin-Regular, LatoLatin;letter-spacing:-0.028998480902777776em">x</text><text transform="translate(415.74 29.49)" style="isolation:isolate;font-size:18px;fill:#222;font-family:LatoLatin-Regular, LatoLatin">ed ma<tspan x="47.94" y="0" style="letter-spacing:-0.011474609375em">r</tspan><tspan x="54.29" y="0" style="letter-spacing:-0.00002712673611111111em">gin</tspan></text></g></g><g id="Layer_5" data-name="Layer 5"><polyline points="705.2 215.57 705.2 1056.08 66.81 1056.08 66.81 215.57" style="fill:none;stroke:#d0d0d0;stroke-miterlimit:10"/><path d="M90.73,142.86c.74-1.54,1.52-3.05,2.38-4.51a49.11,49.11,0,0,1-2.37-7.28v11.79m4.61-29.79s-4.59,0-4.59,5.69v3a54,54,0,0,0,3.33,15,48.13,48.13,0,0,1,9.42-11C111,119.38,121,115,134.58,113Z" style="fill:#a8bd3a"/><path d="M139.7,116.18c-15.56,1.48-26.19,5.92-33.8,12.43a45.7,45.7,0,0,0-10,12.27c6,11.59,17.35,20.1,36.34,21.35h1.85s5.84.2,5.84-6.29V116.13h-.24m-40,33a40,40,0,0,1-4.63-6.76,71.76,71.76,0,0,0-4.33,10.13v9.59l31.1.06c-9.7-2.33-17-7-22.14-13" style="fill:#013e58"/><path d="M158.76,135c-4.76,0-6.89-3.94-6.89-8.8s2.13-8.8,6.89-8.8,6.87,4,6.87,8.8-2.11,8.8-6.87,8.8m0-16.22c-3.51,0-4.76,3.84-4.76,7.37s1.13,7.29,4.76,7.29,4.74-3.82,4.74-7.29-1.23-7.37-4.74-7.37" style="fill:#013e58"/><path d="M171.54,122.61v12.1h-1.93v-12.1h-2v-1.18h2V119.5a3.88,3.88,0,0,1,3.56-4.18,5.15,5.15,0,0,1,.68,0h.45v1.23h-.23a2.45,2.45,0,0,0-2.55,2.35c0,.11,0,.23,0,.34v2.14h2.77v1.18Z" style="fill:#013e58"/><path d="M179.5,122.61v12.1h-1.93v-12.1h-2v-1.18h2V119.5a3.88,3.88,0,0,1,3.56-4.18,5.15,5.15,0,0,1,.68,0h.45v1.23H182a2.45,2.45,0,0,0-2.55,2.35c0,.11,0,.23,0,.34v2.14h2.77v1.18Z" style="fill:#013e58"/><path d="M185.44,118.89a1.19,1.19,0,0,1-1.22-1.16v0a1.23,1.23,0,0,1,2.45,0h0a1.19,1.19,0,0,1-1.2,1.18h0m-1,2.54h2v13.28h-2Z" style="fill:#013e58"/><path d="M194.71,135c-3.15,0-5.58-2.71-5.58-7s2.43-7,5.64-7a5.12,5.12,0,0,1,3.23,1l-.5,1.18a4,4,0,0,0-2.31-.71c-2.7,0-4.08,2.34-4.08,5.5s1.59,5.57,4,5.57a4.23,4.23,0,0,0,2.36-.72l.52,1.28a5.33,5.33,0,0,1-3.31.91" style="fill:#013e58"/><path d="M201.17,128.87c.25,3.13,2,4.71,4.67,4.71a7.63,7.63,0,0,0,3.6-.81l.57,1.35a9.42,9.42,0,0,1-4.31.91c-3.74,0-6.39-2.22-6.39-7,0-4.56,2.45-6.92,5.78-6.92s5.44,2.07,5.44,6.51Zm3.85-6.51c-2.15,0-4,1.68-3.94,5.4l7.55-1c0-3.08-1.47-4.36-3.6-4.36" style="fill:#013e58"/><path d="M222.87,122.61v12.1h-1.93v-12.1h-2v-1.18h2V119.5a3.88,3.88,0,0,1,3.56-4.18,5.15,5.15,0,0,1,.68,0h.45v1.23h-.23a2.45,2.45,0,0,0-2.55,2.35c0,.11,0,.23,0,.34v2.14h2.76v1.18Z" style="fill:#013e58"/><path d="M232.68,135c-3.92,0-5.71-3-5.71-7s1.79-7,5.71-7,5.69,3.06,5.69,7-1.77,7-5.69,7m0-12.62c-2.9,0-3.74,2.93-3.74,5.67s.91,5.55,3.74,5.55,3.74-2.81,3.74-5.55-.84-5.67-3.74-5.67" style="fill:#013e58"/><path d="M246.73,122.66a5.92,5.92,0,0,0-3.85.25v11.81h-1.95V122a12.49,12.49,0,0,1,5.3-.91h1Z" style="fill:#013e58"/><path d="M163.13,161.59,155.6,150a16.38,16.38,0,0,1-1-1.72h0s.07,1,.07,2v11.31H152.2v-17H155l7.14,10.92a14.38,14.38,0,0,1,1,1.75h0s-.09-1-.09-2v-10.7h2.49v17Z" style="fill:#013e58"/><path d="M173.67,161.94c-3.9,0-5.73-1.55-5.73-4.09,0-3.57,3.74-4.53,8.18-4.93v-.76c0-1.82-1.25-2.37-3.06-2.37a9.49,9.49,0,0,0-3.6.77l-.66-1.63a12.67,12.67,0,0,1,4.78-1c2.95,0,5.21,1.21,5.21,4.61V161a11.86,11.86,0,0,1-5.12,1m2.45-7.69c-3.29.35-5.48,1-5.48,3.52,0,1.8,1.27,2.56,3.26,2.56a5.15,5.15,0,0,0,2.22-.44Z" style="fill:#013e58"/><path d="M186.5,161.89c-2.79,0-3.85-1.8-3.85-3.6V150h-1.86v-1.73h1.86v-3l2.83-.79v3.77h2.58V150h-2.58v8.11A1.71,1.71,0,0,0,187,160h.25a2.53,2.53,0,0,0,.77-.12v1.75a4.17,4.17,0,0,1-1.56.27" style="fill:#013e58"/><path d="M191.71,146a1.49,1.49,0,1,1,1.65-1.48,1.58,1.58,0,0,1-1.65,1.48m-1.43,2.29h2.85v13.28h-2.85Z" style="fill:#013e58"/><path d="M201.67,161.94c-4.06,0-6.07-3-6.07-7s2-7,6.07-7,6.05,3,6.05,7-2,7-6.05,7m0-12.15c-2.45,0-3.17,2.56-3.17,5.15s.77,5.05,3.17,5.05,3.17-2.46,3.17-5.05-.72-5.15-3.17-5.15" style="fill:#013e58"/><path d="M218.26,161.59V152.1c0-1.7-1.45-2.34-3.08-2.34a6.38,6.38,0,0,0-2.29.39v11.44h-2.83V148.92a14,14,0,0,1,5.28-1c3.47,0,5.78,1.18,5.78,4.09v9.54Z" style="fill:#013e58"/><path d="M229.1,161.94c-3.9,0-5.73-1.55-5.73-4.09,0-3.57,3.74-4.53,8.18-4.93v-.76c0-1.82-1.25-2.37-3.06-2.37a9.49,9.49,0,0,0-3.6.77l-.66-1.63a12.67,12.67,0,0,1,4.78-1c3,0,5.21,1.21,5.21,4.61V161a11.86,11.86,0,0,1-5.12,1m2.45-7.69c-3.29.35-5.48,1-5.48,3.52,0,1.8,1.27,2.56,3.26,2.56a5.15,5.15,0,0,0,2.22-.44Z" style="fill:#013e58"/><rect x="237.14" y="142.24" width="2.83" height="19.35" style="fill:#013e58"/><path d="M253.46,161.94a10,10,0,0,1-4.62-1l.79-2.07a7,7,0,0,0,3.26.81c2,0,3.38-1.16,3.38-2.83,0-3.72-7-2.29-7-7.57,0-2.69,2.18-5,5.62-5a8.3,8.3,0,0,1,4.08,1l-.72,1.85a6.31,6.31,0,0,0-3-.79,2.74,2.74,0,0,0-3,2.45c0,.08,0,.16,0,.24,0,3.65,7.21,2.07,7.21,7.69,0,3-2.47,5.25-5.94,5.25" style="fill:#013e58"/><path d="M266.59,161.89c-2.79,0-3.85-1.8-3.85-3.6V150h-1.86v-1.73h1.86v-3l2.83-.79v3.77h2.58V150h-2.58v8.11a1.71,1.71,0,0,0,1.56,1.85h.25a2.53,2.53,0,0,0,.77-.12v1.75a4.17,4.17,0,0,1-1.56.27" style="fill:#013e58"/><path d="M275.43,161.94c-3.9,0-5.73-1.55-5.73-4.09,0-3.57,3.74-4.53,8.18-4.93v-.76c0-1.82-1.25-2.37-3.06-2.37a9.49,9.49,0,0,0-3.6.77l-.66-1.63a12.67,12.67,0,0,1,4.78-1c3,0,5.21,1.21,5.21,4.61V161a11.86,11.86,0,0,1-5.12,1m2.45-7.69c-3.29.35-5.48,1-5.48,3.52,0,1.8,1.27,2.56,3.26,2.56a5.15,5.15,0,0,0,2.22-.44Z" style="fill:#013e58"/><path d="M288.26,161.89c-2.79,0-3.86-1.8-3.86-3.6V150h-1.86v-1.73h1.86v-3l2.83-.79v3.77h2.58V150h-2.58v8.11a1.71,1.71,0,0,0,1.56,1.85H289a2.53,2.53,0,0,0,.77-.12v1.75a4.17,4.17,0,0,1-1.56.27" style="fill:#013e58"/><path d="M293.47,146a1.49,1.49,0,1,1,1.66-1.48,1.57,1.57,0,0,1-1.66,1.48M292,148.31h2.86v13.28H292Z" style="fill:#013e58"/><path d="M301.09,161.94a8.33,8.33,0,0,1-4-1l.75-1.82a5.48,5.48,0,0,0,2.9.79,2.39,2.39,0,0,0,2.61-2.07c0-3.16-5.83-1.68-5.83-6,0-2,1.77-3.9,4.65-3.9a7.11,7.11,0,0,1,3.74,1l-.75,1.65a4.39,4.39,0,0,0-2.43-.76c-1.47,0-2.38.89-2.38,1.9,0,3,5.94,1.65,5.94,6.09,0,2.12-2,4.14-5.19,4.14" style="fill:#013e58"/><path d="M313.49,161.89c-2.79,0-3.85-1.8-3.85-3.6V150h-1.86v-1.73h1.86v-3l2.83-.79v3.77h2.58V150h-2.58v8.11A1.71,1.71,0,0,0,314,160h.25a2.53,2.53,0,0,0,.77-.12v1.75a4.17,4.17,0,0,1-1.56.27" style="fill:#013e58"/><path d="M318.71,146a1.49,1.49,0,1,1,1.66-1.48,1.57,1.57,0,0,1-1.66,1.48m-1.43,2.29h2.85v13.28h-2.85Z" style="fill:#013e58"/><path d="M328.34,161.94c-3.26,0-5.76-2.66-5.76-7s2.56-7,5.78-7a5.5,5.5,0,0,1,3.4,1l-.63,1.6a3.61,3.61,0,0,0-2.09-.64c-2.31,0-3.51,2-3.51,5s1.38,5,3.47,5a3.6,3.6,0,0,0,2.08-.67l.7,1.75a5.47,5.47,0,0,1-3.44,1" style="fill:#013e58"/><path d="M337.07,161.94a8.33,8.33,0,0,1-4-1l.75-1.82a5.48,5.48,0,0,0,2.9.79,2.39,2.39,0,0,0,2.61-2.07c0-3.16-5.82-1.68-5.82-6,0-2,1.77-3.9,4.65-3.9a7.11,7.11,0,0,1,3.74,1l-.75,1.65a4.39,4.39,0,0,0-2.43-.76c-1.47,0-2.38.89-2.38,1.9,0,3,5.94,1.65,5.94,6.09,0,2.12-2,4.14-5.19,4.14" style="fill:#013e58"/><path d="M90.73,142.86c.74-1.54,1.52-3.05,2.38-4.51a49.11,49.11,0,0,1-2.37-7.28v11.79m4.61-29.79s-4.59,0-4.59,5.69v3a54,54,0,0,0,3.33,15,48.13,48.13,0,0,1,9.42-11C111,119.38,121,115,134.58,113Z" style="fill:#b2bc35"/><path d="M139.7,116.18c-15.56,1.48-26.19,5.92-33.8,12.43a45.7,45.7,0,0,0-10,12.27c6,11.59,17.35,20.1,36.34,21.35h1.85s5.84.2,5.84-6.29V116.13h-.24m-40,33a40,40,0,0,1-4.63-6.76,71.76,71.76,0,0,0-4.33,10.13v9.59l31.1.06c-9.7-2.33-17-7-22.14-13" style="fill:#06446a"/><path d="M158.76,135c-4.76,0-6.89-3.94-6.89-8.8s2.13-8.8,6.89-8.8,6.87,4,6.87,8.8-2.11,8.8-6.87,8.8m0-16.22c-3.51,0-4.76,3.84-4.76,7.37s1.13,7.29,4.76,7.29,4.74-3.82,4.74-7.29-1.23-7.37-4.74-7.37" style="fill:#06446a"/><path d="M171.54,122.61v12.1h-1.93v-12.1h-2v-1.18h2V119.5a3.88,3.88,0,0,1,3.56-4.18,5.15,5.15,0,0,1,.68,0h.45v1.23h-.23a2.45,2.45,0,0,0-2.55,2.35c0,.11,0,.23,0,.34v2.14h2.77v1.18Z" style="fill:#06446a"/><path d="M179.5,122.61v12.1h-1.93v-12.1h-2v-1.18h2V119.5a3.88,3.88,0,0,1,3.56-4.18,5.15,5.15,0,0,1,.68,0h.45v1.23H182a2.45,2.45,0,0,0-2.55,2.35c0,.11,0,.23,0,.34v2.14h2.77v1.18Z" style="fill:#06446a"/><path d="M185.44,118.89a1.19,1.19,0,0,1-1.22-1.16v0a1.23,1.23,0,0,1,2.45,0h0a1.19,1.19,0,0,1-1.2,1.18h0m-1,2.54h2v13.28h-2Z" style="fill:#06446a"/><path d="M194.71,135c-3.15,0-5.58-2.71-5.58-7s2.43-7,5.64-7a5.12,5.12,0,0,1,3.23,1l-.5,1.18a4,4,0,0,0-2.31-.71c-2.7,0-4.08,2.34-4.08,5.5s1.59,5.57,4,5.57a4.23,4.23,0,0,0,2.36-.72l.52,1.28a5.33,5.33,0,0,1-3.31.91" style="fill:#06446a"/><path d="M201.17,128.87c.25,3.13,2,4.71,4.67,4.71a7.63,7.63,0,0,0,3.6-.81l.57,1.35a9.42,9.42,0,0,1-4.31.91c-3.74,0-6.39-2.22-6.39-7,0-4.56,2.45-6.92,5.78-6.92s5.44,2.07,5.44,6.51Zm3.85-6.51c-2.15,0-4,1.68-3.94,5.4l7.55-1c0-3.08-1.47-4.36-3.6-4.36" style="fill:#06446a"/><path d="M222.87,122.61v12.1h-1.93v-12.1h-2v-1.18h2V119.5a3.88,3.88,0,0,1,3.56-4.18,5.15,5.15,0,0,1,.68,0h.45v1.23h-.23a2.45,2.45,0,0,0-2.55,2.35c0,.11,0,.23,0,.34v2.14h2.76v1.18Z" style="fill:#06446a"/><path d="M232.68,135c-3.92,0-5.71-3-5.71-7s1.79-7,5.71-7,5.69,3.06,5.69,7-1.77,7-5.69,7m0-12.62c-2.9,0-3.74,2.93-3.74,5.67s.91,5.55,3.74,5.55,3.74-2.81,3.74-5.55-.84-5.67-3.74-5.67" style="fill:#06446a"/><path d="M246.73,122.66a5.92,5.92,0,0,0-3.85.25v11.81h-1.95V122a12.49,12.49,0,0,1,5.3-.91h1Z" style="fill:#06446a"/><path d="M163.13,161.59,155.6,150a16.38,16.38,0,0,1-1-1.72h0s.07,1,.07,2v11.31H152.2v-17H155l7.14,10.92a14.38,14.38,0,0,1,1,1.75h0s-.09-1-.09-2v-10.7h2.49v17Z" style="fill:#06446a"/><path d="M173.67,161.94c-3.9,0-5.73-1.55-5.73-4.09,0-3.57,3.74-4.53,8.18-4.93v-.76c0-1.82-1.25-2.37-3.06-2.37a9.49,9.49,0,0,0-3.6.77l-.66-1.63a12.67,12.67,0,0,1,4.78-1c2.95,0,5.21,1.21,5.21,4.61V161a11.86,11.86,0,0,1-5.12,1m2.45-7.69c-3.29.35-5.48,1-5.48,3.52,0,1.8,1.27,2.56,3.26,2.56a5.15,5.15,0,0,0,2.22-.44Z" style="fill:#06446a"/><path d="M186.5,161.89c-2.79,0-3.85-1.8-3.85-3.6V150h-1.86v-1.73h1.86v-3l2.83-.79v3.77h2.58V150h-2.58v8.11A1.71,1.71,0,0,0,187,160h.25a2.53,2.53,0,0,0,.77-.12v1.75a4.17,4.17,0,0,1-1.56.27" style="fill:#06446a"/><path d="M191.71,146a1.49,1.49,0,1,1,1.65-1.48,1.58,1.58,0,0,1-1.65,1.48m-1.43,2.29h2.85v13.28h-2.85Z" style="fill:#06446a"/><path d="M201.67,161.94c-4.06,0-6.07-3-6.07-7s2-7,6.07-7,6.05,3,6.05,7-2,7-6.05,7m0-12.15c-2.45,0-3.17,2.56-3.17,5.15s.77,5.05,3.17,5.05,3.17-2.46,3.17-5.05-.72-5.15-3.17-5.15" style="fill:#06446a"/><path d="M218.26,161.59V152.1c0-1.7-1.45-2.34-3.08-2.34a6.38,6.38,0,0,0-2.29.39v11.44h-2.83V148.92a14,14,0,0,1,5.28-1c3.47,0,5.78,1.18,5.78,4.09v9.54Z" style="fill:#06446a"/><path d="M229.1,161.94c-3.9,0-5.73-1.55-5.73-4.09,0-3.57,3.74-4.53,8.18-4.93v-.76c0-1.82-1.25-2.37-3.06-2.37a9.49,9.49,0,0,0-3.6.77l-.66-1.63a12.67,12.67,0,0,1,4.78-1c3,0,5.21,1.21,5.21,4.61V161a11.86,11.86,0,0,1-5.12,1m2.45-7.69c-3.29.35-5.48,1-5.48,3.52,0,1.8,1.27,2.56,3.26,2.56a5.15,5.15,0,0,0,2.22-.44Z" style="fill:#06446a"/><rect x="237.14" y="142.24" width="2.83" height="19.35" style="fill:#06446a"/><path d="M253.46,161.94a10,10,0,0,1-4.62-1l.79-2.07a7,7,0,0,0,3.26.81c2,0,3.38-1.16,3.38-2.83,0-3.72-7-2.29-7-7.57,0-2.69,2.18-5,5.62-5a8.3,8.3,0,0,1,4.08,1l-.72,1.85a6.31,6.31,0,0,0-3-.79,2.74,2.74,0,0,0-3,2.45c0,.08,0,.16,0,.24,0,3.65,7.21,2.07,7.21,7.69,0,3-2.47,5.25-5.94,5.25" style="fill:#06446a"/><path d="M266.59,161.89c-2.79,0-3.85-1.8-3.85-3.6V150h-1.86v-1.73h1.86v-3l2.83-.79v3.77h2.58V150h-2.58v8.11a1.71,1.71,0,0,0,1.56,1.85h.25a2.53,2.53,0,0,0,.77-.12v1.75a4.17,4.17,0,0,1-1.56.27" style="fill:#06446a"/><path d="M275.43,161.94c-3.9,0-5.73-1.55-5.73-4.09,0-3.57,3.74-4.53,8.18-4.93v-.76c0-1.82-1.25-2.37-3.06-2.37a9.49,9.49,0,0,0-3.6.77l-.66-1.63a12.67,12.67,0,0,1,4.78-1c3,0,5.21,1.21,5.21,4.61V161a11.86,11.86,0,0,1-5.12,1m2.45-7.69c-3.29.35-5.48,1-5.48,3.52,0,1.8,1.27,2.56,3.26,2.56a5.15,5.15,0,0,0,2.22-.44Z" style="fill:#06446a"/><path d="M288.26,161.89c-2.79,0-3.86-1.8-3.86-3.6V150h-1.86v-1.73h1.86v-3l2.83-.79v3.77h2.58V150h-2.58v8.11a1.71,1.71,0,0,0,1.56,1.85H289a2.53,2.53,0,0,0,.77-.12v1.75a4.17,4.17,0,0,1-1.56.27" style="fill:#06446a"/><path d="M293.47,146a1.49,1.49,0,1,1,1.66-1.48,1.57,1.57,0,0,1-1.66,1.48M292,148.31h2.86v13.28H292Z" style="fill:#06446a"/><path d="M301.09,161.94a8.33,8.33,0,0,1-4-1l.75-1.82a5.48,5.48,0,0,0,2.9.79,2.39,2.39,0,0,0,2.61-2.07c0-3.16-5.83-1.68-5.83-6,0-2,1.77-3.9,4.65-3.9a7.11,7.11,0,0,1,3.74,1l-.75,1.65a4.39,4.39,0,0,0-2.43-.76c-1.47,0-2.38.89-2.38,1.9,0,3,5.94,1.65,5.94,6.09,0,2.12-2,4.14-5.19,4.14" style="fill:#06446a"/><path d="M313.49,161.89c-2.79,0-3.85-1.8-3.85-3.6V150h-1.86v-1.73h1.86v-3l2.83-.79v3.77h2.58V150h-2.58v8.11A1.71,1.71,0,0,0,314,160h.25a2.53,2.53,0,0,0,.77-.12v1.75a4.17,4.17,0,0,1-1.56.27" style="fill:#06446a"/><path d="M318.71,146a1.49,1.49,0,1,1,1.66-1.48,1.57,1.57,0,0,1-1.66,1.48m-1.43,2.29h2.85v13.28h-2.85Z" style="fill:#06446a"/><path d="M328.34,161.94c-3.26,0-5.76-2.66-5.76-7s2.56-7,5.78-7a5.5,5.5,0,0,1,3.4,1l-.63,1.6a3.61,3.61,0,0,0-2.09-.64c-2.31,0-3.51,2-3.51,5s1.38,5,3.47,5a3.6,3.6,0,0,0,2.08-.67l.7,1.75a5.47,5.47,0,0,1-3.44,1" style="fill:#06446a"/><path d="M337.07,161.94a8.33,8.33,0,0,1-4-1l.75-1.82a5.48,5.48,0,0,0,2.9.79,2.39,2.39,0,0,0,2.61-2.07c0-3.16-5.82-1.68-5.82-6,0-2,1.77-3.9,4.65-3.9a7.11,7.11,0,0,1,3.74,1l-.75,1.65a4.39,4.39,0,0,0-2.43-.76c-1.47,0-2.38.89-2.38,1.9,0,3,5.94,1.65,5.94,6.09,0,2.12-2,4.14-5.19,4.14" style="fill:#06446a"/><rect x="66.81" y="68.08" width="638.39" height="147.48" style="fill:none;stroke:#d0d0d0;stroke-miterlimit:10"/><rect x="428.47" y="122.34" width="255.66" height="12.29" style="fill:#d0d0d0"/><rect x="428.47" y="147.97" width="127.83" height="12.29" style="fill:#d0d0d0"/><g id="Content"><g style="isolation:isolate"><text transform="translate(90.73 308.37) scale(0.99 1)" style="isolation:isolate;font-size:44.25px;font-family:LatoLatin-Regular, LatoLatin"><tspan style="letter-spacing:-0.009986874297449757em">S</tspan><tspan x="23.56" y="0">u</tspan><tspan x="48.23" y="0" style="letter-spacing:-0.020999186580798374em">r</tspan></text><text transform="translate(157.97 308.37) scale(0.99 1)" style="isolation:isolate;font-size:44.25px;font-family:LatoLatin-Regular, LatoLatin;letter-spacing:-0.03399549844556em">v<tspan x="21.33" y="0" style="letter-spacing:-0.020007186790091863em">e</tspan></text><text transform="translate(204.26 308.37) scale(0.99 1)" style="isolation:isolate;font-size:44.25px;font-family:LatoLatin-Regular, LatoLatin;letter-spacing:-0.024487904945867313em">y<tspan x="21.73" y="0" xml:space="preserve" style="letter-spacing:0.000011146065064118032em"> title</tspan></text></g><rect x="89.81" y="341.94" width="592.09" height="12.29" style="fill:#d0d0d0"/><rect x="89.81" y="367.57" width="296.05" height="12.29" style="fill:#d0d0d0"/><rect x="89.31" y="409.5" width="592.09" height="12.29" style="fill:#d0d0d0"/><rect x="89.31" y="435.14" width="296.05" height="12.29" style="fill:#d0d0d0"/><line x1="89.31" y1="496.72" x2="681.4" y2="496.72" style="fill:none;stroke:#d0d0d0;stroke-miterlimit:10"/><text transform="translate(90.18 587.51) scale(0.99 1)" style="isolation:isolate;font-size:34.40999984741211px;font-family:LatoLatin-Regular, LatoLatin">1. <tspan x="36.89" y="0" style="letter-spacing:-0.002981353772306331em">S</tspan><tspan x="55.45" y="0">ection title</tspan></text><rect x="90.16" y="622.16" width="591.74" height="12.29" style="fill:#d0d0d0"/><rect x="90.16" y="647.79" width="295.87" height="12.29" style="fill:#d0d0d0"/><rect x="90.16" y="796.68" width="591.74" height="12.29" style="fill:#d0d0d0"/><rect x="90.16" y="822.31" width="295.87" height="12.29" style="fill:#d0d0d0"/><text transform="translate(89.31 771.12) scale(0.99 1)" style="isolation:isolate;font-size:29.5px;font-family:LatoLatin-Regular, LatoLatin">1.1 <tspan x="48.73" y="0" style="letter-spacing:-0.0074901557230873175em">Q</tspan><tspan x="72.13" y="0" style="letter-spacing:-0.000016719097596177048em">uestion title</tspan></text><text transform="translate(90.18 905.88) scale(0.99 1)" style="isolation:isolate;font-size:24.59000015258789px;font-family:LatoLatin-Regular, LatoLatin">Label</text><rect x="90.17" y="919.7" width="514.54" height="57.33" style="fill:none;stroke:#d0d0d0;stroke-miterlimit:10"/><text transform="translate(89.31 1010.62) scale(0.99 1)" style="font-size:24.59000015258789px;font-family:LatoLatin-Regular, LatoLatin;text-decoration:underline">&gt; <tspan x="20.56" y="0" style="letter-spacing:-0.008484313056498244em">G</tspan><tspan x="38.31" y="0">uidan</tspan><tspan x="97.63" y="0" style="letter-spacing:-0.008985749998371664em">c</tspan><tspan x="109.15" y="0">e</tspan></text></g><rect x="655.73" y="259.36" width="25.67" height="3.21" style="fill:#d0d0d0"/><rect x="655.73" y="252.4" width="25.67" height="3.21" style="fill:#d0d0d0"/><rect x="655.73" y="245.43" width="25.67" height="3.21" style="fill:#d0d0d0"/></g></g><g id="_300" data-name=" 300"><g id="_300px" data-name=" 300px"><g id="_300px_grid" data-name=" 300px grid"><rect x="778.38" y="0.92" width="10" height="67.16" style="fill:#bbe2f3;opacity:0.699999988079071;isolation:isolate"/><rect x="804.38" y="0.92" width="10" height="67.16" style="fill:#bbe2f3;opacity:0.699999988079071;isolation:isolate"/><rect x="830.38" y="0.92" width="10" height="67.16" style="fill:#bbe2f3;opacity:0.699999988079071;isolation:isolate"/><rect x="856.38" y="0.92" width="10" height="67.16" style="fill:#bbe2f3;opacity:0.699999988079071;isolation:isolate"/><rect x="882.38" y="0.92" width="10" height="67.16" style="fill:#bbe2f3;opacity:0.699999988079071;isolation:isolate"/><rect x="908.38" y="0.92" width="10" height="67.16" style="fill:#bbe2f3;opacity:0.699999988079071;isolation:isolate"/><rect x="934.38" y="0.92" width="10" height="67.16" style="fill:#bbe2f3;opacity:0.699999988079071;isolation:isolate"/><rect x="960.38" y="0.92" width="10" height="67.16" style="fill:#bbe2f3;opacity:0.699999988079071;isolation:isolate"/><rect x="986.38" y="0.92" width="10" height="67.16" style="fill:#bbe2f3;opacity:0.699999988079071;isolation:isolate"/><rect x="1012.38" y="0.92" width="10" height="67.16" style="fill:#bbe2f3;opacity:0.699999988079071;isolation:isolate"/><rect x="1038.38" y="0.92" width="10" height="67.16" style="fill:#bbe2f3;opacity:0.699999988079071;isolation:isolate"/><rect x="1064.38" y="0.92" width="10" height="67.16" style="fill:#bbe2f3;opacity:0.699999988079071;isolation:isolate"/><rect x="866.38" y="0.92" width="16" height="80.37" style="fill:#0f8243;opacity:0.6000000238418579;isolation:isolate"/></g><g id="_300px_grid_BG" data-name=" 300px grid BG" style="opacity:0.20000000298023224"><rect x="778.38" y="68.08" width="10" height="979.38" style="fill:#bbe2f3;opacity:0.699999988079071;isolation:isolate"/><rect x="804.38" y="68.08" width="10" height="979.38" style="fill:#bbe2f3;opacity:0.699999988079071;isolation:isolate"/><rect x="830.38" y="68.08" width="10" height="979.38" style="fill:#bbe2f3;opacity:0.699999988079071;isolation:isolate"/><rect x="856.38" y="68.08" width="10" height="979.38" style="fill:#bbe2f3;opacity:0.699999988079071;isolation:isolate"/><rect x="882.38" y="68.08" width="10" height="979.38" style="fill:#bbe2f3;opacity:0.699999988079071;isolation:isolate"/><rect x="908.38" y="68.08" width="10" height="979.38" style="fill:#bbe2f3;opacity:0.699999988079071;isolation:isolate"/><rect x="934.38" y="68.08" width="10" height="979.38" style="fill:#bbe2f3;opacity:0.699999988079071;isolation:isolate"/><rect x="960.38" y="68.08" width="10" height="979.38" style="fill:#bbe2f3;opacity:0.699999988079071;isolation:isolate"/><rect x="986.38" y="68.08" width="10" height="979.38" style="fill:#bbe2f3;opacity:0.699999988079071;isolation:isolate"/><rect x="1012.38" y="68.08" width="10" height="979.38" style="fill:#bbe2f3;opacity:0.699999988079071;isolation:isolate"/><rect x="1038.38" y="68.08" width="10" height="979.38" style="fill:#bbe2f3;opacity:0.699999988079071;isolation:isolate"/><rect x="1064.38" y="68.08" width="10" height="979.38" style="fill:#bbe2f3;opacity:0.699999988079071;isolation:isolate"/></g><g id="_16px_margin_label-2" data-name=" 16px margin label-2"><line x1="877.02" y1="24.63" x2="908.38" y2="24.63" style="fill:none;stroke:#1d1d1b"/><g style="clip-path:url(#clip-path-2)"><path d="M877,27.27a2.64,2.64,0,1,0-2.64-2.64A2.64,2.64,0,0,0,877,27.27h0" style="fill:#1d1d1b"/></g><g style="isolation:isolate"><text transform="translate(925.38 30.49)" style="isolation:isolate;font-size:18px;fill:#222;font-family:LatoLatin-Regular, LatoLatin">16</text><text transform="translate(946.26 30.49)" style="isolation:isolate;font-size:18px;fill:#222;font-family:LatoLatin-Regular, LatoLatin;letter-spacing:-0.028998480902777776em">p</text><text transform="translate(955.66 30.49)" style="isolation:isolate;font-size:18px;fill:#222;font-family:LatoLatin-Regular, LatoLatin">x fi</text><text transform="translate(978.46 30.49)" style="isolation:isolate;font-size:18px;fill:#222;font-family:LatoLatin-Regular, LatoLatin;letter-spacing:-0.028998480902777776em">x</text><text transform="translate(986.99 30.49)" style="isolation:isolate;font-size:18px;fill:#222;font-family:LatoLatin-Regular, LatoLatin">ed ma<tspan x="47.94" y="0" style="letter-spacing:-0.011474609375em">r</tspan><tspan x="54.29" y="0" style="letter-spacing:-0.00002712673611111111em">gin</tspan></text></g></g></g><g id="Layer_5_copy" data-name="Layer 5 copy"><polyline points="1099.12 228.36 1099.12 1047.46 755.07 1047.46 755.07 228.36" style="fill:none;stroke:#d0d0d0;stroke-miterlimit:10"/><path d="M781.07,126.05c.52-1.07,1.06-2.12,1.65-3.14a34.37,34.37,0,0,1-1.65-5.06v8.2m3.2-20.72s-3.2,0-3.2,4v2.1a37.36,37.36,0,0,0,2.32,10.43,33.68,33.68,0,0,1,6.55-7.63c5.18-4.44,12.15-7.51,21.61-8.86Z" style="fill:#a8bd3a"/><path d="M815.14,107.49c-10.83,1-18.22,4.12-23.51,8.65a31.8,31.8,0,0,0-6.94,8.54c4.15,8.06,12.07,14,25.27,14.85h1.29a4,4,0,0,0,4.08-3.92c0-.15,0-.31,0-.46V107.46h-.17m-27.82,23a27.93,27.93,0,0,1-3.22-4.7,50.32,50.32,0,0,0-3,7v6.67h21.63a28.36,28.36,0,0,1-15.4-9.06" style="fill:#013e58"/><path d="M828.39,120.6c-3.31,0-4.79-2.74-4.79-6.12s1.48-6.12,4.79-6.12,4.78,2.78,4.78,6.12-1.47,6.12-4.78,6.12m0-11.28c-2.44,0-3.31,2.67-3.31,5.13s.79,5.07,3.31,5.07,3.29-2.66,3.29-5.07-.85-5.13-3.29-5.13" style="fill:#013e58"/><path d="M837.28,112v8.42h-1.34V112h-1.37v-.82h1.37V109.8a2.69,2.69,0,0,1,2.48-2.9,1.85,1.85,0,0,1,.47,0h.32v.86H839a1.72,1.72,0,0,0-1.78,1.64,1.77,1.77,0,0,0,0,.23v1.49h1.92V112Z" style="fill:#013e58"/><path d="M842.82,112v8.42h-1.34V112h-1.37v-.82h1.37V109.8a2.69,2.69,0,0,1,2.48-2.9,1.85,1.85,0,0,1,.47,0h.32v.86h-.16a1.72,1.72,0,0,0-1.78,1.64,1.77,1.77,0,0,0,0,.23v1.49h1.92V112Z" style="fill:#013e58"/><path d="M847,109.37a.83.83,0,0,1-.85-.81h0a.85.85,0,1,1,1.7,0,.83.83,0,0,1-.84.82h0m-.68,1.77h1.36v9.24h-1.36Z" style="fill:#013e58"/><path d="M853.4,120.6c-2.19,0-3.88-1.89-3.88-4.85s1.69-4.83,3.93-4.83a3.54,3.54,0,0,1,2.25.63l-.35.82a2.72,2.72,0,0,0-1.61-.5c-1.88,0-2.84,1.63-2.84,3.82s1.1,3.87,2.79,3.87a2.91,2.91,0,0,0,1.64-.5l.36.89a3.68,3.68,0,0,1-2.3.63" style="fill:#013e58"/><path d="M857.89,116.32c.17,2.18,1.37,3.28,3.25,3.28a5.34,5.34,0,0,0,2.51-.57l.4.94a6.61,6.61,0,0,1-3,.63c-2.6,0-4.45-1.54-4.45-4.87,0-3.17,1.7-4.82,4-4.82s3.78,1.44,3.78,4.53Zm2.68-4.53c-1.5,0-2.76,1.17-2.74,3.75l5.25-.72c0-2.14-1-3-2.51-3" style="fill:#013e58"/><path d="M873,112v8.42h-1.34V112h-1.37v-.82h1.37V109.8a2.69,2.69,0,0,1,2.48-2.9,1.85,1.85,0,0,1,.47,0h.31v.86h-.16a1.72,1.72,0,0,0-1.77,1.65,1.62,1.62,0,0,0,0,.22v1.49h1.92V112Z" style="fill:#013e58"/><path d="M879.81,120.6c-2.73,0-4-2.11-4-4.83s1.24-4.85,4-4.85,4,2.13,4,4.85-1.23,4.83-4,4.83m0-8.78c-2,0-2.6,2-2.6,3.94s.63,3.86,2.6,3.86,2.6-2,2.6-3.86-.58-3.94-2.6-3.94" style="fill:#013e58"/><path d="M889.59,112a4.18,4.18,0,0,0-2.68.17v8.21h-1.36v-8.83a8.64,8.64,0,0,1,3.69-.63h.69Z" style="fill:#013e58"/><path d="M831.43,139.08,826.2,131a11.89,11.89,0,0,1-.68-1.2h0v9.28H823.8v-11.8h1.94l5,7.59a9.79,9.79,0,0,1,.69,1.22h0s-.06-.67-.06-1.37v-7.44h1.73v11.79Z" style="fill:#013e58"/><path d="M838.77,139.32c-2.71,0-4-1.08-4-2.85,0-2.48,2.6-3.15,5.69-3.43v-.53c0-1.27-.87-1.65-2.13-1.65a6.57,6.57,0,0,0-2.51.53l-.46-1.13a8.69,8.69,0,0,1,3.33-.67c2,0,3.63.84,3.63,3.21v5.84a8.36,8.36,0,0,1-3.56.67m1.7-5.35c-2.29.24-3.82.67-3.82,2.45,0,1.25.88,1.78,2.27,1.78a3.61,3.61,0,0,0,1.55-.31Z" style="fill:#013e58"/><path d="M847.69,139.28a2.4,2.4,0,0,1-2.67-2.1,2.67,2.67,0,0,1,0-.4V131h-1.29v-1.2H845v-2.07l2-.55v2.62h1.8V131H847v5.64a1.2,1.2,0,0,0,1.08,1.29h.18a2.54,2.54,0,0,0,.54-.09v1.22a2.91,2.91,0,0,1-1.09.19" style="fill:#013e58"/><path d="M851.32,128.25a1,1,0,1,1,.3-2,1,1,0,0,1,.85,1,1.1,1.1,0,0,1-1.15,1m-1,1.59h2v9.24h-2Z" style="fill:#013e58"/><path d="M858.24,139.32c-2.82,0-4.22-2.09-4.22-4.85s1.4-4.87,4.22-4.87,4.21,2.11,4.21,4.87-1.39,4.85-4.21,4.85m0-8.45c-1.7,0-2.21,1.78-2.21,3.58s.54,3.51,2.21,3.51,2.21-1.71,2.21-3.51-.5-3.58-2.21-3.58" style="fill:#013e58"/><path d="M869.78,139.08v-6.6c0-1.18-1-1.63-2.14-1.63a4.54,4.54,0,0,0-1.59.27v8h-2v-8.81a9.78,9.78,0,0,1,3.67-.67c2.41,0,4,.82,4,2.84v6.64Z" style="fill:#013e58"/><path d="M877.32,139.32c-2.71,0-4-1.08-4-2.85,0-2.48,2.6-3.15,5.69-3.43v-.53c0-1.27-.87-1.65-2.13-1.65a6.57,6.57,0,0,0-2.51.53l-.46-1.13a8.69,8.69,0,0,1,3.33-.67c2,0,3.63.84,3.63,3.21v5.84a8.36,8.36,0,0,1-3.56.67M879,134c-2.29.24-3.82.67-3.82,2.45,0,1.25.88,1.78,2.27,1.78a3.69,3.69,0,0,0,1.54-.31Z" style="fill:#013e58"/><rect x="882.92" y="125.62" width="1.97" height="13.46" style="fill:#013e58"/><path d="M894.27,139.32a7.1,7.1,0,0,1-3.21-.67l.55-1.44a4.87,4.87,0,0,0,2.27.57,2.09,2.09,0,0,0,2.33-1.81,1.23,1.23,0,0,0,0-.19c0-2.59-4.9-1.59-4.9-5.26a3.62,3.62,0,0,1,3.73-3.51h.18a5.83,5.83,0,0,1,2.84.67l-.5,1.29a4.37,4.37,0,0,0-2.06-.55,1.91,1.91,0,0,0-2.1,1.68,1.21,1.21,0,0,0,0,.19c0,2.54,5,1.44,5,5.35,0,2.09-1.72,3.65-4.13,3.65" style="fill:#013e58"/><path d="M903.4,139.28a2.39,2.39,0,0,1-2.68-2.5V131h-1.29v-1.2h1.29v-2.07l2-.55v2.62h1.8V131h-1.8v5.64a1.18,1.18,0,0,0,1,1.35.88.88,0,0,0,.28,0,1.65,1.65,0,0,0,.54-.09v1.22a2.91,2.91,0,0,1-1.09.19" style="fill:#013e58"/><path d="M909.55,139.32c-2.71,0-4-1.08-4-2.85,0-2.48,2.6-3.15,5.69-3.43v-.53c0-1.27-.87-1.65-2.13-1.65a6.57,6.57,0,0,0-2.51.53l-.46-1.13a8.69,8.69,0,0,1,3.33-.67c2,0,3.63.84,3.63,3.21v5.84a8.36,8.36,0,0,1-3.56.67m1.7-5.35c-2.29.24-3.81.67-3.81,2.45,0,1.25.88,1.78,2.27,1.78a3.69,3.69,0,0,0,1.54-.31Z" style="fill:#013e58"/><path d="M918.47,139.28a2.39,2.39,0,0,1-2.68-2.5V131H914.5v-1.2h1.29v-2.07l2-.55v2.62h1.8V131h-1.8v5.64a1.2,1.2,0,0,0,1,1.35h.2a2.35,2.35,0,0,0,.53-.09v1.22a2.91,2.91,0,0,1-1.09.19" style="fill:#013e58"/><path d="M922.1,128.25a1,1,0,1,1,.3-2,1,1,0,0,1,.85,1,1.1,1.1,0,0,1-1.15,1m-1,1.59h2v9.24h-2Z" style="fill:#013e58"/><path d="M927.4,139.32a5.89,5.89,0,0,1-2.79-.67l.52-1.27a3.91,3.91,0,0,0,2,.55,1.66,1.66,0,0,0,1.81-1.44c0-2.2-4.05-1.17-4.05-4.18a3,3,0,0,1,3.23-2.71,5,5,0,0,1,2.6.67l-.52,1.15a3.1,3.1,0,0,0-1.69-.53,1.49,1.49,0,0,0-1.66,1.32c0,2.06,4.13,1.15,4.13,4.24,0,1.48-1.4,2.88-3.61,2.88" style="fill:#013e58"/><path d="M936,139.28a2.39,2.39,0,0,1-2.68-2.5V131H932v-1.2h1.29v-2.07l2-.55v2.62h1.8V131h-1.8v5.64a1.2,1.2,0,0,0,1.08,1.29h.18a1.65,1.65,0,0,0,.54-.09v1.22a2.91,2.91,0,0,1-1.09.19" style="fill:#013e58"/><path d="M939.65,128.25a1,1,0,0,1,.3-2,1,1,0,0,1,.85,1,1.1,1.1,0,0,1-1.15,1m-1,1.59h2v9.24h-2Z" style="fill:#013e58"/><path d="M946.35,139.32c-2.27,0-4-1.85-4-4.87s1.78-4.85,4-4.85a3.81,3.81,0,0,1,2.36.67l-.44,1.11a2.5,2.5,0,0,0-1.45-.44c-1.61,0-2.44,1.39-2.44,3.46s1,3.5,2.41,3.5a2.5,2.5,0,0,0,1.45-.46l.49,1.22a3.8,3.8,0,0,1-2.4.67" style="fill:#013e58"/><path d="M952.42,139.32a5.89,5.89,0,0,1-2.79-.67l.52-1.27a3.91,3.91,0,0,0,2,.55,1.66,1.66,0,0,0,1.81-1.44c0-2.2-4.05-1.17-4.05-4.18a3,3,0,0,1,3.23-2.71,5,5,0,0,1,2.6.67l-.52,1.15a3.1,3.1,0,0,0-1.69-.53,1.49,1.49,0,0,0-1.66,1.32c0,2.06,4.13,1.15,4.13,4.24,0,1.48-1.4,2.88-3.61,2.88" style="fill:#013e58"/><path d="M781.07,126.05c.52-1.07,1.06-2.12,1.65-3.14a34.37,34.37,0,0,1-1.65-5.06v8.2m3.2-20.72s-3.2,0-3.2,4v2.1a37.36,37.36,0,0,0,2.32,10.43,33.68,33.68,0,0,1,6.55-7.63c5.18-4.44,12.15-7.51,21.61-8.86Z" style="fill:#b2bc35"/><path d="M815.14,107.49c-10.83,1-18.22,4.12-23.51,8.65a31.8,31.8,0,0,0-6.94,8.54c4.15,8.06,12.07,14,25.27,14.85h1.29a4,4,0,0,0,4.08-3.92c0-.15,0-.31,0-.46V107.46h-.17m-27.82,23a27.93,27.93,0,0,1-3.22-4.7,50.32,50.32,0,0,0-3,7v6.67h21.63a28.36,28.36,0,0,1-15.4-9.06" style="fill:#06446a"/><path d="M828.39,120.6c-3.31,0-4.79-2.74-4.79-6.12s1.48-6.12,4.79-6.12,4.78,2.78,4.78,6.12-1.47,6.12-4.78,6.12m0-11.28c-2.44,0-3.31,2.67-3.31,5.13s.79,5.07,3.31,5.07,3.29-2.66,3.29-5.07-.85-5.13-3.29-5.13" style="fill:#06446a"/><path d="M837.28,112v8.42h-1.34V112h-1.37v-.82h1.37V109.8a2.69,2.69,0,0,1,2.48-2.9,1.85,1.85,0,0,1,.47,0h.32v.86H839a1.72,1.72,0,0,0-1.78,1.64,1.77,1.77,0,0,0,0,.23v1.49h1.92V112Z" style="fill:#06446a"/><path d="M842.82,112v8.42h-1.34V112h-1.37v-.82h1.37V109.8a2.69,2.69,0,0,1,2.48-2.9,1.85,1.85,0,0,1,.47,0h.32v.86h-.16a1.72,1.72,0,0,0-1.78,1.64,1.77,1.77,0,0,0,0,.23v1.49h1.92V112Z" style="fill:#06446a"/><path d="M847,109.37a.83.83,0,0,1-.85-.81h0a.85.85,0,1,1,1.7,0,.83.83,0,0,1-.84.82h0m-.68,1.77h1.36v9.24h-1.36Z" style="fill:#06446a"/><path d="M853.4,120.6c-2.19,0-3.88-1.89-3.88-4.85s1.69-4.83,3.93-4.83a3.54,3.54,0,0,1,2.25.63l-.35.82a2.72,2.72,0,0,0-1.61-.5c-1.88,0-2.84,1.63-2.84,3.82s1.1,3.87,2.79,3.87a2.91,2.91,0,0,0,1.64-.5l.36.89a3.68,3.68,0,0,1-2.3.63" style="fill:#06446a"/><path d="M857.89,116.32c.17,2.18,1.37,3.28,3.25,3.28a5.34,5.34,0,0,0,2.51-.57l.4.94a6.61,6.61,0,0,1-3,.63c-2.6,0-4.45-1.54-4.45-4.87,0-3.17,1.7-4.82,4-4.82s3.78,1.44,3.78,4.53Zm2.68-4.53c-1.5,0-2.76,1.17-2.74,3.75l5.25-.72c0-2.14-1-3-2.51-3" style="fill:#06446a"/><path d="M873,112v8.42h-1.34V112h-1.37v-.82h1.37V109.8a2.69,2.69,0,0,1,2.48-2.9,1.85,1.85,0,0,1,.47,0h.31v.86h-.16a1.72,1.72,0,0,0-1.77,1.65,1.62,1.62,0,0,0,0,.22v1.49h1.92V112Z" style="fill:#06446a"/><path d="M879.81,120.6c-2.73,0-4-2.11-4-4.83s1.24-4.85,4-4.85,4,2.13,4,4.85-1.23,4.83-4,4.83m0-8.78c-2,0-2.6,2-2.6,3.94s.63,3.86,2.6,3.86,2.6-2,2.6-3.86-.58-3.94-2.6-3.94" style="fill:#06446a"/><path d="M889.59,112a4.18,4.18,0,0,0-2.68.17v8.21h-1.36v-8.83a8.64,8.64,0,0,1,3.69-.63h.69Z" style="fill:#06446a"/><path d="M831.43,139.08,826.2,131a11.89,11.89,0,0,1-.68-1.2h0v9.28H823.8v-11.8h1.94l5,7.59a9.79,9.79,0,0,1,.69,1.22h0s-.06-.67-.06-1.37v-7.44h1.73v11.79Z" style="fill:#06446a"/><path d="M838.77,139.32c-2.71,0-4-1.08-4-2.85,0-2.48,2.6-3.15,5.69-3.43v-.53c0-1.27-.87-1.65-2.13-1.65a6.57,6.57,0,0,0-2.51.53l-.46-1.13a8.69,8.69,0,0,1,3.33-.67c2,0,3.63.84,3.63,3.21v5.84a8.36,8.36,0,0,1-3.56.67m1.7-5.35c-2.29.24-3.82.67-3.82,2.45,0,1.25.88,1.78,2.27,1.78a3.61,3.61,0,0,0,1.55-.31Z" style="fill:#06446a"/><path d="M847.69,139.28a2.4,2.4,0,0,1-2.67-2.1,2.67,2.67,0,0,1,0-.4V131h-1.29v-1.2H845v-2.07l2-.55v2.62h1.8V131H847v5.64a1.2,1.2,0,0,0,1.08,1.29h.18a2.54,2.54,0,0,0,.54-.09v1.22a2.91,2.91,0,0,1-1.09.19" style="fill:#06446a"/><path d="M851.32,128.25a1,1,0,1,1,.3-2,1,1,0,0,1,.85,1,1.1,1.1,0,0,1-1.15,1m-1,1.59h2v9.24h-2Z" style="fill:#06446a"/><path d="M858.24,139.32c-2.82,0-4.22-2.09-4.22-4.85s1.4-4.87,4.22-4.87,4.21,2.11,4.21,4.87-1.39,4.85-4.21,4.85m0-8.45c-1.7,0-2.21,1.78-2.21,3.58s.54,3.51,2.21,3.51,2.21-1.71,2.21-3.51-.5-3.58-2.21-3.58" style="fill:#06446a"/><path d="M869.78,139.08v-6.6c0-1.18-1-1.63-2.14-1.63a4.54,4.54,0,0,0-1.59.27v8h-2v-8.81a9.78,9.78,0,0,1,3.67-.67c2.41,0,4,.82,4,2.84v6.64Z" style="fill:#06446a"/><path d="M877.32,139.32c-2.71,0-4-1.08-4-2.85,0-2.48,2.6-3.15,5.69-3.43v-.53c0-1.27-.87-1.65-2.13-1.65a6.57,6.57,0,0,0-2.51.53l-.46-1.13a8.69,8.69,0,0,1,3.33-.67c2,0,3.63.84,3.63,3.21v5.84a8.36,8.36,0,0,1-3.56.67M879,134c-2.29.24-3.82.67-3.82,2.45,0,1.25.88,1.78,2.27,1.78a3.69,3.69,0,0,0,1.54-.31Z" style="fill:#06446a"/><rect x="882.92" y="125.62" width="1.97" height="13.46" style="fill:#06446a"/><path d="M894.27,139.32a7.1,7.1,0,0,1-3.21-.67l.55-1.44a4.87,4.87,0,0,0,2.27.57,2.09,2.09,0,0,0,2.33-1.81,1.23,1.23,0,0,0,0-.19c0-2.59-4.9-1.59-4.9-5.26a3.62,3.62,0,0,1,3.73-3.51h.18a5.83,5.83,0,0,1,2.84.67l-.5,1.29a4.37,4.37,0,0,0-2.06-.55,1.91,1.91,0,0,0-2.1,1.68,1.21,1.21,0,0,0,0,.19c0,2.54,5,1.44,5,5.35,0,2.09-1.72,3.65-4.13,3.65" style="fill:#06446a"/><path d="M903.4,139.28a2.39,2.39,0,0,1-2.68-2.5V131h-1.29v-1.2h1.29v-2.07l2-.55v2.62h1.8V131h-1.8v5.64a1.18,1.18,0,0,0,1,1.35.88.88,0,0,0,.28,0,1.65,1.65,0,0,0,.54-.09v1.22a2.91,2.91,0,0,1-1.09.19" style="fill:#06446a"/><path d="M909.55,139.32c-2.71,0-4-1.08-4-2.85,0-2.48,2.6-3.15,5.69-3.43v-.53c0-1.27-.87-1.65-2.13-1.65a6.57,6.57,0,0,0-2.51.53l-.46-1.13a8.69,8.69,0,0,1,3.33-.67c2,0,3.63.84,3.63,3.21v5.84a8.36,8.36,0,0,1-3.56.67m1.7-5.35c-2.29.24-3.81.67-3.81,2.45,0,1.25.88,1.78,2.27,1.78a3.69,3.69,0,0,0,1.54-.31Z" style="fill:#06446a"/><path d="M918.47,139.28a2.39,2.39,0,0,1-2.68-2.5V131H914.5v-1.2h1.29v-2.07l2-.55v2.62h1.8V131h-1.8v5.64a1.2,1.2,0,0,0,1,1.35h.2a2.35,2.35,0,0,0,.53-.09v1.22a2.91,2.91,0,0,1-1.09.19" style="fill:#06446a"/><path d="M922.1,128.25a1,1,0,1,1,.3-2,1,1,0,0,1,.85,1,1.1,1.1,0,0,1-1.15,1m-1,1.59h2v9.24h-2Z" style="fill:#06446a"/><path d="M927.4,139.32a5.89,5.89,0,0,1-2.79-.67l.52-1.27a3.91,3.91,0,0,0,2,.55,1.66,1.66,0,0,0,1.81-1.44c0-2.2-4.05-1.17-4.05-4.18a3,3,0,0,1,3.23-2.71,5,5,0,0,1,2.6.67l-.52,1.15a3.1,3.1,0,0,0-1.69-.53,1.49,1.49,0,0,0-1.66,1.32c0,2.06,4.13,1.15,4.13,4.24,0,1.48-1.4,2.88-3.61,2.88" style="fill:#06446a"/><path d="M936,139.28a2.39,2.39,0,0,1-2.68-2.5V131H932v-1.2h1.29v-2.07l2-.55v2.62h1.8V131h-1.8v5.64a1.2,1.2,0,0,0,1.08,1.29h.18a1.65,1.65,0,0,0,.54-.09v1.22a2.91,2.91,0,0,1-1.09.19" style="fill:#06446a"/><path d="M939.65,128.25a1,1,0,0,1,.3-2,1,1,0,0,1,.85,1,1.1,1.1,0,0,1-1.15,1m-1,1.59h2v9.24h-2Z" style="fill:#06446a"/><path d="M946.35,139.32c-2.27,0-4-1.85-4-4.87s1.78-4.85,4-4.85a3.81,3.81,0,0,1,2.36.67l-.44,1.11a2.5,2.5,0,0,0-1.45-.44c-1.61,0-2.44,1.39-2.44,3.46s1,3.5,2.41,3.5a2.5,2.5,0,0,0,1.45-.46l.49,1.22a3.8,3.8,0,0,1-2.4.67" style="fill:#06446a"/><path d="M952.42,139.32a5.89,5.89,0,0,1-2.79-.67l.52-1.27a3.91,3.91,0,0,0,2,.55,1.66,1.66,0,0,0,1.81-1.44c0-2.2-4.05-1.17-4.05-4.18a3,3,0,0,1,3.23-2.71,5,5,0,0,1,2.6.67l-.52,1.15a3.1,3.1,0,0,0-1.69-.53,1.49,1.49,0,0,0-1.66,1.32c0,2.06,4.13,1.15,4.13,4.24,0,1.48-1.4,2.88-3.61,2.88" style="fill:#06446a"/><rect x="755.07" y="68.08" width="344.05" height="160.28" style="fill:none;stroke:#d0d0d0;stroke-miterlimit:10"/><rect x="782.03" y="157.67" width="277.84" height="13.36" style="fill:#d0d0d0"/><rect x="782.03" y="185.53" width="138.92" height="13.36" style="fill:#d0d0d0"/><g id="Content-2"><g style="isolation:isolate"><text transform="translate(781.07 305.92) scale(0.99 1)" style="isolation:isolate;font-size:32.61000061035156px;font-family:LatoLatin-Regular, LatoLatin"><tspan style="letter-spacing:-0.009982239316310695em">S</tspan><tspan x="17.37" y="0">u</tspan><tspan x="35.54" y="0" style="letter-spacing:-0.02099295177430189em">r</tspan></text><text transform="translate(830.62 305.92) scale(0.99 1)" style="isolation:isolate;font-size:32.61000061035156px;font-family:LatoLatin-Regular, LatoLatin;letter-spacing:-0.034000112095555216em">v<tspan x="15.72" y="0" style="letter-spacing:-0.019994727842670815em">e</tspan></text><text transform="translate(864.75 305.92) scale(0.99 1)" style="isolation:isolate;font-size:32.61000061035156px;font-family:LatoLatin-Regular, LatoLatin"><tspan style="letter-spacing:-0.02447161092998592em">y</tspan><tspan x="16.01" y="0" xml:space="preserve"> title</tspan></text></g><rect x="779.78" y="342.4" width="293.85" height="13.36" style="fill:#d0d0d0"/><rect x="779.78" y="370.26" width="146.92" height="13.36" style="fill:#d0d0d0"/><rect x="779.53" y="415.83" width="293.85" height="13.36" style="fill:#d0d0d0"/><rect x="779.53" y="443.69" width="146.92" height="13.36" style="fill:#d0d0d0"/><line x1="779.53" y1="510.62" x2="1073.38" y2="510.62" style="fill:none;stroke:#d0d0d0;stroke-miterlimit:10"/><text transform="translate(780.47 609.28) scale(0.99 1)" style="isolation:isolate;font-size:25.6200008392334px;font-family:LatoLatin-Regular, LatoLatin">1. <tspan x="27.46" y="0" style="letter-spacing:-0.0030031727016878976em">S</tspan><tspan x="41.29" y="0" style="letter-spacing:0.00003850221412420382em">ection title</tspan></text><rect x="779.95" y="635.28" width="293.67" height="13.36" style="fill:#d0d0d0"/><rect x="779.95" y="663.14" width="146.84" height="13.36" style="fill:#d0d0d0"/><rect x="779.95" y="778.37" width="293.67" height="13.36" style="fill:#d0d0d0"/><rect x="779.95" y="806.22" width="146.84" height="13.36" style="fill:#d0d0d0"/><text transform="translate(779.53 750.59) scale(0.99 1)" style="isolation:isolate;font-size:23.290000915527344px;font-family:LatoLatin-Regular, LatoLatin">1.1 <tspan x="38.47" y="0" style="letter-spacing:-0.007496673651072014em">Q</tspan><tspan x="56.94" y="0" style="letter-spacing:-0.00004235408842413568em">uestion title</tspan></text><text transform="translate(780.47 885.4) scale(0.99 1)" style="isolation:isolate;font-size:20.959999084472656px;font-family:LatoLatin-Regular, LatoLatin">Label</text><rect x="779.96" y="900.41" width="293.42" height="62.3" style="fill:none;stroke:#d0d0d0;stroke-miterlimit:10"/><text transform="translate(779.53 999.22) scale(0.99 1)" style="font-size:18.6299991607666px;font-family:LatoLatin-Regular, LatoLatin;text-decoration:underline">&gt; <tspan x="15.57" y="0" style="letter-spacing:-0.008471727773358466em">G</tspan><tspan x="29.03" y="0">uidan</tspan><tspan x="73.97" y="0" style="letter-spacing:-0.008948262460609879em">c</tspan><tspan x="82.7" y="0">e</tspan></text></g><rect x="1045.72" y="264.31" width="27.9" height="3.49" style="fill:#d0d0d0"/><rect x="1045.72" y="256.74" width="27.9" height="3.49" style="fill:#d0d0d0"/><rect x="1045.72" y="249.17" width="27.9" height="3.49" style="fill:#d0d0d0"/></g></g></svg>
