<?xml version="1.0" encoding="UTF-8" standalone="no"?>
<svg width="947px" height="486px" viewBox="0 0 947 486" version="1.1" xmlns="http://www.w3.org/2000/svg" xmlns:xlink="http://www.w3.org/1999/xlink">
    <!-- Generator: Sketch 41.2 (35397) - http://www.bohemiancoding.com/sketch -->
    <title>Group</title>
    <desc>Created with Sketch.</desc>
    <defs>
        <polygon id="path-1" points="0.436 479.937 531.611 479.937 531.611 0.881 0.436 0.881"></polygon>
        <polygon id="path-3" points="0.436 479.937 531.611 479.937 531.611 0.881 0.436 0.881"></polygon>
        <polygon id="path-5" points="0.436 479.937 531.611 479.937 531.611 0.881 0.436 0.881"></polygon>
        <polygon id="path-7" points="0.436 479.937 531.611 479.937 531.611 0.881 0.436 0.881"></polygon>
        <polygon id="path-9" points="0.436 479.937 531.611 479.937 531.611 0.881 0.436 0.881"></polygon>
        <polygon id="path-11" points="0.436 479.937 531.611 479.937 531.611 0.881 0.436 0.881"></polygon>
        <polygon id="path-13" points="0.436 479.937 531.611 479.937 531.611 0.881 0.436 0.881"></polygon>
        <polygon id="path-15" points="0.436 479.937 531.611 479.937 531.611 0.881 0.436 0.881"></polygon>
        <polygon id="path-17" points="0.436 479.937 531.611 479.937 531.611 0.881 0.436 0.881"></polygon>
        <polygon id="path-19" points="0.436 479.937 531.611 479.937 531.611 0.881 0.436 0.881"></polygon>
        <polygon id="path-21" points="0.436 479.937 531.611 479.937 531.611 0.881 0.436 0.881"></polygon>
        <polygon id="path-23" points="0.436 479.937 531.611 479.937 531.611 0.881 0.436 0.881"></polygon>
        <polygon id="path-25" points="0.436 479.937 531.611 479.937 531.611 0.881 0.436 0.881"></polygon>
        <polygon id="path-27" points="0.436 479.937 531.611 479.937 531.611 0.881 0.436 0.881"></polygon>
        <polygon id="path-29" points="0.436 479.937 531.611 479.937 531.611 0.881 0.436 0.881"></polygon>
        <polygon id="path-31" points="0.436 479.937 531.611 479.937 531.611 0.881 0.436 0.881"></polygon>
        <polygon id="path-33" points="0.436 479.937 531.611 479.937 531.611 0.881 0.436 0.881"></polygon>
        <polygon id="path-35" points="0.436 479.937 531.611 479.937 531.611 0.881 0.436 0.881"></polygon>
        <polygon id="path-37" points="0.436 479.937 531.611 479.937 531.611 0.881 0.436 0.881"></polygon>
        <polygon id="path-39" points="0.436 479.937 531.611 479.937 531.611 0.881 0.436 0.881"></polygon>
        <polygon id="path-41" points="0.436 479.937 531.611 479.937 531.611 0.881 0.436 0.881"></polygon>
        <polygon id="path-43" points="0.436 479.937 531.611 479.937 531.611 0.881 0.436 0.881"></polygon>
        <polygon id="path-45" points="0.436 479.937 531.611 479.937 531.611 0.881 0.436 0.881"></polygon>
        <polygon id="path-47" points="0.436 479.937 531.611 479.937 531.611 0.881 0.436 0.881"></polygon>
        <polygon id="path-49" points="0.436 479.937 531.611 479.937 531.611 0.881 0.436 0.881"></polygon>
        <polygon id="path-51" points="0.436 479.937 531.611 479.937 531.611 0.881 0.436 0.881"></polygon>
        <polygon id="path-53" points="0.436 479.937 531.611 479.937 531.611 0.881 0.436 0.881"></polygon>
        <polygon id="path-55" points="0.436 479.937 531.611 479.937 531.611 0.881 0.436 0.881"></polygon>
        <polygon id="path-57" points="0.436 479.937 531.611 479.937 531.611 0.881 0.436 0.881"></polygon>
        <polygon id="path-59" points="0.436 479.937 531.611 479.937 531.611 0.881 0.436 0.881"></polygon>
        <polygon id="path-61" points="0.436 479.937 531.611 479.937 531.611 0.881 0.436 0.881"></polygon>
        <polygon id="path-63" points="0.436 479.937 531.611 479.937 531.611 0.881 0.436 0.881"></polygon>
        <polygon id="path-65" points="0.436 479.937 531.611 479.937 531.611 0.881 0.436 0.881"></polygon>
        <polygon id="path-67" points="0.436 479.937 531.611 479.937 531.611 0.881 0.436 0.881"></polygon>
        <polygon id="path-69" points="0.436 479.937 531.611 479.937 531.611 0.881 0.436 0.881"></polygon>
        <polygon id="path-71" points="0.436 479.937 531.611 479.937 531.611 0.881 0.436 0.881"></polygon>
        <polygon id="path-73" points="0.436 479.937 531.611 479.937 531.611 0.881 0.436 0.881"></polygon>
        <polygon id="path-75" points="0.436 479.937 531.611 479.937 531.611 0.881 0.436 0.881"></polygon>
        <polygon id="path-77" points="0.436 479.937 531.611 479.937 531.611 0.881 0.436 0.881"></polygon>
        <polygon id="path-79" points="0.436 479.937 531.611 479.937 531.611 0.881 0.436 0.881"></polygon>
        <polygon id="path-81" points="0.436 479.937 531.611 479.937 531.611 0.881 0.436 0.881"></polygon>
        <polygon id="path-83" points="0.436 479.937 531.611 479.937 531.611 0.881 0.436 0.881"></polygon>
        <polygon id="path-85" points="0.436 479.937 531.611 479.937 531.611 0.881 0.436 0.881"></polygon>
        <polygon id="path-87" points="0.436 479.937 531.611 479.937 531.611 0.881 0.436 0.881"></polygon>
        <polygon id="path-89" points="0.436 479.937 531.611 479.937 531.611 0.881 0.436 0.881"></polygon>
        <polygon id="path-91" points="0.436 479.937 531.611 479.937 531.611 0.881 0.436 0.881"></polygon>
        <polygon id="path-93" points="0.436 479.937 531.611 479.937 531.611 0.881 0.436 0.881"></polygon>
        <polygon id="path-95" points="0.436 479.937 531.611 479.937 531.611 0.881 0.436 0.881"></polygon>
        <polygon id="path-97" points="0.436 479.937 531.611 479.937 531.611 0.881 0.436 0.881"></polygon>
        <polygon id="path-99" points="0.436 479.937 531.611 479.937 531.611 0.881 0.436 0.881"></polygon>
        <polygon id="path-101" points="0.436 479.937 531.611 479.937 531.611 0.881 0.436 0.881"></polygon>
        <polygon id="path-103" points="0.436 479.937 531.611 479.937 531.611 0.881 0.436 0.881"></polygon>
        <polygon id="path-105" points="0.436 479.937 531.611 479.937 531.611 0.881 0.436 0.881"></polygon>
        <polygon id="path-107" points="0.436 479.937 531.611 479.937 531.611 0.881 0.436 0.881"></polygon>
        <polygon id="path-109" points="0.436 479.937 531.611 479.937 531.611 0.881 0.436 0.881"></polygon>
        <polygon id="path-111" points="0.436 479.937 531.611 479.937 531.611 0.881 0.436 0.881"></polygon>
    </defs>
    <g id="Page-1" stroke="none" stroke-width="1" fill="none" fill-rule="evenodd">
        <g id="Group" transform="translate(0.000000, -8.000000)">
            <text id="u-fs-xl-(h1)" fill="#1A1918" font-family="Lato-Black, Lato" font-size="36" font-weight="700">
                <tspan x="0.7086" y="36.5687099">u-fs-xl (h1)</tspan>
            </text>
            <text id="Lato-Black,-2rem-/-3" fill="#565A57" font-family="Lato-Bold, Lato" font-size="12" font-weight="bold">
                <tspan x="0.7086" y="59.3516366">Lato Black, 2rem / 36px</tspan>
            </text>
            <text id="u-fs-l-(h2)" fill="#1A1918" font-family="Lato-Regular, Lato" font-size="28" font-weight="normal">
                <tspan x="0.7086" y="99.3516854">u-fs-l (h2)</tspan>
            </text>
            <text id="Lato-Bold,-1.5rem-/" fill="#565A57" font-family="Lato-Bold, Lato" font-size="12" font-weight="bold">
                <tspan x="0.7086" y="120.551637">Lato Bold, 1.5rem / 28px</tspan>
            </text>
            <text id="u-fs-m-(h3)" fill="#1A1918" font-family="Lato-Regular, Lato" font-size="22" font-weight="normal">
                <tspan x="0.7086" y="161.751667">u-fs-m (h3)</tspan>
            </text>
            <text id="Lato-Bold,-1.5rem-/" fill="#565A57" font-family="Lato-Bold, Lato" font-size="12" font-weight="bold">
                <tspan x="0.7086" y="181.751637">Lato Bold, 1.5rem / 22px</tspan>
            </text>
            <text id="V" fill="#1A1918" font-family="Lato-Regular, Lato" font-size="18" font-weight="normal">
                <tspan x="0.7086" y="223.751655">V</tspan>
            </text>
            <text id="enus-(label)" fill="#1A1918" font-family="Lato-Regular, Lato" font-size="18" font-weight="normal">
                <tspan x="10.8076" y="223.751655">enus (label)</tspan>
            </text>
            <text id="Lato-Bold,-1rem-/-18" fill="#565A57" font-family="Lato-Bold, Lato" font-size="12" font-weight="bold">
                <tspan x="0.7086" y="242.951637">Lato Bold, 1rem / 18px</tspan>
            </text>
            <text id="u-fs-r-(body)" fill="#1A1918" font-family="Lato-Bold, Lato" font-size="18" font-weight="bold">
                <tspan x="0.7086" y="284.951655">u-fs-r (body)</tspan>
            </text>
            <text id="Lato-Regula" fill="#565A57" font-family="Lato-Bold, Lato" font-size="12" font-weight="bold">
                <tspan x="0.7086" y="304.151637">Lato Regula</tspan>
            </text>
            <text id="r" fill="#565A57" font-family="Lato-Bold, Lato" font-size="12" font-weight="bold">
                <tspan x="63.9266" y="304.151637">r</tspan>
            </text>
            <text id=",-1rem-/-18px" fill="#565A57" font-family="Lato-Bold, Lato" font-size="12" font-weight="bold">
                <tspan x="67.2306" y="304.151637">, 1rem / 18px</tspan>
            </text>
            <text id="u-fs-s--b-(hint)" fill="#1A1918" font-family="Lato-Regular, Lato" font-size="14" font-weight="normal">
                <tspan x="0.7086" y="333.751643">u-fs-s--b (hint)</tspan>
            </text>
            <text id="Lato-Bold,-0.7rem-/" fill="#565A57" font-family="Lato-Bold, Lato" font-size="12" font-weight="bold">
                <tspan x="0.7086" y="352.151637">Lato Bold, 0.7rem / 14px</tspan>
            </text>
            <text id="u-fs-s-(hint)" fill="#1A1918" font-family="Lato-Bold, Lato" font-size="14" font-weight="bold">
                <tspan x="0.7086" y="381.751643">u-fs-s (hint)</tspan>
            </text>
            <text id="Lato-Regula" fill="#565A57" font-family="Lato-Bold, Lato" font-size="12" font-weight="bold">
                <tspan x="0.7086" y="400.151637">Lato Regula</tspan>
            </text>
            <text id="r" fill="#565A57" font-family="Lato-Bold, Lato" font-size="12" font-weight="bold">
                <tspan x="63.9266" y="400.151637">r</tspan>
            </text>
            <text id=",-0.7rem-/-14px" fill="#565A57" font-family="Lato-Bold, Lato" font-size="12" font-weight="bold">
                <tspan x="67.2306" y="400.151637">, 0.7rem / 14px</tspan>
            </text>
            <g id="Group-72" transform="translate(415.000000, 13.890000)">
                <polygon id="Stroke-3" stroke="#BDBEBA" stroke-width="1.082" points="531.0703 66.3325 531.0703 479.3965 0.9773 479.3965 0.9773 66.3325"></polygon>
                <path d="M36.5793,21.2225 C36.5793,21.2225 34.5573,21.2175 34.5573,23.7255 L34.5573,25.0565 C34.7503,27.3525 35.2203,29.5865 36.0243,31.6535 C37.1573,29.8655 38.5133,28.2405 40.1683,26.8255 C43.4453,24.0195 47.8573,22.0765 53.8443,21.2225 L36.5793,21.2225 Z M34.5533,34.3335 C34.8793,33.6545 35.2223,32.9895 35.5983,32.3495 C35.1673,31.3185 34.8243,30.2445 34.5543,29.1455 C34.5533,30.9365 34.5533,32.8415 34.5533,34.3335 L34.5533,34.3335 Z" id="Fill-5" fill="#98B74D"></path>
                <path d="M38.5002,37.1169 C37.7122,36.1949 37.0382,35.1969 36.4622,34.1439 C35.7282,35.5319 35.1052,37.0249 34.5582,38.6029 L34.5582,42.8239 L48.2442,42.8489 C43.9752,41.8229 40.7772,39.7859 38.5002,37.1169 M56.1032,22.5909 C49.2542,23.2439 44.5782,25.1989 41.2272,28.0619 C39.4292,29.5989 38.0052,31.4149 36.8362,33.4629 C39.4642,38.5629 44.4732,42.3099 52.8282,42.8569 L53.6412,42.8589 C53.6412,42.8589 56.2092,42.9449 56.2092,40.0889 L56.2092,22.5699 C56.1762,22.5779 56.1402,22.5869 56.1032,22.5909" id="Fill-7" fill="#103546"></path>
                <path d="M64.4899,23.7502 C62.9429,23.7502 62.3959,25.4422 62.3959,26.9932 C62.3959,28.5232 62.8939,30.2042 64.4899,30.2042 C66.0949,30.2042 66.5749,28.5232 66.5749,26.9932 C66.5749,25.4422 66.0359,23.7502 64.4899,23.7502 M64.4899,30.8872 C62.3959,30.8872 61.4579,29.1522 61.4579,27.0152 C61.4579,24.9002 62.3959,23.1422 64.4899,23.1422 C66.5839,23.1422 67.5119,24.9002 67.5119,27.0152 C67.5119,29.1522 66.5839,30.8872 64.4899,30.8872" id="Fill-9" fill="#103546"></path>
                <path d="M70.1167,25.4203 L70.1167,30.7463 L69.2687,30.7463 L69.2687,25.4203 L68.4017,25.4203 L68.4017,24.9003 L69.2687,24.9003 L69.2687,24.0543 C69.2687,22.9903 69.8967,22.2203 71.1347,22.2203 C71.2237,22.2203 71.3337,22.2313 71.3337,22.2313 L71.3337,22.7743 L71.2337,22.7743 C70.6457,22.7743 70.1167,23.1533 70.1167,23.9563 L70.1167,24.9003 L71.3337,24.9003 L71.3337,25.4203 L70.1167,25.4203 Z" id="Fill-11" fill="#103546"></path>
                <path d="M73.6188,25.4203 L73.6188,30.7463 L72.7708,30.7463 L72.7708,25.4203 L71.9028,25.4203 L71.9028,24.9003 L72.7708,24.9003 L72.7708,24.0543 C72.7708,22.9903 73.3998,22.2203 74.6368,22.2203 C74.7268,22.2203 74.8358,22.2313 74.8358,22.2313 L74.8358,22.7743 L74.7358,22.7743 C74.1478,22.7743 73.6188,23.1533 73.6188,23.9563 L73.6188,24.9003 L74.8358,24.9003 L74.8358,25.4203 L73.6188,25.4203 Z" id="Fill-13" fill="#103546"></path>
                <g id="Fill-15-Clipped">
                    <mask id="mask-2" fill="white">
                        <use xlink:href="#path-1"></use>
                    </mask>
                    <g id="path-1"></g>
                    <path d="M75.804,30.747 L76.662,30.747 L76.662,24.901 L75.804,24.901 L75.804,30.747 Z M76.233,23.783 C75.934,23.783 75.695,23.555 75.695,23.261 C75.695,22.969 75.934,22.731 76.233,22.731 C76.533,22.731 76.772,22.969 76.772,23.261 C76.772,23.555 76.533,23.783 76.233,23.783 L76.233,23.783 Z" id="Fill-15" fill="#103546" mask="url(#mask-2)"></path>
                </g>
                <g id="Fill-17-Clipped">
                    <mask id="mask-4" fill="white">
                        <use xlink:href="#path-3"></use>
                    </mask>
                    <g id="path-1"></g>
                    <path d="M80.314,30.8873 C78.927,30.8873 77.859,29.6943 77.859,27.8183 C77.859,25.9083 78.927,24.7593 80.343,24.7593 C81.052,24.7593 81.52,24.9533 81.77,25.1603 L81.551,25.6803 C81.36,25.5403 81.002,25.3663 80.533,25.3663 C79.346,25.3663 78.738,26.3963 78.738,27.7843 C78.738,29.2173 79.436,30.2363 80.503,30.2363 C80.942,30.2363 81.301,30.0843 81.541,29.9213 L81.77,30.4863 C81.52,30.6913 81.022,30.8873 80.314,30.8873" id="Fill-17" fill="#103546" mask="url(#mask-4)"></path>
                </g>
                <g id="Fill-18-Clipped">
                    <mask id="mask-6" fill="white">
                        <use xlink:href="#path-5"></use>
                    </mask>
                    <g id="path-1"></g>
                    <path d="M84.8528,25.3119 C83.9048,25.3119 83.1078,26.0499 83.1178,27.6879 L86.4388,27.2319 C86.4388,25.8759 85.7908,25.3119 84.8528,25.3119 L84.8528,25.3119 Z M83.1578,28.1759 C83.2668,29.5529 84.0248,30.2469 85.2118,30.2469 C85.9298,30.2469 86.4788,30.0629 86.7978,29.8889 L87.0478,30.4859 C86.6778,30.6919 85.9898,30.8879 85.1528,30.8879 C83.5068,30.8879 82.3398,29.9109 82.3398,27.8069 C82.3398,25.8009 83.4158,24.7589 84.8828,24.7589 C86.3688,24.7589 87.2758,25.6699 87.2758,27.6229 L83.1578,28.1759 Z" id="Fill-18" fill="#103546" mask="url(#mask-6)"></path>
                </g>
                <g id="Fill-19-Clipped">
                    <mask id="mask-8" fill="white">
                        <use xlink:href="#path-7"></use>
                    </mask>
                    <g id="path-1"></g>
                    <path d="M92.7051,25.4203 L92.7051,30.7463 L91.8571,30.7463 L91.8571,25.4203 L90.9891,25.4203 L90.9891,24.9003 L91.8571,24.9003 L91.8571,24.0543 C91.8571,22.9903 92.4851,22.2203 93.7231,22.2203 C93.8121,22.2203 93.9221,22.2313 93.9221,22.2313 L93.9221,22.7743 L93.8211,22.7743 C93.2341,22.7743 92.7051,23.1533 92.7051,23.9563 L92.7051,24.9003 L93.9221,24.9003 L93.9221,25.4203 L92.7051,25.4203 Z" id="Fill-19" fill="#103546" mask="url(#mask-8)"></path>
                </g>
                <g id="Fill-20-Clipped">
                    <mask id="mask-10" fill="white">
                        <use xlink:href="#path-9"></use>
                    </mask>
                    <g id="path-1"></g>
                    <path d="M97.0243,25.3333 C95.7473,25.3333 95.3783,26.6253 95.3783,27.8283 C95.3783,29.0323 95.7783,30.2683 97.0243,30.2683 C98.3023,30.2683 98.6703,29.0323 98.6703,27.8283 C98.6703,26.6253 98.3023,25.3333 97.0243,25.3333 M97.0243,30.8873 C95.2993,30.8873 94.5113,29.5533 94.5113,27.8283 C94.5113,26.1033 95.2993,24.7593 97.0243,24.7593 C98.7503,24.7593 99.5283,26.1033 99.5283,27.8283 C99.5283,29.5533 98.7503,30.8873 97.0243,30.8873" id="Fill-20" fill="#103546" mask="url(#mask-10)"></path>
                </g>
                <g id="Fill-21-Clipped">
                    <mask id="mask-12" fill="white">
                        <use xlink:href="#path-11"></use>
                    </mask>
                    <g id="path-1"></g>
                    <path d="M103.2105,25.4425 C102.6715,25.3015 101.8835,25.3225 101.5145,25.5505 L101.5145,30.7465 L100.6565,30.7465 L100.6565,25.1605 C101.2745,24.9005 101.8935,24.7585 102.9895,24.7585 C103.1405,24.7585 103.3395,24.7585 103.4295,24.7695 L103.2105,25.4425 Z" id="Fill-21" fill="#103546" mask="url(#mask-12)"></path>
                </g>
                <g id="Fill-22-Clipped">
                    <mask id="mask-14" fill="white">
                        <use xlink:href="#path-13"></use>
                    </mask>
                    <g id="path-1"></g>
                    <path d="M66.4147,42.5768 L63.1037,37.4678 C62.8537,37.0888 62.6747,36.7088 62.6747,36.7088 L62.6547,36.7088 C62.6547,36.7088 62.6847,37.1428 62.6847,37.5978 L62.6847,42.5768 L61.5977,42.5768 L61.5977,35.1148 L62.8237,35.1148 L65.9657,39.9188 C66.2447,40.3428 66.4047,40.6898 66.4047,40.6898 L66.4257,40.6898 C66.4257,40.6898 66.3847,40.2668 66.3847,39.8218 L66.3847,35.1148 L67.4827,35.1148 L67.4827,42.5768 L66.4147,42.5768 Z" id="Fill-22" fill="#103546" mask="url(#mask-14)"></path>
                </g>
                <g id="Fill-23-Clipped">
                    <mask id="mask-16" fill="white">
                        <use xlink:href="#path-15"></use>
                    </mask>
                    <g id="path-1"></g>
                    <path d="M72.1318,39.3444 C70.6858,39.4954 69.7178,39.7674 69.7178,40.8954 C69.7178,41.6864 70.2768,42.0244 71.1538,42.0244 C71.5638,42.0244 71.9118,41.9364 72.1318,41.8284 L72.1318,39.3444 Z M71.0548,42.7284 C69.3398,42.7284 68.5318,42.0454 68.5318,40.9274 C68.5318,39.3554 70.1768,38.9324 72.1318,38.7594 L72.1318,38.4224 C72.1318,37.6204 71.5838,37.3814 70.7848,37.3814 C70.2168,37.3814 69.5688,37.5444 69.1988,37.7174 L68.9098,37.0014 C69.3188,36.8284 70.0868,36.5784 71.0148,36.5784 C72.3118,36.5784 73.3088,37.1094 73.3088,38.6064 L73.3088,42.3054 C72.8098,42.5554 72.0228,42.7284 71.0548,42.7284 L71.0548,42.7284 Z" id="Fill-23" fill="#103546" mask="url(#mask-16)"></path>
                </g>
                <g id="Fill-24-Clipped">
                    <mask id="mask-18" fill="white">
                        <use xlink:href="#path-17"></use>
                    </mask>
                    <g id="path-1"></g>
                    <path d="M76.7004,42.7068 C75.4734,42.7068 75.0054,41.9148 75.0054,41.1228 L75.0054,37.4898 L74.1864,37.4898 L74.1864,36.7308 L75.0054,36.7308 L75.0054,35.4188 L76.2514,35.0718 L76.2514,36.7308 L77.3884,36.7308 L77.3884,37.4898 L76.2514,37.4898 L76.2514,41.0578 C76.2514,41.5148 76.5204,41.8718 77.0494,41.8718 C77.1694,41.8718 77.2684,41.8498 77.3884,41.8178 L77.3884,42.5878 C77.2684,42.6418 77.0194,42.7068 76.7004,42.7068" id="Fill-24" fill="#103546" mask="url(#mask-18)"></path>
                </g>
                <g id="Fill-25-Clipped">
                    <mask id="mask-20" fill="white">
                        <use xlink:href="#path-19"></use>
                    </mask>
                    <g id="path-1"></g>
                    <path d="M78.367,42.576 L79.623,42.576 L79.623,36.73 L78.367,36.73 L78.367,42.576 Z M78.996,35.722 C78.597,35.722 78.268,35.429 78.268,35.072 C78.268,34.714 78.597,34.421 78.996,34.421 C79.395,34.421 79.724,34.714 79.724,35.072 C79.724,35.429 79.395,35.722 78.996,35.722 L78.996,35.722 Z" id="Fill-25" fill="#103546" mask="url(#mask-20)"></path>
                </g>
                <g id="Fill-26-Clipped">
                    <mask id="mask-22" fill="white">
                        <use xlink:href="#path-21"></use>
                    </mask>
                    <g id="path-1"></g>
                    <path d="M83.3751,37.3807 C82.2971,37.3807 81.9781,38.5087 81.9781,39.6487 C81.9781,40.7867 82.3171,41.8717 83.3751,41.8717 C84.4531,41.8717 84.7711,40.7867 84.7711,39.6487 C84.7711,38.5087 84.4531,37.3807 83.3751,37.3807 M83.3751,42.7297 C81.5891,42.7297 80.7021,41.4047 80.7021,39.6587 C80.7021,37.9127 81.5891,36.5777 83.3751,36.5777 C85.1611,36.5777 86.0381,37.9127 86.0381,39.6587 C86.0381,41.4047 85.1611,42.7297 83.3751,42.7297" id="Fill-26" fill="#103546" mask="url(#mask-22)"></path>
                </g>
                <g id="Fill-27-Clipped">
                    <mask id="mask-24" fill="white">
                        <use xlink:href="#path-23"></use>
                    </mask>
                    <g id="path-1"></g>
                    <path d="M90.6785,42.5768 L90.6785,38.4008 C90.6785,37.6528 90.0405,37.3698 89.3215,37.3698 C88.9325,37.3698 88.5525,37.4468 88.3135,37.5438 L88.3135,42.5768 L87.0675,42.5768 L87.0675,37.0008 C87.6155,36.7628 88.4735,36.5778 89.3915,36.5778 C90.9175,36.5778 91.9355,37.0988 91.9355,38.3788 L91.9355,42.5768 L90.6785,42.5768 Z" id="Fill-27" fill="#103546" mask="url(#mask-24)"></path>
                </g>
                <g id="Fill-28-Clipped">
                    <mask id="mask-26" fill="white">
                        <use xlink:href="#path-25"></use>
                    </mask>
                    <g id="path-1"></g>
                    <path d="M96.5242,39.3444 C95.0782,39.4954 94.1102,39.7674 94.1102,40.8954 C94.1102,41.6864 94.6702,42.0244 95.5472,42.0244 C95.9562,42.0244 96.3042,41.9364 96.5242,41.8284 L96.5242,39.3444 Z M95.4472,42.7284 C93.7322,42.7284 92.9242,42.0454 92.9242,40.9274 C92.9242,39.3554 94.5692,38.9324 96.5242,38.7594 L96.5242,38.4224 C96.5242,37.6204 95.9762,37.3814 95.1782,37.3814 C94.6092,37.3814 93.9612,37.5444 93.5922,37.7174 L93.3022,37.0014 C93.7112,36.8284 94.4792,36.5784 95.4072,36.5784 C96.7042,36.5784 97.7022,37.1094 97.7022,38.6064 L97.7022,42.3054 C97.2032,42.5554 96.4152,42.7284 95.4472,42.7284 L95.4472,42.7284 Z" id="Fill-28" fill="#103546" mask="url(#mask-26)"></path>
                </g>
                <g id="Fill-29-Clipped">
                    <mask id="mask-28" fill="white">
                        <use xlink:href="#path-27"></use>
                    </mask>
                    <g id="path-1"></g>
                    <polygon id="Fill-29" fill="#103546" mask="url(#mask-28)" points="98.989 42.577 100.236 42.577 100.236 34.062 98.989 34.062"></polygon>
                </g>
                <g id="Fill-30-Clipped">
                    <mask id="mask-30" fill="white">
                        <use xlink:href="#path-29"></use>
                    </mask>
                    <g id="path-1"></g>
                    <path d="M106.172,42.7289 C105.275,42.7289 104.547,42.5329 104.138,42.3049 L104.487,41.3949 C104.786,41.5679 105.344,41.7529 105.923,41.7529 C106.791,41.7529 107.41,41.2429 107.41,40.5059 C107.41,38.8669 104.306,39.4969 104.306,37.1749 C104.306,35.9929 105.264,34.9629 106.781,34.9629 C107.589,34.9629 108.227,35.1789 108.576,35.3859 L108.258,36.1989 C107.987,36.0369 107.469,35.8519 106.951,35.8519 C106.143,35.8519 105.614,36.3399 105.614,37.0339 C105.614,38.6399 108.786,37.9449 108.786,40.4179 C108.786,41.7409 107.698,42.7289 106.172,42.7289" id="Fill-30" fill="#103546" mask="url(#mask-30)"></path>
                </g>
                <g id="Fill-31-Clipped">
                    <mask id="mask-32" fill="white">
                        <use xlink:href="#path-31"></use>
                    </mask>
                    <g id="path-1"></g>
                    <path d="M111.9495,42.7068 C110.7225,42.7068 110.2535,41.9148 110.2535,41.1228 L110.2535,37.4898 L109.4365,37.4898 L109.4365,36.7308 L110.2535,36.7308 L110.2535,35.4188 L111.5005,35.0718 L111.5005,36.7308 L112.6375,36.7308 L112.6375,37.4898 L111.5005,37.4898 L111.5005,41.0578 C111.5005,41.5148 111.7695,41.8718 112.2975,41.8718 C112.4195,41.8718 112.5175,41.8498 112.6375,41.8178 L112.6375,42.5878 C112.5175,42.6418 112.2685,42.7068 111.9495,42.7068" id="Fill-31" fill="#103546" mask="url(#mask-32)"></path>
                </g>
                <g id="Fill-32-Clipped">
                    <mask id="mask-34" fill="white">
                        <use xlink:href="#path-33"></use>
                    </mask>
                    <g id="path-1"></g>
                    <path d="M116.917,39.3444 C115.471,39.4954 114.503,39.7674 114.503,40.8954 C114.503,41.6864 115.063,42.0244 115.94,42.0244 C116.349,42.0244 116.698,41.9364 116.917,41.8284 L116.917,39.3444 Z M115.839,42.7284 C114.125,42.7284 113.317,42.0454 113.317,40.9274 C113.317,39.3554 114.963,38.9324 116.917,38.7594 L116.917,38.4224 C116.917,37.6204 116.369,37.3814 115.57,37.3814 C115.002,37.3814 114.354,37.5444 113.985,37.7174 L113.695,37.0014 C114.105,36.8284 114.872,36.5784 115.801,36.5784 C117.097,36.5784 118.095,37.1094 118.095,38.6064 L118.095,42.3054 C117.595,42.5554 116.808,42.7284 115.839,42.7284 L115.839,42.7284 Z" id="Fill-32" fill="#103546" mask="url(#mask-34)"></path>
                </g>
                <g id="Fill-33-Clipped">
                    <mask id="mask-36" fill="white">
                        <use xlink:href="#path-35"></use>
                    </mask>
                    <g id="path-1"></g>
                    <path d="M121.4869,42.7068 C120.2599,42.7068 119.7909,41.9148 119.7909,41.1228 L119.7909,37.4898 L118.9729,37.4898 L118.9729,36.7308 L119.7909,36.7308 L119.7909,35.4188 L121.0369,35.0718 L121.0369,36.7308 L122.1739,36.7308 L122.1739,37.4898 L121.0369,37.4898 L121.0369,41.0578 C121.0369,41.5148 121.3059,41.8718 121.8349,41.8718 C121.9539,41.8718 122.0549,41.8498 122.1739,41.8178 L122.1739,42.5878 C122.0549,42.6418 121.8059,42.7068 121.4869,42.7068" id="Fill-33" fill="#103546" mask="url(#mask-36)"></path>
                </g>
                <g id="Fill-34-Clipped">
                    <mask id="mask-38" fill="white">
                        <use xlink:href="#path-37"></use>
                    </mask>
                    <g id="path-1"></g>
                    <path d="M123.153,42.576 L124.411,42.576 L124.411,36.73 L123.153,36.73 L123.153,42.576 Z M123.781,35.722 C123.382,35.722 123.053,35.429 123.053,35.072 C123.053,34.714 123.382,34.421 123.781,34.421 C124.18,34.421 124.509,34.714 124.509,35.072 C124.509,35.429 124.18,35.722 123.781,35.722 L123.781,35.722 Z" id="Fill-34" fill="#103546" mask="url(#mask-38)"></path>
                </g>
                <g id="Fill-35-Clipped">
                    <mask id="mask-40" fill="white">
                        <use xlink:href="#path-39"></use>
                    </mask>
                    <g id="path-1"></g>
                    <path d="M127.1332,42.7289 C126.4052,42.7289 125.7162,42.5219 125.3672,42.3049 L125.6962,41.5019 C125.9462,41.6759 126.4452,41.8509 126.9742,41.8509 C127.6122,41.8509 128.1212,41.4369 128.1212,40.9399 C128.1212,39.5509 125.5572,40.2019 125.5572,38.2919 C125.5572,37.4249 126.3362,36.5789 127.6032,36.5789 C128.3212,36.5789 128.8492,36.7629 129.2482,37.0019 L128.9192,37.7279 C128.7292,37.5989 128.3402,37.3919 127.8512,37.3919 C127.2032,37.3919 126.8042,37.7819 126.8042,38.2259 C126.8042,39.5289 129.4182,38.9549 129.4182,40.9059 C129.4182,41.8399 128.5302,42.7289 127.1332,42.7289" id="Fill-35" fill="#103546" mask="url(#mask-40)"></path>
                </g>
                <g id="Fill-36-Clipped">
                    <mask id="mask-42" fill="white">
                        <use xlink:href="#path-41"></use>
                    </mask>
                    <g id="path-1"></g>
                    <path d="M132.5917,42.7068 C131.3647,42.7068 130.8957,41.9148 130.8957,41.1228 L130.8957,37.4898 L130.0777,37.4898 L130.0777,36.7308 L130.8957,36.7308 L130.8957,35.4188 L132.1427,35.0718 L132.1427,36.7308 L133.2797,36.7308 L133.2797,37.4898 L132.1427,37.4898 L132.1427,41.0578 C132.1427,41.5148 132.4117,41.8718 132.9397,41.8718 C133.0597,41.8718 133.1597,41.8498 133.2797,41.8178 L133.2797,42.5878 C133.1597,42.6418 132.9107,42.7068 132.5917,42.7068" id="Fill-36" fill="#103546" mask="url(#mask-42)"></path>
                </g>
                <g id="Fill-37-Clipped">
                    <mask id="mask-44" fill="white">
                        <use xlink:href="#path-43"></use>
                    </mask>
                    <g id="path-1"></g>
                    <path d="M134.259,42.576 L135.515,42.576 L135.515,36.73 L134.259,36.73 L134.259,42.576 Z M134.887,35.722 C134.487,35.722 134.159,35.429 134.159,35.072 C134.159,34.714 134.487,34.421 134.887,34.421 C135.285,34.421 135.615,34.714 135.615,35.072 C135.615,35.429 135.285,35.722 134.887,35.722 L134.887,35.722 Z" id="Fill-37" fill="#103546" mask="url(#mask-44)"></path>
                </g>
                <g id="Fill-38-Clipped">
                    <mask id="mask-46" fill="white">
                        <use xlink:href="#path-45"></use>
                    </mask>
                    <g id="path-1"></g>
                    <path d="M139.1267,42.7289 C137.6897,42.7289 136.5927,41.5569 136.5927,39.6479 C136.5927,37.7179 137.7207,36.5789 139.1367,36.5789 C139.8647,36.5789 140.3537,36.7859 140.6327,37.0019 L140.3537,37.7059 C140.1737,37.5759 139.8547,37.4249 139.4347,37.4249 C138.4177,37.4249 137.8897,38.3019 137.8897,39.6159 C137.8897,40.9509 138.4977,41.8289 139.4157,41.8289 C139.8147,41.8289 140.1147,41.6869 140.3327,41.5359 L140.6427,42.3049 C140.3827,42.5219 139.8747,42.7289 139.1267,42.7289" id="Fill-38" fill="#103546" mask="url(#mask-46)"></path>
                </g>
                <g id="Fill-39-Clipped">
                    <mask id="mask-48" fill="white">
                        <use xlink:href="#path-47"></use>
                    </mask>
                    <g id="path-1"></g>
                    <path d="M142.9678,42.7289 C142.2398,42.7289 141.5508,42.5219 141.2018,42.3049 L141.5308,41.5019 C141.7808,41.6759 142.2798,41.8509 142.8078,41.8509 C143.4458,41.8509 143.9558,41.4369 143.9558,40.9399 C143.9558,39.5509 141.3918,40.2019 141.3918,38.2919 C141.3918,37.4249 142.1698,36.5789 143.4368,36.5789 C144.1558,36.5789 144.6838,36.7629 145.0828,37.0019 L144.7528,37.7279 C144.5638,37.5989 144.1748,37.3919 143.6858,37.3919 C143.0368,37.3919 142.6388,37.7819 142.6388,38.2259 C142.6388,39.5289 145.2528,38.9549 145.2528,40.9059 C145.2528,41.8399 144.3648,42.7289 142.9678,42.7289" id="Fill-39" fill="#103546" mask="url(#mask-48)"></path>
                </g>
                <g id="Fill-40-Clipped">
                    <mask id="mask-50" fill="white">
                        <use xlink:href="#path-49"></use>
                    </mask>
                    <g id="path-1"></g>
                    <path d="M36.5793,21.2225 C36.5793,21.2225 34.5573,21.2175 34.5573,23.7255 L34.5573,25.0565 C34.7503,27.3525 35.2203,29.5865 36.0243,31.6535 C37.1573,29.8655 38.5133,28.2405 40.1683,26.8255 C43.4453,24.0195 47.8573,22.0765 53.8443,21.2225 L36.5793,21.2225 Z M34.5533,34.3335 C34.8793,33.6545 35.2223,32.9895 35.5983,32.3495 C35.1673,31.3185 34.8243,30.2445 34.5543,29.1455 C34.5533,30.9365 34.5533,32.8415 34.5533,34.3335 L34.5533,34.3335 Z" id="Fill-40" fill="#A2B449" mask="url(#mask-50)"></path>
                </g>
                <g id="Fill-41-Clipped">
                    <mask id="mask-52" fill="white">
                        <use xlink:href="#path-51"></use>
                    </mask>
                    <g id="path-1"></g>
                    <path d="M38.5002,37.1169 C37.7122,36.1949 37.0382,35.1969 36.4622,34.1439 C35.7282,35.5319 35.1052,37.0249 34.5582,38.6029 L34.5582,42.8239 L48.2442,42.8489 C43.9752,41.8229 40.7772,39.7859 38.5002,37.1169 M56.1032,22.5909 C49.2542,23.2439 44.5782,25.1989 41.2272,28.0619 C39.4292,29.5989 38.0052,31.4149 36.8362,33.4629 C39.4642,38.5629 44.4732,42.3099 52.8282,42.8569 L53.6412,42.8589 C53.6412,42.8589 56.2092,42.9449 56.2092,40.0889 L56.2092,22.5699 C56.1762,22.5779 56.1402,22.5869 56.1032,22.5909" id="Fill-41" fill="#16405B" mask="url(#mask-52)"></path>
                </g>
                <g id="Fill-42-Clipped">
                    <mask id="mask-54" fill="white">
                        <use xlink:href="#path-53"></use>
                    </mask>
                    <g id="path-1"></g>
                    <path d="M64.4899,23.7502 C62.9429,23.7502 62.3959,25.4422 62.3959,26.9932 C62.3959,28.5232 62.8939,30.2042 64.4899,30.2042 C66.0949,30.2042 66.5749,28.5232 66.5749,26.9932 C66.5749,25.4422 66.0359,23.7502 64.4899,23.7502 M64.4899,30.8872 C62.3959,30.8872 61.4579,29.1522 61.4579,27.0152 C61.4579,24.9002 62.3959,23.1422 64.4899,23.1422 C66.5839,23.1422 67.5119,24.9002 67.5119,27.0152 C67.5119,29.1522 66.5839,30.8872 64.4899,30.8872" id="Fill-42" fill="#16405B" mask="url(#mask-54)"></path>
                </g>
                <g id="Fill-43-Clipped">
                    <mask id="mask-56" fill="white">
                        <use xlink:href="#path-55"></use>
                    </mask>
                    <g id="path-1"></g>
                    <path d="M70.1167,25.4203 L70.1167,30.7463 L69.2687,30.7463 L69.2687,25.4203 L68.4017,25.4203 L68.4017,24.9003 L69.2687,24.9003 L69.2687,24.0543 C69.2687,22.9903 69.8967,22.2203 71.1347,22.2203 C71.2237,22.2203 71.3337,22.2313 71.3337,22.2313 L71.3337,22.7743 L71.2337,22.7743 C70.6457,22.7743 70.1167,23.1533 70.1167,23.9563 L70.1167,24.9003 L71.3337,24.9003 L71.3337,25.4203 L70.1167,25.4203 Z" id="Fill-43" fill="#16405B" mask="url(#mask-56)"></path>
                </g>
                <g id="Fill-44-Clipped">
                    <mask id="mask-58" fill="white">
                        <use xlink:href="#path-57"></use>
                    </mask>
                    <g id="path-1"></g>
                    <path d="M73.6188,25.4203 L73.6188,30.7463 L72.7708,30.7463 L72.7708,25.4203 L71.9028,25.4203 L71.9028,24.9003 L72.7708,24.9003 L72.7708,24.0543 C72.7708,22.9903 73.3998,22.2203 74.6368,22.2203 C74.7268,22.2203 74.8358,22.2313 74.8358,22.2313 L74.8358,22.7743 L74.7358,22.7743 C74.1478,22.7743 73.6188,23.1533 73.6188,23.9563 L73.6188,24.9003 L74.8358,24.9003 L74.8358,25.4203 L73.6188,25.4203 Z" id="Fill-44" fill="#16405B" mask="url(#mask-58)"></path>
                </g>
                <g id="Fill-45-Clipped">
                    <mask id="mask-60" fill="white">
                        <use xlink:href="#path-59"></use>
                    </mask>
                    <g id="path-1"></g>
                    <path d="M75.804,30.747 L76.662,30.747 L76.662,24.901 L75.804,24.901 L75.804,30.747 Z M76.233,23.783 C75.934,23.783 75.695,23.555 75.695,23.261 C75.695,22.969 75.934,22.731 76.233,22.731 C76.533,22.731 76.772,22.969 76.772,23.261 C76.772,23.555 76.533,23.783 76.233,23.783 L76.233,23.783 Z" id="Fill-45" fill="#16405B" mask="url(#mask-60)"></path>
                </g>
                <g id="Fill-46-Clipped">
                    <mask id="mask-62" fill="white">
                        <use xlink:href="#path-61"></use>
                    </mask>
                    <g id="path-1"></g>
                    <path d="M80.314,30.8873 C78.927,30.8873 77.859,29.6943 77.859,27.8183 C77.859,25.9083 78.927,24.7593 80.343,24.7593 C81.052,24.7593 81.52,24.9533 81.77,25.1603 L81.551,25.6803 C81.36,25.5403 81.002,25.3663 80.533,25.3663 C79.346,25.3663 78.738,26.3963 78.738,27.7843 C78.738,29.2173 79.436,30.2363 80.503,30.2363 C80.942,30.2363 81.301,30.0843 81.541,29.9213 L81.77,30.4863 C81.52,30.6913 81.022,30.8873 80.314,30.8873" id="Fill-46" fill="#16405B" mask="url(#mask-62)"></path>
                </g>
                <g id="Fill-47-Clipped">
                    <mask id="mask-64" fill="white">
                        <use xlink:href="#path-63"></use>
                    </mask>
                    <g id="path-1"></g>
                    <path d="M84.8528,25.3119 C83.9048,25.3119 83.1078,26.0499 83.1178,27.6879 L86.4388,27.2319 C86.4388,25.8759 85.7908,25.3119 84.8528,25.3119 L84.8528,25.3119 Z M83.1578,28.1759 C83.2668,29.5529 84.0248,30.2469 85.2118,30.2469 C85.9298,30.2469 86.4788,30.0629 86.7978,29.8889 L87.0478,30.4859 C86.6778,30.6919 85.9898,30.8879 85.1528,30.8879 C83.5068,30.8879 82.3398,29.9109 82.3398,27.8069 C82.3398,25.8009 83.4158,24.7589 84.8828,24.7589 C86.3688,24.7589 87.2758,25.6699 87.2758,27.6229 L83.1578,28.1759 Z" id="Fill-47" fill="#16405B" mask="url(#mask-64)"></path>
                </g>
                <g id="Fill-48-Clipped">
                    <mask id="mask-66" fill="white">
                        <use xlink:href="#path-65"></use>
                    </mask>
                    <g id="path-1"></g>
                    <path d="M92.7051,25.4203 L92.7051,30.7463 L91.8571,30.7463 L91.8571,25.4203 L90.9891,25.4203 L90.9891,24.9003 L91.8571,24.9003 L91.8571,24.0543 C91.8571,22.9903 92.4851,22.2203 93.7231,22.2203 C93.8121,22.2203 93.9221,22.2313 93.9221,22.2313 L93.9221,22.7743 L93.8211,22.7743 C93.2341,22.7743 92.7051,23.1533 92.7051,23.9563 L92.7051,24.9003 L93.9221,24.9003 L93.9221,25.4203 L92.7051,25.4203 Z" id="Fill-48" fill="#16405B" mask="url(#mask-66)"></path>
                </g>
                <g id="Fill-49-Clipped">
                    <mask id="mask-68" fill="white">
                        <use xlink:href="#path-67"></use>
                    </mask>
                    <g id="path-1"></g>
                    <path d="M97.0243,25.3333 C95.7473,25.3333 95.3783,26.6253 95.3783,27.8283 C95.3783,29.0323 95.7783,30.2683 97.0243,30.2683 C98.3023,30.2683 98.6703,29.0323 98.6703,27.8283 C98.6703,26.6253 98.3023,25.3333 97.0243,25.3333 M97.0243,30.8873 C95.2993,30.8873 94.5113,29.5533 94.5113,27.8283 C94.5113,26.1033 95.2993,24.7593 97.0243,24.7593 C98.7503,24.7593 99.5283,26.1033 99.5283,27.8283 C99.5283,29.5533 98.7503,30.8873 97.0243,30.8873" id="Fill-49" fill="#16405B" mask="url(#mask-68)"></path>
                </g>
                <g id="Fill-50-Clipped">
                    <mask id="mask-70" fill="white">
                        <use xlink:href="#path-69"></use>
                    </mask>
                    <g id="path-1"></g>
                    <path d="M103.2105,25.4425 C102.6715,25.3015 101.8835,25.3225 101.5145,25.5505 L101.5145,30.7465 L100.6565,30.7465 L100.6565,25.1605 C101.2745,24.9005 101.8935,24.7585 102.9895,24.7585 C103.1405,24.7585 103.3395,24.7585 103.4295,24.7695 L103.2105,25.4425 Z" id="Fill-50" fill="#16405B" mask="url(#mask-70)"></path>
                </g>
                <g id="Fill-51-Clipped">
                    <mask id="mask-72" fill="white">
                        <use xlink:href="#path-71"></use>
                    </mask>
                    <g id="path-1"></g>
                    <path d="M66.4147,42.5768 L63.1037,37.4678 C62.8537,37.0888 62.6747,36.7088 62.6747,36.7088 L62.6547,36.7088 C62.6547,36.7088 62.6847,37.1428 62.6847,37.5978 L62.6847,42.5768 L61.5977,42.5768 L61.5977,35.1148 L62.8237,35.1148 L65.9657,39.9188 C66.2447,40.3428 66.4047,40.6898 66.4047,40.6898 L66.4257,40.6898 C66.4257,40.6898 66.3847,40.2668 66.3847,39.8218 L66.3847,35.1148 L67.4827,35.1148 L67.4827,42.5768 L66.4147,42.5768 Z" id="Fill-51" fill="#16405B" mask="url(#mask-72)"></path>
                </g>
                <g id="Fill-52-Clipped">
                    <mask id="mask-74" fill="white">
                        <use xlink:href="#path-73"></use>
                    </mask>
                    <g id="path-1"></g>
                    <path d="M72.1318,39.3444 C70.6858,39.4954 69.7178,39.7674 69.7178,40.8954 C69.7178,41.6864 70.2768,42.0244 71.1538,42.0244 C71.5638,42.0244 71.9118,41.9364 72.1318,41.8284 L72.1318,39.3444 Z M71.0548,42.7284 C69.3398,42.7284 68.5318,42.0454 68.5318,40.9274 C68.5318,39.3554 70.1768,38.9324 72.1318,38.7594 L72.1318,38.4224 C72.1318,37.6204 71.5838,37.3814 70.7848,37.3814 C70.2168,37.3814 69.5688,37.5444 69.1988,37.7174 L68.9098,37.0014 C69.3188,36.8284 70.0868,36.5784 71.0148,36.5784 C72.3118,36.5784 73.3088,37.1094 73.3088,38.6064 L73.3088,42.3054 C72.8098,42.5554 72.0228,42.7284 71.0548,42.7284 L71.0548,42.7284 Z" id="Fill-52" fill="#16405B" mask="url(#mask-74)"></path>
                </g>
                <g id="Fill-53-Clipped">
                    <mask id="mask-76" fill="white">
                        <use xlink:href="#path-75"></use>
                    </mask>
                    <g id="path-1"></g>
                    <path d="M76.7004,42.7068 C75.4734,42.7068 75.0054,41.9148 75.0054,41.1228 L75.0054,37.4898 L74.1864,37.4898 L74.1864,36.7308 L75.0054,36.7308 L75.0054,35.4188 L76.2514,35.0718 L76.2514,36.7308 L77.3884,36.7308 L77.3884,37.4898 L76.2514,37.4898 L76.2514,41.0578 C76.2514,41.5148 76.5204,41.8718 77.0494,41.8718 C77.1694,41.8718 77.2684,41.8498 77.3884,41.8178 L77.3884,42.5878 C77.2684,42.6418 77.0194,42.7068 76.7004,42.7068" id="Fill-53" fill="#16405B" mask="url(#mask-76)"></path>
                </g>
                <g id="Fill-54-Clipped">
                    <mask id="mask-78" fill="white">
                        <use xlink:href="#path-77"></use>
                    </mask>
                    <g id="path-1"></g>
                    <path d="M78.367,42.576 L79.623,42.576 L79.623,36.73 L78.367,36.73 L78.367,42.576 Z M78.996,35.722 C78.597,35.722 78.268,35.429 78.268,35.072 C78.268,34.714 78.597,34.421 78.996,34.421 C79.395,34.421 79.724,34.714 79.724,35.072 C79.724,35.429 79.395,35.722 78.996,35.722 L78.996,35.722 Z" id="Fill-54" fill="#16405B" mask="url(#mask-78)"></path>
                </g>
                <g id="Fill-55-Clipped">
                    <mask id="mask-80" fill="white">
                        <use xlink:href="#path-79"></use>
                    </mask>
                    <g id="path-1"></g>
                    <path d="M83.3751,37.3807 C82.2971,37.3807 81.9781,38.5087 81.9781,39.6487 C81.9781,40.7867 82.3171,41.8717 83.3751,41.8717 C84.4531,41.8717 84.7711,40.7867 84.7711,39.6487 C84.7711,38.5087 84.4531,37.3807 83.3751,37.3807 M83.3751,42.7297 C81.5891,42.7297 80.7021,41.4047 80.7021,39.6587 C80.7021,37.9127 81.5891,36.5777 83.3751,36.5777 C85.1611,36.5777 86.0381,37.9127 86.0381,39.6587 C86.0381,41.4047 85.1611,42.7297 83.3751,42.7297" id="Fill-55" fill="#16405B" mask="url(#mask-80)"></path>
                </g>
                <g id="Fill-56-Clipped">
                    <mask id="mask-82" fill="white">
                        <use xlink:href="#path-81"></use>
                    </mask>
                    <g id="path-1"></g>
                    <path d="M90.6785,42.5768 L90.6785,38.4008 C90.6785,37.6528 90.0405,37.3698 89.3215,37.3698 C88.9325,37.3698 88.5525,37.4468 88.3135,37.5438 L88.3135,42.5768 L87.0675,42.5768 L87.0675,37.0008 C87.6155,36.7628 88.4735,36.5778 89.3915,36.5778 C90.9175,36.5778 91.9355,37.0988 91.9355,38.3788 L91.9355,42.5768 L90.6785,42.5768 Z" id="Fill-56" fill="#16405B" mask="url(#mask-82)"></path>
                </g>
                <g id="Fill-57-Clipped">
                    <mask id="mask-84" fill="white">
                        <use xlink:href="#path-83"></use>
                    </mask>
                    <g id="path-1"></g>
                    <path d="M96.5242,39.3444 C95.0782,39.4954 94.1102,39.7674 94.1102,40.8954 C94.1102,41.6864 94.6702,42.0244 95.5472,42.0244 C95.9562,42.0244 96.3042,41.9364 96.5242,41.8284 L96.5242,39.3444 Z M95.4472,42.7284 C93.7322,42.7284 92.9242,42.0454 92.9242,40.9274 C92.9242,39.3554 94.5692,38.9324 96.5242,38.7594 L96.5242,38.4224 C96.5242,37.6204 95.9762,37.3814 95.1782,37.3814 C94.6092,37.3814 93.9612,37.5444 93.5922,37.7174 L93.3022,37.0014 C93.7112,36.8284 94.4792,36.5784 95.4072,36.5784 C96.7042,36.5784 97.7022,37.1094 97.7022,38.6064 L97.7022,42.3054 C97.2032,42.5554 96.4152,42.7284 95.4472,42.7284 L95.4472,42.7284 Z" id="Fill-57" fill="#16405B" mask="url(#mask-84)"></path>
                </g>
                <g id="Fill-58-Clipped">
                    <mask id="mask-86" fill="white">
                        <use xlink:href="#path-85"></use>
                    </mask>
                    <g id="path-1"></g>
                    <polygon id="Fill-58" fill="#16405B" mask="url(#mask-86)" points="98.989 42.577 100.236 42.577 100.236 34.062 98.989 34.062"></polygon>
                </g>
                <g id="Fill-59-Clipped">
                    <mask id="mask-88" fill="white">
                        <use xlink:href="#path-87"></use>
                    </mask>
                    <g id="path-1"></g>
                    <path d="M106.172,42.7289 C105.275,42.7289 104.547,42.5329 104.138,42.3049 L104.487,41.3949 C104.786,41.5679 105.344,41.7529 105.923,41.7529 C106.791,41.7529 107.41,41.2429 107.41,40.5059 C107.41,38.8669 104.306,39.4969 104.306,37.1749 C104.306,35.9929 105.264,34.9629 106.781,34.9629 C107.589,34.9629 108.227,35.1789 108.576,35.3859 L108.258,36.1989 C107.987,36.0369 107.469,35.8519 106.951,35.8519 C106.143,35.8519 105.614,36.3399 105.614,37.0339 C105.614,38.6399 108.786,37.9449 108.786,40.4179 C108.786,41.7409 107.698,42.7289 106.172,42.7289" id="Fill-59" fill="#16405B" mask="url(#mask-88)"></path>
                </g>
                <g id="Fill-60-Clipped">
                    <mask id="mask-90" fill="white">
                        <use xlink:href="#path-89"></use>
                    </mask>
                    <g id="path-1"></g>
                    <path d="M111.9495,42.7068 C110.7225,42.7068 110.2535,41.9148 110.2535,41.1228 L110.2535,37.4898 L109.4365,37.4898 L109.4365,36.7308 L110.2535,36.7308 L110.2535,35.4188 L111.5005,35.0718 L111.5005,36.7308 L112.6375,36.7308 L112.6375,37.4898 L111.5005,37.4898 L111.5005,41.0578 C111.5005,41.5148 111.7695,41.8718 112.2975,41.8718 C112.4195,41.8718 112.5175,41.8498 112.6375,41.8178 L112.6375,42.5878 C112.5175,42.6418 112.2685,42.7068 111.9495,42.7068" id="Fill-60" fill="#16405B" mask="url(#mask-90)"></path>
                </g>
                <g id="Fill-61-Clipped">
                    <mask id="mask-92" fill="white">
                        <use xlink:href="#path-91"></use>
                    </mask>
                    <g id="path-1"></g>
                    <path d="M116.917,39.3444 C115.471,39.4954 114.503,39.7674 114.503,40.8954 C114.503,41.6864 115.063,42.0244 115.94,42.0244 C116.349,42.0244 116.698,41.9364 116.917,41.8284 L116.917,39.3444 Z M115.839,42.7284 C114.125,42.7284 113.317,42.0454 113.317,40.9274 C113.317,39.3554 114.963,38.9324 116.917,38.7594 L116.917,38.4224 C116.917,37.6204 116.369,37.3814 115.57,37.3814 C115.002,37.3814 114.354,37.5444 113.985,37.7174 L113.695,37.0014 C114.105,36.8284 114.872,36.5784 115.801,36.5784 C117.097,36.5784 118.095,37.1094 118.095,38.6064 L118.095,42.3054 C117.595,42.5554 116.808,42.7284 115.839,42.7284 L115.839,42.7284 Z" id="Fill-61" fill="#16405B" mask="url(#mask-92)"></path>
                </g>
                <g id="Fill-62-Clipped">
                    <mask id="mask-94" fill="white">
                        <use xlink:href="#path-93"></use>
                    </mask>
                    <g id="path-1"></g>
                    <path d="M121.4869,42.7068 C120.2599,42.7068 119.7909,41.9148 119.7909,41.1228 L119.7909,37.4898 L118.9729,37.4898 L118.9729,36.7308 L119.7909,36.7308 L119.7909,35.4188 L121.0369,35.0718 L121.0369,36.7308 L122.1739,36.7308 L122.1739,37.4898 L121.0369,37.4898 L121.0369,41.0578 C121.0369,41.5148 121.3059,41.8718 121.8349,41.8718 C121.9539,41.8718 122.0549,41.8498 122.1739,41.8178 L122.1739,42.5878 C122.0549,42.6418 121.8059,42.7068 121.4869,42.7068" id="Fill-62" fill="#16405B" mask="url(#mask-94)"></path>
                </g>
                <g id="Fill-63-Clipped">
                    <mask id="mask-96" fill="white">
                        <use xlink:href="#path-95"></use>
                    </mask>
                    <g id="path-1"></g>
                    <path d="M123.153,42.576 L124.411,42.576 L124.411,36.73 L123.153,36.73 L123.153,42.576 Z M123.781,35.722 C123.382,35.722 123.053,35.429 123.053,35.072 C123.053,34.714 123.382,34.421 123.781,34.421 C124.18,34.421 124.509,34.714 124.509,35.072 C124.509,35.429 124.18,35.722 123.781,35.722 L123.781,35.722 Z" id="Fill-63" fill="#16405B" mask="url(#mask-96)"></path>
                </g>
                <g id="Fill-64-Clipped">
                    <mask id="mask-98" fill="white">
                        <use xlink:href="#path-97"></use>
                    </mask>
                    <g id="path-1"></g>
                    <path d="M127.1332,42.7289 C126.4052,42.7289 125.7162,42.5219 125.3672,42.3049 L125.6962,41.5019 C125.9462,41.6759 126.4452,41.8509 126.9742,41.8509 C127.6122,41.8509 128.1212,41.4369 128.1212,40.9399 C128.1212,39.5509 125.5572,40.2019 125.5572,38.2919 C125.5572,37.4249 126.3362,36.5789 127.6032,36.5789 C128.3212,36.5789 128.8492,36.7629 129.2482,37.0019 L128.9192,37.7279 C128.7292,37.5989 128.3402,37.3919 127.8512,37.3919 C127.2032,37.3919 126.8042,37.7819 126.8042,38.2259 C126.8042,39.5289 129.4182,38.9549 129.4182,40.9059 C129.4182,41.8399 128.5302,42.7289 127.1332,42.7289" id="Fill-64" fill="#16405B" mask="url(#mask-98)"></path>
                </g>
                <g id="Fill-65-Clipped">
                    <mask id="mask-100" fill="white">
                        <use xlink:href="#path-99"></use>
                    </mask>
                    <g id="path-1"></g>
                    <path d="M132.5917,42.7068 C131.3647,42.7068 130.8957,41.9148 130.8957,41.1228 L130.8957,37.4898 L130.0777,37.4898 L130.0777,36.7308 L130.8957,36.7308 L130.8957,35.4188 L132.1427,35.0718 L132.1427,36.7308 L133.2797,36.7308 L133.2797,37.4898 L132.1427,37.4898 L132.1427,41.0578 C132.1427,41.5148 132.4117,41.8718 132.9397,41.8718 C133.0597,41.8718 133.1597,41.8498 133.2797,41.8178 L133.2797,42.5878 C133.1597,42.6418 132.9107,42.7068 132.5917,42.7068" id="Fill-65" fill="#16405B" mask="url(#mask-100)"></path>
                </g>
                <g id="Fill-66-Clipped">
                    <mask id="mask-102" fill="white">
                        <use xlink:href="#path-101"></use>
                    </mask>
                    <g id="path-1"></g>
                    <path d="M134.259,42.576 L135.515,42.576 L135.515,36.73 L134.259,36.73 L134.259,42.576 Z M134.887,35.722 C134.487,35.722 134.159,35.429 134.159,35.072 C134.159,34.714 134.487,34.421 134.887,34.421 C135.285,34.421 135.615,34.714 135.615,35.072 C135.615,35.429 135.285,35.722 134.887,35.722 L134.887,35.722 Z" id="Fill-66" fill="#16405B" mask="url(#mask-102)"></path>
                </g>
                <g id="Fill-67-Clipped">
                    <mask id="mask-104" fill="white">
                        <use xlink:href="#path-103"></use>
                    </mask>
                    <g id="path-1"></g>
                    <path d="M139.1267,42.7289 C137.6897,42.7289 136.5927,41.5569 136.5927,39.6479 C136.5927,37.7179 137.7207,36.5789 139.1367,36.5789 C139.8647,36.5789 140.3537,36.7859 140.6327,37.0019 L140.3537,37.7059 C140.1737,37.5759 139.8547,37.4249 139.4347,37.4249 C138.4177,37.4249 137.8897,38.3019 137.8897,39.6159 C137.8897,40.9509 138.4977,41.8289 139.4157,41.8289 C139.8147,41.8289 140.1147,41.6869 140.3327,41.5359 L140.6427,42.3049 C140.3827,42.5219 139.8747,42.7289 139.1267,42.7289" id="Fill-67" fill="#16405B" mask="url(#mask-104)"></path>
                </g>
                <g id="Fill-68-Clipped">
                    <mask id="mask-106" fill="white">
                        <use xlink:href="#path-105"></use>
                    </mask>
                    <g id="path-1"></g>
                    <path d="M142.9678,42.7289 C142.2398,42.7289 141.5508,42.5219 141.2018,42.3049 L141.5308,41.5019 C141.7808,41.6759 142.2798,41.8509 142.8078,41.8509 C143.4458,41.8509 143.9558,41.4369 143.9558,40.9399 C143.9558,39.5509 141.3918,40.2019 141.3918,38.2919 C141.3918,37.4249 142.1698,36.5789 143.4368,36.5789 C144.1558,36.5789 144.6838,36.7629 145.0828,37.0019 L144.7528,37.7279 C144.5638,37.5989 144.1748,37.3919 143.6858,37.3919 C143.0368,37.3919 142.6388,37.7819 142.6388,38.2259 C142.6388,39.5289 145.2528,38.9549 145.2528,40.9059 C145.2528,41.8399 144.3648,42.7289 142.9678,42.7289" id="Fill-68" fill="#16405B" mask="url(#mask-106)"></path>
                </g>
                <g id="Stroke-69-Clipped">
                    <mask id="mask-108" fill="white">
                        <use xlink:href="#path-107"></use>
                    </mask>
                    <g id="path-1"></g>
                    <polygon id="Stroke-69" stroke="#BDBEBA" stroke-width="1.082" mask="url(#mask-108)" points="531.0703 66.3322 0.9773 66.3322 0.9773 1.4232 531.0703 1.4232"></polygon>
                </g>
                <g id="Fill-70-Clipped">
                    <mask id="mask-110" fill="white">
                        <use xlink:href="#path-109"></use>
                    </mask>
                    <g id="path-1"></g>
                    <polygon id="Fill-70" fill="#BDBEBA" mask="url(#mask-110)" points="303.778 30.709 498.506 30.709 498.506 25.3 303.778 25.3"></polygon>
                </g>
                <g id="Fill-71-Clipped">
                    <mask id="mask-112" fill="white">
                        <use xlink:href="#path-111"></use>
                    </mask>
                    <g id="path-1"></g>
                    <polygon id="Fill-71" fill="#BDBEBA" mask="url(#mask-112)" points="303.778 41.991 401.142 41.991 401.142 36.582 303.778 36.582"></polygon>
                </g>
            </g>
            <text id="Sur" fill="#000105" font-family="Lato-Black, Lato" font-size="19.4728" font-weight="700">
                <tspan x="449.5578" y="135.562399">Sur</tspan>
            </text>
            <text id="ve" fill="#000105" font-family="Lato-Black, Lato" font-size="19.4728" font-weight="700">
                <tspan x="479.448548" y="135.562399">ve</tspan>
            </text>
            <text id="y-title---Group-title---Block-title" fill="#000105" font-family="Lato-Black, Lato" font-size="19.4728" font-weight="700">
                <tspan x="499.252386" y="135.562399">y title - Group title - Block title</tspan>
            </text>
            <polygon id="Fill-73" fill="#BDBEBA" points="449.314 160.112 913.506 160.112 913.506 154.703 449.314 154.703"></polygon>
            <polygon id="Fill-74" fill="#BDBEBA" points="449.316 171.394 681.411 171.394 681.411 165.985 449.316 165.985"></polygon>
            <polygon id="Fill-75" fill="#BDBEBA" points="448.927 189.848 913.119 189.848 913.119 184.439 448.927 184.439"></polygon>
            <polygon id="Fill-76" fill="#BDBEBA" points="448.929 201.13 681.024 201.13 681.024 195.721 448.929 195.721"></polygon>
            <path d="M448.9276,222.8263 L913.5066,222.8263" id="Stroke-77" stroke="#BDBEBA" stroke-width="1.082"></path>
            <text id="1.-Section-title" fill="#000105" font-family="Lato-Black, Lato" font-size="15.1455" font-weight="700">
                <tspan x="449.3143" y="259.610746">1. Section title</tspan>
            </text>
            <polygon id="Fill-78" fill="#BDBEBA" points="449.314 283.439 913.506 283.439 913.506 278.03 449.314 278.03"></polygon>
            <polygon id="Fill-79" fill="#BDBEBA" points="449.316 294.722 681.411 294.722 681.411 289.313 449.316 289.313"></polygon>
            <polygon id="Fill-80" fill="#BDBEBA" points="449.314 360.249 913.506 360.249 913.506 354.84 449.314 354.84"></polygon>
            <polygon id="Fill-81" fill="#BDBEBA" points="449.316 371.531 681.411 371.531 681.411 366.122 449.316 366.122"></polygon>
            <text id="1.1-Question-title" fill="#000105" font-family="Lato-Black, Lato" font-size="12.9819" font-weight="700">
                <tspan x="448.9276" y="341.01056">1.1 Question title</tspan>
            </text>
            <text id="Label" fill="#000105" font-family="Lato-Black, Lato" font-size="10.8182" font-weight="700">
                <tspan x="449.3148" y="400.920193">Label</tspan>
            </text>
            <polygon id="Stroke-82" stroke="#BDBEBA" stroke-width="1.082" points="680.7856 434.2131 449.3146 434.2131 449.3146 408.9831 680.7856 408.9831"></polygon>
            <text id="Guidance" fill="#000105" font-family="Lato-Regular, Lato" font-size="10.8182" font-weight="normal">
                <tspan x="448.9276" y="447.015993">Guidance</tspan>
            </text>
            <polygon id="Stroke-83" stroke="#000105" stroke-width="0.649" points="448.9276 449.7553 448.9276 449.7553 493.9206 449.7553"></polygon>
            <polyline id="Stroke-84" stroke="#1A1918" points="197.7165 32.4885 384.8035 32.4885 384.8035 131.7015 434.5355 131.7015"></polyline>
            <path d="M434.5355,133.7011 C435.6405,133.7011 436.5355,132.8061 436.5355,131.7011 C436.5355,130.5961 435.6405,129.7011 434.5355,129.7011 C433.4305,129.7011 432.5355,130.5961 432.5355,131.7011 C432.5355,132.8061 433.4305,133.7011 434.5355,133.7011" id="Fill-85" fill="#1A1918"></path>
            <polyline id="Stroke-87" stroke="#1A1918" points="148.1102 99.8112 285.5902 99.8112 285.5902 256.4252 434.5352 256.4252"></polyline>
            <path d="M434.5355,258.4254 C435.6405,258.4254 436.5355,257.5294 436.5355,256.4254 C436.5355,255.3204 435.6405,254.4254 434.5355,254.4254 C433.4305,254.4254 432.5355,255.3204 432.5355,256.4254 C432.5355,257.5294 433.4305,258.4254 434.5355,258.4254" id="Fill-88" fill="#1A1918"></path>
            <polyline id="Stroke-90" stroke="#1A1918" points="138.8976 162.1734 250.1576 162.1734 250.1576 340.0474 434.5356 340.0474"></polyline>
            <path d="M434.5355,342.0473 C435.6405,342.0473 436.5355,341.1523 436.5355,340.0473 C436.5355,338.9433 435.6405,338.0473 434.5355,338.0473 C433.4305,338.0473 432.5355,338.9433 432.5355,340.0473 C432.5355,341.1523 433.4305,342.0473 434.5355,342.0473" id="Fill-91" fill="#1A1918"></path>
            <polyline id="Stroke-93" stroke="#1A1918" points="114.0945 227.3702 190.6295 227.3702 190.6295 398.8662 434.5355 398.8662"></polyline>
            <path d="M434.5355,400.8663 C435.6405,400.8663 436.5355,399.9713 436.5355,398.8663 C436.5355,397.7613 435.6405,396.8663 434.5355,396.8663 C433.4305,396.8663 432.5355,397.7613 432.5355,398.8663 C432.5355,399.9713 433.4305,400.8663 434.5355,400.8663" id="Fill-94" fill="#1A1918"></path>
        </g>
    </g>
</svg>