<svg xmlns="http://www.w3.org/2000/svg" viewBox="0 0 248 248">
<path fill="#ffffff" d="M215.6,207.55c1.03-1.14,2.06-2.28,3.03-3.5l25.52-49.6c0.43-1.5,0.8-2.99,1.09-4.51L215.6,207.55z
	 M196.07,224.86c0.67-0.45,1.28-0.87,1.93-1.37l49.97-97.13c0.03-0.82,0.04-1.6,0.01-2.41L196.07,224.86z M182.02,233.52
	c0.57-0.25,1.12-0.55,1.68-0.86l63.44-123.31c-0.09-0.59-0.16-1.21-0.27-1.86L182.02,233.52z M169.37,239.36
	c0.55-0.21,1.04-0.4,1.55-0.63l73.71-143.27c-0.11-0.55-0.22-1.1-0.39-1.63L169.37,239.36z M157.71,243.29
	c0.49-0.09,0.96-0.25,1.45-0.43l81.99-159.37c-0.13-0.51-0.28-0.98-0.49-1.44L157.71,243.29z M146.8,245.85
	c0.43-0.07,0.9-0.13,1.37-0.28l88.79-172.6c-0.15-0.47-0.38-0.89-0.57-1.28L146.8,245.85z M136.4,247.33c0.39,0,0.86-0.05,1.29-0.12
	L232.2,63.49c-0.19-0.39-0.42-0.81-0.65-1.12L136.4,247.33z M126.41,248c0.41-0.03,0.84-0.01,1.27-0.08l99.28-192.98
	c-0.19-0.39-0.46-0.73-0.67-1.08L126.41,248z M116.95,247.75c0.39,0.1,0.78,0.11,1.19,0.07l103.2-200.61
	c-0.21-0.35-0.44-0.67-0.75-0.92L116.95,247.75z M2.72,98.01L32.36,40.4c-1.06,1.13-2.06,2.28-3.03,3.5L3.81,93.51
	C3.38,95.01,3.05,96.51,2.72,98.01z M108.88,247.09L215.36,40.11c-0.25-0.28-0.51-0.56-0.81-0.81L107.74,246.9
	C108.13,247.01,108.5,247.05,108.88,247.09z M99.99,245.62L209,33.73c-0.25-0.27-0.51-0.55-0.81-0.81L98.86,245.43
	C99.25,245.54,99.62,245.58,99.99,245.62z M91.42,243.62l110.97-215.7c-0.27-0.24-0.58-0.5-0.87-0.69L90.35,243.32
	C90.69,243.44,91.07,243.54,91.42,243.62z M0,121.95l50.27-97.72c-0.69,0.48-1.34,0.98-2.01,1.52L0.07,119.43
	C0.02,120.29-0.01,121.11,0,121.95z M83.12,241.02L195.45,22.68c-0.27-0.24-0.56-0.44-0.91-0.62L82.09,240.64
	C82.44,240.82,82.77,240.94,83.12,241.02z M75.1,237.88l113.13-219.9c-0.27-0.24-0.62-0.42-0.93-0.58L74.08,237.46
	C74.4,237.62,74.75,237.8,75.1,237.88z M0.9,138.94L64.62,15.09c-0.61,0.32-1.16,0.63-1.73,0.98l-62.2,120.9
	C0.7,137.61,0.79,138.29,0.9,138.94z M67.35,234.29L180.8,13.77c-0.04-0.02-0.04-0.02-0.08-0.04c-0.31-0.16-0.58-0.3-0.91-0.42
	L66.4,233.75c0.29,0.2,0.56,0.34,0.87,0.5C67.32,234.27,67.32,234.27,67.35,234.29z M59.89,230.05l113.12-219.9
	c-0.29-0.2-0.66-0.34-1.01-0.42L58.96,229.47C59.23,229.71,59.56,229.93,59.89,230.05z M3.4,152.82L77.35,9.09
	c-0.55,0.21-1.05,0.4-1.55,0.63L3.01,151.2C3.12,151.74,3.25,152.26,3.4,152.82z M52.71,225.37L165.03,7.03
	c-0.31-0.16-0.68-0.3-1.03-0.39L51.79,224.76C52.06,224.99,52.4,225.21,52.71,225.37z M6.89,164.7L89.03,5.02
	c-0.51,0.13-0.98,0.28-1.45,0.43L6.39,163.27C6.55,163.74,6.69,164.21,6.89,164.7z M45.74,220.17L156.75,4.39
	c-0.37-0.14-0.72-0.22-1.09-0.27L44.89,219.43C45.14,219.71,45.41,219.95,45.74,220.17z M11.11,175.24L100.06,2.33
	c-0.43,0.07-0.9,0.13-1.35,0.24L10.51,174C10.68,174.43,10.91,174.84,11.11,175.24z M39.08,214.38L148.16,2.34
	c-0.39-0.1-0.76-0.15-1.13-0.19L38.27,213.56C38.52,213.84,38.77,214.12,39.08,214.38z M32.75,208.02L139.32,0.88
	c-0.37-0.04-0.78-0.11-1.17-0.11L31.98,207.13C32.21,207.45,32.5,207.75,32.75,208.02z M15.89,184.68L110.52,0.73
	c-0.45,0.02-0.86,0.05-1.29,0.12L15.23,183.56C15.43,183.95,15.64,184.31,15.89,184.68z M26.75,200.95L130.07,0.11
	c-0.41-0.07-0.8-0.07-1.21-0.03L26.02,199.98C26.23,200.33,26.46,200.65,26.75,200.95z M21.09,193.21L120.49,0
	c-0.41,0.03-0.85,0.01-1.28,0.08l-98.8,192.05C20.61,192.52,20.88,192.86,21.09,193.21z"/>
</svg>
