<?xml version="1.0" standalone="no"?>
<!DOCTYPE svg PUBLIC "-//W3C//DTD SVG 20010904//EN"
 "http://www.w3.org/TR/2001/REC-SVG-20010904/DTD/svg10.dtd">
<svg version="1.0" xmlns="http://www.w3.org/2000/svg"
 width="512.000000pt" height="512.000000pt" viewBox="0 0 512.000000 512.000000"
 preserveAspectRatio="xMidYMid meet">
<metadata>
Created by potrace 1.14, written by Peter Selinger 2001-2017
</metadata>
<g transform="translate(0.000000,512.000000) scale(0.100000,-0.100000)"
fill="#000000" stroke="none">
<path d="M3455 3371 c-16 -10 -251 -241 -522 -512 -431 -433 -492 -499 -498
-531 -26 -143 110 -258 236 -200 33 15 172 149 536 513 435 437 492 498 499
532 16 89 -16 161 -86 197 -51 26 -125 26 -165 1z"/>
<path d="M3681 2996 c-43 -24 -1003 -989 -1017 -1023 -20 -46 -17 -92 9 -143
26 -53 59 -78 116 -91 94 -21 86 -28 549 434 l422 421 423 -421 c462 -462 454
-455 548 -434 57 13 90 38 117 91 24 49 28 100 9 143 -14 33 -980 1002 -1019
1023 -34 18 -125 18 -157 0z"/>
<path d="M1040 2744 c-39 -16 -741 -710 -766 -756 -20 -39 -18 -121 5 -167 23
-45 53 -66 115 -83 90 -24 99 -18 424 305 l292 292 288 -287 c341 -342 354
-350 469 -292 40 19 57 35 72 68 23 46 27 109 10 153 -15 42 -715 741 -764
764 -48 22 -98 23 -145 3z"/>
<path d="M1656 2750 c-16 -5 -42 -22 -59 -37 -64 -61 -76 -150 -28 -224 16
-24 186 -200 377 -390 269 -267 358 -349 387 -359 69 -22 153 8 200 72 30 41
34 124 9 174 -30 56 -717 739 -764 759 -41 16 -77 18 -122 5z"/>
</g>
</svg>
