<?xml version="1.0" encoding="UTF-8"?>
<svg width="24px" height="24px" viewBox="0 0 24 24" version="1.1" xmlns="http://www.w3.org/2000/svg" xmlns:xlink="http://www.w3.org/1999/xlink">
    <title>safari-pinned-tab</title>
    <g id="Social-icons" stroke="none" stroke-width="1" fill="none" fill-rule="evenodd">
        <g transform="translate(-202.000000, -541.000000)" fill="#000000" id="Safari-pinned-tab">
            <g transform="translate(202.000000, 477.000000)">
                <g id="safari-pinned-tab" transform="translate(0.000000, 64.000000)">
                    <path d="M12.9987442,20 C8.58746272,20 5,16.4117001 5,12.0004186 C5,7.58997436 8.58746272,4 12.9987442,4 C15.2064779,4 17.337188,4.93014494 18.8483596,6.55182879 C19.5323636,7.28606562 19.4913401,8.43556067 18.7571032,9.11956465 C18.0245408,9.80273141 16.8725341,9.76254513 16.1893674,9.02914552 C15.3521532,8.1299775 14.2194024,7.63434671 12.9987442,7.63434671 C10.5917534,7.63434671 8.6335095,9.59342787 8.6335095,12.0004186 C8.6335095,14.4082466 10.5917534,16.3664905 12.9987442,16.3664905 C14.2168908,16.3664905 15.3504788,15.8700225 16.1893674,14.9691801 C16.8725341,14.2349432 18.0237036,14.1930825 18.7571032,14.8770865 C19.4913401,15.5602533 19.5323636,16.7114227 18.8483596,17.4448224 C17.3363508,19.0690178 15.2048035,20 12.9987442,20" id="c"></path>
                </g>
            </g>
        </g>
    </g>
</svg>