<svg xmlns="http://www.w3.org/2000/svg" width="24px" height="24px" viewBox="0 0 24 24">
<path d="M23.6,1.5c0.3-0.1,0.4,0,0.4,0c0,0,0,0.2,0,0.5l0,0.3c0,0.1,0,0.1,0,0.2L24,3c0,0.1,0,0.1,0,0.2l0,1c0,0.1,0,0.2,0,0.3
    l0,2.3c0,0.1,0,0.2,0,0.4l0,1.9c0,0.1,0,0.3,0,0.4l0,0.8c0,0.1,0,0.3,0,0.4l0,0.8c0,0.1,0,0.3,0,0.4l0,0.8c0,4.4,0,8.5,0,8.6
    c0,0.2,0,0.3-0.1,0.4c0,0.1,0,0.1,0,0.1c0,0-0.2,0.6-0.3,0.8c-0.2,0.3-0.6,0.8-1,1c-0.1,0.1-0.4,0.2-0.6,0.2
    C21.7,24,21.6,24,20.9,24c-0.7,0-1.3,0-1.6-0.1c-0.1,0-0.2,0-0.4,0c-0.1,0-0.3,0-0.3,0c0,0-0.1,0-0.3,0c-0.4,0-0.6-0.1-0.6-0.1
    c0,0-0.1,0-0.2,0c-0.3,0-1.2-0.2-1.6-0.3c-0.2-0.1-0.5-0.1-0.5-0.1c-0.1,0-1-0.3-1.5-0.4l-0.2,0c-0.4-0.1-1.1-0.4-1.2-0.4
    c0,0-0.4-0.2-0.7-0.3c-1.3-0.6-2.7-1.3-3.9-2.2c-1.6-1.2-3.2-2.9-4.3-4.6c-0.3-0.5-0.7-1.1-0.7-1.2c0,0-0.1-0.1-0.1-0.2l0,0
    l-0.1-0.2l0.3-0.5c0.7-1.2,1.7-2.5,2.3-3.2c0,0,0.2-0.2,0.3-0.3c0.4-0.5,1.5-1.5,2-2C8.1,7,8.1,7,8.4,6.8c0.2-0.1,0.3-0.2,0.3-0.2
    c0,0,0.7-0.5,1.1-0.7c0.7-0.4,2-1.2,2.7-1.5c0.1-0.1,0.3-0.1,0.4-0.2C13.1,4.1,13.3,4,13.4,4c0.1,0,0.2-0.1,0.3-0.1
    c0.7-0.3,3.5-1.2,4.2-1.3c0.1,0,0.2,0,0.3-0.1c0.3-0.1,1.4-0.3,1.9-0.4C20.3,2,20.5,2,20.6,2l0,0c0.1,0,0.1,0,0.2,0
    c0.1,0,0.3,0,0.4-0.1c0.1,0,0.3,0,0.4-0.1c0.1,0,0.2,0,0.3,0c0.2,0,0.3,0,0.6-0.1c0,0,0.1,0,0.1,0l0.2,0c0.1,0,0.2,0,0.4,0
    C23.3,1.6,23.5,1.6,23.6,1.5z M2.1,14.4c0,0,0.1,0.1,0.1,0.2c0.3,0.5,0.8,1.4,1.2,1.9c1.1,1.4,2.4,2.8,3.9,3.9
    c0.4,0.3,1.3,0.9,1.6,1.1c0.1,0,0.3,0.2,0.5,0.3c0.4,0.2,1.5,0.8,2.1,1c1,0.4,2.6,0.9,3.4,1.1c0.1,0,0.2,0.1,0.2,0.1
    c0,0-0.5,0-1.2,0l-0.4,0c-0.1,0-0.1,0-0.2,0l-0.4,0c0,0-0.1,0-0.1,0l-0.3,0c-0.2,0-0.4,0-0.6,0l-0.4,0c-0.4,0-0.8,0-1.3,0l-0.6,0
    c-0.3,0-0.6,0-0.9,0L8,24c-0.5,0-1.1,0-1.6,0l-0.6,0l0,0l-0.3,0L0,24l0-2.3v-2.4l0.2-0.6c0.5-1.3,1-2.5,1.6-3.7
    C2,14.7,2.1,14.4,2.1,14.4z M0,8.9c0,0,0,0.1,0.1,0.2c0.1,0.6,0.9,2.9,1.1,3.2c0,0,0,0.2-0.2,0.5c-0.1,0.2-0.4,0.7-0.6,1.1
    C0.2,14.2,0,14.5,0,14.5c0,0,0-0.5,0-1.3l0-0.3c0-0.1,0-0.1,0-0.2l0-1.6C0,9.8,0,8.9,0,8.9z M17.1,0c0.1,0,0.2,0,0.3,0l0.7,0
    c0.1,0,0.2,0,0.2,0l0.4,0c0.1,0,0.1,0,0.2,0l0.4,0c0.1,0,0.1,0,0.2,0l0.3,0c0.5,0,0.9,0,1.1,0l0.1,0c0.1,0,0.1,0,0.1,0
    c0,0-0.1,0-0.3,0.1c-0.2,0-0.4,0.1-0.5,0.1c-0.1,0-0.4,0.1-0.6,0.1c-0.3,0.1-0.6,0.1-0.7,0.1s-0.3,0.1-0.3,0.1
    c-0.4,0.1-2.3,0.5-2.9,0.7C15.3,1.3,14,1.8,13.4,2C12,2.5,10.4,3.3,9.2,4C8.5,4.5,7,5.5,6.8,5.8c0,0-0.2,0.1-0.3,0.2L6.3,6.1
    C5.7,6.7,4.5,7.8,4,8.4C3.3,9.2,2.5,10.3,2,11c-0.2,0.3-0.3,0.5-0.4,0.5c0,0-0.3-0.8-0.5-1.4C0.9,9.4,0.7,8.4,0.5,7.7
    c0-0.2-0.1-0.4-0.1-0.4c0-0.1-0.2-0.9-0.2-1.1c0-0.2-0.1-0.4-0.1-0.6c0-0.1,0-0.1,0-0.3l0-0.2C0,4.4,0,3,0,2.3
    c0.1-1.2,0.8-2,1.8-2.3C2,0,2.8,0,6.8,0l0.5,0c0.1,0,0.2,0,0.3,0l0.6,0c0.1,0,0.2,0,0.3,0l1,0c0.1,0,0.2,0,0.3,0l1.5,0l0,0l0.4,0
    l0,0L17.1,0z"/>
</svg>
