<svg xmlns="http://www.w3.org/2000/svg" width="228px" height="44px" viewBox="0 0 228 44">
<path fill="#902082" d="M224.7,0.1L224.7,0.1c-5,1.5-8.5,6.1-8.5,11.3v19.5c0,1.5,1.2,2.7,2.7,2.7c1.5,0,2.7-1.2,2.7-2.7V17.4h1.9c1.5,0,2.7-1.2,2.7-2.7S225,12,223.5,12h-1.9v-0.7c0-2.8,1.8-5.3,4.5-6.1h0.1c1.4-0.5,2.1-2.1,1.6-3.5C227.3,0.5,226-0.2,224.7,0.1L224.7,0.1z M88.1,12.8c0-1.5-1.2-2.7-2.7-2.7s-2.7,1.2-2.7,2.7v9c0,3.6-2,6.5-5.5,6.5c-3.6,0-5.5-2.9-5.5-6.5v-9c0-1.5-1.2-2.7-2.7-2.7s-2.7,1.2-2.7,2.7v9c0,6.5,4.4,11.8,10.8,11.8c1.9,0,3.8-0.5,5.5-1.5v0.2c0,2.8-1.8,5.3-4.5,6.1h-0.1c-1.4,0.4-0.9,1.9-0.4,3.3c0.4,1.4,1.9,2.2,3.3,1.8l0,0c4.9-1.4,7.2-5.9,7.2-11.3V17.4v-0.2L88.1,12.8z M174.6,12.8c0-1.5-1.2-2.7-2.7-2.7c-1.5,0-2.7,1.2-2.7,2.7v9c0,3.6-2,6.5-5.5,6.5c-3.6,0-5.5-2.9-5.5-6.5v-9c0-1.5-1.2-2.7-2.7-2.7s-2.7,1.2-2.7,2.7v9c0,6.5,4.4,11.8,10.8,11.8c1.9,0,3.8-0.5,5.5-1.5v0.2c0,2.8-1.8,5.3-4.5,6.1h-0.1c-1.4,0.4-0.9,1.9-0.4,3.3c0.4,1.4,1.9,2.2,3.3,1.8l0,0c4.9-1.4,7.2-5.9,7.2-11.3V17.4v-0.2L174.6,12.8z M199.3,10.5L199.3,10.5c-5,1.5-8.5,6.1-8.5,11.3v9c0,1.5,1.2,2.7,2.7,2.7c1.5,0,2.7-1.2,2.7-2.7v-8.9c0-2.8,1.8-5.3,4.5-6.1h0.1c1.4-0.5,2-2.1,1.5-3.5C201.8,11,200.5,10.3,199.3,10.5L199.3,10.5z M30.4,1.7c-1.5,0-2.7,1.2-2.7,2.7s1.2,2.7,2.7,2.7c1.5,0,2.7-1.2,2.7-2.7S31.9,1.7,30.4,1.7L30.4,1.7z M30.4,10.1c-1.5,0-2.7,1.2-2.7,2.7v18.1c0,1.5,1.2,2.7,2.7,2.7c1.5,0,2.7-1.2,2.7-2.7V12.8C33.1,11.3,31.9,10.1,30.4,10.1L30.4,10.1z M208.7,1.7c-1.5,0-2.7,1.2-2.7,2.7s1.2,2.7,2.7,2.7c1.5,0,2.7-1.2,2.7-2.7S210.2,1.7,208.7,1.7L208.7,1.7z M208.7,10.1c-1.5,0-2.7,1.2-2.7,2.7v18.1c0,1.5,1.2,2.7,2.7,2.7c1.5,0,2.7-1.2,2.7-2.7V12.8C211.3,11.3,210.2,10.1,208.7,10.1L208.7,10.1z M186.2,12.1h-1.9v-0.8c0-2.8,1.8-5.3,4.5-6.1h0.1c1.4-0.5,2.1-2.1,1.6-3.5c-0.4-1.2-1.7-1.9-3.1-1.7c-5,1.5-8.5,6.1-8.5,11.3v19.5c0,1.5,1.2,2.7,2.7,2.7c1.5,0,2.7-1.2,2.7-2.7V17.4h1.9c1.5,0,2.7-1.2,2.7-2.7S187.6,12.1,186.2,12.1L186.2,12.1z M140.7,15.4c1.7,0,3.5,0.8,4.7,2.1c1,1,2.7,1.1,3.8,0.1s1.1-2.7,0.1-3.8c-4.5-4.8-11.9-5.1-16.7-0.6c-4.8,4.5-5.1,11.9-0.6,16.7c4.5,4.8,11.9,5.1,16.7,0.6c0.2-0.2,0.4-0.4,0.6-0.6c1-1,1.1-2.7,0.1-3.8c-1-1-2.7-1.1-3.8-0.1c-0.1,0.1-0.2,0.2-0.3,0.3c-1.2,1.3-2.9,2.1-4.7,2.1c-3.6,0-6.5-2.9-6.5-6.5C134.3,18.3,137.1,15.4,140.7,15.4L140.7,15.4z M56.7,19.8c-3.8-0.8-5.2-1.1-5.2-2.4c0-1.4,1.9-2.1,4-2.1c1,0,2.1,0.3,3.1,0.6c0.3,0.2,0.7,0.3,1.1,0.3c1.4,0,2.4-1.1,2.4-2.4c0-1-0.7-2-1.7-2.4c-1.6-0.6-3.2-0.9-4.9-0.9c-6,0-9.5,3.5-9.5,6.9c0,4.2,3.8,6.1,8.2,7c3.3,0.7,4.4,1,4.4,2.4c0,1.3-1.9,2-4.2,2c-2.1,0-3.7-0.9-5.1-1.6c-0.3-0.1-0.6-0.2-1-0.2c-1.4,0-2.5,1.1-2.5,2.5c0,1,0.5,1.8,1.4,2.3c2.2,1.2,4.7,1.9,7.3,1.9c5.7,0,9.7-3.1,9.7-6.8C64.2,22.2,61.1,20.8,56.7,19.8L56.7,19.8z M20.5,33.4c-1.5,0-2.6-1.1-2.6-2.6l0,0V22c-0.3-3.5-3.3-6.1-6.8-5.9c-3.1,0.3-5.7,2.7-5.9,5.9v8.8c-0.1,1.5-1.3,2.6-2.7,2.5S0,32.2,0,30.8V22c0-6.5,5.2-11.6,11.6-11.6c6.5,0,11.6,5.2,11.6,11.6v8.8C23.1,32.3,22,33.4,20.5,33.4L20.5,33.4L20.5,33.4z M114.5,33.4c-1.5,0-2.6-1.2-2.6-2.6l0,0V22c0.1-3.5-2.7-6.4-6.2-6.5c-3.5-0.1-6.4,2.7-6.5,6.2c0,0.1,0,0.2,0,0.3v8.8c-0.1,1.5-1.3,2.6-2.7,2.5c-1.4-0.1-2.5-1.1-2.5-2.5V22c0-6.5,5.2-11.6,11.6-11.6c6.5,0,11.6,5.2,11.6,11.6v8.8C117.1,32.3,116,33.4,114.5,33.4L114.5,33.4L114.5,33.4z M96,9.5L96,9.5c0.9-1,1.3-2.3,1.3-3.6V4.7c0-0.8-0.3-1.5-0.9-2s-1.2-0.9-2-0.8c-0.8,0-1.5,0.3-2,0.9c-0.5,0.5-0.9,1.2-0.9,2s0.3,1.5,0.9,2c0.4,0.4,1,0.7,1.6,0.8c-0.1,0.2-0.2,0.3-0.3,0.3c-0.2,0.2-0.4,0.3-0.8,0.3c-0.8,0-1.5,0.7-1.5,1.5s0.7,1.5,1.5,1.5C94.1,11.1,95.1,10.6,96,9.5L96,9.5z"></path>
</svg>
