<svg xmlns="http://www.w3.org/2000/svg" width="147px" height="48px" viewBox="0 0 147 48">
    <title>NISRA - Northern Ireland Statistics and Research Agency</title>
    <path d="M44.1,34.6c-1.3,2.3-2.9,4.2-4.7,5.9c-0.3,0.2-0.5,0.5-0.8,0.7c-4.6,4-10.6,6.1-16.6,6.1 c-4.3,0-8.7-1.1-12.7-3.4c-4.1-2.3-7-5.3-9.3-9.3l4.6-2.7l0.9-0.5l16.1-9.3l0.5-0.3l0.5,0.3l7.4,4.3l1,0.6L44.1,34.6z M21.6,21 L21.6,21l0-15.7v-1h1c2.7,0,5.3,0.4,7.9,1.2V0.7c-4.7,0-8.7,1.1-12.7,3.4C8.2,9.5,3.6,20.2,5.3,30.4L21.6,21z M31.5,6.9 c-0.3-0.1-0.7-0.2-1-0.3c-2.5-0.8-5.1-1.2-7.9-1.2V21l7.9,4.5l1,0.6l13.2,7.6l0.9,0.5L45,35.1c-1.3,2.2-2.9,4.2-4.7,5.9l4.3,2.5 c2.3-4.1,3.4-8.1,3.4-12.7C48.1,19.8,41.2,10.5,31.5,6.9z M89.3,37v-5.3h-1V37H89.3z M64.2,33V37H65v-1.6c0-0.6,0.1-1,0.3-1.2 c0.3-0.3,0.6-0.3,0.8-0.3v-1c-0.8,0-1.1,0.8-1.2,1.1V33H64.2z M73.5,42.6l0.9,2.4h-1l-0.8-2.2h-1.4v2.2h-1v-5.3h2.3 c0.7,0,1.1,0.1,1.4,0.4c0.3,0.2,0.5,0.6,0.5,1.1C74.5,42.1,73.8,42.4,73.5,42.6z M73.5,41.1c0-0.4-0.3-0.8-0.9-0.8h-1.3v1.6h1.2 C72.9,41.9,73.5,41.8,73.5,41.1z M78.6,33V37h0.9v-1.6c0-0.6,0.1-1,0.3-1.2c0.3-0.3,0.6-0.3,0.8-0.3v-1c-0.8,0-1.1,0.8-1.2,1.1V33 H78.6z M120.1,36.7c0.2,0.2,0.5,0.3,0.8,0.3c0.2,0,0.4,0,0.6-0.1v-0.7c-0.1,0-0.2,0-0.2,0c-0.5,0-0.6-0.1-0.6-0.6v-1.9h0.8V33h-0.8 v-1.1L120,32l-0.1,1h-0.5v0.7h0.5v2C119.8,36.2,119.9,36.5,120.1,36.7z M93.9,35.1c0,0.3,0,0.6,0.2,0.9c0.2,0.2,0.4,0.4,0.7,0.4 c0.6,0,0.8-0.4,0.9-0.6l0.8,0.1c-0.3,0.9-1,1.2-1.7,1.2c-1.3,0-1.8-1-1.8-2c0-1.2,0.7-2.1,1.9-2.1c1.3,0,1.8,1,1.8,2.2H93.9z M93.9,34.5h1.8c0-0.2,0-0.4-0.2-0.6c-0.2-0.2-0.4-0.3-0.7-0.3s-0.5,0.1-0.7,0.4C93.9,34.2,93.9,34.3,93.9,34.5z M75.9,37 c-1.3,0-1.8-1-1.8-2c0-1.2,0.7-2.1,1.9-2.1c1.3,0,1.8,1,1.8,2.2H75c0,0.3,0,0.6,0.2,0.9c0.2,0.2,0.4,0.4,0.7,0.4 c0.6,0,0.8-0.4,0.9-0.6l0.8,0.1C77.4,36.7,76.7,37,75.9,37z M75,34.5h1.8c0-0.2,0-0.4-0.2-0.6c-0.2-0.2-0.4-0.3-0.7-0.3 s-0.5,0.1-0.7,0.4C75.1,34.2,75,34.3,75,34.5z M58,35.4c-0.2-0.4-0.3-0.6-0.3-0.6l-1.9-3.1h-1.1V37h0.8l0-4l0,0 c0,0.1,0.2,0.5,0.3,0.6l2.1,3.4h0.9v-5.3H58V35.4z M70.8,35.1c0-0.5,0-0.7,0.2-1c0.1-0.2,0.4-0.4,0.7-0.4c0.6,0,0.6,0.5,0.6,0.9 l0,2.5h0.9v-2.5c0-1.1-0.4-1.6-1.2-1.6c-0.8,0-1.1,0.6-1.2,0.9v-2.1h-0.9V37h0.9V35.1z M63.3,35c0,1.3-0.9,2.1-1.9,2.1 c-1.3,0-1.8-1.2-1.8-2.1c0-1.1,0.7-2,1.9-2C62.6,32.9,63.3,33.9,63.3,35z M62.3,35c0-0.7-0.2-1.3-0.9-1.3c-0.7,0-0.9,0.7-0.9,1.3 c0,0.2,0,1.3,0.9,1.3C62.2,36.3,62.3,35.4,62.3,35z M57.9,44.1c0,0.4,0.1,0.7,0.1,0.8h-0.8c-0.1-0.3-0.1-0.5-0.1-0.8 c-0.1,0.3-0.4,0.9-1.3,0.9c-0.8,0-1.3-0.6-1.3-1.2c0-1.3,1.8-1.4,2.6-1.4v-0.3c0-0.5-0.4-0.6-0.8-0.6c-0.8,0-0.9,0.4-0.9,0.6 L54.5,42c0.2-0.9,1-1.1,1.8-1.1c0.4,0,0.9,0.1,1.2,0.3c0.4,0.4,0.4,0.7,0.4,1.2V44.1z M57,42.9c-0.6,0-0.9,0.1-1.1,0.1 c-0.2,0.1-0.6,0.2-0.6,0.7c0,0.1,0.1,0.6,0.7,0.6c0.9,0,1-0.7,1-1.1V42.9z M61,40.9c-0.7,0-1,0.7-1.2,1V41H59v3.9h0.9v-1.8 c0-1.4,0.7-1.4,0.9-1.4c0.2,0,0.6,0,0.6,0.9v2.3h0.9l0-2.5C62.3,41.9,62.2,40.9,61,40.9z M68.2,35.6v-1.9H69V33h-0.8v-1.1L67.5,32 l-0.1,1h-0.5v0.7h0.5v2c0,0.4,0,0.7,0.3,1c0.2,0.2,0.5,0.3,0.8,0.3c0.2,0,0.4,0,0.6-0.1v-0.7c-0.1,0-0.2,0-0.2,0 C68.4,36.3,68.2,36.2,68.2,35.6z M76.1,43c0,0.3,0,0.6,0.2,0.9c0.2,0.2,0.4,0.4,0.7,0.4c0.6,0,0.8-0.4,0.9-0.6l0.8,0.1 c-0.3,0.9-1,1.2-1.7,1.2c-1.3,0-1.8-1-1.8-2c0-1.2,0.7-2.1,1.9-2.1c1.3,0,1.8,1,1.8,2.2H76.1z M76.1,42.5h1.8c0-0.2,0-0.4-0.2-0.6 c-0.2-0.2-0.4-0.3-0.7-0.3c-0.3,0-0.5,0.1-0.7,0.4C76.2,42.1,76.1,42.3,76.1,42.5z M65.8,39.6h0.9v5.3h-0.8l0-0.8l0,0.1 c-0.1,0.3-0.4,0.7-1,0.8l-0.2,0c-1.4,0-1.5-1.7-1.5-2.1c0-0.8,0.3-2.1,1.5-2.1c0.4,0,0.8,0.1,1.1,0.7v0l0,0c0,0,0,0,0,0L65.8,39.6z M65.8,42.6c0-0.3,0-0.5-0.2-0.7c-0.1-0.2-0.4-0.3-0.6-0.3c-0.8,0-0.8,1-0.8,1.4l0,0.1c0,0.3,0.1,1.3,0.8,1.3c0.4,0,0.8-0.4,0.8-1 V42.6z M129.4,32.6h0.9v-0.9h-0.9V32.6z M124.8,41.6c0.4,0,0.7,0.2,0.7,0.7l0.8-0.1c-0.1-0.3-0.2-1.4-1.5-1.4c-1.2,0-1.8,1-1.8,2 c0,0.9,0.4,2.1,1.7,2.1c1.3,0,1.5-1.1,1.6-1.4l-0.8-0.1c-0.1,0.4-0.4,0.8-0.8,0.8c-0.8,0-0.8-1.1-0.8-1.2c0-0.2,0-0.5,0.1-0.7 C124.1,42,124.3,41.6,124.8,41.6z M126.9,35.8c0,0.4,0,0.7,0.3,1c0.2,0.2,0.5,0.3,0.8,0.3c0.2,0,0.4,0,0.6-0.1v-0.7 c-0.1,0-0.2,0-0.2,0c-0.5,0-0.6-0.1-0.6-0.6v-1.9h0.8V33h-0.8v-1.1L127,32l-0.1,1h-0.5v0.7h0.5V35.8z M128.4,43.6l-1-2.6h-0.9 l1.4,3.7c0,0,0.1,0.2,0.1,0.2c0,0.1-0.1,0.5-0.2,0.6c-0.2,0.1-0.4,0.1-0.9,0.1v0.7c0.3,0,0.5,0,0.5,0c0.4,0,0.8-0.1,1.1-0.9L130,41 h-0.7L128.4,43.6z M123.4,37c-0.8,0-1.3-0.6-1.3-1.2c0-1.3,1.8-1.4,2.6-1.4v-0.3c0-0.5-0.4-0.6-0.8-0.6c-0.8,0-0.9,0.4-0.9,0.6 l-0.8-0.1c0.2-0.9,1-1.1,1.8-1.1c0.4,0,0.9,0.1,1.2,0.3c0.4,0.4,0.4,0.7,0.4,1.2v1.8c0,0.4,0.1,0.7,0.1,0.8h-0.8 c-0.1-0.3-0.1-0.5-0.1-0.8l0,0l0,0.1c-0.1,0.3-0.4,0.8-1.1,0.8L123.4,37z M123.7,36.4c0.9,0,1-0.7,1-1.1V35c-0.6,0-0.9,0.1-1.1,0.1 c-0.2,0.1-0.6,0.2-0.6,0.7C123,35.9,123.1,36.4,123.7,36.4z M117.5,33.9l-0.9-0.2c-0.3-0.1-0.7-0.2-0.7-0.6c0-0.3,0.2-0.7,0.9-0.7 c0.8,0,0.9,0.4,1,0.6l0.9-0.2c0-0.2-0.1-0.4-0.4-0.7c-0.4-0.3-0.9-0.5-1.5-0.5c-1.1,0-1.9,0.6-1.9,1.6c0,0.7,0.4,1.2,1.2,1.4 l1.2,0.3c0.2,0.1,0.7,0.2,0.7,0.7c0,0.2-0.2,0.7-1.1,0.7c-0.2,0-0.4,0-0.7-0.1c-0.5-0.2-0.6-0.5-0.6-0.7l-0.9,0.2 c0.1,0.2,0.2,0.6,0.5,0.9c0.4,0.4,1,0.5,1.6,0.5c1.2,0,2.1-0.6,2.1-1.7C118.9,34.2,118,34,117.5,33.9z M129.4,37h0.9V33h-0.9V37z M120.8,40.9c-0.7,0-1,0.7-1.2,1V41h-0.8v3.9h0.9v-1.8c0-1.4,0.7-1.4,0.9-1.4c0.2,0,0.6,0,0.6,0.9v2.3h0.9v-2.3 C122.1,42.1,122.1,40.9,120.8,40.9z M115.2,43c0,0.3,0,0.6,0.2,0.9c0.2,0.2,0.4,0.4,0.7,0.4c0.6,0,0.8-0.4,0.9-0.6l0.8,0.1 c-0.3,0.9-1,1.2-1.7,1.2c-1.3,0-1.8-1-1.8-2c0-1.2,0.7-2.1,1.9-2.1c1.3,0,1.8,1,1.8,2.2H115.2z M115.2,42.5h1.8c0-0.2,0-0.4-0.2-0.6 c-0.2-0.2-0.4-0.3-0.7-0.3c-0.3,0-0.5,0.1-0.7,0.4C115.3,42.1,115.3,42.3,115.2,42.5z M141.4,33.7c0.4,0,0.7,0.2,0.7,0.7l0.8-0.1 c-0.1-0.3-0.2-1.4-1.5-1.4c-1.2,0-1.8,1-1.8,2c0,0.9,0.4,2.1,1.7,2.1c1.3,0,1.5-1.1,1.6-1.4l-0.8-0.1c-0.1,0.4-0.4,0.8-0.8,0.8 c-0.8,0-0.8-1.1-0.8-1.2c0-0.2,0-0.5,0.1-0.7C140.8,34.1,140.9,33.7,141.4,33.7z M145.6,34.6l-0.8-0.2c-0.3-0.1-0.6-0.2-0.6-0.4 c0-0.3,0.2-0.4,0.7-0.4c0.6,0,0.7,0.3,0.7,0.4l0.8-0.2c-0.2-0.8-1.1-0.9-1.5-0.9c-1.3,0-1.5,0.8-1.5,1.3c0,0.9,0.8,1.1,1.2,1.2 l0.7,0.1c0.2,0,0.4,0.1,0.4,0.4c0,0.5-0.6,0.5-0.8,0.5c-0.6,0-0.8-0.3-0.8-0.5l-0.8,0.2c0.2,0.6,0.7,1,1.7,1c0.5,0,1.7-0.2,1.7-1.3 C146.6,35.1,146.2,34.8,145.6,34.6z M137.8,32.6h0.9v-0.9h-0.9V32.6z M136.1,35.6v-1.9h0.8V33h-0.8v-1.1l-0.7,0.1l-0.1,1h-0.5v0.7 h0.5v2c0,0.4,0,0.7,0.3,1c0.2,0.2,0.5,0.3,0.8,0.3c0.2,0,0.4,0,0.6-0.1v-0.7c-0.1,0-0.2,0-0.2,0C136.3,36.3,136.1,36.2,136.1,35.6z M81.6,42.6l-0.8-0.2c-0.3-0.1-0.6-0.2-0.6-0.4c0-0.3,0.2-0.4,0.7-0.4c0.6,0,0.7,0.3,0.7,0.4l0.8-0.2c-0.2-0.8-1.1-0.9-1.5-0.9 c-1.3,0-1.5,0.8-1.5,1.3c0,0.9,0.8,1.1,1.2,1.2l0.7,0.1c0.2,0,0.4,0.1,0.4,0.4c0,0.5-0.6,0.5-0.8,0.5c-0.6,0-0.8-0.3-0.8-0.5 L79.2,44c0.2,0.6,0.7,1,1.7,1c0.5,0,1.7-0.2,1.7-1.3C82.6,43.1,82.3,42.7,81.6,42.6z M137.8,37h0.9V33h-0.9V37z M133.4,34.6 l-0.8-0.2c-0.3-0.1-0.6-0.2-0.6-0.4c0-0.3,0.2-0.4,0.7-0.4c0.6,0,0.7,0.3,0.7,0.4l0.8-0.2c-0.2-0.8-1.1-0.9-1.5-0.9 c-1.3,0-1.5,0.8-1.5,1.3c0,0.9,0.8,1.1,1.2,1.2l0.7,0.1c0.2,0,0.4,0.1,0.4,0.4c0,0.5-0.6,0.5-0.8,0.5c-0.6,0-0.8-0.3-0.8-0.5 l-0.8,0.2c0.2,0.6,0.7,1,1.7,1c0.5,0,1.7-0.2,1.7-1.3C134.4,35.1,134,34.8,133.4,34.6z M92.5,32.9c-0.8,0-1.1,0.8-1.2,1.1V33h-0.8 V37h0.9v-1.6c0-0.6,0.1-1,0.3-1.2c0.3-0.3,0.6-0.3,0.8-0.3V32.9z M92.9,41.8L92.9,41.8l0-0.9h-0.8v3.9H93v-1.6c0-0.6,0.1-1,0.3-1.2 c0.3-0.3,0.6-0.3,0.8-0.3v-1l-0.2,0C93.3,40.9,93,41.5,92.9,41.8z M91,44.1c0,0.4,0.1,0.7,0.1,0.8h-0.8c-0.1-0.3-0.1-0.5-0.1-0.8 C90,44.4,89.7,45,88.7,45c-0.8,0-1.3-0.6-1.3-1.2c0-1.3,1.8-1.4,2.6-1.4v-0.3c0-0.5-0.4-0.6-0.8-0.6c-0.8,0-0.9,0.4-0.9,0.6L87.6,42 c0.2-0.9,1-1.1,1.8-1.1c0.4,0,0.9,0.1,1.2,0.3c0.4,0.4,0.4,0.7,0.4,1.2V44.1z M90.1,42.9c-0.6,0-0.9,0.1-1.1,0.1 c-0.2,0.1-0.6,0.2-0.6,0.7c0,0.1,0.1,0.6,0.7,0.6c0.9,0,1-0.7,1-1.1V42.9z M96.4,41.6c0.4,0,0.7,0.2,0.7,0.7l0.8-0.1 c-0.1-0.3-0.2-1.4-1.5-1.4c-1.2,0-1.8,1-1.8,2c0,0.9,0.4,2.1,1.7,2.1c1.3,0,1.5-1.1,1.6-1.4l-0.8-0.1c-0.1,0.4-0.4,0.8-0.8,0.8 c-0.8,0-0.8-1.1-0.8-1.2c0-0.2,0-0.5,0.1-0.7C95.7,42,95.9,41.6,96.4,41.6z M83.2,33.7c0.2,0,0.6,0,0.6,0.9V37h0.9l0-2.5 c0-0.6-0.1-1.5-1.3-1.5c-0.7,0-1,0.7-1.2,1V33h-0.8V37h0.9v-1.8C82.3,33.8,83,33.7,83.2,33.7L83.2,33.7z M84.1,43 c0,0.3,0,0.6,0.2,0.9c0.2,0.2,0.4,0.4,0.7,0.4c0.6,0,0.8-0.4,0.9-0.6l0.8,0.1c-0.3,0.9-1,1.2-1.7,1.2c-1.3,0-1.8-1-1.8-2 c0-1.2,0.7-2.1,1.9-2.1c1.3,0,1.8,1,1.8,2.2H84.1z M84.1,42.5h1.8c0-0.2,0-0.4-0.2-0.6c-0.2-0.2-0.4-0.3-0.7-0.3 c-0.3,0-0.5,0.1-0.7,0.4C84.1,42.1,84.1,42.3,84.1,42.5z M102.8,36.2c0,0.4,0.1,0.7,0.1,0.8H102c-0.1-0.3-0.1-0.5-0.1-0.8l0,0l0,0.1 c-0.1,0.3-0.4,0.8-1.1,0.8l-0.2,0c-0.8,0-1.3-0.6-1.3-1.2c0-1.3,1.8-1.4,2.6-1.4v-0.3c0-0.5-0.4-0.6-0.8-0.6c-0.8,0-0.9,0.4-0.9,0.6 l-0.8-0.1c0.2-0.9,1-1.1,1.8-1.1c0.4,0,0.9,0.1,1.2,0.3c0.4,0.4,0.4,0.7,0.4,1.2V36.2z M101.9,35c-0.6,0-0.9,0.1-1.1,0.1 c-0.2,0.1-0.6,0.2-0.6,0.7c0,0.1,0.1,0.6,0.7,0.6c0.9,0,1-0.7,1-1.1V35z M107.9,39.6l1.8,5.3h-1l-0.4-1.3h-2l-0.4,1.3h-0.8l1.8-5.3 H107.9z M108,42.9l-0.8-2.4l-0.8,2.4H108z M105.6,33.7L105.6,33.7c0.2,0,0.6,0,0.6,0.9V37h0.9v-2.3c0-0.5,0-1.7-1.3-1.7 c-0.7,0-1,0.7-1.2,1V33h-0.8V37h0.9v-1.8C104.8,33.8,105.4,33.7,105.6,33.7z M109.7,37l-0.2,0c-1.4,0-1.5-1.7-1.5-2.1 c0-0.8,0.3-2.1,1.5-2.1c0.4,0,0.8,0.1,1.1,0.7v-1.9h0.9V37h-0.8l0-0.8l0,0.1C110.6,36.5,110.3,37,109.7,37z M109.8,36.3 c0.4,0,0.8-0.4,0.8-1v-0.7c0-0.3,0-0.5-0.2-0.7c-0.1-0.2-0.4-0.3-0.6-0.3c-0.8,0-0.8,1-0.8,1.4C109,35.3,109,36.3,109.8,36.3z M113.7,40.2h0.3v0.7h-0.3c-0.3,0-0.4,0.1-0.6,0.3c0.2,0.2,0.5,0.4,0.5,0.8c0,0.7-0.6,1.2-1.6,1.2c-0.3,0-0.5,0-0.7-0.1 c-0.1,0.1-0.3,0.1-0.3,0.4c0,0.1,0.1,0.4,0.6,0.4h1c1,0,1.4,0.6,1.4,1.1c0,0.5-0.4,1.3-2,1.3c-1,0-1.9-0.2-1.9-1.1 c0-0.5,0.3-0.6,0.6-0.8c-0.2-0.2-0.4-0.4-0.4-0.6c0-0.5,0.4-0.7,0.6-0.8c-0.2-0.1-0.6-0.4-0.6-0.9c0-0.4,0.2-1.2,1.6-1.2 c0.4,0,0.5,0,0.8,0.1c0.1-0.3,0.2-0.5,0.4-0.6C113.2,40.3,113.4,40.2,113.7,40.2z M110.9,44.7c-0.1,0.1-0.2,0.2-0.2,0.3 c0,0.2,0.3,0.5,0.6,0.6c0.3,0.1,0.5,0.1,0.7,0.1c0.4,0,1-0.1,1-0.5c0-0.3-0.3-0.4-0.6-0.4h-0.6C111.6,44.8,111.2,44.8,110.9,44.7z M112.6,42.1c0-0.2-0.1-0.6-0.7-0.6c-0.6,0-0.7,0.4-0.7,0.7c0,0.3,0.2,0.6,0.7,0.6c0.2,0,0.4-0.1,0.5-0.1 C112.6,42.4,112.6,42.3,112.6,42.1z M100.7,40.8c-0.8,0-1.1,0.6-1.2,0.9v-2.1h-0.9v5.3h0.9V43c0-0.5,0-0.7,0.2-1 c0.1-0.2,0.4-0.4,0.7-0.4c0.6,0,0.6,0.5,0.6,0.9l0,2.5h0.9v-2.5C101.9,41.3,101.5,40.8,100.7,40.8z M97.5,37h0.9v-5.3h-0.9V37z M110,27.7h-4.2V4.2h10.2c2.9,0,4.7,0.6,6.1,1.8c1.2,1.1,2.1,2.7,2.1,5.1c0,4.4-3,5.7-4.2,6.2l4.1,10.4h-4.5l-3.7-9.6h-6V27.7z M110,14.6h5.3c2.1,0,4.5-0.7,4.5-3.6c0-1.8-1.2-3.5-4.2-3.5H110V14.6z M129.2,27.7h-3.6l7.8-23.5h5.2l7.9,23.5h-4.5l-1.9-5.6h-9 L129.2,27.7z M132.1,18.7h6.8l-3.4-10.5L132.1,18.7z M93.3,24.6c-0.8,0-1.8-0.1-2.9-0.5c-2.1-0.7-2.5-2.2-2.7-3L83.6,22 c0.4,1.1,0.8,2.5,2.4,3.8c1.9,1.5,4.4,2.2,7.2,2.2c5.4,0,9.3-2.7,9.3-7.4c0-5-4.1-6.2-6.1-6.7l-4-1c-1.2-0.3-3.3-1-3.3-2.8 c0-1.2,0.8-2.9,4-2.9c3.3,0,4,1.9,4.3,2.7l4-1c-0.2-0.8-0.6-1.9-2-3c-1.8-1.4-4.1-2-6.4-2c-4.7,0-8.3,2.6-8.3,7c0,3,1.7,5.4,5.1,6.3 l5.2,1.3c1.1,0.3,2.9,0.8,2.9,3.1C98,22.6,97.2,24.6,93.3,24.6z M57.8,10.1c0.2,0.4,1.1,2.2,1.3,2.6l9.2,15h3.9V4.2h-3.4v16.6 c-0.8-1.5-1.4-2.6-1.4-2.7L59.1,4.2h-4.7v23.5h3.4V10.1z M81.2,4.2h-4.2v23.5h4.2V4.2z" fill="#222222"></path>
</svg>
