<svg xmlns="http://www.w3.org/2000/svg" width="189px" height="19px" viewBox="0 0 189 19">
    <title>Swyddfa Ystadegau Gwladol</title>
    <path d="M67.5,7.1c-1,0-1.9,0.3-2.3,0.5l0.3,0.7c0.4-0.2,1.2-0.4,1.9-0.4c1.1,0,1.9,0.4,1.9,1.6v0.5 c-2.5,0.2-4.5,0.8-4.5,2.9c0,1.4,0.9,2.3,2.9,2.3c1.1,0,2-0.2,2.6-0.5v-5C70.2,7.7,68.9,7.1,67.5,7.1z M69.1,14.1 c-0.3,0.2-0.9,0.3-1.5,0.3c-1.2,0-2-0.5-2-1.6c0-1.7,1.4-2,3.5-2.3V14.1z M90.7,7.3h1.4v1h-1.4v4.7c0,0.6,0.3,1.1,1,1.1 c0.1,0,0.3,0,0.4-0.1v1c-0.1,0.1-0.5,0.2-0.9,0.2c-1.5,0-2.1-1-2.1-2.1V8.3h-1v-1h1V5.5l1.5-0.5V7.3z M80.3,5.1h1.6L79,10.7v4.3 h-1.6v-4.3l-2.8-5.5h1.7l2,4.2h0L80.3,5.1z M87.3,12.7c0,1.2-1.1,2.4-2.8,2.4c-0.9,0-1.8-0.3-2.2-0.6l0.4-1.1 c0.3,0.2,0.9,0.5,1.6,0.5c0.8,0,1.4-0.5,1.4-1.2c0-1.8-3.2-1-3.2-3.5c0-1.1,1-2.2,2.5-2.2c0.9,0,1.5,0.2,2,0.6l-0.4,1 c-0.2-0.2-0.7-0.4-1.3-0.4c-0.8,0-1.3,0.5-1.3,1.1C84,10.9,87.3,10.2,87.3,12.7z M27.5,12.2c0,1.7-1.3,2.9-3.1,2.9 c-1,0-1.9-0.2-2.4-0.5l0.3-0.9c0.4,0.2,1.1,0.5,1.8,0.5c1.2,0,2.2-0.8,2.2-1.9c0-1.1-0.9-1.5-1.8-1.9l-0.3-0.1c-1-0.4-2-1-2-2.5 c0-1.5,1.1-2.8,2.9-2.8c0.9,0,1.7,0.3,2.1,0.5l-0.3,0.8c-0.3-0.2-1-0.5-1.7-0.5c-1.2,0-1.9,0.8-1.9,1.8C23.3,10,27.5,8.9,27.5,12.2z M58.1,7.3c-0.4-0.1-0.8-0.2-1.3-0.2c-2.1,0-3.4,1.5-3.4,4.1c0,2.4,1.2,3.9,3.4,3.9c1.1,0,1.9-0.2,2.4-0.5V3.8h-1.1V7.3z M58.1,14.1 c-0.3,0.2-0.7,0.3-1.3,0.3c-1.7,0-2.4-1.3-2.4-3.2c0-1.7,0.7-3.3,2.6-3.3c0.4,0,0.8,0,1.1,0.1V14.1z M37.4,7.3h1l-2.3,7.7h-1 l-1.6-5.6c-0.1-0.5-0.2-0.9-0.2-0.9h0c0,0,0,0.5-0.2,0.9l-1.7,5.6h-1l-2.3-7.7h1.1l1.5,5.6c0.1,0.4,0.2,0.8,0.2,0.9l0,0h0 c0,0,0-0.5,0.2-1l1.6-5.6h1l1.6,5.6c0.1,0.4,0.2,1,0.2,1h0c0,0,0.1-0.6,0.2-1L37.4,7.3z M50.9,7.3c-0.4-0.1-0.8-0.2-1.3-0.2 c-2.1,0-3.4,1.5-3.4,4.1c0,2.4,1.2,3.9,3.4,3.9c1.1,0,1.9-0.2,2.4-0.5V3.8h-1.1V7.3z M50.9,14.1c-0.3,0.2-0.7,0.3-1.3,0.3 c-1.7,0-2.4-1.3-2.4-3.2c0-1.7,0.7-3.3,2.6-3.3c0.4,0,0.8,0,1.1,0.1V14.1z M63.8,3.7c0.1,0,0.2,0,0.2,0v0.7H64 c-0.7,0-1.4,0.5-1.4,1.6v1.2h1.5v0.7h-1.5v7h-1.1v-7h-1.1V7.3h1.1V6.1C61.5,4.8,62.3,3.7,63.8,3.7z M44.4,7.3h1L41.7,18h-1.2 l1.3-3.1l-2.7-7.7h1.2l1.7,5.6c0.2,0.5,0.2,1,0.2,1h0c0,0,0.1-0.5,0.3-1L44.4,7.3z M167.1,7.1c-1.2,0-2.1,0.3-2.6,0.6l0.4,0.9 c0.5-0.2,1.3-0.4,2-0.4c1,0,1.7,0.3,1.7,1.4v0.4c-2.4,0.2-4.5,0.8-4.5,2.8c0,1.5,1,2.4,3.1,2.4c1.2,0,2.2-0.2,2.8-0.6V9.7 C170,7.8,168.8,7.1,167.1,7.1z M168.5,13.9c-0.3,0.1-0.7,0.3-1.2,0.3c-1.1,0-1.8-0.4-1.8-1.5c0-1.5,1.2-1.8,3-2V13.9z M182.2,7.1 c-2.2,0-3.3,1.8-3.3,4s1.1,4,3.3,4c2.2,0,3.3-1.7,3.3-4S184.4,7.1,182.2,7.1z M182.2,14c-1.3,0-1.7-1.4-1.7-2.9c0-1.5,0.4-3,1.7-3 c1.3,0,1.7,1.5,1.7,3C183.9,12.6,183.5,14,182.2,14z M158.7,7.3h1.4l-2.2,7.7h-1.4l-1.4-5c-0.1-0.5-0.2-1-0.2-1h0c0,0,0,0.5-0.2,1 l-1.5,5h-1.4l-2.2-7.7h1.6l1.3,5.1c0.1,0.6,0.2,1.1,0.2,1.1h0c0,0,0.1-0.5,0.2-1.1l1.5-5.1h1.4l1.4,5.1c0.1,0.5,0.2,1.1,0.2,1.1h0 c0,0,0-0.6,0.2-1.1L158.7,7.3z M161.2,3.8h1.5v11.2h-1.5V3.8z M176,7.3c-0.3-0.1-0.8-0.2-1.3-0.2c-2,0-3.5,1.6-3.5,4.1 c0,2.5,1.3,3.9,3.6,3.9c1.2,0,2.1-0.2,2.7-0.6V3.8H176V7.3z M176,13.8c-0.2,0.1-0.6,0.2-1.1,0.2c-1.5,0-2.1-1.1-2.1-3 c0-1.6,0.6-3.1,2.2-3.1c0.3,0,0.7,0,0.9,0.1V13.8z M96,7.1c-1.2,0-2.1,0.3-2.6,0.6l0.4,0.9c0.5-0.2,1.3-0.4,2-0.4 c1,0,1.7,0.3,1.7,1.4v0.4c-2.4,0.2-4.5,0.8-4.5,2.8c0,1.5,1,2.4,3.1,2.4c1.2,0,2.2-0.2,2.8-0.6V9.7C98.8,7.8,97.6,7.1,96,7.1z M97.4,13.9c-0.3,0.1-0.7,0.3-1.2,0.3c-1.1,0-1.8-0.4-1.8-1.5c0-1.5,1.2-1.8,3-2V13.9z M188.4,3.8v11.2h-1.5V3.8H188.4z M125.8,7.1 c-1.2,0-2.1,0.3-2.6,0.6l0.4,0.9c0.5-0.2,1.3-0.4,2-0.4c1,0,1.7,0.3,1.7,1.4v0.4c-2.4,0.2-4.5,0.8-4.5,2.8c0,1.5,1,2.4,3.1,2.4 c1.2,0,2.2-0.2,2.8-0.6V9.7C128.6,7.8,127.4,7.1,125.8,7.1z M127.2,13.9c-0.3,0.1-0.7,0.3-1.2,0.3c-1.1,0-1.8-0.4-1.8-1.5 c0-1.5,1.2-1.8,3-2V13.9z M115.2,11.3c0,2.3,1.3,3.8,3.2,3.8c0.7,0,1.3-0.1,1.6-0.3v0.5c0,1.1-0.6,1.8-1.9,1.8 c-0.8,0-1.6-0.2-2.1-0.4l-0.4,1.1c0.5,0.3,1.5,0.5,2.7,0.5c1.9,0,3.3-1.1,3.3-3.1V7.6C121,7.3,120,7.1,119,7.1 C116.5,7.1,115.2,8.8,115.2,11.3z M119.9,13.8c-0.3,0.2-0.7,0.3-1.1,0.3c-1.3,0-2-1-2-2.9c0-1.9,0.7-3.2,2.1-3.2 c0.5,0,0.8,0.1,1.1,0.2V13.8z M111,7.1c-2,0-3.3,1.5-3.3,4c0,2.6,1.4,4.1,3.6,4.1c1.2,0,2-0.3,2.6-0.6l-0.4-1 c-0.4,0.2-1.1,0.4-2,0.4c-1.3,0-2.1-0.8-2.3-2.3l5-0.7C114.2,8.4,113.1,7.1,111,7.1z M109.1,10.9c0-1.9,0.8-2.8,1.9-2.8 c1,0,1.7,0.7,1.7,2.3L109.1,10.9z M104.9,7.3c-0.3-0.1-0.8-0.2-1.3-0.2c-2,0-3.5,1.6-3.5,4.1c0,2.5,1.3,3.9,3.6,3.9 c1.2,0,2.1-0.2,2.7-0.6V3.8h-1.5V7.3z M104.9,13.8c-0.2,0.1-0.6,0.2-1.1,0.2c-1.5,0-2.1-1.1-2.1-3c0-1.6,0.6-3.1,2.2-3.1 c0.3,0,0.7,0,0.9,0.1V13.8z M145.1,9.4h3.2v5.2c-0.6,0.3-1.5,0.6-2.8,0.6c-2.7,0-4.5-1.8-4.5-5.1c0-3.2,2-5,4.5-5 c1.2,0,2,0.3,2.5,0.6l-0.4,1c-0.3-0.2-1.1-0.4-1.9-0.4c-1.8,0-3.1,1.2-3.1,3.9c0,2.6,1.2,3.9,2.7,3.9c0.6,0,1.1-0.1,1.3-0.2v-3.3 h-1.6V9.4z M134.5,7.3h1.5v7.3c-0.6,0.3-1.6,0.6-2.9,0.6c-2.1,0-3-1-3-2.6V7.3h1.5v5.3c0,0.8,0.5,1.4,1.5,1.4c0.6,0,1-0.1,1.3-0.3 V7.3z M0,10.8c0-1.2,0-2.1,0-3.5c0.2,0.9,0.4,1.3,0.7,2.1C0.4,9.8,0.3,10.2,0,10.8z M4.3,5c2.6-2.2,5.6-3.5,10.3-4.2H1.6 c0,0-1.6,0-1.6,2c0,0.1,0-0.2,0,0.3c0.2,1.8,0.7,3.7,1.3,5.3C2.2,7,3,6.1,4.3,5z M5.2,6.2C3.8,7.4,3,8.4,2,10 c2.1,4,6.3,7.4,12.8,7.8l0.1,0c0,0,2,0.1,2-2.2V1.9c0,0-0.1,0-0.1,0C11.5,2.4,7.9,3.9,5.2,6.2z M3.1,13.3C2.5,12.6,2,11.8,1.5,11 c-0.6,1.1-1.1,2.3-1.5,3.5v3.3l9.9,0C6.8,16.8,4.9,15.4,3.1,13.3z" fill="#222222"></path>
</svg>
